<svg width="36" height="24" viewBox="0 0 36 24" fill="none" xmlns="http://www.w3.org/2000/svg">
    <rect width="36" height="24" rx="4" fill="#F1F0ED" />
    <rect width="36" height="24" rx="4" fill="#231F20" />
    <path fill-rule="evenodd" clip-rule="evenodd"
        d="M26.27 16.498L25.2746 18.7804H25.1753V16H23.7698V20.7032H24.9689C25.1235 20.7033 25.2748 20.6565 25.405 20.5682C25.5351 20.4799 25.6386 20.3539 25.7031 20.2052L26.6906 17.9366H26.7899V20.7032H28.2111V16H27.0041C26.8497 16.0002 26.6985 16.0472 26.5684 16.1355C26.4383 16.2237 26.3348 16.3495 26.27 16.498ZM28.7835 16.368C28.7562 16.2472 28.7396 16.124 28.7338 16H31.7801C32.1958 16 32.5945 16.1749 32.8885 16.4862C33.1825 16.7975 33.3476 17.2197 33.3476 17.66C33.3445 17.7578 33.3322 17.8551 33.311 17.9505H30.6985C30.2756 17.9506 29.8637 17.808 29.5226 17.5433C29.1815 17.2786 28.929 16.9057 28.8018 16.4786V16.4482C28.7835 16.4205 28.7835 16.3956 28.7835 16.368ZM28.7916 20.7039V18.2361L33.2747 18.2416C33.1331 18.5712 32.903 18.8493 32.6131 19.0412C32.3231 19.2331 31.9862 19.3303 31.6445 19.3206H30.2128V20.7039H28.7916ZM20.2771 18.7805L19.6893 16.6198H19.6945C19.6452 16.4404 19.542 16.2828 19.4006 16.171C19.2592 16.0592 19.0872 15.9992 18.9108 16.0001H17.5V20.7033H18.9134V17.9367H19.0153L19.8226 20.7033H20.8336L21.6409 17.9367H21.7428V20.7033H23.1588V16.0001H21.7454C21.5686 15.9978 21.396 16.0573 21.2544 16.1693C21.1127 16.2813 21.0098 16.4396 20.9616 16.6198L20.3738 18.7805H20.2771Z"
        fill="white" />
    <mask id="mask0_2_4628" style="mask-type:luminance" maskUnits="userSpaceOnUse" x="0" y="0"
        width="22" height="24">
        <path d="M0 4C0 1.79086 1.79086 0 4 0H22V24H4C1.79086 24 0 22.2091 0 20V4Z" fill="white" />
    </mask>
    <g mask="url(#mask0_2_4628)">
        <path fill-rule="evenodd" clip-rule="evenodd"
            d="M0 22.9601V19.667L0.885709 18.731C2.49638 17.0289 3.30184 16.1777 3.6036 15.1963C3.86903 14.3331 3.86903 13.4031 3.6036 12.5399C3.30184 11.5584 2.49645 10.7073 0.885709 9.00519L0 8.06921V4.77773L2.44323 7.35963C4.05399 9.06181 4.85938 9.91293 5.78805 10.2318C6.60499 10.5123 7.48493 10.5123 8.30186 10.2318C9.23051 9.91295 10.0358 9.06194 11.6464 7.35997L18.611 0H21.7254L13.2041 9.00509C11.5933 10.7073 10.7879 11.5584 10.4862 12.5398C10.2207 13.4031 10.2207 14.333 10.4862 15.1963C10.7879 16.1777 11.5933 17.0288 13.2041 18.7309L18.1901 24H15.0735L11.6465 20.3784C10.0357 18.6762 9.23032 17.8251 8.30161 17.5062C7.48472 17.2258 6.60473 17.2258 5.78784 17.5062C4.85913 17.8251 4.05375 18.6762 2.44302 20.3784L0 22.9601Z"
            fill="#FFCD00" />
    </g>
</svg>
