<svg width="36" height="24" viewBox="0 0 36 24" fill="none" xmlns="http://www.w3.org/2000/svg">
<rect width="36" height="24" rx="3" fill="#F0F1EB"/>
<path fill-rule="evenodd" clip-rule="evenodd" d="M8.79545 21.0364H5.72727V7.2171C5.72727 4.86887 7.55898 2.965 9.81818 2.965H12.8864V16.7843C12.8864 19.1325 11.0547 21.0364 8.79545 21.0364Z" fill="#1061A7"/>
<path fill-rule="evenodd" clip-rule="evenodd" d="M16.9773 21.0364H13.9091V7.2171C13.9091 4.86887 15.7408 2.965 18 2.965H21.0682V16.7843C21.0682 19.1325 19.2365 21.0364 16.9773 21.0364Z" fill="#BF2240"/>
<path fill-rule="evenodd" clip-rule="evenodd" d="M26.1818 21.0364H22.0909V7.2171C22.0909 4.86887 23.9226 2.965 26.1818 2.965H30.2727V16.7843C30.2727 19.1325 28.441 21.0364 26.1818 21.0364Z" fill="#43A946"/>
<path fill-rule="evenodd" clip-rule="evenodd" d="M5.72757 12.4234C5.97916 12.5881 7.19109 12.9921 7.67791 13.0272C8.74462 13.1058 9.40632 12.7391 9.50859 11.8153L9.50348 8.38281H11.8639V11.7367C11.7402 13.6575 10.1181 14.0498 7.6503 13.9201C7.01109 13.8861 6.1428 13.7149 5.72757 13.6033V12.4234Z" fill="white"/>
<path fill-rule="evenodd" clip-rule="evenodd" d="M13.9099 9.18341C14.7434 8.50627 16.0873 8.1746 17.7963 8.31173C18.7689 8.38933 19.4889 8.53072 19.8806 8.6519V9.85206C19.449 9.62776 18.595 9.29397 17.8832 9.24082C16.2714 9.11963 15.4246 9.90521 15.4246 11.1745C15.4246 12.3172 16.0791 13.2941 17.876 13.1644C18.4692 13.1209 19.4561 12.7626 19.8765 12.5543L19.8806 13.7193C19.5196 13.8373 18.3956 14.0925 17.3371 14.101C15.7436 14.1148 14.6197 13.7629 13.9089 13.1921L13.9099 9.18341Z" fill="white"/>
<path fill-rule="evenodd" clip-rule="evenodd" d="M25.0932 13.0482L23.4405 13.0429L23.4436 11.5068C23.6256 11.5015 24.634 11.5111 25.0963 11.5068C25.4696 11.5037 25.8183 11.8236 25.8183 12.2637C25.8183 12.7623 25.4144 13.0482 25.0932 13.0482ZM23.4374 9.24174C23.6256 9.22473 24.4847 9.24812 24.9603 9.23642C25.2988 9.22792 25.6179 9.52556 25.6179 9.96672C25.6179 10.3983 25.2538 10.646 24.994 10.6513L23.4323 10.6396L23.4374 9.24174ZM26.566 11.0986V11.0763C27.5652 10.8775 27.8423 10.2642 27.8423 9.72309C27.8423 8.71428 26.9014 8.36029 26.1037 8.36029H22.0915L22.0905 13.9412L26.4831 13.9359C27.0681 13.9359 28.1604 13.6297 28.1604 12.5242C28.1604 11.4537 27.1489 11.0986 26.566 11.0986Z" fill="white"/>
</svg>
