<svg width="36" height="24" viewBox="0 0 36 24" fill="none" xmlns="http://www.w3.org/2000/svg">
<rect width="36" height="24" rx="4" fill="#F1F0ED"/>
<g clip-path="url(#clip0_9173_153758)">
<path d="M17.7157 8.69126V11.6007H19.5089C19.936 11.6007 20.2891 11.4574 20.5682 11.1699C20.8554 10.8833 20.9986 10.5413 20.9986 10.1456C20.9986 9.74982 20.8554 9.42004 20.5682 9.1326C20.2883 8.83783 19.9352 8.69045 19.5089 8.69045H17.7157V8.69126ZM17.7157 12.6259V16.0011H16.645V7.66689H19.4853C20.2069 7.66689 20.8188 7.90792 21.324 8.38835C21.8374 8.86877 22.0929 9.45505 22.0929 10.1456C22.0929 10.8361 21.8374 11.4419 21.324 11.9142C20.8277 12.3881 20.2143 12.6242 19.4853 12.6242H17.7157V12.6259Z" fill="#5F6368"/>
<path d="M23.175 14.2536C23.175 14.5337 23.2929 14.7658 23.5305 14.9523C23.7673 15.1379 24.0447 15.2316 24.3628 15.2316C24.8136 15.2316 25.2138 15.0646 25.5669 14.7316C25.92 14.3977 26.0966 14.0061 26.0966 13.5566C25.763 13.2919 25.2968 13.1608 24.6996 13.1608C24.2652 13.1608 23.9023 13.2659 23.6119 13.4751C23.3214 13.6844 23.175 13.9434 23.175 14.2536M24.5605 10.1105C25.3522 10.1105 25.977 10.3214 26.4351 10.7449C26.8931 11.1683 27.1209 11.7472 27.1209 12.4842V15.9994H26.0966V15.2079H26.0502C25.6076 15.8594 25.0186 16.1851 24.2815 16.1851C23.6525 16.1851 23.1261 15.9994 22.7039 15.6273C22.2808 15.2544 22.0693 14.7894 22.0693 14.23C22.0693 13.6404 22.2914 13.1714 22.7381 12.8229C23.1847 12.4736 23.7803 12.2993 24.5247 12.2993C25.161 12.2993 25.6849 12.4158 26.0958 12.6487V12.4044C26.0958 12.0322 25.9485 11.7163 25.654 11.4565C25.3587 11.196 25.0145 11.0665 24.6183 11.0665C24.0203 11.0665 23.5476 11.3181 23.1986 11.823L22.2548 11.2294C22.7755 10.4843 23.5435 10.1122 24.5605 10.1122" fill="#5F6368"/>
<path d="M33 10.297L29.4259 18.5131H28.3202L29.6472 15.6387L27.2958 10.297H28.4601L30.1597 14.3937H30.1825L31.8357 10.297H33Z" fill="#5F6368"/>
<path d="M13.3881 11.8971C13.3881 11.56 13.3597 11.2343 13.306 10.9232H8.78886V12.7675H11.3753C11.2646 13.3685 10.9286 13.8799 10.4193 14.2227V15.4205H11.9635C12.8674 14.5866 13.3881 13.3546 13.3881 11.8979" fill="#4285F4"/>
<path d="M8.78885 16.5767C10.0817 16.5767 11.1694 16.1525 11.9635 15.4205L10.4193 14.2227C9.98972 14.5117 9.43648 14.6811 8.78885 14.6811C7.53997 14.6811 6.47985 13.8391 6.0999 12.7048H4.51012V13.9385C5.2985 15.5027 6.91838 16.5776 8.78966 16.5776" fill="#34A853"/>
<path d="M6.10072 12.704C6.0039 12.415 5.9502 12.1064 5.9502 11.788C5.9502 11.4696 6.00309 11.161 6.10072 10.8719V9.63828H4.51013C4.18387 10.2848 4 11.0144 4 11.788C4 12.5615 4.18387 13.292 4.51013 13.9377L6.10072 12.704V12.704Z" fill="#FABB05"/>
<path d="M8.78885 8.89483C9.49424 8.89483 10.1272 9.13749 10.626 9.61303L11.9928 8.24666C11.1629 7.47473 10.0808 7 8.78885 7C6.91838 7 5.2985 8.07404 4.51012 9.63827L6.10071 10.8719C6.47985 9.73761 7.53997 8.89564 8.78966 8.89564" fill="#E94235"/>
</g>
<defs>
<clipPath id="clip0_9173_153758">
<rect width="29" height="11.5131" fill="white" transform="translate(4 7)"/>
</clipPath>
</defs>
</svg>
