<svg width="36" height="24" viewBox="0 0 36 24" fill="none" xmlns="http://www.w3.org/2000/svg">
    <rect width="36" height="24" rx="3" fill="#F0F1EB" />
    <path
        d="M30.7839 3.00772H23.8448H23.8293C22.8799 3.0386 21.6912 3.80275 21.4751 4.74443L18.187 19.2556C17.9708 20.205 18.5575 20.9846 19.5069 20.9923H26.7933C27.7273 20.946 28.6304 20.1895 28.8465 19.2556L32.1269 4.74443C32.3508 3.78731 31.7487 3.00772 30.7839 3.00772Z"
        fill="#01798A" />
    <path
        d="M18.187 19.2556L21.4751 4.74443C21.6912 3.80275 22.8799 3.0386 23.8293 3.00772H21.0738H16.1029C15.1458 3.03088 13.9417 3.79503 13.7256 4.74443L10.4451 19.2556C10.229 20.205 10.8156 20.9846 11.765 20.9923H19.5146C18.5652 20.9846 17.9708 20.2127 18.187 19.2556Z"
        fill="#024381" />
    <path
        d="M10.4451 19.2555L13.7256 4.74438C13.9417 3.79498 15.1458 3.02311 16.1029 3.00768H9.73499C8.77015 3.00768 7.54288 3.78726 7.31904 4.7521L4.03859 19.2555C4.01544 19.3404 4.00772 19.4331 4 19.518V19.7881C4.06175 20.4828 4.59434 20.9845 5.35849 21H11.765C10.8156 20.9845 10.229 20.2126 10.4451 19.2555Z"
        fill="#DD0228" />
    <path
        d="M16.2341 13.5823H16.3576C16.4657 13.5823 16.5429 13.5437 16.5815 13.4743L16.8979 13.0034H17.7393L17.5617 13.3122H18.5652L18.434 13.783H17.2376C17.0986 13.9914 16.9288 14.084 16.7281 14.0763H16.1029L16.2341 13.5823ZM16.0952 14.2616H18.295L18.1561 14.771H17.2684L17.1295 15.265H17.994L17.8551 15.7822H16.9906L16.7899 16.5154C16.7436 16.6389 16.8053 16.693 16.9828 16.6775H17.6852L17.554 17.1561H16.2033C15.9485 17.1561 15.8636 17.0094 15.9408 16.7161L16.1955 15.7822H15.6475L15.7864 15.2727H16.3345L16.4657 14.7787H15.9408L16.0952 14.2616ZM19.6149 12.9957L19.584 13.2967C19.584 13.2967 20.0009 12.988 20.3791 12.988H21.7762L21.2436 14.9177C21.1972 15.1415 21.012 15.2496 20.6724 15.2496H19.09L18.7195 16.6081C18.6964 16.6775 18.7273 16.7161 18.8045 16.7161H19.1132L18.9974 17.1407H18.2101C17.9091 17.1407 17.7779 17.048 17.8319 16.8628L18.8816 13.0034H19.6149V12.9957ZM20.7959 13.5437H19.5532L19.4065 14.0609C19.4065 14.0609 19.6149 13.9142 19.9623 13.9065C20.3096 13.8988 20.7033 13.9065 20.7033 13.9065L20.7959 13.5437ZM20.3405 14.7556C20.4331 14.771 20.4871 14.7324 20.4871 14.6475L20.5643 14.3696H19.3216L19.2135 14.7556H20.3405ZM19.4991 15.3731H20.217L20.2015 15.6818H20.3945C20.4948 15.6818 20.5412 15.6509 20.5412 15.5892L20.5952 15.3885H21.1895L21.1123 15.6818C21.0429 15.9288 20.8653 16.0523 20.572 16.0678H20.1861V16.6003C20.1784 16.6852 20.2556 16.7316 20.4177 16.7316H20.7804L20.6647 17.1561H19.8002C19.5609 17.1638 19.4374 17.0557 19.4451 16.8087L19.4991 15.3731Z"
        fill="white" />
    <path
        d="M10.7925 10.4254C10.6921 10.9039 10.4683 11.2667 10.1209 11.5292C9.77358 11.7839 9.3259 11.9151 8.77787 11.9151C8.26072 11.9151 7.8825 11.7839 7.64322 11.5214C7.47341 11.3362 7.39622 11.0969 7.39622 10.8113C7.39622 10.6955 7.41166 10.5643 7.44254 10.4254L8.02916 7.60806H8.90137L8.32247 10.3945C8.30703 10.4717 8.29931 10.5412 8.29931 10.6106C8.29931 10.7496 8.33019 10.8731 8.40737 10.958C8.51544 11.0969 8.68525 11.1587 8.91681 11.1587C9.18696 11.1587 9.4108 11.0892 9.58833 10.958C9.75815 10.8268 9.87393 10.6338 9.92796 10.3945L10.5069 7.60806H11.3868L10.7925 10.4254Z"
        fill="white" />
    <path
        d="M14.4974 9.32162H15.1921L14.6518 11.8379H13.9648L14.4974 9.32162ZM14.7213 8.40309H15.416L15.2847 9.01287H14.5901L14.7213 8.40309Z"
        fill="white" />
    <path
        d="M15.8019 11.6449C15.6244 11.4751 15.5317 11.2358 15.5317 10.9425C15.5317 10.8885 15.5317 10.8345 15.5395 10.7727C15.5472 10.711 15.5549 10.6492 15.5626 10.5875C15.6475 10.1784 15.8173 9.8542 16.0875 9.61492C16.3576 9.37564 16.6818 9.25214 17.06 9.25214C17.3688 9.25214 17.6158 9.33704 17.7933 9.51457C17.9708 9.6921 18.0635 9.92366 18.0635 10.2247C18.0635 10.2787 18.0558 10.3328 18.0558 10.4022C18.048 10.464 18.0403 10.5257 18.0249 10.5875C17.9477 10.9888 17.7702 11.313 17.5 11.5446C17.2299 11.7839 16.9057 11.8996 16.5352 11.8996C16.2264 11.8996 15.9794 11.8147 15.8019 11.6449ZM17.1218 11.1432C17.2453 11.012 17.3302 10.8113 17.3842 10.5412C17.3919 10.5026 17.3997 10.4563 17.4074 10.4099C17.4151 10.3636 17.4151 10.325 17.4151 10.2942C17.4151 10.1398 17.3765 10.0163 17.2993 9.93138C17.2221 9.84648 17.1064 9.80016 16.9674 9.80016C16.7744 9.80016 16.6201 9.86963 16.4966 10.0009C16.3731 10.1321 16.2882 10.3405 16.2341 10.6106C16.2264 10.6492 16.2187 10.6955 16.211 10.7341C16.2033 10.7727 16.2033 10.8113 16.2033 10.8499C16.2033 11.0043 16.2419 11.1201 16.319 11.205C16.3962 11.2899 16.512 11.3285 16.6587 11.3285C16.8439 11.3439 16.9983 11.2744 17.1218 11.1432Z"
        fill="white" />
    <path d="M23.8448 3.00772L21.066 3L23.8293 3.00772H23.8448Z" fill="#E02F41" />
    <path
        d="M22.5558 13.6055L22.7256 13.0189H23.5669L23.5283 13.235C23.5283 13.235 23.9606 13.0189 24.2693 13.0189C24.5781 13.0189 25.3113 13.0189 25.3113 13.0189L25.1492 13.6055H24.9871L24.1998 16.3688H24.3619L24.2076 16.9168H24.0455L23.976 17.1561H23.1578L23.2273 16.9168H21.6141L21.7684 16.3688H21.9305L22.7178 13.6055H22.5558ZM23.4666 13.6055L23.2504 14.3542C23.2504 14.3542 23.6209 14.2153 23.9297 14.1767C23.9992 13.9142 24.0918 13.6055 24.0918 13.6055H23.4666ZM23.1501 14.7015L22.934 15.4889C22.934 15.4889 23.3431 15.2882 23.6209 15.2727C23.6981 14.9717 23.783 14.7093 23.783 14.7093H23.1501V14.7015ZM23.3045 16.3688L23.4666 15.7976H22.8413L22.6793 16.3688H23.3045ZM25.3422 12.9803H26.1372L26.1681 13.2736C26.1604 13.3508 26.2067 13.3816 26.2993 13.3816H26.4383L26.2993 13.8756H25.7204C25.4966 13.8834 25.3808 13.7985 25.3731 13.6209L25.3422 12.9803ZM25.1106 14.0455H27.6733L27.5189 14.578H26.7007L26.5618 15.072H27.3799L27.2256 15.6046H26.3148L26.1064 15.9134H26.554L26.6544 16.5386C26.6698 16.6003 26.7239 16.6312 26.8165 16.6312H26.9554L26.8088 17.1407H26.3225C26.0678 17.1561 25.9365 17.0712 25.9288 16.8859L25.813 16.3148L25.4117 16.9168C25.319 17.0866 25.1724 17.1638 24.9717 17.1561H24.223L24.3696 16.6467H24.6012C24.6938 16.6467 24.7787 16.6003 24.8482 16.5154L25.4811 15.5969H24.663L24.8173 15.0643H25.705L25.8439 14.5703H24.9563L25.1106 14.0455Z"
        fill="white" />
    <path
        d="M11.6106 9.31389H12.2358L12.1664 9.67666L12.259 9.57632C12.4597 9.3602 12.7067 9.25214 12.9923 9.25214C13.2547 9.25214 13.44 9.32932 13.5635 9.4837C13.6792 9.63807 13.7101 9.84648 13.6561 10.1243L13.3165 11.8379H12.6758L12.9846 10.2864C13.0154 10.1243 13.0077 10.0086 12.9614 9.93138C12.9151 9.85419 12.8225 9.8156 12.6835 9.8156C12.5214 9.8156 12.3825 9.86963 12.2667 9.96998C12.1509 10.0703 12.0815 10.217 12.0429 10.3945L11.7573 11.8379H11.1166L11.6106 9.31389Z"
        fill="white" />
    <path
        d="M18.7504 9.31389H19.3757L19.3062 9.67666L19.3911 9.57632C19.5918 9.3602 19.8388 9.25214 20.1321 9.25214C20.3945 9.25214 20.5875 9.32932 20.7033 9.4837C20.819 9.63807 20.8499 9.84648 20.7959 10.1243L20.4563 11.8379H19.8156L20.1244 10.2864C20.1552 10.1243 20.1475 10.0086 20.1012 9.93138C20.0472 9.85419 19.9623 9.8156 19.8233 9.8156C19.6612 9.8156 19.5223 9.86963 19.4065 9.96998C19.2907 10.0703 19.2213 10.217 19.1827 10.3945L18.8971 11.8379H18.2564L18.7504 9.31389Z"
        fill="white" />
    <path
        d="M21.8379 7.76244H23.6441C23.9914 7.76244 24.2616 7.83962 24.4468 7.994C24.6321 8.14837 24.7247 8.37221 24.7247 8.66552V8.67324C24.7247 8.72727 24.7247 8.78902 24.717 8.85849C24.7093 8.92796 24.6938 8.99743 24.6784 9.0669C24.6012 9.45283 24.4159 9.7693 24.1304 10.0009C23.8448 10.2401 23.5051 10.3559 23.1115 10.3559H22.1389L21.8379 11.8302H20.9966L21.8379 7.76244ZM22.2856 9.65352H23.0883C23.2967 9.65352 23.4665 9.6072 23.5823 9.50686C23.7058 9.40652 23.783 9.25986 23.8293 9.05918C23.837 9.02058 23.837 8.98971 23.8448 8.95883C23.8448 8.92796 23.8525 8.89708 23.8525 8.87393C23.8525 8.72727 23.7985 8.62693 23.6981 8.55746C23.5978 8.48799 23.4357 8.45712 23.2118 8.45712H22.5249L22.2856 9.65352Z"
        fill="white" />
    <path
        d="M28.4914 12.3165C28.229 12.8799 27.9743 13.2118 27.8199 13.3662C27.6732 13.5206 27.3722 13.8679 26.6621 13.8448L26.7238 13.4125C27.3182 13.2273 27.6424 12.4014 27.8276 12.0309L27.6115 9.32161L28.0746 9.31389H28.4605L28.4991 11.012L29.2247 9.31389H29.958L28.4914 12.3165Z"
        fill="white" />
    <path
        d="M26.4305 9.5223L26.1372 9.72299C25.8285 9.48371 25.5506 9.33705 25.018 9.58405C24.2847 9.92367 23.675 12.5326 25.6895 11.6758L25.8053 11.8148L26.6003 11.8379L27.1252 9.46827L26.4305 9.5223ZM25.9751 10.819C25.8439 11.1973 25.566 11.4443 25.3422 11.3748C25.1184 11.3053 25.0412 10.9425 25.1724 10.5643C25.3036 10.1861 25.5892 9.93911 25.8053 10.0086C26.0292 10.078 26.1063 10.4408 25.9751 10.819Z"
        fill="white" />
</svg>
