<svg width="36" height="24" viewBox="0 0 36 24" fill="none" xmlns="http://www.w3.org/2000/svg">
<path d="M0 4C0 1.79086 1.79086 0 4 0H32C34.2091 0 36 1.79086 36 4V20C36 22.2091 34.2091 24 32 24H4C1.79086 24 0 22.2091 0 20V4Z" fill="white"/>
<path fill-rule="evenodd" clip-rule="evenodd" d="M13.8534 15.8499L15.2814 7.1553H17.5664L16.1382 15.8499H13.8534Z" fill="#3244CA"/>
<path fill-rule="evenodd" clip-rule="evenodd" d="M9.75286 13.1353L9.49535 11.8475L8.72657 7.93839C8.72657 7.93839 8.63384 7.1553 7.64275 7.1553H4.04202L4 7.30229C4 7.30229 5.10142 7.52929 6.38969 8.29656L8.37468 15.8499H10.7552L14.3902 7.1553H11.9313L9.75286 13.1353Z" fill="#3244CA"/>
<path fill-rule="evenodd" clip-rule="evenodd" d="M27.388 12.7746L28.5887 9.52061L29.2641 12.7746H27.388ZM32 15.8499L30.1709 7.1553H28.334C27.4856 7.1553 27.2793 7.80326 27.2793 7.80326L23.872 15.8499H26.2532L26.7298 14.5587H29.6342L29.9021 15.8499H32Z" fill="#3244CA"/>
<path fill-rule="evenodd" clip-rule="evenodd" d="M24.3765 7.3791C24.3765 7.3791 23.3704 7 22.3215 7C21.1877 7 18.4954 7.4912 18.4954 9.87836C18.4954 12.1248 21.6553 12.1527 21.6553 13.3321C21.6553 14.5115 18.821 14.3008 17.8858 13.5568L17.5459 15.5088C17.5459 15.5088 18.5659 16 20.125 16C21.684 16 24.0363 15.1997 24.0363 13.0233C24.0363 10.7626 20.8478 10.5521 20.8478 9.56927C20.8478 8.5864 23.0729 8.71269 24.0506 9.24645L24.3765 7.3791Z" fill="#3244CA"/>
<path fill-rule="evenodd" clip-rule="evenodd" d="M8.72657 7.93839C8.72657 7.93839 8.63384 7.1553 7.64275 7.1553H4.04202L4 7.30229C4 7.30229 5.73077 7.6579 7.39111 8.98917C8.97798 10.2618 9.49559 11.848 9.49559 11.848L8.72657 7.93839Z" fill="#3244CA"/>
</svg>
