<svg width="30" height="30" viewBox="0 0 30 30" fill="none" xmlns="http://www.w3.org/2000/svg">
<rect width="30" height="30" rx="15" fill="#C0C0C0" fill-opacity="0.3"/>
<path fill-rule="evenodd" clip-rule="evenodd" d="M13.4 19.5636V23H22.4C22.7314 23 23 22.7314 23 22.4V12.6909C23 12.3595 22.7314 12.0909 22.4 12.0909H18.5571L18.4306 13.5454H21.4V14.2727H18.3674L18.2408 15.7273H21.4V16.4545H18.1776L17.8792 19.884C17.8684 20.008 17.7526 20.1003 17.6205 20.0902C17.4959 20.0806 17.4 19.983 17.4 19.8657V16.4545V15.7273V14.2727V13.5454V12.0909H17.4V8.12727C17.4 7.90636 17.2209 7.72727 17 7.72727H16.6V7.4C16.6 7.17909 16.4209 7 16.2 7H8.2C7.97909 7 7.8 7.17909 7.8 7.4V7.72727H7.4C7.17909 7.72727 7 7.90636 7 8.12727V22.4C7 22.7314 7.26863 23 7.6 23H11V19.5636C11 19.4532 11.0895 19.3636 11.2 19.3636H13.2C13.3105 19.3636 13.4 19.4532 13.4 19.5636ZM18.6204 11.3636L18.6837 10.6364H21C21.2209 10.6364 21.4 10.8154 21.4 11.0364V11.3636H18.6204ZM9.79999 17.1818V12.8182H11.4V17.1818H9.79999ZM13 12.8182V17.1818H14.6V12.8182H13ZM9.79999 11.3636V9.18182H11.4V11.3636H9.79999ZM13 9.18182V11.3636H14.6V9.18182H13ZM19 18.6364V17.9091H21.4V18.6364H19Z" fill="#4D4D4D"/>
</svg>
