<svg width="36" height="24" viewBox="0 0 36 24" fill="none" xmlns="http://www.w3.org/2000/svg">
<path d="M0 4C0 1.79086 1.79086 0 4 0H32C34.2091 0 36 1.79086 36 4V20C36 22.2091 34.2091 24 32 24H4C1.79086 24 0 22.2091 0 20V4Z" fill="#1A1A1A"/>
<path d="M12.75 19.5C16.8921 19.5 20.25 16.1421 20.25 12C20.25 7.85786 16.8921 4.5 12.75 4.5C8.60786 4.5 5.25 7.85786 5.25 12C5.25 16.1421 8.60786 19.5 12.75 19.5Z" fill="#EB001B"/>
<path d="M23.25 19.5C27.3921 19.5 30.75 16.1421 30.75 12C30.75 7.85786 27.3921 4.5 23.25 4.5C19.1079 4.5 15.75 7.85786 15.75 12C15.75 16.1421 19.1079 19.5 23.25 19.5Z" fill="#F79E1B"/>
<path fill-rule="evenodd" clip-rule="evenodd" d="M18 6.64386C16.6115 8.00505 15.75 9.90189 15.75 11.9999C15.75 14.098 16.6115 15.9948 18 17.356C19.3885 15.9948 20.25 14.098 20.25 11.9999C20.25 9.90189 19.3885 8.00505 18 6.64386Z" fill="#FF5F00"/>
</svg>
