<svg width="36" height="24" viewBox="0 0 36 24" fill="none" xmlns="http://www.w3.org/2000/svg">
<rect width="36" height="24" rx="3" fill="white"/>
<path fill-rule="evenodd" clip-rule="evenodd" d="M24.2023 11.5859V15.9351H26.6169V13.3578H29.3534C30.5052 13.3493 31.4835 12.6131 31.8525 11.5859H24.2023Z" fill="#35A724"/>
<path fill-rule="evenodd" clip-rule="evenodd" d="M23.8804 8C24.021 9.77771 25.7017 11.1814 27.7543 11.1814C27.761 11.1814 31.9528 11.1814 31.9528 11.1814C31.9838 11.0183 32 10.85 32 10.678C32 9.20537 30.8127 8.01089 29.3439 8.00007L23.8804 8Z" fill="#35A724"/>
<path fill-rule="evenodd" clip-rule="evenodd" d="M20.3066 11.1391L20.3085 11.135L20.3087 11.1351C20.3335 11.0906 20.3809 11.0605 20.4354 11.0605C20.514 11.0605 20.578 11.1233 20.5802 11.2015L20.5802 11.2015V15.893H22.9948V8H20.5802C20.274 8.0102 19.9281 8.23504 19.7995 8.51104L17.8779 12.6346C17.8732 12.6515 17.8658 12.6672 17.8562 12.6813L17.8555 12.6827L17.8553 12.6826C17.8262 12.7245 17.7778 12.7519 17.723 12.7519C17.6341 12.7519 17.562 12.6798 17.562 12.5908V8H15.1474V15.893H17.562V15.8921C17.8648 15.8763 18.2027 15.6539 18.3294 15.3819L20.3016 11.1497C20.3031 11.1461 20.3048 11.1425 20.3066 11.1391Z" fill="#35A724"/>
<path fill-rule="evenodd" clip-rule="evenodd" d="M11.2902 11.274L9.87896 15.893H8.14196L6.72988 11.2712C6.71626 11.1972 6.65145 11.1411 6.57355 11.1411C6.48576 11.1411 6.41459 11.2123 6.41459 11.3002C6.41459 11.3008 6.4146 11.3015 6.4146 11.3022L6.41459 15.893H4V8H6.07252H6.68976C7.13406 8 7.59964 8.34503 7.72948 8.76998L8.9046 12.6162C8.96306 12.8076 9.05792 12.8074 9.11633 12.6162L10.2914 8.76998C10.4214 8.34473 10.8868 8 11.3312 8L11.9482 8H14.0206V15.893H11.606V11.3022C11.606 11.3015 11.606 11.3008 11.606 11.3002C11.606 11.2123 11.5348 11.1411 11.447 11.1411C11.3681 11.1411 11.3027 11.1986 11.2902 11.274Z" fill="#35A724"/>
</svg>
