<svg width="26" height="26" viewBox="0 0 26 26" fill="none" xmlns="http://www.w3.org/2000/svg">
<circle cx="13" cy="13" r="13" transform="matrix(-4.37114e-08 -1 -1 4.37114e-08 26 26)" fill="#8434E9"/>
<path d="M11.2589 18.0163L7.98385 18.0163C7.19232 18.0163 6.55066 17.3746 6.55066 16.5831V8.70053C6.55066 7.909 7.19232 7.26733 7.98385 7.26733H16.583C17.3746 7.26733 18.0162 7.909 18.0162 8.70053V10.4192C17.4526 10.2339 16.8504 10.1337 16.2247 10.1337C16.1359 10.1337 16.0476 10.1357 15.9597 10.1397C15.9292 10.1358 15.898 10.1337 15.8664 10.1337H8.70045C8.30469 10.1337 7.98385 10.4546 7.98385 10.8503V15.8665C7.98385 16.2623 8.30469 16.5831 8.70045 16.5831H10.6726C10.8034 17.0916 11.0023 17.5727 11.2589 18.0163Z" fill="white"/>
<path fill-rule="evenodd" clip-rule="evenodd" d="M16.2247 20.1661C13.8501 20.1661 11.9251 18.2411 11.9251 15.8665C11.9251 13.4919 13.8501 11.5669 16.2247 11.5669C18.5993 11.5669 20.5243 13.4919 20.5243 15.8665C20.5243 18.2411 18.5993 20.1661 16.2247 20.1661ZM16.372 13.1793C16.441 13.1793 16.4987 13.2315 16.5057 13.3001L16.7593 15.8027L18.3777 16.8657C18.4473 16.9114 18.4706 17.0026 18.4315 17.0762L18.2777 17.3654C18.2394 17.4375 18.1531 17.4695 18.077 17.44L16.0351 16.6466C15.8067 16.5579 15.6733 16.3301 15.6882 16.0976L15.9448 13.3014C15.9511 13.2322 16.0092 13.1793 16.0786 13.1793H16.372Z" fill="white"/>
</svg>
