<svg width="25" height="24" viewBox="0 0 25 24" fill="none" xmlns="http://www.w3.org/2000/svg">
    <g clip-path="url(#clip0_16827_280071)">
        <path
            d="M13.5 2H21.5V11H21C20.7033 11 20.4133 11.088 20.1666 11.2528C19.92 11.4176 19.7277 11.6519 19.6142 11.926C19.5006 12.2001 19.4709 12.5017 19.5288 12.7926C19.5867 13.0836 19.7296 13.3509 19.9393 13.5607C20.1491 13.7704 20.4164 13.9133 20.7074 13.9712C20.9983 14.0291 21.2999 13.9994 21.574 13.8858C21.8481 13.7723 22.0824 13.58 22.2472 13.3334C22.412 13.0867 22.5 12.7967 22.5 12.5H23.5C23.5 12.9945 23.3534 13.4778 23.0787 13.8889C22.804 14.3 22.4135 14.6205 21.9567 14.8097C21.4999 14.9989 20.9972 15.0484 20.5123 14.952C20.0273 14.8555 19.5819 14.6174 19.2322 14.2678C18.8826 13.9181 18.6445 13.4727 18.548 12.9877C18.4516 12.5028 18.5011 12.0001 18.6903 11.5433C18.8795 11.0865 19.2 10.696 19.6111 10.4213C19.8819 10.2404 20.184 10.115 20.5 10.0505V4H16.3L11.5 12H16.5V20H14.5C14.5 16.6863 11.8137 14 8.5 14C5.18629 14 2.5 16.6863 2.5 20H0.5V12H3.5L13.5 2Z"
            fill="black" />
        <path fill-rule="evenodd" clip-rule="evenodd"
            d="M8.5 24C10.7091 24 12.5 22.2091 12.5 20C12.5 17.7909 10.7091 16 8.5 16C6.29086 16 4.5 17.7909 4.5 20C4.5 22.2091 6.29086 24 8.5 24ZM8.5 22C9.60457 22 10.5 21.1046 10.5 20C10.5 18.8954 9.60457 18 8.5 18C7.39543 18 6.5 18.8954 6.5 20C6.5 21.1046 7.39543 22 8.5 22Z"
            fill="black" />
    </g>
    <defs>
        <clipPath id="clip0_16827_280071">
            <rect width="24" height="24" fill="white" transform="translate(0.5)" />
        </clipPath>
    </defs>
</svg>
