<svg width="" height="" viewBox="0 0 22 19" fill="none" xmlns="http://www.w3.org/2000/svg">
    <path d="M19.5 7H18C18 5.14348 17.2625 3.36301 15.9497 2.05025C14.637 0.737498 12.8565 0 11 0C9.14348 0 7.36301 0.737498 6.05025 2.05025C4.7375 3.36301 4 5.14348 4 7H2.5C1.83696 7 1.20107 7.26339 0.732233 7.73223C0.263392 8.20107 0 8.83696 0 9.5V12.5C0 13.163 0.263392 13.7989 0.732233 14.2678C1.20107 14.7366 1.83696 15 2.5 15H6V7C6 5.67392 6.52678 4.40215 7.46447 3.46447C8.40215 2.52678 9.67392 2 11 2C12.3261 2 13.5979 2.52678 14.5355 3.46447C15.4732 4.40215 16 5.67392 16 7V15C16 15.5304 15.7893 16.0391 15.4142 16.4142C15.0391 16.7893 14.5304 17 14 17H11.06L10.33 19H14C15.0609 19 16.0783 18.5786 16.8284 17.8284C17.5786 17.0783 18 16.0609 18 15H19.5C20.163 15 20.7989 14.7366 21.2678 14.2678C21.7366 13.7989 22 13.163 22 12.5V9.5C22 8.83696 21.7366 8.20107 21.2678 7.73223C20.7989 7.26339 20.163 7 19.5 7Z" fill="black"/>
</svg>