<svg width="28" height="28" viewBox="0 0 28 28" fill="none" xmlns="http://www.w3.org/2000/svg">
    <path fill-rule="evenodd" clip-rule="evenodd"
        d="M22.3596 12.0556C21.3226 14 19.8318 14.9723 17.8874 14.9723C15.9429 14.9723 14.4522 14 13.4151 12.0556L13.7807 2.91624C13.7937 2.59063 14.0615 2.33337 14.3874 2.33337H14.7857C14.8894 2.33337 14.9748 2.41462 14.9799 2.51811L15.311 9.13893H16.9638L17.2948 2.51811C17.3 2.41462 17.3854 2.33337 17.489 2.33337H18.2857C18.3894 2.33337 18.4748 2.41462 18.4799 2.51811L18.811 9.13893H20.4638L20.7948 2.51811C20.8 2.41462 20.8854 2.33337 20.989 2.33337H21.3874C21.7132 2.33337 21.981 2.59063 21.994 2.91624L22.3596 12.0556ZM18.9667 15.8029L19.2199 24.6667C19.2352 25.2034 18.8126 25.651 18.2759 25.6663C18.2666 25.6666 18.2573 25.6667 18.2481 25.6667H17.5267C16.9897 25.6667 16.5544 25.2314 16.5544 24.6945C16.5544 24.6852 16.5546 24.676 16.5548 24.6667L16.8081 15.8029C17.1678 15.8973 17.5276 15.9445 17.8874 15.9445C18.2471 15.9445 18.6069 15.8973 18.9667 15.8029ZM11.0818 3.35951V25.6667H10.3834C9.30948 25.6667 8.43892 24.7962 8.43892 23.7223C8.43892 23.6964 8.43944 23.6704 8.44048 23.6445L8.74848 15.9445C8.35959 14.9341 7.517 14.286 6.2207 14C6.2207 8.82605 7.27575 5.06282 9.38584 2.71034C9.74437 2.31063 10.359 2.27723 10.7588 2.63576C10.9644 2.82017 11.0818 3.08333 11.0818 3.35951Z"
        fill="black" />
</svg>
