<svg id="vector" xmlns="http://www.w3.org/2000/svg" width="28" height="28" viewBox="0 0 28 28">
    <path fill="#292A2B" fill-rule="evenodd"
        d="M12.6,11.2C14.7,10.5 16.8,9.1 16.8,7C16.8,5.691 16.256,5.198 15.676,4.673C15.326,4.356 14.964,4.027 14.7,3.5C14,2.1 15.167,0.233 15.4,0C13.767,0.933 11.603,3.5 13.003,5.6C14.403,7.7 14.7,9.1 12.6,11.2ZM17.462,9.465C17.834,9.563 18.155,9.677 18.429,9.804C19.327,10.224 19.6,10.723 19.6,11.2C19.6,11.446 19.48,11.702 19.137,11.98C18.968,12.117 18.759,12.247 18.517,12.367C15.596,13.396 12.405,13.396 9.483,12.367C9.241,12.247 9.032,12.117 8.863,11.98C8.521,11.702 8.4,11.446 8.4,11.2C8.4,10.723 8.673,10.224 9.571,9.804C10.24,9.492 11.197,9.261 12.464,9.158C12.661,8.819 12.711,8.569 12.714,8.379C12.717,8.202 12.682,7.999 12.589,7.745C11.101,7.845 9.89,8.111 8.979,8.536C7.778,9.096 7,9.997 7,11.2L7,11.2L8.892,25.07C9.021,26.022 9.63,26.842 10.504,27.241C12.724,28.256 15.276,28.256 17.496,27.241C18.37,26.842 18.979,26.022 19.108,25.07L21,11.2L21,11.2C21,9.997 20.222,9.096 19.021,8.536C18.726,8.398 18.4,8.277 18.043,8.174C17.915,8.644 17.713,9.074 17.462,9.465ZM10.021,16.983C9.968,16.225 10.641,15.62 11.388,15.752L13.756,16.171C14.283,16.265 14.679,16.705 14.717,17.239L14.875,19.495C14.928,20.252 14.255,20.857 13.507,20.725L11.139,20.306C10.612,20.213 10.216,19.773 10.179,19.239L10.021,16.983Z"
        id="path_0" />
</svg>
