<svg width="25" height="24" viewBox="0 0 25 24" fill="none" xmlns="http://www.w3.org/2000/svg">
    <path
        d="M18.25 8H17.25V6C17.25 3.24 15.01 1 12.25 1C9.49 1 7.25 3.24 7.25 6V8H6.25C5.15 8 4.25 8.9 4.25 10V20C4.25 21.1 5.15 22 6.25 22H18.25C19.35 22 20.25 21.1 20.25 20V10C20.25 8.9 19.35 8 18.25 8ZM12.25 17C11.15 17 10.25 16.1 10.25 15C10.25 13.9 11.15 13 12.25 13C13.35 13 14.25 13.9 14.25 15C14.25 16.1 13.35 17 12.25 17ZM15.35 8H9.15V6C9.15 4.29 10.54 2.9 12.25 2.9C13.96 2.9 15.35 4.29 15.35 6V8Z"
        fill="black" />
</svg>
