<svg width="25" height="25" viewBox="0 0 25 25" fill="none" xmlns="http://www.w3.org/2000/svg">
    <path d="M21 9.5H19.5C19.5 7.64348 18.7625 5.86301 17.4497 4.55025C16.137 3.2375 14.3565 2.5 12.5 2.5C10.6435 2.5 8.86301 3.2375 7.55025 4.55025C6.2375 5.86301 5.5 7.64348 5.5 9.5H4C3.33696 9.5 2.70107 9.76339 2.23223 10.2322C1.76339 10.7011 1.5 11.337 1.5 12V15C1.5 15.663 1.76339 16.2989 2.23223 16.7678C2.70107 17.2366 3.33696 17.5 4 17.5H7.5V9.5C7.5 8.17392 8.02678 6.90215 8.96447 5.96447C9.90215 5.02678 11.1739 4.5 12.5 4.5C13.8261 4.5 15.0979 5.02678 16.0355 5.96447C16.9732 6.90215 17.5 8.17392 17.5 9.5V17.5C17.5 18.0304 17.2893 18.5391 16.9142 18.9142C16.5391 19.2893 16.0304 19.5 15.5 19.5H12.56L11.83 21.5H15.5C16.5609 21.5 17.5783 21.0786 18.3284 20.3284C19.0786 19.5783 19.5 18.5609 19.5 17.5H21C21.663 17.5 22.2989 17.2366 22.7678 16.7678C23.2366 16.2989 23.5 15.663 23.5 15V12C23.5 11.337 23.2366 10.7011 22.7678 10.2322C22.2989 9.76339 21.663 9.5 21 9.5Z" fill="black"/>
</svg>