<svg fill="none" height="24" viewBox="0 0 24 24" width="24" xmlns="http://www.w3.org/2000/svg" xmlns:xlink="http://www.w3.org/1999/xlink"><clipPath id="a"><path d="m0 0h24v24h-24z"/></clipPath><g clip-path="url(#a)" fill="#21201f"><path d="m19.165 17.5753c-.5173-.4591-.9322-1.0219-1.2177-1.6518s-.4353-1.3129-.4396-2.0045l-.1707-4.17434c-.0459-1.11741-.4031-2.19976-1.0315-3.12492-.6283-.92516-1.5027-1.65631-2.5244-2.11092l-.0008-2.22174-2.6342-.3702-.6272 2.16377c-1.1059.1572-2.14595.61999-3.00307 1.33627s-1.49728 1.6576-1.84839 2.71799l-1.31053 3.93589c-.19548.6791-.52863 1.3107-.97871 1.8555s-1.00747.9911-1.63747 1.3112l-.22327.0797-.19345 1.3765c-.15309 1.0893 3.68273 2.5372 8.63407 3.2331 4.95132.6959 9.03762.3613 9.19072-.728l.2088-1.4854z"/><path d="m6.31008 20.2321c.23992.6979.66826 1.3159 1.23764 1.7855.56937.4697 1.25757.7726 1.98844.8753.73084.1027 1.47594.0012 2.15264-.2933.6768-.2944 1.2589-.7704 1.6819-1.3752-1.1886-.0385-2.3743-.1411-3.5518-.3073-1.1811-.1649-2.35241-.3936-3.50882-.685z"/></g></svg>