<svg fill="none" height="14" viewBox="0 0 14 14" width="14" xmlns="http://www.w3.org/2000/svg"><path d="m9.82015 5.56991c-.18023-.34201-.4142-.66311-.70191-.95082-.28728-.28728-.60784-.52097-.94928-.70109l-.00118-.00118.53727-.53728c.28923-.28923.76439-.47516 1.44615.20659.6817.68175.4958 1.15691.2066 1.44614zm-.65828.65827-4.03273 4.03272c-.14311.1431-.31439.2549-.50299.3284l-1.49128.5805c-.10226.0398-.21573.0398-.31798 0-.22555-.0878-.33721-.3418-.2494-.5673l.58057-1.49132c.07343-.1886.18524-.35988.32835-.50299l4.03273-4.03274c.35972.14968.69672.37081.98932.66341s.51374.62961.66341.98932z" fill="#21201f"/></svg>