<svg width="160" height="104" viewBox="0 0 160 104" fill="none" xmlns="http://www.w3.org/2000/svg">
<defs>
<linearGradient id="paint0_linear_3736_20909" x1="88.1649" y1="69.8903" x2="88.1649" y2="108.537" gradientUnits="userSpaceOnUse">
<stop stop-color="#428EFF"/>
<stop offset="1" stop-color="#00C7E2"/>
</linearGradient>
<linearGradient id="paint1_linear_3736_20909" x1="93.2911" y1="64.1746" x2="93.2911" y2="110" gradientUnits="userSpaceOnUse">
<stop stop-color="#428EFF"/>
<stop offset="1" stop-color="#00C7E2"/>
</linearGradient>
</defs>
<path opacity="0.5" d="M31.1978 76.8322C9.96455 72.5826 1.06093 73.0095 -3.71507 73.9351L0.246547 108.537H163.735L162.313 69.8903C146.304 71.2787 131.698 77.98 103.042 83.5336C74.3864 89.0871 47.3158 80.0581 31.1978 76.8322Z" fill="url(#paint0_linear_3736_20909)"/>
<path opacity="0.5" d="M27.2365 85.3138C15.0786 83.9114 3.86823 80.6972 -6.70984 80.6972L-3.98 110L169.472 110L168.691 65.5659C146.23 62.0599 113.486 65.5659 94.2289 71.7762C69.088 79.884 51.7194 88.1379 27.2365 85.3138Z" fill="url(#paint1_linear_3736_20909)"/>
</svg>
