<svg width="24" height="24" viewBox="0 0 14 18" fill="none" xmlns="http://www.w3.org/2000/svg">
    <path d="M10.7078 3.82503C11.3233 3.82503 11.8201 3.32148 11.8201 2.69768C11.8201 1.94612 10.7078 0.668457 10.7078 0.668457C10.7078 0.668457 9.59546 1.94612 9.59546 2.69768C9.59546 3.32148 10.0923 3.82503 10.7078 3.82503ZM7.00006 3.82503C7.61554 3.82503 8.11238 3.32148 8.11238 2.69768C8.11238 1.94612 7.00006 0.668457 7.00006 0.668457C7.00006 0.668457 5.88775 1.94612 5.88775 2.69768C5.88775 3.32148 6.38458 3.82503 7.00006 3.82503ZM3.29235 3.82503C3.90783 3.82503 4.40466 3.32148 4.40466 2.69768C4.40466 1.94612 3.29235 0.668457 3.29235 0.668457C3.29235 0.668457 2.18003 1.94612 2.18003 2.69768C2.18003 3.32148 2.67686 3.82503 3.29235 3.82503ZM12.1315 6.08723C11.9832 5.64381 11.568 5.32815 11.0786 5.32815H2.92157C2.43215 5.32815 2.02431 5.64381 1.86858 6.08723L0.326172 10.5891V16.6016C0.326172 17.015 0.659866 17.3532 1.06772 17.3532H1.80926C2.21711 17.3532 2.5508 17.015 2.5508 16.6016V15.8501H11.4493V16.6016C11.4493 17.015 11.783 17.3532 12.1909 17.3532H12.9324C13.3403 17.3532 13.674 17.015 13.674 16.6016V10.5891L12.1315 6.08723ZM2.92157 13.5954C2.30609 13.5954 1.80926 13.0918 1.80926 12.468C1.80926 11.8442 2.30609 11.3407 2.92157 11.3407C3.53705 11.3407 4.03389 11.8442 4.03389 12.468C4.03389 13.0918 3.53705 13.5954 2.92157 13.5954ZM11.0786 13.5954C10.4631 13.5954 9.96623 13.0918 9.96623 12.468C9.96623 11.8442 10.4631 11.3407 11.0786 11.3407C11.694 11.3407 12.1909 11.8442 12.1909 12.468C12.1909 13.0918 11.694 13.5954 11.0786 13.5954ZM1.80926 9.83754L2.92157 6.4555H11.0786L12.1909 9.83754H1.80926Z" fill="#21201F"/>
</svg>
