<svg id="vector" xmlns="http://www.w3.org/2000/svg" width="16" height="16" viewBox="0 0 20 20">
    <path fill="#008C00" fill-rule="evenodd"
        d="M5.4822,15.9935C7.0242,17.7741 9.0672,19 10.1,19C11.1328,19 13.1758,17.7741 14.7178,15.9935C16.9038,13.4694 18.2,9.9712 18.2,5.4996C18.2,5.1316 17.9759,4.8006 17.6342,4.664C14.6877,3.4856 12.3413,2.3126 10.5992,1.1511C10.2969,0.9496 9.9031,0.9496 9.6008,1.1511C7.8587,2.3126 5.5123,3.4856 2.5658,4.664C2.2241,4.8006 2,5.1316 2,5.4996C2,9.9712 3.2962,13.4694 5.4822,15.9935ZM14.295,6.6263C13.921,6.2989 13.3524,6.3366 13.025,6.7106L8.9603,11.3531L7.1641,9.3922C6.8283,9.0257 6.259,9.0007 5.8925,9.3365C5.526,9.6722 5.501,10.2415 5.8368,10.608L7.9724,12.9394C8.476,13.4892 9.33,13.5266 9.8797,13.023C9.9067,12.9974 9.9201,12.9846 9.9331,12.9713C9.9461,12.9581 9.9586,12.9443 9.9835,12.9168L14.3793,7.8963C14.7067,7.5224 14.669,6.9538 14.295,6.6263Z"
        id="path_0" />
</svg>
