<svg width="32" height="32" viewBox="0 0 32 32" fill="none" xmlns="http://www.w3.org/2000/svg">
<path d="M13.2856 7.49141C13.1875 7.68393 13.1875 7.93595 13.1875 8.44V13.1875H8.44C7.93595 13.1875 7.68393 13.1875 7.49141 13.2856C7.32206 13.3719 7.18438 13.5096 7.09809 13.6789C7 13.8714 7 14.1235 7 14.6275V17.3725C7 17.8765 7 18.1286 7.09809 18.3211C7.18438 18.4904 7.32206 18.6281 7.49141 18.7144C7.68393 18.8125 7.93595 18.8125 8.44 18.8125H13.1875V23.56C13.1875 24.064 13.1875 24.3161 13.2856 24.5086C13.3719 24.6779 13.5096 24.8156 13.6789 24.9019C13.8714 25 14.1235 25 14.6275 25H17.3725C17.8765 25 18.1286 25 18.3211 24.9019C18.4904 24.8156 18.6281 24.6779 18.7144 24.5086C18.8125 24.3161 18.8125 24.064 18.8125 23.56V18.8125H23.56C24.064 18.8125 24.3161 18.8125 24.5086 18.7144C24.6779 18.6281 24.8156 18.4904 24.9019 18.3211C25 18.1286 25 17.8765 25 17.3725V14.6275C25 14.1235 25 13.8714 24.9019 13.6789C24.8156 13.5096 24.6779 13.3719 24.5086 13.2856C24.3161 13.1875 24.064 13.1875 23.56 13.1875H18.8125V8.44C18.8125 7.93595 18.8125 7.68393 18.7144 7.49141C18.6281 7.32206 18.4904 7.18438 18.3211 7.09809C18.1286 7 17.8765 7 17.3725 7H14.6275C14.1235 7 13.8714 7 13.6789 7.09809C13.5096 7.18438 13.3719 7.32206 13.2856 7.49141Z" fill="#ffffff"/>
</svg>
