<svg fill="none" height="24" viewBox="0 0 24 24" width="24" xmlns="http://www.w3.org/2000/svg"><path clip-rule="evenodd" d="m2 12c0-5.52285 4.47715-10 10-10 5.5228 0 10 4.47715 10 10 0 5.5228-4.4772 10-10 10-.8133 0-1.6039-.0971-2.36085-.2803v-4.9996c.71085.3571 1.51305.5582 2.36125.5582 2.9101 0 5.2779-2.3682 5.2779-5.2782 0-.8477-.2009-1.6494-.5576-2.35998h2.4928v-2.91746h-7.1407c-.0241-.00033-.0482-.00049-.0724-.00049-2.91036 0-5.27819 2.36745-5.27823 5.27783h-.00049v8.4951c-2.83485-1.7651-4.72168-4.9098-4.72168-8.4951zm10.0003 2.3612h.0001c.626-.0007 1.2261-.2497 1.6686-.6924.4426-.4426.6916-1.0428.6922-1.6687-.0007-.6259-.2497-1.2259-.6923-1.6685-.4284-.42846-1.0044-.67546-1.6086-.69148h-.0608v-.00082c-.6256.00089-1.2254.24978-1.6678.6921-.44266.4426-.69167 1.0427-.69242 1.6687.0003.2824.05112.5595.14745.8193.11724.316.30187.6063.54477.8492.4426.4427 1.0428.6916 1.6688.6923z" fill="#000" fill-rule="evenodd"/></svg>