<?xml version="1.0" encoding="utf-8"?>
<svg width="24" height="24" viewBox="0 0 24 24" fill="none" xmlns="http://www.w3.org/2000/svg">
   <path fill-rule="evenodd" clip-rule="evenodd" d="M 9 3.5 L 9 2.5 L 7 2.5 L 7 3.553 C 6.074 3.619 5.424 3.769 4.884 4.106 C 4.366 4.428 3.929 4.865 3.606 5.383 C 3 6.354 3 7.683 3 10.34 L 3 14.66 C 3 17.316 3 18.645 3.606 19.616 C 3.929 20.134 4.366 20.571 4.884 20.894 C 5.855 21.5 7.184 21.5 9.84 21.5 L 14.16 21.5 C 16.817 21.5 18.145 21.5 19.117 20.894 C 19.635 20.571 20.072 20.134 20.394 19.616 C 21 18.645 21 17.316 21 14.66 L 21 10.34 C 21 7.683 21 6.354 20.394 5.383 C 20.072 4.865 19.635 4.428 19.117 4.106 C 18.577 3.769 17.927 3.619 17 3.553 L 17 2.5 L 15 2.5 L 15 3.5 C 14.736 3.5 14.456 3.5 14.16 3.5 L 9.84 3.5 C 9.544 3.5 9.265 3.5 9 3.5 Z M 7 5.559 L 7 6.5 L 9 6.5 L 9 5.501 C 9.259 5.5 9.538 5.5 9.84 5.5 L 14.16 5.5 C 14.463 5.5 14.742 5.5 15 5.501 L 15 6.5 L 17 6.5 L 17 5.559 C 17.027 5.561 17.053 5.564 17.079 5.566 C 17.716 5.628 17.943 5.731 18.059 5.803 C 18.318 5.964 18.536 6.182 18.697 6.441 C 18.769 6.557 18.872 6.784 18.934 7.421 C 18.984 7.941 18.996 8.591 18.999 9.5 L 5.001 9.5 C 5.004 8.591 5.017 7.941 5.067 7.421 C 5.128 6.784 5.231 6.557 5.303 6.441 C 5.465 6.182 5.683 5.964 5.942 5.803 C 6.057 5.731 6.285 5.628 6.922 5.566 C 6.948 5.564 6.974 5.561 7 5.559 Z M 5 11.5 L 5 14.66 C 5 16.027 5.003 16.911 5.067 17.578 C 5.128 18.215 5.231 18.443 5.303 18.558 C 5.465 18.817 5.683 19.035 5.942 19.197 C 6.057 19.269 6.285 19.372 6.922 19.433 C 7.589 19.497 8.473 19.5 9.84 19.5 L 14.16 19.5 C 15.528 19.5 16.411 19.497 17.079 19.433 C 17.716 19.372 17.943 19.269 18.059 19.197 C 18.318 19.035 18.536 18.817 18.697 18.558 C 18.769 18.443 18.872 18.215 18.934 17.578 C 18.998 16.911 19 16.027 19 14.66 L 19 11.5 L 5 11.5 Z" fill="white"/>
</svg>