<svg id="vector" xmlns="http://www.w3.org/2000/svg" width="24" height="24" viewBox="0 0 24 24">
    <path fill="#949699"
        d="M9,3.2819V19H13.0224C13.0076,18.8353 13,18.6685 13,18.5C13,15.4624 15.4624,13 18.5,13C19.02,13 19.5232,13.0722 20,13.207V3.2819C20,2.8362 19.9536,2.6745 19.8664,2.5116C19.7793,2.3486 19.6514,2.2207 19.4884,2.1336C19.3255,2.0464 19.1638,2 18.7181,2H10.2819C9.8362,2 9.6745,2.0464 9.5116,2.1336C9.3486,2.2207 9.2207,2.3486 9.1336,2.5116C9.0464,2.6745 9,2.8362 9,3.2819ZM12.2819,4H16.7181C17.1638,4 17.3255,4.0464 17.4884,4.1336C17.6514,4.2207 17.7793,4.3486 17.8664,4.5116C17.9536,4.6745 18,4.8362 18,5.2819V7.7181C18,8.1638 17.9536,8.3255 17.8664,8.4884C17.7793,8.6514 17.6514,8.7793 17.4884,8.8664C17.3255,8.9536 17.1638,9 16.7181,9H12.2819C11.8362,9 11.6745,8.9536 11.5116,8.8664C11.3486,8.7793 11.2207,8.6514 11.1336,8.4884C11.0464,8.3255 11,8.1638 11,7.7181V5.2819C11,4.8362 11.0464,4.6745 11.1336,4.5116C11.2207,4.3486 11.3486,4.2207 11.5116,4.1336C11.6745,4.0464 11.8362,4 12.2819,4Z"
        fill-rule="evenodd" id="path_0" />
    <path fill="#949699"
        d="M13.207,20C13.417,20.7424 13.779,21.421 14.2572,22H7.5128C7.3345,22 7.2698,21.9814 7.2046,21.9466C7.1395,21.9117 7.0883,21.8606 7.0534,21.7954C7.0186,21.7302 7,21.6655 7,21.4872V21C7,20.4477 7.4477,20 8,20H13.207Z"
        id="path_1" />
    <path fill="#949699"
        d="M7.5,12.5C7.5,12.1299 7.7011,11.8067 8,11.6338V9.5415C6.5811,9.7795 5.5,11.0135 5.5,12.5V14.75C5.5,15.4404 4.9404,16 4.25,16C3.5596,16 3,15.4404 3,14.75V9L4.7071,7.2929C4.8946,7.1054 5,6.851 5,6.5858V5.5L6.6465,3.8535C6.8417,3.6583 6.8417,3.3417 6.6465,3.1465L5.8535,2.3535C5.6583,2.1583 5.3417,2.1583 5.1465,2.3535L1.2929,6.2071C1.1054,6.3946 1,6.649 1,6.9142V14.75C1,16.5449 2.4551,18 4.25,18C6.0449,18 7.5,16.5449 7.5,14.75V12.5Z"
        id="path_2" />
    <path fill="#00FF00"
        d="M22.5,18.5C22.5,20.7091 20.7091,22.5 18.5,22.5C16.2909,22.5 14.5,20.7091 14.5,18.5C14.5,16.2909 16.2909,14.5 18.5,14.5C20.7091,14.5 22.5,16.2909 22.5,18.5Z"
        id="path_3" />
</svg>
