<svg
    xmlns="http://www.w3.org/2000/svg"
    viewBox="0 0 24 24"
    id="vector">
    <g
        id="group"
        transform="translate(16.64031 0) scale(-1 1)">
        <path
            id="path_1"
            d="M 7.011 4.5 L 6.832 3.226 C 6.734 2.825 6.366 2.692 6.027 2.929 L 2.253 5.571 C 1.916 5.807 1.915 6.192 2.253 6.429 L 6.027 9.071 C 6.364 9.307 6.725 9.181 6.829 8.787 L 7.011 7.5 L 13.889 7.5 C 14.308 7.5 14.64 7.165 14.64 6.751 L 14.64 5.249 C 14.64 4.833 14.304 4.5 13.889 4.5 L 7.011 4.5 L 7.011 4.5 Z"
            fill="#ffffff"/>
    </g>
    <g
        id="group_1"
        transform="translate(23.6845 0) scale(-1 1)">
        <path
            id="path_4"
            d="M 4.533 20.837 C 5.263 20.229 5.824 20 6.685 20 C 7.128 20 7.467 20.156 8.353 20.748 C 9.714 21.656 10.461 22 11.685 22 C 12.908 22 13.66 21.654 15.023 20.75 C 15.036 20.741 15.036 20.741 15.05 20.732 C 15.916 20.157 16.258 20 16.685 20 C 17.544 20 18.07 20.183 18.943 20.936 C 19.273 21.221 19.584 21.534 19.584 21.534 C 19.881 21.824 20.365 21.815 20.658 21.524 L 21.711 20.476 C 22.008 20.181 21.999 19.704 21.699 19.421 C 21.699 19.421 20.632 18.37 19.915 17.917 C 18.945 17.303 17.911 17 16.685 17 C 15.479 17 14.728 17.344 13.39 18.233 C 13.377 18.242 13.377 18.242 13.363 18.25 C 12.474 18.841 12.128 19 11.685 19 C 11.244 19 10.906 18.844 10.022 18.255 C 8.658 17.344 7.911 17 6.685 17 C 5.076 17 3.852 17.499 2.612 18.533 C 2.192 18.884 1.666 19.411 1.666 19.411 C 1.366 19.703 1.367 20.183 1.659 20.475 L 2.71 21.525 C 3.006 21.821 3.479 21.831 3.781 21.538 C 3.781 21.538 4.209 21.108 4.533 20.837 Z"
            fill="#ffffff"
            fill-opacity="0.2"/>
    </g>
    <g
        id="group_2"
        transform="translate(24.04168 0) scale(-1 1)">
        <path
            id="path_5"
            d="M 9.042 12.5 L 4.002 9.167 C 3.655 8.938 3.183 9.038 2.954 9.382 L 2.13 10.618 C 1.898 10.966 1.983 11.43 2.329 11.661 L 7.71 15.248 C 7.956 15.412 8.246 15.5 8.542 15.5 L 21.297 15.5 C 21.708 15.5 22.042 15.156 22.042 14.743 L 22.042 13.257 C 22.042 12.839 21.707 12.5 21.287 12.5 L 9.042 12.5 Z"
            fill="#ffffff"/>
    </g>
</svg>
