<svg width="32" height="32" viewBox="0 0 32 32" fill="none" xmlns="http://www.w3.org/2000/svg">
<path d="M17.5583 8.66667L16.9805 5.38298C16.9437 5.16198 16.7525 5 16.5284 5H15.4716C15.2475 5 15.0563 5.16198 15.0195 5.38298L14.4417 8.66667H17.5583Z" fill="#ffffff"/>
<path d="M8.20833 16.55L8.61556 12.7461C8.63902 12.5118 8.83644 12.3333 9.07223 12.3333H12.673C12.7744 12.3333 12.8566 12.2513 12.8566 12.15C12.8566 12.0659 12.7992 11.9925 12.7175 11.9721L10.1989 11.3433L10.4287 9.96632C10.4656 9.74531 10.6571 9.58333 10.8814 9.58333H21.1186C21.3429 9.58333 21.5344 9.74531 21.5713 9.96632L21.8011 11.3433L19.2825 11.9721C19.2008 11.9925 19.1434 12.0659 19.1434 12.15C19.1434 12.2513 19.2256 12.3333 19.327 12.3333H22.9278C23.1636 12.3333 23.361 12.5118 23.3844 12.7461L23.7917 16.55L16.6274 14.2112C16.2221 14.064 15.7779 14.064 15.3726 14.2112L8.20833 16.55Z" fill="#ffffff"/>
<path fill-rule="evenodd" clip-rule="evenodd" d="M15.6439 15.1531L5.57359 19.2657C5.52841 19.2841 5.48477 19.3061 5.44309 19.3313C5.0057 19.5959 4.86894 20.1597 5.13762 20.5905L8.06519 25.2844C8.31082 25.6782 8.816 25.8299 9.24296 25.6381C9.9386 25.3254 10.9516 25.1691 12.2821 25.1691C13.6763 25.1691 14.8381 25.6268 15.9999 26.0846C17.1618 26.5423 18.3236 27 19.7178 27C21.4508 27 22.6453 26.7348 23.3012 26.2044C23.381 26.1398 23.4493 26.0627 23.5033 25.976L26.8623 20.5905C26.8879 20.5494 26.9101 20.5064 26.9289 20.4619C27.1255 19.9949 26.9005 19.4593 26.4263 19.2657L16.3559 15.1531C16.128 15.0601 15.8719 15.0601 15.6439 15.1531ZM19.6667 19.6667C19.6667 20.1729 19.2563 20.5833 18.75 20.5833C18.2437 20.5833 17.8333 20.1729 17.8333 19.6667C17.8333 19.1604 18.2437 18.75 18.75 18.75C19.2563 18.75 19.6667 19.1604 19.6667 19.6667ZM13.25 20.5833C13.7563 20.5833 14.1667 20.1729 14.1667 19.6667C14.1667 19.1604 13.7563 18.75 13.25 18.75C12.7437 18.75 12.3333 19.1604 12.3333 19.6667C12.3333 20.1729 12.7437 20.5833 13.25 20.5833Z" fill="#ffffff"/>
</svg>
