<svg width="32" height="32" viewBox="0 0 32 32" fill="none" xmlns="http://www.w3.org/2000/svg">
<path d="M13.8333 22.6667C13.8333 22.7586 13.8176 22.8469 13.7886 22.9291C13.6783 23.242 13.3762 23.4667 13.0208 23.4667C12.6655 23.4667 12.3634 23.242 12.2531 22.9291C12.2241 22.8469 12.2083 22.7586 12.2083 22.6667C12.2083 22.2248 12.5721 21.8667 13.0208 21.8667C13.4696 21.8667 13.8333 22.2248 13.8333 22.6667Z" fill="#ffffff"/>
<path d="M17.0833 22.6667C17.0833 22.7586 17.0676 22.8469 17.0386 22.9291C16.9283 23.242 16.6262 23.4667 16.2708 23.4667C15.9155 23.4667 15.6134 23.242 15.5031 22.9291C15.4741 22.8469 15.4583 22.7586 15.4583 22.6667C15.4583 22.2248 15.8221 21.8667 16.2708 21.8667C16.7196 21.8667 17.0833 22.2248 17.0833 22.6667Z" fill="#ffffff"/>
<path d="M20.3333 22.6667C20.3333 22.7586 20.3176 22.8469 20.2886 22.9291C20.1783 23.242 19.8762 23.4667 19.5208 23.4667C19.1655 23.4667 18.8634 23.242 18.7531 22.9291C18.7241 22.8469 18.7083 22.7586 18.7083 22.6667C18.7083 22.2248 19.0721 21.8667 19.5208 21.8667C19.9696 21.8667 20.3333 22.2248 20.3333 22.6667Z" fill="#ffffff"/>
<path fill-rule="evenodd" clip-rule="evenodd" d="M24.3733 27C27.3098 27 28.8979 24.3366 27.466 21.8089L19.0335 6.9227C17.58 4.35681 14.4179 4.36139 12.967 6.9227L4.5345 21.8089C3.10019 24.341 4.69425 27 7.62729 27H24.3733ZM11.6667 17.6C11.0684 17.6 10.5833 18.0776 10.5833 18.6667V19.2C10.5833 19.7891 11.0684 20.2667 11.6667 20.2667H21.6858C21.8357 20.2667 21.9572 20.1473 21.9572 20V16.9638C22.2791 16.8043 22.5 16.476 22.5 16.097C22.5 16.0434 22.4559 16 22.4015 16L18.3292 16C18.2394 16 18.1667 16.0716 18.1667 16.16V16.5333C18.1667 16.8279 18.4092 17.0667 18.7083 17.0667L19.243 17.0667V17.6H12.75V17.0667L13.1741 16.2316C13.2281 16.1252 13.1495 16 13.0287 16H11.3879C11.2671 16 11.1886 16.1252 11.2426 16.2316L11.6667 17.0667V17.6ZM10.5833 22.9291H11.6929C11.8167 23.5398 12.3642 24 13.0208 24C13.6775 24 14.225 23.5398 14.3488 22.9291H14.9429C15.0667 23.5398 15.6142 24 16.2708 24C16.9275 24 17.475 23.5398 17.5988 22.9291H18.1929C18.3167 23.5398 18.8642 24 19.5208 24C20.1775 24 20.725 23.5398 20.8488 22.9291H21.9334C22.2468 22.9291 22.5 22.742 22.5 22.2194V21.7463C22.5 21.1841 22.5 20.9559 22.3862 20.8633C22.3084 20.8 22.1775 20.8 21.9572 20.8H10.8542C10.5833 20.8 10.5833 21.0118 10.5833 21.2731C10.5833 21.5344 10.4365 21.7462 10.2869 21.7462H9.74294C9.59336 21.7462 9.46855 21.9616 9.50706 22.2141C9.61899 22.948 9.96914 22.9407 10.4221 22.9313C10.4745 22.9302 10.5283 22.9291 10.5833 22.9291Z" fill="#ffffff"/>
</svg>
