<svg width="32" height="32" viewBox="0 0 32 32" fill="none" xmlns="http://www.w3.org/2000/svg">
<path d="M16 5C21.5222 5 26 9.43355 26 14.9012C26 17.5196 24.9667 19.9839 23.1556 21.8211L22.8444 22.1181C21.7556 23.1633 19.9333 24.6265 17.3333 26.5627C16.5444 27.1458 15.4556 27.1458 14.6667 26.5627L13.5556 25.7266C11.3222 24.0324 9.77778 22.7562 8.87778 21.8541C7.04444 20.0169 6 17.5416 6 14.9012C6 9.53257 10.3222 5.15402 15.7 5H16ZM19.3333 13.6031L16 15.5723L12.6667 13.6031V22.5802L15.6667 24.5494C15.8556 24.6925 16.1444 24.6925 16.3333 24.5494L19.3333 22.5802V13.6031ZM16 7.20028C11.7 7.20028 8.22222 10.6437 8.22222 14.9012C8.22222 17.0025 9.06667 18.9057 10.4444 20.2919V9.59858C10.4444 9.53257 10.4889 9.48856 10.5556 9.48856C10.5778 9.48856 10.6 9.48856 10.6111 9.49956L16 12.701L21.3889 9.49956C21.4444 9.46656 21.5111 9.48856 21.5444 9.54357C21.5556 9.55457 21.5556 9.57657 21.5556 9.59858V20.2919C22.9333 18.8947 23.7778 17.0025 23.7778 14.9012C23.7778 10.6437 20.3 7.20028 16 7.20028Z" fill="#ffffff"/>
</svg>
