<svg width="24" height="24" viewBox="0 0 24 24" fill="none" xmlns="http://www.w3.org/2000/svg">
    <path d="M16.2087 11.1097C16.2087 10.5838 15.7823 10.1574 15.2563 10.1574H8.39369C7.8677 10.1574 7.4413 10.5838 7.4413 11.1097V13.1434C7.4413 15.2473 9.14689 16.9529 11.2508 16.9529H12.3992C14.5031 16.9529 16.2087 15.2473 16.2087 13.1434V11.1097Z" stroke="black" stroke-width="1.90477"/>
    <path d="M14.0257 6.73605V10.8405" stroke="black" stroke-width="1.90477" stroke-linejoin="round"/>
    <path d="M9.62946 6.73605V10.8405" stroke="black" stroke-width="1.90477" stroke-linejoin="round"/>
    <path d="M11.8117 21.5703H12.7641L11.8117 22.5227V21.5703ZM3.44094 12.1745C3.44094 16.8463 7.15925 20.6179 11.8117 20.6179V22.5227C6.08803 22.5227 1.53618 17.8789 1.53618 12.1745H3.44094ZM20.3239 12.1745C20.3239 7.51243 16.5445 3.73307 11.8824 3.73307V1.82831C17.5965 1.82831 22.2286 6.46047 22.2286 12.1745H20.3239ZM11.8824 3.73307C7.22031 3.73307 3.44094 7.51243 3.44094 12.1745H1.53618C1.53618 6.46047 6.16834 1.82831 11.8824 1.82831V3.73307ZM16.0262 19.5309C18.5938 18.081 20.3239 15.3293 20.3239 12.1745H22.2286C22.2286 16.0438 20.1042 19.4157 16.9626 21.1895L16.0262 19.5309ZM12.7641 16.8877V21.5703H10.8593V16.8877H12.7641Z" fill="black"/>
</svg>
