<svg width="24" height="24" viewBox="0 0 21 21" fill="none" xmlns="http://www.w3.org/2000/svg">
	<path d="M14.1826 9.72103C14.1826 9.26079 13.8095 8.8877 13.3493 8.8877H7.34448C6.88424 8.8877 6.51114 9.26079 6.51114 9.72103V11.5005C6.51114 13.3414 8.00353 14.8338 9.84448 14.8338H10.8493C12.6902 14.8338 14.1826 13.3414 14.1826 11.5005V9.72103Z" stroke="black" stroke-width="1.66667"/>
	<path d="M12.2725 5.89404V9.48541" stroke="black" stroke-width="1.66667" stroke-linejoin="round"/>
	<path d="M8.42578 5.89404V9.48541" stroke="black" stroke-width="1.66667" stroke-linejoin="round"/>
	<path d="M10.3352 18.874H11.1686L10.3352 19.7074V18.874ZM3.01082 10.6527C3.01082 14.7405 6.26434 18.0407 10.3352 18.0407V19.7074C5.32703 19.7074 1.34416 15.644 1.34416 10.6527H3.01082ZM17.7834 10.6527C17.7834 6.57338 14.4764 3.26644 10.3971 3.26644V1.59977C15.3969 1.59977 19.45 5.65291 19.45 10.6527H17.7834ZM10.3971 3.26644C6.31777 3.26644 3.01082 6.57338 3.01082 10.6527H1.34416C1.34416 5.65291 5.3973 1.59977 10.3971 1.59977V3.26644ZM14.0229 17.0895C16.2696 15.8209 17.7834 13.4131 17.7834 10.6527H19.45C19.45 14.0383 17.5912 16.9887 14.8423 18.5408L14.0229 17.0895ZM11.1686 14.7767V18.874H9.50191V14.7767H11.1686Z" fill="black"/>
</svg>
