<svg width="32" height="32" viewBox="0 0 32 32" fill="none" xmlns="http://www.w3.org/2000/svg">
<path fill-rule="evenodd" clip-rule="evenodd" d="M20.72 23C20.544 23 20.4 22.856 20.4 22.68V22.52C20.4 22.344 20.544 22.2 20.72 22.2H20.8V18.8H11.2V22.2H11.28C11.456 22.2 11.6 22.344 11.6 22.52V22.68C11.6 22.856 11.456 23 11.28 23H9.12C8.944 23 8.8 22.856 8.8 22.68V22.52C8.8 22.344 8.944 22.2 9.12 22.2H9.216L9.304 18.8H4.8L4.704 18.792C4.312 18.752 4 18.408 4 18C4 17.56 4.36 17.2 4.8 17.2H4.808L5.048 17.016C6.88 15.6 8.496 12.552 9.312 10.704C9.24 10.552 9.2 10.376 9.2 10.2C9.2 9.536 9.736 9 10.4 9C11.064 9 11.6 9.536 11.6 10.2C11.6 10.256 11.592 10.32 11.584 10.376C12.36 11.112 14.184 12.128 15.816 12.2H16H16.184C17.816 12.128 19.64 11.112 20.416 10.376C20.408 10.32 20.4 10.256 20.4 10.2C20.4 9.536 20.936 9 21.6 9C22.264 9 22.8 9.536 22.8 10.2C22.8 10.352 22.768 10.504 22.72 10.64C23.56 12.584 25.264 15.784 27.192 17.2H27.2C27.608 17.2 27.952 17.512 27.992 17.904L28 18C28 18.44 27.64 18.8 27.2 18.8H22.72L22.816 22.2H22.88C23.056 22.2 23.2 22.344 23.2 22.52V22.68C23.2 22.856 23.056 23 22.88 23H20.72ZM11.2 12.08V17.2H12.8V13.032C12.216 12.76 11.664 12.432 11.2 12.08ZM6.24 17.2H9.368L9.472 13.192C8.568 14.264 7.424 16.264 6.24 17.2ZM22.536 13.144L22.656 17.2H25.848C24.616 16.232 23.448 14.232 22.536 13.144ZM13.6 13.352V17.2H15.6V13.784C14.936 13.744 14.256 13.584 13.6 13.352ZM19.2 13.032V17.2H20.8V12.08C20.328 12.432 19.784 12.76 19.2 13.032ZM16.4 13.784V17.2H18.4V13.352C17.744 13.584 17.064 13.744 16.4 13.784Z" fill="#ffffff"/>
</svg>
