<svg fill="none" height="72" viewBox="0 0 72 72" width="72" xmlns="http://www.w3.org/2000/svg" xmlns:xlink="http://www.w3.org/1999/xlink"><clipPath id="a"><path d="m0 0h72v72h-72z"/></clipPath><g clip-path="url(#a)"><path d="m69.4046 49.7659c-4.3978 3.7058-9.2912 7.5034-14.5252 11.301l-3.6545 2.5114-.3407.245-2.0131 1.3169-2.4467 1.5925c-2.3847 1.5313-4.7385 3.0626-6.5967 4.1652-.5762.3622-1.202.6407-1.8583.8269-.9784.2737-2.0035.3442-3.0109.2072-1.0073-.137-1.9751-.4787-2.8425-1.0035-2.106-1.2863-4.243-2.6951-6.4419-4.0733l-2.3847-1.5925-1.7963-1.1944-1.2079-.8269-3.097-2.1439c-1.084-.7656-2.0441-1.5313-3.0971-2.2969-4.0881-3.0626-7.95943-6.1252-11.45911-8.9734-1.04486-.8821-1.823279-2.0322-2.24951-3.3237-.4262316-1.2914-.483742-2.6742-.166197-3.9959 1.145917-4.6552 3.097057-11.2092 4.800447-16.6912 0-.1838 0-.3369 0-.49l.55747-1.7151c1.85823-5.5127 3.80938-10.6578 5.7915-15.313.5195-1.2374 1.3711-2.31086 2.4628-3.10433 1.0917-.79348 2.382-1.27679 3.7313-1.39769 5.9464-.55127 12.1095-.79628 18.6443-.79628s12.3883.24501 18.0559.67377c1.3514.11424 2.6447.59498 3.7375 1.3893 1.0929.79432 1.9429 1.87141 2.4566 3.11273.4336 1.07191.8672 2.2357 1.3008 3.3382 1.5485 3.8589 3.097 7.8403 4.4597 12.2504.2168.5513.4026 1.1026.5885 1.6845l.1858.5206c1.8892 5.819 3.4377 11.3929 4.7385 16.6606.2993 1.286.2414 2.6281-.1675 3.8843-.4089 1.2561-1.1536 2.3796-2.1553 3.2515z" fill="#efbf6a"/><path d="m5.69868 23.6113c-1.92018 5.8496-4.212 13.6286-5.481796 18.8963-.333131 1.3138-.2861976 2.6938.135448 3.9826.421646 1.2888 1.201028 2.4344 2.249288 3.3064 3.49968 3.0626 7.371 6.1252 11.42818 8.9734 1.053.7656 2.0131 1.5313 3.097 2.2969 2.8493 2.0826 5.6677 3.9814 8.455 5.7884l13.5342-13.4142z" fill="#d3923c"/><path d="m69.4362 49.7353c-4.3978 3.7058-9.2912 7.5034-14.5252 11.301-2.2609 1.6844-5.3579 3.7364-8.455 5.6964-2.3847 1.5313-4.7385 3.0626-6.5967 4.1652-1.1564.7143-2.4924 1.093-3.8559 1.093-1.3634 0-2.6994-.3787-3.8558-1.093-2.106-1.2863-4.3049-2.6951-6.5038-4.1345l-5.4818-3.5833 46.1772-39.5994.7123 2.2357c1.8892 5.8189 3.4377 11.3929 4.7385 16.6605.3197 1.307.2691 2.6757-.1461 3.9561s-1.179 2.423-2.2077 3.3023z" fill="#c67c12"/></g></svg>