<svg fill="none" height="72" viewBox="0 0 72 72" width="72" xmlns="http://www.w3.org/2000/svg" xmlns:xlink="http://www.w3.org/1999/xlink"><clipPath id="a"><path d="m0 0h72v72h-72z"/></clipPath><g clip-path="url(#a)"><path d="m45.8373 3.20523c-1.7747-.88528-3.6411-1.67897-5.3546-2.350562-2.8809-1.131257-6.0844-1.131257-8.9653 0-4.4427 1.706732-8.749 3.747722-12.8817 6.105352-3.654 2.17498-7.1508 4.60268-10.46457 7.26538-1.31313 1.0399-2.3981 2.338-3.18762 3.8135-.78952 1.4756-1.26675 3.0973-1.40209 4.7645v1.74l10.43398 10.5318z" fill="#dbd6d1"/><path d="m40.3908 61.4197 28.2114-36.4489c.2448 3.0527-.153-1.9537-.153-2.1674-.1391-1.6696-.6211-3.2927-1.416-4.7684-.7948-1.4758-1.8856-2.7725-3.2043-3.8096-1.0709-.8548-2.2643-1.7401-3.4576-2.5948-2.1419-1.5264-4.4673-3.05269-7.0069-4.5485-2.5397-1.49581-5.0487-2.74741-7.5272-3.8769l-31.8219 31.8699z" fill="#b7aea7"/><path d="m47.1224 68.1052-21.1739.4884c-1.7746-.8853-5.4464-2.7169-7.3129-3.8158-2.4142-1.3922-4.7531-2.9105-7.0069-4.5485-1.1934-.8548-2.3867-1.7095-3.45763-2.5643-1.32236-1.0405-2.41524-2.3421-3.21024-3.8234-.79501-1.4813-1.27505-3.1103-1.41007-4.7851 0-1.0685 0-2.2285-.21418-3.3274-.18359-2.9917-.33658-6.3496-.33658-9.7686 0-4.0601.18359-7.8148.45897-11.5391l10.52573 10.5317z" fill="#a59d98"/><path d="m69.0001 35.9604c0 4.6401-.2142 9.158-.5508 13.096-.135 1.6748-.6151 3.3038-1.4101 4.7851s-1.8879 2.7829-3.2102 3.8234c-3.3187 2.6102-6.8153 4.9868-10.4646 7.1128-2.1418 1.2516-4.2225 2.3505-6.2726 3.3274-2.05.9768-4.5285 2.1063-6.6091 3.0527-2.8809 1.1312-6.0844 1.1312-8.9653 0-2.5159-.9767-4.9775-2.0874-7.3741-3.3275l44.3366-44.3553c.3366 3.999.5202 8.0285.5202 12.4854z" fill="#8c857d"/></g></svg>