<svg fill="none" height="24" viewBox="0 0 24 24" width="24" xmlns="http://www.w3.org/2000/svg"><path clip-rule="evenodd" d="m11 1.99976h2l.3476 2.08534c-.5065.54153-.894 1.19578-1.1207 1.92104-.0752-.00424-.1508-.00638-.2269-.00638-1.9288 0-3.58165 1.3794-3.92669 3.27712l-.7478 4.11292c-.27457 1.5101-1.11395 2.8435-2.32551 3.7434v.0295c.25416.0924.60409.1957 1.06045.2975 1.44361.3221 3.54054.5396 5.93955.5396 2.399 0 4.4959-.2175 5.9395-.5396.4564-.1018.8063-.2051 1.0605-.2975v-.0295c-1.2116-.8999-2.0509-2.2333-2.3255-3.7434l-.1662-.9139c.1618.0158.3258.0239.4917.0239.5239 0 1.0291-.0806 1.5036-.2301l.1386.7623c.2253 1.2387 1.0205 2.2991 2.1467 2.8622l.2111.1056v2c0 .7902-2.0645 1.4773-5.0811 1.8015-.1559.7622-.5321 1.4686-1.0905 2.0269-.7501.7501-1.7675 1.1716-2.8284 1.1716s-2.07828-.4215-2.82843-1.1716c-.55832-.5583-.93455-1.2647-1.09045-2.0269-3.01662-.3242-5.08112-1.0113-5.08112-1.8015v-2l.21115-.1056c1.12611-.5631 1.9214-1.6235 2.14662-2.8622l.7478-4.1129c.43459-2.39024 2.2513-4.23272 4.53523-4.76385zm1 18.00004c.6006 0 1.1868-.013 1.7533-.0378-.0903.1645-.204.3169-.3391.452-.3751.375-.8838.5858-1.4142.5858s-1.0391-.2108-1.4142-.5858c-.1351-.1351-.2488-.2875-.3391-.452.5665.0248 1.1527.0378 1.7533.0378z" fill="#21201f" fill-rule="evenodd"/></svg>