<svg width="20" height="20" viewBox="0 0 20 20" fill="none" xmlns="http://www.w3.org/2000/svg">
    <path d="M10.8333 2.49992C10.8333 2.96016 10.4602 3.33325 10 3.33325C9.53977 3.33325 9.16667 2.96016 9.16667 2.49992C9.16667 2.03968 10 0.833252 10 0.833252C10 0.833252 10.8333 2.03968 10.8333 2.49992Z" fill="#0032E5"/>
    <path fill-rule="evenodd" clip-rule="evenodd" d="M16.6669 14.5717V18.7499C16.6669 18.98 16.4803 19.1666 16.2502 19.1666H14.4922C14.301 19.1666 14.1343 19.0365 14.088 18.851L13.7502 17.4999H6.25008L5.91231 18.851C5.86594 19.0365 5.69928 19.1666 5.50808 19.1666H3.75005C3.51992 19.1666 3.33337 18.98 3.33337 18.7499V14.5717C3.33336 14.2739 3.38252 13.9862 3.47361 13.717L4.64249 9.27533C4.86717 8.42157 5.59465 7.79449 6.47222 7.69812C7.6756 7.56599 8.29601 7.49992 10.0001 7.49992C11.7042 7.49992 12.3247 7.56599 13.528 7.69812C14.4056 7.79449 15.1331 8.42157 15.3578 9.27533L16.5267 13.7171C16.6177 13.9863 16.6669 14.2739 16.6669 14.5717ZM15.27 12.2165L14.5519 9.4874C14.415 8.96724 13.9718 8.58519 13.4371 8.52648C12.2668 8.39798 11.6759 8.33325 10.0001 8.33325C8.32435 8.33325 7.73342 8.39798 6.56318 8.52648C6.02851 8.58519 5.58529 8.96724 5.4484 9.4874L4.73022 12.2165C4.99534 12.0757 5.28845 11.9784 5.60075 11.9349C6.88466 11.756 8.35112 11.6666 10.0001 11.6666C11.6491 11.6666 13.1156 11.756 14.3995 11.9349C14.7118 11.9784 15.0049 12.0756 15.27 12.2165ZM15.8335 14.5833C15.8335 15.2736 15.2739 15.8333 14.5835 15.8333C13.8932 15.8333 13.3335 15.2736 13.3335 14.5833C13.3335 13.8929 13.8932 13.3333 14.5835 13.3333C15.2739 13.3333 15.8335 13.8929 15.8335 14.5833ZM5.41674 15.8333C6.1071 15.8333 6.66675 15.2736 6.66675 14.5833C6.66675 13.8929 6.1071 13.3333 5.41674 13.3333C4.72637 13.3333 4.16672 13.8929 4.16672 14.5833C4.16672 15.2736 4.72637 15.8333 5.41674 15.8333Z" fill="#0032E5"/>
    <path d="M15 3.33325C15.4602 3.33325 15.8333 2.96016 15.8333 2.49992C15.8333 2.03968 15 0.833252 15 0.833252C15 0.833252 14.1667 2.03968 14.1667 2.49992C14.1667 2.96016 14.5398 3.33325 15 3.33325Z" fill="#0032E5"/>
    <path d="M13.3333 4.99992C13.3333 5.46016 12.9602 5.83325 12.5 5.83325C12.0398 5.83325 11.6667 5.46016 11.6667 4.99992C11.6667 4.53968 12.5 3.33325 12.5 3.33325C12.5 3.33325 13.3333 4.53968 13.3333 4.99992Z" fill="#0032E5"/>
    <path d="M7.50001 5.83325C7.96024 5.83325 8.33334 5.46016 8.33334 4.99992C8.33334 4.53968 7.50001 3.33325 7.50001 3.33325C7.50001 3.33325 6.66667 4.53968 6.66667 4.99992C6.66667 5.46016 7.03977 5.83325 7.50001 5.83325Z" fill="#0032E5"/>
    <path d="M5.83334 2.49992C5.83334 2.96016 5.46024 3.33325 5.00001 3.33325C4.53977 3.33325 4.16667 2.96016 4.16667 2.49992C4.16667 2.03968 5.00001 0.833252 5.00001 0.833252C5.00001 0.833252 5.83334 2.03968 5.83334 2.49992Z" fill="#0032E5"/>
</svg>
