<svg fill="none" height="24" viewBox="0 0 24 24" width="24" xmlns="http://www.w3.org/2000/svg"><path clip-rule="evenodd" d="m16.1 3c-.6075 0-1.1.49249-1.1 1.1v3.8c0 .60751.4925 1.1 1.1 1.1h3.8c.6075 0 1.1-.49249 1.1-1.1v-3.8c0-.60751-.4925-1.1-1.1-1.1zm.9 4v-2h2v2zm-12.9 8c-.60751 0-1.1.4925-1.1 1.1v3.8c0 .6075.49249 1.1 1.1 1.1h3.8c.60751 0 1.1-.4925 1.1-1.1v-3.8c0-.6075-.49249-1.1-1.1-1.1zm.9 4v-2h2v2zm-2-14.9c0-.60751.49249-1.1 1.1-1.1h3.8c.60751 0 1.1.49249 1.1 1.1v3.8c0 .60751-.49249 1.1-1.1 1.1h-3.8c-.60751 0-1.1-.49249-1.1-1.1zm2 .9v2h2v-2zm6.5 10c-.2761 0-.5.2239-.5.5v5c0 .2761.2239.5.5.5h1c.2761 0 .5-.2239.5-.5v-5c0-.2761-.2239-.5-.5-.5zm-.5-11.5c0-.27614.2239-.5.5-.5h1c.2761 0 .5.22386.5.5v8 1c0 .2761-.2239.5-.5.5h-1-8c-.27614 0-.5-.2239-.5-.5v-1c0-.2761.22386-.5.5-.5h7.5zm4.5 7.5c-.2761 0-.5.2239-.5.5v1 4c0 .2761.2239.5.5.5h1c.2761 0 .5-.2239.5-.5v-3.5h3.5c.2761 0 .5-.2239.5-.5v-1c0-.2761-.2239-.5-.5-.5h-4zm3.5 4.5c0-.2761.2239-.5.5-.5h1c.2761 0 .5.2239.5.5v4 1c0 .2761-.2239.5-.5.5h-1-4c-.2761 0-.5-.2239-.5-.5v-1c0-.2761.2239-.5.5-.5h3.5z" fill="#21201f" fill-rule="evenodd"/></svg>