<svg fill="none" height="24" viewBox="0 0 24 24" width="24" xmlns="http://www.w3.org/2000/svg"><g fill="#21201f"><path d="m2 6.42856c0-.23669.19187-.42856.42856-.42856h1.14288c.23669 0 .42856.19187.42856.42856v11.14284c0 .2367-.19187.4286-.42856.4286h-1.14288c-.23669 0-.42856-.1919-.42856-.4286z"/><path d="m6.42881 6c-.23669 0-.42857.19187-.42857.42856v11.14284c0 .2367.19188.4286.42857.4286h2.14287c.23669 0 .42856-.1919.42856-.4286v-11.14284c0-.23669-.19187-.42856-.42856-.42856z"/><path d="m15.4286 6c-.2367 0-.4286.19187-.4286.42856v11.14284c0 .2367.1919.4286.4286.4286h6.1428c.2367 0 .4286-.1919.4286-.4286v-11.14284c0-.23669-.1919-.42856-.4286-.42856z"/><path d="m11.4286 6c-.2367 0-.4286.19187-.4286.42856v11.14284c0 .2367.1919.4286.4286.4286h1.1428c.2367 0 .4286-.1919.4286-.4286v-11.14284c0-.23669-.1919-.42856-.4286-.42856z"/></g></svg>