<svg fill="none" height="32" viewBox="0 0 32 32" width="32" xmlns="http://www.w3.org/2000/svg"><path clip-rule="evenodd" d="m16 31.999c8.8366 0 16-7.1634 16-16 0-8.83653-7.1634-15.99997656-16-15.99997656-8.83656 0-16 7.16344656-16 15.99997656 0 8.8366 7.16344 16 16 16zm-6.22222-22.22122v1.77782h1.77782v-1.77782zm-1.33334-1.77778c-.24546 0-.44444.19898-.44444.44444v4.44446c0 .2454.19898.4444.44444.4444h4.44446c.2454 0 .4444-.199.4444-.4444v-4.44446c0-.24546-.199-.44444-.4444-.44444zm1.33334 12.4444v1.7778h1.77782v-1.7778zm-1.33334-1.7777c-.24546 0-.44444.199-.44444.4444v4.4445c0 .2454.19898.4444.44444.4444h4.44446c.2454 0 .4444-.199.4444-.4444v-4.4445c0-.2454-.199-.4444-.4444-.4444zm11.99996 3.5555v-1.7778h1.7778v1.7778zm-1.7777-3.1111c0-.2454.199-.4444.4444-.4444h4.4445c.2454 0 .4444.199.4444.4444v4.4445c0 .2454-.199.4444-.4444.4444h-4.4445c-.2454 0-.4444-.199-.4444-.4444zm1.7777-9.33332v1.77782h1.7778v-1.77782zm-1.3333-1.77778c-.2454 0-.4444.19898-.4444.44444v4.44446c0 .2454.199.4444.4444.4444h4.4445c.2454 0 .4444-.199.4444-.4444v-4.44446c0-.24546-.199-.44444-.4444-.44444zm-2.2222 7.9111v-7.9111h-1.7778v7.1111h-7.1111v1.7778h7.9111c.54 0 .9778-.4378.9778-.9778zm7.1111-.8h-5.3333v1.7778h5.3333zm-7.1111 8.8889v-5.3333h-1.7778v5.3333z" fill="#000" fill-rule="evenodd"/></svg>