<svg fill="none" height="360" viewBox="0 0 360 360" width="360" xmlns="http://www.w3.org/2000/svg"><path d="m116.074 181.087c0-.59 4.541-14.109 7.399-17.956 2.858-3.848 4.243-5.721 10.261-6.511s80.409 0 80.409 0 9.866-.297 13.519.59c3.653.888 8.188 5.229 10.949 11.642 1.749 4.216 3.008 8.619 3.75 13.123z" fill="#9c9c9c"/><path d="m149.338 83.2671c-.31 0-8.663-1.775-12.662 5.6677-3.337 6.2134-8.787 41.9092-7.274 46.2492 2.41 6.902 9.715 7.341 11.983 7.239s81.422.968 84.839-1.105c3.418-2.073 6.334-6.875 5.916-10.296-.417-3.422-6.462-38.7763-6.462-38.7763s-2.299-6.351-7.172-8.8763c-2.805-1.4202-69.168-.1023-69.168-.1023z" fill="#9c9c9c"/><path d="m161.37 150.499s-5.126 1.931-7.35 5.721c-2.223 3.79-6.089 11.881-6.089 11.881s-21.303 3.994-31.48 9.915c0 0-10.93 7.34-17.5254 19.021-4.3582 7.732-8.5923 19.945-8.5923 19.945s-1.4158 2.157-4.0299 5.965c-2.5563 3.724-8.9916 18.973-10.0789 24.578-2.8404 14.606-2.747 22.351-2.747 22.351s42.1615-19.972 49.0585-22.253 18.267-4.882 28.808-4.882h58.361c10.918 0 20.718 2.303 25.471 3.994s35.119 15.445 35.119 15.445l12.102 5.326s2.131-8.774.701-17.801c-1.477-9.32-7.913-20.194-8.951-22.573-1.039-2.379-6.262-13.367-7.598-17.455-1.336-4.087-7.452-19.86-15.8-27.232-4.806-4.243-23.447-11.317-27.379-12.427l-6.311-1.775s-8.17-15.001-10.62-16.634c-2.024-1.257-4.133-2.372-6.311-3.338z" fill="#c0cddc"/><path d="m157.943 104.589s.444 8.965-1.837 11.241c-2.281 2.277-5.29.888-6.466 3.231-1.176 2.344-2.424 4.998-.662 8.38 1.762 3.381 6.467 4.997 6.467 4.997s.59 6.906 3.457 11.61 4.478 8.157 4.478 8.157-.586 5.455.16 8.659c1.047 4.492 6.657 13.603 16.807 13.541 8.597-.049 14.437-4.536 17.105-11.304 1.695-4.292 1.202-7.225 1.202-7.225l-.807-5.144s4.038-6.906 4.775-11.313 1.176-7.988 1.176-7.988 5.144-1.692 5.512-6.76c.369-5.068-4.704-6.981-4.704-6.981s-.369-6.32-1.469-9.32c-.577-1.694-1.504-3.247-2.721-4.558 0 0-11.827 4.997-18.64 5.366-6.812.368-15.946-.222-15.946-.222l4.629-8.082z" fill="#fee9db"/><path d="m105.943 206.588c1.965-4.595 4.852-8.738 8.482-12.174 5.702-5.272 17.663-10.868 22.066-10.491 4.402.377 9.728 5.982 11.303 9.186 1.576 3.205 2.828 6.037 2.828 6.037s4.731 1.464 5.272 1.411c.542-.053 2.446 1.628 1.141 3.315-1.305 1.686-6.36 2.219-6.36 2.219s.275.888-1.411 1.687c-1.025.495-2.077.931-3.152 1.304 0 0-.443 2.552-2.121 3.316-1.058.467-2.173.795-3.315.976 0 0-1.957 2.392-3.48 2.721-.947.194-1.921.23-2.88.106 0 0-.652 2.175-3.426 2.175s-7.989-3.262-9.13-4.509c-1.14-1.247-3.749-3.915-3.749-3.915l-5.326 5.597z" fill="#fee9db"/><path d="m233.046 218.621s-8.517 8.073-8.832 10.599c-.315 2.525.444 6.435 3.466 5.991 1.666-.214 3.299-.637 4.86-1.26 0 0 .377 3.55 2.219 4.163 1.842.612 5.046.696 5.046.696s-1.389 3.551.821 4.416c1.342.532 2.783.768 4.225.693 0 0 1.576 4.54 5.237 4.731 3.662.191 13.758-3.551 14.646-6.058.887-2.508.124-3.027-.062-5.486-.108-1.6-.067-3.206.124-4.798l-2.8-4.975-.506-4.478-4.039-3.47-2.081-5.739s-3.156-1.957-6.436-.128c-3.279 1.828-13.758 8.645-13.758 8.645z" fill="#fee9db"/><path d="m150.599 118.013s4.309.363 5.92-3.271c1.612-3.635 1.718-9.511 1.718-9.511l12.183-4.3-4.287 7.575s5.924 1.403 14.392.156 19.28-4.727 19.28-4.727 2.662 1.611 3.79 5.92c.685 2.413.931 4.93.727 7.43l3.795 1.509s2.703-8.677 2.596-12.937c-.106-4.261-1.713-11.5393-1.713-11.5393s2.339-9.2003-2.13-13.4609-9.143-6.1289-11.588-6.7547-7.274-1.2473-7.274-1.2473-11.539-4.1541-19.794-1.3315c-8.255 2.8227-8.73 7.483-8.938 7.3277-.209-.1553-5.872-.9364-10.079 6.5462-4.208 7.4827-3.639 12.6797-3.173 16.3678.236 2.051.69 4.072 1.353 6.027-.267 1.935-.215 3.9.155 5.818.439 1.798 1.532 3.368 3.067 4.403z" fill="#000"/><path d="m162.901 158.928s3.395 9.871 7.425 13.585c4.03 3.715 18.036 3.289 22.811-1.487 4.776-4.775 6.263-11.246 6.263-11.246 1.361 3.71 2.11 7.616 2.219 11.566.106 6.258-.32 11.539-.32 11.539l.954 14.433-24.826 28.541-12.094 3.396-2.548-34.271s-3.08-20.057-3.182-25.36c-.102-5.304 3.298-10.696 3.298-10.696z" fill="#fff"/><path d="m284.629 269.272-23.965-11.672c-.715-4.309-1.895-10.927-1.895-10.927s-.995.573-4.079 1.412c-3.085.838-7.589-.156-7.589-.156s.328 2.162.594 3.995c-7.922-3.049-20.45-7.709-24.853-8.433-6.6-1.056-16.102-1.056-16.102-1.056s-6.47-16.368-26.136-16.368c-19.665 0-28.377 15.84-28.377 15.84s-14.917.395-23.367 3.431c-3.75 1.331-10.651 4.207-17.553 7.176.986-5.068 3.174-14.295 5.997-20.455 3.963-8.659 8.654-13.559 8.654-13.559s-4.882-4.589-5.006-5.108c-.125-.519-3.648-3.652-3.648-3.652s-8.136 10.012-13.453 22.527c-3.83 9.005-5.01 20.278-5.3695 25.888-3.262 1.473-5.8006 2.663-6.9723 3.289-4.4869 2.374-18.6135 9.369-25.608 10.558s-15.4537 1.846-15.4537 1.846 43.9729 15.906 130.9245 15.906c78.95 0 127.587-15.906 127.587-15.906s-18.507-2.068-24.33-4.576z" fill="#9c9c9c"/><path d="m150.216 199.914c.062-.116 13.781-5.734 23.283-6.848s22.253 2.139 31.928 5.05c9.675 2.912 18.64 11.211 21.054 13.439 2.415 2.228 8.73 9.928 8.73 9.928l9.586-7.19s-11.126-13.864-19.771-19.257c-8.646-5.392-22.595-12.755-37.489-13.758s-26.789 1.775-32.78 3.337c-3.647.945-7.156 2.355-10.443 4.195 0 0 5.503 11.894 5.902 11.104z" fill="#9c9c9c"/><path d="m151.42 142.965h-5.574v13.656h5.574z" fill="#fff"/><path d="m214.194 143.247h-5.335v12.587h5.335z" fill="#fff"/><path d="m177.437 225.882c.444-.554 24.827-28.541 24.827-28.541l12.156 5.325-20.083 26.585z" fill="#000"/><path d="m219.835 175.549 45.712-61.539.371 12.378s-17.085 26.712-17.391 26.61-23.167 33.823-23.167 33.823z" fill="#000"/><g stroke="#000" stroke-linecap="round" stroke-linejoin="round" stroke-width="3.10668"><path d="m162.418 195.409c.382 3.196.737 6.786 1.021 10.887.563 8.192 1.083 15.799 1.54 23.389"/><path d="m162.795 158.621s-3.328 2.774-3.586 10.523c-.142 4.394.533 8.522 1.429 14.003"/><path d="m143.223 212.857s5.326 11.627 10.527 25.945"/><path d="m161.25 151.051c-2.96 1.224-5.558 3.186-7.545 5.698-2.352 3.022-4.571 9.644-9.32 17.571-2.33 3.883-4.615 7.363-6.342 9.906"/><path d="m198.811 158.906s2.632 2.241 2.92 12.138c.115 3.896.022 8.113-.253 12.906"/><path d="m223.096 209.873c-6.15 10.001-11.621 20.404-16.376 31.138"/><path d="m200.368 147.98s4.833 2.663 7.891 6.214c3.222 3.768 5.743 9.319 10.744 19.669 4.882 10.048 7.372 15.192 7.372 15.192l-6.621 2.534"/><path d="m198.088 149.639c.253 4.314.683 9.6.683 9.6-1.948 10.971-9.378 15.662-18.134 15.613-7.545-.044-15.241-3.994-17.752-15.928 0 0 .443-4.882.63-7.612"/></g><path d="m159.564 118.567c-.635-.55 2.383-4.438 7.047-5.45 4.825-1.06 7.266.657 7.545.821.173.094.323.223.442.379.119.157.204.336.248.527.045.192.048.39.01.583-.038.192-.116.375-.23.535-.479.692-1.393.781-2.219.475-.661-.244-2.023-.932-5.712-.444-3.688.488-6.776 2.88-7.131 2.574z" fill="#000"/><path d="m183.921 116.215c-.228-.036-.446-.121-.638-.249s-.354-.296-.476-.492c-.106-.165-.175-.351-.203-.544-.029-.194-.015-.392.039-.58s.148-.363.275-.512.284-.269.462-.352c.736-.337 3.377-1.776 7.797-1.168 4.882.693 7.545 4.501 6.902 5.034-.644.532-3.027-1.714-7.261-2.118-1.997-.212-4.016.073-5.876.83-.321.141-.673.193-1.021.151z" fill="#000"/><path d="m189.203 123.987c1.443 0 2.614-1.489 2.614-3.325 0-1.835-1.171-3.324-2.614-3.324-1.444 0-2.614 1.489-2.614 3.324 0 1.836 1.17 3.325 2.614 3.325z" fill="#000"/><path d="m169.559 123.987c1.443 0 2.614-1.489 2.614-3.325 0-1.835-1.171-3.324-2.614-3.324-1.444 0-2.614 1.489-2.614 3.324 0 1.836 1.17 3.325 2.614 3.325z" fill="#000"/><path d="m175.008 132.592c-.631-3.067 3.346-6.578 3.994-6.178.648.399-1.94 3.204-1.331 5.356.532 1.918 2.396 1.62 3.261 2.615.142.153.244.338.298.539.054.202.058.413.011.617-.046.203-.141.391-.277.55-.136.158-.308.28-.502.357-1.291.444-4.798-.736-5.454-3.856z" fill="#000"/><path d="m179.406 146.076c-4.207-.156-7.238-2.947-6.83-3.551.408-.603 3.049.888 6.853.888 3.066 0 4.163-.732 4.881-1.016.719-.284 1.452-.178 1.833.443.095.149.16.315.189.488.029.174.023.352-.019.524-.041.171-.117.332-.223.473-.105.142-.238.26-.39.348-.529.351-2.517 1.545-6.294 1.403z" fill="#000"/><g stroke="#000" stroke-linecap="round" stroke-linejoin="round" stroke-width="3.10668"><path d="m199.987 103.314c-11.304 7.464-34.919 5.769-34.919 5.769 2.535-2.597 4.5-5.694 5.769-9.0933-2.199 1.1403-4.475 2.1243-6.812 2.9463-2.011.703-4.066 1.272-6.151 1.705-.324 1.065-.249 7.425-2.06 10.7-.412.708-.981 1.313-1.662 1.768s-1.458.749-2.27.859c-.555.097-1.084.303-1.558.608-.473.305-.881.702-1.198 1.168-2.144 2.973-.732 8.796 2.415 10.917 2.489 1.678 4.513 1.287 4.513 1.287s1.07 11.784 8.144 20.309c6.502 7.838 16.133 9.587 24.126 5.908 8.157-3.755 11.188-9.937 13.314-16.865 1.008-3.374 1.75-6.821 2.219-10.31 0 0 6.071-1.744 5.898-7.989-.102-3.715-2.663-4.726-4.247-4.993-.338-.06-.644-.24-.861-.506-.218-.266-.332-.601-.324-.945.044-2.379-.124-7.341-2.041-10.474-.614-1.038-1.389-1.973-2.295-2.769z"/><path d="m150.155 118.409s-1.478-1.003-2.57-4.439c-1.043-3.27-.395-6.812-.395-6.812s-4.03-15.9155 3.59-24.5565c4.088-4.6378 7.741-3.5991 8.153-3.8344 0 0 1.673-5.7251 9.831-7.7311 10.651-2.6185 19.527 2.1081 19.527 2.1081s9.263-.6615 15.769 4.5933c5.175 4.1762 6.808 13.3587 5.161 19.2702 1.869 7.6574 1.869 15.6524 0 23.3094"/><path d="m234.236 173.924s9.662 2.992 15.977 8.339c10.132 8.602 12.454 18.765 18.751 33.828 7.727 18.476 12.871 22.19 14.42 36.485.472 5.125-.059 10.293-1.563 15.214"/><path d="m215.897 167.446c2.375.701 5.149 1.571 8.074 2.596"/><path d="m250.576 223.207s-11.033 7.544-14.202 8.68c-3.169 1.137-6.298-1.455-5.166-4.926.994-3.062 9.688-9.502 13.243-11.508 5.007-2.827 9.347-3.009 10.701-1.185 1.353 1.824.736 3.031 2.006 4.802 1.269 1.771 3.519 1.802 4.34 3.679.821 1.878-.053 3.307.555 5.029.697 1.966 2.117 2.565 2.725 4.18.608 1.616-.106 2.961.08 5.002.164 1.802 1.056 2.934.528 4.629-.826 2.641-10.913 7.62-15.627 6.946-4.438-.635-5.631-4.061-5.631-4.061"/><path d="m233.756 232.415c-.469 1.052-.543 2.236-.208 3.338.546 1.584 2.551 4.052 7.242 2.867 3.884-.977 15.032-7.567 15.032-7.567"/><path d="m239.254 239.178s-.262 4.043 3.156 5.17c3.417 1.127 16.332-5.769 16.332-5.769"/><path d="m232.545 219.344c-.129.04-9.227 8.139-8.819 11.259.311 2.393 3.107 6.405 8.535 3.755"/><path d="m73.531 268.577c-1.3802-4.576-.0973-14.091 3.3156-23.478 2.0815-5.729 4.9839-14.202 8.8273-21.205 3.941-7.203 9.5731-8.171 9.5731-8.171l9.32-12.169s-.444 5.53 7.665 12.076"/><path d="m123.144 222.607c0 7.478-2.348 19.665-5.428 26.628"/><path d="m105.295 206.621s4.438-9.009 12.839-15.09c8.051-5.831 15.671-8.299 19.279-7.478 3.609.821 7.474 4.279 10.257 9.897 2.694 5.441 5.206 11.379 1.979 13.652-.606.461-1.299.798-2.036.991-.737.194-1.505.24-2.26.136"/><path d="m114.651 203.491s3.719 7.545 7.017 10.652c2.587 2.441 6.737 5.361 9.835 4.651 1.983-.444 3.395-3.031 3.395-3.031"/><path d="m123.144 203.367s3.937 6.577 6.076 8.787c1.807 1.864 5.224 4.065 7.367 3.826 2.339-.267 3.609-2.614 3.609-2.614"/><path d="m129.488 198.25c0 .12 4.384 7.03 6.067 9.431 1.682 2.401 3.133 5.029 5.241 5.597 1.984.532 4.602-1.656 4.762-3.218s-2.086-5.667-4.181-9.231c-2.157-3.67-4.806-7.301-4.806-7.301"/><path d="m148.251 167.193c-6.777 2.006-23.318 6.031-31.147 10.207-17.7522 9.44-26.1448 40.329-26.1448 40.329"/><path d="m126.785 217.867c-8.208 9.763-13.525 21.625-15.352 34.249"/><path d="m235.47 221.981c-12.457-17.557-32.811-28.706-55.982-28.706-10.112-.014-20.101 2.209-29.252 6.511"/><path d="m247.509 251.867c-.221-1.491-.488-2.969-.803-4.438"/><path d="m117.802 209.264c-11.727 13.662-18.5297 30.864-19.3188 48.851"/><path d="m245.503 214.907c-11.12-15.512-27.342-26.619-45.825-31.376-18.484-4.757-38.052-2.861-55.279 5.355"/><path d="m260.439 257.84c-.188-3.86-.653-7.701-1.389-11.495"/><path d="m309 273.888c-9.477-.016-18.835-2.112-27.414-6.138l-35.585-16.589c-11.729-5.505-24.524-8.368-37.48-8.389h-57.567c-12.956.021-25.751 2.884-37.48 8.389l-35.5846 16.589c-8.5789 4.028-17.9369 6.123-27.4141 6.138"/><path d="m233.033 187.327s-1.474 4.438-1.372 12.582"/><path d="m153.785 198.427c.954.738 1.872 1.523 2.747 2.353 1.509 1.549 1.465 3.106-.324 4.172-.981.572-2.374 1.105-5.326 1.091"/><path d="m264.982 232.317c5.539 2.663 8.499 8.25 8.499 8.25"/><path d="m235.612 238.428c-1.579 2.329-2.396 5.091-2.339 7.904"/><path d="m102.708 273.889s35.836-5.259 76.889-5.259c41.052 0 76.559 5.259 76.559 5.259"/><path d="m207.807 242.773c-2.858-5-6.988-9.156-11.97-12.045s-10.639-4.41-16.398-4.407c-5.72-.037-11.347 1.456-16.297 4.323-4.95 2.866-9.044 7.003-11.859 11.982"/><path d="m117.104 177.382 4.487-11.499c1.082-2.791 2.983-5.189 5.452-6.88 2.47-1.691 5.393-2.596 8.386-2.596h18.361"/><path d="m232.122 159.318c-2.54-1.929-5.652-2.953-8.841-2.911h-13.314"/><path d="m240.657 175.993-2.773-8.135"/><path d="m157.727 142.637h-19.026c-6.297 0-11.046-6.773-9.883-14.1l4.984-31.3155c1.047-6.5906 4.087-14.2596 11.845-14.2596h4.82"/><path d="m202.748 142.637h19.026c6.298 0 11.046-6.773 9.879-14.1l-4.984-31.3155c-1.047-6.5906-4.083-14.2596-11.841-14.2596h-6.897"/><path d="m145.744 142.76v13.648"/><path d="m151.709 142.76v13.648"/><path d="m208.157 142.871v11.109"/><path d="m214.122 142.871v13.536"/><path d="m219.731 175.407c20.357-25.559 45.837-61.375 45.837-61.375v14.575c-8.748 12.649-22.506 32.096-40.436 57.931"/><path d="m176.816 226.446c8.477-9.413 17.016-19.373 25.342-29.398"/><path d="m193.835 229.659c6.808-8.912 13.568-18.108 20.118-27.268"/></g></svg>