<svg xmlns="http://www.w3.org/2000/svg" width="24" height="24" fill="none"><path fill="#C3C7C9" d="M13.21.426a1.935 1.935 0 0 0-2.419 0 64 64 0 0 0-5.458 4.89 65 65 0 0 0-4.926 5.528 1.81 1.81 0 0 0 0 2.284 91 91 0 0 0 2.4 2.905L15.998 2.789c-.91-.852-1.839-1.608-2.787-2.363"/><path fill="#9C9FA0" d="M18.756 5.402a1 1 0 0 0-.097-.097 60 60 0 0 0-2.661-2.517L2.807 15.984c.822.92 1.664 1.81 2.535 2.682a.6.6 0 0 1 .078.077 59 59 0 0 0 2.642 2.488l13.23-13.186c-.852-.91-1.684-1.79-2.536-2.643"/><path fill="#818487" d="M23.595 10.843a54 54 0 0 0-2.352-2.798L8.062 21.232a72 72 0 0 0 2.797 2.372 1.84 1.84 0 0 0 2.284 0 67 67 0 0 0 5.526-4.948 65 65 0 0 0 4.926-5.528 1.81 1.81 0 0 0 0-2.285"/></svg>