<svg version="1.1" id="レイヤー_1" xmlns="http://www.w3.org/2000/svg" x="0" y="0" viewBox="0 0 72.5 51" style="enable-background:new 0 0 72.5 51" xml:space="preserve">
    <path class="st0" d="M18.5 13.3h.9l-.3.3-.1.1c-1.1 1.4-1.8 3-2.1 4.8v.2l-.4 13.7c0 1 .4 2 1.1 2.7v2.2c0 1 .8 1.9 1.9 1.9h5.3c1 0 1.9-.8 1.9-1.9v-.8l12.6.5c1.1.1 2.2.1 3.3.1 1.1 0 2.2 0 3.3-.1l12.6-.6v.8c0 1 .8 1.9 1.9 1.9h5.3c1 0 1.9-.8 1.9-1.9V35c.7-.7 1.1-1.6 1.1-2.6l-.4-13.7v-.2c-.2-1.8-1-3.4-2.1-4.8 0 0 0-.1-.1-.1l-.3-.3h.8c1.5 0 2.7-1.2 2.7-2.7 0-2.2-1.8-4-4-4h-1.8c-1 0-1.8.6-2.2 1.5L57.5 3c-1.3-1.9-3.4-3-5.7-3H32.7c-2.5 0-4.7 1.3-6 3.4l-2.9 4.7c-.3-.9-1.2-1.5-2.2-1.5h-1.8c-2.2 0-4 1.8-4 4 0 1.5 1.2 2.7 2.7 2.7zm1 5.5c.1-.6.3-1.2.5-1.8l9.3 3.4.8 2.1-10.7-2 .1-1.7zm35.7-.5-.6 1.7h-24l-.7-1.7c-.1-.3 0-.6.3-.8h24.4c.3 0 .6.3.6.6v.2zm.7 2 9.3-3.4c.3.6.4 1.2.5 1.8l.1 1.7-10.7 2 .8-2.1zm-8.1 6h-9.7c-.3 0-.6.3-.6.6v1h-3.8l-1.1-2.7h20l-1 2.7h-3.2v-1c.1-.3-.2-.6-.6-.6zm-.6 1.4v3.9h-8.5v-3.9h8.5zm-15-3.7-1.1-2.7h23l-1 2.7H32.2zm-12 9.5c-.6 0-1.1-.5-1.1-1.2l.4-10.7 11.2 2h.1l4.1 10.5-14.7-.6zm25.6.9c-2.1.1-4.3.1-6.4 0l-3.2-.2-2-5.1h3.3v3c0 .3.3.6.6.6h9.7c.3 0 .6-.3.6-.6v-3h2.7l-1.9 5.1-3.4.2zm20.3-2.1c0 .6-.5 1.2-1.1 1.2l-14.3.7 3.9-10.5 11.2-2 .3 10.6zM63.5 9.1h1.6c.8 0 1.5.7 1.5 1.5 0 .1-.1.1-.1.1h-3V9.1zM28.9 4.7c.8-1.3 2.2-2.2 3.8-2.2h19.1c1.5 0 2.8.7 3.7 2l5 6.9h-1.8l-4.1-6c-.6-1.1-1.8-1.7-3.1-1.7H33.1c-1.3 0-2.4.7-3.1 1.8l-3.5 6h-1.8l4.2-6.8zm28.2 6.8H28v-.1L31.1 6c.4-.7 1.2-1.1 2-1.1h18.4c.8 0 1.6.4 2 1.2l3.6 5.4zm-33.6 1.1h38.1v.1l2.5 2.6c.1.2.3.4.4.5l-8.1 2.9c.4-1-.1-2-1.1-2.4-.2-.1-.4-.1-.6-.1H30.5c-1 0-1.8.8-1.8 1.8 0 .2 0 .5.1.7l-8.1-2.9c.1-.2.2-.3.3-.5l2.5-2.7zm-3.7-3.5h1.6v1.6h-2.9c-.1 0-.1-.1-.1-.1 0-.8.6-1.5 1.4-1.5z"/>
    <path class="st0" d="M22.9 28.1c-1.3 0-2.3 1-2.3 2.3 0 1.3 1 2.3 2.3 2.3 1.3 0 2.3-1 2.3-2.3 0-1.2-1-2.3-2.3-2.3zm0 3.4c-.6 0-1.1-.5-1.1-1.1 0-.6.5-1.1 1.1-1.1.6 0 1.1.5 1.1 1.1-.1.6-.5 1.1-1.1 1.1zM62.3 28.2c-1.3 0-2.3 1-2.3 2.3 0 1.2 1 2.3 2.3 2.3s2.3-1 2.3-2.3-1-2.3-2.3-2.3zm0 3.4c-.6 0-1.1-.5-1.1-1.1 0-.6.5-1.1 1.1-1.1.6 0 1.1.5 1.1 1.1 0 .6-.5 1.1-1.1 1.1z"/>
    <path class="st1" d="m72.5 49.5-4-1.5v1h-52v-1l-4 1.5 4 1.5v-1h52v1zM3 4.5 1.5.5 0 4.5h1v28H0l1.5 4 1.5-4H2v-28z"/>
</svg>
