<svg fill="none" height="48" viewBox="0 0 48 48" width="48" xmlns="http://www.w3.org/2000/svg"><path clip-rule="evenodd" d="m7.33337 24.0002c0-9.2 7.45003-16.6667 16.65003-16.6667 9.2166 0 16.6833 7.4667 16.6833 16.6667s-7.4667 16.6666-16.6833 16.6666c-9.2 0-16.65003-7.4666-16.65003-16.6666zm3.33333 0c0 7.3666 5.9667 13.3333 13.3333 13.3333 7.3667 0 13.3334-5.9667 13.3334-13.3333 0-7.3667-5.9667-13.3334-13.3334-13.3334-7.3666 0-13.3333 5.9667-13.3333 13.3334zm15-8.3334c0-.9204-.7462-1.6666-1.6667-1.6666-.9204 0-1.6666.7462-1.6666 1.6666v8.3334c0 .5572.2785 1.0776.7421 1.3867l5 3.3333c.7659.5106 1.8007.3037 2.3113-.4622s.3036-1.8007-.4623-2.3113l-4.2578-2.8385z" fill="#21201f" fill-rule="evenodd"/></svg>