<svg xmlns="http://www.w3.org/2000/svg" width="33.023" height="30.484" viewBox="0 0 33.023 30.484">
  <g id="グループ_34018" data-name="グループ 34018" transform="translate(20612.479 19694.943)">
    <g id="グループ_34017" data-name="グループ 34017">
      <g id="グループ_34016" data-name="グループ 34016" transform="matrix(0.966, -0.259, 0.259, 0.966, -20932.105, -19998.637)">
        <path id="合体_135" data-name="合体 135" d="M20966.225,20088.029c-1.223-.326-20.732-5.506-20.732-5.506s-1.354-.705-1.043-1.852l1.41-5.332,6.664-4.873-1.164,4.342-2.125,1.438,6.646,1.783-.7,2.627,4.441,1.189.7-2.627,5.783,1.547-1.3-4.041,2.938.783,1.6,4.127-1.416,5.279s-.387,1.164-1.35,1.164A1.344,1.344,0,0,1,20966.225,20088.029Zm-11.1-12.084a1,1,0,0,1-1-1v-10a1,1,0,0,1,1-1h16a1,1,0,0,1,1,1v10a1,1,0,0,1-1,1Z" transform="translate(-20716.123 -19680.943)" fill="#fff"/>
        <path id="パス_32174" data-name="パス 32174" d="M-23593.4-12000.609l9.4,5.346,9.2-5.3" transform="translate(23831 12386)" fill="none" stroke="#df2020" stroke-width="0.5"/>
        <path id="パス_32175" data-name="パス 32175" d="M-23578.633-11997.937l2.7,6-3.7-5.812Z" transform="translate(23830.715 12386)" fill="#df2020"/>
        <path id="パス_32176" data-name="パス 32176" d="M-23576.963-11998.03l-2.723,6.094,3.732-5.8Z" transform="translate(23818.715 12386)" fill="#df2020"/>
      </g>
    </g>
  </g>
</svg>
