<svg fill="none" height="24" viewBox="0 0 24 24" width="24" xmlns="http://www.w3.org/2000/svg"><path clip-rule="evenodd" d="m14.8198 8.05523c-.1931.40403 1.2931 1.89133 1.7905 2.38907 0 .1991-1.9895 2.5881-2.7853 3.3845-.7958.7963-3.1832 2.7872-3.3821 2.7872-.49664-.4978-1.98954-1.9909-2.38744-1.7918s-4.47638 1.8913-4.87428 2.0904-.09951 2.2896.49738 2.8868c.59688.5972 4.47637 3.8822 12.23544-3.8822 7.759-7.76442 4.4988-11.6236 3.8795-12.2439-.5907-.59169-2.68-.89004-2.8848-.49772-.1931.40403-1.8841 4.48533-2.0889 4.87765z" fill="#21201f" fill-rule="evenodd"/></svg>