<svg fill="none" height="24" viewBox="0 0 24 24" width="24" xmlns="http://www.w3.org/2000/svg"><path clip-rule="evenodd" d="m5.98372 19.9952c.0022.0016.0044.0031.0066.0047l.02705-.031 3.04229-2.4667c.4085-.7125-.1995-2.6885-.95-4.37s-1.8715-3.22046-2.6505-3.38196l-1.74008.34086c.25249-.88333.65167-1.741 1.20388-2.53815 2.70935-3.91114 8.07634-4.88538 11.98754-2.176.7187.49786 1.3382 1.08547 1.854 1.73729.7045.89043 1.2153 1.90069 1.5206 2.96576.0012.0042.0024.0084.0036.0126l-1.7475-.34236c-.779.1615-1.9 1.70046-2.6505 3.38196s-1.3585 3.6575-.95 4.37l2.2498 1.8242c-1.193.9019-2.628 1.5004-4.1904 1.681l-.9999 1.9274c3.5702 0 6.7236-1.7844 8.6171-4.51l.0065.0045c1.784-2.5755 2.2557-5.6696 1.559-8.48949-.2111-.8591-.528-1.67659-.9362-2.43783-1.7673-3.29574-5.2451-5.53714-9.2464-5.53714-5.55097 0-10.09377 4.31315-10.46102 9.77156l.00382.0003c-.22344 3.2836 1.1052 6.5958 3.78002 8.8028z" fill="#21201f" fill-rule="evenodd"/></svg>