<svg fill="none" height="1000" viewBox="0 0 1000 1000" width="1000" xmlns="http://www.w3.org/2000/svg" xmlns:xlink="http://www.w3.org/1999/xlink"><clipPath id="a"><path d="m549.779 252.406h67.3499v67.3067h-67.3499z"/></clipPath><path d="m141.892 462.132 5.348-36.016c5.232-35.229 35.806-61.382 71.882-61.474l181.87-.474-32.329 409.265-266.761 3.433c-2.9107-12.436-4.5231-25.894-3.4646-39.431 5.6006-71.474 23.3366-156.577 43.4546-275.303z" fill="#9a9a9a"/><path d="m191.796 363.355c11.952 9.606 27.811 11.15 34.248 12.99 21.204.616 42.908.903 65.112.862 40.926-.093 80.276-1.397 117.915-3.619-.87-60.669-1.733-121.335-2.591-181.996l-141.547 2.135c-10.98.156-21.821 2.475-31.903 6.824-10.083 4.349-19.209 10.643-26.858 18.521-7.648 7.878-13.668 17.187-17.715 27.393-4.048 10.206-6.044 21.11-5.874 32.088l-2.732 37.814c.086 5.661-.277 14.614 1.975 19.833.123 8.061 5.915 23.242 9.97 27.155z" fill="#9a9a9a"/><path d="m364.219 377.207s-119.688 4.923-142.778-1.575c-17.743-4.997-29.436-10.264-36.206-21.064-3.215-5.203-4.999-11.164-5.169-17.279-.874-25.672 4.683-81.448 8.4-90.82 6.097-15.367 16.615-28.58 30.224-37.967 13.61-9.388 29.698-14.527 46.23-14.769l96.203-1.452" stroke="#000" stroke-linecap="round" stroke-linejoin="round" stroke-width="6.58858"/><path d="m217.686 350.857c-8.862-31.833 2.406-95.257 2.406-95.257 5.853-36.146 27.965-61.621 60.675-62.114" stroke="#000" stroke-linecap="round" stroke-linejoin="round" stroke-width="6.58858"/><path d="m241.239 378.363-11.38.173c-12.154.182-23.817 4.827-32.768 13.05s-14.566 19.45-15.776 31.544l-33.553 210.143c-7.584 47.486-11.033 95.541-10.308 143.623" stroke="#000" stroke-linecap="round" stroke-linejoin="round" stroke-width="6.58858"/><path d="m101.9 777.178s-4.5353-21.98-3.2245-53.536c3.2985-79.38 52.1635-308.87 52.1635-308.87 1.21-12.095 6.826-23.323 15.778-31.546 8.953-8.223 20.617-12.867 32.772-13.048l5.681-.08" stroke="#000" stroke-linecap="round" stroke-linejoin="round" stroke-width="6.58858"/><path d="m98.1112 86.1001c71.8568-7.0704 259.9548 0 340.9748 21.6239 14.321 3.827 62.97 19.346 76.263 48.065" stroke="#c9c9c9" stroke-linecap="round" stroke-linejoin="round" stroke-width="6.58858"/><path d="m685.423 167.58c-.166 22.91-17.847 41.364-39.516 41.229" stroke="#ffd942" stroke-linecap="round" stroke-linejoin="round" stroke-width="6.58858"/><path d="m724.413 209.35c-21.657-.154-39.086-18.854-38.92-41.77" stroke="#ffd942" stroke-linecap="round" stroke-linejoin="round" stroke-width="6.58858"/><path d="m684.832 250.6c.16-22.916-17.231-41.616-38.925-41.77" stroke="#ffd942" stroke-linecap="round" stroke-linejoin="round" stroke-width="6.58858"/><path d="m724.414 209.39c-21.657-.154-39.35 18.3-39.51 41.228" stroke="#ffd942" stroke-linecap="round" stroke-linejoin="round" stroke-width="6.58858"/><path d="m596.013 151.133 32.544.234" stroke="#ffd942" stroke-linecap="round" stroke-width="6.58858"/><path d="m612.25 135.121-.233 32.54" stroke="#ffd942" stroke-linecap="round" stroke-width="6.58858"/><g clip-path="url(#a)" stroke="#c9c9c9" stroke-linecap="round" stroke-linejoin="round" stroke-width="6.58858"><path d="m560.451 283.074h46.01l-2.487-19.124c-.314-2.403-1.678-4.624-3.832-6.238-2.153-1.615-4.943-2.508-7.836-2.509h-17.506c-2.87.008-5.636.895-7.777 2.491-2.14 1.597-3.506 3.794-3.839 6.175z"/><path d="m561.12 283.074h44.677c1.05-.003 2.09.167 3.061.499.972.333 1.855.823 2.6 1.441.744.618 1.336 1.353 1.741 2.162.404.81.614 1.678.617 2.555v14.184c0 1.704-.402 3.392-1.182 4.966-.781 1.575-1.925 3.005-3.367 4.211-1.442 1.205-3.155 2.16-5.039 2.813-1.885.652-3.905.987-5.944.987h-29.621c-4.116.001-8.063-1.364-10.975-3.794s-4.552-5.726-4.557-9.164v-14.203c.005-1.767.85-3.46 2.348-4.708 1.497-1.248 3.526-1.949 5.641-1.949z"/></g><path d="m517.502 413.642c-5.189-5.6-10.364-10.99-15.337-16.615l-17.718 3.797-1.809 19.31s10.043 48.33 34.864 153.438c9.311 39.543-6.154 113.836-6.154 113.836s54.963 102.824 56.821 137.72c11.459 10.178 63.654.203 56.25-50.003-1.046-6.905-2.622-15.673-5.336-33.033-6.874-44.754-11.416-82.26-14.321-109.945 20.309 15.47 38.157 27.691 51.757 36.399 56.392 36.305 75.082 38.398 88.935 36.921 7.545-.874 19.3-1.988 30.211-10.234 27.282-20.399 25.848-65.689 24.74-102.554-.51-13.001-1.772-25.962-3.778-38.817-2.764-17.832-6.841-35.436-12.198-52.668.51-4.842.51-9.723 0-14.565-.831-6.911-1.366-12.369-4.37-16.83-6.018-8.935-18.105-9.907-21.496-10.129-12.21 11.28-24.414 22.553-36.846 33.629-8.837 21.839-12.099 38.072-13.33 49.327-.431 3.403-1.034 11.039-3.963 11.421-3.133.615-6.597-8.049-11.33-16.615-3.305-5.926-9.927-14.399-23.171-31.34-20.309-26.023-30.592-38.921-44.39-50.975-11.349-9.846-30.907-26.461-61.21-35.629-15.242-4.205-31.014-6.175-46.821-5.846z" fill="#c0cddc"/><path d="m379.078 400.521c-.147 1.065 12.863 56.853 12.863 56.853s24.063 70.962 34.119 119.538 14.998 124.917 14.998 124.917 9.299 114.252 7.865 143.463c-.222 4.462-.431 6.498-.431 6.498s19.078 1.613 62.428-4.307c43.554-5.957 61.266-13.335 61.266-13.335l-11.238-92.973-36.014-82.318s6.246-113.912 0-140.772c-6.247-26.861-35.252-89.079-35.252-89.079l-7.748-13.261z" fill="#fff"/><path d="m370.642 403.739 7.04-34.392-.824-17.47 8.456-13.98s-8.401-6.468-6.475-20.307c1.748-13.187 17.946-14.153 17.946-14.153 4.653.148 12.69-3.077 12.795-19.119-.085-11.389-.908-22.759-2.462-34.041 0 0 61.376-11.446 83.082-11.465 32.291 0 36.599 5.009 36.599 5.009 2.08-.547 8.001 24.848 7.632 61.173-.37 36.324-10.383 69.639-24.347 83.361-7.985 8.072-18.278 13.466-29.46 15.44l-4.068 34.638s-28.882 11.212-48.077 7.913c-32.839-5.649-47.677-21.02-47.677-21.02z" fill="#fee9db"/><path d="m471.775 739.297c-3.692 167.874-172.663 115.243-182.947 111.268-33.337 10.159-102.775 6.35-113.428-27.433-21.989-69.91-3.982-108.087 4.591-210.549 5.256-62.766 37.861-144.608 111.176-175.338 9.81-4.111 42.372-17.298 50.754-23.125 4.006-27.045 28.014-43.69 41.424-52.472l-1.489 14.018c-3.527 8.227-6.838 16.442-10.364 24.67 36.821 81.331 63.062 174.304 62.976 265.672-.043 38.287 36.409 30.3 37.307 73.289z" fill="#c0cddc"/><path d="m377.236 351.252 8.296-13.157s-17.115-14.602-4.998-30.94c6.838-9.267 19.485 1.17 27.313-5.624 11.65-9.975 1.68-42.939 1.68-42.939l36.636-11.877-5.471 18.049 43.627-1.736 41.621-16.817s4.998 29.303 10.081 27.691c-.049-.843 6.191-45.112 6.191-45.112s11.459-23.894-6.449-48.366c-12.875-17.809-47.185-16.197-47.185-16.197s-31.953-15.211-52.748-13.98c-28.617 1.483-53.72 8.879-63.179 20.202-9.232 11.31-12.696 20.799-12.696 20.799l-20.174 12.171s-10.979 28.51-12.228 46.521c-1.047 17.999 22.512 55.855 22.512 55.855s-2.462 12.178 5.926 28.774c8.358 16.387 21.245 16.683 21.245 16.683z" fill="#000"/><g stroke="#000"><path d="m514.751 413.801c55.752.498 86.88 19.968 101.268 31.383 13.503 10.596 23.319 23.1 43.363 47.868 19.829 24.786 34.833 46.478 44.821 61.929" stroke-linecap="round" stroke-linejoin="round" stroke-width="6.58858"/><path d="m703.824 609.006s-1.73-43.37 2.72-64.526c2.628-12.609 9.662-25.691 9.662-25.691l2.751-32.029" stroke-linecap="round" stroke-linejoin="round" stroke-width="6.58858"/><path d="m783.499 475.346c1.083 14.707 2.173 29.414 3.04 44.139 5.525 12.478 9.894 25.436 13.054 38.712 3.446 15.384 6.591 57.843-4.647 106.85-9.914 42.797-47.874 46.945-82.51 35.912-5.157-1.594-16.961-4.923-49.849-25.753-19.26-12.195-37.867-25.392-55.745-39.536" stroke-linecap="round" stroke-linejoin="round" stroke-width="6.58858"/><path d="m505.125 718.154c-.671-4.818 26.128-32.818 22.073-60.761-7.194-50.225 10.991-79.731 0-119.181-11.368-40.935-26.3-80.796-44.625-119.126" stroke-linecap="round" stroke-linejoin="round" stroke-width="6.58858"/><path d="m579.594 492.908s16.395 62.975 28.168 172.65l9.231 59.597" stroke-linecap="round" stroke-linejoin="round" stroke-width="6.58858"/><path d="m264.78 488.174s43.405 27.235 50.298 113.052c4.308 30.294 3.243 84.021 2.751 114.702" stroke-linecap="round" stroke-linejoin="round" stroke-width="6.58858"/><path d="m379.2 362.949s-21.336 10.338-28.051 21.71c-5.379 8.972-6.954 21.537-13.748 45.77-3.95 13.674-8.797 27.073-14.512 40.108l50.877 7.329-22.654 30.891s25.916 20.62 50.914 64.938c28.747 50.631 36.784 97.226 36.784 97.226" stroke-linecap="round" stroke-linejoin="round" stroke-width="6.58858"/><path d="m484.451 401.035c-2.708 11.009-4.037 19.168-4.671 26.362-.223 2.629-1.177 5.144-2.753 7.26-1.577 2.116-3.714 3.749-6.17 4.715-25.313 9.722-62.854 5.433-89.778-16.172" stroke-linecap="round" stroke-linejoin="round" stroke-width="6.58858"/><path d="m548.82 650.263s-.24-39.66 2.006-83.688c1.329-26.864 4.685-53.589 10.038-79.947l-29.725-24.43 24.66-14.768s-25.553-18.11-42.612-35.254c-4.702-4.572-7.847-7.765-12.105-11.944" stroke-linecap="round" stroke-linejoin="round" stroke-width="6.58858"/><path d="m402.771 482.907c7.822 5.267 26.636 10.732 38.975 12.122 1.022-7.655 2.893-42.884 8.136-50.582 0 0 6.296 3.003 18.21 18.762 10.075 13.329 13.152 22.227 13.152 22.227 4.978-1.689 9.615-4.253 13.693-7.569 3.303-2.509 6.253-5.453 8.77-8.75" stroke-linecap="round" stroke-linejoin="round" stroke-width="6.58858"/><path d="m420.926 368.926c5.294 7.159 11.646 13.471 18.838 18.719 13.454 9.76 32.919 17.679 52.994 11.003 28.562-9.501 36.095-53.419 38.446-81.418 2.732-32.238-1.803-55.381-6.499-70.519" stroke-linecap="round" stroke-linejoin="round" stroke-width="6.58858"/><path d="m368.383 390.605c2.905 16.923 22.155 52.921 30.261 79.67 10.714 34.823 22.579 71.264 30.771 123.957 9.231 59.812 8.997 74.685 8.997 74.685" stroke-linecap="round" stroke-linejoin="round" stroke-width="6.58858"/><path d="m404.602 339.286c-5.377 2.227-11.394 2.357-16.863.363-15.305-5.421-15.736-26.922-5.188-34.091 2.047-1.355 4.382-2.215 6.819-2.51 2.394-.208 4.802.154 7.028 1.058 1.56.602 3.231.862 4.9.763 1.669-.098 3.297-.554 4.775-1.335 1.479-.803 2.84-1.807 4.043-2.985 1.141-1.25 1.983-2.744 2.462-4.369.866-2.944 1.534-5.944 2-8.978 2.271-18.706-4.554-30.546-4.554-30.546s18.807.363 42.359-18.965l-12.597 26.067s62.804 5.568 92.806-25.962c10.129-10.732 20.216-32.854 4.609-54.09-15.146-20.417-48.981-17.993-48.981-17.993s-29.135-21.912-76.005-11.537c-46.674 10.362-52.52 39.831-52.52 39.831s-18.155 3.588-25.54 21.353c-18.863 45.001 17.558 89.706 17.558 89.706-2.831 9.525-1.769 19.784 2.954 28.528 9.003 16.559 24.826 16.467 24.826 16.467.465 8.534.195 17.092-.806 25.58-1.135 9.425-3.127 18.726-5.952 27.789" stroke-linecap="round" stroke-linejoin="round" stroke-width="6.58858"/><path d="m388.2 340.262-8.074 9.759" stroke-linecap="round" stroke-linejoin="round" stroke-width="6.58858"/><path d="m539.461 228.734c2.303 10.217 2.282 20.819-.062 31.026-2.664 11.975-8.677 17.396-8.468 17.384" stroke-linejoin="round" stroke-width="6.58858"/></g><path d="m729.594 412.773-54.067 14.3-4.923-4.775 7.157-135.698 9.028-11.507 50.703-10.669 6.966 7.181-1.797 19.525-2.939 76.217z" fill="#9c9c9c"/><path d="m717.891 490.199s12.702 11.279 25.337 10.744c8.223-.623 16.299-2.527 23.934-5.643l-9.071-39.136s1.23-29.617-.148-41.776c-1.145-12.172 2.646-30.122.258-34.836-2.406-4.922-5.034-10.042-5.034-10.042s4.21-28.743-3.729-37.98c-7.939-9.236-32.384-22.983-32.384-22.983l-6.923 7.815s1.661 6.652 10.757 14.153c9.306 7.47 10.37 11.206 10.37 11.206l.763 12.823s-18.721-2.461-26.131-2.879c-7.625-.394-20.924 3.138-21.478 7.999-.763 4.923 10.647 12.24 10.647 12.24l25.62 1.44 13.595 12.067s-38.852-3.822-44.803-4.523c-5.951-.702-20.217 4.363-20.309 9.648-.092 5.286 12.647 10.461 12.647 10.461s22.063 1.846 31.307 4.689c9.231 2.616 13.065 6.819 13.065 6.819l-24.055 5.764s-24.041 8.361-24.724 7.555c-.456-.615-10.203-4.335-10.203-4.335l-5.047 7.47c1.357 2.432 3.29 4.492 5.631 6 2.301 1.617 4.976 2.621 7.773 2.917 9.355 1.132 33.005-2.166 33.005-2.166s-3.397 13.919 2.647 23.266c6.043 9.347 8.579 13.002 8.579 13.002z" fill="#fee9db"/><path d="m670.49 420.507c-4.855.79-8.454 2.859-7.869 7.291.986 6.12 11.097 8.966 24.761 9.32 8.061.044 16.109-.649 24.044-2.067" stroke="#000" stroke-linecap="round" stroke-linejoin="round" stroke-width="6.58858"/><path d="m738.529 389.584c-3.807-1.514-7.689-2.833-11.631-3.95-8.807-2.646-39.874-6.923-51.345-.972-8.185 4.307-6.813 13.279.726 15.79 7.311 2.307 19.632.098 34.464 4.498 12.462 3.692 19.078 8.996 19.078 8.996s-16.62 1.137-29.415 2.946" stroke="#000" stroke-linecap="round" stroke-linejoin="round" stroke-width="6.58858"/><path d="m765.314 496.042c-3.077-12.922-6.874-30.613-7.016-40.102-.837-24.854 4.111-40.976-2.831-54.914-.449-7.569 4.16-11.643 1.76-20.153-2.141-7.68-18.05-23.199-26.414-25.451-9.44-2.603-32.42-5.673-41.461-1.551-6.991 3.157-7.059 12.658.911 15.384 6.677 2.345 25.848 1.422 33.953 6.64 6.567 4.043 14.321 13.716 14.321 13.716" stroke="#000" stroke-linecap="round" stroke-linejoin="round" stroke-width="6.58858"/><path d="m752.939 372.684c-.037-.616 3.317-25.944-2.462-37.629-5.779-11.686-22.734-23.999-30.808-24.977-7.231-.837-10.776 6.965-6.628 12.842 3.693 5.058 16.481 11.076 18.537 17.23 2.037 5.79.947 15.999.947 15.999" stroke="#000" stroke-linecap="round" stroke-linejoin="round" stroke-width="6.58858"/><path d="m709.179 435.633c-1.335 5.987-2.061 15.107 1.379 23.34 2.189 5.169 5.493 9.792 9.674 13.538 0 0-.215 3.6-.978 12.085-.985 11.883 14.001 19.015 34.673 15.255 23.601-4.351 30.888-16.615 29.54-24.756s-7.305-16.448-23.386-16.971" stroke="#000" stroke-linecap="round" stroke-linejoin="round" stroke-width="6.58858"/><path d="m741.793 323.566 2.585-50.558c.277-6.135-4.419-10.504-10.998-7.581l-47.701 12.265c-7.594 3.624-8.173 11.667-8.517 16.547l-2.985 90.031m-.524 15.797-.757 17.849c-.15 3.528 3.229 6.146 6.607 5.121l42.883-13.012" stroke="#000" stroke-linecap="round" stroke-linejoin="round" stroke-width="6.58858"/><path d="m339.239 418.922c-130.021 35.001-158.428 107.767-169.192 300.046-.529 28.817-11.909 71.83 8.4 110.597 18.291 34.921 118.217 34.848 205.232-10.418" stroke="#000" stroke-linecap="round" stroke-linejoin="round" stroke-width="6.58858"/><path d="m433.667 289.9c-1.964-1.151 5.821-12.166 18.53-15.027 6.014-1.417 12.256-1.572 18.333-.456 1.12.237 2.125.849 2.85 1.736.356.469.597 1.015.703 1.594.107.579.077 1.175-.088 1.741-.492 2.35-2.32 3.514-4.868 3.243-5.453-.94-11.035-.823-16.444.344-12.733 2.456-17.047 7.988-19.016 6.825z" fill="#000"/><path d="m507.698 279.326c-3.777.016-7.523.678-11.077 1.957-.382.191-.804.289-1.231.283-.449-.017-.889-.135-1.286-.345-.431-.184-.671-.615-1.102-.781l-.708-1.231c-.236-.487-.374-1.016-.406-1.557-.032-.54.044-1.082.222-1.593.408-.992 1.091-1.846 1.969-2.462 2.234-1.397 8.001-3.427 16.143-1.797 8.757 1.803 12.308 7.926 11.323 9.458-.775 1.096-5.809-1.981-13.847-1.932z" fill="#000"/><path d="m491.159 336.053c-.588.021-1.172-.09-1.711-.326-.303-.073-.584-.22-.817-.427-.232-.207-.411-.468-.519-.761-1.372-1.815-1.089-4.154.493-5.932 1.188-1.341 3.194-3.144 2.978-6.72-.467-4.405-7.052-8.658-6.498-9.956.966-1.538 13.699 3.2 14.542 10.32.794 6.288-4.191 11.224-5.194 12.128-.383.509-.877.925-1.444 1.215s-1.193.447-1.83.459z" fill="#000"/><path d="m489.059 364.679c-13.447 1.009-21.792-11.581-20.272-14.418 1.336-2.4 7.872 1.016 19.823-.326 10.69-1.267 15.97-4.744 17.577-2.523 2.055 2.622-3.047 16.221-17.128 17.267z" fill="#000"/><path d="m469.91 297.855c-.093-5.058-3.077-9.101-6.665-9.101s-6.714 4.196-6.628 9.23c.086 5.033 3.089 9.144 6.665 9.144 3.809-.24 6.701-4.424 6.628-9.273z" fill="#000"/><path d="m515.334 295.165c-.092-5.058-3.077-9.107-6.665-9.101-3.587.007-6.714 4.197-6.628 9.23.087 5.034 3.077 9.101 6.659 9.101 3.582-.184 6.499-4.369 6.634-9.23z" fill="#000"/><path d="m699.672 297.386c.653-4.366-1.112-8.248-3.942-8.672-2.83-.423-5.654 2.773-6.308 7.139-.653 4.366 1.112 8.248 3.942 8.672 2.83.423 5.654-2.773 6.308-7.139z" fill="#000"/><path d="m717.971 518.195s3.009 11.335 28.974 13.538" stroke="#000" stroke-linecap="round" stroke-linejoin="round" stroke-width="6.58858"/><path d="m223.589 773.735 5.169-8.418c15.774-25.697 42.661-41.438 72.442-46.151 69.438-10.953 138.759-56.613 138.759-56.613 10.493-1.23 17.601 44.995 25.017 52.521l5.68 5.772 4.167 21.919" stroke="#000" stroke-linecap="round" stroke-linejoin="round" stroke-width="6.58858"/><path clip-rule="evenodd" d="m561.293 297.368c.116-1.122 1.06-1.979 2.189-1.979h40.608c1.299 0 2.314 1.121 2.181 2.414-14.831 144.141-70.825 283.227-114.51 419.974-.369 1.156-1.603 1.792-2.759 1.424l-42.549-13.556c-1.156-.368-1.794-1.602-1.425-2.757 42.638-133.268 101.818-264.86 116.265-405.52z" fill="#000" fill-rule="evenodd"/><path d="m558.543 628.959 8.505-.615c7.072 15.648-22.715 25.728-22.715 25.728-5.994 3.433-10.376 11.156-13.792 17.168-2.029 3.562-4.991 6.504-8.566 8.51l-38.083 21.359c-30.832 19.956-59.911 13.212-49.806-14.596.154-.431 3.539-7.323 3.471-7.784-3.471-26.14 120.986-49.77 120.986-49.77z" fill="#fee9db" stroke="#000" stroke-linecap="round" stroke-linejoin="round" stroke-width="6.58858"/><path d="m387.723 811.876c7.748 16.239 20.143 29.537 36.833 39.524 15.466 9.23 33.959 15.255 54.97 17.845 9.512 1.146 19.095 1.595 28.672 1.342 34.187-.831 70.774-9.95 105.632-26.577 44.833-21.39 81.808-52.822 104.111-88.5 11.219-17.95 18.192-36.097 20.727-53.942 2.733-19.254.191-37.253-7.557-53.486s-20.137-29.537-36.827-39.525c-15.466-9.23-33.965-15.254-54.97-17.845-41.775-5.113-89.464 3.846-134.303 25.23-44.84 21.383-81.809 52.828-104.112 88.506-11.219 17.95-18.191 36.096-20.727 53.942-2.732 19.254-.197 37.253 7.551 53.486zm313.743-113.225-47.542 12.8c-5.477-7.212-14.961-11.569-27.041-11.274l-79.667 1.939c-13.921.338-28.309 6.769-39.184 16.411l-65.733-11.304c18.623-23.919 45.627-44.958 77.543-60.188 29.387-14.017 59.973-21.703 88.295-22.392 7.736-.205 15.476.157 23.158 1.083 32.039 3.92 55.228 17.697 65.297 38.767 4.892 10.276 6.48 21.839 4.874 34.164zm-271.968 40.17 62.41 2.991c-.074.228-.16.455-.234.683l-2.621 8.234c-6.887 21.635 6.843 38.859 30.5 38.287l79.666-1.908c23.663-.578 48.656-18.743 55.542-40.379l2.622-8.234c.154-.492.289-.978.425-1.464l34.525-9.292c-2.009 4.103-4.231 8.098-6.659 11.969-18.296 29.272-49.08 55.271-86.682 73.227-37.603 17.955-77.193 25.512-111.453 21.309-32.039-3.92-55.228-17.704-65.297-38.767-8.782-18.461-4.708-32.983 7.256-56.649z" fill="#666" stroke="#000" stroke-miterlimit="10" stroke-width="6.58858"/><path d="m492.394 602.771s9.706-12.547 18.051-13.47c9.847-1.101 29.331 10.837 31.054 21.224.935 5.618-.831 9.378-15.57 7.427-5.662-.744-17.804-7.058-17.804-7.058l-13.54 7.058" fill="#fee9db"/><path d="m492.394 602.771s9.706-12.547 18.051-13.47c9.847-1.101 29.331 10.837 31.054 21.224.935 5.618-.831 9.378-15.57 7.427-5.662-.744-17.804-7.058-17.804-7.058l-13.54 7.058" stroke="#000" stroke-linecap="round" stroke-linejoin="round" stroke-width="6.58858"/><path d="m475.516 654.482c-2.111.941-4.479 1.135-6.716.553-2.236-.583-4.209-1.908-5.593-3.759 0 0-19.238-20.017-18.462-28.884 1.944-21.692 22.524-9.729 22.524-9.729s1.391-17.802 17.127-15.852c7.385.917 18.118 23.765 18.118 23.765 1.72 2.271 2.485 5.122 2.134 7.948-.35 2.826-1.79 5.404-4.012 7.185-2.223 1.781-5.052 2.625-7.887 2.353-2.835-.273-5.452-1.641-7.294-3.813l-18.186-21.586c2.499 4.203 5.053 8.935 7.508 14.153 2.308 4.923 4.204 9.618 5.773 13.987 1.335 6.098-.911 11.852-5.034 13.679z" fill="#fee9db"/><path d="m467.269 612.663s-20.58-11.963-22.524 9.729c-.776 8.867 18.462 28.884 18.462 28.884 1.384 1.851 3.357 3.176 5.593 3.759 2.237.582 4.605.388 6.716-.553 4.123-1.827 6.369-7.581 5.034-13.679-1.569-4.369-3.465-9.064-5.773-13.987-2.455-5.218-5.009-9.95-7.508-14.153zm0 0s1.391-17.802 17.127-15.852c7.385.917 18.118 23.765 18.118 23.765 1.72 2.271 2.485 5.122 2.134 7.948-.35 2.826-1.79 5.404-4.012 7.185-2.223 1.781-5.052 2.625-7.887 2.353-2.835-.273-5.452-1.641-7.294-3.813z" stroke="#000" stroke-linecap="round" stroke-linejoin="round" stroke-width="6.58858"/><path d="m423.718 674.756s-1.274-11.045-1.44-14.405c-.53-10.646 1.975-22.251 10.819-28.189 0 0 6.154-2.05 8.302-1.705 8.111 1.28 13.896 14.042 16.899 22.59.76 2.159.787 4.509.078 6.686-.71 2.177-2.117 4.059-4.004 5.356-2.254 1.551-5.028 2.154-7.723 1.677-2.694-.477-5.093-1.994-6.678-4.224l-2.462-3.502z" fill="#fee9db" stroke="#000" stroke-linecap="round" stroke-linejoin="round" stroke-width="6.58858"/><path d="m431.448 649.666 6.031 9.378" stroke="#000" stroke-linecap="round" stroke-linejoin="round" stroke-width="6.58858"/><path d="m479.115 671.558s8.413-.474 14.155 6.197z" fill="#666"/><path d="m479.115 671.558s8.413-.474 14.155 6.197" stroke="#000" stroke-linecap="round" stroke-linejoin="round" stroke-width="6.58858"/><path d="m944.818 260.433c-55.585-41.007-143.548-95.823-244.194-119.28-37.541-8.744-73.383 19.956-73.383 58.489v227.441" stroke="#c9c9c9" stroke-linecap="round" stroke-linejoin="round" stroke-width="6.58858"/><path d="m817.963 554.963h126.857" stroke="#c9c9c9" stroke-linecap="round" stroke-linejoin="round" stroke-width="6.58858"/><path d="m944.822 516.941h-143.954" stroke="#c9c9c9" stroke-linecap="round" stroke-linejoin="round" stroke-width="6.58858"/><path d="m817.966 740.52-50.779-41.739c-35.466-23.289-76.791-36.087-119.213-36.921l-42.218-.825c-44.827-.875-88.894 11.647-126.562 35.961l-64.059 41.346c-34.753 22.431-75.013 34.86-116.364 35.924l-256.3111 4.135 2.1232 44.127c1.22 25.298 12.1146 49.16 30.4317 66.654 18.3172 17.494 42.6562 27.282 67.9862 27.341l649.462-6.061c29.528-.276 58.291-9.424 82.553-26.255s42.902-40.568 53.498-68.128l29.048-75.559z" fill="#f8f8f6"/><path d="m930.611 739.617-112.647.899" stroke="#000" stroke-linecap="round" stroke-linejoin="round" stroke-width="6.58858"/><path d="m845.306 763.947-78.122-65.166c-35.467-23.289-76.791-36.087-119.214-36.921l-42.218-.825c-44.826-.875-88.894 11.647-126.561 35.961l-64.06 41.346c-34.752 22.429-75.013 34.859-164.213 35.167l-160.0096 4.117" stroke="#000" stroke-linecap="round" stroke-linejoin="round" stroke-width="6.58858"/><path d="m216.622 833.523c326.63 6.35 314.303-82.827 681.039-32.22" stroke="#000" stroke-linecap="round" stroke-linejoin="round" stroke-width="6.58858"/><path d="m854.319 461.616v-52.393" stroke="#c9c9c9" stroke-linecap="round" stroke-linejoin="round" stroke-width="6.58858"/><path d="m843.338 409.223v37.139" stroke="#c9c9c9" stroke-linecap="round" stroke-linejoin="round" stroke-width="6.58858"/><path d="m884.566 409.224h-70.742c-5.128 0-9.285-4.157-9.285-9.285v-70.742c0-5.128 4.157-9.285 9.285-9.285h70.742c5.128 0 9.285 4.157 9.285 9.285v70.742c0 5.128-4.157 9.285-9.285 9.285z" stroke="#c9c9c9" stroke-linecap="round" stroke-width="6.58858"/><path clip-rule="evenodd" d="m836.373 339.234h16.133c8.656 0 15.673 7.018 15.673 15.674v2.069c0 8.656-7.017 15.673-15.673 15.673h-8.698v20.003h-7.435zm7.435 25.981h8.698c4.55 0 8.238-3.688 8.238-8.238v-2.069c0-4.55-3.688-8.238-8.238-8.238h-8.698z" fill="#c9c9c9" fill-rule="evenodd"/></svg>