<svg fill="none" height="24" viewBox="0 0 24 24" width="24" xmlns="http://www.w3.org/2000/svg"><path clip-rule="evenodd" d="m13.8198 8.05523c-.1931.40403 1.2931 1.89133 1.7905 2.38907 0 .0829-.3454.5461-.8059 1.1158l2.132 2.132c5.1069-6.28158 2.4141-9.45895 1.8571-10.0168-.5907-.59169-2.68-.89004-2.8848-.49772-.0833.17445-.446 1.03439-.8476 1.98695-.5287 1.25367-1.125 2.66777-1.2413 2.8907zm-.3128 5.03747c.0002-.0003.0005-.0006.0007-.0008l2.1062 2.1062c-.0003.0002-.0005.0005-.0008.0008l5.2257 5.2257c.1953.1953.1953.5118 0 .7071l-.7071.7071c-.1952.1953-.5118.1953-.7071 0l-5.2251-5.2251c-7.2833 6.8677-10.94267 3.7663-11.52094 3.1877-.59689-.5972-.89528-2.6877-.49738-2.8868.19895-.0995 1.31802-.5723 2.4371-1.0452h.00004c1.11909-.4728 2.23819-.9456 2.43714-1.0452.3979-.1991 1.8908 1.294 2.38739 1.7918.15441 0 1.62695-1.1991 2.65065-2.1084l-8.93233-8.93225c-.19526-.19526-.19526-.51184 0-.7071l.70711-.70711c.19526-.19526.51184-.19526.7071 0z" fill="#21201f" fill-rule="evenodd"/></svg>