<svg width="60" height="60" viewBox="0 0 60 60" fill="none" xmlns="http://www.w3.org/2000/svg">
<mask id="mask0_37_13578" style="mask-type:alpha" maskUnits="userSpaceOnUse" x="5" y="16" width="50" height="30">
<rect x="5" y="16.3203" width="49.8623" height="29.4125" fill="#D9D9D9"/>
</mask>
<g mask="url(#mask0_37_13578)">
<path d="M28.424 42.5245C28.203 42.5245 28.0234 42.3456 28.0234 42.1246V41.3041H27.1282L27.1108 42.1326C27.1061 42.3509 26.9285 42.5245 26.7109 42.5245H12.1121L6.40133 41.8181C6.37529 41.8148 6.34925 41.8088 6.32322 41.8001C6.26914 41.7821 5 41.3381 5 39.7479V37.3918C5 37.3031 5.02938 37.2169 5.08278 37.1475L5.57549 36.5086C5.56681 35.8583 5.56547 33.9323 5.8452 33.2967C6.07687 32.7666 7.06694 31.3986 7.92683 31.1423C8.24529 30.2023 9.54714 26.8468 12.6462 24.1677C15.1478 22.2176 22.0863 22.5948 22.3827 22.6135C22.595 22.6255 22.7606 22.8017 22.7599 23.0147L22.7266 35.3396L50.0475 35.2428H50.0488C50.2664 35.2428 50.4447 35.417 50.4487 35.6353C50.4974 38.0575 50.4794 41.0417 50.1135 41.499C49.7303 41.9797 49.3999 42.0244 49.2109 42.0004L41.2089 42.5238L28.424 42.5245ZM6.54887 41.029L12.1622 41.7267L26.3183 41.724L26.335 40.8962C26.3397 40.6779 26.518 40.5036 26.7356 40.5036H28.424C28.645 40.5036 28.8246 40.6832 28.8246 40.9042V41.724H41.1828L49.2143 41.1973C49.2356 41.1953 49.2597 41.1959 49.2817 41.1986C49.3131 41.1806 49.3838 41.1298 49.488 40.9996C49.6322 40.6745 49.6896 38.2885 49.6549 36.0453L22.326 36.1421H22.3247C22.2185 36.1421 22.117 36.1 22.0416 36.0252C21.9662 35.9498 21.9241 35.847 21.9248 35.7402L21.9575 23.3973C20.482 23.3465 15.0964 23.2724 13.1549 24.7872C9.78348 27.7007 8.62783 31.5756 8.61648 31.615C8.5624 31.8006 8.38014 31.9234 8.18787 31.9007H8.1832C7.86207 31.9007 6.86399 32.9682 6.57825 33.6191C6.40667 34.009 6.3586 35.6167 6.37863 36.6341C6.38063 36.7256 6.35126 36.8144 6.29584 36.8865L5.80047 37.528V39.7479C5.80047 40.6498 6.38864 40.9609 6.54887 41.029Z" fill="#040000"/>
<path d="M9.02559 42.1403H9.02225C8.80127 42.1389 8.62301 41.9587 8.62502 41.737L8.69512 32.4932C8.69512 32.4331 8.70914 32.3737 8.73517 32.3196C9.11572 31.5459 12.5239 24.7475 15.1269 24.4498C19.7822 24.14 23.6244 24.2335 23.6624 24.2355C23.8834 24.2408 24.0583 24.4251 24.0523 24.646C24.047 24.867 23.8854 25.05 23.6417 25.0359C23.603 25.0359 19.7963 24.9418 15.199 25.2469C13.4032 25.4532 10.513 30.5398 9.49492 32.5914L9.42616 41.7431C9.42482 41.9627 9.24523 42.1403 9.02559 42.1403Z" fill="black"/>
<path d="M7.89368 33.0344C7.52916 33.0344 7.12926 32.995 6.75539 32.8782C6.54443 32.8121 6.42692 32.5871 6.49302 32.3761C6.55911 32.1652 6.78543 32.049 6.99507 32.1137C7.86097 32.3855 8.98657 32.1104 8.99792 32.1071C9.20822 32.0557 9.42987 32.1832 9.48394 32.3981C9.53802 32.6125 9.4085 32.8294 9.1942 32.8842C9.15881 32.8935 8.58867 33.0344 7.89368 33.0344Z" fill="black"/>
<path d="M6.00147 35.4918C5.93804 35.4918 5.87395 35.4764 5.81387 35.4444C5.61892 35.3402 5.54482 35.0986 5.6483 34.9036C5.72507 34.7588 6.13766 34.0391 6.7285 34.0391H9.02711C9.24809 34.0391 9.42768 34.2187 9.42768 34.4396C9.42768 34.6606 9.24809 34.8395 9.02711 34.8395H6.7285C6.65373 34.8596 6.46413 35.0779 6.3553 35.2802C6.2832 35.415 6.14501 35.4918 6.00147 35.4918Z" fill="black"/>
<path d="M9.02642 36.9841H6.1076C5.88662 36.9841 5.70703 36.8045 5.70703 36.5835C5.70703 36.3625 5.88662 36.1836 6.1076 36.1836H9.02642C9.2474 36.1836 9.42699 36.3625 9.42699 36.5835C9.42699 36.8045 9.2474 36.9841 9.02642 36.9841Z" fill="black"/>
<path d="M7.53818 34.7539C7.50813 34.7539 7.47742 34.7499 7.44738 34.7432C7.23174 34.6932 7.09755 34.4789 7.14695 34.2632C7.1583 34.2158 7.416 33.1002 7.63031 32.4954C7.70375 32.2871 7.93074 32.1776 8.14104 32.2517C8.35 32.3251 8.45882 32.5541 8.38538 32.7631C8.1871 33.3246 7.93074 34.4321 7.92807 34.4428C7.88534 34.6284 7.71977 34.7539 7.53818 34.7539Z" fill="black"/>
<path d="M7.08651 40.5821H5.70721C5.48623 40.5821 5.30664 40.4025 5.30664 40.1816C5.30664 39.9606 5.48623 39.7816 5.70721 39.7816H6.68594V38.2321H5.70721C5.48623 38.2321 5.30664 38.0532 5.30664 37.8322C5.30664 37.6112 5.48623 37.4316 5.70721 37.4316H7.08651C7.30749 37.4316 7.48708 37.6112 7.48708 37.8322V40.1816C7.48708 40.4025 7.30749 40.5821 7.08651 40.5821Z" fill="black"/>
<path d="M7.08651 39.4079H5.70721C5.48623 39.4079 5.30664 39.2283 5.30664 39.0073C5.30664 38.7863 5.48623 38.6074 5.70721 38.6074H7.08651C7.30749 38.6074 7.48708 38.7863 7.48708 39.0073C7.48708 39.2283 7.30749 39.4079 7.08651 39.4079Z" fill="black"/>
<path d="M10.5902 32.6726C10.2171 32.6726 10.1556 32.6132 10.0955 32.5558C10.0041 32.4684 9.95468 32.3308 9.96937 32.2053C9.9707 32.0638 9.78444 31.4302 9.60885 30.9342C9.53541 30.7259 9.64424 30.4969 9.8532 30.4234C10.0615 30.3493 10.2905 30.4588 10.3639 30.6671C10.4801 30.9943 10.6477 31.499 10.7258 31.8862C11.7319 31.8261 15.2275 31.2927 18.4374 30.7486L18.9829 27.4813C19.0116 27.3571 19.0122 27.2876 19.0082 27.2523L12.7353 27.2536C12.5143 27.2536 12.3347 27.074 12.3347 26.853C12.3347 26.632 12.5143 26.4531 12.7353 26.4531H19.1017C19.1898 26.4585 19.4656 26.4952 19.6545 26.7582C19.8154 26.9805 19.8534 27.277 19.768 27.6388L19.1805 31.1618C19.1524 31.3301 19.0209 31.4629 18.8527 31.491C13.2848 32.439 11.328 32.6726 10.5902 32.6726Z" fill="black"/>
<path d="M17.8425 34.3486C16.9266 34.3486 16.285 33.9801 16.2716 33.4393C16.2596 32.8825 16.9212 32.4793 17.8806 32.4573C18.2625 32.4419 18.631 32.5087 18.9167 32.6288C19.4428 32.8485 19.5276 33.185 19.5316 33.3665C19.5436 33.9227 18.882 34.3266 17.9233 34.3473C17.896 34.3479 17.8693 34.3486 17.8425 34.3486ZM17.1522 33.4193C17.2898 33.4854 17.5561 33.5495 17.9046 33.5468C18.2558 33.5388 18.5155 33.4573 18.651 33.3852C18.5128 33.3205 18.2478 33.2537 17.8993 33.2577C17.5481 33.2664 17.2878 33.3479 17.1522 33.4193Z" fill="black"/>
<path d="M9.54169 31.9428H9.53635L8.10231 31.9247C7.88133 31.9221 7.70374 31.7398 7.70708 31.5188C7.70975 31.2978 7.88333 31.1116 8.11232 31.1236L9.54703 31.1423C9.76801 31.145 9.94493 31.3266 9.94226 31.5475C9.93959 31.7665 9.76067 31.9428 9.54169 31.9428Z" fill="black"/>
<path d="M12.1855 25.5406C11.9812 25.5406 11.8076 25.3857 11.7869 25.1781C11.7662 24.9578 11.9278 24.7628 12.1481 24.7415L15.4028 24.4317C15.6191 24.4097 15.8187 24.5726 15.84 24.7929C15.8607 25.0132 15.6992 25.2081 15.4789 25.2295L12.2242 25.5393C12.2109 25.5406 12.1989 25.5406 12.1855 25.5406Z" fill="black"/>
<path d="M39.5332 39.8252C39.4878 39.8252 39.4411 39.8172 39.3964 39.8005C39.1881 39.7251 39.0812 39.4954 39.1574 39.2871C39.2668 38.9853 39.4024 38.6916 39.5586 38.4139C40.6041 36.5586 42.5715 35.4062 44.6939 35.4062C45.2146 35.4062 45.7307 35.4737 46.2288 35.6092C46.4431 35.6666 46.5692 35.8869 46.5112 36.0999C46.4531 36.3135 46.2321 36.4431 46.0205 36.3823C45.5898 36.2661 45.1439 36.2067 44.6939 36.2067C42.86 36.2067 41.1602 37.2035 40.2562 38.8078C40.1214 39.0468 40.0046 39.3005 39.9091 39.5608C39.851 39.7244 39.6968 39.8252 39.5332 39.8252Z" fill="black"/>
<path d="M21.7988 17.7227C21.7988 17.1693 22.2474 16.7207 22.8008 16.7207H53.4583C54.0123 16.7207 54.4613 17.1698 54.4613 17.7237V35.7799C54.4613 36.3333 54.0127 36.7819 53.4593 36.7819H22.8018C22.2479 36.7819 21.7988 36.3329 21.7988 35.7789V17.7227Z" fill="white"/>
<path d="M53.7925 37.182H22.4686C21.8785 37.182 21.3984 36.7027 21.3984 36.1125V17.3892C21.3984 16.7997 21.8785 16.3203 22.4686 16.3203H53.7925C54.3827 16.3203 54.8621 16.7997 54.8621 17.3892V36.1125C54.8621 36.7027 54.3827 37.182 53.7925 37.182ZM22.4686 17.1208C22.3198 17.1208 22.1996 17.2416 22.1996 17.3892V36.1125C22.1996 36.258 22.3224 36.3815 22.4686 36.3815H53.7925C53.9381 36.3815 54.0609 36.258 54.0609 36.1125V17.3892C54.0609 17.2416 53.9408 17.1208 53.7925 17.1208H22.4686Z" fill="black"/>
<path d="M51.9776 39.6156L49.7344 38.0573L50.9681 36.4297L53.2173 37.9926C53.4971 38.2069 53.5511 38.6081 53.3382 38.8892L52.8795 39.494C52.6646 39.7778 52.26 39.8319 51.9776 39.6156Z" fill="black"/>
<path d="M11.3252 33.1426C12.3119 33.1126 12.38 32.6453 12.38 31.6078C12.38 30.7599 12.4087 30.0723 11.3252 30.0723C10.2376 30.0723 9.89648 30.4568 9.89648 31.6078C9.89648 32.455 10.0667 33.1814 11.3252 33.1426Z" fill="white"/>
<path d="M11.2306 33.5447C10.6751 33.5447 10.2612 33.4052 9.9681 33.1208C9.55217 32.7169 9.49609 32.1287 9.49609 31.6066C9.49609 30.2327 10.0262 29.6719 11.3254 29.6719C11.9616 29.6719 12.3936 29.8909 12.6079 30.3221C12.7821 30.6726 12.7814 31.0959 12.7808 31.5432C12.7808 32.4926 12.7808 33.4973 11.338 33.5427C11.3013 33.5441 11.2659 33.5447 11.2306 33.5447ZM11.3254 30.4723C10.5162 30.4723 10.2966 30.6139 10.2966 31.6066C10.2966 32.1093 10.3653 32.3897 10.5256 32.5453C10.6718 32.6868 10.9401 32.7489 11.3127 32.7416C11.9042 32.7236 11.9796 32.6588 11.9796 31.6066C11.9796 31.1914 11.9803 30.8602 11.8908 30.6793C11.8601 30.6172 11.788 30.4723 11.3254 30.4723Z" fill="black"/>
<path d="M52.6043 19.4079H23.6545C23.4335 19.4079 23.2539 19.2283 23.2539 19.0073C23.2539 18.7863 23.4335 18.6074 23.6545 18.6074H52.6043C52.8253 18.6074 53.0049 18.7863 53.0049 19.0073C53.0049 19.2283 52.8253 19.4079 52.6043 19.4079Z" fill="black"/>
<path d="M52.6043 21.9645H23.6545C23.4335 21.9645 23.2539 21.7849 23.2539 21.564C23.2539 21.343 23.4335 21.1641 23.6545 21.1641H52.6043C52.8253 21.1641 53.0049 21.343 53.0049 21.564C53.0049 21.7849 52.8253 21.9645 52.6043 21.9645Z" fill="black"/>
<path d="M52.6043 24.5231H23.6545C23.4335 24.5231 23.2539 24.3435 23.2539 24.1226C23.2539 23.9016 23.4335 23.7227 23.6545 23.7227H52.6043C52.8253 23.7227 53.0049 23.9016 53.0049 24.1226C53.0049 24.3435 52.8253 24.5231 52.6043 24.5231Z" fill="black"/>
<path d="M52.6043 27.0798H23.6545C23.4335 27.0798 23.2539 26.9002 23.2539 26.6792C23.2539 26.4582 23.4335 26.2793 23.6545 26.2793H52.6043C52.8253 26.2793 53.0049 26.4582 53.0049 26.6792C53.0049 26.9002 52.8253 27.0798 52.6043 27.0798Z" fill="black"/>
<path d="M52.6043 29.6364H23.6545C23.4335 29.6364 23.2539 29.4568 23.2539 29.2358C23.2539 29.0149 23.4335 28.8359 23.6545 28.8359H52.6043C52.8253 28.8359 53.0049 29.0149 53.0049 29.2358C53.0049 29.4568 52.8253 29.6364 52.6043 29.6364Z" fill="black"/>
<path d="M52.6043 32.1931H23.6545C23.4335 32.1931 23.2539 32.0135 23.2539 31.7925C23.2539 31.5715 23.4335 31.3926 23.6545 31.3926H52.6043C52.8253 31.3926 53.0049 31.5715 53.0049 31.7925C53.0049 32.0135 52.8253 32.1931 52.6043 32.1931Z" fill="black"/>
<path d="M52.6043 34.7497H23.6545C23.4335 34.7497 23.2539 34.5701 23.2539 34.3491C23.2539 34.1281 23.4335 33.9492 23.6545 33.9492H52.6043C52.8253 33.9492 53.0049 34.1281 53.0049 34.3491C53.0049 34.5701 52.8253 34.7497 52.6043 34.7497Z" fill="black"/>
<path d="M15.745 36.9609C13.3268 36.9609 11.3594 38.9284 11.3594 41.3465C11.3594 43.7653 13.3268 45.7334 15.745 45.7334C18.1631 45.7334 20.1305 43.7653 20.1305 41.3465C20.1305 38.9284 18.1631 36.9609 15.745 36.9609Z" fill="black"/>
<path d="M18.2226 41.3466C18.2226 42.7146 17.113 43.8228 15.7464 43.8228C14.3784 43.8228 13.2695 42.7146 13.2695 41.3466C13.2695 39.9787 14.3784 38.8711 15.7464 38.8711C17.113 38.8711 18.2226 39.9787 18.2226 41.3466Z" fill="white"/>
<path d="M44.6942 36.9609C42.2761 36.9609 40.3086 38.9284 40.3086 41.3465C40.3086 43.7653 42.2761 45.7334 44.6942 45.7334C47.1123 45.7334 49.0797 43.7653 49.0797 41.3465C49.0797 38.9284 47.1123 36.9609 44.6942 36.9609Z" fill="black"/>
<path d="M47.1699 41.3466C47.1699 42.7146 46.0603 43.8228 44.6937 43.8228C43.3257 43.8228 42.2168 42.7146 42.2168 41.3466C42.2168 39.9787 43.3257 38.8711 44.6937 38.8711C46.0603 38.8711 47.1699 39.9787 47.1699 41.3466Z" fill="white"/>
<path d="M20.9516 39.8252C20.788 39.8252 20.6345 39.7244 20.5757 39.5608C19.8447 37.5553 17.922 36.2067 15.7903 36.2067C13.9557 36.2067 12.2559 37.2035 11.352 38.8078C11.2171 39.0468 11.1003 39.3005 11.0055 39.5608C10.93 39.7698 10.699 39.8773 10.4921 39.8005C10.2838 39.7251 10.1769 39.4954 10.2531 39.2871C10.3625 38.9853 10.4981 38.6916 10.6543 38.4139C11.6998 36.5586 13.6672 35.4062 15.7903 35.4062C18.2571 35.4062 20.4829 36.9658 21.3275 39.2871C21.4036 39.4954 21.2968 39.7251 21.0885 39.8005C21.0437 39.8172 20.997 39.8252 20.9516 39.8252Z" fill="black"/>
</g>
</svg>
