<svg width="60" height="60" viewBox="0 0 60 60" fill="none" xmlns="http://www.w3.org/2000/svg">
<mask id="mask0_37_13989" style="mask-type:alpha" maskUnits="userSpaceOnUse" x="5" y="20" width="50" height="20">
<rect x="5.15625" y="20.6836" width="49" height="19.2611" fill="#D9D9D9"/>
</mask>
<g mask="url(#mask0_37_13989)">
<path d="M53.548 27.4309C53.4099 27.2392 53.1897 26.9324 53.1234 26.818L53.4363 26.0052C53.4539 25.9585 53.4634 25.909 53.4634 25.8596C53.4634 24.8714 49.9651 23.5737 43.0614 22.001C42.7004 21.9231 34.1562 20.1093 28.4703 20.8692C25.7482 21.2336 23.0417 22.6444 21.2516 23.5771C20.9245 23.7478 20.6238 23.9049 20.3522 24.0403C19.5448 24.4447 18.8635 24.8267 18.3162 25.1342C17.7032 25.4783 17.2142 25.7526 16.8979 25.8609C16.7381 25.8772 16.5871 25.8982 16.4306 25.9171H16.4286H16.4177C16.4096 25.9171 16.4035 25.9205 16.3954 25.9212C10.96 26.5741 7.71848 28.4103 7.59521 28.4828C6.33746 29.1343 5.15625 31.0206 5.15625 31.7893C5.15625 32.365 5.43056 33.2692 5.67303 34.0678L5.73873 34.2872C5.85048 34.6597 5.80375 34.7051 5.67913 34.827C5.61343 34.8914 5.53147 34.9713 5.46036 35.0831C5.17657 35.5335 5.2951 35.8924 5.39127 36.0665C5.99136 37.1549 9.25731 37.2396 10.2489 37.2396L10.916 37.2308C11.594 38.8245 13.1748 39.9454 15.013 39.9454C16.8932 39.9454 18.5004 38.7716 19.1513 37.1197L20.9685 37.0953H20.9699H20.9739L41.4806 36.819C42.0454 38.628 43.7353 39.9454 45.7279 39.9454C47.9556 39.9454 49.8005 38.2975 50.1222 36.1579L51.552 35.9283C51.7017 35.887 53.0265 35.5016 53.5013 34.6496C54.0039 33.74 54.1562 28.6291 54.1562 28.5803C54.1562 28.2904 53.9361 27.9714 53.548 27.4309ZM52.9297 27.9633L51.2411 27.2331L52.3573 27.0543C52.444 27.2758 52.6228 27.5366 52.8883 27.905C52.9005 27.9226 52.9161 27.9443 52.9297 27.9633ZM18.7145 25.8426C19.2536 25.5399 19.9261 25.1626 20.7159 24.7671C20.9902 24.6303 21.2957 24.4711 21.6269 24.2984C23.4711 23.3366 25.9968 22.0206 28.5773 21.6752C29.5066 21.5506 30.5218 21.4991 31.571 21.4991C32.2469 21.4991 32.9364 21.5215 33.6246 21.5587L33.5636 22.1784C32.528 22.1378 31.4626 22.1182 30.3898 22.1283H30.2767C29.2465 22.131 26.5122 22.1378 20.6238 25.4965C20.6055 25.5067 20.5892 25.5182 20.5743 25.5297L19.0897 26.2985C18.8255 26.228 18.5424 26.1637 18.2397 26.1081C18.388 26.0262 18.5445 25.9381 18.7145 25.8426ZM19.1743 27.1695C19.2847 27.202 19.3904 27.2352 19.4913 27.269C19.4906 27.286 19.4852 27.3015 19.4852 27.3185C19.4852 27.4871 19.5265 27.6463 19.5909 27.7967L18.258 27.901L18.1252 27.712L19.1743 27.1695ZM7.98534 29.1946C7.99549 29.1892 8.31315 29.0104 8.8936 28.7503C9.62779 28.5342 10.3938 28.39 10.8347 28.3744C10.1635 28.8648 8.39307 29.7317 6.6199 30.4957C6.98225 29.9864 7.46246 29.4662 7.98534 29.1946ZM15.013 38.0076C13.6259 38.0076 12.5009 36.884 12.5009 35.4955C12.5009 34.1084 13.6259 32.9841 15.013 32.9841C16.4001 32.9841 17.5251 34.1084 17.5251 35.4955C17.5251 36.884 16.4001 38.0076 15.013 38.0076ZM19.3857 36.3042C19.4337 36.0414 19.4629 35.7719 19.4629 35.4955C19.4629 33.0423 17.4669 31.0463 15.013 31.0463C12.5598 31.0463 10.5631 33.0423 10.5631 35.4955C10.5631 35.8132 10.5984 36.1227 10.662 36.4221L10.2441 36.4275C8.44387 36.4268 6.35101 36.1241 6.10244 35.6743C6.09702 35.6628 6.07738 35.6283 6.14782 35.5165C6.16746 35.4861 6.20471 35.4502 6.2467 35.4082C6.48376 35.1779 6.69711 34.8968 6.57316 34.2825H7.22269L7.2017 35.0844C7.19628 35.3086 7.37306 35.4949 7.59724 35.501H7.60808C7.82752 35.501 8.00836 35.3262 8.01446 35.1054L8.04629 33.8869C8.049 33.7772 8.00769 33.6716 7.93115 33.593C7.85394 33.5144 7.74963 33.4704 7.63991 33.4704H6.34153C6.15527 32.8453 5.96833 32.1693 5.96833 31.7893C5.96833 31.7521 5.98391 31.6938 6.0022 31.6329C6.00965 31.6302 6.01778 31.6315 6.02523 31.6281C7.66429 30.9563 11.512 29.2989 11.85 28.4333C11.9089 28.2843 11.9062 28.1272 11.8426 27.991C11.7945 27.8888 11.7105 27.8109 11.6089 27.7459C12.9188 27.3463 14.5552 26.9636 16.4604 26.7319C16.9989 26.7482 17.4994 26.8044 17.9572 26.8843L17.3389 27.204C17.2346 27.2582 17.1594 27.3544 17.1309 27.4688C17.1032 27.5826 17.1255 27.7025 17.1926 27.7987L17.7263 28.5579C17.8028 28.667 17.9268 28.7307 18.0588 28.7307C18.069 28.7307 18.0798 28.7307 18.0907 28.73L20.0454 28.5762C19.9417 29.0795 19.8449 29.6247 19.8449 29.9329C19.8449 30.4673 20.3413 34.7945 20.5147 36.2893L19.3857 36.3042ZM20.2973 27.3185C20.2973 26.9988 20.684 26.7292 21.1412 26.7292C21.5977 26.7292 21.9851 26.9988 21.9851 27.3185C21.9851 27.6375 21.5977 27.9071 21.1412 27.9071C20.684 27.9071 20.2973 27.6375 20.2973 27.3185ZM45.7279 38.0076C44.3415 38.0076 43.2151 36.884 43.2151 35.4955C43.2151 34.1084 44.3415 32.9841 45.7279 32.9841C47.1157 32.9841 48.24 34.1084 48.24 35.4955C48.24 36.884 47.1157 38.0076 45.7279 38.0076ZM52.7901 34.2554C52.528 34.7261 51.6509 35.0573 51.38 35.1352L50.1683 35.3296C50.0803 32.9536 48.1249 31.0463 45.7279 31.0463C43.2747 31.0463 41.2794 33.0423 41.2794 35.4955C41.2794 35.6696 41.2916 35.8403 41.3112 36.0089L33.0069 36.1207L33.1674 34.4857H32.3512L32.1894 36.1315L21.3315 36.2778C21.0457 33.8192 20.6576 30.3386 20.6576 29.9329C20.6576 29.687 20.7491 29.1831 20.8513 28.6948C20.9462 28.709 21.0417 28.7191 21.1412 28.7191C21.53 28.7191 21.8842 28.6006 22.1673 28.4096L24.0008 28.2653L23.9988 27.4499L22.7701 27.5467C22.7844 27.4722 22.7972 27.3964 22.7972 27.3185C22.7972 26.6446 22.2324 26.0811 21.4826 25.9476C26.8705 22.9512 29.4239 22.9431 30.2787 22.9411L30.3979 22.9404C31.04 22.9336 31.6726 22.9397 32.2957 22.9519L31.9164 24.8985H32.7447L33.1193 22.9736C33.2412 22.9777 33.3631 22.9817 33.4837 22.9865L33.2954 24.8985H34.1115L34.2964 23.0217C36.9515 23.1538 39.2848 23.4193 40.9475 23.6583L41.0613 26.1102L38.7124 26.2944L38.4232 27.1315L41.484 26.8911H41.486H41.5049C41.509 26.8911 41.5124 26.8884 41.5165 26.8884L43.6073 26.7238C44.1593 26.6331 45.2369 26.5382 46.2799 26.4461C49.4185 26.1691 49.5581 26.1203 49.705 25.8264C49.7687 25.6997 49.7612 25.5318 49.6881 25.4119C49.321 24.8152 46.1499 23.9232 43.545 23.2777C42.168 22.9716 38.5797 22.4297 34.3757 22.2164L34.4353 21.6102C38.7714 21.9211 42.8298 22.7833 42.886 22.7948C47.1665 23.7701 51.9916 25.1945 52.6188 25.8677L52.4874 26.2104L49.7342 26.6507C49.556 26.6791 49.4179 26.822 49.3948 27.0015C49.3725 27.181 49.4714 27.3537 49.6373 27.4248L53.334 29.0232C53.2852 30.4246 53.0597 33.7691 52.7901 34.2554ZM41.7671 23.7816C42.5284 23.9022 43.079 24.0065 43.3587 24.0688C45.1035 24.5016 47.0493 25.059 48.1466 25.4532C47.56 25.5169 46.8224 25.5819 46.2074 25.6367C45.1014 25.7343 44.057 25.8264 43.5098 25.9178L41.872 26.0465L41.7671 23.7816Z" fill="black"/>
<path d="M42.0581 27.3471C41.3699 27.4073 40.7942 27.6437 40.5159 27.9769C40.3391 28.1889 40.3167 28.3935 40.3289 28.5256C40.3405 28.6603 40.3987 28.8588 40.6087 29.0356C40.887 29.2692 41.3605 29.3986 41.9125 29.3986C42.0188 29.3986 42.1278 29.3939 42.2396 29.3837C43.3111 29.2882 44.0216 28.8019 43.9681 28.2018C43.9139 27.6031 43.1208 27.2536 42.0581 27.3471ZM42.1678 28.5743C41.6531 28.619 41.3266 28.5235 41.1891 28.4504C41.311 28.3549 41.6185 28.2018 42.1292 28.1564C42.6378 28.1117 42.9697 28.2072 43.1079 28.2797C42.9846 28.3759 42.6778 28.5289 42.1678 28.5743Z" fill="black"/>
<path d="M29.1314 28.9854H26.75V26.2559H25.3555V33.1298H26.75V30.1605H29.1314V33.1298H30.5267V26.2559H29.1314V28.9854Z" fill="black"/>
<path d="M34.2711 30.8784L32.7668 26.2559H31.2422L33.6432 33.1298H34.9084L37.3 26.2559H35.776L34.2711 30.8784Z" fill="black"/>
</g>
</svg>
