<svg width="60" height="60" viewBox="0 0 60 60" fill="none" xmlns="http://www.w3.org/2000/svg">
<mask id="mask0_37_14309" style="mask-type:alpha" maskUnits="userSpaceOnUse" x="1" y="17" width="58" height="28">
<rect x="1.5" y="17.6953" width="56.9609" height="26.723" fill="#D9D9D9"/>
</mask>
<g mask="url(#mask0_37_14309)">
<path d="M4.67821 27.764C5.58173 27.764 5.55643 27.2267 5.55643 25.7778C5.55643 24.6806 5.58173 23.791 4.67821 23.791C3.76868 23.791 3.48438 24.2897 3.48438 25.7778C3.48438 26.8738 3.62553 27.764 4.67821 27.764Z" fill="black"/>
<path d="M5.29747 28.2037C5.17896 28.2037 5.06177 28.1518 4.9832 28.0513L4.28675 27.1657C4.15025 26.9926 4.18021 26.7416 4.35399 26.6051C4.52711 26.4693 4.77879 26.4979 4.91529 26.6717L5.61174 27.5572C5.74824 27.731 5.71828 27.982 5.54449 28.1185C5.47125 28.1758 5.38403 28.2037 5.29747 28.2037Z" fill="black"/>
<path d="M13.7073 41.2417L3.52878 40.4074C3.50681 40.4061 3.4855 40.4027 3.46419 40.3974C2.78505 40.2276 1.5 39.5159 1.5 38.0357V35.6654C1.5 35.2832 1.67112 34.9263 1.96874 34.6866L2.60061 34.1799C2.59196 33.4515 2.59196 31.1764 2.91156 30.4486C3.24247 29.6989 4.09007 28.3752 5.22131 28.0203C5.83188 27.3565 9.67504 23.219 12.4955 21.1823C15.555 18.9731 18.9707 17.8991 23.2446 17.8005C24.1428 17.7806 32.2439 17.6754 39.9835 17.6987C55.8769 17.7506 56.026 18.2513 56.1585 18.6934C56.4788 19.7674 58.4609 28.0796 58.4609 29.4119C58.4609 39.0058 58.0954 39.4633 57.9576 39.6357C57.5228 40.1804 54.6264 40.4613 52.2727 40.6018L48.1273 41.237L13.7073 41.2417ZM3.63132 39.6144L13.7399 40.4447L48.0667 40.4427L52.1882 39.8088C54.3608 39.6777 56.8709 39.3873 57.325 39.1323C57.4842 38.643 57.6619 35.8431 57.6619 29.4119C57.6619 28.278 55.8489 20.5584 55.4294 19.0496C53.2981 18.2759 27.3341 18.509 23.2626 18.5995C19.1578 18.6934 15.8852 19.7201 12.9636 21.8301C10.0246 23.9528 5.77661 28.5963 5.734 28.6429C5.68074 28.7015 5.61149 28.7428 5.53425 28.7614C4.70663 28.9665 3.95025 30.0751 3.6433 30.7709C3.42491 31.2676 3.37963 33.2364 3.40227 34.3603C3.40493 34.4849 3.34967 34.6034 3.25313 34.6806L2.46878 35.3092C2.36092 35.3964 2.29833 35.5262 2.29833 35.6654V38.0357C2.29833 39.1736 3.4309 39.5558 3.63132 39.6144Z" fill="black"/>
<path d="M17.8767 40.0445C17.8767 42.3482 16.009 44.2159 13.7059 44.2159C11.4021 44.2159 9.53516 42.3482 9.53516 40.0445C9.53516 37.7407 11.4021 35.873 13.7059 35.873C16.009 35.873 17.8767 37.7407 17.8767 40.0445Z" fill="black"/>
<path d="M13.7071 44.4182C11.2955 44.4182 9.33398 42.456 9.33398 40.0437C9.33398 37.6321 11.2955 35.6699 13.7071 35.6699C16.1188 35.6699 18.0803 37.6321 18.0803 40.0437C18.0803 42.456 16.1188 44.4182 13.7071 44.4182ZM13.7071 36.0754C11.5192 36.0754 9.73947 37.8558 9.73947 40.0437C9.73947 42.2323 11.5192 44.0127 13.7071 44.0127C15.8951 44.0127 17.6748 42.2323 17.6748 40.0437C17.6748 37.8558 15.8951 36.0754 13.7071 36.0754Z" fill="black"/>
<path d="M16.1761 40.0431C16.1761 41.4074 15.0708 42.5127 13.7066 42.5127C12.3436 42.5127 11.2363 41.4074 11.2363 40.0431C11.2363 38.6788 12.3436 37.5742 13.7066 37.5742C15.0708 37.5742 16.1761 38.6788 16.1761 40.0431Z" fill="white"/>
<path d="M52.0524 40.0445C52.0524 42.3482 50.1848 44.2159 47.8817 44.2159C45.5779 44.2159 43.7109 42.3482 43.7109 40.0445C43.7109 37.7407 45.5779 35.873 47.8817 35.873C50.1848 35.873 52.0524 37.7407 52.0524 40.0445Z" fill="black"/>
<path d="M47.881 44.4182C45.4693 44.4182 43.5078 42.456 43.5078 40.0437C43.5078 37.6321 45.4693 35.6699 47.881 35.6699C50.2926 35.6699 52.2541 37.6321 52.2541 40.0437C52.2541 42.456 50.2926 44.4182 47.881 44.4182ZM47.881 36.0754C45.6931 36.0754 43.9133 37.8558 43.9133 40.0437C43.9133 42.2323 45.6931 44.0127 47.881 44.0127C50.0689 44.0127 51.8486 42.2323 51.8486 40.0437C51.8486 37.8558 50.0689 36.0754 47.881 36.0754Z" fill="black"/>
<path d="M50.3499 40.0431C50.3499 41.4074 49.2447 42.5127 47.8804 42.5127C46.5174 42.5127 45.4102 41.4074 45.4102 40.0431C45.4102 38.6788 46.5174 37.5742 47.8804 37.5742C49.2447 37.5742 50.3499 38.6788 50.3499 40.0431Z" fill="white"/>
<path d="M6.46386 40.2079C6.2468 40.2079 6.06836 40.0341 6.06437 39.8158C6.00844 36.8328 5.89991 29.8383 6.08967 29.335C6.11164 29.2784 6.14493 29.2278 6.18888 29.1858L17.0838 18.8455C17.2443 18.6944 17.4973 18.701 17.6491 18.8601C17.8003 19.0206 17.7943 19.2736 17.6338 19.4254L6.82807 29.6812C6.73352 30.4935 6.79744 36.2469 6.86336 39.8018C6.86736 40.0222 6.69224 40.2039 6.47119 40.2079H6.46386Z" fill="black"/>
<path d="M35.5636 39.1206C35.3432 39.1206 35.1641 38.9415 35.1641 38.7211V20.2797C35.1641 20.0593 35.3432 19.8809 35.5636 19.8809C35.7839 19.8809 35.9631 20.0593 35.9631 20.2797V38.7211C35.9631 38.9415 35.7839 39.1206 35.5636 39.1206Z" fill="black"/>
<path d="M44.4511 39.2534H17.0902C16.8698 39.2534 16.6914 39.0743 16.6914 38.8539C16.6914 38.6335 16.8698 38.4551 17.0902 38.4551H44.4511C44.6715 38.4551 44.8506 38.6335 44.8506 38.8539C44.8506 39.0743 44.6715 39.2534 44.4511 39.2534Z" fill="black"/>
<path d="M41.5518 39.1206C41.3315 39.1206 41.1523 38.9415 41.1523 38.7211V20.2797C41.1523 20.0593 41.3315 19.8809 41.5518 19.8809C41.7722 19.8809 41.9513 20.0593 41.9513 20.2797V38.7211C41.9513 38.9415 41.7722 39.1206 41.5518 39.1206Z" fill="black"/>
<path d="M51.0245 28.9803C50.8041 28.9803 50.625 28.8012 50.625 28.5808V22.3507C50.625 22.1303 50.8041 21.9512 51.0245 21.9512C51.2449 21.9512 51.424 22.1303 51.424 22.3507V28.5808C51.424 28.8012 51.2449 28.9803 51.0245 28.9803Z" fill="black"/>
<path d="M40.0323 28.9803C39.8119 28.9803 39.6328 28.8012 39.6328 28.5808V22.3507C39.6328 22.1303 39.8119 21.9512 40.0323 21.9512C40.2527 21.9512 40.4318 22.1303 40.4318 22.3507V28.5808C40.4318 28.8012 40.2527 28.9803 40.0323 28.9803Z" fill="black"/>
<path d="M33.7589 28.9803C33.5385 28.9803 33.3594 28.8012 33.3594 28.5808V22.3507C33.3594 22.1303 33.5385 21.9512 33.7589 21.9512C33.9793 21.9512 34.1584 22.1303 34.1584 22.3507V28.5808C34.1584 28.8012 33.9793 28.9803 33.7589 28.9803Z" fill="black"/>
<path d="M55.9978 20.6362H16.1254C15.905 20.6362 15.7266 20.4571 15.7266 20.2367C15.7266 20.0163 15.905 19.8379 16.1254 19.8379H55.9978C56.2182 19.8379 56.3973 20.0163 56.3973 20.2367C56.3973 20.4571 56.2182 20.6362 55.9978 20.6362Z" fill="black"/>
<path d="M57.8962 29.8687C57.7444 29.8687 57.5999 29.7815 57.5327 29.6344L53.3526 20.4579C53.2607 20.2568 53.3499 20.0205 53.5504 19.9286C53.7501 19.8374 53.9878 19.9253 54.0797 20.1263L58.2598 29.3028C58.3516 29.5039 58.2624 29.7409 58.062 29.8321C58.0081 29.8568 57.9521 29.8687 57.8962 29.8687Z" fill="black"/>
<path d="M57.8309 36.5425H56.121C55.386 36.5425 55.113 35.8541 55.0704 35.4892L55.0684 30.3044C55.0684 29.9375 55.2182 29.7205 55.3447 29.6033C55.609 29.3576 55.9406 29.3689 56.0065 29.3722L57.8309 29.3716C58.0506 29.3716 58.2297 29.5507 58.2297 29.7711C58.2297 29.9915 58.0506 30.1706 57.8309 30.1706H55.9772C55.9339 30.1672 55.8973 30.1786 55.8893 30.1885C55.8827 30.1939 55.8667 30.2272 55.8667 30.3044V35.4419C55.8707 35.4419 55.9233 35.7442 56.121 35.7442H57.8309C58.0506 35.7442 58.2297 35.9227 58.2297 36.143C58.2297 36.3634 58.0506 36.5425 57.8309 36.5425Z" fill="black"/>
<path d="M57.8314 31.6499H55.5935C55.3725 31.6499 55.1934 31.4708 55.1934 31.2504C55.1934 31.03 55.3725 30.8516 55.5935 30.8516H57.8314C58.0511 30.8516 58.2302 31.03 58.2302 31.2504C58.2302 31.4708 58.0511 31.6499 57.8314 31.6499Z" fill="black"/>
<path d="M57.8314 33.2046H55.5935C55.3725 33.2046 55.1934 33.0255 55.1934 32.8051C55.1934 32.5847 55.3725 32.4062 55.5935 32.4062H57.8314C58.0511 32.4062 58.2302 32.5847 58.2302 32.8051C58.2302 33.0255 58.0511 33.2046 57.8314 33.2046Z" fill="black"/>
<path d="M57.8314 34.7612H55.5935C55.3725 34.7612 55.1934 34.5821 55.1934 34.3617C55.1934 34.1413 55.3725 33.9629 55.5935 33.9629H57.8314C58.0511 33.9629 58.2302 34.1413 58.2302 34.3617C58.2302 34.5821 58.0511 34.7612 57.8314 34.7612Z" fill="black"/>
<path d="M16.0266 37.2346C15.9341 37.2346 15.8415 37.2027 15.7656 37.1381C15.5985 36.9943 15.5799 36.7419 15.7237 36.5748C17.7871 34.1785 20.0516 31.2595 20.1142 30.7209V20.2374C20.1142 20.017 20.2926 19.8379 20.513 19.8379C20.7334 19.8379 20.9125 20.017 20.9125 20.2374V30.7268C20.9225 31.6597 17.7105 35.4922 16.3296 37.0962C16.2504 37.188 16.1385 37.2346 16.0266 37.2346Z" fill="black"/>
<path d="M3.21673 32.7567C3.08822 32.7567 2.96171 32.6948 2.88448 32.5802C2.7613 32.3978 2.8099 32.1494 2.99301 32.0256C3.28531 31.8285 4.01306 31.3711 4.45383 31.3711H6.38341C6.60379 31.3711 6.78224 31.5502 6.78224 31.7706C6.78224 31.991 6.60379 32.1694 6.38341 32.1694H4.45383C4.31801 32.1761 3.83395 32.4231 3.43911 32.6888C3.37053 32.7347 3.2933 32.7567 3.21673 32.7567Z" fill="black"/>
<path d="M6.38116 34.6655H2.98477C2.76438 34.6655 2.58594 34.4864 2.58594 34.266C2.58594 34.0456 2.76438 33.8672 2.98477 33.8672H6.38116C6.60155 33.8672 6.78065 34.0456 6.78065 34.266C6.78065 34.4864 6.60155 34.6655 6.38116 34.6655Z" fill="black"/>
<path d="M4.3762 38.2266H2.05379C1.8334 38.2266 1.6543 38.0475 1.6543 37.8271C1.6543 37.6067 1.8334 37.4282 2.05379 37.4282H3.97671V36.2404H2.05379C1.8334 36.2404 1.6543 36.0613 1.6543 35.8409C1.6543 35.6205 1.8334 35.4414 2.05379 35.4414H4.3762C4.59659 35.4414 4.7757 35.6205 4.7757 35.8409V37.8271C4.7757 38.0475 4.59659 38.2266 4.3762 38.2266Z" fill="black"/>
<path d="M52.794 29.0701H25.3512C25.2826 29.0701 25.2154 29.0528 25.1555 29.0195C25.0156 28.941 21.7298 27.0407 21.4888 22.3712C21.4834 22.2614 21.5234 22.1542 21.5986 22.0749C21.6745 21.9957 21.7791 21.9511 21.8883 21.9511H51.2466C51.3119 21.9424 52.1861 21.8878 52.7501 22.4079C53.0403 22.6749 53.1928 23.0477 53.1928 23.4872V28.6713C53.1928 28.8917 53.0144 29.0701 52.794 29.0701ZM25.4624 28.2718H52.3945V23.4872C52.3945 23.2721 52.3339 23.1116 52.2114 22.9971C51.9484 22.7548 51.445 22.7381 51.2772 22.7481L22.3177 22.7494C22.6659 26.3243 24.977 27.9642 25.4624 28.2718Z" fill="black"/>
<path d="M6.46168 29.8753C6.26859 29.8759 6.0988 29.7355 6.06751 29.539C6.03289 29.3213 6.18137 29.1162 6.39909 29.0816L18.1063 27.2173C18.2395 26.3104 18.643 23.5959 18.7669 23.0732C18.8221 22.8401 18.7842 22.7449 18.7688 22.7409L14.0395 22.7456C13.8191 22.7456 13.64 22.5665 13.64 22.3461C13.64 22.1257 13.8191 21.9473 14.0395 21.9473H18.8294C18.9227 21.9539 19.2189 21.9932 19.424 22.2775C19.5998 22.5225 19.6411 22.8521 19.5445 23.2583C19.4333 23.7244 19.0445 26.3171 18.8547 27.6228C18.8294 27.7966 18.6949 27.9324 18.5225 27.9604L6.5256 29.8706C6.50363 29.874 6.48232 29.8753 6.46168 29.8753Z" fill="black"/>
<path d="M10.1437 28.9806H10.139C9.91862 28.9786 9.74151 28.7974 9.74417 28.5771L9.77347 25.9703C9.77546 25.7513 9.95457 25.5762 10.173 25.5762H10.1776C10.398 25.5782 10.5745 25.7593 10.5725 25.9797L10.5432 28.5857C10.5412 28.8048 10.3621 28.9806 10.1437 28.9806Z" fill="black"/>
<path d="M23.3293 30.8763H22.2593C21.8338 30.8763 21.4883 30.5314 21.4883 30.106V29.7098C21.4883 29.285 21.8338 28.9395 22.2593 28.9395H23.3293C23.7548 28.9395 24.0997 29.285 24.0997 29.7098V30.106C24.0997 30.5314 23.7548 30.8763 23.3293 30.8763ZM23.3013 29.7098L22.2593 29.7378L22.2873 30.106L23.3013 30.0787V29.7098Z" fill="black"/>
<path d="M17.6262 30.8763H16.5562C16.1307 30.8763 15.7852 30.5314 15.7852 30.106V29.7098C15.7852 29.285 16.1307 28.9395 16.5562 28.9395H17.6262C18.0516 28.9395 18.3965 29.285 18.3965 29.7098V30.106C18.3965 30.5314 18.0516 30.8763 17.6262 30.8763ZM17.5982 29.7098L16.5562 29.7378L16.5842 30.106L17.5982 30.0787V29.7098Z" fill="black"/>
<path d="M6.46413 29.8754C6.34561 29.8754 6.22842 29.8228 6.14852 29.7223L5.32423 28.6643C5.18906 28.4899 5.22036 28.2388 5.39414 28.103C5.56859 27.9692 5.81761 27.9991 5.95477 28.1723L6.77973 29.2303C6.91489 29.4047 6.8836 29.6557 6.70982 29.7915C6.63658 29.8481 6.55002 29.8754 6.46413 29.8754Z" fill="black"/>
</g>
</svg>
