<svg width="60" height="60" viewBox="0 0 60 60" fill="none" xmlns="http://www.w3.org/2000/svg">
<mask id="mask0_37_13960" style="mask-type:alpha" maskUnits="userSpaceOnUse" x="3" y="18" width="54" height="24">
<rect x="3" y="18.5195" width="53.9346" height="22.9597" fill="#D9D9D9"/>
</mask>
<g mask="url(#mask0_37_13960)">
<path d="M5.33212 38.1801C4.80026 38.1801 3.80387 37.499 3.40065 37.2057C3.314 37.1437 3.25602 37.0484 3.24003 36.9431C3.19004 36.6179 2.06101 28.9587 5.1735 27.615C5.84598 27.3244 7.07164 27.0025 8.15335 26.7186C8.90981 26.5193 9.69359 26.314 9.89287 26.2141C10.0482 26.1368 11.2045 25.4676 12.5428 24.6932C17.7547 21.678 20.6639 20.0204 21.1131 19.8971C24.8808 18.8581 38.757 17.6524 55.2311 19.4179C55.595 19.4566 55.9556 19.8931 56.0342 20.391C56.0782 20.6663 56.0802 21.3094 55.3098 21.7886C55.659 23.1709 56.3368 27.4844 56.3968 28.0829C56.4155 28.1282 56.4508 28.1902 56.4908 28.2642C56.6661 28.5921 56.9307 29.0866 56.9307 29.6385L56.932 29.8544C56.9733 35.8534 56.4708 36.4806 55.9516 36.6092L46.8787 37.6449C46.8667 37.6463 46.8534 37.6469 46.8401 37.6469L19.9241 38.0795C19.3436 38.0842 5.78666 38.1801 5.33212 38.1801ZM4.00648 36.6559C4.565 37.0451 5.1615 37.3737 5.33279 37.381C5.784 37.381 19.7735 37.281 19.9148 37.2804L46.8081 36.8478L55.7043 35.8361C55.8256 35.6275 56.1649 34.6178 56.1322 29.8604L56.1315 29.6385C56.1315 29.2872 55.9229 28.8987 55.7856 28.6421C55.6743 28.4348 55.6017 28.2975 55.6017 28.1415C55.5604 27.645 54.6839 22.2272 54.4693 21.754C54.4253 21.6567 54.422 21.546 54.4593 21.4467C54.4973 21.3467 54.5733 21.2668 54.6706 21.2234C54.9225 21.1108 55.2278 20.9155 55.2498 20.6276C55.2638 20.4357 55.1538 20.265 55.0918 20.2071C38.749 18.4595 25.0387 19.6445 21.3251 20.6676C20.8279 20.8235 15.6993 23.7914 12.9434 25.3856C11.2905 26.3427 10.4194 26.8452 10.2494 26.9292C9.98951 27.0598 9.39167 27.2198 8.35596 27.4917C7.35423 27.7556 6.10724 28.0829 5.49074 28.3488C3.42997 29.2392 3.70323 34.4918 4.00648 36.6559Z" fill="black"/>
<path d="M3.59325 31.6883C3.37264 31.6883 3.19336 31.509 3.19336 31.2884C3.19336 31.0845 3.34665 30.9158 3.5446 30.8918C3.82319 30.8505 7.00565 30.3253 7.32223 30.21C7.40421 30.1427 7.75344 29.7108 8.14667 29.201L4.19642 29.7988C3.98248 29.8321 3.77453 29.6815 3.74188 29.4636C3.70855 29.2456 3.85784 29.041 4.07712 29.0084L8.99577 28.2632C9.15839 28.2359 9.31502 28.3139 9.39833 28.4518C9.48164 28.5905 9.47364 28.7651 9.37833 28.8957C8.47525 30.1221 7.9014 30.8065 7.67213 30.9278C7.34222 31.1045 3.61991 31.6883 3.59325 31.6883Z" fill="black"/>
<path d="M5.29099 37.7117C5.07238 37.7117 4.89376 37.5358 4.8911 37.3172L4.81645 31.1982C4.81312 30.9769 4.9904 30.7956 5.21101 30.793H5.21634C5.43495 30.793 5.6129 30.9689 5.61557 31.1875L5.69088 37.3072C5.69355 37.5285 5.51693 37.7091 5.29632 37.7117H5.29099Z" fill="black"/>
<path d="M44.2428 26.4004C44.0528 26.4004 43.8842 26.2637 43.8495 26.0698L42.8851 20.6353C42.8465 20.4173 42.9918 20.2101 43.209 20.1714C43.423 20.1361 43.6343 20.278 43.6729 20.496L44.6373 25.9305C44.6753 26.1478 44.5307 26.3557 44.3127 26.3937C44.2894 26.3977 44.2661 26.4004 44.2428 26.4004Z" fill="black"/>
<path d="M42.5214 26.1641C42.3308 26.1641 42.1615 26.0275 42.1282 25.8329L41.2304 20.635C41.1931 20.417 41.3391 20.2097 41.5563 20.1731C41.777 20.1311 41.9809 20.281 42.0182 20.4983L42.916 25.6962C42.9533 25.9142 42.808 26.1214 42.5907 26.1581C42.5667 26.1628 42.5441 26.1641 42.5214 26.1641Z" fill="black"/>
<path d="M27.2282 26.5345H27.2142C26.9936 26.5265 26.821 26.3419 26.8283 26.1213L27.001 21.1167C27.0083 20.8954 27.2009 20.7221 27.4142 20.7308C27.6348 20.7388 27.8081 20.9234 27.8001 21.144L27.6281 26.1486C27.6208 26.3646 27.4428 26.5345 27.2282 26.5345Z" fill="black"/>
<path d="M18.8686 26.8406C18.648 26.8406 18.4688 26.6613 18.4688 26.4407V23.3742C18.4688 23.2349 18.5414 23.1056 18.6607 23.0329L21.122 21.528C21.154 21.508 21.1893 21.4934 21.226 21.4834C26.5132 20.0584 43.3733 19.268 54.9474 21.1355C55.1654 21.1714 55.314 21.3767 55.2787 21.5947C55.2427 21.8126 55.0314 21.9559 54.8195 21.9259C43.3839 20.0784 26.7711 20.8429 21.4899 22.2412L19.2685 23.5988V26.4407C19.2685 26.6613 19.0892 26.8406 18.8686 26.8406Z" fill="black"/>
<path d="M10.0718 26.9714C9.85456 26.9714 9.67661 26.7981 9.67194 26.5802C9.66794 26.3589 9.84256 26.177 10.0632 26.1723L52.065 25.3105H52.0737C52.2909 25.3105 52.4682 25.4838 52.4729 25.7018C52.4776 25.923 52.3023 26.105 52.0817 26.1097L10.0805 26.9714H10.0718Z" fill="black"/>
<path d="M43.0885 35.3469C43.0705 35.3469 43.0518 35.3463 43.0338 35.3436C42.8152 35.3136 42.6612 35.1117 42.6912 34.893L43.8929 26.0828C43.9229 25.8635 44.1268 25.7096 44.3434 25.7402C44.5621 25.7702 44.7153 25.9722 44.6854 26.1908L43.4844 35.001C43.457 35.2016 43.2851 35.3469 43.0885 35.3469Z" fill="black"/>
<path d="M21.3293 22.2697C21.266 22.2697 21.2027 22.2544 21.1427 22.223L19.5644 21.3866C19.3692 21.2833 19.2945 21.0407 19.3985 20.8454C19.5011 20.6501 19.7424 20.5761 19.939 20.6795L21.5172 21.5159C21.7125 21.6192 21.7872 21.8618 21.6832 22.0571C21.6119 22.1924 21.4733 22.2697 21.3293 22.2697Z" fill="black"/>
<path d="M13.2895 26.9052C13.1495 26.9052 13.0136 26.8312 12.9402 26.7006C12.8316 26.508 12.9003 26.2641 13.0929 26.1561L18.6727 23.0256C18.8653 22.9176 19.1092 22.987 19.2179 23.1782C19.3258 23.3709 19.2572 23.6148 19.0646 23.7234L13.4848 26.8539C13.4228 26.8886 13.3555 26.9052 13.2895 26.9052Z" fill="black"/>
<path d="M52.8873 27.3774C52.5521 27.3774 52.2721 27.2594 52.0649 27.0362C51.623 26.5603 51.6676 25.7679 51.6743 25.6792C51.677 25.6479 51.6823 25.6172 51.6916 25.5872C51.723 25.4899 52.0069 24.6228 52.4028 24.2209C52.8273 23.7917 54.3809 23.7231 55.2227 23.7357C55.4433 23.7364 55.6219 23.9164 55.6212 24.137C55.6205 24.3576 55.4413 24.5349 55.2213 24.5349C55.2073 24.5302 55.1947 24.5349 55.1807 24.5349C54.1783 24.5349 53.1479 24.6535 52.9633 24.7908C52.784 24.9734 52.5727 25.4753 52.4701 25.7812C52.4654 25.9705 52.5021 26.333 52.6514 26.493C52.6887 26.5323 52.7473 26.5783 52.876 26.5783L55.5766 26.5003C55.7852 26.4903 55.9818 26.6676 55.9878 26.8882C55.9944 27.1088 55.8205 27.2928 55.5999 27.2994L52.8873 27.3774Z" fill="black"/>
<path d="M28.318 37.7123H28.3073C28.0867 37.7063 27.9128 37.523 27.9181 37.3024L28.3353 21.0435C28.3406 20.8262 28.5193 20.6543 28.7352 20.6543H28.7459C28.9665 20.6603 29.1404 20.8436 29.1351 21.0642L28.7179 37.3231C28.7125 37.5403 28.5339 37.7123 28.318 37.7123Z" fill="black"/>
<path d="M25.9186 29.4438C25.2401 29.4438 24.6549 29.2638 24.3543 28.9626C24.1624 28.7713 24.1224 28.572 24.1231 28.4387C24.1224 28.3081 24.1624 28.1088 24.3537 27.9162C24.6549 27.6136 25.2401 27.4316 25.9179 27.4316H25.9219C26.9769 27.4316 27.7161 27.8429 27.7181 28.4334C27.7187 28.6253 27.6348 28.9845 27.0696 29.2311C26.7563 29.3671 26.3491 29.4431 25.9219 29.4438H25.9186ZM24.9722 28.4387C25.1001 28.522 25.4147 28.644 25.9179 28.644H25.9206C26.4251 28.6426 26.739 28.52 26.8676 28.4367C26.7383 28.3534 26.4238 28.2308 25.9219 28.2308H25.9192C25.4147 28.2314 25.1001 28.3554 24.9722 28.4387Z" fill="black"/>
<path d="M31.1282 29.4438C30.7023 29.4438 30.2951 29.3698 29.9832 29.2351C29.4167 28.9905 29.332 28.6313 29.332 28.4394C29.3314 28.3081 29.3714 28.1088 29.5626 27.9162C29.8639 27.6136 30.4491 27.4316 31.1275 27.4316H31.1315C32.1873 27.4316 32.9257 27.8429 32.9271 28.4334C32.9277 28.5667 32.8877 28.7659 32.6964 28.9586C32.3959 29.2611 31.8107 29.4431 31.1315 29.4438H31.1282ZM30.1811 28.4387C30.3091 28.522 30.6244 28.6446 31.1275 28.6446H31.1302C31.6347 28.6433 31.9487 28.52 32.0773 28.4367C31.948 28.3534 31.6334 28.2308 31.1315 28.2308H31.1289C30.6244 28.2314 30.3098 28.3554 30.1811 28.4387Z" fill="black"/>
<path d="M16.2515 36.093C16.0308 36.093 15.8516 35.9138 15.8516 35.6932V26.5483C15.8516 26.3277 16.0308 26.1484 16.2515 26.1484C16.4721 26.1484 16.6513 26.3277 16.6513 26.5483V35.6932C16.6513 35.9138 16.4721 36.093 16.2515 36.093Z" fill="black"/>
<path d="M16.7872 37.1013C16.7872 39.4073 14.9177 41.2768 12.6124 41.2768C10.3063 41.2768 8.4375 39.4073 8.4375 37.1013C8.4375 34.7953 10.3063 32.9258 12.6124 32.9258C14.9177 32.9258 16.7872 34.7953 16.7872 37.1013Z" fill="black"/>
<path d="M12.6125 41.4796C10.1985 41.4796 8.23438 39.5155 8.23438 37.1008C8.23438 34.6868 10.1985 32.7227 12.6125 32.7227C15.0265 32.7227 16.99 34.6868 16.99 37.1008C16.99 39.5155 15.0265 41.4796 12.6125 41.4796ZM12.6125 33.1285C10.4224 33.1285 8.64026 34.9107 8.64026 37.1008C8.64026 39.2915 10.4224 41.0737 12.6125 41.0737C14.8026 41.0737 16.5841 39.2915 16.5841 37.1008C16.5841 34.9107 14.8026 33.1285 12.6125 33.1285Z" fill="black"/>
<path d="M15.0853 37.1002C15.0853 38.4659 13.9789 39.5722 12.6133 39.5722C11.249 39.5722 10.1406 38.4659 10.1406 37.1002C10.1406 35.7346 11.249 34.6289 12.6133 34.6289C13.9789 34.6289 15.0853 35.7346 15.0853 37.1002Z" fill="white"/>
<path d="M50.4474 37.1013C50.4474 39.4073 48.5779 41.2768 46.2725 41.2768C43.9665 41.2768 42.0977 39.4073 42.0977 37.1013C42.0977 34.7953 43.9665 32.9258 46.2725 32.9258C48.5779 32.9258 50.4474 34.7953 50.4474 37.1013Z" fill="black"/>
<path d="M46.272 41.4796C43.858 41.4796 41.8945 39.5155 41.8945 37.1008C41.8945 34.6868 43.858 32.7227 46.272 32.7227C48.686 32.7227 50.6495 34.6868 50.6495 37.1008C50.6495 39.5155 48.686 41.4796 46.272 41.4796ZM46.272 33.1285C44.0819 33.1285 42.3004 34.9107 42.3004 37.1008C42.3004 39.2915 44.0819 41.0737 46.272 41.0737C48.4621 41.0737 50.2436 39.2915 50.2436 37.1008C50.2436 34.9107 48.4621 33.1285 46.272 33.1285Z" fill="black"/>
<path d="M48.7415 37.1002C48.7415 38.4659 47.6352 39.5722 46.2695 39.5722C44.9052 39.5722 43.7969 38.4659 43.7969 37.1002C43.7969 35.7346 44.9052 34.6289 46.2695 34.6289C47.6352 34.6289 48.7415 35.7346 48.7415 37.1002Z" fill="white"/>
<path d="M17.0132 25.1257C17.0132 25.1257 17.617 24.8164 18.1969 24.8164C18.778 24.8164 18.9333 25.203 18.9333 25.2963V26.442C18.9333 26.442 18.9153 26.6286 18.4688 26.7199C18.0189 26.8125 16.372 26.9372 16.3334 26.5499C16.2947 26.1634 16.3141 25.7362 16.476 25.5115C16.64 25.2889 17.0132 25.1257 17.0132 25.1257Z" fill="white"/>
<path d="M17.3057 27.2139C16.8618 27.2139 16.4126 27.1626 16.1727 26.9866C16.0367 26.8873 15.9527 26.746 15.9374 26.5894C15.8961 26.1835 15.9008 25.627 16.154 25.2764C16.3626 24.9912 16.7452 24.8072 16.8445 24.7633C16.9425 24.7153 17.5703 24.416 18.1981 24.416C19.0012 24.416 19.3345 24.9885 19.3345 25.2958V26.4421C19.3225 26.5921 19.2345 26.9706 18.5514 27.1106C18.5414 27.1126 17.9282 27.2139 17.3057 27.2139ZM16.7219 26.3681C17.0511 26.4508 17.9815 26.4128 18.3894 26.3275C18.4574 26.3135 18.5047 26.2988 18.5367 26.2855L18.5354 25.3058C18.526 25.3358 18.4574 25.2151 18.1981 25.2151C17.7283 25.2151 17.2031 25.4777 17.1977 25.4811L17.1757 25.4917C17.0638 25.541 16.8672 25.6563 16.8012 25.7477C16.7479 25.821 16.7039 26.0422 16.7219 26.3681Z" fill="black"/>
</g>
</svg>
