<svg width="60" height="60" viewBox="0 0 60 60" fill="none" xmlns="http://www.w3.org/2000/svg">
<mask id="mask0_37_14527" style="mask-type:alpha" maskUnits="userSpaceOnUse" x="7" y="20" width="46" height="23">
<rect x="7" y="20.2266" width="45.0196" height="22" fill="#D9D9D9"/>
</mask>
<g mask="url(#mask0_37_14527)">
<path d="M48.9983 38.5763H8.74889C7.78379 38.5763 7 37.7917 7 36.8274V32.3364C7 29.8776 8.83554 27.7669 11.2687 27.4251L17.0529 26.6116L21.2318 22.367C22.4986 21.0096 24.302 20.2266 26.1704 20.2266H45.454C46.8796 20.2266 48.1784 21.0096 48.8435 22.2715L51.1989 26.4961C51.5583 27.1764 51.7588 27.9297 51.7837 28.6846L52.0172 35.4508C52.0468 36.2771 51.7452 37.0593 51.1708 37.6537C50.5964 38.249 49.8254 38.5763 48.9983 38.5763ZM26.1704 21.1885C24.5676 21.1885 23.0208 21.8607 21.9266 23.0328L17.6249 27.4026C17.5503 27.4781 17.4532 27.527 17.349 27.5414L11.4027 28.3782C9.44043 28.6541 7.96189 30.3557 7.96189 32.3364V36.8274C7.96189 37.2606 8.31488 37.6144 8.74889 37.6144H48.9983C49.5615 37.6144 50.087 37.3906 50.4793 36.9855C50.8699 36.5811 51.0745 36.0468 51.0553 35.4837L50.8226 28.7175C50.8002 28.107 50.6389 27.4973 50.3525 26.9542L47.9963 22.7296C47.4933 21.7749 46.5218 21.1885 45.454 21.1885H26.1704Z" fill="black"/>
<path d="M19.2402 37.6667C19.2402 40.0494 17.3092 41.9796 14.9265 41.9796C12.5462 41.9796 10.6152 40.0486 10.6152 37.6667C10.6152 35.2857 12.5462 33.3555 14.9265 33.3555C17.3092 33.3555 19.2402 35.2857 19.2402 37.6667Z" fill="black"/>
<path d="M14.9286 42.2272C12.4152 42.2272 10.3711 40.1823 10.3711 37.6689C10.3711 35.1562 12.4152 33.1113 14.9286 33.1113C17.4429 33.1113 19.4886 35.1562 19.4886 37.6689C19.4886 40.1823 17.4429 42.2272 14.9286 42.2272ZM14.9286 33.6031C12.6872 33.6031 10.8637 35.4266 10.8637 37.6689C10.8637 39.9112 12.6872 41.7355 14.9286 41.7355C17.1717 41.7355 18.996 39.9112 18.996 37.6689C18.996 35.4266 17.1717 33.6031 14.9286 33.6031Z" fill="black"/>
<path d="M17.4793 37.668C17.4793 39.0783 16.3361 40.2215 14.9266 40.2215C13.5162 40.2215 12.373 39.0783 12.373 37.668C12.373 36.2568 13.5162 35.1152 14.9266 35.1152C16.3361 35.1152 17.4793 36.2568 17.4793 37.668Z" fill="white"/>
<path d="M47.7636 37.6667C47.7636 40.0494 45.8326 41.9796 43.4499 41.9796C41.0697 41.9796 39.1387 40.0486 39.1387 37.6667C39.1387 35.2857 41.0697 33.3555 43.4499 33.3555C45.8326 33.3555 47.7636 35.2857 47.7636 37.6667Z" fill="black"/>
<path d="M43.4548 42.2272C40.9406 42.2272 38.8965 40.1823 38.8965 37.6689C38.8965 35.1562 40.9406 33.1113 43.4548 33.1113C45.9683 33.1113 48.014 35.1562 48.014 37.6689C48.014 40.1823 45.9683 42.2272 43.4548 42.2272ZM43.4548 33.6031C41.2126 33.6031 39.3891 35.4266 39.3891 37.6689C39.3891 39.9112 41.2126 41.7355 43.4548 41.7355C45.6971 41.7355 47.5222 39.9112 47.5222 37.6689C47.5222 35.4266 45.6971 33.6031 43.4548 33.6031Z" fill="black"/>
<path d="M46.0028 37.668C46.0028 39.0783 44.8596 40.2215 43.45 40.2215C42.0397 40.2215 40.8965 39.0783 40.8965 37.668C40.8965 36.2568 42.0397 35.1152 43.45 35.1152C44.8596 35.1152 46.0028 36.2568 46.0028 37.668Z" fill="white"/>
<path d="M19.8814 28.0431C19.7643 28.0431 19.6488 28.0014 19.5565 27.9172C19.3607 27.7367 19.3471 27.4326 19.5268 27.2369L24.1076 22.2453C24.2873 22.0496 24.5922 22.0375 24.7871 22.2156C24.9829 22.3961 24.9965 22.7002 24.8168 22.8959L20.236 27.8875C20.1413 27.991 20.0114 28.0431 19.8814 28.0431Z" fill="black"/>
<path d="M48.4194 23.0517H22.0665C21.8009 23.0517 21.5859 22.8359 21.5859 22.5704C21.5859 22.3048 21.8009 22.0898 22.0665 22.0898H48.4194C48.685 22.0898 48.9008 22.3048 48.9008 22.5704C48.9008 22.8359 48.685 23.0517 48.4194 23.0517Z" fill="black"/>
<path d="M18.2919 36.6592C18.0288 36.6592 17.813 36.4474 17.8106 36.1834C17.8074 35.9171 18.0208 35.6997 18.2863 35.6973L39.4222 35.4727H39.4279C39.691 35.4727 39.906 35.6844 39.9084 35.9484C39.9116 36.2147 39.699 36.4329 39.4335 36.4354L18.2975 36.6592H18.2919Z" fill="black"/>
<path d="M34.1408 36.4304C34.1255 36.4304 34.1111 36.4304 34.0958 36.4288C33.8311 36.4047 33.6361 36.1704 33.6602 35.9057L34.8828 22.5515C34.9069 22.2868 35.1484 22.0878 35.4059 22.1159C35.6706 22.1408 35.8656 22.3742 35.8415 22.6398L34.6197 35.9932C34.5964 36.2435 34.387 36.4304 34.1408 36.4304Z" fill="black"/>
<path d="M43.7565 31.9494C42.6879 31.9494 41.9121 31.4656 41.9121 30.7974C41.9121 30.1291 42.6879 29.6445 43.7565 29.6445C44.8251 29.6445 45.6008 30.1291 45.6008 30.7974C45.6008 31.4656 44.8251 31.9494 43.7565 31.9494ZM42.9286 30.7974C43.0505 30.876 43.3273 30.9875 43.7565 30.9875C44.1865 30.9875 44.4632 30.876 44.5844 30.7974C44.4632 30.7179 44.1857 30.6064 43.7565 30.6064C43.3281 30.6064 43.0505 30.7179 42.9286 30.7974Z" fill="black"/>
<path d="M31.6546 32.0752C30.5852 32.0752 29.8086 31.5906 29.8086 30.9224C29.8086 30.2541 30.5852 29.7695 31.6546 29.7695C32.7231 29.7695 33.4989 30.2541 33.4989 30.9224C33.4989 31.5906 32.7231 32.0752 31.6546 32.0752ZM30.825 30.9224C30.9462 31.001 31.2246 31.1133 31.6546 31.1133C32.0838 31.1133 32.3613 31.001 32.4833 30.9224C32.3613 30.8429 32.0846 30.7314 31.6546 30.7314C31.2238 30.7314 30.9462 30.8429 30.825 30.9224Z" fill="black"/>
<path d="M19.2392 29.3421C18.9753 29.3421 18.7603 29.1295 18.7578 28.8655C18.7546 28.6 18.9688 28.3826 19.2344 28.3802L47.1469 28.1074C47.3851 28.1211 47.6306 28.3192 47.633 28.584C47.6354 28.8495 47.422 29.0669 47.1565 29.0693L19.244 29.3421H19.2392Z" fill="black"/>
<path d="M33.0782 29.0911C33.0613 29.0911 33.0437 29.0903 33.0276 29.0887C32.7621 29.0606 32.5704 28.8239 32.5984 28.56L33.2322 22.5464C33.2603 22.2808 33.5114 22.0899 33.7617 22.118C34.0264 22.1461 34.2182 22.3827 34.1901 22.6467L33.5563 28.6603C33.5298 28.9074 33.3213 29.0911 33.0782 29.0911Z" fill="black"/>
<path d="M47.1555 29.0678C46.89 29.0678 46.6734 28.8512 46.6742 28.5857C46.6758 27.2515 46.3172 23.6559 44.6525 23.0478C44.403 22.9571 44.2739 22.6803 44.3653 22.4308C44.4576 22.1813 44.732 22.0498 44.9831 22.1436C47.62 23.1055 47.6377 28.3642 47.6369 28.5881C47.6369 28.8528 47.4211 29.0678 47.1555 29.0678Z" fill="black"/>
<path d="M44.9481 29.0692C44.6826 29.0692 44.4668 28.8533 44.4668 28.5878V23.0868C44.4668 22.8213 44.6826 22.6055 44.9481 22.6055C45.2137 22.6055 45.4295 22.8213 45.4295 23.0868V28.5878C45.4295 28.8533 45.2137 29.0692 44.9481 29.0692Z" fill="black"/>
<path d="M18.78 29.5876L20.5803 29.8531C21.0351 29.8708 21.4178 29.517 21.4355 29.0629L21.4996 27.6317C21.5173 27.1777 21.1643 26.795 20.7094 26.7773L18.8161 26.9819C18.3396 27.0501 17.9786 27.3173 17.9609 27.7721L17.9898 28.7324C17.9722 29.1865 18.3252 29.4889 18.78 29.5876Z" fill="white"/>
<path d="M20.6148 30.3349C20.5972 30.3349 20.5795 30.3349 20.5619 30.3341L18.7103 30.0646C18.6999 30.063 18.6886 30.0606 18.679 30.0581C17.9426 29.8993 17.4829 29.3706 17.5093 28.7144L17.4805 27.7878C17.5069 27.0914 17.9915 26.6141 18.748 26.5058L20.6582 26.2988C21.0777 26.3109 21.3994 26.4585 21.6353 26.7152C21.872 26.9703 21.9947 27.3032 21.9811 27.6514L21.9169 29.0858C21.9024 29.4316 21.7548 29.7533 21.4981 29.9892C21.2558 30.2138 20.9438 30.3349 20.6148 30.3349ZM18.8684 29.1139L20.6517 29.377C20.6911 29.3762 20.7785 29.3441 20.8451 29.2824C20.9125 29.2206 20.951 29.1356 20.955 29.0449L21.0192 27.6105C21.0232 27.5223 20.9911 27.4348 20.9285 27.3682C20.8667 27.3008 20.7825 27.2623 20.6911 27.2583L18.8676 27.4605C18.687 27.487 18.4504 27.5672 18.4424 27.7918L18.4712 28.7184C18.4616 28.9896 18.7352 29.0834 18.8684 29.1139Z" fill="black"/>
<path d="M7.93172 33.3546C7.85631 33.3546 7.78732 33.3514 7.72394 33.3458C7.4592 33.3209 7.26506 33.0867 7.28913 32.8219C7.314 32.5572 7.5643 32.3646 7.81139 32.3871C7.88118 32.3935 9.32282 32.4874 9.97103 31.0498C10.547 29.7702 9.51937 29.2126 9.39983 29.1533C9.16156 29.0337 9.0653 28.7449 9.18403 28.5074C9.30276 28.2676 9.59237 28.1729 9.82903 28.2908C10.519 28.635 11.618 29.7365 10.8487 31.4445C10.1612 32.9695 8.7436 33.3546 7.93172 33.3546Z" fill="black"/>
</g>
</svg>
