<svg width="60" height="60" viewBox="0 0 60 60" fill="none" xmlns="http://www.w3.org/2000/svg">
<mask id="mask0_2_543" style="mask-type:alpha" maskUnits="userSpaceOnUse" x="2" y="18" width="57" height="25">
<path d="M58.6338 18.7266H2V42.1654H58.6338V18.7266Z" fill="white"/>
</mask>
<g mask="url(#mask0_2_543)">
<path d="M16.7888 33.1995L12.4574 32.3691L8.79449 33.1995L6.67773 37.7113H12.7943L18.4774 38.1674L16.7888 33.1995Z" fill="black"/>
<path d="M50.5031 32.5384L46.1051 32.3613L43.756 33.1996L41.8477 37.812L47.7558 37.7108L52.3043 36.8645L50.5031 32.5384Z" fill="black"/>
<path d="M12.7635 32.6348C10.1374 32.6348 8 34.7728 8 37.4003C8 40.0278 10.1374 42.1652 12.7635 42.1652C15.3917 42.1652 17.5297 40.0278 17.5297 37.4003C17.5297 34.7728 15.3917 32.6348 12.7635 32.6348Z" fill="black"/>
<path d="M12.7655 40.2934C11.1694 40.2934 9.875 38.9977 9.875 37.4003C9.875 35.8029 11.1694 34.5078 12.7655 34.5078C14.3642 34.5078 15.6593 35.8029 15.6593 37.4003C15.6593 38.9977 14.3642 40.2934 12.7655 40.2934Z" fill="white"/>
<path d="M47.5389 32.6348C44.9128 32.6348 42.7754 34.7728 42.7754 37.4003C42.7754 40.0278 44.9128 42.1652 47.5389 42.1652C50.1657 42.1652 52.3038 40.0278 52.3038 37.4003C52.3038 34.7728 50.1657 32.6348 47.5389 32.6348Z" fill="black"/>
<path d="M47.5402 40.2948C45.9429 40.2948 44.6484 38.9991 44.6484 37.4017C44.6484 35.8043 45.9429 34.5099 47.5402 34.5099C49.139 34.5099 50.4321 35.8043 50.4321 37.4017C50.4321 38.9991 49.139 40.2948 47.5402 40.2948Z" fill="white"/>
<path d="M18.4316 38.1718C18.2478 38.1718 18.0867 38.046 18.0434 37.8669C17.57 35.9232 16.7723 33.664 16.3102 33.4036C14.9465 32.6379 9.46648 32.835 8.9804 33.6693C8.30589 34.8219 7.79518 37.2843 7.78985 37.3089C7.76255 37.4421 7.66933 37.5526 7.54215 37.6012C6.76909 37.8988 4.39664 37.5413 3.92921 37.4674C3.82733 37.4514 3.73611 37.3961 3.67352 37.3136C3.09889 36.5545 2.12074 35.2274 2.03085 34.8732C1.96959 34.6242 2.00355 33.9769 2.09744 32.7072C2.12008 32.4009 2.13872 32.1585 2.13872 32.0786C2.13872 31.723 3.16614 28.5376 4.51916 27.9083C6.98083 26.7664 11.6225 26.5047 14.6941 26.3316C16.0678 26.2543 17.4894 26.1738 17.7391 26.0493C17.825 25.9927 18.0214 25.8355 18.3037 25.6131C20.1708 24.1376 25.8539 19.6484 30.7353 19.1863C36.7952 18.6776 51.3256 18.4838 52.7312 19.1696C53.3651 19.4799 54.4524 21.0354 56.2549 24.2115L56.4041 24.4732C57.2224 25.8901 57.7078 30.6403 57.791 31.5113C57.9375 31.6797 58.2338 32.0286 58.4343 32.315C58.7106 32.7118 58.6833 34.6408 58.4522 35.1921C58.1686 35.8666 57.7251 36.2002 56.6944 36.5132C55.6683 36.8268 52.4748 36.8841 52.339 36.8861C52.1699 36.908 52.0014 36.7729 51.9501 36.6018C51.3629 34.6488 50.5132 32.855 50.131 32.7638C47.2146 32.7171 44.9273 32.9928 44.4146 33.0607C44.1083 33.3291 42.8452 34.5869 42.2599 37.496C42.2226 37.6804 42.0622 37.8136 41.8744 37.8163L18.4376 38.1718H18.4316ZM12.9349 32.1385C14.5237 32.1385 16.0558 32.3449 16.7017 32.7072C17.5946 33.2099 18.4169 36.0944 18.7425 37.3682L41.5441 37.0226C42.3105 33.6174 43.9439 32.4069 44.0158 32.3556C44.0677 32.319 44.1277 32.2937 44.1909 32.285C44.2941 32.2697 46.7651 31.9108 50.1477 31.9661C51.1678 31.9661 52.1073 34.4211 52.6253 36.0811C53.6807 36.0538 55.7715 35.9599 56.4607 35.7488C57.4128 35.4591 57.57 35.2288 57.7158 34.8832C57.8843 34.4817 57.847 32.9788 57.7551 32.7291C57.5367 32.4268 57.1119 31.9474 57.1072 31.9428C57.0506 31.8782 57.0153 31.7976 57.0073 31.7124C56.8708 30.1975 56.3721 26.016 55.7122 24.8727L55.5604 24.6057C53.3984 20.797 52.6393 20.0146 52.3796 19.8881C51.3162 19.368 37.4045 19.4293 30.8065 19.982C26.1642 20.4214 20.6202 24.8008 18.7985 26.2404C18.4908 26.4834 18.2758 26.6519 18.1712 26.7211C17.8476 26.9368 17.0672 26.9981 14.7387 27.1299C11.7284 27.2991 7.17793 27.5554 4.85608 28.6328C3.97915 29.0409 3.00101 31.6491 2.93708 32.0952C2.93509 32.1958 2.91777 32.4495 2.89447 32.7658C2.85652 33.2771 2.76796 34.4737 2.80724 34.6848C2.87716 34.8665 3.57364 35.8513 4.21287 36.7023C5.16038 36.8448 6.48344 36.9726 7.0614 36.8994C7.21388 36.2169 7.67665 34.3152 8.28991 33.2658C8.74868 32.4801 10.8887 32.1385 12.9349 32.1385Z" fill="#040000"/>
<path d="M2.69773 32.206C2.50929 32.206 2.34149 32.0715 2.30554 31.8791C2.26559 31.662 2.40808 31.4536 2.62581 31.4137L6.43052 30.7072L7.65104 29.5033L3.53271 30.0859C3.31764 30.1119 3.11189 29.9654 3.08126 29.747C3.04997 29.5286 3.20245 29.3262 3.42085 29.2956L8.73772 28.5431C8.9135 28.5185 9.0753 28.6071 9.15188 28.7615C9.22845 28.916 9.19716 29.1018 9.07397 29.2237L6.90394 31.3624C6.84735 31.4183 6.77543 31.4563 6.69686 31.4709L2.77097 32.1987C2.74633 32.2034 2.7217 32.206 2.69773 32.206Z" fill="black"/>
<path d="M19.171 36.131C18.9533 36.131 18.7749 35.9566 18.7715 35.7382C18.7682 35.5178 18.944 35.336 19.1644 35.3326L44.2419 34.9225C44.4883 34.9112 44.6447 35.0936 44.6481 35.3147C44.6521 35.5351 44.4756 35.7175 44.2552 35.7208L19.1777 36.131H19.171Z" fill="black"/>
<path d="M57.0795 29.5559H56.092C55.3689 29.5559 54.7203 29.1258 54.4407 28.4592C54.2229 27.9385 53.4978 26.194 53.3387 25.5667C53.2335 25.1799 53.3467 24.9195 53.4599 24.7704C53.7282 24.4201 54.2063 24.4102 54.2596 24.4102H55.9908C56.2112 24.4102 56.3903 24.5893 56.3903 24.8097C56.3903 25.0301 56.2112 25.2092 55.9908 25.2092H54.2596C54.203 25.2112 54.1171 25.2345 54.0957 25.2558C54.0957 25.2558 54.0918 25.2898 54.1117 25.363C54.2083 25.7459 54.6258 26.8365 55.1778 28.1496C55.3329 28.5185 55.6911 28.7575 56.092 28.7575H57.0795C57.2999 28.7575 57.479 28.936 57.479 29.1564C57.479 29.3768 57.2999 29.5559 57.0795 29.5559Z" fill="black"/>
<path d="M56.5109 26.6089H53.9933C53.7729 26.6089 53.5938 26.4298 53.5938 26.2094C53.5938 25.989 53.7729 25.8105 53.9933 25.8105H56.5109C56.7313 25.8105 56.9104 25.989 56.9104 26.2094C56.9104 26.4298 56.7313 26.6089 56.5109 26.6089Z" fill="black"/>
<path d="M56.6487 28.0172H54.6664C54.446 28.0172 54.2676 27.8381 54.2676 27.6177C54.2676 27.3973 54.446 27.2189 54.6664 27.2189H56.6487C56.8691 27.2189 57.0482 27.3973 57.0482 27.6177C57.0482 27.8381 56.8691 28.0172 56.6487 28.0172Z" fill="black"/>
<path d="M49.7411 32.7612C49.5307 32.7612 49.3536 32.5961 49.3423 32.3824C49.3316 32.162 49.5014 31.9742 49.7218 31.9629L57.6275 31.5587C57.8326 31.5654 58.035 31.7172 58.047 31.9382C58.0577 32.1586 57.8879 32.3457 57.6675 32.3577L49.7618 32.7612H49.7411Z" fill="black"/>
<path d="M45.5945 32.8458C45.3741 32.8458 45.195 32.6667 45.195 32.4463V28.6242C45.195 27.8951 45.1504 27.7287 44.9346 26.929L44.8301 26.5374C44.5291 25.4188 43.1981 21.2192 43.1848 21.1773C43.1182 20.9662 43.2347 20.7418 43.4444 20.6752C43.6555 20.608 43.8806 20.7252 43.9465 20.9349C44.0011 21.1087 45.2962 25.1937 45.6018 26.3324L45.7064 26.7212C45.9274 27.5416 45.994 27.7893 45.994 28.6242V32.4463C45.994 32.6667 45.8149 32.8458 45.5945 32.8458Z" fill="black"/>
<path d="M18.7372 37.903C18.5228 37.903 18.345 37.7332 18.3376 37.5168C18.327 37.1792 18.0899 29.2276 20.4198 27.1554C20.5849 27.0096 20.8379 27.0236 20.9838 27.1887C21.1309 27.3532 21.1156 27.6062 20.9505 27.7527C19.2485 29.2662 19.0634 35.2955 19.1367 37.4909C19.1433 37.7113 18.9709 37.8957 18.7505 37.903H18.7372Z" fill="black"/>
<path d="M33.4559 37.7952C33.2369 37.7952 33.0584 37.6187 33.0564 37.3997L32.9492 26.9584L33.7722 21.4424C33.8048 21.224 34.0113 21.0795 34.2263 21.1068C34.4447 21.1394 34.5952 21.3432 34.5626 21.5609L33.7443 27.0136L33.8554 37.3923C33.8581 37.6127 33.681 37.7932 33.4599 37.7952H33.4559Z" fill="black"/>
<path d="M21.8179 27.9004C21.4656 27.9004 21.0355 27.8471 20.7851 27.6287C20.6353 27.4982 20.5527 27.3178 20.5527 27.1227C20.5527 26.4375 21.5362 25.6538 23.2748 24.3274L23.3753 24.2508C25.4295 22.6854 28.0756 21.6047 31.0293 21.1273C31.1838 21.114 43.5235 20.1132 50.8952 20.8516C51.0017 20.8616 51.1002 20.9149 51.1675 20.9988C51.3233 21.1932 52.109 22.1833 52.2868 22.5682C52.3973 22.8072 52.5638 23.1688 49.4516 26.5687C49.3797 26.6472 49.2778 26.6938 49.1706 26.6978L45.2301 26.8357L22.3406 27.8638C22.2487 27.8764 22.0502 27.9004 21.8179 27.9004ZM21.3744 27.0541C21.5455 27.1047 21.9344 27.1147 22.268 27.0681L45.1988 26.0373L48.9748 25.9048C50.0815 24.6876 51.2814 23.2494 51.5044 22.7999C51.3459 22.5396 50.9558 22.0202 50.6481 21.63C43.3284 20.9315 31.2484 21.9097 31.1259 21.9197C28.3326 22.3731 25.809 23.4005 23.86 24.8867L23.7595 24.9626C22.8772 25.6358 21.5715 26.6313 21.3744 27.0541Z" fill="black"/>
<path d="M31.8004 27.4007C31.7778 27.4007 31.7545 27.3994 31.7312 27.3947C31.5135 27.3574 31.369 27.1504 31.4063 26.9333L32.3365 21.5871C32.3737 21.3687 32.5802 21.2176 32.7979 21.2615C33.0156 21.2995 33.1608 21.5059 33.1228 21.7236L32.1933 27.0698C32.1593 27.2642 31.9909 27.4007 31.8004 27.4007Z" fill="black"/>
<path d="M20.6856 28.0064C20.5911 28.0064 20.4972 27.9738 20.4213 27.9065C19.2314 26.8551 17.6613 26.8871 17.6527 26.8884C17.4323 26.8791 17.2478 26.7233 17.2405 26.5029C17.2325 26.2825 17.4043 26.098 17.6247 26.09C17.6926 26.0907 19.5117 26.0361 20.95 27.3079C21.1158 27.4544 21.1311 27.7067 20.9846 27.8719C20.906 27.9611 20.7962 28.0064 20.6856 28.0064Z" fill="black"/>
<path d="M4.27493 35.56C3.74491 35.56 3.33008 35.0453 3.33008 34.3874C3.33008 33.7296 3.74491 33.2148 4.27493 33.2148C4.80695 33.2148 5.22378 33.7296 5.22378 34.3874C5.22378 35.0453 4.80695 35.56 4.27493 35.56ZM4.27493 34.0132C4.24097 34.0205 4.12844 34.1497 4.12844 34.3874C4.12844 34.6258 4.24097 34.755 4.27559 34.7616C4.31022 34.7556 4.42541 34.6291 4.42541 34.3874C4.42541 34.147 4.30955 34.0192 4.27493 34.0132Z" fill="black"/>
<path d="M41.0578 29.7685C40.8661 29.7685 40.6843 29.6979 40.5418 29.568C40.3893 29.4289 40.3007 29.2391 40.2914 29.032L40.2781 28.7683C40.2595 28.3435 40.5877 27.9826 41.0105 27.9627L43.0148 27.8681C43.4396 27.8488 43.8005 28.1764 43.8205 28.6005L43.8324 28.8676C43.8518 29.2917 43.5235 29.6533 43.0993 29.6732L41.0958 29.7678C41.0831 29.7685 41.0705 29.7685 41.0578 29.7685ZM43.0214 28.6378L41.0485 28.761L41.0898 28.9954L43.0328 28.8769L43.0214 28.6378Z" fill="black"/>
<path d="M29.0268 30.232C28.6179 30.232 28.277 29.9097 28.2571 29.4976L28.2451 29.2312C28.2351 29.0255 28.3063 28.8284 28.4448 28.6759C28.5833 28.5248 28.7731 28.4355 28.9782 28.4262L30.9804 28.3323C31.1908 28.327 31.3852 28.3936 31.5371 28.5327C31.6889 28.6706 31.7774 28.8603 31.7861 29.0654L31.7994 29.3304C31.8194 29.7546 31.4905 30.1168 31.0656 30.1375L29.0614 30.2314C29.0501 30.232 29.0381 30.232 29.0268 30.232ZM30.9877 29.1027L29.0148 29.2252L29.0561 29.4596L30.9997 29.3404L30.9877 29.1027Z" fill="black"/>
<path d="M22.037 25.6479C22.5816 25.5567 23.9906 25.4648 24.0518 25.793C24.1104 26.1213 24.1571 27.4437 23.888 27.6068C23.621 27.7706 20.9656 28.015 20.8318 27.8812C20.6979 27.7453 20.6034 27.3352 20.7812 26.9856C20.9636 26.6267 21.4737 25.7424 22.037 25.6479Z" fill="white"/>
<path d="M21.3609 28.308C20.9661 28.308 20.6571 28.2687 20.5519 28.1628C20.2909 27.8991 20.1717 27.3059 20.4261 26.8031C20.6944 26.2758 21.2517 25.3735 21.9722 25.2524C22.5142 25.1611 24.2987 24.9274 24.4465 25.7185C24.4498 25.7398 24.6989 27.5822 24.0969 27.9471C23.9318 28.049 22.3677 28.308 21.3609 28.308ZM21.0966 27.5209C21.6253 27.5376 23.202 27.3864 23.6342 27.2739C23.7054 27.0362 23.7141 26.3703 23.6781 25.9995C23.3931 25.9382 22.6354 25.9515 22.1047 26.0407C21.851 26.0827 21.4535 26.5455 21.1392 27.1647C21.0753 27.2899 21.0779 27.429 21.0966 27.5209Z" fill="black"/>
</g>
</svg>
