<svg width="60" height="60" viewBox="0 0 60 60" fill="none" xmlns="http://www.w3.org/2000/svg">
<mask id="mask0_37_14408" style="mask-type:alpha" maskUnits="userSpaceOnUse" x="6" y="17" width="49" height="26">
<rect x="6" y="17.6738" width="48.1399" height="25" fill="#D9D9D9"/>
</mask>
<g mask="url(#mask0_37_14408)">
<path d="M40.4599 35.6509H18.6487C18.3878 35.6509 18.1758 35.4326 18.1758 35.1639C18.1758 34.8953 18.3878 34.6777 18.6487 34.6777H40.4599C40.7208 34.6777 40.9329 34.8953 40.9329 35.1639C40.9329 35.4326 40.7208 35.6509 40.4599 35.6509Z" fill="black"/>
<path d="M50.1915 37.8657C50.0929 37.8657 49.9913 37.8649 49.8856 37.8633L49.1194 37.8584C48.9082 37.8584 48.7222 37.7147 48.6646 37.5061L47.9497 34.926C47.736 34.1508 47.0392 33.6095 46.2573 33.6095H43.0136C42.4382 33.6095 41.899 33.8992 41.5703 34.3846L39.3529 37.6506C39.2646 37.7813 39.1196 37.8584 38.9651 37.8584H19.3736C19.1758 37.8584 18.9992 37.7326 18.9298 37.5419L17.9879 34.9357C17.7073 34.1606 16.9789 33.6355 16.1757 33.629L12.3857 33.6014C11.6432 33.5697 10.918 34.0567 10.6003 34.7734L9.45022 37.3649C9.37297 37.5378 9.20665 37.6482 9.02298 37.649L7.3834 37.6604H7.37236C7.00819 37.6604 6.6645 37.5151 6.40517 37.2505C6.14346 36.9826 6 36.6263 6 36.2465V33.982C6 33.228 6.57464 32.6095 7.29669 32.569L7.49927 27.7446C7.56076 27.2909 7.71131 26.2147 19.4201 25.2253L23.3118 19.612C23.9621 18.3572 26.5823 17.6738 27.7954 17.6738H48.5361C49.8257 17.6738 50.8836 18.7127 50.9443 20.0389L51.5213 33.3011C51.8681 33.3035 52.2039 33.4504 52.4467 33.7061C52.6974 33.9707 52.8274 34.3189 52.8125 34.6857C52.7037 37.5305 52.4979 37.8657 50.1915 37.8657ZM49.4765 36.8869L49.8943 36.8901C50.8229 36.8999 51.4322 36.9047 51.6001 36.7213C51.7956 36.507 51.8271 35.6865 51.8673 34.6468C51.8713 34.5494 51.8366 34.4576 51.7696 34.387C51.6994 34.3124 51.6033 34.2677 51.5055 34.2742L51.0775 34.2823C50.8316 34.2539 50.6085 34.081 50.5966 33.8173L49.9991 20.0836C49.9629 19.2792 49.3197 18.647 48.5361 18.647H27.7954C26.6461 18.647 24.5383 19.3101 24.1127 20.1258L20.0626 25.9752C19.9814 26.0913 19.8545 26.166 19.7157 26.1773C14.7268 26.5929 9.24291 27.3534 8.43651 27.9288L8.23945 32.6883C8.21817 33.1663 7.83901 33.5405 7.37394 33.5405C7.13746 33.5405 6.94512 33.7385 6.94512 33.982V36.2465C6.94512 36.3642 6.99084 36.4754 7.07203 36.559C7.15323 36.6409 7.25885 36.6872 7.37315 36.6872H7.3763L8.71477 36.6775L9.73951 34.3692C10.2101 33.31 11.2419 32.6282 12.3739 32.6282H12.392L16.182 32.6558C17.3762 32.6639 18.4585 33.4439 18.8747 34.5964L19.7023 36.8852H38.7191L40.7938 33.8262C41.3007 33.0811 42.1299 32.6363 43.0136 32.6363H46.2573C47.4602 32.6363 48.5306 33.4683 48.8601 34.6597L49.4765 36.8869Z" fill="black"/>
<path d="M17.7288 33.4713L11.0774 33.1426L8.96094 37.6504H18.2451L19.3345 37.8574L17.7288 33.4713Z" fill="black"/>
<path d="M47.5199 33.2193L41.8405 33.1113L38.9531 37.8513H46.1941H49.4874L47.5199 33.2193Z" fill="black"/>
<path d="M18.4336 38.059C18.4336 40.4696 16.5362 42.4223 14.1951 42.4223C11.8563 42.4223 9.95898 40.4687 9.95898 38.059C9.95898 35.6492 11.8563 33.6965 14.1951 33.6973C16.5362 33.6973 18.4336 35.6501 18.4336 38.059Z" fill="black"/>
<path d="M14.1945 42.6718C11.7249 42.6718 9.71484 40.603 9.71484 38.0601C9.71484 35.5181 11.7249 33.4492 14.1945 33.4492C16.6642 33.4492 18.6734 35.5181 18.6734 38.0601C18.6734 40.603 16.6642 42.6718 14.1945 42.6718ZM14.1945 33.9468C11.9906 33.9468 10.1996 35.7916 10.1996 38.0601C10.1996 40.3286 11.9906 42.1743 14.1945 42.1743C16.3977 42.1743 18.1894 40.3286 18.1894 38.0601C18.1894 35.7916 16.3977 33.9468 14.1945 33.9468Z" fill="black"/>
<path d="M16.7009 38.065C16.7009 39.4919 15.5776 40.6485 14.1926 40.6485C12.8069 40.6485 11.6836 39.4919 11.6836 38.065C11.6836 36.6374 12.8069 35.4824 14.1926 35.4824C15.5776 35.4824 16.7009 36.6374 16.7009 38.065Z" fill="white"/>
<path d="M48.5879 38.059C48.5879 40.4696 46.6905 42.4223 44.3494 42.4223C42.0106 42.4223 40.1133 40.4687 40.1133 38.059C40.1133 35.6492 42.0106 33.6965 44.3494 33.6973C46.6905 33.6973 48.5879 35.6501 48.5879 38.059Z" fill="black"/>
<path d="M44.35 42.6718C41.8804 42.6718 39.8711 40.603 39.8711 38.0601C39.8711 35.5181 41.8804 33.4492 44.35 33.4492C46.8204 33.4492 48.8297 35.5181 48.8297 38.0601C48.8297 40.603 46.8204 42.6718 44.35 42.6718ZM44.35 33.9468C42.1468 33.9468 40.3551 35.7916 40.3551 38.0601C40.3551 40.3286 42.1468 42.1743 44.35 42.1743C46.5532 42.1743 48.3457 40.3286 48.3457 38.0601C48.3457 35.7916 46.5532 33.9468 44.35 33.9468Z" fill="black"/>
<path d="M46.8552 38.065C46.8552 39.4919 45.7319 40.6485 44.3469 40.6485C42.9612 40.6485 41.8379 39.4919 41.8379 38.065C41.8379 36.6374 42.9612 35.4824 44.3469 35.4824C45.7319 35.4824 46.8552 36.6374 46.8552 38.065Z" fill="white"/>
<path d="M36.7668 37.858C36.7566 37.858 36.7479 37.858 36.7376 37.8572C36.4775 37.841 36.2781 37.6105 36.2938 37.3418L37.2863 20.2342C37.302 19.9655 37.5377 19.7488 37.7868 19.778C38.0469 19.7935 38.2464 20.024 38.2298 20.2926L37.2382 37.4011C37.2232 37.6592 37.0143 37.858 36.7668 37.858Z" fill="black"/>
<path d="M22.8949 27.4528C22.6371 27.4528 22.4259 27.2402 22.4219 26.9739C22.418 26.7053 22.6261 26.4837 22.887 26.4797L37.3019 26.2354C37.5424 26.2175 37.7788 26.4448 37.7828 26.7142C37.7875 26.9829 37.5786 27.2045 37.3177 27.2085L22.9028 27.4528H22.8949Z" fill="black"/>
<path d="M23.7191 20.8066C23.4589 20.8066 23.2469 20.5907 23.2461 20.322C23.2445 20.0534 23.455 19.8342 23.7167 19.8334L50.4679 19.6816H50.4703C50.7304 19.6816 50.9417 19.8975 50.9424 20.1662C50.944 20.4348 50.7336 20.6548 50.4719 20.6548L23.7214 20.8066H23.7191Z" fill="black"/>
<path d="M47.2073 27.4182H40.608C39.9419 27.4182 39.4004 26.8598 39.4004 26.1748V22.5403C39.4004 21.8545 39.9419 21.2969 40.608 21.2969H47.2073C47.8734 21.2969 48.4149 21.8545 48.4149 22.5403V26.1748C48.4149 26.8598 47.8734 27.4182 47.2073 27.4182ZM40.608 22.27C40.463 22.27 40.3455 22.391 40.3455 22.5403V26.1748C40.3455 26.3233 40.463 26.4451 40.608 26.4451H47.2073C47.3524 26.4451 47.4698 26.3233 47.4698 26.1748V22.5403C47.4698 22.391 47.3524 22.27 47.2073 22.27H40.608Z" fill="black"/>
<path d="M35.382 27.1737C35.3725 27.1737 35.3638 27.1737 35.3544 27.1729C35.0934 27.1575 34.894 26.9278 34.909 26.6591L35.2606 20.291C35.2748 20.0216 35.4978 19.8049 35.7595 19.8325C36.0204 19.8479 36.2191 20.0776 36.2041 20.3462L35.8533 26.7151C35.8391 26.974 35.6303 27.1737 35.382 27.1737Z" fill="black"/>
<path d="M21.9679 27.4875C21.904 27.4875 21.8402 27.4745 21.7787 27.4469L18.967 26.184C18.7281 26.0761 18.6185 25.7887 18.7234 25.5428C18.8282 25.2961 19.1049 25.1825 19.3461 25.2912L21.7952 26.3918L25.9399 20.0472C26.0865 19.8257 26.3813 19.764 26.5965 19.9149C26.8125 20.0651 26.8708 20.3678 26.725 20.591L22.3604 27.2724C22.2706 27.4104 22.1208 27.4875 21.9679 27.4875Z" fill="black"/>
<path d="M22.3751 27.8471L24.144 28.1157C24.5909 28.1336 24.9669 27.7756 24.9843 27.3163L25.0473 25.8683C25.0647 25.4089 24.7178 25.0218 24.2709 25.0039L22.4098 25.2109C21.9424 25.2799 21.5877 25.5501 21.5703 26.0103L21.5987 26.9819C21.5813 27.4412 21.9282 27.7472 22.3751 27.8471Z" fill="white"/>
<path d="M24.1754 28.6029H24.1234L22.3041 28.3293C22.2939 28.3277 22.2828 28.3253 22.2734 28.3229C21.5497 28.1613 21.0989 27.6273 21.1249 26.9634L21.0957 26.0251C21.1217 25.3222 21.5986 24.8385 22.3419 24.7289L24.218 24.5195C24.6303 24.5317 24.9464 24.681 25.1781 24.9408C25.4106 25.1989 25.5312 25.5357 25.5178 25.8879L25.4556 27.3383C25.428 28.0453 24.8589 28.6029 24.1754 28.6029ZM22.4594 27.3684L24.2117 27.6338H24.2149C24.3489 27.6338 24.5034 27.4869 24.5105 27.2978L24.5727 25.8474C24.5767 25.7573 24.5451 25.6688 24.4836 25.6014C24.423 25.5333 24.3402 25.4943 24.2503 25.4911L22.4594 25.6948C22.2812 25.7216 22.0487 25.8027 22.0408 26.0292L22.07 26.9674C22.0605 27.2418 22.3285 27.3367 22.4594 27.3684Z" fill="black"/>
<path d="M33.7083 30.7819C32.6576 30.7819 31.8945 30.2916 31.8945 29.6155C31.8945 28.9394 32.6576 28.4492 33.7083 28.4492C34.7583 28.4492 35.5205 28.9394 35.5205 29.6155C35.5205 30.2916 34.7583 30.7819 33.7083 30.7819ZM32.8933 29.6155C33.0123 29.6951 33.2858 29.8087 33.7083 29.8087C34.13 29.8087 34.4028 29.6951 34.5226 29.6155C34.4028 29.5352 34.1308 29.4224 33.7083 29.4224C33.285 29.4224 33.0123 29.5352 32.8933 29.6155Z" fill="black"/>
<path d="M50.4364 29.8306H40.4429C40.182 29.8306 39.9707 29.6122 39.9707 29.3436C39.9707 29.0749 40.182 28.8574 40.4429 28.8574H50.4364C50.6974 28.8574 50.9094 29.0749 50.9094 29.3436C50.9094 29.6122 50.6974 29.8306 50.4364 29.8306Z" fill="black"/>
<path d="M52.6315 31.7666H52.5448C51.8472 31.7666 51.2812 31.1839 51.2812 30.4656V25.4562C51.2812 24.7371 51.8472 24.1543 52.5448 24.1543H52.6315C53.3299 24.1543 53.8951 24.7371 53.8951 25.4562V30.4656C53.8951 31.1839 53.3299 31.7666 52.6315 31.7666Z" fill="black"/>
<path d="M52.6306 32.0161H52.5446C51.7138 32.0161 51.0391 31.3205 51.0391 30.4659V25.4565C51.0391 24.601 51.7138 23.9062 52.5446 23.9062H52.6306C53.4614 23.9062 54.1369 24.601 54.1369 25.4565V30.4659C54.1369 31.3205 53.4614 32.0161 52.6306 32.0161ZM52.5446 24.4038C51.981 24.4038 51.5223 24.8762 51.5223 25.4565V30.4659C51.5223 31.0462 51.981 31.5186 52.5446 31.5186H52.6306C53.1942 31.5186 53.6529 31.0462 53.6529 30.4659V25.4565C53.6529 24.8762 53.1942 24.4038 52.6306 24.4038H52.5446Z" fill="black"/>
<path d="M8.27401 32.2482H8.25431C7.99339 32.2457 7.78371 32.0258 7.78687 31.7563C7.78923 31.4885 8.00049 31.275 8.25904 31.275C8.26219 31.2742 8.26849 31.2742 8.27401 31.275C8.52862 31.275 8.77929 31.1638 8.96374 30.9699C9.14425 30.7799 9.23884 30.5389 9.23096 30.2897C9.22229 30.0267 9.11509 29.7824 8.92906 29.6022C8.74145 29.4221 8.48054 29.323 8.24406 29.336C7.95161 29.3174 7.7648 29.1331 7.75612 28.8653C7.74745 28.5966 7.9524 28.3718 8.21332 28.3629C9.23569 28.3199 10.1422 29.1778 10.1761 30.258C10.1926 30.7759 10.0019 31.2702 9.63928 31.6516C9.27747 32.0315 8.78165 32.2482 8.27401 32.2482Z" fill="black"/>
<path d="M12.6802 33.606H7.03936C6.77845 33.606 6.56641 33.3876 6.56641 33.119C6.56641 32.8503 6.77845 32.6328 7.03936 32.6328H12.6802C12.9411 32.6328 13.1531 32.8503 13.1531 33.119C13.1531 33.3876 12.9411 33.606 12.6802 33.606Z" fill="black"/>
<path d="M47.9242 34.2998C47.6648 34.2998 47.4528 34.0839 47.4512 33.816C47.4488 33.5474 47.6601 33.3282 47.921 33.3266L51.0457 33.3047C51.275 33.3177 51.5202 33.5198 51.521 33.7884C51.5233 34.0571 51.3129 34.277 51.052 34.2787L47.9273 34.2998H47.9242Z" fill="black"/>
</g>
</svg>
