<svg width="60" height="60" viewBox="0 0 60 60" fill="none" xmlns="http://www.w3.org/2000/svg">
<mask id="mask0_37_13894" style="mask-type:alpha" maskUnits="userSpaceOnUse" x="0" y="20" width="60" height="20">
<rect x="0.939453" y="20.0547" width="58.3115" height="19.8902" fill="#D9D9D9"/>
</mask>
<g mask="url(#mask0_37_13894)">
<path d="M9.18709 35.4704C9.17227 35.4704 9.15745 35.4698 9.14263 35.4679C7.54971 35.2849 6.65853 35.1553 6.49357 35.0812C6.09921 34.9118 6.10114 34.5548 6.10565 33.6011L6.10758 33.1126C6.10758 32.1274 6.66433 30.9958 6.99748 30.3192C7.01036 30.2915 7.02518 30.2625 7.03936 30.2335C6.25643 30.1749 4.4367 30.1749 2.7903 30.2155C2.59441 30.2168 2.40045 30.0518 2.39465 29.8385C2.38949 29.6252 2.55832 29.4474 2.77161 29.4429C7.56775 29.3243 7.74045 29.5344 7.87577 29.7032C7.95116 29.7966 7.98338 29.9397 7.95503 30.057C7.92345 30.1852 7.84226 30.3527 7.69083 30.6608C7.38797 31.2761 6.8802 32.3072 6.8802 33.1126L6.87891 33.6043C6.87698 33.9426 6.87569 34.2442 6.89115 34.3924C7.21979 34.4536 8.28044 34.5909 9.23026 34.7004C9.44227 34.7242 9.59498 34.9163 9.5705 35.1283C9.54794 35.3248 9.38105 35.4704 9.18709 35.4704Z" fill="black"/>
<path d="M40.4629 34.9124C40.4288 34.9124 40.394 34.9072 40.3598 34.8982C40.1536 34.8408 40.0331 34.6282 40.0905 34.4226C40.6865 32.273 42.5965 29.6213 43.6223 28.1972C43.8472 27.886 44.0779 27.5658 44.1707 27.4163C44.0012 26.8917 42.7627 24.7253 41.597 22.8231C41.4862 22.6407 41.5435 22.4023 41.7253 22.2908C41.9076 22.18 42.1454 22.2373 42.2569 22.4191C45.0973 27.0541 44.9916 27.4169 44.9414 27.5922C44.8963 27.7481 44.75 27.955 44.25 28.6496C43.2524 30.0344 41.3953 32.6126 40.8354 34.6288C40.7877 34.7996 40.6317 34.9124 40.4629 34.9124Z" fill="black"/>
<path d="M1.71066 34.6546C1.50639 34.6546 1.33563 34.4941 1.32468 34.2879C1.31437 34.0746 1.47869 33.8923 1.69198 33.882L6.2903 33.6506C6.49779 33.6435 6.68595 33.804 6.69626 34.0179C6.70721 34.2312 6.54289 34.4129 6.3296 34.4239L1.73064 34.6546H1.71066Z" fill="black"/>
<path d="M4.21665 34.3582C4.22503 34.8518 3.94408 35.2539 3.58387 35.259C3.22623 35.2635 2.92853 34.8692 2.92208 34.3756C2.91306 33.8839 3.19724 33.4818 3.56067 33.4767C3.91572 33.4696 4.21021 33.8659 4.21665 34.3582Z" fill="white"/>
<path d="M3.57745 35.6454C3.00072 35.6461 2.54385 35.0919 2.53548 34.3805C2.52775 33.9939 2.65984 33.6304 2.89698 33.3849C3.07869 33.198 3.3126 33.093 3.55554 33.0904C3.7772 33.0608 4.02143 33.1807 4.20636 33.3591C4.45252 33.5976 4.5975 33.9584 4.60266 34.3509C4.6091 34.742 4.477 35.108 4.23987 35.3529C4.06073 35.5385 3.82875 35.6422 3.5884 35.6454H3.57745ZM3.56971 33.8631C3.52976 33.8637 3.47885 33.8959 3.45243 33.923C3.38026 33.9977 3.30423 34.1537 3.30809 34.3676C3.31196 34.673 3.47241 34.8722 3.57745 34.8722C3.61997 34.8715 3.65993 34.8406 3.68506 34.8148C3.75723 34.7394 3.83327 34.5822 3.8294 34.3644V34.3624C3.82618 34.1446 3.74434 33.9881 3.66895 33.9152C3.64446 33.8914 3.60773 33.8631 3.56971 33.8631Z" fill="black"/>
<path d="M2.13983 32.3107C1.93685 32.3107 1.76609 32.1516 1.75449 31.946C1.74289 31.7327 1.90592 31.5497 2.11921 31.5388L6.646 31.2894C6.85027 31.2649 7.04101 31.4402 7.05325 31.6535C7.0655 31.8674 6.90247 32.0498 6.68918 32.0607L2.16174 32.3101C2.15401 32.3107 2.14756 32.3107 2.13983 32.3107Z" fill="black"/>
<path d="M19.1782 27.8125C18.4017 27.8125 16.1174 27.5431 16.0207 27.5322C15.8087 27.5064 15.6573 27.315 15.6824 27.103C15.7075 26.8904 15.9047 26.737 16.1116 26.7641C16.1283 26.766 17.3436 26.9097 18.2909 26.9883C19.0113 26.5463 24.7431 23.0344 25.3784 22.8134C26.3611 22.4751 30.1121 21.5117 34.3328 21.5117C38.8551 21.5117 40.4068 21.832 41.7761 22.1149C43.2878 22.4274 46.4504 24.9128 46.8796 25.3426C47.312 25.7737 47.6535 26.1145 47.2617 26.5083C47.1902 26.5798 47.0942 26.6204 46.993 26.6217L43.9457 26.6642L32.7521 27.0747C32.2373 27.1037 19.9437 27.8125 19.1782 27.8125ZM34.3328 22.2843C29.5083 22.2843 25.6684 23.5319 25.6317 23.5441C25.2663 23.671 22.1494 25.5404 19.7221 27.0199C22.2964 26.9026 32.6007 26.3085 32.716 26.3021L43.927 25.8916L46.3009 25.8587C45.7725 25.3593 42.8445 23.1253 41.6201 22.8727C40.2863 22.5969 38.7765 22.2843 34.3328 22.2843Z" fill="black"/>
<path d="M25.5063 23.5657C25.4425 23.5657 25.3787 23.5503 25.3194 23.5167C25.3194 23.5167 24.0622 22.8182 23.9623 22.7673C23.758 22.7029 23.6717 22.4973 23.7355 22.2931C23.7993 22.0901 24.0454 21.9851 24.2471 22.0508C24.2974 22.0669 24.3051 22.0688 25.6944 22.8408C25.8813 22.9445 25.9489 23.1797 25.8446 23.366C25.7743 23.4936 25.6422 23.5657 25.5063 23.5657Z" fill="black"/>
<path d="M32.4533 35.0084H32.4397C32.2258 35.0006 32.0595 34.8215 32.0666 34.6082L32.3521 26.6733C32.3592 26.46 32.5441 26.2982 32.7522 26.3008C32.9655 26.3085 33.1324 26.4877 33.1247 26.701L32.8399 34.6359C32.8322 34.8447 32.6607 35.0084 32.4533 35.0084Z" fill="black"/>
<path d="M33.3993 27.0509C33.3787 27.0509 33.3581 27.0496 33.3368 27.0464C33.1261 27.0122 32.9831 26.8138 33.0166 26.6031L33.786 21.8366C33.8195 21.6252 34.0218 21.4841 34.2293 21.5163C34.44 21.5504 34.5837 21.7489 34.5496 21.9603L33.7808 26.7261C33.7499 26.9162 33.5856 27.0509 33.3993 27.0509Z" fill="black"/>
<path d="M50.1244 26.1093C49.9833 26.1093 49.8229 26.1093 42.7295 21.7159C42.5484 21.6038 42.4923 21.3654 42.6051 21.183C42.7166 21.0026 42.9544 20.9446 43.1374 21.0587C45.6054 22.5878 49.6005 25.0358 50.1934 25.3335C50.5723 25.3142 52.2393 25.1969 53.2922 25.1208C53.4971 25.1073 53.6904 25.2645 53.7059 25.4791C53.7207 25.6918 53.5609 25.8774 53.3476 25.8922C52.8437 25.9289 50.3184 26.1093 50.1244 26.1093Z" fill="black"/>
<path d="M58.7864 32.3117H55.5774C55.3641 32.3117 55.1914 32.1383 55.1914 31.925C55.1914 31.7118 55.3641 31.5391 55.5774 31.5391H58.7864C58.9991 31.5391 59.1724 31.7118 59.1724 31.925C59.1724 32.1383 58.9991 32.3117 58.7864 32.3117Z" fill="black"/>
<path d="M16.4902 35.4703C16.2795 35.4703 16.1068 35.3015 16.1036 35.0908C16.1003 34.8768 16.2698 34.7016 16.4831 34.6977L43.3088 34.2363H43.3159C43.5266 34.2363 43.6993 34.4052 43.7019 34.6159C43.7057 34.8298 43.5362 35.0051 43.323 35.0089L16.4973 35.4703H16.4902Z" fill="black"/>
<path d="M8.13979 37.2402C5.97853 37.2402 1.81517 37.0669 1.56257 35.7388C1.4337 35.2413 1.37506 34.9088 1.34799 34.7065L1.15983 34.6169C1.02516 34.5525 0.939453 34.4165 0.939453 34.2677V32.8829C0.939453 32.5517 1.07864 32.2333 1.32157 32.0097C1.63732 31.7185 1.77006 31.5832 1.82355 31.5252C1.86157 31.3615 1.95693 31.0116 2.19407 30.1984C2.22951 29.9632 2.45311 29.1944 3.86495 28.6725C5.22718 28.1692 14.9374 26.9043 16.0928 26.7554C16.9086 26.1671 23.0882 21.7686 26.3874 21.0327C34.6014 19.1994 40.937 20.2839 44.8033 21.5172C45.8104 21.8382 48.1998 22.855 50.3082 23.752C51.9772 24.4627 53.8697 25.2682 54.1455 25.3191C57.651 25.6703 57.7496 25.7676 57.8649 25.881C58.7645 26.7606 58.7406 29.6371 58.7116 30.5128C58.9462 30.8138 59.251 31.2668 59.251 31.5799C59.251 31.8602 58.8772 34.3392 58.7625 35.0925C58.74 35.2394 58.6349 35.3605 58.4932 35.4044C57.669 35.6544 53.5218 36.9051 52.7762 36.9051C52.0629 36.9051 42.1742 37.235 42.0749 37.2383H8.5232C8.40463 37.2396 8.27576 37.2402 8.13979 37.2402ZM2.0987 34.4513C2.0987 34.4513 2.10901 34.7638 2.31714 35.5693C2.40414 36.023 5.14212 36.4773 8.5174 36.4657H8.52127H42.0621C42.4571 36.4515 52.0506 36.1319 52.7762 36.1319C53.2434 36.1319 56.1528 35.3032 58.035 34.7342C58.2528 33.2953 58.4732 31.7591 58.4784 31.5774C58.459 31.4949 58.2399 31.1546 58.0202 30.8866C57.9603 30.8131 57.93 30.7197 57.9332 30.625C57.9893 29.3349 57.8842 27.1227 57.3752 26.4906C57.0027 26.4094 55.4568 26.227 54.0701 26.0879H54.0676C53.8652 26.0879 53.2067 25.8262 50.0054 24.464C47.9131 23.5728 45.5411 22.5637 44.5687 22.2531C40.7926 21.0501 34.6027 19.9913 26.5563 21.7879C23.2506 22.5251 16.5348 27.3895 16.4672 27.4385C16.415 27.4771 16.3537 27.501 16.2887 27.5094C13.2839 27.8954 5.242 28.9876 4.13302 29.3974C3.04465 29.8001 2.96024 30.3053 2.95959 30.3105C2.95702 30.3292 2.95057 30.3672 2.94542 30.3846C2.77401 30.9729 2.58521 31.6405 2.56717 31.7385C2.57039 31.8751 2.5169 31.9582 1.84546 32.5787C1.76104 32.6561 1.71207 32.7675 1.71207 32.8829V34.0234L1.87832 34.1021C2.013 34.1665 2.0987 34.3025 2.0987 34.4513Z" fill="black"/>
<path d="M12.979 31.4785C10.6451 31.4785 8.74609 33.3775 8.74609 35.7115C8.74609 38.0461 10.6451 39.9457 12.979 39.9457C15.313 39.9457 17.212 38.0461 17.212 35.7115C17.212 33.3775 15.313 31.4785 12.979 31.4785Z" fill="black"/>
<path d="M15.3705 35.7116C15.3705 37.032 14.2996 38.1017 12.9805 38.1017C11.6602 38.1017 10.5898 37.032 10.5898 35.7116C10.5898 34.3913 11.6602 33.3223 12.9805 33.3223C14.2996 33.3223 15.3705 34.3913 15.3705 35.7116Z" fill="white"/>
<path d="M46.5455 31.4785C44.2115 31.4785 42.3125 33.3775 42.3125 35.7115C42.3125 38.0461 44.2115 39.9457 46.5455 39.9457C48.8794 39.9457 50.7784 38.0461 50.7784 35.7115C50.7784 33.3775 48.8794 31.4785 46.5455 31.4785Z" fill="black"/>
<path d="M48.9369 35.7116C48.9369 37.032 47.866 38.1017 46.5469 38.1017C45.2266 38.1017 44.1562 37.032 44.1562 35.7116C44.1562 34.3913 45.2266 33.3223 46.5469 33.3223C47.866 33.3223 48.9369 34.3913 48.9369 35.7116Z" fill="white"/>
<path d="M58.229 30.969H55.5252C55.4105 30.969 55.3022 30.9187 55.2287 30.8304C54.7828 30.2988 53.7737 28.9849 54.0263 28.2864C54.0978 28.0912 54.2854 27.5731 58.0041 27.2045C58.2174 27.1871 58.4062 27.3379 58.4268 27.5505C58.4487 27.7632 58.2928 27.9526 58.0808 27.9732C56.7231 28.1086 55.1211 28.3831 54.7525 28.5944C54.7764 28.8496 55.1978 29.5584 55.7082 30.1964H58.229C58.4423 30.1964 58.615 30.3691 58.615 30.5823C58.615 30.7956 58.4423 30.969 58.229 30.969Z" fill="black"/>
<path d="M41.2417 29.0607C41.0355 29.0607 40.8525 29.0536 40.7655 29.0362C40.4775 28.975 40.1566 28.62 40.0638 28.2597C39.9852 27.9537 40.0702 27.6663 40.2971 27.4704C40.6025 27.2062 42.3816 27.2983 42.517 27.3467C42.604 27.3769 42.8868 27.5129 42.8585 27.9543C42.8379 28.2681 42.6117 28.9241 42.1825 29.0156C42.0852 29.0375 41.6226 29.0607 41.2417 29.0607ZM40.8139 28.0974C40.8448 28.1592 40.9176 28.2623 40.973 28.2958C41.0555 28.2991 41.707 28.2817 41.9563 28.2643C41.9886 28.2146 42.024 28.1392 42.0491 28.0664C41.7153 28.06 41.0942 28.0677 40.8139 28.0974ZM40.5497 27.7629L40.6302 27.8583L40.6296 27.8564L40.5497 27.7629Z" fill="black"/>
<path d="M30.1193 29.4865C29.9189 29.4865 29.7423 29.4801 29.6547 29.462C29.3679 29.4021 29.047 29.0477 28.9529 28.6868C28.8737 28.3807 28.9581 28.0927 29.1849 27.8962C29.4903 27.632 31.2701 27.7241 31.4054 27.7724C31.4931 27.8034 31.7753 27.94 31.747 28.3807C31.7263 28.6939 31.5008 29.3492 31.0723 29.4414C30.984 29.4607 30.5072 29.4865 30.1193 29.4865ZM29.703 28.5231C29.7333 28.585 29.8067 28.6881 29.8615 28.7216C29.9459 28.7293 30.5942 28.7081 30.8455 28.69C30.8777 28.6411 30.9125 28.565 30.9383 28.4922C30.6013 28.4864 29.9833 28.4941 29.703 28.5231ZM29.4381 28.1887L29.5187 28.2834L29.518 28.2821L29.4381 28.1887Z" fill="black"/>
<path d="M22.154 25.6181C21.7133 25.6999 20.8015 26.0879 20.7525 26.7032C20.7338 26.9397 20.8169 27.3689 21.1011 27.4997C21.7777 27.8109 22.7746 27.5358 22.9614 27.4333C23.2108 27.2954 23.5723 25.3558 22.154 25.6181Z" fill="white"/>
<path d="M21.8604 28.0315C21.5511 28.0315 21.2282 27.9845 20.9395 27.8511C20.4691 27.6352 20.3396 27.0295 20.3667 26.6745C20.4408 25.7478 21.6619 25.3161 22.084 25.2381C22.7664 25.1112 23.2748 25.3767 23.4836 25.965C23.6865 26.5321 23.5544 27.5482 23.1478 27.7725C22.9977 27.855 22.4545 28.0315 21.8604 28.0315ZM22.2251 25.9985C21.8088 26.0758 21.1644 26.409 21.138 26.735C21.1251 26.9051 21.1992 27.1197 21.2624 27.1487C21.7283 27.362 22.4693 27.2087 22.718 27.1184C22.796 26.9329 22.8823 26.3858 22.7019 26.1158C22.6684 26.0649 22.5782 25.9334 22.2251 25.9985Z" fill="black"/>
<path d="M18.8316 35.407C18.619 35.407 18.4456 35.235 18.445 35.0223L18.4121 27.4901C18.4108 27.2762 18.5829 27.1022 18.7962 27.1016H18.7981C19.0107 27.1016 19.1841 27.2736 19.1847 27.4863L19.2182 35.0185C19.2195 35.2324 19.0468 35.4064 18.8335 35.407H18.8316Z" fill="black"/>
</g>
</svg>
