<svg width="60" height="60" viewBox="0 0 60 60" fill="none" xmlns="http://www.w3.org/2000/svg">
<mask id="mask0_37_13539" style="mask-type:alpha" maskUnits="userSpaceOnUse" x="2" y="20" width="56" height="21">
<rect x="2" y="20.7539" width="55.6533" height="19.565" fill="#D9D9D9"/>
</mask>
<g mask="url(#mask0_37_13539)">
<path d="M10.3233 37.4405C8.76526 37.306 3.76194 36.8556 3.22371 36.6531C2.63685 36.4313 2.19987 35.4155 2.19987 34.6547C2.19987 34.0346 2.00469 32.0708 2.00202 32.0515C1.98537 31.887 2.07263 31.7291 2.22052 31.6545L2.79339 31.3674C2.91596 30.7366 3.40024 28.936 4.99029 28.3625C6.57768 27.7896 8.68 27.2773 11.8102 26.7038C12.9379 26.496 13.7453 26.3741 14.3581 26.2815C15.2627 26.1442 15.7157 26.0756 16.1527 25.8971C16.5024 25.7519 18.5727 24.5189 20.3999 23.4318C24.7185 20.8598 24.9529 20.7539 25.1641 20.7539C25.7689 20.7539 27.8206 23.1546 27.8819 23.3052C27.9439 23.4551 27.9106 23.6482 27.796 23.7622C27.734 23.8241 27.734 23.8241 27.1885 24.0719C24.3834 25.3449 23.219 26.0223 22.7527 26.3807C25.3559 26.3028 37.6008 25.4595 45.9141 24.8593C47.7313 24.9659 54.6584 25.6646 55.3032 25.9164C55.9867 26.1855 56.1932 26.3641 56.5043 27.3699C56.6382 27.8029 56.6828 28.3665 56.7268 28.912C56.7634 29.3657 56.824 30.1244 56.9546 30.2649C57.4215 30.6573 57.6533 31.0803 57.6533 31.5279C57.6533 31.5606 57.5248 34.8413 56.4417 35.2902C55.7502 35.578 50.3219 37.2453 50.0908 37.3159C50.0528 37.3279 50.0141 37.3339 49.9748 37.3339L10.3233 37.4405ZM2.82403 32.246C2.87865 32.8209 2.99789 34.1352 2.99789 34.6547C2.99789 35.2203 3.33895 35.8405 3.50548 35.9051C3.86453 36.0263 7.3031 36.3754 10.3567 36.6432L49.9129 36.5346C51.872 35.9331 55.615 34.768 56.1346 34.5528C56.4923 34.3656 56.854 32.3599 56.854 31.5279C56.854 31.2248 56.5482 30.9677 56.4483 30.8831C56.4403 30.8758 56.3984 30.8391 56.3904 30.8318C56.0513 30.4921 55.9953 29.7893 55.9301 28.976C55.8901 28.4737 55.8488 27.9548 55.7402 27.6051C55.5091 26.857 55.4811 26.8463 55.0115 26.6605C54.5025 26.4793 48.0537 25.7865 45.9181 25.6566C22.4723 27.3546 22.1578 27.1954 22.0259 27.1268C21.8021 27.0122 21.6789 26.815 21.6836 26.5866C21.6982 26.0137 22.5489 25.2989 26.8581 23.3445L26.9027 23.3238C26.4417 22.8003 25.5092 21.853 25.1474 21.5906C24.5846 21.8703 22.5069 23.1074 20.8089 24.1185C18.3529 25.5807 16.8348 26.48 16.4558 26.6359C15.9308 26.8517 15.4139 26.9303 14.4787 27.0715C13.8705 27.1634 13.0711 27.2847 11.9547 27.4892C8.86984 28.0554 6.8055 28.557 5.26207 29.1145C3.81923 29.6348 3.55345 31.6618 3.55145 31.6818C3.53413 31.815 3.45286 31.9303 3.33362 31.9902L2.82403 32.246Z" fill="black"/>
<path d="M3.84013 32.5447C3.27392 32.5447 3.03411 32.2943 2.93153 32.0838C2.74234 31.6927 2.89755 31.1765 3.39382 30.5503C4.08926 29.6717 6.86437 29.2207 7.41326 29.1388C7.5265 29.1228 7.64241 29.1548 7.73034 29.23C7.81827 29.304 7.86956 29.4132 7.87089 29.5285C7.87556 29.8109 7.87622 30.7621 7.70303 31.1465C7.42059 31.776 4.41034 32.5447 3.84013 32.5447ZM3.66893 31.7354C3.69358 31.7354 3.75087 31.746 3.84013 31.746C4.48561 31.746 6.61124 31.0546 6.9896 30.7748C7.02824 30.6369 7.05555 30.3292 7.06621 30.0068C5.8645 30.2246 4.34439 30.6362 4.02065 31.0459C3.69758 31.4549 3.64629 31.6854 3.65428 31.7407C3.65428 31.736 3.65894 31.7354 3.66893 31.7354Z" fill="black"/>
<path d="M11.8539 32.6464C11.776 32.6464 11.6967 32.6237 11.6268 32.5758C11.385 32.4079 10.6822 31.9496 10.2665 31.7857L7.28559 31.3774C7.06643 31.3474 6.91322 31.1456 6.9432 30.9271C6.97384 30.7079 7.17368 30.5507 7.3935 30.5847L10.4204 30.9997C10.4491 31.0037 10.477 31.011 10.5037 31.021C11.0925 31.2362 12.0418 31.8903 12.0824 31.9183C12.2636 32.0442 12.3089 32.2933 12.183 32.4745C12.1057 32.5864 11.9805 32.6464 11.8539 32.6464Z" fill="black"/>
<path d="M6.20668 36.6792C6.19536 36.6792 6.18404 36.6792 6.17271 36.6778C5.95289 36.6599 5.78969 36.4667 5.80767 36.2469C5.86496 35.5541 5.81833 34.7994 5.70908 34.5649L2.70882 34.5116C2.48834 34.5076 2.31248 34.3257 2.31647 34.1052C2.32047 33.8874 2.49899 33.7129 2.71615 33.7129H2.72348L5.86096 33.7682C5.89627 33.7688 5.93157 33.7742 5.96621 33.7835C6.65166 33.9833 6.69163 35.2696 6.60436 36.3128C6.58638 36.522 6.41252 36.6792 6.20668 36.6792Z" fill="black"/>
<path d="M5.09934 34.5289C5.11266 34.9985 4.80291 35.3929 4.40523 35.4082C4.00755 35.4228 3.67515 35.0525 3.66049 34.5815C3.6485 34.1119 3.95892 33.7189 4.3566 33.7035C4.75361 33.6889 5.08535 34.0586 5.09934 34.5289Z" fill="white"/>
<path d="M4.3814 35.8087C4.11694 35.8087 3.86248 35.7055 3.66131 35.5169C3.41684 35.2885 3.26962 34.9521 3.2583 34.5944C3.24031 33.9049 3.72459 33.3274 4.33876 33.3041C4.62387 33.2894 4.88499 33.3973 5.09482 33.5945C5.33929 33.823 5.48518 34.1587 5.4965 34.5164V34.5177C5.51515 35.2045 5.03154 35.7834 4.41803 35.808C4.40604 35.8087 4.39339 35.8087 4.3814 35.8087ZM4.37607 34.1027H4.36807C4.19621 34.1094 4.05099 34.3279 4.05699 34.571C4.06165 34.7136 4.11761 34.8495 4.20687 34.9327C4.24617 34.9694 4.31478 35.016 4.38872 35.0087C4.56192 35.0027 4.7038 34.7875 4.69714 34.5397C4.69315 34.3958 4.63786 34.2606 4.54926 34.178C4.51196 34.1434 4.45201 34.1027 4.37607 34.1027Z" fill="black"/>
<path d="M7.47155 29.9323C7.27637 29.9323 7.10584 29.7897 7.07653 29.5906C7.04456 29.3721 7.19577 29.1689 7.41426 29.1376L19.2468 27.401L45.0734 26.8568L47.8764 25.0968C48.0663 24.9783 48.3121 25.0362 48.4273 25.2227C48.5452 25.4099 48.4886 25.6564 48.3021 25.7736L45.4051 27.5922C45.3438 27.6308 45.2732 27.6521 45.2013 27.6535L19.3127 28.1964L7.53017 29.9283C7.51085 29.931 7.49087 29.9323 7.47155 29.9323Z" fill="black"/>
<path d="M14.7278 27.0298C14.5087 27.0298 14.3301 26.8533 14.3281 26.6341C14.3261 26.413 14.5033 26.2331 14.7238 26.2311L18.6953 26.1945C20.5991 24.8515 25.9635 21.9639 26.1953 21.8393C26.3905 21.7334 26.6316 21.808 26.7362 22.0018C26.8414 22.1963 26.7682 22.4382 26.5736 22.5434C26.5164 22.5747 20.8196 25.6416 19.0597 26.9166C18.9917 26.9652 18.9111 26.9918 18.8285 26.9925L14.7318 27.0298H14.7278Z" fill="black"/>
<path d="M35.2979 35.4723C35.2613 35.4723 35.2246 35.467 35.1873 35.4563C34.9755 35.3951 34.8529 35.1739 34.9142 34.9614C35.3932 33.2994 36.6368 28.789 36.6368 27.8871C36.6368 27.6 36.1153 26.8406 35.6277 26.311C35.4784 26.1491 35.4884 25.896 35.651 25.7461C35.8135 25.5969 36.0666 25.6069 36.2159 25.7701C36.4197 25.9906 37.4355 27.1317 37.4355 27.8871C37.4355 29.0661 35.8615 34.5604 35.6816 35.1826C35.6316 35.3578 35.4718 35.4723 35.2979 35.4723Z" fill="black"/>
<path d="M19.3059 35.5725C19.0854 35.5725 18.9062 35.3934 18.9062 35.1729V27.7975C18.9062 27.577 19.0854 27.3984 19.3059 27.3984C19.5264 27.3984 19.7056 27.577 19.7056 27.7975V35.1729C19.7056 35.3934 19.5264 35.5725 19.3059 35.5725Z" fill="black"/>
<path d="M43.4399 35.6034H16.7473C16.5268 35.6034 16.3477 35.4242 16.3477 35.2037C16.3477 34.9832 16.5268 34.8047 16.7473 34.8047H43.4399C43.6604 34.8047 43.8396 34.9832 43.8396 35.2037C43.8396 35.4242 43.6604 35.6034 43.4399 35.6034Z" fill="black"/>
<path d="M34.032 30.4779C33.6756 30.4779 33.3359 30.4179 33.0694 30.3067C32.5438 30.0882 32.4592 29.7518 32.4552 29.5706C32.4432 29.0151 33.1034 28.6121 34.06 28.5914C34.4443 28.5788 34.8087 28.6434 35.0938 28.7626C35.6187 28.9818 35.7033 29.3175 35.7073 29.4987C35.7193 30.0536 35.0592 30.4566 34.1026 30.4772C34.0793 30.4779 34.0546 30.4779 34.032 30.4779ZM33.3339 29.5506C33.4718 29.6173 33.7389 29.6832 34.0839 29.6785C34.4343 29.6705 34.6934 29.5893 34.8287 29.5173C34.6908 29.4527 34.4157 29.3968 34.0786 29.3901C33.7282 29.3981 33.4691 29.4794 33.3339 29.5506Z" fill="black"/>
<path d="M47.786 32.4603C47.5808 32.4603 47.4069 32.3044 47.3883 32.0959C47.369 31.8761 47.5315 31.6822 47.7513 31.6629C49.8976 31.4737 52.4249 31.1213 52.766 30.8829C52.9891 30.6584 53.2089 29.9676 53.4214 29.2995C53.5447 28.9151 53.6712 28.5168 53.8158 28.1477C54.2448 27.0499 54.6125 26.4551 55.3206 26.4551C55.8928 26.4551 56.2652 26.8115 56.3051 26.8514C56.461 27.0073 56.4603 27.2604 56.3045 27.417C56.1486 27.5728 55.8954 27.5722 55.7389 27.4163C55.7389 27.4163 55.5637 27.2544 55.3206 27.2544C55.174 27.2544 54.9682 27.395 54.5599 28.4395C54.422 28.7925 54.3007 29.1736 54.1835 29.5419C53.919 30.3706 53.6912 31.086 53.3162 31.4611C52.8266 31.9507 49.6631 32.2964 47.8219 32.4589C47.8099 32.4603 47.798 32.4603 47.786 32.4603Z" fill="black"/>
<path d="M53.931 29.5741C53.7131 29.5741 53.5346 29.3989 53.5313 29.1805C53.5286 28.96 53.7045 28.7788 53.925 28.7754L56.0173 28.7441H56.0233C56.2411 28.7441 56.419 28.9193 56.4223 29.1378C56.4256 29.3583 56.2491 29.5395 56.0286 29.5428L53.937 29.5741H53.931Z" fill="black"/>
<path d="M50.5284 34.5119C50.3299 34.5119 50.1573 34.3641 50.132 34.1622C50.1047 33.9431 50.2606 33.7432 50.4797 33.7159C52.5387 33.4595 55.9267 33.0145 56.2524 32.9139C56.5455 32.8106 56.7673 32.5782 56.77 32.5755C56.9206 32.4143 57.173 32.407 57.3342 32.5562C57.4948 32.7061 57.5054 32.9572 57.3562 33.1191C57.3202 33.1577 56.9938 33.5008 56.5136 33.6686C56.1046 33.8132 51.8673 34.3487 50.5783 34.5093C50.5617 34.5113 50.545 34.5119 50.5284 34.5119Z" fill="black"/>
<path d="M54.5143 27.962H54.5096L47.5878 27.8834C47.5379 27.8827 47.4893 27.8734 47.4433 27.8547L45.8739 27.2259C45.6694 27.1433 45.5695 26.9108 45.6521 26.7056C45.734 26.5011 45.9678 26.4019 46.1723 26.4838L47.6718 27.0853L54.5189 27.1633C54.7394 27.1659 54.9166 27.3465 54.914 27.5669C54.912 27.7861 54.7328 27.962 54.5143 27.962Z" fill="black"/>
<path d="M32.8435 26.2421L31.418 26.0789C31.418 26.0789 32.2466 25.8298 32.0395 25.1197C31.833 24.4082 31.6544 24.4082 31.833 23.8174C32.0088 23.2272 32.5431 22.6343 32.8974 22.6343C33.2525 22.6343 33.5483 22.577 33.7847 23.1672C34.0225 23.7594 34.1431 24.8965 34.0225 25.3268C33.9 25.7565 34.293 26.0076 34.293 26.0076L32.8435 26.2421Z" fill="black"/>
<path d="M20.5596 28.3C20.5596 28.3 20.4644 27.2501 21.361 26.6586C22.2569 26.0651 22.8185 25.9912 23.041 26.1803C23.2628 26.3662 23.2628 26.6586 23.2628 27.4273C23.2628 28.1954 23.3261 28.7882 22.9137 28.8302C22.5027 28.8702 20.8141 28.8702 20.8141 28.8702C20.8141 28.8702 20.6868 28.8828 20.5969 28.5871C20.5037 28.29 20.5596 28.3 20.5596 28.3Z" fill="white"/>
<path d="M20.7934 29.2728C20.7022 29.2728 20.3731 29.2262 20.2145 28.7039C20.1626 28.5427 20.1193 28.3735 20.1566 28.221C20.1559 27.8873 20.2365 26.9227 21.1405 26.3265C22.3881 25.4992 23.0043 25.6244 23.2994 25.8782C23.6618 26.18 23.6618 26.597 23.6618 27.4283L23.6638 27.6961C23.6711 28.3795 23.6791 29.1549 22.9543 29.2288C22.5267 29.2715 20.8833 29.2715 20.8141 29.2715C20.8101 29.2721 20.8027 29.2728 20.7934 29.2728ZM20.8121 28.4728L20.7754 28.4734H20.8447L20.8121 28.4728ZM20.9506 28.3762C20.9573 28.4002 20.9659 28.4302 20.9779 28.4681L20.9793 28.4734C21.5348 28.4708 22.4954 28.4628 22.8298 28.4375C22.8711 28.3049 22.8671 27.9612 22.8644 27.7034L22.8631 27.4283C22.8631 26.902 22.8631 26.555 22.7845 26.489C22.7225 26.4664 22.3382 26.4924 21.5815 26.9933C20.9027 27.4416 20.9546 28.2343 20.9573 28.2683C20.9606 28.3049 20.9579 28.3409 20.9506 28.3762Z" fill="black"/>
<path d="M13.2235 31.5664C10.8107 31.5664 8.84766 33.5295 8.84766 35.9422C8.84766 38.3556 10.8107 40.3194 13.2235 40.3194C15.6362 40.3194 17.5993 38.3556 17.5993 35.9422C17.5993 33.5295 15.6362 31.5664 13.2235 31.5664Z" fill="black"/>
<path d="M15.6959 35.9427C15.6959 37.3076 14.5888 38.4134 13.2253 38.4134C11.8604 38.4134 10.7539 37.3076 10.7539 35.9427C10.7539 34.5778 11.8604 33.4727 13.2253 33.4727C14.5888 33.4727 15.6959 34.5778 15.6959 35.9427Z" fill="white"/>
<path d="M47.2782 31.5664C44.8654 31.5664 42.9023 33.5295 42.9023 35.9422C42.9023 38.3556 44.8654 40.3194 47.2782 40.3194C49.6909 40.3194 51.654 38.3556 51.654 35.9422C51.654 33.5295 49.6909 31.5664 47.2782 31.5664Z" fill="black"/>
<path d="M49.7467 35.9427C49.7467 37.3076 48.6396 38.4134 47.276 38.4134C45.9111 38.4134 44.8047 37.3076 44.8047 35.9427C44.8047 34.5778 45.9111 33.4727 47.276 33.4727C48.6396 33.4727 49.7467 34.5778 49.7467 35.9427Z" fill="white"/>
<path d="M13.2235 31.5664C10.8107 31.5664 8.84766 33.5295 8.84766 35.9422C8.84766 38.3556 10.8107 40.3194 13.2235 40.3194C15.6362 40.3194 17.5993 38.3556 17.5993 35.9422C17.5993 33.5295 15.6362 31.5664 13.2235 31.5664Z" fill="black"/>
<path d="M15.6959 35.9427C15.6959 37.3076 14.5888 38.4134 13.2253 38.4134C11.8604 38.4134 10.7539 37.3076 10.7539 35.9427C10.7539 34.5778 11.8604 33.4727 13.2253 33.4727C14.5888 33.4727 15.6959 34.5778 15.6959 35.9427Z" fill="white"/>
</g>
</svg>
