<svg width="24" height="24" viewBox="0 0 24 24" fill="none" xmlns="http://www.w3.org/2000/svg">
<path fill-rule="evenodd" clip-rule="evenodd" d="M16 4C16.4387 3.99999 16.8491 3.99998 17.1624 4.02135C17.4922 4.04386 17.8221 4.09336 18.1481 4.22836C18.8831 4.53285 19.4672 5.11687 19.7716 5.85195C19.9066 6.17788 19.9561 6.50779 19.9787 6.83762C19.9822 6.88921 19.9851 6.94344 19.9876 7H22V9H19.9876C19.9851 9.05656 19.9822 9.11079 19.9787 9.16238C19.9561 9.49221 19.9066 9.82212 19.7716 10.1481C19.4672 10.8831 18.8831 11.4672 18.1481 11.7716C17.8221 11.9066 17.4922 11.9561 17.1624 11.9787C16.8491 12 16.4387 12 16 12C15.5614 12 15.1509 12 14.8376 11.9787C14.5078 11.9561 14.1779 11.9066 13.852 11.7716C13.1169 11.4672 12.5328 10.8831 12.2284 10.1481C12.0934 9.82212 12.0439 9.49221 12.0214 9.16238C12.0178 9.11079 12.0149 9.05656 12.0124 9H2V7H12.0124C12.0149 6.94344 12.0178 6.88921 12.0214 6.83762C12.0439 6.50779 12.0934 6.17788 12.2284 5.85195C12.5328 5.11687 13.1169 4.53285 13.852 4.22836C14.1779 4.09336 14.5078 4.04386 14.8376 4.02135C15.1509 3.99998 15.5613 3.99999 16 4ZM14.9738 6.01671C14.7458 6.03227 14.6589 6.05889 14.6173 6.07612C14.3723 6.17762 14.1776 6.37229 14.0761 6.61732C14.0589 6.65893 14.0323 6.74576 14.0167 6.97376C14.0005 7.21074 14 7.52038 14 8C14 8.47963 14.0005 8.78926 14.0167 9.02624C14.0323 9.25424 14.0589 9.34107 14.0761 9.38269C14.1776 9.62771 14.3723 9.82239 14.6173 9.92388C14.6589 9.94112 14.7458 9.96774 14.9738 9.98329C15.2107 9.99946 15.5204 10 16 10C16.4796 10 16.7893 9.99946 17.0262 9.98329C17.2542 9.96774 17.3411 9.94112 17.3827 9.92388C17.6277 9.82239 17.8224 9.62771 17.9239 9.38269C17.9411 9.34107 17.9677 9.25424 17.9833 9.02624C17.9995 8.78926 18 8.47963 18 8C18 7.52038 17.9995 7.21074 17.9833 6.97376C17.9677 6.74576 17.9411 6.65893 17.9239 6.61732C17.8224 6.37229 17.6277 6.17762 17.3827 6.07612C17.3411 6.05889 17.2542 6.03227 17.0262 6.01671C16.7893 6.00054 16.4796 6 16 6C15.5204 6 15.2107 6.00054 14.9738 6.01671Z" fill="black"/>
<path fill-rule="evenodd" clip-rule="evenodd" d="M4.01244 15H2V17H4.01244C4.01489 17.0566 4.01783 17.1108 4.02135 17.1624C4.04386 17.4922 4.09336 17.8221 4.22836 18.1481C4.53284 18.8831 5.11687 19.4672 5.85195 19.7716C6.17788 19.9066 6.50779 19.9561 6.83762 19.9787C7.15084 20 7.56125 20 7.99984 20C8.43842 20 8.84917 20 9.16238 19.9787C9.49221 19.9561 9.82212 19.9066 10.1481 19.7716C10.8831 19.4672 11.4672 18.8831 11.7716 18.1481C11.9066 17.8221 11.9561 17.4922 11.9787 17.1624C11.9822 17.1108 11.9851 17.0566 11.9876 17H22V15H11.9876C11.9851 14.9434 11.9822 14.8892 11.9787 14.8376C11.9561 14.5078 11.9066 14.1779 11.7716 13.852C11.4672 13.1169 10.8831 12.5328 10.1481 12.2284C9.82212 12.0934 9.49221 12.0439 9.16238 12.0214C8.84913 12 8.43865 12 8 12C7.56135 12 7.15088 12 6.83762 12.0214C6.50779 12.0439 6.17788 12.0934 5.85195 12.2284C5.11687 12.5328 4.53284 13.1169 4.22836 13.852C4.09336 14.1779 4.04386 14.5078 4.02135 14.8376C4.01783 14.8892 4.01489 14.9434 4.01244 15ZM6.61732 14.0761C6.65893 14.0589 6.74576 14.0323 6.97376 14.0167C7.21074 14.0005 7.52038 14 8 14C8.47963 14 8.78926 14.0005 9.02624 14.0167C9.25424 14.0323 9.34107 14.0589 9.38268 14.0761C9.62771 14.1776 9.82239 14.3723 9.92388 14.6173C9.94112 14.6589 9.96773 14.7458 9.98329 14.9738C9.99946 15.2107 10 15.5204 10 16C10 16.4796 9.99946 16.7893 9.98329 17.0262C9.96773 17.2542 9.94112 17.3411 9.92388 17.3827C9.82239 17.6277 9.62771 17.8224 9.38268 17.9239C9.34107 17.9411 9.25424 17.9677 9.02624 17.9833C8.78926 17.9995 8.47963 18 8 18C7.52038 18 7.21074 17.9995 6.97376 17.9833C6.74576 17.9677 6.65893 17.9411 6.61732 17.9239C6.37229 17.8224 6.17762 17.6277 6.07612 17.3827C6.05888 17.3411 6.03227 17.2542 6.01671 17.0262C6.00054 16.7893 6 16.4796 6 16C6 15.5204 6.00054 15.2107 6.01671 14.9738C6.03227 14.7458 6.05888 14.6589 6.07612 14.6173C6.17762 14.3723 6.37229 14.1776 6.61732 14.0761Z" fill="black"/>
</svg>
