<svg fill="none" height="118" viewBox="0 0 117 118" width="117" xmlns="http://www.w3.org/2000/svg" xmlns:xlink="http://www.w3.org/1999/xlink"><clipPath id="a"><path d="m0 .085938h117v117h-117z"/></clipPath><mask id="b" height="320" maskUnits="userSpaceOnUse" width="331" x="-85" y="-143"><path d="m245.672-142.723h-330.672v318.864h330.672z" fill="#fff"/></mask><g clip-path="url(#a)"><g mask="url(#b)"><path d="m225.652 101.781h-124.632v15.712h124.632z" stroke="#c9c9c9" stroke-linecap="round" stroke-linejoin="round" stroke-width="2"/><path d="m101.008 162.915v-45.423h124.632v52.099" stroke="#c9c9c9" stroke-linecap="round" stroke-linejoin="round" stroke-width="2"/><path d="m25.7422-133.16.7942 278.247" stroke="#c9c9c9" stroke-linecap="round" stroke-linejoin="round" stroke-width="2"/><path d="m36.069 144.727h53.8821l10.6589-174.6254-37.406 2.7031s-23.3974 40.5442-25.5488 99.5993c-2.1515 59.055-1.5862 72.323-1.5862 72.323z" fill="#f8f8f6"/><path d="m60.5762-35.5625-6.6483 6.3516c-4.0086.6256-8.8067 1.7554-13.2684 3.7162-10.1289 4.4585-17.263 10.8101-21.8416 21.36337-4.2468 9.70129-35.124 69.99353-28.8005 92.04793 3.23302 11.3283 8.57077 12.1544 17.08314 11.529 4.59256-.3431 12.18686-3.0906 13.26376-3.5527-.8947 8.6161-.9344 17.5651-2.0299 27.6561-.2686 2.376-.0352 4.782.6851 7.062.7203 2.279 1.9113 4.383 3.4963 6.174l-1.168 12.521c5.4849.817 9.8298 1.94 15.3638 1.594 2.336-.149 5.4966.059 7.5873-.252-1.0792-20.969.4439-44.44 1.8688-70.2852 2.1561-38.2706 9.0123-83.04687 21.4912-107.4705l.4205-5.1915c-1.2967-.3062-2.5632-.7281-3.7843-1.2605-1.2973-.5548-2.5419-1.2251-3.7189-2.0028z" fill="#becbda"/><path d="m95.9439-45.3823-.0864 5.3829s-4.0179 20.1706-5.7442 27.687c-1.7263 7.51638-5.5714 25.4577-6.9052 40.5022-1.3339 15.0445 0 36.6133 0 36.6133l.8713 73.2269.1939 12.644s18.9627-.078 26.0847-.38c7.123-.301 19.69-1.983 19.69-1.682s.862-16.151.862-16.151c1.821-2.737 3.271-5.703 4.312-8.821 2.154-6.02-.612-32.1759-.612-32.1759 7.559.747 17.489 2.0811 25.041 1.2524 7.569-.2801 10.444-5.7634 12.019-9.6943 4.333-12.3554-13.617-62.6103-25.958-89.53393-4.361-9.51687-11.965-17.04027-21.39-21.60617-5.574-2.6617-11.406-4.7477-17.404-6.2255-1.175-3.7376-2.605-7.39-4.281-10.9315-.738-1.2518-1.769-2.3064-3.0033-3.0735-1.2347-.7671-2.637-1.2239-4.0869-1.3313z" fill="#becbda"/><path d="m-1.02682 67.7208c1.154047-5.9785 6.00952-7.7602 11.62542-10.149l5.6919-2.4018" stroke="#000" stroke-linecap="round" stroke-linejoin="round" stroke-width="2"/><path d="m96.4834 50.3906s7.9426 2.5864 10.7756 2.8665c4.978-2.6727 16.525-7.3156 51.474 8.051" stroke="#000" stroke-linecap="round" stroke-linejoin="round" stroke-width="2"/><path d="m136.335 92.0664c-22.446-5.9127-28.396-12.3717-29.744-15.9478l-.343-.9174-11.2412-2.6261.6471-3.6298" stroke="#000" stroke-linecap="round" stroke-linejoin="round" stroke-width="2"/><path d="m60.574-35.6484-5.2864 5.5276c-26.8826 8.987-28.5716 11.0458-36.4696 25.91054-4.6299 8.69755-29.2863 58.12376-29.6671 85.31346-.0537 3.8516 1.27546 19.7508 16.21415 18.9448 9.12675-.714 13.91785-3.7742 14.99475-4.2364-.8924 8.6134-1.5301 17.5704-2.6186 27.6594-.2676 2.375-.0337 4.78.6865 7.06s1.9108 4.383 3.4949 6.175l-.5209 13.38c5.4849.817 21.2084 1.167 23.2992.864-1.0793-20.969.0373-44.819 1.46-70.6684 2.1561-38.2707 9.0123-83.04694 21.4795-107.4706l.4204-5.1914c-1.2932-.3085-2.5565-.7311-3.7749-1.2629-1.2951-.5555-2.5374-1.2266-3.7119-2.0051z" stroke="#000" stroke-linecap="round" stroke-linejoin="round" stroke-width="2"/><path d="m95.6206-49.6602c1.4498.1084 2.8517.567 4.085 1.3363 1.2334.7693 2.2614 1.8263 2.9954 3.0802 1.698 3.632 3.146 7.3756 4.333 11.2046 0 0 5.607 1.0107 14.105 4.4351 10.626 4.2764 18.943 11.9049 23.944 22.20843 10.33 21.26767 26.586 63.15877 27.373 84.96807.281 7.7591-3.548 14.064-13.007 15.6397-7.367 1.2231-19.526-.3678-24.903-1.4906 1.079 8.3774 2.569 26.0814.355 32.1014-1.04 3.12-2.49 6.09-4.31 8.83 0 0-.85 16.156-.862 16.156-2.757.401-13.059 1.142-20.163 1.431-7.104.29-25.303.37-25.303.37l-.1939-12.643-.862-73.2308s-1.3361-21.5361 0-36.6133c1.3362-15.0771 5.1953-32.9741 6.9193-40.5022.7639-3.3147 2.0463-8.7115 3.4596-14.1598" stroke="#000" stroke-linecap="round" stroke-linejoin="round" stroke-width="2"/><path d="m76.3959 38.4548c-1.8812 1.1859-3.7991 2.4643-5.7536 3.8353-.5606.3875-1.1306.7866-1.6912 1.2045-4.053 2.9085-7.7088 5.817-10.9792 8.6158l-2.6116.3782c-.2682.0307-.5202.1444-.7206.3252-.2005.1807-.3394.4194-.3976.6829-.0581.2635-.0325.5385.0733.7867s.2866.4572.5169.5978c-2.5111.3548-5.1392.7843-7.8349 1.2909-2.6957.5065-5.5923 1.0784-8.5123 1.8207l-1.077.2475c-5.3891 1.3352-10.4862 2.8314-15.0881 4.4048l-5.0551-6.6995-3.6419-4.7596 8.6759-2.0775 10.4303-2.6377 13.1703-3.3194 8.809-2.5957.3668-.1284 17.2443-10.607z" fill="#8fc1a7"/><path d="m20.3691 95.8065s7.4765-5.6562 8.5208-11.8338" stroke="#000" stroke-linecap="round" stroke-linejoin="round" stroke-width="2"/><path d="m54.8958 55.6907c-5.3892.7656-11.1754 1.8417-17.3728 3.359-6.3431 1.5549-12.5959 3.4571-18.73 5.698-.2197.0624-.4225.1732-.5934.3245-.1726.1501-.3085.3377-.3971.5485-.0866.2129-.1195.4438-.0958.6723.024.2292.1043.4488.2336.6396l13.0816 20.0749 21.5846-6.8932 14.9036-3.2306 28.9664-15.7868-10.6265-27.3625c-11.165 6.0468-21.5584 13.4189-30.9542 21.9563z" fill="#917f76"/><path d="m14.2131 80.7368 2.2519 4.3721c.173.3374.4286.6256.7429.838.313.2196.6775.3546 1.0582.3922.3775.0376.7585-.021 1.1072-.1704.3484-.1504.6542-.3846.8901-.6817 1.9764-2.6004 4.4667-4.7671 7.3163-6.3656 2.0951-1.177 4.3598-2.0234 6.7136-2.5093.3294-.0723.6383-.2175.9041-.4249.4024-.3111.6883-.7486.8116-1.2419.1233-.4934.0769-1.0138-.1319-1.4775l-1.6351-3.6835c-.1956-.4334-.5225-.7944-.9346-1.0319-.412-.2375-.8884-.3395-1.3617-.2917-3.4368.3713-6.7616 1.4395-9.7709 3.1393-3.0093 1.6999-5.6398 3.9955-7.7304 6.7465-.261.3383-.4199.7441-.4579 1.1696-.0381.4255.0462.8531.243 1.2323z" fill="#917f76"/><path d="m26.3141 79.8669 4.6556 7.1499 21.636-6.9025 14.9037-3.2306 28.9663-15.7868-10.6264-27.3625c-11.1676 6.0463-21.5633 13.4184-30.9613 21.9563-5.3892.7656-11.1754 1.8417-17.3728 3.359-6.3431 1.5549-12.5959 3.4571-18.7301 5.698-.2196.0624-.4223.1732-.5933.3245-.1726.15-.3085.3377-.3971.5485-.0866.2129-.1195.4438-.0958.6723.024.2292.1043.4488.2336.6396l3.2424 4.9323" stroke="#000" stroke-linecap="round" stroke-linejoin="round" stroke-width="2"/><path d="m14.2131 80.7368 2.2519 4.3721c.173.3374.4286.6256.7429.838.313.2196.6775.3546 1.0582.3922.3775.0376.7585-.021 1.1072-.1704.3484-.1504.6542-.3846.8901-.6817 1.9764-2.6004 4.4667-4.7671 7.3163-6.3656 2.0951-1.177 4.3598-2.0234 6.7136-2.5093.3294-.0723.6383-.2175.9041-.4249.4024-.3111.6883-.7486.8116-1.2419.1233-.4934.0769-1.0138-.1319-1.4775l-1.6351-3.6835c-.1956-.4334-.5225-.7944-.9346-1.0319-.412-.2375-.8884-.3395-1.3617-.2917-3.4368.3713-6.7616 1.4395-9.7709 3.1393-3.0093 1.6999-5.6398 3.9955-7.7304 6.7465-.261.3383-.4199.7441-.4579 1.1696-.0381.4255.0462.8531.243 1.2323z" stroke="#000" stroke-linecap="round" stroke-linejoin="round" stroke-width="2"/><path d="m19.4061 81.1045c.3474 0 .687-.1029.9759-.2958s.5141-.4671.647-.7878c.133-.3208.1678-.6737.1-1.0142s-.2351-.6533-.4808-.8988c-.2456-.2455-.5587-.4127-.8994-.4804-.3408-.0678-.694-.033-1.015.0999-.321.1328-.5953.3578-.7883.6465-.1931.2887-.2961.628-.2961.9752 0 .4656.1851.9121.5145 1.2413.3295.3292.7763.5141 1.2422.5141z" stroke="#000" stroke-linecap="round" stroke-linejoin="round" stroke-width="2"/><path d="m63.1602 63.4609 3.5343 7.1943" stroke="#000" stroke-linecap="round" stroke-linejoin="round" stroke-width="2"/><path d="m73.6154 57.6398-9.8392 1.1531c-1.623.1272-3.2548-.0827-4.7925-.6166-1.5378-.5339-2.9483-1.3803-4.1427-2.4857-.1696-.105-.3126-.2479-.4177-.4175-.105-.1695-.1694-.3611-.1879-.5596-.0186-.1986.0092-.3988.081-.5848.0719-.1861.1858-.3529.3331-.4876.1935-.18.4385-.2951.7008-.3291l4.672-.7003c1.4663-.1773 2.911-.5019 4.3122-.9687l16.3263-5.3829c.9634-.3242 1.9835-.4457 2.9961-.3569 1.0127.0888 1.9961.3859 2.8883.8728l10.0751 5.4926c.9982 2.8002 1.4054 5.7767 1.1959 8.7419-.2094 2.9653-1.031 5.855-2.413 8.4874-4.8402.8194-10.4115 2.0029-10.4115 2.0029l-11.4113 7.3436c-1.4347.9283-3.1076 1.422-4.8169 1.4216h-2.0159c-1.0031.6873-2.1359 1.1631-3.3291 1.3983-1.1933.2351-2.422.2248-3.6111-.0304l-7.2019-1.5196 10.9067-3.5015z" fill="#b97853"/><g stroke-linecap="round" stroke-linejoin="round" stroke-width="2"><path d="m73.6154 57.6398-9.8392 1.1531c-1.623.1272-3.2548-.0827-4.7925-.6166-1.5378-.5339-2.9483-1.3803-4.1427-2.4857-.1696-.105-.3126-.2479-.4177-.4175-.105-.1695-.1694-.3611-.1879-.5596-.0186-.1986.0092-.3988.081-.5848.0719-.1861.1858-.3529.3331-.4876.1935-.18.4385-.2951.7008-.3291l4.672-.7003c1.4663-.1773 2.911-.5019 4.3122-.9687l16.3263-5.3829c.9634-.3242 1.9835-.4457 2.9961-.3569 1.0127.0888 1.9961.3859 2.8883.8728l10.0751 5.4926c.9982 2.8002 1.4054 5.7767 1.1959 8.7419-.2094 2.9653-1.031 5.855-2.413 8.4874-4.8402.8194-10.4115 2.0029-10.4115 2.0029l-11.4113 7.3436c-1.4347.9283-3.1076 1.422-4.8169 1.4216h-2.0159c-1.0031.6873-2.1359 1.1631-3.3291 1.3983-1.1933.2351-2.422.2248-3.6111-.0304l-7.2019-1.5196 10.9067-3.5015z" stroke="#000"/><path d="m79.1522 70.1328-12.4579 10.1355" stroke="#000"/><path d="m29.0309-4.21484c-.9717 16.14394-2.5065 35.71454-2.5065 52.69184" stroke="#000"/><path d="m54.9697 41.1851 17.2864-10.607 4.1487 8.6579" stroke="#000"/><path d="m55.288-30.1211-8.3232 9.1177c2.6279 1.8438 5.6113 3.1205 8.76 3.7489-2.0907 2.3039-7.5429 4.155-7.5429 4.155s2.4995 36.2702 2.4995 48.3851" stroke="#000"/><path d="m22.3829 63.4623-8.8067-11.5127 8.6875-2.0775 28.1044-7.1079 5.0551-1.7344 12.64-2.6587 2.5883 4.6849" stroke="#000"/><path d="m106.236-36.2734s3.34 9.5822 6.034 15.3432c-4.71 1.5943-12.6149 3.9543-12.6149 3.9543l7.4259 7.53743s-21.1334 27.00767-22.9882 43.07457" stroke="#000"/></g><path d="m52.6689 38.9234 3.7535-1.2934.6959 1.1849-1.299.9491-3.1356 2.3528z" fill="#b97853"/><path d="m23.0275 49.2961s-1.9108-6.1914 1.3273-10.119c1.1423-1.3855 5.5342-3.0762 5.5342-3.0762.2969-.5661.7263-1.0522 1.2517-1.4169.5253-.3647 1.131-.5972 1.7656-.6777 2.1863-.2665 3.278-.0692 3.278-.0692s1.8893-2.0367 3.6671-1.9942c1.1172.0371 2.2205.2591 3.2649.6571 0 0 .9972-1.2261 3.3466-.9679 3.0563.1534 5.8758 6.97 6.4035 12.1992.1326 1.2711 0 6.5427-2.5435 6.9074-1.9318.277-2.2988-2.8453-2.6033-4.0455.1213 1.2144.9283 4.3051-1.4184 5.5289-3.5577.9826-3.7941-3.8273-4.4083-5.2885.6303 2.6283.9014 5.4284-1.1832 5.8122-2.807.5182-3.4195-2.2827-3.7328-3.2169.5996 3.1012-1.9231 2.9418-3.8883 1.6488-1.5694-1.0253-3.5507-3.6723-3.5507-3.6723z" fill="#b97853" stroke="#000" stroke-linecap="round" stroke-linejoin="round" stroke-width="2"/><path d="m47.7289 46.6915s-.5107-5.8944-3.6371-9.8634" stroke="#000" stroke-linecap="round" stroke-linejoin="round" stroke-width="2"/><path d="m42.1126 48.0464c-.4442-2.425-1.3783-6.3143-4.2835-10.2652" stroke="#000" stroke-linecap="round" stroke-linejoin="round" stroke-width="2"/><path d="m36.97 49.5255s-2.4323-6.3564-5.2425-9.0333" stroke="#000" stroke-linecap="round" stroke-linejoin="round" stroke-width="2"/><path d="m25.5703 43.2852 2.0191.8259 1.9215 3.9295" fill="#b97853"/><path d="m25.5703 43.2852 2.0191.8259s1.5462 3.1604 2.7934 4.4524" stroke="#000" stroke-linecap="round" stroke-linejoin="round" stroke-width="2"/><path d="m51.9957 38.3434c1.7314-1.0817 5.3959-2.6507 5.7858 1.2253" stroke="#000" stroke-linecap="round" stroke-linejoin="round" stroke-width="2"/></g></g></svg>