<svg fill="none" height="24" viewBox="0 0 24 24" width="24" xmlns="http://www.w3.org/2000/svg"><g clip-rule="evenodd" fill="#21201f" fill-rule="evenodd"><path d="m9.50224 11.598v-5.09801l3.14146-.00002c.5751 0 1.098.06797 1.5686.20392.481.12549.8889.32418 1.2235.59608.3347.27189.5961.61699.7843 1.03529.1883.4183.2824.91504.2824 1.4902 0 .58564-.0994 1.08234-.2981 1.49024-.1882.3973-.4549.7268-.8.9882-.345.2614-.7581.4497-1.2392.5647-.481.115-1.0091.1725-1.5843.1725l-.8355.0001v.9411h3.0588v1.4432h-3.0588v2.0745h-2.24316v-2.0745h-1.50255v-1.4432h1.50255v-.9411h-1.50255v-1.4432zm2.24316-3.35683v3.35683h.8669c1.1085 0 1.6627-.5856 1.6627-1.75685 0-.58563-.1307-.9987-.3921-1.23922-.251-.24052-.6641-.36078-1.2392-.36078z"/><path d="m4.88328 3.60596c.53988-.3367 1.18989-.48631 2.11672-.55279v-1.05317h2v1.00084c.26438-.00084.54391-.00084.83994-.00084h4.32006c.296 0 .5756 0 .84.00084v-1.00084h2v1.05317c.9268.06648 1.5768.21609 2.1167.55279.5176.32281.9545.75972 1.2773 1.27732.606.97163.606 2.29999.606 4.95672v4.32c0 2.6567 0 3.9851-.606 4.9567-.3228.5176-.7597.9545-1.2773 1.2773-.9716.606-2.3.606-4.9567.606h-4.32c-2.65673 0-3.98509 0-4.95672-.606-.5176-.3228-.95451-.7597-1.27732-1.2773-.60596-.9716-.60596-2.3-.60596-4.9567v-4.32c0-2.65673 0-3.98509.60596-4.95672.32281-.5176.75972-.95451 1.27732-1.27732zm4.95672 1.39404c-.30277 0-.5818.00011-.84.00097v.99903h-2v-.94067c-.02645.0023-.05255.0047-.07834.00718-.63691.06141-.86469.16454-.98002.23647-.2588.1614-.47726.37986-.63866.63866-.07193.11533-.17506.34311-.23647.98002-.0501.51964-.0625 1.17018-.06554 2.07834l-.00097 5.16c0 1.3677.00217 2.251.06651 2.9183.06141.637.16454.8647.23647.9801.1614.2588.37986.4772.63866.6386.11533.0719.34311.1751.98002.2365.66738.0643 1.55067.0665 2.91834.0665h4.32c1.3677 0 2.251-.0022 2.9183-.0665.637-.0614.8647-.1646.9801-.2365.2588-.1614.4772-.3798.6386-.6386.0719-.1154.1751-.3431.2365-.9801.0643-.6673.0665-1.5506.0665-2.9183l-.001-5.16c-.003-.90816-.0154-1.5587-.0655-2.07834-.0614-.63691-.1646-.86469-.2365-.98002-.1614-.2588-.3798-.47726-.6386-.63866-.1154-.07193-.3431-.17506-.9801-.23647-.0257-.00248-.0519-.00488-.0783-.00718v.94067h-2v-.99903c-.2582-.00086-.5372-.00097-.84-.00097z"/></g></svg>