<svg fill="none" height="117" viewBox="0 0 117 117" width="117" xmlns="http://www.w3.org/2000/svg" xmlns:xlink="http://www.w3.org/1999/xlink"><clipPath id="a"><path d="m0 0h117v117h-117z"/></clipPath><g clip-path="url(#a)"><g stroke="#c9c9c9"><path d="m128.439 41.2802c-34.2043-1.1275-72.5416-1.5259-102.4292-1.2197" stroke-linecap="round" stroke-linejoin="round" stroke-width="1.8"/><path d="m129.429 69.648c-5.926-.9274-14.092-1.2257-15.599-1.2376-.664-.043-1.331.0305-1.961.2163-.631.1857-1.211.4798-1.707.8646-.498.385-.9.8533-1.183 1.3766-.282.5234-.44 1.0909-.462 1.6683-.174 4.214-.04 8.4332.399 12.6326 0 0 .363 3.4362 3.12 18.2582l15.337 1.08" stroke-linecap="round" stroke-linejoin="round" stroke-width="1.8"/><path d="m128.559 56.9826s-48.6436-7.9664-122.99823-5.187m-25.56077 1.3404c4.3297-.2922 8.591-.5467 12.78039-.7664" stroke-linecap="round" stroke-linejoin="round" stroke-width="1.8"/><path d="m-16.602 83.0488c.2944-31.7155 26.2579-57.192 58.0022-56.8978 31.7444.2941 57.2367 26.2499 56.9437 57.9668-.2929 31.7172-26.2592 57.1922-58.0022 56.9002-31.7429-.291-57.238-26.244-56.9437-57.9692zm9.82816.0905c-.24341 26.2927 20.88884 47.8037 47.20194 48.0467 26.313.243 47.8316-20.872 48.082-47.1658.2505-26.2938-20.7982-43.8027-47.1099-44.0459-5.1618-.0478-10.2301-3.27-14.8992-1.7957-19.13074 6.0409-33.07919 23.832-33.27484 44.9663z" stroke-width="1.8"/><path d="m60.4758 96.8059c-.87 1.8271-2.1605 3.4221-3.7659 4.6551s-3.48 2.069-5.4707 2.439c-2.7383.502-15.2835 1.502-18.1138 1.436-1.914-.043-3.7941-.514-5.502-1.379s-3.2001-2.101-4.3671-3.617c-3.0153-3.9506-5.623-8.1957-7.7833-12.6706-1.0075-2.09-1.868-4.1235-2.6038-6.0806-2.3053-6.1316 1.4632-12.8599 7.8865-14.1665 5.5983-1.1313 30.9915-3.2156 36.4483-3.0276 6.671.2291 11.5206 6.4483 10.0475 12.9546-.4953 2.1862-1.0968 4.4728-1.8256 6.8273-1.3384 4.3252-2.9929 8.5463-4.9501 12.6293z" stroke-linecap="round" stroke-linejoin="round" stroke-width="1.8"/><path d="m-4.01953 69.6429c27.77723-9.9103 57.64343-12.4918 86.71113-7.4947" stroke-linecap="round" stroke-linejoin="round" stroke-width="1.8"/><path d="m88.1267 84.6662h-8.814c-3.7883-.1414-7.2582 2.2074-8.9069 6.0156l-3.6525 8.4422c-2.3052 5.324-6.9228 8.854-12.1942 9.323l-23.6441 2.107c-5.27.47-10.4395-2.19-13.649-7.024l-5.0945-7.6641c-2.29533-3.4575-6.12469-5.1516-9.82952-4.3498l-7.72382 1.6644" stroke-linecap="round" stroke-linejoin="round" stroke-width="1.8"/></g><path d="m114.091 111.935-14.4731 24.898s-15.3561-8.135-18.4279-10.702c-3.0717-2.567-4.039-8.207-5.6362-8.589-1.5973-.383-8.6534-2.655-13.4884-6.118s-16.9553-15.774-16.9553-15.774l-9.1445-5.9276s-3.9147-.7742-5.4033-2.9604-4.4659-5.7428-3.9508-7.4483c.3871-1.2083.8656-2.3853 1.4314-3.521 0 0-4.0826-5.4432-4.0971-8.8505-.0144-3.4074.0909-7.0073 1.285-7.9723 1.1942-.9649 2.1095-1.1125 2.1095-1.1125s-2.6277-2.3678-2.8066-4.8955c-.1788-2.5277 1.7705-7.614 1.7705-7.614s-3.8091-2.3754-4.8525-5.2043c-1.0434-2.829-.9832-5.2867 1.3329-5.9312 2.316-.6445 6.0041 1.242 6.0041 1.242l4.4386 2.9533 43.4135-6.2118 3.5183.2665s1.7478 7.0607 3.5173 10.3037c1.7694 3.2431 8.6518 14.0832 10.5025 16.4796 1.8508 2.3963 6.1641 13.2421 6.8061 17.2214.642 3.9792 1.581 7.2267 1.798 9.5727s-.527 5.5046 1.926 8.0528c2.454 2.5481 9.382 17.8424 9.382 17.8424z" fill="#b97853"/><path d="m115.628 107.819c-6.339-4.68-9.778-12.0677-11.097-14.0934-2.413-3.7262-1.009-5.6405-2.281-11.0315-1.172-4.9714-5.5629-19.2224-8.1295-23.3764-2.0931-3.3824-6.4982-9.3999-10.0201-15.9187-2.7534-5.0958-2.5445-10.4713-4.3937-11.1858-2.6836-1.0128-6.4021 2.2436-6.2432 8.699.159 6.4555 4.4044 9.8584 4.6034 14.9654" stroke="#000" stroke-linecap="round" stroke-linejoin="round" stroke-width="1.8"/><path d="m86.9621 134.652c-6.2691-6.576-9.4685-15.914-11.0936-16.756-3.2024-1.641-7.3928-2.384-14.2291-7.43-7.0956-5.24-15.7078-13.6574-15.7078-13.6574" stroke="#000" stroke-linecap="round" stroke-linejoin="round" stroke-width="1.8"/><path d="m35.7642 89.0829s-2.6954-.9462-4.4051-2.2689c-2.4893-1.8975-4.7955-5.3567-4.4426-8.2254.3093-2.6787 6.1483-8.774 8.1489-8.4415s3.8739 2.8604 1.8463 7.0673c-.7385 1.549-1.8073 2.9178-3.1312 4.0101" stroke="#000" stroke-linecap="round" stroke-linejoin="round" stroke-width="1.8"/><path d="m28.1001 75.4126s-3.6809-4.7213-4.2022-8.5243c-.5371-3.9708 1.0982-7.2181 2.4823-8.1434 1.8584-1.2403 8.9846-4.3587 10.5997-3.5118 1.6152.8468 3.4655 4.1072.8396 7.9436-2.454 3.582-7.3509 4.7518-7.3509 4.7518" stroke="#000" stroke-linecap="round" stroke-linejoin="round" stroke-width="1.8"/><path d="m32.3762 53.1033s3.2138-2.5917 2.5759-6.7555c-.6947-4.4746-5.5557-5.1843-6.7281-4.2281-1.6581 1.3517-4.6446 8.2414-3.8105 11.0474.4787 1.6234 1.9223 3.4323 3.266 4.8417" stroke="#000" stroke-linecap="round" stroke-linejoin="round" stroke-width="1.8"/><path d="m26.1217 45.2892s-7.8352-5.814-4.8773-9.5576c3.3227-4.2151 11.3834 2.5634 11.3834 2.5634" stroke="#000" stroke-linecap="round" stroke-linejoin="round" stroke-width="1.8"/><path d="m125.729 119.828-11.616-19.433s-7.017-.7655-20.1733 7.729c-13.1563 8.495-16.3563 14.385-16.3563 14.385s4.6122 7.967 9.2068 16.716c3.1665.682 11.8822.331 24.7728-9.059 9.788-7.132 14.166-10.338 14.166-10.338z" fill="#c0cddc"/><path d="m125.73 119.827-11.232-18.757c-1.744-2.5701-9.937.638-21.397 7.775-11.4602 7.138-16.7576 11.043-15.5636 13.761l9.5169 16.704" stroke="#000" stroke-linecap="round" stroke-linejoin="round" stroke-width="1.8"/><rect fill="#f8f8f6" height="88" rx="6" stroke="#000" stroke-width="1.8" transform="matrix(.99839167 -.05669279 .05669279 .99839167 -.659014 1.762296)" width="44" x="30.7305" y="12.4961"/><rect fill="#fed42b" height="7.42931" rx="3.71466" stroke="#000" stroke-width="1.8" transform="matrix(.99810749 -.06149346 .06149346 .99810749 -5.13128 2.816061)" width="27.5214" x="43.1855" y="84.7734"/><path d="m57.8849 15.9643-9.9019.5902c-.5139.0292-.9951.2613-1.3378.6454-.3426.3841-.5188.8887-.4896 1.4027.0291.5141.2612.9955.6452 1.3383.3839.3429.8883.5191 1.4021.4899l9.902-.5901c.5138-.0292.995-.2614 1.3377-.6455s.5189-.8886.4897-1.4027c-.0292-.514-.2613-.9954-.6452-1.3383-.384-.3428-.8883-.519-1.4022-.4899z" fill="#000"/><path clip-rule="evenodd" d="m39.1825 25.6242c-1.2998.0738-2.2936 1.1872-2.2198 2.487l.9355 16.4734c.0738 1.2997 1.1872 2.2936 2.487 2.2197l28.2402-1.6035c1.2997-.0739 2.2935-1.1873 2.2197-2.487l-.9354-16.4735c-.0738-1.2997-1.1873-2.2935-2.487-2.2197zm23.1103 2.551c-.6498.0369-1.1467.5937-1.1098 1.2435l.085 1.4976c.0369.6499.5936 1.1468 1.2435 1.1099l3.4231-.1944c.6498-.0369 1.1467-.5936 1.1098-1.2435l-.085-1.4976c-.0369-.6498-.5937-1.1467-1.2435-1.1098z" fill="#000" fill-rule="evenodd"/><path d="m32.3762 53.0994s3.2138-2.5917 2.5759-6.7555c-.6947-4.4746-5.5557-5.1844-6.7281-4.2281-1.6581 1.3517-4.6446 8.2414-3.8105 11.0474.4787 1.6234 1.9223 3.4323 3.266 4.8417l5.3205-.546z" fill="#b97853" stroke="#000" stroke-linecap="round" stroke-linejoin="round" stroke-width="1.8"/><path d="m28.0991 75.4126s-3.6809-4.7213-4.2022-8.5243c-.5371-3.9708 1.0983-7.2181 2.4823-8.1434 1.8585-1.2403 8.9846-4.3587 10.5998-3.5118 1.6151.8468 3.4654 4.1072.8396 7.9436-1.2229 1.7849-3.0524 2.9709-4.5803 3.7116l.2615 3.5617z" fill="#b97853"/><path d="m30.4676 67.9285s1.2325-.2944 2.7707-1.0402m0 0c1.5279-.7407 3.3574-1.9267 4.5803-3.7116 2.6258-3.8364.7755-7.0968-.8396-7.9436-1.6152-.8469-8.7413 2.2715-10.5998 3.5118-1.384.9253-3.0194 4.1726-2.4823 8.1434.5213 3.803 4.2022 8.5243 4.2022 8.5243l5.4007-4.9626z" stroke="#000" stroke-linecap="round" stroke-linejoin="round" stroke-width="1.8"/><path d="m26.9155 78.5847c-.3529 2.8687 1.9533 6.3279 4.4427 8.2253 1.0284.7957 2.4134 1.4551 3.3539 1.8542l-.3656-7.9429c1.064-.9993 1.9342-2.1894 2.5642-3.5108 2.0276-4.2069.1544-6.7348-1.8462-7.0673s-7.8397 5.7628-8.149 8.4415z" fill="#b97853"/><path d="m33.7795 81.2205c.1946-.1605.3837-.327.567-.4992m0 0c1.064-.9993 1.9342-2.1894 2.5642-3.5108 2.0276-4.2069.1544-6.7348-1.8462-7.0673s-7.8397 5.7628-8.149 8.4415c-.3529 2.8687 1.9533 6.3279 4.4427 8.2253 1.0284.7957 2.4134 1.4551 3.3539 1.8542z" stroke="#000" stroke-linecap="round" stroke-linejoin="round" stroke-width="1.8"/><path d="m81.4603 101.294c-2.2256-3.5666-4.4008-14.5557-2.4202-22.4194z" fill="#b97853"/><path d="m81.4603 101.294c-2.2256-3.5666-4.4008-14.5557-2.4202-22.4194l9.9601 12.0602z" fill="#b97853"/><path d="m81.4603 101.294c-2.2256-3.5666-4.4008-14.5557-2.4202-22.4194z" fill="#b97853"/><path d="m81.4603 101.294c-2.2256-3.5666-4.4008-14.5557-2.4202-22.4194" stroke="#000" stroke-linecap="round" stroke-width="1.8"/><path d="m104.531 93.7217c-2.413-3.7262-1.009-5.6405-2.281-11.0315-1.172-4.9714-5.5629-19.2224-8.1295-23.3764-2.0931-3.3824-6.4982-9.3999-10.0201-15.9187-2.7534-5.0958-2.5445-10.4713-4.3937-11.1858-2.6836-1.0128-6.4021 2.2436-6.2432 8.699.159 6.4555 4.4044 9.8584 4.6034 14.9654l7.4329 25.0672z" fill="#b97853"/><path d="m104.531 93.7217c-2.413-3.7262-1.009-5.6405-2.281-11.0315-1.172-4.9714-5.5629-19.2224-8.1295-23.3764-2.0931-3.3824-6.4982-9.3999-10.0201-15.9187-2.7534-5.0958-2.5445-10.4713-4.3937-11.1858-2.6836-1.0128-6.4021 2.2436-6.2432 8.699.159 6.4555 4.4044 9.8584 4.6034 14.9654" stroke="#000" stroke-linecap="round" stroke-linejoin="round" stroke-width="1.8"/></g></svg>