<svg fill="none" height="24" viewBox="0 0 36 24" width="36" xmlns="http://www.w3.org/2000/svg"><clipPath id="a"><rect height="24" rx="4" width="36"/></clipPath><g clip-path="url(#a)"><rect fill="#fff" height="24" rx="4" width="36"/><g fill="#023996"><path d="m29.9 9.40015c-1.3 0-1.9 0-1.9 0l-.7 4.79995h2.1c1.1 0 2.6-1 2.6-2.4 0-1.2-.5-2.39995-2.1-2.39995zm.6 2.39995c-.2 1-1 1.1-1 1.1h-.7l.3-2.3h.7c.1 0 .9.2.7 1.2z"/><path d="m27 11.0001c.2-1.49995-1-1.59995-1.9-1.59995-.2 0-.4 0-.5 0h-.3-1.2l-.7 4.79995h1.5l.2-1.5h.6l.3 1c.1.3.4.5.7.5h1.1l-.8-1.8c.5-.3.9-.8 1-1.4zm-2 .6c-.3 0-.6 0-.6 0l.1-1h.7c.2 0 .4.2.4.5-.1.2-.3.5-.6.5z"/><path d="m20.7 14.2001h1.4l-.9-4.79995h-1.5l-2.3 4.79995h1.4l.3-.6h1.6zm-1.2-1.7.7-1.5.2 1.5z"/><path d="m17.8 10-.7 1.1s-.5-.5-1.2-.5-1.3.6-1.4 1.2.3 1.1.9 1.1 1.4-.5 1.4-.5l.5 1.1s-.7.9-2 .9c-1 0-2.7-.6-2.4-2.6.3-1.99995 2-2.49995 2.9-2.49995 1.5 0 2 .69995 2 .69995z"/><path d="m9.3 9.40015-.2 1.19995h2l-1.9 2c-.3.3-.5.7-.6 1.2l-.1.4h4.3l-.5-1.2h-1.6l2.4-2.6.1-.99995z"/></g><path d="m8.7 9.40015-.7 4.29995h-1.2c-.7 0-1.2-.6-1.1-1.3l.5-2.99995z" fill="#fe4504"/><path d="m5.00002 12.8.5-3.3h-.9c-.4 0-.7.3-.7.7v3.4c0 .4.3.7.7.7h1.6c-.8-.1-1.3-.8-1.2-1.5z" fill="#023996"/><path d="m0 17.7s19.2 5.6 36-1.7v8.1h-36z" fill="#fff"/><path d="m0 19.2001s15.8 5.1 36 0v6.8h-36z" fill="#7ecb01"/><path clip-rule="evenodd" d="m32 .5h-28c-1.933 0-3.5 1.567-3.5 3.5v16c0 1.933 1.567 3.5 3.5 3.5h28c1.933 0 3.5-1.567 3.5-3.5v-16c0-1.933-1.567-3.5-3.5-3.5zm-28-.5c-2.20914 0-4 1.79086-4 4v16c0 2.2091 1.79086 4 4 4h28c2.2091 0 4-1.7909 4-4v-16c0-2.20914-1.7909-4-4-4z" fill="#000" fill-rule="evenodd"/></g></svg>