<svg fill="none" height="24" viewBox="0 0 36 24" width="36" xmlns="http://www.w3.org/2000/svg"><clipPath id="a"><path d="m0 0h36v24h-36z"/></clipPath><g clip-path="url(#a)"><path clip-rule="evenodd" d="m17 6c0-1.10457.8954-2 2-2h14.9023c.7294 0 .9939.07595 1.2606.21856.2666.14262.4759.3519.6185.61857.1427.26666.2186.53117.2186 1.26059v15.80458c0 .7294-.0759.9939-.2186 1.2606-.1426.2666-.3519.4759-.6185.6185-.2667.1427-.5312.2186-1.2606.2186h-16.9023z" fill="#029154" fill-rule="evenodd"/><g fill="#e2e9db"><path clip-rule="evenodd" d="m33 5c-1.1046 0-2 .89543-2 2s.8954 2 2 2 2-.89543 2-2-.8954-2-2-2zm-1 2c0-.55228.4477-1 1-1s1 .44772 1 1-.4477 1-1 1-1-.44772-1-1z" fill-rule="evenodd"/><path d="m17 21h12c.3972-2.4643 1.9787-3.6964 4-3.6964v-6.3036c-2.1664 0-3.7904-1.92453-4-4h-12v1h11.1718c.4904 1.81491 1.8827 3.4638 3.8282 3.8923v4.5c-.8402.1537-1.6183.5095-2.2709 1.0858-.7172.6332-1.2335 1.4888-1.53 2.5219h-11.1991z"/><path d="m17 19c2.7614 0 5-2.2386 5-5s-2.2386-5-5-5-5 2.2386-5 5 2.2386 5 5 5z"/></g><path clip-rule="evenodd" d="m20 4 2 20h-5v-20z" fill="#000" fill-rule="evenodd" opacity=".3"/><path d="m18.7181 0h-16.7181c-1.104569 0-2 .895431-2 2v16.9023c0 .7294.0759482.9939.218563 1.2606.142615.2666.351896.4759.618563.6185.266664.1427.531174.2186 1.260594.2186h17.90228v-19.71806c0-.445757-.0464-.6074-.1336-.770363-.0871-.162963-.215-.290857-.378-.378011-.1629-.0871532-.3246-.133566-.7703-.133566z" fill="#1cc052"/><path clip-rule="evenodd" d="m3 1c-1.10457 0-2 .89543-2 2s.89543 2 2 2 2-.89543 2-2-.89543-2-2-2zm-1 2c0-.55228.44772-1 1-1s1 .44772 1 1-.44772 1-1 1-1-.44772-1-1z" fill="#fff" fill-rule="evenodd"/><path d="m20 3h-13c-.20962 2.06564-1.83359 4.05213-4 4.05213v7.26897c2.02126 0 3.76015 1.2263 4.15732 3.6789h12.84268v-1h-12.04735c-.31409-1.0475-.87363-1.9025-1.62541-2.5279-.67757-.5637-1.47798-.9133-2.32724-1.0642v-5.46579c1.95263-.43927 3.33876-2.13155 3.82777-3.94211h12.17223z" fill="#fff"/><path d="m15 11c0 2.7614 2.2386 5 5 5v-10c-2.7614 0-5 2.23858-5 5z" fill="#fff"/></g></svg>