<svg width="24" height="24" viewBox="0 0 24 24" fill="none" xmlns="http://www.w3.org/2000/svg">
<path d="M12 2C10.7843 2 9.66987 2.4339 8.80322 3.15528L16.1973 13.7182C16.7051 12.9357 17 12.0023 17 11V7C17 4.23858 14.7614 2 12 2Z" fill="#21201F"/>
<path d="M7.0415 6.35281C7.01412 6.56467 7 6.78069 7 7V11C7 13.7614 9.23858 16 12 16C12.563 16 13.1043 15.9069 13.6093 15.7354L14.7899 17.4219C13.9351 17.7938 12.9916 18 12 18C8.13401 18 5 14.866 5 11H3C3 15.4984 6.3003 19.226 10.6117 19.8936L11 23H13L13.3883 19.8936C14.2958 19.7531 15.1586 19.477 15.9552 19.0866L18 22.0078H20.5L6.5 2.00781H4L7.0415 6.35281Z" fill="#21201F"/>
<path d="M21 11C21 13.3696 20.0842 15.5253 18.5873 17.1325L17.4069 15.4462C18.4023 14.2371 19 12.6884 19 11H21Z" fill="#21201F"/>
</svg>
