<svg fill="none" height="24" viewBox="0 0 24 24" width="24" xmlns="http://www.w3.org/2000/svg"><path clip-rule="evenodd" d="m7.5 1c-.86427 0-1.40249.68021-1.53144 1.28905-.16236.76659-.91292 1.51715-1.67951 1.67951-.60884.12895-1.28905.66717-1.28905 1.53144v13c0 .8643.68021 1.4025 1.28905 1.5314.76659.1624 1.51715.913 1.67951 1.6796.12895.6088.66717 1.289 1.53144 1.289h9c.8643 0 1.4025-.6802 1.5314-1.289.1624-.7666.913-1.5172 1.6796-1.6796.6088-.1289 1.289-.6671 1.289-1.5314v-13c0-.86427-.6802-1.40249-1.289-1.53144-.7666-.16236-1.5172-.91292-1.6796-1.67951-.1289-.60884-.6671-1.28905-1.5314-1.28905zm4.0344 6.00001.9316-.00001 1.2729 3.2625 3.2615 1.2733v.9315l-3.2615 1.2733-1.2729 3.2625h-.9316l-1.2729-3.2625-3.2615-1.2733v-.9315l3.2615-1.2733z" fill="#21201f" fill-rule="evenodd"/></svg>