<svg fill="none" height="24" viewBox="0 0 24 24" width="24" xmlns="http://www.w3.org/2000/svg"><g clip-rule="evenodd" fill="#21201f" fill-rule="evenodd"><path d="m11.1727 6.25-1.38191 3.54079-3.54079 1.38191v1.6546l3.54079 1.3819 1.38191 3.5408h1.6546l1.3819-3.5408 3.5408-1.3819v-1.6546l-3.5408-1.38191-1.3819-3.54079zm.1311 4.5494.6962-1.78389.6962 1.78389.5044.5044 1.7839.6962-1.7839.6962-.5044.5044-.6962 1.7839-.6962-1.7839-.5044-.5044-1.78389-.6962 1.78389-.6962z"/><path d="m5.96856 2.28905c.12895-.60884.66717-1.28905 1.53144-1.28905h9c.8643 0 1.4025.68021 1.5314 1.28905.1624.76659.913 1.51715 1.6796 1.67951.6088.12895 1.289.66717 1.289 1.53144v13c0 .8643-.6802 1.4025-1.289 1.5314-.7666.1624-1.5172.913-1.6796 1.6796-.1289.6088-.6671 1.289-1.5314 1.289h-9c-.86427 0-1.40249-.6802-1.53144-1.289-.16236-.7666-.91292-1.5172-1.67951-1.6796-.60884-.1289-1.28905-.6671-1.28905-1.5314v-13c0-.86427.68021-1.40249 1.28905-1.53144.76659-.16236 1.51715-.91292 1.67951-1.67951zm1.88055.71095c-.39688 1.31702-1.53209 2.45223-2.84911 2.84911v12.30179c1.31702.3969 2.45223 1.5321 2.84911 2.8491h8.30179c.3969-1.317 1.5321-2.4522 2.8491-2.8491v-12.30179c-1.317-.39688-2.4522-1.53209-2.8491-2.84911z"/></g></svg>