<svg fill="none" height="72" viewBox="0 0 72 72" width="72" xmlns="http://www.w3.org/2000/svg" xmlns:xlink="http://www.w3.org/1999/xlink"><clipPath id="a"><path d="m0 0h72v72h-72z"/></clipPath><g clip-path="url(#a)"><path d="m39.6313 1.27811c-1.0299-.824881-2.3099-1.27432582-3.6292-1.27432582-1.3194 0-2.5994.44944482-3.6293 1.27432582-5.7344 4.5717-11.2017 9.46889-16.3751 14.66749-5.237 5.2427-10.17108 10.7798-14.7782 16.5843-.787497.9685-1.2174248 2.1789-1.2174248 3.4273s.4299278 2.4587 1.2174248 3.4272c2.29367 2.9045 4.70348 5.8089 7.2004 8.7134l39.5732-39.73284c-2.7292-2.55591-5.5165-4.82138-8.3618-7.08685z" fill="#c3c7c9"/><path d="m56.2677 16.207c-.0893-.104-.1864-.2011-.2903-.2905-2.584-2.5849-5.2261-5.1118-7.9843-7.55151l-39.57318 39.58761c2.46788 2.7592 4.99378 5.4313 7.60688 8.0453.0846.07.1623.1477.2323.2323 2.5549 2.556 5.197 5.0538 7.9262 7.4645l39.6893-39.5586c-2.555-2.7302-5.0519-5.3732-7.6069-7.9291z" fill="#9c9fa0"/><path d="m70.7847 32.53c-2.2647-2.9045-4.6164-5.6637-7.0553-8.3939l-39.5441 39.5586c2.7292 2.4397 5.5455 4.8213 8.3908 7.1158.9749.7728 2.1822 1.1933 3.426 1.1933s2.4511-.4205 3.426-1.1933c5.796-4.637 11.3306-9.5918 16.5783-14.8417 5.2371-5.2427 10.1711-10.7799 14.7783-16.5844.7875-.9684 1.2174-2.1788 1.2174-3.4272s-.4299-2.4588-1.2174-3.4272z" fill="#818487"/></g></svg>