<svg width="24" height="24" viewBox="0 0 24 24" fill="none" xmlns="http://www.w3.org/2000/svg">
    <path opacity="0.4" d="M13.2852 12.0003V13.714H0.856598L2.54828 6.32881C2.70689 5.63638 3.32291 5.1454 4.03328 5.14524L13.2852 5.14319V7.71456H17.8262C18.7642 7.71456 19.6193 8.25158 20.0267 9.09645L21.4268 12.0003H13.2852Z" fill="#21201F"/>
    <path fill-rule="evenodd" clip-rule="evenodd" d="M10.7696 6.4794C10.9471 5.69802 11.6422 5.1439 12.4435 5.14396C12.853 5.144 13.2482 5.14385 13.6505 5.14368C14.6323 5.14325 15.4283 5.93906 15.4283 6.9209V7.71288H12.5051L12.5048 7.71441H12.8569V12.0001H21.4289C22.849 12.0001 24.0003 13.1513 24.0003 14.5715V17.1428C24.0002 18.5629 22.849 19.7142 21.4289 19.7142C20.3093 19.7142 19.3568 18.9987 19.0038 18.0001H16.9965C16.6434 18.9987 15.691 19.7142 14.5714 19.7142C13.4519 19.7142 12.4994 18.9987 12.1464 18.0001H5.85391C5.50087 18.9987 4.54841 19.7142 3.42885 19.7142C2.00874 19.7142 0.857497 18.563 0.857422 17.1429V13.714H10.6939V13.7129H9.12695L10.7696 6.4794ZM3.42885 18.0609C3.9359 18.0609 4.34695 17.6498 4.34695 17.1428C4.34695 16.6357 3.9359 16.2247 3.42885 16.2247C2.9218 16.2247 2.51076 16.6357 2.51076 17.1428C2.51076 17.6498 2.9218 18.0609 3.42885 18.0609ZM15.4895 17.1428C15.4895 17.6498 15.0785 18.0609 14.5714 18.0609C14.0644 18.0609 13.6533 17.6498 13.6533 17.1428C13.6533 16.6357 14.0644 16.2247 14.5714 16.2247C15.0785 16.2247 15.4895 16.6357 15.4895 17.1428Z" fill="#21201F"/>
</svg>
