<svg xmlns="http://www.w3.org/2000/svg" width="40" height="40" fill="none"><g clip-path="url(#a)"><rect width="40" height="40" fill="#F5F4F2" rx="12"/><mask id="b" width="40" height="40" x="0" y="0" maskUnits="userSpaceOnUse" style="mask-type:alpha"><path fill="#fff" d="M0 19.2C0 12.48 0 9.12 1.308 6.552a12 12 0 0 1 5.244-5.244C9.12 0 12.48 0 19.2 0h1.6c6.72 0 10.08 0 12.648 1.308a12 12 0 0 1 5.244 5.244C40 9.12 40 12.48 40 19.2v1.6c0 6.72 0 10.08-1.308 12.648a12 12 0 0 1-5.244 5.244C30.88 40 27.52 40 20.8 40h-1.6c-6.72 0-10.08 0-12.648-1.308a12 12 0 0 1-5.244-5.244C0 30.88 0 27.52 0 20.8z"/></mask><g mask="url(#b)"><path fill="#F5F4F2" d="M0 0h40v40H0z"/><g clip-path="url(#c)"><path fill="#FF7751" d="m-2.71 8.459 18.034-6.492 18.032 6.492V31.54l-18.033 6.492-18.032-6.492z"/><path fill="#E13100" d="m-2.71 8.459 18.034 6.492v23.082L-2.71 31.54z"/><path fill="#FC4714" d="m33.356 8.459-18.033 6.492v23.082l18.033-6.492z"/><path fill="#F5F4F2" d="M31.373 27.405c-3.872 3.75-10.082 5.896-14.066 5.12v-2.029c3.903.796 10.166-1.149 14.066-5.12zm-7.993-5.923-1.278.464v5.444l-3.197 1.164V23.11l-1.279.464 2.877-7.85zm7.673-2.793-1.278.465v5.444l-3.197 1.163v-5.443l-1.28.465 2.878-7.851z"/></g></g></g><defs><clipPath id="a"><rect width="40" height="40" fill="#fff" rx="12"/></clipPath><clipPath id="c"><path fill="#fff" d="M-2.71 1.967h36.067v36.066H-2.71z"/></clipPath></defs></svg>
