<svg width="40" height="41" viewBox="0 0 40 41" fill="none" xmlns="http://www.w3.org/2000/svg">
<defs>
<filter id="filter0_f_34456_92180" x="-12.7018" y="16.7487" width="32.9167" height="14.5827" filterUnits="userSpaceOnUse" color-interpolation-filters="sRGB">
<feFlood flood-opacity="0" result="BackgroundImageFix"/>
<feBlend mode="normal" in="SourceGraphic" in2="BackgroundImageFix" result="shape"/>
<feGaussianBlur stdDeviation="1.66667" result="effect1_foregroundBlur_34456_92180"/>
</filter>
<linearGradient id="paint0_linear_34456_92180" x1="28.9648" y1="34.2493" x2="25.2148" y2="25.0827" gradientUnits="userSpaceOnUse">
<stop stop-color="#E3AB09"/>
<stop offset="1" stop-color="#DBA91A" stop-opacity="0"/>
</linearGradient>
<linearGradient id="paint1_linear_34456_92180" x1="45.7214" y1="8.2381" x2="41.6964" y2="25.6675" gradientUnits="userSpaceOnUse">
<stop stop-color="white"/>
<stop offset="1" stop-color="white" stop-opacity="0"/>
</linearGradient>
<clipPath id="clip0_34456_92180">
<rect y="0.5" width="40" height="40" rx="20" fill="white"/>
</clipPath>
</defs>
<g clip-path="url(#clip0_34456_92180)">
<rect y="0.5" width="40" height="40" rx="20" fill="#5C5A57" fill-opacity="0.1"/>
<path opacity="0.2" d="M-0.999634 35.5H34.0004" stroke="#21201F" stroke-width="0.833333"/>
<rect x="1.88151" y="23.832" width="28.3333" height="8.33333" fill="#21201F"/>
<path d="M18.3593 14.3256L25.6315 20.0827H-1.86849V12.166H12.1523C14.4055 12.166 16.5927 12.927 18.3593 14.3256Z" fill="#FAC220"/>
<ellipse cx="26.0482" cy="29.6654" rx="4.16667" ry="5.83333" fill="#42413E"/>
<path d="M10.2148 35.4987C12.516 35.4987 14.3815 32.887 14.3815 29.6654C14.3815 26.4437 12.516 23.832 10.2148 23.832H7.71484V35.4987H10.2148Z" fill="#42413E"/>
<path d="M28.5482 35.4987C30.8494 35.4987 32.7148 32.887 32.7148 29.6654C32.7148 26.4437 30.8494 23.832 28.5482 23.832H26.0482V35.4987H28.5482Z" fill="#42413E"/>
<path d="M34.3815 24.6133V28.8327C34.3815 30.6736 32.8891 32.166 31.0482 32.166H15.8642C14.2753 32.166 12.9072 31.0445 12.5956 29.4864L12.1251 27.1341C11.7412 25.2144 10.0557 23.8327 8.09809 23.8327C5.98823 23.8327 4.22164 25.4314 4.0117 27.5308L3.69826 30.6652C3.61306 31.5172 2.89612 32.166 2.03987 32.166H-1.45182V19.666H24.5542C27.6733 19.666 30.6938 20.7596 33.09 22.7564L33.7818 23.3329C34.1618 23.6496 34.3815 24.1187 34.3815 24.6133Z" fill="#FAC220"/>
<path d="M34.3815 24.6133V28.8327C34.3815 30.6736 32.8891 32.166 31.0482 32.166H15.2952C14.5171 32.166 13.8425 31.6275 13.67 30.8687L12.7588 26.8593C12.2456 24.6015 10.2385 22.9993 7.92318 22.9993C5.60788 22.9993 3.60072 24.6015 3.08759 26.8593L1.88151 32.166H-1.45182V19.666H24.5542C27.6733 19.666 30.6938 20.7596 33.09 22.7564L33.7818 23.3329C34.1618 23.6496 34.3815 24.1187 34.3815 24.6133Z" fill="url(#paint0_linear_34456_92180)"/>
<mask id="mask0_34456_92180" style="mask-type:alpha" maskUnits="userSpaceOnUse" x="-2" y="19" width="37" height="14">
<path d="M34.3815 24.6133V28.8327C34.3815 30.6736 32.8891 32.166 31.0482 32.166H16.4792C14.9909 32.166 13.683 31.1794 13.2741 29.7484L12.4145 26.7399C11.8524 24.7725 10.0541 23.416 8.00793 23.416C5.88275 23.416 3.99189 24.8688 3.61355 26.96C3.4028 28.1249 3.26373 29.233 3.18955 30.5264C3.13744 31.4349 2.4015 32.166 1.4915 32.166H-1.45182V19.666H24.5542C27.6733 19.666 30.6938 20.7596 33.09 22.7564L33.7818 23.3329C34.1618 23.6496 34.3815 24.1187 34.3815 24.6133Z" fill="#FAC220"/>
</mask>
<g mask="url(#mask0_34456_92180)">
<g opacity="0.7" filter="url(#filter0_f_34456_92180)">
<path d="M6.88151 20.082L14.7982 22.1654H16.8815V24.6654L15.2148 27.9987C14.8815 23.9987 11.2505 22.9987 9.38151 22.9987C7.71484 22.9987 5.21484 24.2487 4.79818 26.332L3.96484 23.4154H-9.36849V20.082H1.88151H6.88151Z" fill="white"/>
</g>
</g>
<path d="M15.2148 22.9993C15.2148 22.5391 15.5879 22.166 16.0482 22.166H32.7148C33.6353 22.166 34.3815 22.9122 34.3815 23.8327C34.3815 24.2929 34.0084 24.666 33.5482 24.666H16.8815C15.961 24.666 15.2148 23.9198 15.2148 22.9993Z" fill="white"/>
<mask id="mask1_34456_92180" style="mask-type:alpha" maskUnits="userSpaceOnUse" x="-2" y="12" width="28" height="9">
<path d="M19.2812 14.5978L25.6322 20.0827H-1.03451V12.166H12.745C15.145 12.166 17.4649 13.0291 19.2812 14.5978Z" fill="#FAC220"/>
</mask>
<g mask="url(#mask1_34456_92180)">
<path d="M18.7083 14.4609L25.2155 19.6667H9.7603C9.52 19.6667 9.29139 19.5629 9.13315 19.3821L4.75815 14.3821C4.28669 13.8433 4.66933 13 5.3853 13H14.5436C16.0574 13 17.5262 13.5152 18.7083 14.4609Z" fill="#42413E"/>
<path opacity="0.6" d="M20.5343 15.9217L25.2155 19.6667C25.2155 19.6667 14.6423 22.9169 9.38216 19.6667C7.83367 18.7099 6.29974 16.9143 5.19375 15.4275C4.44539 14.4214 4.0712 13.9184 4.30193 13.4592C4.53265 13 5.18271 13 6.48281 13H12.2051C14.521 13 15.679 13 16.7503 13.3758C17.8217 13.7516 18.7259 14.475 20.5343 15.9217Z" fill="url(#paint1_linear_34456_92180)"/>
</g>
<path d="M3.71087 14.1383L8.54818 19.6667H-2.28516V13H1.20228C2.16349 13 3.07791 13.4149 3.71087 14.1383Z" fill="#42413E"/>
<ellipse cx="7.71485" cy="29.6654" rx="4.16667" ry="5.83333" fill="#42413E"/>
<ellipse cx="7.71484" cy="29.666" rx="3.33333" ry="5" fill="#D2D0CC"/>
</g>
</svg>
