<svg fill="none" height="24" viewBox="0 0 24 24" width="24" xmlns="http://www.w3.org/2000/svg"><path clip-rule="evenodd" d="m14.1227 8.97215c.5001-.28434 1.9946-1.13401 1.9301-1.49441-.0433-.20099-.2063-1.44509-.3508-2.54806-.1099-.83807-.209-1.59465-.2368-1.75026-.0763-.35371-1.7879-.57214-2.382-.23399-.6228.35449-4.03054 2.68863.3997 10.49347 4.4303 7.8048 8.2015 6.0577 8.8017 5.7166.6001-.3412 1.2892-1.9242 1.0188-2.1675-.1352-.1217-.9147-.7374-1.6941-1.353-.7795-.6157-1.559-1.2314-1.6942-1.3531-.2704-.2433-1.7713.6095-2.2709.8941-.1568-.0432-1.6064-2.1308-2.0608-2.9313s-1.5039-3.11562-1.4607-3.27255zm-5.03469 10.46135c1.90209-.3051 3.46279-1.6319 4.10139-3.3998-2.0793-2.8803-2.863-5.0577-3.0102-6.668-.59717-.23603-1.24795-.36572-1.92902-.36572h-2.25c-2.8995 0-5.250003 2.35052-5.250003 5.25002 0 1.1136.346713 2.1462.938083 2.9958-.58533.6916-.93826 1.5862-.93826 2.5633v1.4066c.48013-1.0476 1.52676-1.7192 2.6791-1.7192h2.37876c.06382.0023.12793.0035.19232.0035h2.25c.06438 0 .12849-.0012.19231-.0035h.64552z" fill="#21201f" fill-rule="evenodd"/></svg>