<svg fill="none" height="24" viewBox="0 0 24 24" width="24" xmlns="http://www.w3.org/2000/svg"><path clip-rule="evenodd" d="m18.0057 1.59216-.4897.33066c-.8315.56137-1.5927 1.48144-2.1905 2.4703-.605 1.00053-1.0956 2.15879-1.3345 3.26961l-.0899.4178 1.2075 1.78064c-.2273.45483-.553.93223-.9082 1.38173-.463.5859-.9274 1.064-1.1649 1.3016-.2401.24-.7151.7047-1.2988 1.1675-.4468.3542-.9218.6783-1.3761.9042l-1.7899-1.2424-.43117.0993c-1.10468.2544-2.25895.751-3.25799 1.3592-.98678.6006-1.9065 1.3614-2.46774 2.1927l-.33155.491.27143.5267c.54883 1.0649 1.45395 2.2303 2.32541 3.1335.60958.6318 1.48857.9286 2.35866.7905 3.77855-.5996 7.23345-2.7992 9.90925-5.5232 2.6617-2.7096 4.8523-6.1127 5.4962-9.87356.1504-.87831-.1428-1.77259-.7838-2.39144-.9014-.87033-2.0638-1.77167-3.1278-2.31687zm.1692 2.36695c.7024.43938 1.4598 1.04453 2.0954 1.6582.1652.15953.2403.38889.2016.61512-.5527 3.22827-2.4661 6.27917-4.9516 8.80947-2.4772 2.5218-5.56396 4.4366-8.79603 4.9495-.22209.0353-.44763-.0399-.60588-.2039-.6157-.6381-1.22456-1.3992-1.66737-2.1047.36336-.3779.86702-.7748 1.47043-1.1421.71058-.4326 1.50103-.7883 2.25051-1.0091l1.91944 1.3324.4815-.1685c.8933-.3127 1.7465-.8933 2.4062-1.4163.6727-.5332 1.2106-1.0605 1.4706-1.3205.2624-.2624.788-.8026 1.3199-1.4758.5217-.6602 1.1007-1.5115 1.4152-2.3964l.1696-.4771-1.3081-1.92899c.2096-.74809.5597-1.53972.9906-2.25249.3642-.60235.7602-1.10567 1.138-1.46881z" fill="#21201f" fill-rule="evenodd"/></svg>