<svg width="24" height="24" viewBox="0 0 24 24" fill="none" xmlns="http://www.w3.org/2000/svg">
    <path fill-rule="evenodd" clip-rule="evenodd" d="M19.1666 10.3333C18.2778 12 17 12.8333 15.3333 12.8333C13.6666 12.8333 12.3889 12 11.5 10.3333L11.8133 2.4996C11.8245 2.22051 12.054 2 12.3333 2H12.6748C12.7636 2 12.8368 2.06964 12.8412 2.15834L13.125 7.83333H14.5416L14.8254 2.15834C14.8298 2.06964 14.903 2 14.9919 2H15.6748C15.7636 2 15.8368 2.06964 15.8412 2.15834L16.125 7.83333H17.5416L17.8254 2.15834C17.8298 2.06964 17.903 2 17.9919 2H18.3333C18.6126 2 18.8421 2.22051 18.8533 2.4996L19.1666 10.3333ZM16.2584 13.5453L16.4755 21.1429C16.4886 21.6029 16.1263 21.9865 15.6663 21.9997C15.6584 21.9999 15.6504 22 15.6425 22H15.0241C14.5639 22 14.1908 21.6269 14.1908 21.1667C14.1908 21.1587 14.1909 21.1508 14.1911 21.1429L14.4082 13.5453C14.7166 13.6262 15.0249 13.6667 15.3333 13.6667C15.6417 13.6667 15.9501 13.6262 16.2584 13.5453ZM9.49998 2.87955V22H8.90131C7.98084 22 7.23465 21.2538 7.23465 20.3333C7.23465 20.3111 7.23509 20.2889 7.23598 20.2667L7.49998 13.6667C7.16665 12.8007 6.44442 12.2451 5.33331 12C5.33331 7.56515 6.23764 4.33952 8.04629 2.32312C8.3536 1.9805 8.88046 1.95188 9.22307 2.25919C9.3993 2.41726 9.49998 2.64282 9.49998 2.87955Z" fill="black"/>
</svg>
