<svg fill="none" height="24" viewBox="0 0 48 24" width="48" xmlns="http://www.w3.org/2000/svg"><path clip-rule="evenodd" d="m17.1207 3.63407c3.0475-.01997 6.2617.05385 8.8238.31274l.0271.00274.0269.0042c.6144.09608 1.3384.41313 2.0369.77842.7256.37943 1.5271.8673 2.3246 1.38555 1.5014.9756 3.043 2.09458 4.1198 2.88005.1487.0225.3042.04586.4655.0701 1.6812.25257 3.9999.60092 6.0089 1.07853 1.1496.2732 2.2579.6021 3.1097 1.0059.4245.2012.8348.4437 1.1598.744.3243.2997.6387.7288.6921 1.2934.1264 1.336.0574 2.4107-.0491 3.1716-.1409 1.0066-1.0188 1.6387-1.9252 1.6387h-3.994c-.3978 1.7188-1.9384 3-3.7781 3-1.8398 0-3.3803-1.2812-3.7781-3h-16.9745c-.3552 1.7128-1.8727 3-3.6908 3-1.81806 0-3.33552-1.2872-3.69072-3h-3.21187c-1.56791 0-2.79282-1.3542-2.63604-2.9143l.45115-4.4894c.02325-.2313.07165-.4595.14434-.68029l.81368-2.47219c.69422-2.1092 2.61588-3.5936 4.85465-3.67431 2.67711-.09651 5.74091-.15265 8.66951-.13544zm1.7571 1.9995c2.4386.01541 4.8531.10141 6.8344.29996.272.04825.741.22819 1.3964.57093.647.33837 1.3898.78874 2.1617 1.29031.6057.3936 1.22.81252 1.8084 1.2242l-25.89506.00001.31264-.94989c.43868-1.3328 1.64445-2.25103 3.02697-2.30088 2.51145-.09054 5.36395-.14509 8.11645-.1363l.0001.00619c.1602-.00159.3208-.00293.4817-.00399.5927.00352 1.1795.01009 1.756.01998zm21.0046 10.36643c-.4812-1.5946-1.9615-2.7558-3.713-2.7558s-3.2318 1.1612-3.7131 2.7558h-17.1664c-.5101-1.4775-1.9131-2.5387-3.5639-2.5387s-3.05374 1.0612-3.56383 2.5387h-3.33875c-.38429 0-.6845-.3319-.64608-.7143l.42878-4.2667h29.84438v-.003c.0685.0103.138.0208.2084.0314 1.6893.254 3.9136.5885 5.8328 1.0447 1.1085.2636 2.055.5543 2.7155.8674.3316.1572.5418.2973.6592.4058.0321.0297.0518.0517.0632.066.0989 1.0902.0472 1.9597-.0323 2.5687zm4.0611-2.5491c-.0001 0 .0002.0005 0 0 0 0-.0005-.0009-.0017-.0028.0006.001.0014.0024.0017.0028zm-33.9868 3.7797c0-.9771.7922-1.7693 1.7693-1.7693.9772 0 1.7694.7922 1.7694 1.7693 0 .9772-.7922 1.7694-1.7694 1.7694-.9771 0-1.7693-.7922-1.7693-1.7694zm26.2127-1.9864c-1.0371 0-1.8779.8408-1.8779 1.8779s.8408 1.8779 1.8779 1.8779 1.8778-.8408 1.8778-1.8779-.8407-1.8779-1.8778-1.8779z" fill="#21201f" fill-rule="evenodd"/></svg>