<svg fill="none" height="40" viewBox="0 0 40 40" width="40" xmlns="http://www.w3.org/2000/svg" xmlns:xlink="http://www.w3.org/1999/xlink"><linearGradient id="a" gradientUnits="userSpaceOnUse" x1="20" x2="20" y1="0" y2="40"><stop offset="0" stop-color="#80d8f8"/><stop offset="1" stop-color="#0596fa"/></linearGradient><rect fill="url(#a)" height="40" rx="12" width="40"/><path clip-rule="evenodd" d="m31.2643 12.4394c1.1737-1.1735 2.2706-3.96297 1.3105-4.92305-.9602-.96007-3.9531.33878-5.1996 1.58649-.4501.44999-2.7526 2.75236-5.5116 5.51116l-13.87915-4.3926-2.20027.9857 11.39762 8.0794.0039.0039c-1.7822 1.782-3.4468 3.4478-4.6511 4.652l-4.96822-.2288-1.7822 1.846 5.82992 2.9147 2.9162 5.8308 1.9024-1.7271-.2647-5.0433c1.2069-1.2068 2.8689-2.8687 4.655-4.6546l8.0045 11.425.987-2.2001-4.3213-13.8949c2.8996-2.8994 5.3377-5.3373 5.7711-5.7707z" fill="#fff" fill-rule="evenodd"/></svg>