<svg width="32" height="32" viewBox="0 0 32 32" fill="none" xmlns="http://www.w3.org/2000/svg">
<path fill-rule="evenodd" clip-rule="evenodd" d="M15.5 14.489V12.0041C14 12.0406 12.5 12.2411 11 12.6057V15.1792C12.5 14.7609 14 14.5308 15.5 14.489ZM16.5 10.505V10.498H16H15.5V10.505C11.6667 10.6114 7.83333 11.9425 4 14.498V15.4982L4.48 15.2238C4.65333 15.1268 4.82667 15.0319 5 14.9392V17.8565C4.66667 18.061 4.33333 18.2749 4 18.498V21.5013C4 21.5013 6.13433 21.502 7 21.501C9.0212 19.5288 11.5003 17.5628 16 17.563C20.4997 17.5632 23.0269 19.5411 25 21.502L28 21.5013V18.498C27.6667 18.2749 27.3333 18.061 27 17.8565V14.9392C27.3333 15.1174 27.6667 15.3038 28 15.4982V14.498C24.1667 11.9425 20.3333 10.6114 16.5 10.505ZM26 14.4287C24.6667 13.7805 23.3333 13.262 22 12.8731V15.486C23.3333 15.9322 24.6667 16.5272 26 17.2709V14.4287ZM21 12.6057V15.1792C19.5 14.7609 18 14.5308 16.5 14.489V12.0041C18 12.0406 19.5 12.2411 21 12.6057ZM10 12.8731V15.486C8.66667 15.9322 7.33333 16.5272 6 17.2709V14.4287C7.33333 13.7805 8.66667 13.262 10 12.8731Z" fill="#ffffff"/>
</svg>
