<svg width="24" height="24" viewBox="0 0 19 19" fill="none" xmlns="http://www.w3.org/2000/svg">
	<path d="M13.1826 8.72103C13.1826 8.26079 12.8095 7.8877 12.3493 7.8877H6.34448C5.88424 7.8877 5.51114 8.26079 5.51114 8.72103V10.5005C5.51114 12.3414 7.00353 13.8338 8.84448 13.8338H9.84929C11.6902 13.8338 13.1826 12.3414 13.1826 10.5005V8.72103Z" stroke="black" stroke-width="1.66667"/>
	<path d="M11.2725 4.89404V8.48541" stroke="black" stroke-width="1.66667" stroke-linejoin="round"/>
	<path d="M7.42578 4.89404V8.48541" stroke="black" stroke-width="1.66667" stroke-linejoin="round"/>
	<path d="M9.33525 17.874H10.1686L9.33525 18.7074V17.874ZM2.01082 9.65271C2.01082 13.7405 5.26434 17.0407 9.33525 17.0407V18.7074C4.32703 18.7074 0.344157 14.644 0.344157 9.65271H2.01082ZM16.7834 9.65271C16.7834 5.57338 13.4764 2.26644 9.39709 2.26644V0.599772C14.3969 0.599772 18.45 4.65291 18.45 9.65271H16.7834ZM9.39709 2.26644C5.31777 2.26644 2.01082 5.57338 2.01082 9.65271H0.344157C0.344157 4.65291 4.3973 0.599772 9.39709 0.599772V2.26644ZM13.0229 16.0895C15.2696 14.8209 16.7834 12.4131 16.7834 9.65271H18.45C18.45 13.0383 16.5912 15.9887 13.8423 17.5408L13.0229 16.0895ZM10.1686 13.7767V17.874H8.50191V13.7767H10.1686Z" fill="black"/>
</svg>
