<svg width="16" height="16" viewBox="0 0 16 16" fill="none" xmlns="http://www.w3.org/2000/svg">
<path d="M10.963 3.85587C11.4549 3.85587 11.8519 3.45346 11.8519 2.95496C11.8519 2.35436 10.963 1.33334 10.963 1.33334C10.963 1.33334 10.0742 2.35436 10.0742 2.95496C10.0742 3.45346 10.4712 3.85587 10.963 3.85587ZM8.00008 3.85587C8.49193 3.85587 8.88897 3.45346 8.88897 2.95496C8.88897 2.35436 8.00008 1.33334 8.00008 1.33334C8.00008 1.33334 7.11119 2.35436 7.11119 2.95496C7.11119 3.45346 7.50823 3.85587 8.00008 3.85587ZM5.03712 3.85587C5.52897 3.85587 5.92601 3.45346 5.92601 2.95496C5.92601 2.35436 5.03712 1.33334 5.03712 1.33334C5.03712 1.33334 4.14823 2.35436 4.14823 2.95496C4.14823 3.45346 4.54527 3.85587 5.03712 3.85587ZM12.1008 5.66367C11.9823 5.30932 11.6505 5.05707 11.2593 5.05707H4.74082C4.34971 5.05707 4.02378 5.30932 3.89934 5.66367L2.66675 9.26127V14.0661C2.66675 14.3964 2.93341 14.6667 3.25934 14.6667H3.85193C4.17786 14.6667 4.44453 14.3964 4.44453 14.0661V13.4655H11.5556V14.0661C11.5556 14.3964 11.8223 14.6667 12.1482 14.6667H12.7408C13.0667 14.6667 13.3334 14.3964 13.3334 14.0661V9.26127L12.1008 5.66367ZM4.74082 11.6637C4.24897 11.6637 3.85193 11.2613 3.85193 10.7628C3.85193 10.2643 4.24897 9.86187 4.74082 9.86187C5.23267 9.86187 5.62971 10.2643 5.62971 10.7628C5.62971 11.2613 5.23267 11.6637 4.74082 11.6637ZM11.2593 11.6637C10.7675 11.6637 10.3705 11.2613 10.3705 10.7628C10.3705 10.2643 10.7675 9.86187 11.2593 9.86187C11.7512 9.86187 12.1482 10.2643 12.1482 10.7628C12.1482 11.2613 11.7512 11.6637 11.2593 11.6637ZM3.85193 8.66067L4.74082 5.95797H11.2593L12.1482 8.66067H3.85193Z" fill="#21201F"/>
</svg>
