<svg width="32" height="32" viewBox="0 0 32 32" fill="none" xmlns="http://www.w3.org/2000/svg">
<path d="M25.1495 24.8496L21.96 14.0053C20.842 15.3977 19.4193 16.8829 17.6104 18.3843L22.5627 25.8127C22.6679 25.9705 22.8657 26.0384 23.0456 25.9784L24.879 25.3672C25.0938 25.2956 25.2134 25.0668 25.1495 24.8496Z" fill="#ffffff"/>
<path d="M13.5 25.218V21.5027C12.4421 22.2678 11.527 22.9028 10.7369 23.4298L11.6587 25.7341C11.7427 25.9442 11.9773 26.0509 12.1908 25.9762L13.2169 25.6171C13.3865 25.5577 13.5 25.3977 13.5 25.218Z" fill="#ffffff"/>
<path fill-rule="evenodd" clip-rule="evenodd" d="M11.7437 18.5C12.6177 17.4213 13.6249 16.2468 14.6617 15.0869L6.18729 9.43731C6.02951 9.33212 5.96165 9.13434 6.02162 8.95444L6.63277 7.12097C6.70437 6.90618 6.93316 6.78663 7.15037 6.85052L19.1394 10.3767C22.9493 6.68505 25.3034 5.57716 25.863 6.13682C26.4512 6.725 25.2001 9.29778 21.041 13.4569C16.8819 17.616 9.71229 23.7581 8.97703 23.0228C8.80834 22.8541 9.00178 22.3469 9.4503 21.6151L6.26585 20.3413C6.05576 20.2573 5.94908 20.0227 6.02383 19.8092L6.38292 18.7831C6.44227 18.6135 6.6023 18.5 6.78196 18.5H11.7437Z" fill="#ffffff"/>
</svg>
