<svg width="24" height="24" viewBox="0 0 24 24" fill="none" xmlns="http://www.w3.org/2000/svg">
<path d="M18.4469 8.30687L18.4469 8.30688L18.4481 8.31039L20.5 14.1661V22.009C20.5 22.2737 20.2781 22.5 20 22.5H19C18.7219 22.5 18.5 22.2737 18.5 22.009V21.018V20.518H18H6H5.5V21.018V22.009C5.5 22.2737 5.27813 22.5 5 22.5H4C3.72187 22.5 3.5 22.2737 3.5 22.009V14.1661L5.55116 8.31241C5.69322 7.91897 6.06017 7.64414 6.5 7.64414H17.5C17.9457 7.64414 18.3159 7.924 18.4469 8.30687ZM4.52609 12.9307L4.30429 13.5901H5H19H19.6957L19.4739 12.9307L17.9739 8.47122L17.8593 8.13063H17.5H6.5H6.14065L6.02609 8.47122L4.52609 12.9307ZM17 1.78791C17.1047 1.92307 17.2216 2.08036 17.3381 2.24963C17.5172 2.50997 17.6887 2.78914 17.8136 3.05332C17.9434 3.32761 18 3.53853 18 3.67568C18 4.2178 17.5581 4.66216 17 4.66216C16.4419 4.66216 16 4.2178 16 3.67568C16 3.53853 16.0566 3.32761 16.1864 3.05332C16.3113 2.78914 16.4828 2.50997 16.6619 2.24963C16.7784 2.08036 16.8953 1.92307 17 1.78791ZM12 1.78791C12.1047 1.92307 12.2216 2.08036 12.3381 2.24963C12.5172 2.50997 12.6887 2.78914 12.8136 3.05332C12.9434 3.32761 13 3.53853 13 3.67568C13 4.2178 12.5581 4.66216 12 4.66216C11.4419 4.66216 11 4.2178 11 3.67568C11 3.53853 11.0566 3.32761 11.1864 3.05332C11.3113 2.78914 11.4828 2.50997 11.6619 2.24963C11.7784 2.08036 11.8953 1.92307 12 1.78791ZM6.66192 2.24963C6.77838 2.08036 6.89528 1.92307 7 1.78791C7.10472 1.92307 7.22162 2.08036 7.33808 2.24963C7.5172 2.50997 7.68868 2.78914 7.81364 3.05332C7.94338 3.32761 8 3.53853 8 3.67568C8 4.2178 7.55813 4.66216 7 4.66216C6.44187 4.66216 6 4.2178 6 3.67568C6 3.53853 6.05662 3.32761 6.18636 3.05332C6.31132 2.78914 6.4828 2.50997 6.66192 2.24963ZM4.5 16.5586C4.5 17.6615 5.39813 18.545 6.5 18.545C7.60187 18.545 8.5 17.6615 8.5 16.5586C8.5 15.4556 7.60187 14.5721 6.5 14.5721C5.39813 14.5721 4.5 15.4556 4.5 16.5586ZM15.5 16.5586C15.5 17.6615 16.3981 18.545 17.5 18.545C18.6019 18.545 19.5 17.6615 19.5 16.5586C19.5 15.4556 18.6019 14.5721 17.5 14.5721C16.3981 14.5721 15.5 15.4556 15.5 16.5586Z" fill="white" stroke="#FAF9F7"/>
</svg>