<svg fill="none" height="24" viewBox="0 0 48 24" width="48" xmlns="http://www.w3.org/2000/svg"><g fill="#21201f"><path clip-rule="evenodd" d="m25.9446 3.94681c-2.7016-.27297-6.1279-.3402-9.3195-.30867-2.608-.00065-5.8006.04581-8.17399.13137-2.23878.08071-4.16045 1.56511-4.85466 3.67431l-.81136 2.46512c-.07465.22676-.12367.46126-.14615.69896l-.00025.0026-.44237 4.4881-.00044.0048c-.14569 1.554 1.0769 2.8966 2.63776 2.8966h2.14538l-.00002-.0136c0-2.6216 2.12519-4.7468 4.7467-4.7468 2.6216 0 4.7468 2.1252 4.7468 4.7468v.0136h14.9502l-.0001-.0136c0-2.6216 2.1252-4.7468 4.7468-4.7468 2.6215 0 4.7467 2.1252 4.7467 4.7468v.0136h3.0254c.9064 0 1.7842-.6321 1.9252-1.6387.1065-.7609.1755-1.8356.0491-3.1716-.0534-.5646-.3678-.9937-.6921-1.2934-.325-.3003-.7353-.5428-1.1598-.744-.8517-.4038-1.9601-.7327-3.1096-1.0059-2.009-.47761-4.3277-.82595-6.0089-1.07852-.1614-.02424-.3169-.04761-.4656-.07011-1.0813-.78877-2.6315-1.91402-4.1392-2.8927-.7942-.51554-1.5919-1.00046-2.3141-1.37754-.6953-.36307-1.4159-.67805-2.028-.77378l-.0269-.0042zm-.2292 1.98512c-2.5888-.25943-5.917-.3267-9.0723-.29543l-.0096.0001c-2.5574.00077-5.7947.04667-8.10679.13002-1.38252.04984-2.58829.96808-3.02697 2.30088l-.30638.93088h25.80624c-.5647-.39809-1.1514-.80206-1.7307-1.18313-.7722-.50795-1.5149-.96431-2.1618-1.30703-.6558-.34744-1.1228-.52842-1.3917-.57629z" fill-rule="evenodd"/><path d="m39.0472 17.8778c0 1.5894-1.2884 2.8779-2.8778 2.8779s-2.8779-1.2885-2.8779-2.8779 1.2885-2.8778 2.8779-2.8778 2.8778 1.2884 2.8778 2.8778z"/><path d="m14.4952 17.9864c0 1.5294-1.2399 2.7693-2.7693 2.7693-1.5295 0-2.76936-1.2399-2.76936-2.7693 0-1.5295 1.23986-2.7694 2.76936-2.7694 1.5294 0 2.7693 1.2399 2.7693 2.7694z"/></g></svg>