<svg width="32" height="32" viewBox="0 0 32 32" fill="none" xmlns="http://www.w3.org/2000/svg">
<path fill-rule="evenodd" clip-rule="evenodd" d="M11.6723 17.1621L14.8273 22.9748C15.0676 23.3959 15.515 23.6559 15.9995 23.6559C16.4841 23.6559 16.9315 23.3959 17.1718 22.9748L20.3268 17.1669C20.4075 17.0244 20.574 16.9543 20.7321 16.9962C20.8903 17.0381 21.0003 17.1815 21 17.3452V23.6486C21 24.395 21.6044 25 22.35 25H23.65C24.3956 25 25 24.395 25 23.6486V8.79459C24.9998 7.97748 24.4504 7.26277 23.6614 7.05332C22.8724 6.84388 21.8046 7.27203 21.4 7.98169L16.1561 16.8997C16.1241 16.9557 16.0645 16.9902 16 16.9902C15.9355 16.9902 15.8759 16.9557 15.8439 16.8997L10.6 7.98169C10.1955 7.27232 9.12828 6.84412 8.33948 7.05309C7.55068 7.26205 7.00097 7.97601 7 8.79278V23.6486C7 24.395 7.60442 25 8.35 25H9.65C10.3956 25 11 24.395 11 23.6486V17.3404C11.0004 17.1773 11.1102 17.0348 11.2678 16.993C11.4253 16.9512 11.5912 17.0205 11.6723 17.1621Z" fill="#ffffff"/>
</svg>
