<svg width="16" height="16" viewBox="0 0 16 16" fill="none" xmlns="http://www.w3.org/2000/svg">
<path d="M13.1801 4.82L13.1867 4.81333L10.7067 2.33333L10.0001 3.04L11.4067 4.44667C10.7801 4.68667 10.3334 5.28667 10.3334 6C10.3334 6.92 11.0801 7.66667 12.0001 7.66667C12.2401 7.66667 12.4601 7.61333 12.6667 7.52667V12.3333C12.6667 12.7 12.3667 13 12.0001 13C11.6334 13 11.3334 12.7 11.3334 12.3333V9.33333C11.3334 8.6 10.7334 8 10.0001 8H9.33341V3.33333C9.33341 2.6 8.73341 2 8.00008 2H4.00008C3.26675 2 2.66675 2.6 2.66675 3.33333V14H9.33341V9H10.3334V12.3333C10.3334 13.2533 11.0801 14 12.0001 14C12.9201 14 13.6667 13.2533 13.6667 12.3333V6C13.6667 5.54 13.4801 5.12 13.1801 4.82ZM8.00008 6.66667H4.00008V3.33333H8.00008V6.66667ZM12.0001 6.66667C11.6334 6.66667 11.3334 6.36667 11.3334 6C11.3334 5.63333 11.6334 5.33333 12.0001 5.33333C12.3667 5.33333 12.6667 5.63333 12.6667 6C12.6667 6.36667 12.3667 6.66667 12.0001 6.66667Z" fill="#21201F"/>
</svg>
