<svg width="25" height="24" viewBox="0 0 25 24" fill="none" xmlns="http://www.w3.org/2000/svg">
<path fill-rule="evenodd" clip-rule="evenodd" d="M22.9166 12V10.3333C19.4444 12.8333 15.9027 13.25 12.4999 13.25C9.09713 13.25 5.55547 12.8333 2.08325 10.3333V12C5.68421 13.3828 8.04234 13.9051 10.7638 14.0429V15.3333C10.7638 15.7936 11.1524 16.1667 11.6319 16.1667H13.368C13.8474 16.1667 14.236 15.7936 14.236 15.3333V14.0429C16.9575 13.9051 19.3156 13.3828 22.9166 12ZM2.95131 7H22.0485C22.5279 7 22.9166 7.3731 22.9166 7.83334V18.0881C22.9166 18.9029 22.3048 19.5958 21.4637 19.7044C19.5542 19.9512 16.027 20.3333 12.4999 20.3333C8.97279 20.3333 5.44566 19.9512 3.53612 19.7044C2.69502 19.5958 2.08325 18.9029 2.08325 18.0881V7.83334C2.08325 7.3731 2.47189 7 2.95131 7ZM15.5381 6.16667V4.91667C15.5381 4.68655 15.3438 4.5 15.1041 4.5H9.89575C9.65604 4.5 9.46172 4.68655 9.46172 4.91667V6.16667H8.15964V4.91667C8.15964 3.76608 9.13125 2.83334 10.3298 2.83334H14.6701C15.8686 2.83334 16.8402 3.76608 16.8402 4.91667V6.16667H15.5381Z" fill="black" fill-opacity="0.8"/>
</svg>
