<svg fill="none" height="24" viewBox="0 0 25 24" width="25" xmlns="http://www.w3.org/2000/svg"><path d="m20.4362 19.7423c1.1494-1.1509.883-2.4244.4043-2.7069-.3367-.1987-4.7493-2.6849-4.7493-2.6849-.3444-.2157-.6866-.1051-.8929.1422-.0019-.0013-.0039-.0026-.0058-.0039l-1.6253 1.6251c-.2198.2184-.5591.2598-.8241.0995-.9191-.5585-1.8084-1.2513-2.6318-2.0747-.82339-.8234-1.51627-1.7128-2.07473-2.6318-.16029-.265-.11893-.6043.09956-.8241l1.62506-1.62532c-.00133-.00192-.00259-.00392-.00392-.00583.24269-.20239.36123-.54316.14224-.89289 0 0-2.48628-4.41261-2.6849-4.74921-.28251-.47877-1.55609-.74516-2.70697.40424-2.56593 2.56785-1.0807 8.20761 3.3195 12.60841 4.39866 4.3987 10.04006 5.8873 12.60906 3.3201z" fill="#21a870"/></svg>