<svg fill="none" height="25" viewBox="0 0 24 25" width="24" xmlns="http://www.w3.org/2000/svg"><g fill="#21201f"><path d="m2.14433 18.4996c1-1.481 3.5-2.981 5.69042-3.4855l2.29065 2.0457c1.638-.5734 3.1208-1.5187 4.3318-2.7617 1.2388-1.2015 2.1838-2.6724 2.7617-4.29847l-2.0456-2.29065c.471-2.19043 1.971-4.69043 3.4521-5.69043.9739.49904 2.1322 1.38443 3.0736 2.26033.6154.57249.8936 1.41685.7399 2.24315-.7039 3.78587-2.7856 7.39967-5.5635 10.22757-2.7824 2.8325-6.4432 4.9214-10.24422 5.5821-.81713.142-1.64715-.1389-2.21217-.746-.87906-.9446-1.77102-2.1088-2.27468-3.0861z"/><path d="m6.78906 11.1871c.19167.1917.42917.2875.7125.2875.28334 0 .52084-.0958.7125-.2875.19167-.1917.2875-.4292.2875-.7125s-.09583-.52082-.2875-.71249c-.19166-.19167-.42916-.2875-.7125-.2875-.28333 0-.52083.09583-.7125.2875-.19166.19167-.2875.42919-.2875.71249s.09584.5208.2875.7125z"/><path d="m3.95156 7.97461 1.05 1.05c.33334-.33333.7125-.59167 1.1375-.775s.87917-.275 1.3625-.275c.48334 0 .9375.09167 1.3625.275s.80417.44167 1.13754.775l1.05-1.05c-.4834-.48333-1.0292-.85417-1.63754-1.1125-.60833-.25833-1.24583-.3875-1.9125-.3875-.66666 0-1.30416.12917-1.9125.3875-.60833.25833-1.15416.62917-1.6375 1.1125z"/><path d="m1.85156 5.82461 1.05 1.05c.63334-.6 1.34167-1.06667 2.125-1.4.78334-.33333 1.60834-.5 2.475-.5.86667 0 1.69584.1625 2.4875.4875.79164.325 1.49584.79583 2.11254 1.4125l1.05-1.05c-.75-.75-1.6125-1.32917-2.5875-1.7375-.97504-.40833-1.99587-.6125-3.06254-.6125-1.06666 0-2.0875.20417-3.0625.6125s-1.8375.9875-2.5875 1.7375z"/></g></svg>