<svg width="24" height="24" viewBox="0 0 24 24" fill="none" xmlns="http://www.w3.org/2000/svg">
<path d="M19.7461 4.24913C17.2712 1.77426 14.7822 0.699412 14.0751 1.40652L13.0144 2.46718L14.0892 4.95624L11.29 7.00903C10.6734 6.79334 10.0323 6.64208 9.37638 6.56004C7.32721 6.30383 5.25112 6.73853 3.47674 7.79534C2.69885 8.57323 4.89095 12.038 8.42649 15.5735C11.962 19.109 15.4268 21.3011 16.2047 20.5233C17.2615 18.7489 17.6962 16.6728 17.44 14.6236C17.3576 13.965 17.2055 13.3212 16.9884 12.7023L19.039 9.90599L21.5139 10.9666L22.5745 9.90599C23.2816 9.19888 22.221 6.724 19.7461 4.24913Z" fill="black"/>
<path d="M3.55318 19.1095L6.74607 15.2541C7.06048 15.5913 7.38845 15.9314 7.7287 16.2716C8.07915 16.6221 8.42937 16.9595 8.77651 17.2825L4.9674 20.5237L3.55318 19.1095Z" fill="black"/>
</svg>
