<svg width="24" height="24" viewBox="0 0 24 24" fill="none" xmlns="http://www.w3.org/2000/svg">
<path fill-rule="evenodd" clip-rule="evenodd" d="M20.4852 12L18.3639 11.2929L16.4901 14.027C16.6349 14.5891 16.7263 15.1675 16.7608 15.7546C16.8911 17.9705 16.2035 20.1571 14.8284 21.8995C14.129 22.5989 11.2572 20.8972 8.11493 17.9767L4.9602 20.5165L3.54598 19.1023L6.03409 15.8967C3.10696 12.7499 1.40018 9.87183 2.10043 9.17158C3.84371 7.79853 6.02986 7.1122 8.24511 7.24251C8.83116 7.27698 9.4085 7.36798 9.96978 7.51221L12.707 5.63605L11.9999 3.51473L13.4141 2.10051C14.1212 1.39341 16.5961 2.45407 19.071 4.92894C21.5459 7.40381 22.6065 9.87869 21.8994 10.5858L20.4852 12ZM13.0458 19.3539C13.3542 19.5499 13.6174 19.6992 13.8346 19.8097C14.5183 18.6224 14.8456 17.2545 14.7642 15.8721C14.7373 15.4145 14.6662 14.9638 14.5533 14.5258L14.3137 13.5955L17.6288 8.93969L19.945 9.71176L20.0236 9.63316C19.9882 9.53702 19.9398 9.42046 19.8742 9.28319C19.5081 8.51773 18.7749 7.46125 17.6568 6.34315C16.5387 5.22506 15.4822 4.49184 14.7167 4.12575C14.5795 4.0601 14.4629 4.01173 14.3668 3.9763L14.2882 4.05491L15.0602 6.37114L10.4018 9.6882L9.47201 9.44928C9.03456 9.33687 8.58457 9.26593 8.12767 9.23906C6.74575 9.15777 5.37835 9.48418 4.1908 10.1664C4.30126 10.3834 4.45038 10.6462 4.64599 10.9541C5.43906 12.2026 6.76804 13.8392 8.46439 15.5355C10.1607 17.2319 11.7973 18.5609 13.0458 19.3539Z" fill="black"/>
</svg>
