<svg fill="none" height="36" viewBox="0 0 44 36" width="44" xmlns="http://www.w3.org/2000/svg"><clipPath id="a"><rect height="24" rx="4" transform="matrix(.93969262 -.34202014 .34202014 .93969262 -4.346038 1.112391)" width="36" x=".981323" y="12.88"/></clipPath><clipPath id="b"><rect height="24" rx="4" width="36" x="4" y="6"/></clipPath><rect fill="#fff" height="24" rx="4" width="36" x="4" y="6"/><g clip-path="url(#a)"><rect fill="#000" height="24" rx="4" transform="matrix(.93969262 -.34202014 .34202014 .93969262 -4.346038 1.112391)" width="36" x=".981323" y="12.88"/><path d="m19.6957 26.2879c3.6329-1.3222 5.506-5.3391 4.1837-8.972-1.3222-3.6328-5.3391-5.5059-8.972-4.1837-3.6328 1.3223-5.50592 5.3392-4.1837 8.972 1.3223 3.6329 5.3392 5.506 8.972 4.1837z" fill="#eb001b"/><path d="m29.0927 22.8678c3.6328-1.3223 5.5059-5.3392 4.1837-8.972-1.3222-3.6329-5.3391-5.50599-8.972-4.18374-3.6328 1.32224-5.5059 5.33914-4.1837 8.97194 1.3223 3.6329 5.3391 5.506 8.972 4.1838z" fill="#f79e1b"/><path clip-rule="evenodd" d="m20.3245 13.3964c-.7308 1.6095-.8562 3.4953-.2039 5.2876.6524 1.7923 1.9606 3.1562 3.555 3.9195.7307-1.6096.8561-3.4953.2038-5.2876s-1.9606-3.1562-3.5549-3.9195z" fill="#ff5f00" fill-rule="evenodd"/></g><g clip-path="url(#b)"><rect fill="#fff" height="24" rx="4" width="36" x="4" y="6"/><g clip-rule="evenodd" fill="#000" fill-rule="evenodd"><path d="m13.8131 13.9045c.3346-.4019.5005-.9181.4629-1.44-.5128.0497-.9866.2957-1.3228.6868-.338.3788-.5096.8779-.4762 1.3848.5192.0091 1.013-.2243 1.3361-.6316zm.4585.7266c-.4498-.0269-.8587.1346-1.1889.265-.212.0837-.3915.1546-.5286.1546-.1502 0-.3337-.073-.5411-.1556-.2766-.1101-.5959-.2372-.936-.2309-.7733.019-1.47834.4479-1.85193 1.1264-.79369 1.3693-.20945 3.4012.56219 4.5165.37484.5521.82674 1.1595 1.42204 1.1374.2806-.0104.4706-.092.6647-.1754.2175-.0934.4402-.189.8014-.189.3499 0 .5727.0955.7867.1872.2039.0875.3999.1715.6904.1661.5953-.011 1.0032-.5521 1.378-1.1042.2658-.3913.4738-.819.6173-1.27-.7245-.3165-1.1952-1.0303-1.2016-1.822.01-.6992.3759-1.3447.9701-1.7117-.3809-.5339-.9878-.8603-1.6425-.8834zm7.3592-1.5394c1.605 0 2.7228 1.1043 2.7228 2.721 0 1.6166-1.1399 2.7298-2.7625 2.7298h-1.777v2.8335h-1.2831v-8.2843zm-1.8167 4.3752h1.4728c1.1177 0 1.7637-.6029 1.7637-1.6476 0-1.0446-.6349-1.641-1.7483-1.641h-1.4882zm4.8569 2.1931c0-1.0623.8091-1.6697 2.2973-1.7669l1.5984-.0971v-.4572c0-.6626-.4409-1.038-1.2258-1.038-.6482 0-1.1178.3335-1.2148.8436h-1.1574c.0352-1.0733 1.0428-1.8552 2.4075-1.8552 1.4661 0 2.4251.7686 2.4251 1.9635v4.1233h-1.1861v-.9938h-.0287c-.3903.6753-1.1196 1.0809-1.8982 1.0557-1.1861 0-2.0173-.7112-2.0173-1.7779zm3.8979-.5345v-.466l-1.4264.0928c-.8025.0508-1.2214.3511-1.2214.8834s.4409.8326 1.1177.8326c.8709-.011 1.5301-.5676 1.5301-1.3428zm2.3215 4.4657v-.9939c.126.0138.2525.0211.3792.0221.5666 0 .8819-.2407 1.0825-.8613l.1147-.3666-2.1716-6.0272h1.3404l1.5124 4.892h.0287l1.5124-4.892h1.3074l-2.2532 6.332c-.5159 1.4532-1.1024 1.928-2.3546 1.928-.1667.0008-.3332-.0102-.4983-.0331z"/><path d="m36 6.5h-28c-1.933 0-3.5 1.567-3.5 3.5v16c0 1.933 1.567 3.5 3.5 3.5h28c1.933 0 3.5-1.567 3.5-3.5v-16c0-1.933-1.567-3.5-3.5-3.5zm-28-.5c-2.20914 0-4 1.79086-4 4v16c0 2.2091 1.79086 4 4 4h28c2.2091 0 4-1.7909 4-4v-16c0-2.20914-1.7909-4-4-4z"/></g></g></svg>