<svg fill="none" height="24" viewBox="0 0 36 24" width="36" xmlns="http://www.w3.org/2000/svg" xmlns:xlink="http://www.w3.org/1999/xlink"><clipPath id="a"><rect height="24" rx="4" width="36"/></clipPath><g clip-path="url(#a)"><rect fill="#fff" height="24" rx="4" width="36"/><path clip-rule="evenodd" d="m32 .5h-28c-1.933 0-3.5 1.567-3.5 3.5v16c0 1.933 1.567 3.5 3.5 3.5h28c1.933 0 3.5-1.567 3.5-3.5v-16c0-1.933-1.567-3.5-3.5-3.5zm-28-.5c-2.20914 0-4 1.79086-4 4v16c0 2.2091 1.79086 4 4 4h28c2.2091 0 4-1.7909 4-4v-16c0-2.20914-1.7909-4-4-4z" fill="#000" fill-rule="evenodd"/><path d="m18 22.9998c4.8929-.9786 12.1797-8.1816 10.6156-21.14049-.0594-.49211-.4827-.859554-.9784-.859554h-23.6372c-1.65685 0-3 1.343144-3 3.000004v16.00004c0 1.6568 1.34149 3 2.99835 3z" fill="#334552"/><g fill="#c1ad5d"><path d="m28.3515 18.4958c.2183-.0653.3847-.1851.551-.3266.6967-.5769 1.2061-1.317 1.6532-2.1116 1.5908-2.8844 2.5265-6.12801 2.7033-9.4696.0208-.33742.0208-.67485.0312-1.02316 0-.05442-.0104-.10887.0312-.16329.1247.04353.2391.09795.3431.19591 1.2269 1.14289 1.4348 3.30895 1.2996 4.90894-.3119 3.7879-2.3186 7.837-5.5209 9.7962-.0728.0436-.1456.0871-.2287.1306-.4991.2722-1.0086.4899-1.5388.6858-.104.0326-.1976.0653-.3016.1088.4367-.0218 1.0398-.1088 1.726-.3374 1.8299-.6313 3.2855-2.0463 4.3044-3.7334.2496-.4137.4679-.8381.6863-1.2735.0104-.0218.0312-.0544.0623-.0653.0416 0 .052.0326.0728.0653.5095 1.2299.3743 2.4926-.3431 3.6028-1.414 2.1878-4.3876 3.494-6.8622 3.5049-2.277 0-4.5436 0-6.8206 0-.0727 0-.1767.0435-.1975-.0654-.0208-.1088.0936-.0979.1663-.1306 3.4519-1.6545 6.0617-4.5498 7.7564-8.0873 1.4764-3.0695 2.225-6.55254 1.9339-9.99209-.0936-1.09935-.2911-2.19869-.5927-3.2545-.0208-.06531-.0416-.13061-.0519-.19592-.0416-.22858.0208-.28299.2495-.26122.5614.05442 1.0501.27207 1.4868.63126.8318.68573 1.1541 1.92663 1.3412 2.97156.3639 1.94835 0 4.11437-.447 6.03011-.5719 2.4817-1.5284 4.9198-2.9009 7.0315-.1455.2285-.3223.4353-.4783.653-.0415.0544-.0831.1197-.1247.185z"/><path clip-rule="evenodd" d="m23.5234 9.74551c.3689.28209.651.68359.7812 1.12849h.0217c.3798 1.2804-.1953 2.9298-1.5842 3.2879-.2279.0542-.4557.076-.6836.076-.2279.0108-.4558-.0218-.6836-.076-1.389-.3581-1.9749-1.9966-1.5843-3.2879.1302-.4558.4015-.8464.7813-1.12849.4232-.31468.944-.48832 1.4757-.49917.5209.01085 1.0526.18449 1.4758.49917zm-1.4866 3.83039c.6836 0 1.0959-.6619 1.237-1.2696.1411-.5859.1085-1.2804-.217-1.8012-.2279-.3689-.6185-.586-1.02-.586-.4015.01085-.7922.2279-1.02.586-.3256.5208-.3581 1.2153-.217 1.8012.1519.6077.5534 1.2696 1.237 1.2696zm-13.71578-3.2986c0-.30386-.09766-.61851-.36893-.78127-.26043-.16277-.60766-.16282-.81383.08676-.0217.0217-.05426.05427-.04341.08682 0 .02132.03258.02404.06116.02642.01507.00126.02902.00242.03651.00617.0434.0217.0651.06509.0651.11934v1.38886c-.67276 0-1.35637 0-2.02914-.0108-.01085-.1628-.0217-.3581 0-.5642.01086-.1845.03255-.3798.07595-.5643.01085-.07596.03256-.16274.05426-.23869.00713-.0285.01893-.05934.03118-.09136.02508-.06554.05206-.13604.04477-.20164v-.00002c0-.01085 0-.02172-.01084-.03257-.02171-.0217-.05427-.02165-.07597-.01079-.17362.0434-.33637.14105-.46659.26041-.0434.03255-.15191.14104-.24957.31466-.26042.4666-.28213 1.1285-.28213 1.1285-.01085.4232-.03256 1.2913.42319 2.1919 0 0 .31468.6294.77043.7813.08681.0326.11936 0 .11936 0 .0238-.0317-.01039-.0808-.03898-.1219l-.00001-.0001h-.00001c-.01051-.0151-.02027-.0291-.0261-.0408-.04341-.0651-.07597-.1302-.10852-.2061-.06511-.1411-.10852-.3039-.14107-.4558-.09766-.4666-.1519-.944-.14105-1.4323h2.05084v1.8121c0 .1194.05425.2387.16276.293.06507.0325.14098.0434.2169.0542h.00012c.13021.0109.26042.0217.39064 0 .07595-.0108.15191-.0433.20617-.0976.08681-.0868.08681-.1954.08681-.3147v-2.7236zm-2.81044 4.1125c-.82468-.2387-1.15021-1.1176-1.32383-1.8772-.0434-.1628-.07595-.3256-.09766-.4992-.0651-.51-.06511-1.0742.09766-1.5625-.10129.0254-.15662.0966-.21196.1679-.0158.0203-.0316.0407-.04847.06-.27128.3255-.29298.6944-.30383 1.0742-.03047.8227.25282 1.4173.34257 1.6057l.01552.0328c.16276.3038.33638.4992.39064.5534.18446.2062.36893.3473.51.4341l-.02611-.0078c-.10762-.0319-.25859-.0766-.41879-.1767-.16277-.0977-.27127-.2061-.34723-.293-.10851-.141-.18447-.2604-.22787-.3363l-.00451-.0079c-.12944-.2265-.28946-.5065-.37527-.8819-.0217-.1085-.04341-.2171-.07597-.2171-.0651 0-.13021.2062-.14106.2605-.04341.1519-.0651.293-.05425.3689 0 .2821.21702.8464.73787 1.2262 0 0 .44488.3363 1.21531.358h.00003c.03266 0 .21704 0 .35805-.0976.06511-.0434.10851-.1194 0-.1628zm13.39012-4.2209c.0217.6022.0407 1.2044.0597 1.8067.019.6022.038 1.2044.0597 1.8066v.0001c0 .0217 0 .0434-.0109.0759-.0542.1736-.2821.2604-.4557.2604s-.3798-.0759-.4557-.2387c0 0-.0217-.0325-.0217-.0651-.0434-.2387-.076-2.2245-.0868-3.0817-.4666.9657-.8356 1.6928-1.0092 2.0075-.0056.0083-.0115.0178-.0179.0279-.0435.0692-.1087.1729-.2317.2108-.0434.0217-.0868.0217-.1302.0217-.0433 0-.0867-.0108-.13-.0217h-.0002c-.1411-.0434-.217-.1736-.2496-.2387l-.0451-.0871v-.0001l-.0001-.0001c-.1815-.3503-.5362-1.035-.9639-1.9202l-.0019.1479c-.0114.9171-.0336 2.6977-.0849 2.9338l-.0217.0651c-.076.1628-.2822.2387-.4558.2387s-.3906-.0868-.4557-.2604c-.0109-.0325-.0109-.0542-.0109-.0759v-.0001c.0217-.6022.0407-1.2044.0597-1.8066.019-.6023.038-1.2045.0597-1.8067-.0109-.0977 0-.26048.0326-.44494 0-.01086.0108-.06509.0325-.11935.0109-.03255.0434-.10854.1302-.16279.0434-.0217.0977-.04338.1519-.04338h.1085.152.3038c.0868 0 .1736.03258.2387.09769.076.07595.1411.18442.2387.434.0058.01156.0116.02236.017.03239v.00002.00007c.0148.02756.0264.04929.0264.06519.0326.0868.5751 1.2587.7813 1.5951.0109.0217.0434.076.0868.076s.076-.0543.0868-.076c.1651-.2693.5388-1.0741.7035-1.4289l.0001-.0001v-.0001c.041-.0883.0691-.1487.0777-.166.0045-.009.009-.0198.0143-.03255.0074-.01798.0164-.0397.0291-.06512.0977-.23873.1628-.35805.2387-.434.0651-.06511.1519-.09769.2388-.09769h.3038.1519.1085c.0543 0 .1085.01082.1519.04338.076.05425.1194.13024.1302.16279.0326.05426.0326.09764.0326.11935.0325.18446.0325.33644.0325.44494zm-5.6858-.64026c-.0976-.11936-.2604-.1302-.4232-.1302-.1519 0-.3472 0-.4666.1302-.0651.07596-.0868.16278-.0868.21704v2.66942c0 .0868 0 .2495-.0976.434-.0977.1953-.2279.3038-.2605.3255 0 0-.2278.1736-.5208.1953h-.0651-.0217-.0217-.0651c-.293-.0217-.5209-.1953-.5209-.1953-.0325-.0217-.1627-.1302-.2604-.3255-.0868-.1845-.0976-.3472-.0976-.434v-2.66942c0-.05426-.0218-.14108-.0869-.21704-.1193-.1302-.31462-.1302-.46653-.1302h-.00002-.00002c-.16276 0-.32551 0-.42317.1302-.07595.09766-.07597.21703-.06512.27128v2.78868c0 .2605.07596.6077.32554.9332.28212.369.67272.5318.80302.5752.2203.0862.4321.1132.531.1258l.0332.0044c.1302.0108.2387.0108.3255.0108s.1954 0 .3256-.0108c.0759 0 .3147-.0326.5642-.1302.1194-.0434.5209-.2062.803-.5752.2496-.3255.3255-.6727.3255-.9332v-2.78868s.0109-.17362-.0651-.27128z" fill-rule="evenodd"/></g></g></svg>