<svg fill="none" height="24" viewBox="0 0 36 24" width="36" xmlns="http://www.w3.org/2000/svg"><clipPath id="a"><rect height="24" rx="4" width="36"/></clipPath><g clip-path="url(#a)" opacity=".4"><rect fill="#fff" height="24" rx="4" width="36"/><g clip-rule="evenodd" fill-rule="evenodd"><path d="m24.6667 12v-1.1111c-2.2222 1.6667-4.4889 1.9445-6.6667 1.9445-2.1777 0-4.4444-.2778-6.6666-1.9445v1.1111c2.3046.9219 3.8138 1.2701 5.5555 1.362v.8602c0 .3069.2488.5556.5556.5556h1.1111c.3068 0 .5556-.2487.5556-.5556v-.8602c1.7417-.0919 3.2509-.4401 5.5555-1.362zm-12.7778-3.33331h12.2223c.3068 0 .5555.24873.5555.55556v6.83655c0 .5431-.3915 1.0051-.9298 1.0775-1.2221.1645-3.4795.4193-5.7369.4193-2.2573 0-4.5147-.2548-5.7368-.4193-.5383-.0724-.9298-.5344-.9298-1.0775v-6.83655c0-.30683.2487-.55556.5555-.55556zm8.0556-.55555v-.83334c0-.15341-.1244-.27777-.2778-.27777h-3.3333c-.1534 0-.2778.12436-.2778.27777v.83334h-.8333v-.83334c0-.76706.6218-1.38888 1.3889-1.38888h2.7777c.7671 0 1.3889.62182 1.3889 1.38888v.83334z" fill="#21201f"/><path d="m32 .5h-28c-1.933 0-3.5 1.567-3.5 3.5v16c0 1.933 1.567 3.5 3.5 3.5h28c1.933 0 3.5-1.567 3.5-3.5v-16c0-1.933-1.567-3.5-3.5-3.5zm-28-.5c-2.20914 0-4 1.79086-4 4v16c0 2.2091 1.79086 4 4 4h28c2.2091 0 4-1.7909 4-4v-16c0-2.20914-1.7909-4-4-4z" fill="#000"/></g></g></svg>