<svg fill="none" height="32" viewBox="0 0 38 32" width="38" xmlns="http://www.w3.org/2000/svg"><rect fill="#fff" height="24" rx="4" width="36" y="4"/><rect fill="#000" height="20" rx="4" width="30" x="8"/><path d="m18.8333 15.8333c3.2217 0 5.8334-2.6117 5.8334-5.83334 0-3.22166-2.6117-5.83333-5.8334-5.83333-3.2216 0-5.8333 2.61167-5.8333 5.83333 0 3.22164 2.6117 5.83334 5.8333 5.83334z" fill="#eb001b"/><path d="m27.1667 15.8333c3.2217 0 5.8333-2.6117 5.8333-5.83334 0-3.22166-2.6116-5.83333-5.8333-5.83333s-5.8333 2.61167-5.8333 5.83333c0 3.22164 2.6116 5.83334 5.8333 5.83334z" fill="#f79e1b"/><g clip-rule="evenodd" fill-rule="evenodd"><path d="m23 5.91748c-1.0309 1.05211-1.6666 2.49307-1.6666 4.08249 0 1.58943.6357 3.03033 1.6666 4.08253 1.031-1.0522 1.6667-2.4931 1.6667-4.08253 0-1.58942-.6357-3.03038-1.6667-4.08249z" fill="#ff5f00"/><path d="m3.33333 12c-1.84095 0-3.33333 1.4924-3.33333 3.3333v13.3334c0 1.8409 1.49238 3.3333 3.33333 3.3333h23.33337c1.8409 0 3.3333-1.4924 3.3333-3.3333v-13.3334c0-1.8409-1.4924-3.3333-3.3333-3.3333z" fill="#fff"/><g fill="#000"><path d="m8.17756 18.5871c.27885-.3349.41716-.7651.38582-1.2-.42733.0414-.82222.2464-1.10234.5724-.28169.3156-.42472.7315-.39684 1.1539.43265.0076.84419-.1869 1.11336-.5263zm.38211.6055c-.37482-.0224-.71557.1121-.99072.2208-.17665.0698-.32626.1289-.44048.1289-.12521 0-.27809-.0609-.45098-.1297-.23048-.0918-.49653-.1977-.77997-.1924-.6444.0159-1.23195.3732-1.54328.9386-.6614 1.1411-.17453 2.8343.4685 3.7638.31233.4601.68896.9662 1.18502.9478.23387-.0087.39219-.0767.5539-.1461.18129-.0779.36684-.1576.66786-.1576.29159 0 .47723.0796.65555.1561.16998.0729.33331.1429.57539.1384.49606-.0092.83595-.4601 1.14828-.9202.22156-.326.39486-.6825.51446-1.0583-.60375-.2637-.99604-.8586-1.00133-1.5184.00833-.5826.31323-1.1206.80838-1.4263-.31741-.445-.82314-.717-1.36874-.7362zm6.13263-1.2828c1.3376 0 2.269.9202 2.269 2.2675 0 1.3472-.9498 2.2748-2.302 2.2748h-1.4808v2.3613h-1.0693v-6.9036zm-1.5138 3.646h1.2272c.9315 0 1.4698-.5025 1.4698-1.373 0-.8706-.5291-1.3675-1.4569-1.3675h-1.2401zm4.0474 1.8275c0-.8852.6742-1.3914 1.9144-1.4723l1.332-.081v-.381c0-.5521-.3675-.865-1.0215-.865-.5402 0-.9315.2779-1.0124.703h-.9645c.0294-.8944.869-1.5459 2.0063-1.5459 1.2217 0 2.0209.6404 2.0209 1.6361v3.4362h-.9884v-.8282h-.0239c-.3252.5627-.9331.9008-1.5819.8797-.9884 0-1.681-.5926-1.681-1.4816zm3.2482-.4454v-.3883l-1.1887.0773c-.6687.0423-1.0178.2926-1.0178.7362 0 .4435.3674.6938.9315.6938.7257-.0092 1.275-.473 1.275-1.119zm1.9346 3.7215v-.8283c.105.0115.2104.0176.316.0184.4722 0 .7349-.2006.9021-.7177l.0955-.3056-1.8096-5.0226h1.117l1.2603 4.0766h.0239l1.2604-4.0766h1.0894l-1.8776 5.2766c-.4299 1.2111-.9186 1.6068-1.9622 1.6068-.1389.0006-.2776-.0086-.4152-.0276z"/><path d="m26.6667 12.4167h-23.33337c-1.61083 0-2.916663 1.3058-2.916663 2.9166v13.3334c0 1.6108 1.305833 2.9166 2.916663 2.9166h23.33337c1.6108 0 2.9166-1.3058 2.9166-2.9166v-13.3334c0-1.6108-1.3058-2.9166-2.9166-2.9166zm-23.33337-.4167c-1.84095 0-3.33333 1.4924-3.33333 3.3333v13.3334c0 1.8409 1.49238 3.3333 3.33333 3.3333h23.33337c1.8409 0 3.3333-1.4924 3.3333-3.3333v-13.3334c0-1.8409-1.4924-3.3333-3.3333-3.3333z"/></g></g></svg>