<svg fill="none" height="24" viewBox="0 0 24 24" width="24" xmlns="http://www.w3.org/2000/svg"><g fill="#21201f"><path d="m2.30448 6.46927c-.30448.73508-.30448 1.66696-.30448 3.53073v4c0 1.8638 0 2.7956.30448 3.5307.40598.9801 1.18467 1.7588 2.16479 2.1648.73508.3045 1.66696.3045 3.53073.3045h8c1.8638 0 2.7956 0 3.5307-.3045.9801-.406 1.7588-1.1847 2.1648-2.1648.1689-.4078.2442-.8762.2776-1.5307h-5.9731c-1.6569 0-3-1.3431-3-3v-2c0-1.65685 1.3431-3 3-3h5.9731c-.0334-.65451-.1087-1.12291-.2776-1.53073-.406-.98012-1.1847-1.75881-2.1648-2.16479-.7351-.30448-1.6669-.30448-3.5307-.30448h-8c-1.86377 0-2.79565 0-3.53073.30448-.98012.40598-1.75881 1.18467-2.16479 2.16479z"/><path d="m22 10h-6c-.5523 0-1 .4477-1 1v2c0 .5523.4477 1 1 1h6z"/></g></svg>