<svg fill="none" height="24" viewBox="0 0 36 24" width="36" xmlns="http://www.w3.org/2000/svg"><clipPath id="a"><rect height="24" rx="4" width="36"/></clipPath><g clip-path="url(#a)"><rect fill="#fff" height="24" rx="4" width="36"/><g clip-rule="evenodd" fill-rule="evenodd"><path d="m17.8333 6c-.2761 0-.5.22386-.5.5v4.8333h-4.8333c-.2761 0-.5.2239-.5.5v.3334c0 .2761.2239.5.5.5h4.8333v4.8333c0 .2761.2239.5.5.5h.3334c.2761 0 .5-.2239.5-.5v-4.8333h4.8333c.2761 0 .5-.2239.5-.5v-.3334c0-.2761-.2239-.5-.5-.5h-4.8333v-4.8333c0-.27614-.2239-.5-.5-.5z" fill="#21201f"/><path d="m32 .5h-28c-1.933 0-3.5 1.567-3.5 3.5v16c0 1.933 1.567 3.5 3.5 3.5h28c1.933 0 3.5-1.567 3.5-3.5v-16c0-1.933-1.567-3.5-3.5-3.5zm-28-.5c-2.20914 0-4 1.79086-4 4v16c0 2.2091 1.79086 4 4 4h28c2.2091 0 4-1.7909 4-4v-16c0-2.20914-1.7909-4-4-4z" fill="#000"/></g></g></svg>