<svg fill="none" height="24" viewBox="0 0 24 24" width="24" xmlns="http://www.w3.org/2000/svg"><path clip-rule="evenodd" d="m9 2v1.00084c.2644-.00084.54395-.00084.84-.00084h4.32c.296 0 .5756 0 .84.00084v-1.00084h2v1.05317c.9268.06648 1.5768.21609 2.1167.55279.5176.32281.9545.75972 1.2773 1.27732.606.97163.606 2.29999.606 4.95672v4.32c0 2.6567 0 3.9851-.606 4.9567-.3228.5176-.7597.9545-1.2773 1.2773-.9716.606-2.3.606-4.9567.606h-4.32c-2.65673 0-3.98509 0-4.95672-.606-.5176-.3228-.95451-.7597-1.27732-1.2773-.60596-.9716-.60596-2.3-.60596-4.9567v-4.32c0-2.65673 0-3.98509.60596-4.95672.32281-.5176.75972-.95451 1.27732-1.27732.53988-.3367 1.18989-.48631 2.11672-.55279v-1.05317zm.31029 4v5.4667h-1.31029v1.5333h1.31029v1h-1.31029v1.4833h1.31029v2.5167h2.38331v-2.5167h3.3064v-1.4833h-3.3064v-1h.7667c.6111 0 1.1722-.0611 1.6833-.1833.5111-.1223.95-.3223 1.3167-.6.3667-.2778.65-.6278.85-1.05.2111-.4334.3167-.9945.3167-1.6167 0-.61111-.1-1.15556-.3-1.6-.2-.44445-.4778-.81111-.8334-1.1-.3555-.28889-.7889-.5-1.3-.63333-.5-.14445-1.0555-.21667-1.6666-.21667zm2.38331 5.4667v-3.61669h.8333c.6111 0 1.05.12777 1.3167.38333.2778.25555.4167.69444.4167 1.31667 0 1.24449-.5889 1.91669-1.7667 1.91669z" fill="#21201f" fill-rule="evenodd"/></svg>