<svg fill="none" height="24" viewBox="0 0 24 24" width="24" xmlns="http://www.w3.org/2000/svg"><path clip-rule="evenodd" d="m2 10c0-1.86377 0-2.79565.30448-3.53073.40598-.98012 1.18467-1.75881 2.16479-2.16479.73508-.30448 1.66696-.30448 3.53073-.30448h8c1.8638 0 2.7956 0 3.5307.30448.9801.40598 1.7588 1.18467 2.1648 2.16479.3045.73508.3045 1.66696.3045 3.53073v4c0 1.8638 0 2.7956-.3045 3.5307-.406.9801-1.1847 1.7588-2.1648 2.1648-.7351.3045-1.6669.3045-3.5307.3045h-8c-1.86377 0-2.79565 0-3.53073-.3045-.98012-.406-1.75881-1.1847-2.16479-2.1648-.30448-.7351-.30448-1.6669-.30448-3.5307zm6-4h8c.9592 0 1.5785.00108 2.0525.03342.456.03111.6296.08435.7129.11882.49.20299.8794.59234 1.0824 1.08239.0344.08323.0877.25689.1188.71289.0012.0173.0023.03479.0034.05248h-4.97c-1.6569 0-3 1.34315-3 3v2c0 1.6569 1.3431 3 3 3h4.97c-.0011.0177-.0022.0352-.0034.0525-.0311.456-.0844.6296-.1188.7129-.203.49-.5924.8794-1.0824 1.0824-.0833.0344-.2569.0877-.7129.1188-.474.0323-1.0933.0334-2.0525.0334h-8c-.95925 0-1.57852-.0011-2.05248-.0334-.456-.0311-.62966-.0844-.71289-.1188-.49005-.203-.8794-.5924-1.08239-1.0824-.03447-.0833-.08771-.2569-.11882-.7129-.03234-.474-.03342-1.0933-.03342-2.0525v-4c0-.95925.00108-1.57852.03342-2.05248.03111-.456.08435-.62966.11882-.71289.20299-.49005.59234-.8794 1.08239-1.08239.08323-.03447.25689-.08771.71289-.11882.47396-.03234 1.09323-.03342 2.05248-.03342zm12 8v-4h-5c-.5523 0-1 .4477-1 1v2c0 .5523.4477 1 1 1z" fill="#21201f" fill-rule="evenodd"/></svg>