<svg fill="none" height="24" viewBox="0 0 24 24" width="24" xmlns="http://www.w3.org/2000/svg"><path clip-rule="evenodd" d="m19.9995 5h1.9584v-2h-19.95839v2h1.9712v14.9922l1.42629.9046 3.43265-1.6176 3.15545 1.511 3.1555-1.511 3.4326 1.6176 1.4263-.9046zm-9.2449 4.66501c0-.3656.1368-.58879.3247-.74319.2126-.17473.5384-.29389.9091-.30386.3726-.01002.695.09263.8977.24178.1739.12799.2824.29942.2824.57992 0 .28445-.07.38176-.1154.43614-.089.10671-.2165.1919-.5365.3969l-.0026.0016c-.2729.1748-.6975.4468-1.0271.8928-.3543.4795-.5434 1.0745-.5434 1.8171h2c0-.3818.0891-.5434.1519-.6285.0866-.1172.2165-.2173.5-.3989l.0632-.0403c.2442-.1548.6293-.3989.9299-.759.3718-.4454.58-1.0074.58-1.71784 0-.95554-.4433-1.70963-1.097-2.19071-.6249-.45994-1.4059-.64993-2.1368-.63027-.7328.01971-1.5104.25257-2.1254.7581-.63975.52586-1.05467 1.31118-1.05467 2.28823zm2.3361 5.46439c0 .6237-.5056 1.1293-1.1293 1.1293s-1.1294-.5056-1.1294-1.1293c0-.6238.5057-1.1294 1.1294-1.1294s1.1293.5056 1.1293 1.1294z" fill="#21201f" fill-rule="evenodd"/></svg>