<svg width="24" height="24" viewBox="0 0 24 24" fill="none" xmlns="http://www.w3.org/2000/svg">
<path fill-rule="evenodd" clip-rule="evenodd" d="M7.25 10.5C5.17893 10.5 3.5 8.82107 3.5 6.75C3.5 4.67893 5.17893 3 7.25 3C9.32107 3 11 4.67893 11 6.75C11 8.82107 9.32107 10.5 7.25 10.5ZM5.70711 19.7071C5.31658 20.0976 4.68342 20.0976 4.29289 19.7071C3.90237 19.3166 3.90237 18.6834 4.29289 18.2929L18.2929 4.29289C18.6834 3.90237 19.3166 3.90237 19.7071 4.29289C20.0976 4.68342 20.0976 5.31658 19.7071 5.70711L5.70711 19.7071ZM13 17.25C13 19.3211 14.6789 21 16.75 21C18.8211 21 20.5 19.3211 20.5 17.25C20.5 15.1789 18.8211 13.5 16.75 13.5C14.6789 13.5 13 15.1789 13 17.25ZM7.25 8.5C8.2165 8.5 9 7.7165 9 6.75C9 5.7835 8.2165 5 7.25 5C6.2835 5 5.5 5.7835 5.5 6.75C5.5 7.7165 6.2835 8.5 7.25 8.5ZM18.5 17.25C18.5 18.2165 17.7165 19 16.75 19C15.7835 19 15 18.2165 15 17.25C15 16.2835 15.7835 15.5 16.75 15.5C17.7165 15.5 18.5 16.2835 18.5 17.25Z" fill="black"/>
</svg>
