<svg fill="none" height="24" viewBox="0 0 24 24" width="24" xmlns="http://www.w3.org/2000/svg"><path clip-rule="evenodd" d="m3 1.08594c.55228 0 1 .44771 1 1v1.90625h16v-1.90625c0-.55229.4477-1 1-1s1 .44771 1 1v17.72576c0 .0644-.0061.1274-.0177.1884.5469.0063.9883.4515.9883.9999 0 .5523-.4478 1-1 1h-1.9413c-.5523 0-1-.4477-1-1 0-.5484.4415-.9937.9884-.9999-.0116-.061-.0177-.124-.0177-.1884v-5.8146h-16v5.8146c0 .0644-.00609.1273-.01771.1883.54823.0048.99119.4507.99119 1 0 .5523-.44771 1-1 1h-1.94125c-.55229 0-1-.4477-1-1 0-.5474.4399-.9921.9855-.9999-.01164-.061-.01773-.124-.01773-.1884v-6.519c-.01533-.0662-.02344-.1352-.02344-.2061v-8.18391c0-.0709.00811-.13991.02344-.20615v-2.6106c0-.55229.44772-1 1-1zm1.1142 4.64614-.41897-.03675.0735.47778v2.43831l-.0735.47043.41897-.09756 2.87115.00009-.00032 2.94832-.17478.5285.53841-.155h2.65774l.4801.1122-.1559-.4857v-2.94832h3.3085l-.0003 2.94832-.1911.4857.5038-.0766h2.6636l.4787.0766-.1075-.4857-.0003-2.94832 2.8757-.00009.4941.09015-.0852-.37955v-2.52178l.0852-.48047-.4279.08195h-2.6442l-.4338-.07926.1361.47778v2.81127h-3.3469v-2.81127l.1232-.47778-.4327.051h-2.6665l-.4529-.051.1204.43474v2.85431h-3.34525v-2.81127l.07562-.47778-.41897.03675z" fill="#000" fill-rule="evenodd"/></svg>