<svg fill="none" height="40" viewBox="0 0 40 40" width="40" xmlns="http://www.w3.org/2000/svg" xmlns:xlink="http://www.w3.org/1999/xlink"><linearGradient id="a" gradientUnits="userSpaceOnUse" x1="20" x2="20" y1="0" y2="40"><stop offset="0" stop-color="#5a5d5e"/><stop offset="1" stop-color="#363738"/></linearGradient><rect fill="url(#a)" height="40" rx="12" width="40"/><g fill="#fff"><path d="m6.53398 12.3185c-.4229 1.0209-.4229 2.3152-.4229 4.9037v5.5556c0 2.5886 0 3.8829.4229 4.9038.56385 1.3613 1.64537 2.4428 3.00664 3.0066 1.02098.4229 2.31528.4229 4.90378.4229h11.1111c2.5886 0 3.8829 0 4.9038-.4229 1.3613-.5638 2.4428-1.6453 3.0067-3.0066.2346-.5664.339-1.217.3855-2.126h-8.296c-2.3012 0-4.1666-1.8655-4.1666-4.1667v-2.7778c0-2.3011 1.8654-4.1666 4.1666-4.1666h8.296c-.0465-.9091-.1509-1.5596-.3855-2.126-.5639-1.3613-1.6454-2.44284-3.0067-3.00669-1.0209-.42289-2.3152-.42289-4.9038-.42289h-11.1111c-2.5885 0-3.8828 0-4.90378.42289-1.36127.56385-2.44279 1.64539-3.00664 3.00669z"/><path d="m33.8889 17.2222h-8.3334c-.767 0-1.3889.6219-1.3889 1.3889v2.7778c0 .7671.6219 1.3889 1.3889 1.3889h8.3334z"/></g></svg>