<svg height="17" viewBox="0 0 20 21" width="16" xmlns="http://www.w3.org/2000/svg"><path d="m10 20.5c5.5228 0 10-4.4772 10-10 0-5.5229-4.4772-10-10-10-5.5229 0-10 4.4771-10 10 0 5.5228 4.4771 10 10 10zm-1.5-5.0087c0-.867.659-1.4913 1.4913-1.4913.8497 0 1.5087.6243 1.5087 1.4913 0 .8671-.659 1.5087-1.5087 1.5087-.8323 0-1.4913-.6416-1.4913-1.5087zm.6725-10.9913h1.6552c.2847 0 .5119.2374.4995.5218l-.3061 7c-.0117.2674-.2319.4782-.4996.4782h-1.0427c-.2677 0-.4879-.2108-.4996-.4781l-.3062-7c-.0125-.2845.2148-.5219.4995-.5219z"/></svg>