<svg fill="none" height="48" viewBox="0 0 48 48" width="48" xmlns="http://www.w3.org/2000/svg"><g fill="#000"><path d="m35.6667 10.6668h-1.6667v-3.3333h-3.3333v3.3333h-13.3334v-3.3333h-3.3333v3.3333h-1.6667c-1.85 0-3.31663 1.5-3.31663 3.3334l-.01667 23.3333c0 1.8333 1.4833 3.3333 3.3333 3.3333h23.3334c1.8333 0 3.3333-1.5 3.3333-3.3333v-23.3333c0-1.8334-1.5-3.3334-3.3333-3.3334zm0 26.6667h-23.3334v-18.3333h23.3334z"/><path clip-rule="evenodd" d="m22.4334 27.7502-4.5917-4.5917 1.6499-1.65 4.5917 4.5918 4.5917-4.5918 1.65 1.65-4.5918 4.5917 4.5918 4.5917-1.65 1.6499-4.5917-4.5917-4.5917 4.5917-1.6499-1.6499z" fill-rule="evenodd"/></g></svg>