<svg width="18" height="18" viewBox="0 0 18 18" fill="none" xmlns="http://www.w3.org/2000/svg">
<path fill-rule="evenodd" clip-rule="evenodd" d="M8.32798 0.609642C8.70918 0.263786 9.29065 0.263787 9.67185 0.609643L11.16 1.95978C11.3539 2.13569 11.609 2.22855 11.8706 2.21842L13.8784 2.1407C14.3927 2.12079 14.8382 2.49456 14.9079 3.00453L15.18 4.99534C15.2154 5.25472 15.3512 5.48985 15.5581 5.65025L17.1461 6.88131C17.5529 7.19666 17.6539 7.7693 17.3795 8.20477L16.3083 9.90473C16.1687 10.1262 16.1216 10.3936 16.177 10.6495L16.6022 12.6133C16.7111 13.1163 16.4203 13.6199 15.9302 13.7771L14.0169 14.3908C13.7676 14.4707 13.5596 14.6453 13.4376 14.8769L12.501 16.6546C12.2611 17.1099 11.7147 17.3088 11.2382 17.1142L9.37803 16.3544C9.13567 16.2555 8.86416 16.2555 8.6218 16.3544L6.76165 17.1142C6.28515 17.3088 5.73875 17.1099 5.49883 16.6546L4.56223 14.8769C4.4402 14.6453 4.23221 14.4707 3.98293 14.3908L2.06961 13.7771C1.57949 13.6199 1.28876 13.1163 1.39768 12.6133L1.82287 10.6495C1.87827 10.3936 1.83112 10.1262 1.69155 9.90473L0.620336 8.20477C0.34593 7.7693 0.446901 7.19666 0.853698 6.88131L2.44173 5.65025C2.64864 5.48985 2.78439 5.25472 2.81984 4.99534L3.09196 3.00453C3.16166 2.49455 3.6071 2.12079 4.12143 2.1407L6.12924 2.21842C6.39084 2.22855 6.64597 2.13569 6.83986 1.95978L8.32798 0.609642ZM13.6905 6.84546L8.36416 12.9418L4.37482 9.16356L5.75009 7.71145L8.22784 10.0581L12.1844 5.52956L13.6905 6.84546Z" fill="black"/>
</svg>
