<svg fill="none" height="24" viewBox="0 0 24 24" width="24" xmlns="http://www.w3.org/2000/svg"><g fill="#21201f"><circle cx="10.25" cy="5.25" r="2.25"/><circle cx="14.75" cy="8.25" r="2.25"/><path d="m18.875 12.75c-1.9784 0-5.1165-.5799-7.12-2.75932-.525-.57114-1.2263-.99068-2.00207-.99067h-1.16735c-.48793.00001-.84665.46185-.65153.90906 1.65595 3.79533 7.13375 5.09093 11.31595 5.09093z"/><path clip-rule="evenodd" d="m12.3569 14.9714-.2319 6.0286h6.375l-.8219-4.9315c-1.7482-.1248-3.6163-.4644-5.3212-1.0971z" fill-rule="evenodd"/><path d="m6.81893 10.6631c-.65331 2.6074-1.81893 7.6378-1.81893 10.3369h5.625c0-1.9805.4903-6.5758.8235-9.4704.1548-1.3445-.8939-2.5296-2.24726-2.5296h-.2327c-1.01464 0-1.90301.6789-2.14961 1.6631z"/></g></svg>