<svg width="20" height="20" viewBox="0 0 20 20" fill="none" xmlns="http://www.w3.org/2000/svg">
<mask id="mask0_2_18153" style="mask-type:alpha" maskUnits="userSpaceOnUse" x="1" y="0" width="19" height="20">
<rect x="1" y="0.994141" width="18.094" height="18.705" fill="#D9D9D9"/>
</mask>
<g mask="url(#mask0_2_18153)">
<path d="M11.9508 16.1994H11.9528C12.5858 16.1984 13.1008 15.6824 13.1008 15.0504C13.1008 14.4164 12.5848 13.9004 11.9508 13.9004C11.3168 13.9004 10.8008 14.4164 10.8008 15.0504C10.8008 15.6834 11.3168 16.1994 11.9508 16.1994Z" fill="black"/>
<path d="M4.25156 16.1994C4.88456 16.1994 5.40156 15.6834 5.40156 15.0504C5.40156 14.4164 4.88556 13.9004 4.25156 13.9004C3.61756 13.9004 3.10156 14.4164 3.10156 15.0504C3.10156 15.6834 3.61756 16.1994 4.25156 16.1994Z" fill="black"/>
<path d="M19.093 6.99414C19.093 3.68514 16.402 0.994141 13.093 0.994141C9.817 0.994141 7.149 3.63414 7.098 6.89814H4.125C3.523 6.89814 2.981 7.25514 2.744 7.80814L1.008 11.8591L1 18.8981C1 19.3401 1.359 19.6981 1.8 19.6981H2.5C2.941 19.6981 3.3 19.3401 3.3 18.8981V18.2981H12.9V18.8981C12.9 19.3401 13.259 19.6981 13.7 19.6981H14.4C14.841 19.6981 15.2 19.3401 15.2 18.8981V12.6041C17.471 11.7491 19.093 9.56014 19.093 6.99414ZM4.191 8.49914H7.292C7.64 9.83814 8.437 10.9941 9.515 11.7991H2.777L4.191 8.49914ZM13.6 16.6991H2.6V13.3981H13.6V16.6991ZM13.093 11.2941C10.722 11.2941 8.793 9.36514 8.793 6.99414C8.793 4.62314 10.722 2.69414 13.093 2.69414C15.464 2.69414 17.393 4.62314 17.393 6.99414C17.393 9.36514 15.464 11.2941 13.093 11.2941Z" fill="black"/>
<path d="M15.0209 7.68607C15.3189 7.68507 15.5619 7.44007 15.5619 7.14007C15.5619 6.84007 15.3179 6.59707 15.0189 6.59707H14.1479L15.1109 5.17007L15.1299 5.14507V5.13807C15.2999 4.85607 15.2319 4.49107 14.9769 4.28907L14.9759 4.23907H14.9049C14.7639 4.15307 14.5999 4.12307 14.4369 4.15507C14.2649 4.18907 14.1159 4.28807 14.0179 4.43307L13.0929 5.80407L12.1639 4.42807C12.0649 4.28407 11.9169 4.18707 11.7459 4.15507C11.5769 4.12307 11.4009 4.15907 11.2509 4.26107C10.9539 4.46407 10.8769 4.87107 11.0799 5.16907L12.0449 6.59707H11.1699C10.8719 6.59907 10.6289 6.84307 10.6289 7.14407C10.6289 7.44207 10.8729 7.68607 11.1729 7.68607H12.4399V7.89207H11.1719C10.8729 7.89407 10.6289 8.13807 10.6289 8.43807C10.6289 8.73707 10.8729 8.98107 11.1729 8.98107H12.4399V9.41607C12.4399 9.59007 12.5079 9.75407 12.6319 9.87707C12.7549 10.0001 12.9189 10.0681 13.0989 10.0681H13.1009C13.2759 10.0671 13.4399 9.99807 13.5629 9.87407C13.6859 9.75007 13.7519 9.58607 13.7509 9.41207V8.98107H15.0209C15.3189 8.97907 15.5619 8.73507 15.5619 8.43607C15.5619 8.13807 15.3179 7.89407 15.0189 7.89207H13.7509V7.68607H15.0209Z" fill="black"/>
</g>
</svg>
