<svg fill="none" height="24" viewBox="0 0 24 24" width="24" xmlns="http://www.w3.org/2000/svg"><g fill="#21201f"><path d="m10.7549 9.66501c0-.3656.1368-.58879.3246-.74319.2126-.17473.5384-.29389.9092-.30386.3725-.01002.695.09263.8976.24178.1739.12799.2824.29942.2824.57992 0 .28445-.0699.38176-.1153.43614-.0891.10671-.2166.1919-.5365.3969l-.0027.0016c-.2728.1748-.6975.4468-1.027.8928-.3543.4795-.5434 1.0745-.5434 1.8171h2c0-.3818.089-.5434.1519-.6285.0866-.1172.2165-.2173.4999-.3989l.0633-.0403c.2441-.1548.6292-.3989.9298-.759.3718-.4454.58-1.0074.58-1.71784 0-.95554-.4432-1.70963-1.0969-2.19071-.625-.45994-1.406-.64993-2.1369-.63027-.7327.01971-1.5103.25257-2.12535.7581-.63975.52586-1.05467 1.31118-1.05467 2.28823z"/><path d="m11.9619 16.2587c.6237 0 1.1293-.5056 1.1293-1.1293 0-.6238-.5056-1.1294-1.1293-1.1294-.6238 0-1.1294.5056-1.1294 1.1294 0 .6237.5056 1.1293 1.1294 1.1293z"/><path clip-rule="evenodd" d="m3.97119 5h-1.97119v-2h19.9584v2h-1.9584v14.9922l-1.4263.9046-3.4326-1.6176-3.1555 1.511-3.15546-1.511-3.43266 1.6176-1.42629-.9046zm2 0h12.02881v13.4155l-2.8658-1.3505-3.1486 1.5077-3.14858-1.5077-2.86583 1.3505z" fill-rule="evenodd"/></g></svg>