<svg fill="none" height="24" viewBox="0 0 36 24" width="36" xmlns="http://www.w3.org/2000/svg" xmlns:xlink="http://www.w3.org/1999/xlink"><clipPath id="a"><path d="m0 0h36v24h-36z"/></clipPath><g clip-path="url(#a)"><rect fill="#fff" height="24" rx="4" width="36" y="-.000366"/><g clip-rule="evenodd" fill-rule="evenodd"><path d="m11.7778 16.4444v1.7778h1.7778v-1.7778zm-1.3334-1.7777c-.2454 0-.4444.199-.4444.4444v4.4445c0 .2454.199.4444.4444.4444h4.4445c.2454 0 .4444-.199.4444-.4444v-4.4445c0-.2454-.199-.4444-.4444-.4444z" fill="#21201f"/><path d="m11.7778 5.77778v1.77778h1.7778v-1.77778zm-1.3334-1.77778c-.2454 0-.4444.19898-.4444.44444v4.44445c0 .24546.199.44444.4444.44444h4.4445c.2454 0 .4444-.19898.4444-.44444v-4.44445c0-.24546-.199-.44444-.4444-.44444z" fill="#21201f"/><path d="m22.4444 16.4444v1.7778h1.7778v-1.7778zm-1.3333-1.7777c-.2454 0-.4444.199-.4444.4444v4.4445c0 .2454.199.4444.4444.4444h4.4445c.2454 0 .4444-.199.4444-.4444v-4.4445c0-.2454-.199-.4444-.4444-.4444z" fill="#21201f"/><path d="m22.4444 5.77778v1.77778h1.7778v-1.77778zm-1.3333-1.77778c-.2454 0-.4444.19898-.4444.44444v4.44445c0 .24546.199.44444.4444.44444h4.4445c.2454 0 .4444-.19898.4444-.44444v-4.44445c0-.24546-.199-.44444-.4444-.44444z" fill="#21201f"/><path d="m18.8889 4v7.9111c0 .54-.4378.9778-.9778.9778h-7.9111v-1.7778h7.1111v-7.1111zm1.7778 7.1111h5.3333v1.7778h-5.3333zm-1.7778 3.5556v5.3333h-1.7778v-5.3333z" fill="#21201f"/><path d="m32 .5h-28c-1.933 0-3.5 1.567-3.5 3.5v16c0 1.933 1.567 3.5 3.5 3.5h28c1.933 0 3.5-1.567 3.5-3.5v-16c0-1.933-1.567-3.5-3.5-3.5zm-28-.5c-2.20914 0-4 1.79086-4 4v16c0 2.2091 1.79086 4 4 4h28c2.2091 0 4-1.7909 4-4v-16c0-2.20914-1.7909-4-4-4z" fill="#000"/></g></g></svg>