<svg width="60" height="60" viewBox="0 0 60 60" fill="none" xmlns="http://www.w3.org/2000/svg">
<mask id="mask0_37_13641" style="mask-type:alpha" maskUnits="userSpaceOnUse" x="1" y="21" width="58" height="21">
<rect x="1" y="21.1094" width="57.4375" height="19.9993" fill="#D9D9D9"/>
</mask>
<g mask="url(#mask0_37_13641)">
<path d="M11.6136 32.3477C9.19896 32.3477 7.23438 34.3129 7.23438 36.7288C7.23438 39.1435 9.19896 41.1087 11.6136 41.1087C14.0295 41.1087 15.9954 39.1435 15.9954 36.7288C15.9954 34.3129 14.0295 32.3477 11.6136 32.3477Z" fill="black"/>
<path d="M47.5354 32.3477C45.1208 32.3477 43.1562 34.3129 43.1562 36.7288C43.1562 39.1435 45.1208 41.1087 47.5354 41.1087C49.9514 41.1087 51.9173 39.1435 51.9173 36.7288C51.9173 34.3129 49.9514 32.3477 47.5354 32.3477Z" fill="black"/>
<path d="M11.6145 37.6286H11.6065L3.26749 37.4575C1.44404 37.1733 1.33686 36.7492 1.29559 36.5894C1.20039 36.2 1 33.7268 1 33.4871C1 33.1316 2.02723 29.9454 3.38 29.3176C5.78862 28.2005 10.2197 27.5681 13.4545 27.1074C14.9298 26.8977 16.455 26.68 16.7033 26.5408C16.7739 26.4929 24.2874 21.5365 29.8855 21.2969C38.319 20.9367 53.4771 21.0718 54.8472 21.9087C56.5608 22.9539 57.7125 29.8256 57.867 30.7942C57.9089 30.9034 58.0527 31.2656 58.2411 31.5352C58.5174 31.93 58.4834 34.6435 58.2598 35.1781L58.2111 35.2952C57.9908 35.8358 57.8024 36.184 56.7678 36.4989C55.7706 36.8045 48.1173 37.393 47.2485 37.4595L11.6165 37.6286H11.6145ZM2.05652 36.3191C2.23826 36.4257 2.80281 36.5794 3.33872 36.664L11.6178 36.8304L47.2159 36.662C50.5659 36.4057 55.8431 35.9457 56.5342 35.7346C57.2592 35.5136 57.3124 35.3831 57.4709 34.9937L57.5228 34.8685C57.6872 34.4757 57.6579 32.3387 57.5601 31.9546C57.2891 31.5518 57.11 31.0519 57.1027 31.0305C57.0941 31.0072 57.0881 30.9826 57.0841 30.9586C56.6287 28.0707 55.5043 23.2448 54.4311 22.5897C53.4798 22.0205 40.1664 21.6577 29.9195 22.0951C24.541 22.3247 17.2153 27.1593 17.1414 27.2086C16.8265 27.4196 15.961 27.5574 13.5671 27.8989C10.5606 28.327 6.01763 28.9748 3.71686 30.0419C2.83543 30.4514 1.85147 33.085 1.79755 33.5104C1.79821 33.7321 1.97597 35.8225 2.05652 36.3191Z" fill="#040000"/>
<path d="M1.70354 32.8937C1.49517 32.8937 1.31875 32.7312 1.30543 32.5195C1.29212 32.2992 1.45922 32.1094 1.67957 32.0961L5.2792 31.8704C5.42632 31.5189 5.79447 30.9397 6.71452 30.1888C5.64668 30.2394 4.07355 30.4151 3.0177 30.5589C2.79867 30.5889 2.59695 30.4358 2.56766 30.2168C2.5377 29.9984 2.69082 29.7973 2.90985 29.7674C3.60488 29.6729 7.11928 29.2135 7.98074 29.4418C8.13186 29.4825 8.24637 29.6076 8.27167 29.7627C8.29763 29.9172 8.23039 30.073 8.09991 30.1608C6.13267 31.477 5.98021 32.2885 5.97888 32.2965C5.94892 32.4803 5.79381 32.638 5.60674 32.65L1.72884 32.893C1.72018 32.8937 1.71219 32.8937 1.70354 32.8937Z" fill="black"/>
<path d="M4.40035 35.7552H1.70346C1.4831 35.7552 1.30469 35.5762 1.30469 35.3558C1.30469 35.1354 1.4831 34.957 1.70346 34.957H4.40035C4.62071 34.957 4.79979 35.1354 4.79979 35.3558C4.79979 35.5762 4.62071 35.7552 4.40035 35.7552Z" fill="black"/>
<path d="M4.40035 34.6029H1.70346C1.4831 34.6029 1.30469 34.4238 1.30469 34.2035C1.30469 33.9831 1.4831 33.8047 1.70346 33.8047H4.40035C4.62071 33.8047 4.79979 33.9831 4.79979 34.2035C4.79979 34.4238 4.62071 34.6029 4.40035 34.6029Z" fill="black"/>
<path d="M14.9229 35.8225C14.7039 35.8225 14.5255 35.6461 14.5235 35.4271C14.5208 35.2061 14.6986 35.0263 14.9189 35.0243L44.1746 34.748H44.1786C44.3976 34.748 44.576 34.9238 44.578 35.1428C44.5807 35.3645 44.4029 35.5443 44.1826 35.5463L14.9269 35.8225H14.9229Z" fill="black"/>
<path d="M57.3442 31.193H56.1C55.3377 31.193 54.6707 30.7423 54.4403 30.0719C54.0549 28.9521 53.8611 27.8543 53.7679 27.3264L53.7413 27.1779C53.6774 26.7692 53.8092 26.5168 53.931 26.375C54.202 26.0581 54.6207 26.0488 54.6673 26.0488H56.3982C56.6186 26.0488 56.7977 26.2279 56.7977 26.4483C56.7977 26.6686 56.6186 26.8477 56.3982 26.8477H54.6673C54.6274 26.8497 54.5575 26.8703 54.5375 26.8943C54.5282 26.907 54.5149 26.9516 54.5289 27.0448L54.5548 27.1879C54.644 27.6959 54.8304 28.751 55.1953 29.8122C55.3138 30.1544 55.6859 30.3947 56.1 30.3947H57.3442C57.5646 30.3947 57.7437 30.5732 57.7437 30.7935C57.7437 31.0139 57.5646 31.193 57.3442 31.193Z" fill="black"/>
<path d="M56.7441 28.181H54.4007C54.1804 28.181 54.002 28.0019 54.002 27.7816C54.002 27.5612 54.1804 27.3828 54.4007 27.3828H56.7441C56.9645 27.3828 57.1436 27.5612 57.1436 27.7816C57.1436 28.0019 56.9645 28.181 56.7441 28.181Z" fill="black"/>
<path d="M57.0543 29.5873H54.9046C54.6843 29.5873 54.5059 29.4082 54.5059 29.1878C54.5059 28.9675 54.6843 28.7891 54.9046 28.7891H57.0543C57.2746 28.7891 57.4537 28.9675 57.4537 29.1878C57.4537 29.4082 57.2746 29.5873 57.0543 29.5873Z" fill="black"/>
<path d="M42.3176 35.5463C42.2604 35.5463 42.2018 35.5337 42.1472 35.5077C41.9475 35.4138 41.8623 35.1755 41.9561 34.9764L45.157 28.1986V23.5511C45.157 23.3308 45.3354 23.1523 45.5557 23.1523C45.7761 23.1523 45.9552 23.3308 45.9552 23.5511V28.2885C45.9552 28.3477 45.9419 28.405 45.9172 28.4589L42.6791 35.3166C42.6105 35.4611 42.4674 35.5463 42.3176 35.5463Z" fill="black"/>
<path d="M50.0103 34.2767C49.8026 34.2767 49.6269 34.1156 49.6122 33.9045C49.5976 33.6848 49.7634 33.4938 49.9837 33.4791L57.838 32.9379C58.0484 32.9286 58.2488 33.089 58.2634 33.3094C58.2788 33.5291 58.113 33.7201 57.8926 33.7354L50.0383 34.276C50.029 34.2767 50.0203 34.2767 50.0103 34.2767Z" fill="black"/>
<path d="M17.2821 37.4847C17.0684 37.4847 16.8906 37.3156 16.8826 37.1006C16.8713 36.779 16.6157 29.2163 18.9464 27.1439C19.1115 26.9974 19.3645 27.012 19.5103 27.1771C19.6568 27.3416 19.6421 27.5946 19.477 27.7403C17.7754 29.2542 17.6036 34.9889 17.6815 37.0706C17.6895 37.291 17.5178 37.476 17.2967 37.4847H17.2821Z" fill="black"/>
<path d="M32.8025 37.4842C32.5814 37.4842 32.4023 37.3051 32.4023 37.0847V28.3783C32.4023 28.3543 32.405 28.331 32.4083 28.307L33.2678 23.5697C33.3077 23.352 33.5168 23.2128 33.7325 23.2475C33.9502 23.2874 34.0933 23.4951 34.0554 23.7121L33.2012 28.4142V37.0847C33.2012 37.3051 33.0221 37.4842 32.8025 37.4842Z" fill="black"/>
<path d="M20.9745 28.9276C20.6243 28.9276 20.1943 28.875 19.9439 28.6566C19.7935 28.5262 19.7109 28.3457 19.7109 28.15C19.7109 25.34 28.8242 23.151 29.6989 23.1084C29.8401 23.1057 42.8039 22.8395 50.9698 23.1084C51.1455 23.1144 51.296 23.2336 51.3419 23.4027C51.5357 24.113 52.1648 26.4637 52.1548 26.8851C52.1501 27.0449 52.1468 27.2107 50.8267 28.4423C50.7541 28.5102 50.6582 28.5488 50.559 28.5495L21.4858 28.8916C21.3986 28.905 21.2035 28.9276 20.9745 28.9276ZM20.5145 28.0761C20.6723 28.132 21.0797 28.1447 21.4259 28.0961L50.3946 27.7526C50.7854 27.3838 51.2035 26.9623 51.3473 26.7833C51.2933 26.3991 50.9751 25.1149 50.6482 23.898C42.4897 23.643 29.8554 23.904 29.7269 23.9066C28.235 23.9792 20.7195 26.2853 20.5145 28.0761Z" fill="black"/>
<path d="M31.1658 28.779C31.1405 28.779 31.1145 28.7763 31.0892 28.771C30.8728 28.7297 30.731 28.5194 30.773 28.303C31.1737 26.2379 31.6031 23.9012 31.6111 23.6395C31.6171 23.4232 31.7942 23.2461 32.0106 23.2461L32.0152 23.2468C32.2336 23.2494 32.4094 23.4232 32.4094 23.6415C32.4094 24.031 31.7576 27.4249 31.5572 28.4555C31.5199 28.6465 31.3528 28.779 31.1658 28.779Z" fill="black"/>
<path d="M19.6212 28.6318C19.5266 28.6318 19.4328 28.5992 19.3569 28.532C18.1552 27.4695 16.1527 27.4988 16.1347 27.4974C15.9184 27.5187 15.7313 27.3277 15.7266 27.1066C15.7226 26.8863 15.8971 26.7039 16.1174 26.6992C16.21 26.7019 18.4521 26.6659 19.8855 27.9335C20.0512 28.08 20.0665 28.3323 19.9201 28.4974C19.8415 28.5866 19.7317 28.6318 19.6212 28.6318Z" fill="black"/>
<path d="M28.8377 23.9514C28.7791 23.9514 28.7205 23.9381 28.6652 23.9121C27.6034 23.4068 25.1049 23.1559 25.0789 23.1532C24.8592 23.1319 24.6988 22.9368 24.7208 22.7171C24.7427 22.4968 24.9411 22.3443 25.1575 22.3583C25.266 22.369 27.8211 22.6253 29.0088 23.1905C29.2085 23.2857 29.293 23.524 29.1978 23.7231C29.1286 23.8669 28.9861 23.9514 28.8377 23.9514Z" fill="black"/>
<path d="M43.9385 28.5505C43.7182 28.5505 43.5391 28.3714 43.5391 28.151V23.4483C43.5391 23.2279 43.7182 23.0488 43.9385 23.0488C44.1589 23.0488 44.3379 23.2279 44.3379 23.4483V28.151C44.3379 28.3714 44.1589 28.5505 43.9385 28.5505Z" fill="black"/>
<path d="M30.5285 31.3075H27.8562C27.4315 31.3075 27.0859 30.962 27.0859 30.5372V30.2709C27.0859 29.8455 27.4315 29.5 27.8562 29.5H30.5285C30.9532 29.5 31.2974 29.8455 31.2974 30.2709V30.5372C31.2974 30.962 30.9532 31.3075 30.5285 31.3075ZM30.4998 30.2709L27.8562 30.2982L27.8842 30.5372L30.4998 30.5086V30.2709Z" fill="black"/>
<path d="M42.335 31.3061H39.6628C39.2394 31.3061 38.8945 30.9606 38.8945 30.5352V30.2689C38.8945 29.8442 39.2394 29.5 39.6628 29.5H42.335C42.7598 29.5 43.1046 29.8442 43.1046 30.2689V30.5352C43.1046 30.9606 42.7598 31.3061 42.335 31.3061ZM42.3064 30.2689L39.6628 30.2982L39.6927 30.5352L42.3064 30.5073V30.2689Z" fill="black"/>
<path d="M20.3062 26.4818C20.8508 26.3906 22.2595 26.2988 22.3208 26.627C22.3793 26.9552 22.4259 28.2773 22.157 28.4404C21.89 28.6042 19.2351 28.8485 19.1013 28.7147C18.9675 28.5789 18.8729 28.1688 19.0507 27.8193C19.2331 27.4605 19.743 26.5764 20.3062 26.4818Z" fill="white"/>
<path d="M19.6249 29.144C19.2315 29.144 18.9226 29.1041 18.8181 28.9989C18.5571 28.7352 18.4366 28.1421 18.6922 27.6395C18.9599 27.1122 19.5171 26.2101 20.2387 26.089C20.7806 25.9978 22.5635 25.7621 22.7113 26.5543C22.7153 26.5763 22.9643 28.4177 22.3624 28.7825C22.1973 28.8837 20.6315 29.144 19.6249 29.144ZM19.3626 28.3564C19.8772 28.3678 21.4677 28.2213 21.8997 28.1095C21.971 27.8718 21.9796 27.2061 21.9437 26.8359C21.6561 26.7727 20.9005 26.788 20.3712 26.8772C20.1176 26.9191 19.7195 27.3825 19.4046 28.0009C19.3413 28.1261 19.344 28.2652 19.3626 28.3564Z" fill="black"/>
<path d="M11.6146 39.3876C10.1474 39.3876 8.95703 38.1966 8.95703 36.728C8.95703 35.2594 10.1474 34.0684 11.6146 34.0684C13.0839 34.0684 14.2749 35.2594 14.2749 36.728C14.2749 38.1966 13.0839 39.3876 11.6146 39.3876Z" fill="white"/>
<path d="M47.5346 39.3876C46.0673 39.3876 44.877 38.1966 44.877 36.728C44.877 35.2594 46.0673 34.0684 47.5346 34.0684C49.0038 34.0684 50.1948 35.2594 50.1948 36.728C50.1948 38.1966 49.0038 39.3876 47.5346 39.3876Z" fill="white"/>
</g>
</svg>
