<svg width="60" height="60" viewBox="0 0 60 60" fill="none" xmlns="http://www.w3.org/2000/svg">
<mask id="mask0_1334_17185" style="mask-type:luminance" maskUnits="userSpaceOnUse" x="4" y="14" width="55" height="29">
<path d="M58.554 14.4082H4V42.0572H58.554V14.4082Z" fill="white"/>
</mask>
<g mask="url(#mask0_1334_17185)">
<path d="M42.6213 38.2979L20.5735 38.6519L17.5164 38.6729C17.2926 39.6294 16.7536 40.4829 15.9861 41.096C15.2186 41.7091 14.2672 42.0465 13.2849 42.0535C12.3026 42.0606 11.3463 41.7369 10.5701 41.1348C9.79386 40.5327 9.24262 39.6871 9.00513 38.7339L6.50513 38.752C5.79562 38.5742 5.13436 38.2411 4.56909 37.7769C4.50124 37.7271 4.4508 37.6571 4.42505 37.577C4.40805 37.528 3.0855 33.4038 5.2395 30.4878C5.24965 30.4702 5.26137 30.454 5.27515 30.439C5.77531 29.7816 6.4079 29.2364 7.13208 28.8389C8.59108 28.0209 12.353 27.4089 14.842 27.0049C15.766 26.8549 16.7225 26.6989 16.8875 26.6319C17.0735 26.5389 18.4595 25.718 19.9275 24.848C23.1415 22.948 25.6331 21.4758 26.0461 21.3108L26.2864 21.211C29.3744 19.965 33.6014 18.2589 50.9734 21.4109C51.2954 21.4709 52.0931 21.9349 52.1731 22.5699C52.1898 22.7374 52.1602 22.9064 52.0872 23.0582C52.0141 23.2099 51.9004 23.3385 51.759 23.43C52.293 23.977 53.569 25.0119 54.176 25.5069C54.569 25.8249 54.8035 26.0169 54.9495 26.1439C55.0296 26.2086 55.1035 26.2803 55.1711 26.358C55.5198 26.8794 55.7318 27.4803 55.7874 28.105C55.7874 29.384 55.7601 31.7491 55.5681 33.5211H56.7024C56.8415 33.5211 56.9746 33.4657 57.073 33.3675C57.1714 33.2692 57.227 33.1359 57.2273 32.9969V18.3108C57.227 18.1718 57.1714 18.0385 57.073 17.9402C56.9746 17.842 56.8415 17.7869 56.7024 17.7869H50.6423V18.9429C50.6433 19.0401 50.6087 19.1344 50.5452 19.2081C50.4817 19.2817 50.3934 19.3295 50.2971 19.3428L47.1091 19.8289C47.0515 19.8375 46.9928 19.8336 46.9368 19.8174C46.8807 19.8013 46.8287 19.7733 46.7844 19.7354C46.7401 19.6975 46.7045 19.6506 46.6799 19.5977C46.6554 19.5448 46.6427 19.4873 46.6423 19.429V19.148H44.5334C44.4615 19.148 44.3899 19.1338 44.3235 19.1063C44.2571 19.0787 44.197 19.0383 44.1462 18.9874C44.0954 18.9365 44.055 18.8761 44.0276 18.8096C44.0002 18.7431 43.986 18.6718 43.9861 18.5999V17.866C43.9861 17.7207 44.044 17.5813 44.1467 17.4786C44.2495 17.3758 44.3891 17.3179 44.5344 17.3179H46.6433V16.918H44.5344C44.3894 16.918 44.2503 16.8602 44.1477 16.7576C44.0451 16.655 43.9871 16.516 43.9871 16.3709V15.637C43.9873 15.4918 44.0455 15.3525 44.1482 15.2498C44.2509 15.1471 44.3901 15.0892 44.5354 15.0889H46.6443V14.8079C46.6435 14.7492 46.6553 14.6912 46.6794 14.6378C46.7036 14.5843 46.7394 14.5368 46.7839 14.4986C46.8285 14.4604 46.8812 14.4325 46.9377 14.4168C46.9943 14.4012 47.0532 14.3982 47.1111 14.408L50.2991 14.8919C50.3952 14.9055 50.4833 14.9536 50.5466 15.0272C50.6099 15.1007 50.6443 15.195 50.6433 15.292V16.4468H56.7034C57.1962 16.4471 57.6686 16.6429 58.0173 16.9913C58.366 17.3396 58.5624 17.8121 58.5632 18.305V32.992C58.5622 33.4848 58.366 33.957 58.0173 34.3052C57.6687 34.6535 57.1962 34.8494 56.7034 34.8499H55.3601C55.3146 35.1591 55.1956 35.4527 55.0125 35.7059C54.9619 35.7539 54.8998 35.7884 54.8323 35.806L51.2512 36.7588C51.3161 37.0545 51.3497 37.3563 51.3513 37.659C51.3512 38.7665 50.9316 39.8329 50.177 40.6436C49.4224 41.4543 48.3886 41.949 47.2839 42.0284C46.1792 42.1077 45.0856 41.7656 44.2229 41.0711C43.3602 40.3766 42.7924 39.3811 42.634 38.285L42.6213 38.2979ZM44.4792 37.6719C44.4792 38.1614 44.6243 38.6399 44.8962 39.0469C45.1682 39.4539 45.5549 39.7712 46.0071 39.9586C46.4593 40.1459 46.9567 40.1948 47.4368 40.0994C47.9168 40.004 48.3577 39.7685 48.7039 39.4224C49.05 39.0764 49.286 38.6354 49.3816 38.1553C49.4772 37.6753 49.4281 37.1777 49.241 36.7254C49.0538 36.2731 48.7367 35.8866 48.3298 35.6146C47.923 35.3425 47.4448 35.197 46.9553 35.1968C46.2988 35.1968 45.6691 35.4576 45.2048 35.9217C44.7405 36.3858 44.4795 37.0154 44.4792 37.6719ZM10.7791 37.6719C10.7802 38.2432 10.9793 38.7964 11.3425 39.2374C11.7057 39.6783 12.2108 39.9798 12.7712 40.0904C13.3317 40.201 13.9133 40.1138 14.4167 39.8438C14.9202 39.5738 15.3144 39.1377 15.5325 38.6097C15.7505 38.0817 15.7784 37.4943 15.6121 36.9478C15.4457 36.4013 15.0951 35.9294 14.6199 35.6124C14.1447 35.2953 13.5746 35.1528 13.0061 35.209C12.4376 35.2653 11.906 35.5169 11.5022 35.921C11.0386 36.3857 10.7784 37.0155 10.7791 37.6719ZM5.14429 37.2049C5.5537 37.5241 6.01142 37.7761 6.50024 37.951L8.8855 37.9339C8.8855 37.8469 8.87231 37.761 8.87231 37.671C8.87211 36.662 9.21982 35.684 9.85718 34.9019C10.4945 34.1198 11.3827 33.5814 12.3709 33.378C13.359 33.1745 14.387 33.3185 15.2815 33.7852C16.176 34.252 16.8817 35.013 17.28 35.94L18.5271 35.9158V28.251L16.6521 27.5369C16.6396 27.5305 16.6279 27.5232 16.6165 27.5149C16.2685 27.5819 15.7481 27.668 14.9661 27.795C12.6801 28.168 8.85429 28.7889 7.51929 29.5389C7.2067 29.7169 6.91266 29.9257 6.64136 30.1619L11.4744 29.534C11.5683 29.5201 11.6639 29.5406 11.7439 29.5919C11.8239 29.6431 11.8829 29.7218 11.9094 29.813C11.9377 29.9032 11.9328 30.0003 11.8962 30.0875C11.8596 30.1746 11.7934 30.2459 11.7092 30.2889C10.2932 30.9979 7.56223 32.371 7.35523 32.481C7.33923 32.489 5.61027 33.1809 4.87427 33.4329C4.84427 33.6283 4.82235 33.822 4.80835 34.014H6.10327C6.17459 34.0138 6.24486 34.0329 6.3064 34.0689C6.36794 34.1049 6.4186 34.1568 6.45337 34.219L7.53442 36.1548C7.58627 36.2477 7.59904 36.3575 7.57007 36.4598C7.54109 36.5621 7.47247 36.6486 7.37964 36.7005C7.28681 36.7523 7.17725 36.7651 7.07495 36.7361C6.97265 36.7072 6.88608 36.6388 6.83423 36.546L5.86743 34.814H4.78442C4.80297 35.6235 4.92316 36.4273 5.14233 37.2068L5.14429 37.2049ZM17.5364 36.7378C17.6031 37.045 17.6367 37.3586 17.6365 37.6729C17.6365 37.7389 17.6282 37.8059 17.6252 37.8729L20.5623 37.8519L42.5784 37.4979C42.5946 37.0698 42.674 36.6467 42.8142 36.242L17.5364 36.7378ZM51.009 36.004L54.4792 35.0779C54.8318 33.3928 54.9925 31.6732 54.9583 29.952C54.945 29.9499 54.932 29.9469 54.9192 29.9429C50.5382 27.5289 50.5101 27.236 50.4871 27.001C50.4827 26.932 50.4944 26.8628 50.5208 26.7989C50.5471 26.7349 50.5877 26.6778 50.6394 26.6319C50.7394 26.5509 50.8862 26.432 53.6882 26.15L53.6624 26.129C52.5859 25.3865 51.6198 24.4953 50.7932 23.482C50.771 23.4341 50.7588 23.3821 50.7571 23.3294C50.7554 23.2767 50.7644 23.2241 50.7834 23.1749C50.8021 23.1254 50.8302 23.0802 50.8665 23.0418C50.9027 23.0034 50.9462 22.9725 50.9944 22.951C51.3154 22.809 51.3743 22.693 51.3723 22.668C51.3593 22.514 50.9721 22.239 50.8191 22.201C33.6811 19.095 29.5792 20.749 26.5842 21.959L26.342 22.0589C26.265 22.0879 26.0751 22.192 25.7971 22.347L27.1692 22.6041C31.1362 20.8691 39.869 20.2169 49.051 23.9339C49.062 23.9339 49.0703 23.9489 49.0803 23.9529C49.1037 23.9651 49.1257 23.9794 49.1462 23.9959C49.1682 24.0123 49.1884 24.0313 49.2063 24.0521C49.2133 24.0611 49.2232 24.066 49.2312 24.075C49.2374 24.0873 49.2428 24.0998 49.2473 24.1128C49.261 24.1363 49.2717 24.161 49.28 24.1868C49.2868 24.2111 49.2919 24.2361 49.2952 24.261C49.2974 24.2857 49.2974 24.3104 49.2952 24.335C49.293 24.3622 49.2875 24.3889 49.2791 24.4149C49.2782 24.4291 49.276 24.4431 49.2722 24.4568C49.2722 24.4668 49.2592 24.4729 49.2532 24.4849C49.2415 24.5091 49.2267 24.5317 49.2092 24.5521C49.1933 24.5726 49.175 24.5913 49.155 24.608C49.1478 24.6173 49.1399 24.6259 49.1311 24.6338L46.9451 26.169C46.9096 26.1883 46.8717 26.2024 46.8323 26.211L46.5081 33.3209C46.6572 33.3051 46.8073 33.2975 46.9573 33.2979C47.8241 33.2999 48.6708 33.5584 49.3909 34.0411C50.1109 34.5237 50.672 35.209 51.0032 36.0101L51.009 36.004ZM19.3245 28.421V35.9009L33.5525 35.6219L33.6121 33.2689H34.4124L34.3513 35.6041L43.1892 35.4319C43.7494 34.4901 44.6409 33.7912 45.6892 33.472L46.0183 26.2869L40.6653 26.7129L40.9514 25.889L46.0022 25.4888L45.8142 23.6419C42.2166 22.5244 38.4642 21.9873 34.6975 22.0508L34.6433 24.1509H33.8435L33.8962 22.074C33.7132 22.082 33.5411 22.0989 33.3621 22.1109L33.3 24.1509H32.5002L32.5623 22.1719C30.5472 22.2897 28.5759 22.8067 26.7625 23.6929L24.0144 25.2659C24.1759 25.3272 24.3172 25.4319 24.4231 25.5684C24.529 25.705 24.5954 25.8681 24.6145 26.0399V27.199L28.3513 26.899V27.699L24.4392 28.011C24.2711 28.1691 24.0586 28.2716 23.8303 28.305C23.4179 28.3683 23.0014 28.4016 22.5842 28.4048C22.2365 28.421 21.8893 28.3638 21.5652 28.2369L19.3245 28.421ZM5.79126 31.0789C5.48684 31.5145 5.25059 31.9941 5.09107 32.501C5.79907 32.238 6.83339 31.846 6.97339 31.773C7.11339 31.7 8.18506 31.1599 9.23706 30.6309L5.79126 31.0789ZM51.7825 27.179C52.4915 27.646 53.7503 28.3788 54.9753 29.0608C54.9753 28.7418 54.9822 28.4219 54.9822 28.1089C54.9324 27.6691 54.7823 27.2464 54.5432 26.8738C53.5312 26.9738 52.4695 27.0879 51.7815 27.1739L51.7825 27.179ZM22.4753 26.2259L22.4543 26.2359C22.3132 26.2957 22.1854 26.3832 22.0784 26.493C22.0011 26.8447 21.975 27.2058 22.0012 27.565C22.5562 27.6344 23.1183 27.6205 23.6692 27.524C23.7197 27.5144 23.7691 27.5004 23.8171 27.482V26.0499C23.8171 26.0789 23.7372 25.959 23.4832 25.959C23.1326 25.9796 22.7898 26.0696 22.4744 26.2239L22.4753 26.2259ZM19.9973 27.5669L21.1975 27.4669C21.1975 27.2989 21.1972 27.087 21.2122 26.867L19.9973 27.5669ZM20.3313 25.542C19.0893 26.2754 18.2155 26.7903 17.7102 27.087L18.6213 27.4339L26.0212 23.201L24.7761 22.9669C24.7631 22.9629 24.7503 22.958 24.738 22.952C23.458 23.689 21.6893 24.7389 20.3323 25.5399L20.3313 25.542ZM46.7942 25.2908L48.0481 24.4119C47.5811 24.2329 47.1142 24.0619 46.6482 23.9119L46.7942 25.2908ZM44.7834 18.3509H46.6404V18.1238H44.7834V18.3509ZM44.7834 16.1238H46.6404V15.8961H44.7834V16.1238ZM36.2561 31.939L34.0042 25.4888H35.4353L36.8464 29.826L38.2561 25.4888H39.6873L37.4431 31.939H36.2561ZM29.6882 31.939V25.4869H33.7083V26.5989H30.9993V28.0479H33.4304V29.148H30.9993V30.8309H33.7102V31.931L29.6882 31.939Z" fill="black"/>
</g>
</svg>
