<svg width="60" height="60" viewBox="0 0 60 60" fill="none" xmlns="http://www.w3.org/2000/svg">
<mask id="mask0_37_14073" style="mask-type:alpha" maskUnits="userSpaceOnUse" x="4" y="19" width="53" height="23">
<rect x="4" y="19" width="52.6338" height="22.9539" fill="#D9D9D9"/>
</mask>
<g mask="url(#mask0_37_14073)">
<path d="M6.61381 38.6542C6.08182 38.6542 5.08515 37.9722 4.68115 37.6796C4.60249 37.6222 4.54716 37.5382 4.52582 37.4422C4.34382 36.6249 2.84116 29.4156 5.92182 28.0856C6.59781 27.7936 7.79181 27.4909 8.84514 27.2229C9.57247 27.0383 10.3251 26.847 10.5225 26.7483C10.6778 26.671 11.8438 25.9963 13.1951 25.2163C18.4711 22.1656 21.4158 20.4896 21.8651 20.3656C23.6004 19.887 33.3217 17.633 54.3516 20.2236C54.7376 20.2723 55.437 20.9163 55.5383 21.5903C55.5796 21.867 55.5516 22.3463 55.005 22.717C55.353 24.0283 56.0243 27.9783 56.0896 28.5509C56.1083 28.5976 56.1443 28.6603 56.1843 28.7356C56.3596 29.0629 56.6243 29.5576 56.6243 30.1096C56.7289 36.8142 55.9416 37.0096 55.6456 37.0822L47.6443 38.1176C47.629 38.1196 47.6143 38.1209 47.599 38.1209L20.6758 38.5529C20.1171 38.5576 7.06781 38.6542 6.61381 38.6542ZM5.27449 37.1202C5.83715 37.5142 6.44181 37.8476 6.61448 37.8549C7.06581 37.8549 20.5304 37.7542 20.6658 37.7536L47.5643 37.3216L55.3896 36.3116C55.7096 35.7629 55.8649 32.7223 55.825 30.1163C55.825 29.7583 55.617 29.3703 55.4796 29.1129C55.3683 28.9063 55.295 28.7689 55.295 28.6123C55.2556 28.1689 54.3796 23.167 54.163 22.6896C54.119 22.593 54.115 22.4823 54.1523 22.383C54.1903 22.283 54.2663 22.203 54.3636 22.1596C54.7543 21.985 54.7516 21.8143 54.751 21.7583C54.7463 21.4483 54.339 21.061 54.2096 21.0083C33.3724 18.4443 23.7877 20.6656 22.0771 21.1363C21.5778 21.2943 16.3851 24.2963 13.5951 25.909C11.9271 26.873 11.0485 27.3803 10.8791 27.4643C10.6191 27.5949 10.0411 27.7449 9.0418 27.9983C8.06781 28.2456 6.85648 28.5529 6.23915 28.8203C4.18782 29.7056 4.82182 34.9716 5.27449 37.1202Z" fill="black"/>
<path d="M4.53178 32.9799C4.31845 32.9799 4.14045 32.8119 4.13112 32.5972C4.12378 32.3899 4.27312 32.2139 4.47312 32.1846C4.76845 32.1339 7.28111 31.6552 7.7291 31.5192C7.89777 31.3132 8.34977 30.5066 8.7951 29.6572L5.00978 30.2906C4.79578 30.3279 4.58578 30.1806 4.54912 29.9619C4.51378 29.7439 4.65978 29.5379 4.87912 29.5012L9.4491 28.7366C9.59176 28.7099 9.7471 28.7719 9.8371 28.8939C9.92709 29.0153 9.93976 29.1766 9.87243 29.3112C8.5071 32.0192 8.2431 32.1592 8.13044 32.2186C7.8051 32.3932 4.57245 32.9786 4.54778 32.9799H4.53178Z" fill="black"/>
<path d="M6.23416 32.5358C6.17482 32.5358 6.11482 32.5225 6.05882 32.4945C5.86016 32.3978 5.77749 32.1591 5.87482 31.9605L7.15882 29.3285C7.25549 29.1291 7.49815 29.0471 7.69282 29.1445C7.89148 29.2418 7.97415 29.4805 7.87748 29.6791L6.59349 32.3105C6.52482 32.4531 6.38216 32.5358 6.23416 32.5358Z" fill="black"/>
<path d="M6.53876 36.9486C6.3181 36.9486 6.13876 36.7693 6.13876 36.5486V34.7173H4.67277C4.4521 34.7173 4.27344 34.5386 4.27344 34.318C4.27344 34.0973 4.4521 33.918 4.67277 33.918H6.53876C6.75943 33.918 6.93876 34.0973 6.93876 34.318V36.5486C6.93876 36.7693 6.75943 36.9486 6.53876 36.9486Z" fill="black"/>
<path d="M45.0416 27.1737C44.8283 27.1737 44.6509 27.0057 44.6416 26.791L44.4183 21.5397C44.4096 21.319 44.5809 21.1324 44.8016 21.123H44.8183C45.0316 21.123 45.2089 21.291 45.2183 21.5057L45.4416 26.757C45.4503 26.9777 45.2789 27.1637 45.0583 27.1737H45.0416Z" fill="black"/>
<path d="M43.3093 27.3051C43.0953 27.3051 42.918 27.1371 42.9087 26.9225L42.682 21.6178C42.6727 21.3972 42.844 21.2105 43.0647 21.2012C43.31 21.2038 43.472 21.3638 43.4813 21.5838L43.7087 26.8885C43.7173 27.1091 43.546 27.2951 43.3253 27.3051H43.3093Z" fill="black"/>
<path d="M30.2556 27.6178H30.2429C30.0223 27.6111 29.8496 27.4265 29.8556 27.2058L30.0276 21.5885C30.0343 21.3672 30.185 21.2012 30.4396 21.2012C30.6603 21.2078 30.8336 21.3925 30.8269 21.6132L30.6556 27.2305C30.6489 27.4471 30.471 27.6178 30.2556 27.6178Z" fill="black"/>
<path d="M18.8433 28.1347C18.7599 28.1347 18.6759 28.1094 18.6046 28.056C18.4273 27.9241 18.3906 27.6734 18.5226 27.4961L22.6999 21.8874C22.7539 21.8154 22.8299 21.7634 22.9166 21.7401C28.0739 20.3487 43.0572 20.4434 54.3531 21.9367C54.5718 21.9654 54.7258 22.1667 54.6965 22.3861C54.6671 22.6047 54.4685 22.7607 54.2471 22.7301C43.1332 21.2594 28.4572 21.1454 23.2579 22.4781L19.1639 27.9741C19.0853 28.0794 18.9653 28.1347 18.8433 28.1347Z" fill="black"/>
<path d="M13.0412 28.3488C12.9952 28.3488 12.9492 28.3408 12.9058 28.3254L10.5652 27.4814C10.3572 27.4068 10.2498 27.1774 10.3245 26.9701C10.3992 26.7614 10.6305 26.6528 10.8358 26.7288L13.1045 27.5468L53.6557 26.1895C53.8783 26.1941 54.0617 26.3548 54.069 26.5755C54.0763 26.7968 53.9037 26.9814 53.683 26.9888L13.0552 28.3488H13.0412Z" fill="black"/>
<path d="M46.9488 29.5677C46.7381 29.5677 46.5608 29.403 46.5494 29.1904C46.5374 28.9697 46.7068 28.7804 46.9268 28.769L54.2801 28.3657C54.5081 28.355 54.6894 28.5224 54.7014 28.743C54.7134 28.9637 54.5447 29.1524 54.3241 29.1644L46.9708 29.567C46.9628 29.5677 46.9561 29.5677 46.9488 29.5677Z" fill="black"/>
<path d="M17.0016 36.6516C16.7829 36.6516 16.6043 36.4756 16.6016 36.2569C16.5989 36.0356 16.7756 35.8549 16.9963 35.8522L43.3768 35.5176H43.3822C43.6008 35.5176 43.7795 35.6936 43.7822 35.9122C43.7855 36.1336 43.6082 36.3142 43.3875 36.3169L17.0069 36.6516H17.0016Z" fill="black"/>
<path d="M23.0218 22.5272C22.9972 22.5272 22.9725 22.5245 22.9478 22.5198L20.3438 22.0312C20.1265 21.9898 19.9838 21.7812 20.0245 21.5645C20.0652 21.3465 20.2812 21.2065 20.4912 21.2445L23.0945 21.7338C23.3125 21.7745 23.4545 21.9838 23.4145 22.2005C23.3778 22.3932 23.2098 22.5272 23.0218 22.5272Z" fill="black"/>
<path d="M13.0418 28.3495C12.9038 28.3495 12.7705 28.2788 12.6951 28.1515C12.5838 27.9608 12.6485 27.7155 12.8391 27.6042L22.8184 21.7802C23.0111 21.6702 23.2538 21.7349 23.3658 21.9242C23.4771 22.1149 23.4131 22.3609 23.2224 22.4722L13.2431 28.2955C13.1791 28.3322 13.1105 28.3495 13.0418 28.3495Z" fill="black"/>
<path d="M54.3022 29.1649C53.9862 29.1649 53.8642 28.8616 53.8122 28.7316C53.7089 28.4736 52.2942 22.9269 52.8329 22.4116C53.2929 21.9716 54.5415 21.9343 54.9135 21.9336C55.1348 21.9336 55.3128 22.1123 55.3135 22.3323C55.3142 22.5536 55.1355 22.7323 54.9149 22.7329C54.3455 22.7349 53.7269 22.8256 53.4775 22.9349C53.4842 23.7783 54.2035 27.4976 54.5242 28.3636C55.1735 28.3529 55.4235 28.2982 55.4262 28.2976C55.6422 28.2502 55.8548 28.3816 55.9055 28.5956C55.9555 28.8089 55.8268 29.0229 55.6135 29.0749C55.5768 29.0849 55.2235 29.1649 54.3022 29.1649Z" fill="black"/>
<path d="M31.3884 36.407H31.3777C31.1571 36.401 30.9831 36.2177 30.9884 35.997L31.3604 21.5124C31.3657 21.295 31.5437 21.123 31.7604 21.123H31.7704C31.9911 21.129 32.1657 21.3124 32.1597 21.533L31.7884 36.0177C31.7831 36.235 31.6044 36.407 31.3884 36.407Z" fill="black"/>
<path d="M28.9446 30.3825C28.2632 30.3825 27.6766 30.2025 27.3752 29.9005C27.1839 29.7085 27.1439 29.5091 27.1446 29.3765C27.1432 29.2465 27.1832 29.0471 27.3739 28.8551C27.6752 28.5511 28.2612 28.3691 28.9399 28.3691C29.9979 28.3691 30.7385 28.7811 30.7405 29.3718C30.7419 29.9638 30.0032 30.3798 28.9446 30.3825ZM27.9939 29.3765C28.1226 29.4598 28.4379 29.5825 28.9432 29.5825C29.4472 29.5811 29.7612 29.4585 29.8899 29.3745C29.7605 29.2911 29.4452 29.1685 28.9406 29.1685C28.4372 29.1691 28.1226 29.2931 27.9939 29.3765Z" fill="black"/>
<path d="M34.1521 30.3161C33.4728 30.3161 32.8875 30.1361 32.5868 29.8341C32.3948 29.6427 32.3548 29.4434 32.3555 29.3107C32.3548 29.1801 32.3941 28.9807 32.5855 28.7887C32.8868 28.4854 33.4721 28.3034 34.1515 28.3027C35.2101 28.3027 35.9508 28.7147 35.9515 29.3061C35.9521 29.4981 35.8681 29.8567 35.3028 30.1034C34.9895 30.2394 34.5828 30.3154 34.1555 30.3161H34.1521ZM33.2048 29.3107C33.3335 29.3941 33.6481 29.5161 34.1515 29.5161H34.1541C34.6581 29.5147 34.9728 29.3921 35.1015 29.3081C34.9715 29.2254 34.6561 29.1021 34.1521 29.1021C33.6481 29.1034 33.3335 29.2274 33.2048 29.3107Z" fill="black"/>
<path d="M19.0289 36.6253C18.8082 36.6253 18.6289 36.4459 18.6289 36.2253V27.734C18.6289 27.5133 18.8082 27.334 19.0289 27.334C19.2496 27.334 19.4289 27.5133 19.4289 27.734V36.2253C19.4289 36.4459 19.2496 36.6253 19.0289 36.6253Z" fill="black"/>
<path d="M17.5375 37.5751C17.5375 39.8817 15.6675 41.7517 13.3615 41.7517C11.0549 41.7517 9.18555 39.8817 9.18555 37.5751C9.18555 35.2684 11.0549 33.3984 13.3615 33.3984C15.6675 33.3984 17.5375 35.2684 17.5375 37.5751Z" fill="black"/>
<path d="M13.363 41.9546C10.9484 41.9546 8.98438 39.99 8.98438 37.5746C8.98438 35.16 10.9484 33.1953 13.363 33.1953C15.7777 33.1953 17.7417 35.16 17.7417 37.5746C17.7417 39.99 15.7777 41.9546 13.363 41.9546ZM13.363 33.6013C11.1724 33.6013 9.39037 35.384 9.39037 37.5746C9.39037 39.766 11.1724 41.5486 13.363 41.5486C15.5537 41.5486 17.3357 39.766 17.3357 37.5746C17.3357 35.384 15.5537 33.6013 13.363 33.6013Z" fill="black"/>
<path d="M15.8347 37.5736C15.8347 38.9395 14.728 40.0462 13.362 40.0462C11.9973 40.0462 10.8887 38.9395 10.8887 37.5736C10.8887 36.2076 11.9973 35.1016 13.362 35.1016C14.728 35.1016 15.8347 36.2076 15.8347 37.5736Z" fill="white"/>
<path d="M51.2055 37.5751C51.2055 39.8817 49.3355 41.7517 47.0295 41.7517C44.7228 41.7517 42.8535 39.8817 42.8535 37.5751C42.8535 35.2684 44.7228 33.3984 47.0295 33.3984C49.3355 33.3984 51.2055 35.2684 51.2055 37.5751Z" fill="black"/>
<path d="M47.031 41.9546C44.6163 41.9546 42.6523 39.99 42.6523 37.5746C42.6523 35.16 44.6163 33.1953 47.031 33.1953C49.445 33.1953 51.409 35.16 51.409 37.5746C51.409 39.99 49.445 41.9546 47.031 41.9546ZM47.031 33.6013C44.8397 33.6013 43.0577 35.384 43.0577 37.5746C43.0577 39.766 44.8397 41.5486 47.031 41.5486C49.221 41.5486 51.0036 39.766 51.0036 37.5746C51.0036 35.384 49.221 33.6013 47.031 33.6013Z" fill="black"/>
<path d="M49.5026 37.5736C49.5026 38.9395 48.396 40.0462 47.03 40.0462C45.6653 40.0462 44.5566 38.9395 44.5566 37.5736C44.5566 36.2076 45.6653 35.1016 47.03 35.1016C48.396 35.1016 49.5026 36.2076 49.5026 37.5736Z" fill="white"/>
<path d="M20.3982 25.782C20.3982 25.782 21.0021 25.4727 21.5821 25.4727C22.1635 25.4727 22.3188 25.8593 22.3188 25.9527V27.5493C22.3188 27.5493 22.3008 27.7353 21.8541 27.8273C21.4041 27.92 19.7568 28.0446 19.7182 27.6573C19.6795 27.2706 19.6988 26.3927 19.8608 26.168C20.0248 25.9453 20.3982 25.782 20.3982 25.782Z" fill="white"/>
<path d="M20.6901 28.3216C20.2461 28.3216 19.7968 28.2696 19.5568 28.0943C19.4208 27.9943 19.3368 27.8529 19.3214 27.6969C19.3201 27.6843 19.2174 26.3783 19.5368 25.9336C19.7474 25.6476 20.1294 25.4636 20.2288 25.4196C20.3268 25.3716 20.9548 25.0723 21.5828 25.0723C22.3861 25.0723 22.7194 25.6449 22.7194 25.9523V27.5489C22.7074 27.7009 22.6181 28.0776 21.9361 28.2183C21.9261 28.2203 21.3128 28.3216 20.6901 28.3216ZM20.1068 27.4756C20.4374 27.5576 21.3668 27.5189 21.7741 27.4343C21.8421 27.4209 21.8894 27.4063 21.9214 27.3929L21.9201 25.9623C21.9128 25.9929 21.8421 25.8716 21.5828 25.8716C21.1128 25.8716 20.5874 26.1343 20.5821 26.1376L20.5601 26.1483C20.4481 26.1976 20.2508 26.3129 20.1841 26.4043C20.1261 26.5209 20.0854 27.0716 20.1068 27.4756Z" fill="black"/>
</g>
</svg>
