<svg width="60" height="60" viewBox="0 0 60 60" fill="none" xmlns="http://www.w3.org/2000/svg">
<mask id="mask0_37_14552" style="mask-type:alpha" maskUnits="userSpaceOnUse" x="7" y="19" width="46" height="25">
<rect x="7" y="19.5918" width="45.314" height="24" fill="#D9D9D9"/>
</mask>
<g mask="url(#mask0_37_14552)">
<path d="M19.059 37.8233C18.7964 37.8233 18.5825 37.6118 18.5801 37.3492C18.5769 37.085 18.79 36.8687 19.0543 36.8663L40.5766 36.6523C40.8312 36.6587 41.0579 36.8623 41.0595 37.1265C41.0627 37.3907 40.8504 37.607 40.5862 37.6094L19.0638 37.8233H19.059Z" fill="black"/>
<path d="M32.6224 37.6073C32.6081 37.6073 32.5953 37.6073 32.5809 37.6057C32.3175 37.5833 32.122 37.3519 32.1443 37.0884L33.4263 22.0444C33.4486 21.7802 33.6857 21.5815 33.9435 21.6078C34.2069 21.6302 34.4025 21.8616 34.3801 22.1251L33.099 37.1691C33.0774 37.4189 32.8683 37.6073 32.6224 37.6073Z" fill="black"/>
<path d="M8.12858 33.6664C7.90269 33.6664 7.70154 33.5052 7.65843 33.2745C7.61054 33.0151 7.78136 32.7645 8.04238 32.7166C8.06233 32.7126 10.0267 32.3462 10.7866 32.1498C11.4516 31.6893 11.6743 31.2079 11.7429 30.8735L8.6147 31.3061C8.35767 31.342 8.11182 31.1584 8.0751 30.8966C8.03918 30.6348 8.22198 30.393 8.48379 30.357L12.1532 29.8494C12.3871 29.8119 12.6186 29.9659 12.6808 30.1998C12.6984 30.2636 13.0799 31.7811 11.252 32.9904C11.2097 33.0183 11.1634 33.0398 11.1139 33.0534C10.3796 33.2538 8.30499 33.6417 8.21639 33.6577C8.18685 33.6633 8.15812 33.6664 8.12858 33.6664Z" fill="black"/>
<path d="M11.7343 35.5996H7.88127C7.61706 35.5996 7.40234 35.3849 7.40234 35.1207C7.40234 34.8565 7.61706 34.6426 7.88127 34.6426H11.7343C11.9985 34.6426 12.2132 34.8565 12.2132 35.1207C12.2132 35.3849 11.9985 35.5996 11.7343 35.5996Z" fill="black"/>
<path d="M7.60241 37.3727C7.34778 37.3727 7.13546 37.1724 7.12348 36.9154C7.11231 36.6512 7.31745 36.4269 7.58166 36.4157L9.07592 36.3494C9.28665 36.1148 9.6243 35.7069 9.68177 35.5871C9.7568 35.394 9.86456 34.998 9.86456 34.998L10.7889 35.2511C10.7889 35.2511 10.6628 35.7085 10.5726 35.9407C10.4305 36.3151 9.63707 37.1516 9.62909 37.1588C9.54527 37.2426 9.43193 37.2921 9.31299 37.2977L7.62317 37.3727H7.60241Z" fill="black"/>
<path d="M51.4221 32.7495C51.3726 32.7495 51.3207 32.7407 51.2704 32.7247C51.1172 32.6728 49.7626 32.2187 49.3411 32.0079C48.7002 31.6878 48.2324 30.3676 48.2324 29.8025C48.2324 29.0034 48.8838 28.7129 49.3228 28.7129H51.387C51.6512 28.7129 51.8659 28.9276 51.8659 29.1918C51.8659 29.456 51.6512 29.6708 51.387 29.6708H49.3228C49.1895 29.6771 49.1895 29.7354 49.1895 29.8025C49.1895 30.1936 49.5766 31.0349 49.773 31.153C50.0755 31.3039 51.1755 31.6831 51.5738 31.8156C51.8252 31.9002 51.9601 32.1708 51.8763 32.4222C51.8092 32.6226 51.6225 32.7495 51.4221 32.7495Z" fill="black"/>
<path d="M44.3566 31.1741C43.2934 31.1741 42.5215 30.6928 42.5215 30.0279C42.5215 29.363 43.2934 28.8809 44.3566 28.8809C45.4198 28.8809 46.1917 29.363 46.1917 30.0279C46.1917 30.6928 45.4198 31.1741 44.3566 31.1741ZM43.5328 30.0279C43.6542 30.1061 43.9295 30.2171 44.3566 30.2171C44.7844 30.2171 45.0598 30.1061 45.1804 30.0279C45.0598 29.9489 44.7836 29.8379 44.3566 29.8379C43.9303 29.8379 43.6542 29.9489 43.5328 30.0279Z" fill="black"/>
<path d="M30.0633 31.8789C28.9992 31.8789 28.2266 31.3967 28.2266 30.731C28.2266 30.0661 28.9992 29.584 30.0633 29.584C31.1265 29.584 31.8984 30.0661 31.8984 30.731C31.8984 31.3967 31.1265 31.8789 30.0633 31.8789ZM29.2371 30.731C29.3584 30.81 29.6346 30.9218 30.0633 30.9218C30.4911 30.9218 30.7673 30.81 30.8878 30.731C30.7673 30.652 30.4911 30.541 30.0633 30.541C29.6346 30.541 29.3584 30.652 29.2371 30.731Z" fill="black"/>
<path d="M19.7739 29.7888C19.5233 29.7888 19.3117 29.5932 19.2966 29.3386C19.2942 29.3066 19.2527 28.5595 19.3939 27.9608C19.8689 25.9533 26.0567 22.0892 27.1758 21.7659C27.4328 21.69 27.697 21.8393 27.7696 22.0923C27.8423 22.347 27.697 22.6128 27.4424 22.6862C26.3281 23.0079 20.6607 26.7659 20.3263 28.1804C20.2177 28.6417 20.2528 29.2755 20.2528 29.2819C20.268 29.5461 20.066 29.772 19.8026 29.788C19.7931 29.7888 19.7835 29.7888 19.7739 29.7888Z" fill="black"/>
<path d="M20.687 29.7895C20.4396 29.7895 20.2304 29.6003 20.2105 29.3488C20.1897 29.0854 20.3861 28.8547 20.6495 28.834L46.6203 26.7594C46.8829 26.7259 47.1152 26.9334 47.136 27.1984C47.1567 27.4619 46.9604 27.6925 46.6969 27.7133L20.7261 29.7879C20.7126 29.7895 20.7006 29.7895 20.687 29.7895Z" fill="black"/>
<path d="M23.5571 22.7247C23.2969 22.7247 23.083 22.5164 23.0782 22.2554C23.0734 21.9912 23.2833 21.7724 23.5476 21.7676L48.962 21.272C49.1991 21.26 49.4457 21.4771 49.4497 21.7413C49.4553 22.0055 49.2454 22.2242 48.9812 22.229L23.5667 22.7247H23.5571Z" fill="black"/>
<path d="M31.7281 28.4978C31.7129 28.4978 31.6985 28.4978 31.6841 28.4962C31.4207 28.4722 31.2268 28.24 31.2499 27.9765L31.7871 22.0426C31.8111 21.7792 32.0641 21.5788 32.3076 21.6084C32.571 21.6323 32.7649 21.8646 32.7418 22.1288L32.2046 28.0619C32.1814 28.311 31.9731 28.4978 31.7281 28.4978Z" fill="black"/>
<path d="M46.6558 27.7146C46.5648 27.7146 46.4722 27.689 46.39 27.6332C46.1729 27.4879 46.1122 27.1949 46.2551 26.9754C46.2767 26.9387 46.9711 25.7398 46.8873 22.0967C46.8809 21.8325 47.0909 21.613 47.3551 21.6074H47.3662C47.6257 21.6074 47.8388 21.8134 47.8444 22.0752C47.9362 26.0687 47.1443 27.3674 47.0541 27.5023C46.9623 27.6403 46.8099 27.7146 46.6558 27.7146Z" fill="black"/>
<path d="M45.3114 27.3961C45.0807 27.3961 44.8772 27.2292 44.8389 26.9938L44.047 22.068C44.0055 21.8069 44.1827 21.5603 44.4438 21.5188C44.6984 21.4813 44.9506 21.6537 44.9937 21.9155L45.7856 26.8413C45.8271 27.1023 45.6499 27.3482 45.3888 27.3905C45.3625 27.3945 45.337 27.3961 45.3114 27.3961Z" fill="black"/>
<path d="M19.3194 28.4183C19.23 28.4183 19.139 28.3935 19.0592 28.3408C18.372 27.8938 16.0867 27.8555 14.8063 27.9377C14.5437 27.9641 14.3146 27.7549 14.2979 27.4907C14.2811 27.2265 14.4807 26.999 14.7457 26.9823C15.116 26.9583 18.4055 26.7723 19.5813 27.5378C19.8032 27.6823 19.8662 27.9792 19.7217 28.2011C19.6299 28.3416 19.4759 28.4183 19.3194 28.4183Z" fill="black"/>
<path d="M11.2975 39.9905C11.1881 39.9881 9.06885 39.9059 7.84119 38.5425C7.21379 37.8449 6.93521 36.9517 7.01264 35.8877L7.06931 35.2339C7.26567 32.9095 7.43569 30.9028 8.09183 30.0806C9.93651 27.7674 13.2539 27.2054 14.3435 27.0211C14.4432 27.0043 14.5199 26.9915 14.5678 26.9811C15.0571 26.8766 15.2327 26.7824 15.2327 26.7824C15.4466 26.6156 21.5673 21.9955 26.7007 20.5004C28.0137 20.1189 30.5241 19.7134 32.5907 19.7134C33.0808 19.6926 45.1036 19.2113 48.3204 20.32C49.2224 20.6321 50.6424 23.7571 51.5212 26.5389C52.8734 30.8238 52.0944 37.959 52.0608 38.26C51.8661 39.4214 48.9095 39.6848 46.4637 39.7047C46.4246 39.6999 46.3935 39.7015 46.3592 39.6944C45.1267 39.6057 20.6869 39.8795 11.2975 39.9905ZM38.9485 20.5499C35.6056 20.5499 32.6705 20.668 32.6107 20.6704C30.6838 20.6704 28.2348 21.052 26.9681 21.42C22.0064 22.8639 15.8297 27.5271 15.7683 27.5742C15.6773 27.6349 15.4219 27.7786 14.7681 27.9175C14.7114 27.9302 14.6212 27.9454 14.5031 27.9653C13.5029 28.1354 10.4577 28.6502 8.83976 30.6777C8.36562 31.274 8.19161 33.3278 8.02318 35.3137L7.96731 35.9643C7.90904 36.7625 8.10061 37.3979 8.5532 37.9008C9.51026 38.964 11.2903 39.0326 11.307 39.0334C39.7443 38.6926 45.276 38.6742 46.4558 38.7924V38.7477C48.6341 38.7277 50.7773 38.4244 51.1149 38.0915C51.1892 37.3755 51.8349 30.7136 50.6073 26.8271C49.5792 23.5712 48.3499 21.4415 47.9796 21.2132C46.4326 20.6808 42.4647 20.5499 38.9485 20.5499Z" fill="black"/>
<path d="M19.2622 29.8899L21.0534 30.1541C21.506 30.1717 21.8868 29.8197 21.9043 29.3679L21.9682 27.9439C21.9858 27.4921 21.6345 27.1113 21.182 27.0938L19.2974 27.2973C18.824 27.3651 18.4648 27.631 18.4473 28.0835L18.476 29.039C18.4584 29.4908 18.8097 29.7917 19.2622 29.8899Z" fill="white"/>
<path d="M21.0866 30.6369H21.0339L19.1916 30.3679C19.1812 30.3663 19.1701 30.3639 19.1605 30.3615C18.4277 30.2027 17.9711 29.6775 17.9975 29.0245L17.9688 28.1018C17.9951 27.4105 18.478 26.9348 19.2299 26.827L21.1297 26.6211C21.5472 26.6331 21.8672 26.7799 22.1027 27.0346C22.3382 27.2892 22.4603 27.6205 22.4467 27.9669L22.3829 29.3941C22.355 30.0885 21.7786 30.6369 21.0866 30.6369ZM19.3497 29.4228L21.1233 29.6839H21.1265C21.2622 29.6839 21.4186 29.5394 21.4258 29.3534L21.4897 27.9262C21.4937 27.8384 21.4618 27.7514 21.3995 27.6851C21.3372 27.6181 21.2534 27.5798 21.1624 27.5766L19.3489 27.7769C19.1693 27.8033 18.9338 27.8831 18.9258 28.1058L18.9545 29.0285C18.945 29.3031 19.2371 29.3965 19.3497 29.4228Z" fill="black"/>
<path d="M20.1812 39.0592C20.1812 41.4299 18.2599 43.3504 15.8892 43.3504C13.5209 43.3504 11.5996 41.4291 11.5996 39.0592C11.5996 36.69 13.5209 34.7687 15.8892 34.7695C18.2599 34.7695 20.1812 36.69 20.1812 39.0592Z" fill="black"/>
<path d="M15.8921 43.5858C13.3913 43.5858 11.3574 41.5511 11.3574 39.0495C11.3574 36.5495 13.3913 34.5156 15.8921 34.5156C18.3937 34.5156 20.4292 36.5495 20.4292 39.0495C20.4292 41.5511 18.3937 43.5858 15.8921 43.5858ZM15.8921 35.0049C13.6619 35.0049 11.8475 36.8193 11.8475 39.0495C11.8475 41.2805 13.6619 43.0965 15.8921 43.0965C18.1239 43.0965 19.9391 41.2805 19.9391 39.0495C19.9391 36.8193 18.1239 35.0049 15.8921 35.0049Z" fill="black"/>
<path d="M18.4361 39.0556C18.4361 40.4588 17.2987 41.5963 15.8962 41.5963C14.4929 41.5963 13.3555 40.4588 13.3555 39.0556C13.3555 37.6515 14.4929 36.5156 15.8962 36.5156C17.2987 36.5156 18.4361 37.6515 18.4361 39.0556Z" fill="white"/>
<path d="M48.6441 39.0592C48.6441 41.4299 46.7228 43.3504 44.3521 43.3504C41.9838 43.3504 40.0625 41.4291 40.0625 39.0592C40.0625 36.69 41.9838 34.7687 44.3521 34.7695C46.7228 34.7695 48.6441 36.69 48.6441 39.0592Z" fill="black"/>
<path d="M44.3558 43.5858C41.855 43.5858 39.8203 41.5511 39.8203 39.0495C39.8203 36.5495 41.855 34.5156 44.3558 34.5156C46.8574 34.5156 48.8921 36.5495 48.8921 39.0495C48.8921 41.5511 46.8574 43.5858 44.3558 43.5858ZM44.3558 35.0049C42.1248 35.0049 40.3104 36.8193 40.3104 39.0495C40.3104 41.2805 42.1248 43.0965 44.3558 43.0965C46.5868 43.0965 48.4019 41.2805 48.4019 39.0495C48.4019 36.8193 46.5868 35.0049 44.3558 35.0049Z" fill="black"/>
<path d="M46.8971 39.0556C46.8971 40.4588 45.7596 41.5963 44.3571 41.5963C42.9539 41.5963 41.8164 40.4588 41.8164 39.0556C41.8164 37.6515 42.9539 36.5156 44.3571 36.5156C45.7596 36.5156 46.8971 37.6515 46.8971 39.0556Z" fill="white"/>
</g>
</svg>
