<svg width="60" height="60" viewBox="0 0 60 60" fill="none" xmlns="http://www.w3.org/2000/svg">
<mask id="mask0_37_14438" style="mask-type:alpha" maskUnits="userSpaceOnUse" x="7" y="18" width="46" height="25">
<rect x="7" y="18.8945" width="45.7651" height="24" fill="#D9D9D9"/>
</mask>
<g mask="url(#mask0_37_14438)">
<path d="M20.9584 37.0005C20.6907 37.0005 20.4712 36.7851 20.4688 36.5167C20.4655 36.2466 20.6826 36.0247 20.9526 36.0222L40.6486 35.8027H40.6543C40.9219 35.8027 41.1406 36.0181 41.143 36.2866C41.1463 36.5567 40.9301 36.7794 40.66 36.781L20.9641 37.0005H20.9584Z" fill="black"/>
<path d="M38.8816 36.778C38.8685 36.778 38.8563 36.778 38.8433 36.7772C38.574 36.7568 38.3716 36.521 38.392 36.2509L39.1974 25.771C39.2178 25.5017 39.4519 25.2994 39.7228 25.3198C39.9921 25.3402 40.1944 25.576 40.174 25.8461L39.3695 36.326C39.3491 36.583 39.1354 36.778 38.8816 36.778Z" fill="black"/>
<path d="M48.6595 29.5848C48.5771 29.5848 48.4939 29.5636 48.4164 29.5196L42.1818 25.9417C41.9468 25.807 41.866 25.5084 42.0007 25.2734C42.1353 25.0392 42.4315 24.9576 42.6689 25.0923L48.9043 28.6702C49.1385 28.8048 49.2201 29.1034 49.0846 29.3384C48.9941 29.4967 48.8292 29.5848 48.6595 29.5848Z" fill="black"/>
<path d="M10.3163 32.4718C10.2951 32.4718 10.2731 32.471 10.2511 32.4677L7.90116 32.1527C7.63353 32.1168 7.44505 31.8713 7.48095 31.6028C7.51603 31.3352 7.76 31.1426 8.03171 31.1826L10.123 31.4633C10.9528 30.5861 12.3374 29.8591 13.5001 29.3557L10.6558 29.1044C10.3865 29.0807 10.1874 28.8433 10.2111 28.574C10.2347 28.3048 10.4812 28.1024 10.7414 28.1294L15.7325 28.5691C15.9659 28.5895 16.1511 28.7723 16.1764 29.0057C16.2009 29.2382 16.0565 29.4561 15.8329 29.5246C15.7945 29.536 11.989 30.7167 10.6949 32.2931C10.6011 32.4073 10.4624 32.4718 10.3163 32.4718Z" fill="black"/>
<path d="M11.6013 34.7693H7.71336C7.44328 34.7693 7.22461 34.5498 7.22461 34.2798C7.22461 34.0097 7.44328 33.791 7.71336 33.791H11.6013C11.8714 33.791 12.0909 34.0097 12.0909 34.2798C12.0909 34.5498 11.8714 34.7693 11.6013 34.7693Z" fill="black"/>
<path d="M7.9001 36.5739C7.639 36.5739 7.42196 36.3683 7.41054 36.1047C7.39993 35.8347 7.61044 35.6062 7.88052 35.5956L9.54095 35.5271C9.75636 35.2872 10.1007 34.871 10.1603 34.7486C10.2361 34.5512 10.3463 34.1465 10.3463 34.1465L11.2911 34.4051C11.2911 34.4051 11.1622 34.8727 11.07 35.1101C10.9248 35.4928 10.1137 36.3479 10.1056 36.3552C10.0191 36.4417 9.90323 36.4923 9.78084 36.4972L7.91969 36.5739H7.9001Z" fill="black"/>
<path d="M51.8355 32.4531C51.7947 32.4531 51.7523 32.4474 51.7115 32.436C51.5515 32.3952 50.1408 32.0215 49.6961 31.8354C49.1592 31.6086 47.9777 30.45 47.9288 29.6911C47.8994 29.253 48.0879 28.8809 48.4461 28.6712C48.6843 28.5317 48.9218 28.5105 48.9666 28.5072L51.8037 28.3212C52.0444 28.291 52.3063 28.5064 52.3242 28.7773C52.3414 29.0466 52.1374 29.2799 51.8673 29.2979L49.0311 29.4839C48.8965 29.5002 48.9005 29.559 48.9054 29.6267C48.9446 29.9212 49.7687 30.8033 50.0763 30.933C50.3978 31.0685 51.5458 31.381 51.9595 31.4895C52.2214 31.558 52.3773 31.8256 52.3087 32.0876C52.2516 32.307 52.0533 32.4531 51.8355 32.4531Z" fill="black"/>
<path d="M35.6001 29.7892C34.5125 29.7892 33.7227 29.2964 33.7227 28.6159C33.7227 27.9362 34.5125 27.4434 35.6001 27.4434C36.687 27.4434 37.476 27.9362 37.476 28.6159C37.476 29.2964 36.687 29.7892 35.6001 29.7892ZM34.7556 28.6159C34.8797 28.6966 35.162 28.8109 35.6001 28.8109C36.0375 28.8109 36.3198 28.6966 36.443 28.6159C36.3198 28.5351 36.0375 28.4217 35.6001 28.4217C35.162 28.4217 34.8797 28.5351 34.7556 28.6159Z" fill="black"/>
<path d="M19.4973 27.1821C19.3839 27.1821 19.2713 27.1438 19.1791 27.0646C18.9735 26.8892 18.9498 26.58 19.1253 26.3752C20.9546 24.2366 25.736 21.331 26.5193 20.9606C26.7657 20.8423 27.0562 20.9484 27.1712 21.1931C27.2871 21.4379 27.1835 21.7292 26.9387 21.8451C26.0477 22.2669 21.4735 25.1366 19.8694 27.0108C19.7723 27.1242 19.6352 27.1821 19.4973 27.1821Z" fill="black"/>
<path d="M22.7806 21.8964C22.513 21.8964 22.2935 21.681 22.2911 21.4117C22.2878 21.1417 22.5048 20.9205 22.7757 20.9181L38.6686 20.75H38.6743C38.9419 20.75 39.1606 20.9646 39.163 21.2339C39.1663 21.5047 38.9492 21.7259 38.6783 21.7283L22.7863 21.8964H22.7806Z" fill="black"/>
<path d="M37.8131 26.1599C37.5863 26.1599 37.3823 26.0008 37.3342 25.7691L36.5043 21.7416C36.4497 21.4772 36.6202 21.2178 36.8846 21.1631C37.1514 21.1133 37.4092 21.279 37.4631 21.5442L38.2937 25.5708C38.3475 25.836 38.177 26.0946 37.9126 26.1493C37.8792 26.1558 37.8457 26.1599 37.8131 26.1599Z" fill="black"/>
<path d="M39.686 26.2958C39.4616 26.2958 39.2593 26.14 39.2087 25.9107L37.8926 19.9274C37.8338 19.6639 38.0019 19.4028 38.2655 19.344C38.5233 19.2845 38.7901 19.4526 38.8489 19.7169L40.165 25.701C40.2229 25.9646 40.0556 26.2257 39.7921 26.2836C39.757 26.2917 39.7211 26.2958 39.686 26.2958Z" fill="black"/>
<path d="M20.9419 27.429C20.9232 27.429 20.9044 27.4281 20.8856 27.4257L15.7126 26.8276C15.4441 26.7966 15.2516 26.5534 15.2826 26.285C15.3144 26.0166 15.5616 25.8248 15.8252 25.855L20.9525 26.4482L47.1335 24.5511C47.4036 24.5413 47.637 24.7339 47.6565 25.004C47.6761 25.2732 47.4738 25.5082 47.2037 25.5278L20.977 27.4281C20.9656 27.429 20.9542 27.429 20.9419 27.429Z" fill="black"/>
<path d="M11.0603 39.2143C11.0146 39.2143 10.9697 39.2077 10.9257 39.1963C10.7535 39.1465 6.71788 37.9577 7.0157 35.0073C7.06466 34.5193 7.10301 34.0796 7.13728 33.6814C7.28496 31.9916 7.3739 30.9716 7.97606 30.2177C10.0314 27.641 14.8446 26.0393 15.419 25.9153C15.7968 25.8361 15.9894 25.7619 16.0628 25.7301C16.6487 25.1744 21.4203 20.761 26.4701 19.2915C27.889 18.8786 36.4392 18.8109 39.0103 18.9823C39.1188 18.9757 42.9823 18.8803 45.8674 24.4539C46.1742 24.5217 47.0203 24.5445 47.7139 24.5625C50.4995 24.6351 52.3525 24.7591 52.7074 25.7896C52.8722 26.2702 52.6495 26.7035 52.4708 27.0519C52.359 27.2689 52.2448 27.4925 52.2725 27.632C53.1407 32.0169 52.5295 37.4551 52.5026 37.6836C52.4749 37.9308 52.2652 38.1168 52.0163 38.1168C51.7764 38.138 49.2674 38.6162 47.7473 38.9132C47.718 38.9189 47.6878 38.9222 47.6568 38.9222L11.0644 39.2143H11.0603ZM34.9918 19.8741C31.6064 19.8741 27.5553 19.9948 26.7443 20.2315C21.701 21.6985 16.7376 26.4383 16.6878 26.4864C16.6658 26.5077 16.6421 26.5264 16.616 26.5436C16.5516 26.5852 16.2913 26.7312 15.623 26.8732C15.1661 26.9711 10.6091 28.4871 8.74059 30.828C8.32365 31.3502 8.2494 32.2086 8.11314 33.7662C8.07805 34.1685 8.0397 34.6124 7.98911 35.106C7.79084 37.0798 10.6662 38.085 11.1321 38.2351L47.6037 37.9438C49.0675 37.6583 50.763 37.3327 51.5667 37.1997C51.6891 35.8958 52.0237 31.4155 51.3113 27.8213C51.2183 27.3489 51.4297 26.936 51.5994 26.6048C51.6891 26.431 51.8107 26.1935 51.7813 26.1078C51.5431 25.6411 48.7428 25.5685 47.6886 25.5408C45.8258 25.4926 45.2791 25.4592 45.0613 25.0284C42.4698 19.9141 39.1221 19.9508 38.9939 19.9598C38.1111 19.9018 36.6294 19.8741 34.9918 19.8741Z" fill="black"/>
<path d="M22.2725 28.2313L24.1035 28.5014C24.5661 28.5193 24.9553 28.1595 24.9733 27.6977L25.0386 26.242C25.0565 25.7802 24.6975 25.391 24.2349 25.373L22.3092 25.5811C21.8246 25.6505 21.4574 25.9222 21.4395 26.3848L21.4688 27.3615C21.4509 27.8233 21.8099 28.1309 22.2725 28.2313Z" fill="white"/>
<path d="M24.1429 28.9937C24.125 28.9937 24.107 28.9937 24.0891 28.9928L22.2051 28.7187C22.1945 28.7171 22.1831 28.7146 22.1733 28.7122C21.4242 28.5498 20.9575 28.0129 20.9845 27.3455L20.9551 26.4022C20.982 25.6948 21.4756 25.2093 22.2443 25.0992L24.187 24.8887C24.9907 24.9156 25.561 25.5333 25.5325 26.2643L25.4672 27.7232C25.4525 28.0741 25.3024 28.4013 25.0413 28.642C24.7949 28.8704 24.4775 28.9937 24.1429 28.9937ZM22.3658 27.7518L24.1805 28.0194H24.1837C24.3216 28.0194 24.4816 27.8709 24.4889 27.6816L24.5542 26.2227C24.5615 26.0351 24.4122 25.8719 24.2205 25.8645L22.3658 26.0702C22.1822 26.0971 21.9415 26.1787 21.9334 26.4063L21.9628 27.3495C21.953 27.6253 22.2304 27.7208 22.3658 27.7518Z" fill="black"/>
<path d="M21.5964 38.2618C21.5964 40.6851 19.6324 42.6483 17.2091 42.6483C14.7882 42.6483 12.8242 40.6843 12.8242 38.2618C12.8242 35.8401 14.7882 33.8761 17.2091 33.877C19.6324 33.877 21.5964 35.8401 21.5964 38.2618Z" fill="black"/>
<path d="M17.2115 42.8926C14.6552 42.8926 12.5762 40.8128 12.5762 38.2564C12.5762 35.7009 14.6552 33.6211 17.2115 33.6211C19.7687 33.6211 21.8493 35.7009 21.8493 38.2564C21.8493 40.8128 19.7687 42.8926 17.2115 42.8926ZM17.2115 34.1213C14.9318 34.1213 13.0772 35.9759 13.0772 38.2564C13.0772 40.537 14.9318 42.3924 17.2115 42.3924C19.4929 42.3924 21.3483 40.537 21.3483 38.2564C21.3483 35.9759 19.4929 34.1213 17.2115 34.1213Z" fill="black"/>
<path d="M19.8028 38.2604C19.8028 39.6948 18.6401 40.8575 17.2065 40.8575C15.7721 40.8575 14.6094 39.6948 14.6094 38.2604C14.6094 36.8251 15.7721 35.6641 17.2065 35.6641C18.6401 35.6641 19.8028 36.8251 19.8028 38.2604Z" fill="white"/>
<path d="M48.905 38.2618C48.905 40.6851 46.941 42.6483 44.5177 42.6483C42.0968 42.6483 40.1328 40.6843 40.1328 38.2618C40.1328 35.8401 42.0968 33.8761 44.5177 33.877C46.941 33.877 48.905 35.8401 48.905 38.2618Z" fill="black"/>
<path d="M44.5221 42.8926C41.9657 42.8926 39.8867 40.8128 39.8867 38.2564C39.8867 35.7009 41.9657 33.6211 44.5221 33.6211C47.0792 33.6211 49.1599 35.7009 49.1599 38.2564C49.1599 40.8128 47.0792 42.8926 44.5221 42.8926ZM44.5221 34.1213C42.2423 34.1213 40.3877 35.9759 40.3877 38.2564C40.3877 40.537 42.2423 42.3924 44.5221 42.3924C46.8034 42.3924 48.6589 40.537 48.6589 38.2564C48.6589 35.9759 46.8034 34.1213 44.5221 34.1213Z" fill="black"/>
<path d="M47.1153 38.2604C47.1153 39.6948 45.9526 40.8575 44.519 40.8575C43.0846 40.8575 41.9219 39.6948 41.9219 38.2604C41.9219 36.8251 43.0846 35.6641 44.519 35.6641C45.9526 35.6641 47.1153 36.8251 47.1153 38.2604Z" fill="white"/>
</g>
</svg>
