<svg width="60" height="60" viewBox="0 0 60 60" fill="none" xmlns="http://www.w3.org/2000/svg">
<mask id="mask0_37_14380" style="mask-type:alpha" maskUnits="userSpaceOnUse" x="7" y="18" width="46" height="24">
<rect x="7" y="18.582" width="45.8423" height="23" fill="#D9D9D9"/>
</mask>
<g mask="url(#mask0_37_14380)">
<path d="M52.3914 32.0438H24.0814C23.8329 32.0438 23.6309 31.8418 23.6309 31.5932V29.6002C23.6309 29.3516 23.8329 29.1504 24.0814 29.1504H52.3914C52.6399 29.1504 52.8419 29.3516 52.8419 29.6002V31.5932C52.8419 31.8418 52.6399 32.0438 52.3914 32.0438ZM24.532 31.1434H51.9416V30.0508H24.532V31.1434Z" fill="#040000"/>
<path d="M10.2289 27.3976C10.2289 27.3976 11.3674 23.4807 14.8157 20.5009C17.1654 18.6694 24.0861 19.0704 24.0861 19.0704L24.0524 31.5556L51.2464 31.4595C51.2464 31.4595 51.3485 36.5262 51.0031 36.9587C50.6584 37.3905 50.4534 37.2996 50.4534 37.2996L42.5504 37.817H32.0011V37.021H30.7538L30.7298 37.817H14.0355L8.48147 37.1262C8.48147 37.1262 7.45117 36.7807 7.45117 35.4853V33.1747L8.01814 32.4387C8.01814 32.4387 7.96782 29.9501 8.24642 29.3156C8.52578 28.6803 9.63868 27.3308 10.2289 27.3976Z" fill="white"/>
<path d="M31.9998 38.268C31.7512 38.268 31.55 38.066 31.55 37.8174V37.472H31.1895L31.179 37.8317C31.1715 38.075 30.9717 38.268 30.7284 38.268H14.0349L8.4253 37.5741C8.39601 37.5704 8.36672 37.5636 8.33819 37.5546C8.28262 37.5358 7 37.0875 7 35.4865V33.1758C7 33.076 7.03304 32.9791 7.09312 32.9002L7.56396 32.2897C7.5557 31.6304 7.55795 29.7628 7.8343 29.135C8.04156 28.6612 8.99752 27.2787 9.88364 26.9963C10.2156 26.0306 11.5019 22.7692 14.52 20.1612C16.9944 18.2328 23.822 18.6045 24.1111 18.6217C24.3499 18.6345 24.5361 18.8328 24.5354 19.0723L24.5038 31.1047L51.2435 31.0101H51.245C51.4906 31.0101 51.6903 31.2061 51.6956 31.4517C51.7662 34.921 51.6513 36.8698 51.3547 37.2407C50.9664 37.7251 50.63 37.7799 50.422 37.7529L42.5784 38.2673L31.9998 38.268ZM8.59201 36.6865L14.0904 37.3706L30.2914 37.3676L30.3026 37.0079C30.3094 36.7646 30.5091 36.5716 30.7524 36.5716H31.9998C32.2491 36.5716 32.4503 36.7736 32.4503 37.0222V37.3676H42.5491L50.4235 36.8502C50.4415 36.8487 50.4603 36.8487 50.4791 36.8502C50.5099 36.8292 50.5684 36.7811 50.6503 36.6783C50.7779 36.3644 50.8328 34.0357 50.8027 31.9128L24.0532 32.0074C23.9203 32.0231 23.819 31.9601 23.7341 31.876C23.6485 31.7911 23.6012 31.6762 23.6019 31.5553L23.6335 19.5041C22.1181 19.4515 16.9598 19.402 15.0922 20.8573C11.8001 23.7019 10.6714 27.4859 10.6601 27.5242C10.6 27.733 10.4108 27.8727 10.1833 27.8464C9.86561 27.8689 8.92768 28.8842 8.65884 29.4977C8.49363 29.8724 8.44783 31.4382 8.4681 32.4309C8.4696 32.533 8.43731 32.6337 8.37498 32.7148L7.90114 33.329V35.4865C7.90114 36.3283 8.45158 36.6242 8.59201 36.6865Z" fill="#040000"/>
<path d="M11.7592 37.8915H11.7554C11.5069 37.89 11.3064 37.6872 11.3086 37.4379L11.3769 28.3695C11.3769 28.3161 11.3875 28.2636 11.4062 28.2125C11.6901 27.4683 14.2516 20.9291 16.8311 20.5468L23.9778 20.1278C24.2114 20.0985 24.4389 20.302 24.4532 20.5506C24.4682 20.7992 24.279 21.0124 24.0304 21.0267L16.9234 21.4427C15.4253 21.6665 13.2889 25.832 12.2773 28.4581L12.2097 37.4446C12.2082 37.6917 12.0062 37.8915 11.7592 37.8915Z" fill="black"/>
<path d="M8.03966 31.3683C7.96832 31.3683 7.89623 31.351 7.82865 31.315C7.60937 31.1979 7.52602 30.9268 7.64241 30.7067C7.7513 30.501 8.15456 29.8281 8.75231 29.8281H11.5901C11.8387 29.8281 12.04 30.0301 12.04 30.2787C12.04 30.5273 11.8387 30.7285 11.5901 30.7285H8.75231C8.702 30.7533 8.53304 30.953 8.43767 31.1303C8.35656 31.282 8.20112 31.3683 8.03966 31.3683Z" fill="black"/>
<path d="M11.5885 32.8301H8.14318C7.89461 32.8301 7.69336 32.6281 7.69336 32.3795C7.69336 32.1309 7.89461 31.9297 8.14318 31.9297H11.5885C11.8371 31.9297 12.0391 32.1309 12.0391 32.3795C12.0391 32.6281 11.8371 32.8301 11.5885 32.8301Z" fill="black"/>
<path d="M9.29716 35.9531H7.94396C7.69539 35.9531 7.49414 35.7511 7.49414 35.5026C7.49414 35.254 7.69539 35.0527 7.94396 35.0527H9.29716C9.54573 35.0527 9.74773 35.254 9.74773 35.5026C9.74773 35.7511 9.54573 35.9531 9.29716 35.9531Z" fill="black"/>
<path d="M9.29716 34.6523H7.94396C7.69539 34.6523 7.49414 34.4503 7.49414 34.2018C7.49414 33.9532 7.69539 33.752 7.94396 33.752H9.29716C9.54573 33.752 9.74773 33.9532 9.74773 34.2018C9.74773 34.4503 9.54573 34.6523 9.29716 34.6523Z" fill="black"/>
<path d="M22.3921 28.1153H22.3906L13.0721 28.0793C12.8228 28.0785 12.6216 27.8765 12.6231 27.6279C12.6238 27.3794 12.8258 27.1789 13.0736 27.1789H13.0751L21.9393 27.2127L21.9085 20.8063C21.907 20.5578 22.1083 20.3543 22.3568 20.3535H22.3591C22.6069 20.3535 22.8089 20.554 22.8096 20.8018L22.8427 27.6625C22.8434 27.7834 22.7954 27.8983 22.7113 27.9831C22.6264 28.0687 22.5115 28.1153 22.3921 28.1153Z" fill="black"/>
<path d="M19.9026 30.9133C18.9684 30.9133 18.3144 30.5288 18.3008 29.9648C18.2986 29.8101 18.3504 29.4234 18.9046 29.1621C19.1862 29.0292 19.5527 28.9518 19.9349 28.9435C20.9134 28.9338 21.6005 29.3115 21.6148 29.8912C21.6178 30.0459 21.5652 30.4334 21.0103 30.6948C20.7287 30.8269 20.3622 30.9043 19.98 30.9125C19.9544 30.9133 19.9281 30.9133 19.9026 30.9133ZM19.3777 29.9408C19.5114 29.9829 19.7201 30.0129 19.9589 30.0121C20.2128 30.0061 20.4065 29.9626 20.5387 29.9153C20.405 29.8747 20.2 29.8492 19.9567 29.8439C19.7029 29.8499 19.5091 29.8942 19.3777 29.9408Z" fill="black"/>
<path d="M11.8422 28.4346C11.7912 28.4346 11.7394 28.4256 11.6883 28.4076L10.0745 27.8218C9.84021 27.7362 9.72006 27.4779 9.80416 27.2436C9.88977 27.0108 10.1458 26.8899 10.3824 26.974L11.9962 27.5597C12.2305 27.6446 12.3506 27.9037 12.2658 28.1372C12.1997 28.3205 12.0262 28.4346 11.8422 28.4346Z" fill="black"/>
<path d="M15.3354 22.1847C15.3106 22.1847 15.2858 22.1832 15.2603 22.1787L13.7163 21.9218C13.4715 21.8813 13.3048 21.6492 13.3461 21.4037C13.3859 21.1581 13.6255 20.9929 13.8643 21.0335L15.409 21.2903C15.6538 21.3308 15.8205 21.5629 15.7792 21.8084C15.7424 22.0285 15.5517 22.1847 15.3354 22.1847Z" fill="black"/>
<path d="M40.9292 35.6166C40.8781 35.6166 40.8256 35.6075 40.7745 35.5888C40.541 35.5039 40.4201 35.2448 40.5064 35.0105C40.6153 34.7117 40.7497 34.4203 40.9044 34.1462C41.967 32.2606 43.9165 31.0898 45.9921 31.0898C46.2407 31.0898 46.4427 31.2911 46.4427 31.5397C46.4427 31.7882 46.2407 31.9902 45.9921 31.9902C44.2409 31.9902 42.5926 32.986 41.6892 34.5893C41.5585 34.8205 41.4451 35.0669 41.352 35.3199C41.2859 35.5032 41.1132 35.6166 40.9292 35.6166Z" fill="black"/>
<path d="M14.0133 29.0054C14.9806 28.9754 15.0474 28.5181 15.0474 27.4998C15.0474 26.6685 15.0759 25.9941 14.0133 25.9941C12.9463 25.9941 12.6113 26.3711 12.6113 27.4998C12.6113 28.3311 12.778 29.043 14.0133 29.0054Z" fill="white"/>
<path d="M13.9189 29.4581C13.3587 29.4581 12.9396 29.3162 12.6408 29.0271C12.2165 28.6163 12.1602 28.0253 12.1602 27.5004C12.1602 26.1111 12.6971 25.5449 14.0127 25.5449C14.6608 25.5449 15.1016 25.7702 15.3224 26.2148C15.4989 26.5707 15.4989 26.9927 15.4981 27.4388C15.4981 28.397 15.4981 29.4115 14.027 29.4566C13.9902 29.4581 13.9542 29.4581 13.9189 29.4581ZM14.0127 26.4453C13.2535 26.4453 13.0605 26.5497 13.0605 27.5004C13.0605 27.9697 13.1244 28.2416 13.2686 28.3797C13.4007 28.5074 13.6575 28.5645 13.9985 28.5562C14.5286 28.5397 14.597 28.5374 14.597 27.5004C14.597 27.1001 14.597 26.7817 14.5151 26.6165C14.4903 26.5647 14.431 26.4453 14.0127 26.4453Z" fill="black"/>
<rect x="24.0801" y="29.6016" width="28.3099" height="1.99301" fill="white"/>
<path d="M52.3914 32.0438H24.0814C23.8329 32.0438 23.6309 31.8418 23.6309 31.5932V29.6002C23.6309 29.3516 23.8329 29.1504 24.0814 29.1504H52.3914C52.6399 29.1504 52.8419 29.3516 52.8419 29.6002V31.5932C52.8419 31.8418 52.6399 32.0438 52.3914 32.0438ZM24.532 31.1434H51.9416V30.0508H24.532V31.1434Z" fill="black"/>
<path d="M17.5951 32.9746C15.2229 32.9746 13.293 34.9045 13.293 37.2768C13.293 39.649 15.2229 41.579 17.5951 41.579C19.9674 41.579 21.8973 39.649 21.8973 37.2768C21.8973 34.9045 19.9674 32.9746 17.5951 32.9746Z" fill="black"/>
<path d="M20.0278 37.2782C20.0278 38.6201 18.9397 39.7067 17.5985 39.7067C16.2573 39.7067 15.1699 38.6201 15.1699 37.2782C15.1699 35.937 16.2573 34.8496 17.5985 34.8496C18.9397 34.8496 20.0278 35.937 20.0278 37.2782Z" fill="white"/>
<path d="M45.9897 32.9746C43.6174 32.9746 41.6875 34.9045 41.6875 37.2768C41.6875 39.649 43.6174 41.579 45.9897 41.579C48.3619 41.579 50.2918 39.649 50.2918 37.2768C50.2918 34.9045 48.3619 32.9746 45.9897 32.9746Z" fill="black"/>
<path d="M48.4223 37.2782C48.4223 38.6201 47.3342 39.7067 45.993 39.7067C44.6518 39.7067 43.5645 38.6201 43.5645 37.2782C43.5645 35.937 44.6518 34.8496 45.993 34.8496C47.3342 34.8496 48.4223 35.937 48.4223 37.2782Z" fill="white"/>
<path d="M22.7018 35.6193C22.5178 35.6193 22.3451 35.5059 22.279 35.3219C21.5701 33.3777 19.7055 32.0703 17.6389 32.0703C15.8607 32.0703 14.2116 33.0368 13.3353 34.592C13.2038 34.8263 13.0905 35.0726 12.9988 35.3227C12.914 35.557 12.6572 35.6786 12.4214 35.5915C12.1878 35.5066 12.0669 35.2476 12.1525 35.0133C12.2607 34.7181 12.3943 34.4275 12.5498 34.1497C13.5861 32.3114 15.5355 31.1699 17.6389 31.1699C20.0825 31.1699 22.2873 32.7146 23.1246 35.014C23.2102 35.2483 23.0901 35.5066 22.8558 35.5915C22.8054 35.6103 22.7529 35.6193 22.7018 35.6193Z" fill="black"/>
<path d="M26.2222 38.057C26.1208 38.057 26.0194 38.0239 25.936 37.9548C25.7438 37.7964 25.716 37.5125 25.8737 37.321L28.3241 34.3383C28.4097 34.2339 28.5373 34.1738 28.6725 34.1738H40.9708C41.2193 34.1738 41.4206 34.3758 41.4206 34.6244C41.4206 34.873 41.2193 35.0742 40.9708 35.0742H28.885L26.5706 37.8925C26.4812 38.0014 26.3521 38.057 26.2222 38.057Z" fill="black"/>
</g>
</svg>
