<svg width="16" height="16" viewBox="0 0 16 16" fill="none" xmlns="http://www.w3.org/2000/svg">
<path d="M5.80408 6.90292C6.58618 8.27692 7.72406 9.41479 9.09806 10.1969L9.83487 9.16502C10.0801 8.82163 10.5433 8.71568 10.9134 8.91831C12.0922 9.56254 13.3941 9.94999 14.7333 10.0552C15.1668 10.0896 15.501 10.4514 15.501 10.8862V14.6053C15.501 15.0329 15.1776 15.3911 14.7523 15.4346C14.3107 15.4804 13.8657 15.5029 13.4172 15.5029C6.28251 15.5029 0.498047 9.71847 0.498047 2.58374C0.498047 2.13532 0.520551 1.69023 0.566393 1.24848C0.609997 0.823231 0.968244 0.499908 1.39572 0.5H5.11478C5.54972 0.5 5.91149 0.834277 5.94578 1.26775C6.051 2.60698 6.43845 3.90876 7.08267 5.08756C7.2853 5.4577 7.17935 5.92087 6.83595 6.16611L5.80408 6.90292ZM3.70201 6.35531L5.28565 5.22426C4.83621 4.25415 4.52829 3.22457 4.3713 2.16699L2.17337 2.16699C2.16837 2.30535 2.16587 2.44455 2.16587 2.58374C2.16504 8.79829 7.20269 13.8359 13.4172 13.8359C13.5564 13.8359 13.6956 13.8334 13.834 13.8276V11.6297C12.7764 11.4727 11.7468 11.1648 10.7767 10.7153L9.64567 12.299C9.1903 12.122 8.748 11.9131 8.32207 11.6738L8.27373 11.6463C6.6389 10.7159 5.28505 9.36208 4.35463 7.72725L4.32713 7.6789C4.08784 7.25298 3.87894 6.81068 3.70201 6.35531Z" fill="white"/>
</svg>
