<svg width="20" height="20" viewBox="0 0 20 20" fill="none" xmlns="http://www.w3.org/2000/svg">
<path d="M3.33334 5.11909V15.8058L7.55397 13.997L12.554 16.497L16.6667 14.7344V4.04766L17.7525 3.58229C17.9641 3.49164 18.209 3.58962 18.2997 3.80113C18.3218 3.853 18.3333 3.90884 18.3333 3.96527V15.8334L12.5 18.3334L7.5 15.8334L2.24747 18.0845C2.03596 18.1751 1.79101 18.0771 1.70036 17.8656C1.67813 17.8138 1.66667 17.7579 1.66667 17.7015V5.83337L3.33334 5.11909ZM13.5355 9.36887L10 12.9045L6.46447 9.36887C4.51185 7.41628 4.51185 4.25047 6.46447 2.29784C8.41709 0.345219 11.5829 0.345219 13.5355 2.29784C15.4882 4.25047 15.4882 7.41628 13.5355 9.36887ZM10 10.5475L12.357 8.1904C13.6588 6.88865 13.6588 4.7781 12.357 3.47635C11.0553 2.17461 8.94475 2.17461 7.64298 3.47635C6.34124 4.7781 6.34124 6.88865 7.64298 8.1904L10 10.5475Z" fill="black"/>
</svg>
