<svg width="40" height="40" viewBox="0 0 40 40" fill="none" xmlns="http://www.w3.org/2000/svg">
    <g clip-path="url(#clip0_72_15)">
        <mask id="mask0_72_15" style="mask-type:alpha" maskUnits="userSpaceOnUse" x="0" y="0" width="40" height="40">
            <path d="M0 19.2C0 12.4794 0 9.11905 1.30792 6.55211C2.4584 4.29417 4.29417 2.4584 6.55211 1.30792C9.11905 0 12.4794 0 19.2 0H20.8C27.5206 0 30.8809 0 33.4479 1.30792C35.7058 2.4584 37.5416 4.29417 38.6921 6.55211C40 9.11905 40 12.4794 40 19.2V20.8C40 27.5206 40 30.8809 38.6921 33.4479C37.5416 35.7058 35.7058 37.5416 33.4479 38.6921C30.8809 40 27.5206 40 20.8 40H19.2C12.4794 40 9.11905 40 6.55211 38.6921C4.29417 37.5416 2.4584 35.7058 1.30792 33.4479C0 30.8809 0 27.5206 0 20.8V19.2Z" fill="white"/>
        </mask>
        <g mask="url(#mask0_72_15)">
            <rect width="40" height="40" fill="#FF5226"/>
            <path d="M17.3713 2.7063L-6.52966 40H3.69533L18.1757 17.4525L17.8611 17.3102L14.2874 31.6706L21.8534 33.0032L29.6301 23.2317L29.2087 23.021L26.5818 34.1224L43.8489 30.8326L40.4688 25.2692L33.762 26.8026L34.4625 27.6098L37.229 16.0159L30.7849 11.7062L22.3432 22.3205L22.7646 22.5312L26.2316 8.62503L17.3713 2.7063Z" fill="#FFDD00"/>
        </g>
    </g>
    <defs>
        <clipPath id="clip0_72_15">
            <rect width="40" height="40" fill="white"/>
        </clipPath>
    </defs>
</svg>
