<svg width="24" height="24" viewBox="0 0 24 24" fill="none" xmlns="http://www.w3.org/2000/svg">
<path d="M10.339 2.09686C9.34144 2.09686 8.53271 2.90558 8.53271 3.90319H15.4673C15.4673 2.90558 14.6586 2.09686 13.661 2.09686H10.339Z" fill="#21201F"/>
<path fill-rule="evenodd" clip-rule="evenodd" d="M7.46872 5.44498C8.92948 5.14833 10.4399 5 12 5C13.5601 5 15.0706 5.14833 16.5313 5.44498C17.8143 5.70555 18.8252 6.68964 19.1154 7.96058L19.5758 9.97682L19.5797 10H21.5C21.7761 10 22 10.2239 22 10.5V12L20 13V19.9998H16L15 18H9L8 20L4 19.9998V13.9423L4.00003 13.9259L4 13L2 12V10.5C2 10.2239 2.22386 10 2.5 10H4.42031L4.42426 9.97682L4.88462 7.96058C5.17482 6.68963 6.18572 5.70553 7.46872 5.44498ZM4 13C4 13 4 14 12 14C19.9504 14 19.9997 13.0122 20 13C19.9985 14.1033 19.1047 15 18.0011 15H5.9989C4.89438 15 4.00008 14.1045 4 13ZM18.1395 11.6667L17.9079 10.3083L17.4581 8.33822C17.3173 7.72187 16.8252 7.23859 16.193 7.11019C14.8486 6.83717 13.4518 6.69922 12 6.69922C10.5483 6.69922 9.1514 6.83718 7.80705 7.11019C7.17482 7.23858 6.68271 7.72185 6.54197 8.33822L6.09213 10.3083L5.86056 11.6667C7.21849 11.3759 9.4639 11 12 11C14.5361 11 16.7816 11.3759 18.1395 11.6667Z" fill="#21201F"/>
</svg>
