<svg width="142" height="142" viewBox="0 0 142 142" fill="none" xmlns="http://www.w3.org/2000/svg">
    <g clip-path="url(#clip0_22175_28750)">
        <rect width="142" height="142" fill="white"/>
        <path fill-rule="evenodd" clip-rule="evenodd" d="M141.833 71.0001V141.833H70.9994H0.166016V71.0001V0.166748H70.9994H141.833V71.0001ZM25.8078 105.193C32.7208 95.7459 47.7918 92.2501 70.9994 92.2501C94.2069 92.2501 109.278 95.7459 116.191 105.193C105.844 118.847 89.4516 127.667 70.9994 127.667C52.5471 127.667 36.1547 118.847 25.8078 105.193ZM70.9994 81.6251C83.7494 81.6251 95.791 67.4584 95.791 49.7501C95.791 27.0834 80.5619 21.4167 70.9994 21.4167C61.4369 21.4167 46.2077 27.0834 46.2077 49.7501C46.2077 68.4501 58.2494 81.6251 70.9994 81.6251Z" fill="#5C5A57" fill-opacity="0.1"/>
    </g>
    <defs>
        <clipPath id="clip0_22175_28750">
            <rect width="142" height="142" fill="white"/>
        </clipPath>
    </defs>
</svg>
