<svg fill="none" height="24" viewBox="0 0 24 24" width="24" xmlns="http://www.w3.org/2000/svg"><path clip-rule="evenodd" d="m4 5h16c1.1046 0 2 .89543 2 2v10c0 1.1046-.8954 2-2 2h-16c-1.10457 0-2-.8954-2-2v-10c0-1.10457.89543-2 2-2zm-4 2c0-2.20914 1.79086-4 4-4h16c2.2091 0 4 1.79086 4 4v10c0 2.2091-1.7909 4-4 4h-16c-2.20914 0-4-1.7909-4-4zm15.8516 4.4218c.4101.2442.4199.8301 0 1.0743l-5.6153 3.3007c-.45896.2735-.99607.0391-.99607-.4296v-6.81645c0-.47851.56641-.69336.99607-.43945z" fill="#21201f" fill-rule="evenodd"/></svg>