<svg fill="none" height="24" viewBox="0 0 24 24" width="24" xmlns="http://www.w3.org/2000/svg"><g fill="#21201f"><path d="m7 16h4v-2h-4z"/><path clip-rule="evenodd" d="m3 4c0-1.10457.89543-2 2-2h8c1.1046 0 2 .89543 2 2v8h2.0294c.8122 0 1.4706.6584 1.4706 1.4706v5.7794c0 .4142.3358.75.75.75s.75-.3358.75-.75v-8.6122c-.8481-.1213-1.5-.85066-1.5-1.73228 0-.46444.1809-.88662.4761-1.19991l-2.2287-2.54711 1.5052-1.317 3.3763 3.85861c.2392.27344.3711.62442.3711.98776v10.56213c0 1.5188-1.2312 2.75-2.75 2.75s-2.75-1.2312-2.75-2.75v-5.25h-1.5v8h-12zm2 0v6h8v-6zm0 8h8v8h-8z" fill-rule="evenodd"/></g></svg>