<svg fill="none" height="24" viewBox="0 0 24 24" width="24" xmlns="http://www.w3.org/2000/svg"><g fill="#21201f"><path d="m5 2c-1.10457 0-2 .89543-2 2v6h12v-6c0-1.10457-.8954-2-2-2z"/><path clip-rule="evenodd" d="m3 12v10h12v-8h1.5v5.25c0 1.5188 1.2312 2.75 2.75 2.75s2.75-1.2312 2.75-2.75v-10.56213c0-.36334-.1319-.71432-.3711-.98776l-3.3763-3.85861-1.5052 1.317 2.2287 2.54711c-.2952.31329-.4761.73547-.4761 1.19991 0 .88162.6519 1.61098 1.5 1.73228v8.6122c0 .4142-.3358.75-.75.75s-.75-.3358-.75-.75v-5.7794c0-.8122-.6584-1.4706-1.4706-1.4706zm4 4h4v-2h-4z" fill-rule="evenodd"/></g></svg>