<?xml version="1.0" encoding="utf-8"?>
<svg width="24" height="24" viewBox="0 0 24 24" fill="none" xmlns="http://www.w3.org/2000/svg">
    <path fill-rule="evenodd" clip-rule="evenodd" d="M 19.5 10.192 C 18.536 12 17.15 12.904 15.344 12.904 C 13.536 12.904 12.151 12 11.187 10.192 L 11.526 1.698 C 11.539 1.396 11.788 1.157 12.091 1.157 L 12.461 1.157 C 12.557 1.157 12.636 1.232 12.642 1.328 L 12.948 7.482 L 14.486 7.482 L 14.792 1.328 C 14.798 1.232 14.877 1.157 14.973 1.157 L 15.714 1.157 C 15.81 1.157 15.889 1.232 15.895 1.328 L 16.201 7.482 L 17.739 7.482 L 18.045 1.328 C 18.05 1.232 18.13 1.157 18.226 1.157 L 18.597 1.157 C 18.899 1.157 19.149 1.396 19.16 1.698 L 19.5 10.192 Z M 16.346 13.676 L 16.581 21.914 C 16.595 22.413 16.203 22.828 15.704 22.843 C 15.695 22.843 15.688 22.843 15.678 22.843 L 15.009 22.843 C 14.508 22.843 14.104 22.439 14.104 21.94 C 14.104 21.93 14.105 21.922 14.105 21.914 L 14.341 13.676 C 14.675 13.762 15.01 13.807 15.344 13.807 C 15.678 13.807 16.011 13.762 16.346 13.676 Z M 9.018 2.111 L 9.018 22.843 L 8.37 22.843 C 7.37 22.843 6.563 22.035 6.563 21.036 C 6.563 21.012 6.563 20.988 6.564 20.963 L 6.85 13.807 C 6.489 12.868 5.705 12.266 4.5 12 C 4.5 7.19 5.481 3.693 7.442 1.507 C 7.775 1.137 8.346 1.105 8.718 1.438 C 8.91 1.61 9.018 1.855 9.018 2.111 Z" fill="white"/>
</svg>