<svg
    xmlns="http://www.w3.org/2000/svg"
    viewBox="0 0 24 24"
    id="vector">
    <path
        id="path"
        d="M 14.371 4.5 L 14.192 3.226 C 14.094 2.825 13.726 2.692 13.387 2.929 L 9.613 5.571 C 9.276 5.807 9.274 6.192 9.613 6.429 L 13.387 9.071 C 13.724 9.307 14.085 9.181 14.189 8.787 L 14.371 7.5 L 21.248 7.5 C 21.667 7.5 22 7.165 22 6.751 L 22 5.249 C 22 4.833 21.663 4.5 21.248 4.5 L 14.371 4.5 L 14.371 4.5 Z"
        fill="#ffffff"/>
    <path
        id="path_2"
        d="M 4.849 20.837 C 5.578 20.229 6.14 20 7 20 C 7.443 20 7.782 20.156 8.669 20.748 C 10.03 21.656 10.776 22 12 22 C 13.224 22 13.976 21.654 15.338 20.75 C 15.352 20.741 15.352 20.741 15.365 20.732 C 16.231 20.157 16.573 20 17 20 C 17.86 20 18.385 20.183 19.258 20.936 C 19.589 21.221 19.899 21.534 19.899 21.534 C 20.196 21.824 20.681 21.815 20.973 21.524 L 22.027 20.476 C 22.323 20.181 22.315 19.704 22.014 19.421 C 22.014 19.421 20.947 18.37 20.231 17.917 C 19.261 17.303 18.226 17 17 17 C 15.795 17 15.043 17.344 13.706 18.233 C 13.692 18.242 13.692 18.242 13.679 18.25 C 12.789 18.841 12.444 19 12 19 C 11.559 19 11.221 18.844 10.338 18.255 C 8.973 17.344 8.226 17 7 17 C 5.392 17 4.168 17.499 2.927 18.533 C 2.507 18.884 1.981 19.411 1.981 19.411 C 1.682 19.703 1.683 20.183 1.975 20.475 L 3.025 21.525 C 3.321 21.821 3.794 21.831 4.096 21.538 C 4.096 21.538 4.524 21.108 4.849 20.837 Z"
        fill="#ffffff"
        fill-opacity="0.2"/>
    <path
        id="path_3"
        d="M 9 12.5 L 3.96 9.167 C 3.613 8.938 3.141 9.038 2.912 9.382 L 2.088 10.618 C 1.856 10.966 1.941 11.43 2.287 11.661 L 7.668 15.248 C 7.914 15.412 8.204 15.5 8.5 15.5 L 21.255 15.5 C 21.666 15.5 22 15.156 22 14.743 L 22 13.257 C 22 12.839 21.666 12.5 21.245 12.5 L 9 12.5 Z"
        fill="#ffffff"/>
</svg>
