<svg width="32" height="32" viewBox="0 0 32 32" fill="none" xmlns="http://www.w3.org/2000/svg">
<path fill-rule="evenodd" clip-rule="evenodd" d="M19.7128 6H5V8.72727H8.11667C8.42042 8.72727 8.66667 8.97148 8.66667 9.27273V13.6364C8.66667 13.9376 8.42042 14.1818 8.11667 14.1818H5V20.5455H13.5646C14.537 20.5455 15.4696 20.9286 16.1573 21.6105L16.9167 22.3636H25.3789C25.7367 22.3636 25.9993 22.0302 25.9125 21.6859L25.1667 18.7273V15.798L18.5511 14.34C18.1317 14.2476 17.8333 13.8787 17.8333 13.4526V9.63636C17.8333 9.13429 18.2437 8.72727 18.75 8.72727H22.7222L22.2258 7.61962C21.7845 6.63473 20.7996 6 19.7128 6ZM11.05 8.72727C10.7462 8.72727 10.5 8.97148 10.5 9.27273V17.2727C10.5 17.574 10.7462 17.8182 11.05 17.8182H14.5333C14.8371 17.8182 15.0833 17.574 15.0833 17.2727V9.27273C15.0833 8.97148 14.8371 8.72727 14.5333 8.72727H11.05Z" fill="#ffffff"/>
<path d="M5 24.1818H27V26H5V24.1818Z" fill="#ffffff"/>
</svg>
