<svg fill="none" height="24" viewBox="0 0 24 24" width="24" xmlns="http://www.w3.org/2000/svg"><path clip-rule="evenodd" d="m10.7955 11.1782c-.93307 1.0439-1.8396 2.101-2.62619 3.0718h-4.46555c-.16169 0-.30572.1022-.35913.2548l-.32318.9234c-.06728.1923.02873.4034.21782.479l2.866 1.1464c-.40367.6586-.57776 1.1151-.42594 1.2669.66173.6618 7.11437-4.8661 10.85757-8.60931 3.7432-3.74319 4.8692-6.05869 4.3398-6.58805-.5037-.5037-2.6223.49341-6.0512 3.81589l-10.79017-3.17356c-.19548-.0575-.4014.05009-.46584.2434l-.55004 1.65012c-.05397.16191.00711.33992.14911.43459zm6.5684-.9735 2.8706 9.7599c.0575.1955-.0501.4015-.2434.4659l-1.6501.55c-.1619.054-.3399-.0071-.4346-.1491l-4.4571-6.6856c1.628-1.3512 2.9085-2.6879 3.9146-3.9411zm-7.61393 6.7477v3.3438c0 .1617-.10219.3057-.2548.3592l-.92344.3231c-.19222.0673-.40333-.0287-.47897-.2178l-.82958-2.0739c.71114-.4743 1.53467-1.0458 2.48679-1.7344z" fill="#21201f" fill-rule="evenodd"/></svg>