<svg width="60" height="60" viewBox="0 0 60 60" fill="none" xmlns="http://www.w3.org/2000/svg">
<mask id="mask0_1334_18096" style="mask-type:luminance" maskUnits="userSpaceOnUse" x="4" y="14" width="55" height="29">
<path d="M58.522 14.4258H4V42.0578H58.522V14.4258Z" fill="white"/>
</mask>
<g mask="url(#mask0_1334_18096)">
<path d="M42.5994 38.3025L20.5642 38.6565L17.509 38.6785C17.2857 39.6348 16.7473 40.4881 15.9802 41.1011C15.2131 41.7142 14.2625 42.0514 13.2805 42.0584C12.2986 42.0654 11.3424 41.742 10.5667 41.1399C9.79086 40.5379 9.24019 39.6925 9.00317 38.7396L6.50317 38.7574C5.79429 38.5795 5.13364 38.2467 4.56909 37.7825C4.50079 37.7331 4.45024 37.663 4.42505 37.5826C4.40805 37.5326 3.0855 33.4114 5.2395 30.4974C5.24944 30.4802 5.26084 30.4642 5.27417 30.4495C5.77446 29.7926 6.40663 29.2474 7.13013 28.8494C8.58813 28.0314 12.3482 27.4194 14.8362 27.0154C15.7612 26.8654 16.7151 26.7104 16.8801 26.6434C17.0661 26.5504 18.4512 25.7304 19.9182 24.8604C23.1302 22.9604 25.6184 21.4895 26.0344 21.3255L26.2751 21.2254C29.3601 19.9794 33.585 18.2746 50.946 21.4256C51.268 21.4856 52.0674 21.9486 52.1414 22.5826C52.1587 22.75 52.1291 22.9188 52.0564 23.0706C51.9837 23.2224 51.8706 23.3511 51.7292 23.4424C52.2632 23.9884 53.5383 25.0224 54.1453 25.5174C54.5373 25.8354 54.7712 26.0276 54.9182 26.1546C54.9985 26.2191 55.073 26.2906 55.1404 26.3685C55.4888 26.8896 55.7004 27.4901 55.7561 28.1146C55.7561 29.3916 55.7304 31.7554 55.5364 33.5274H56.6702C56.739 33.5274 56.8073 33.5139 56.8708 33.4876C56.9344 33.4613 56.9921 33.4227 57.0408 33.3741C57.0894 33.3254 57.1282 33.2675 57.1545 33.2039C57.1809 33.1403 57.1941 33.0723 57.1941 33.0035V18.3304C57.1941 18.2616 57.1809 18.1935 57.1545 18.1299C57.1282 18.0664 57.0894 18.0087 57.0408 17.96C56.9921 17.9114 56.9344 17.8726 56.8708 17.8462C56.8073 17.8199 56.739 17.8065 56.6702 17.8065H50.613V18.9625C50.614 19.0595 50.5796 19.1535 50.5164 19.2271C50.4531 19.3007 50.3654 19.3488 50.2693 19.3624L47.0833 19.8465C47.0253 19.8565 46.9661 19.8535 46.9094 19.8379C46.8527 19.8224 46.7998 19.7946 46.7551 19.7564C46.7104 19.7182 46.6748 19.6706 46.6506 19.617C46.6264 19.5634 46.6146 19.5054 46.6155 19.4466V19.1656H44.4993C44.4274 19.1655 44.3561 19.151 44.2898 19.1233C44.2235 19.0957 44.1632 19.0553 44.1125 19.0044C44.0618 18.9536 44.0218 18.8934 43.9944 18.827C43.967 18.7605 43.9532 18.6893 43.9534 18.6175V17.8846C43.9534 17.7394 44.011 17.6001 44.1135 17.4974C44.2161 17.3946 44.3551 17.3367 44.5002 17.3365H46.6082V16.9366H44.4993C44.3545 16.9363 44.2159 16.8785 44.1135 16.7762C44.0112 16.6738 43.9536 16.5352 43.9534 16.3904V15.6565C43.9534 15.5114 44.011 15.3721 44.1135 15.2693C44.2161 15.1666 44.3551 15.1087 44.5002 15.1085H46.6082V14.8274C46.6073 14.7688 46.6196 14.7108 46.6438 14.6573C46.668 14.6038 46.7032 14.5563 46.7478 14.5181C46.7924 14.4799 46.8451 14.452 46.9016 14.4363C46.9582 14.4207 47.0176 14.4177 47.0754 14.4275L50.2615 14.9124C50.3576 14.926 50.4453 14.9741 50.5085 15.0477C50.5718 15.1213 50.6062 15.2155 50.6052 15.3126V16.4664H56.6624C57.1551 16.4666 57.6278 16.6624 57.9763 17.0108C58.3249 17.3592 58.5207 17.8317 58.5212 18.3245V33.0025C58.5204 33.4951 58.3243 33.9673 57.9758 34.3155C57.6273 34.6636 57.155 34.8592 56.6624 34.8594H55.3191C55.2738 35.1685 55.1544 35.4619 54.9705 35.7144C54.9199 35.7625 54.8578 35.797 54.7903 35.8145L51.2131 36.7664C51.3367 37.3416 51.3434 37.9358 51.2322 38.5135C51.121 39.0911 50.8944 39.6403 50.5662 40.1285C50.2379 40.6167 49.8145 41.0338 49.3215 41.3548C48.8286 41.6758 48.2763 41.894 47.697 41.9966C47.1178 42.0993 46.5237 42.0842 45.9504 41.9522C45.3772 41.8202 44.8366 41.574 44.3606 41.2283C43.8846 40.8827 43.4829 40.4447 43.1799 39.9405C42.877 39.4362 42.679 38.8761 42.5974 38.2935L42.5994 38.3025ZM44.4553 37.6766C44.4551 38.1659 44.6001 38.6443 44.8718 39.0513C45.1436 39.4583 45.5296 39.7755 45.9817 39.9629C46.4337 40.1504 46.9314 40.1994 47.4114 40.1041C47.8914 40.0087 48.3324 39.7733 48.6785 39.4273C49.0246 39.0813 49.2602 38.6404 49.3557 38.1605C49.4513 37.6805 49.4023 37.1831 49.2151 36.731C49.0279 36.2789 48.7108 35.8923 48.304 35.6204C47.8971 35.3485 47.4188 35.2034 46.9294 35.2034C46.2735 35.2034 45.6444 35.464 45.1804 35.9278C44.7165 36.3915 44.4556 37.0206 44.4553 37.6766ZM10.7761 37.6766C10.7759 38.1658 10.921 38.6441 11.1926 39.0511C11.4643 39.458 11.8506 39.7752 12.3025 39.9627C12.7544 40.1502 13.2518 40.1995 13.7317 40.1043C14.2116 40.0091 14.6526 39.7738 14.9988 39.428C15.345 39.0823 15.5807 38.6415 15.6765 38.1617C15.7723 37.6819 15.7233 37.1844 15.5364 36.7322C15.3495 36.2801 15.0328 35.8935 14.6262 35.6214C14.2196 35.3493 13.7415 35.2038 13.2522 35.2034C12.9272 35.2032 12.6053 35.267 12.3049 35.3912C12.0046 35.5153 11.7316 35.6974 11.5017 35.9271C11.2718 36.1567 11.0896 36.4294 10.9651 36.7295C10.8406 37.0297 10.7763 37.3516 10.7761 37.6766ZM5.14526 37.2095C5.55453 37.5293 6.01227 37.7813 6.50122 37.9564L8.88403 37.9395C8.88403 37.8525 8.87036 37.7654 8.87036 37.6724C8.87242 36.6657 9.22134 35.6904 9.85815 34.9107C10.495 34.131 11.3809 33.5945 12.3669 33.3914C13.353 33.1883 14.3786 33.3311 15.2717 33.7957C16.1648 34.2603 16.8706 35.0185 17.2703 35.9424L18.5164 35.9175V28.2574L16.6433 27.5445C16.6309 27.5375 16.6187 27.5299 16.6072 27.5215C16.2602 27.5885 15.7412 27.6745 14.9602 27.8025C12.6742 28.1745 8.85133 28.7955 7.51733 29.5455C7.20461 29.7233 6.91055 29.9321 6.63941 30.1685L11.4705 29.5406C11.5643 29.5269 11.6597 29.5474 11.7395 29.5987C11.8193 29.65 11.8775 29.7284 11.9041 29.8194C11.9321 29.9094 11.9275 30.0066 11.8909 30.0936C11.8543 30.1805 11.7883 30.2516 11.7043 30.2945C10.2893 31.0035 7.5583 32.3764 7.3523 32.4854C7.3363 32.4934 5.60829 33.1856 4.87329 33.4366C4.84262 33.6319 4.82071 33.8251 4.80737 34.0164H6.10132C6.17257 34.0166 6.2426 34.0359 6.30396 34.0721C6.36531 34.1083 6.41589 34.1602 6.45044 34.2225L7.53149 36.1565C7.58334 36.2494 7.59611 36.3589 7.56714 36.4612C7.53817 36.5635 7.46954 36.6501 7.37671 36.702C7.28388 36.7538 7.17432 36.7666 7.07202 36.7376C6.96972 36.7086 6.88315 36.6402 6.8313 36.5474L5.86548 34.8174H4.78247C4.80093 35.6293 4.92143 36.4358 5.14136 37.2176L5.14526 37.2095ZM17.5291 36.7425C17.5955 37.0494 17.6291 37.3626 17.6292 37.6766C17.6292 37.7436 17.6224 37.8105 17.6184 37.8765L20.5535 37.8555L42.5535 37.5015C42.5698 37.0736 42.6489 36.6503 42.7883 36.2454L17.5291 36.7425ZM50.9822 36.0096L54.4504 35.0845C54.804 33.4006 54.965 31.6818 54.9304 29.9615C54.9169 29.9595 54.9035 29.9565 54.8904 29.9524C50.5134 27.5394 50.4842 27.2465 50.4612 27.0125C50.4566 26.9433 50.468 26.874 50.4944 26.8099C50.5207 26.7457 50.5611 26.6884 50.613 26.6424C50.713 26.5634 50.8594 26.4424 53.6604 26.1614L53.634 26.1404C52.5578 25.3984 51.5925 24.5076 50.7664 23.4944C50.7441 23.4467 50.7319 23.3952 50.7302 23.3426C50.7285 23.29 50.737 23.2376 50.7561 23.1885C50.7747 23.1391 50.8034 23.0939 50.8396 23.0555C50.8758 23.017 50.9188 22.986 50.967 22.9644C51.288 22.8224 51.3475 22.7055 51.3455 22.6815C51.3325 22.5285 50.9452 22.2524 50.7932 22.2144C33.6652 19.1144 29.565 20.7645 26.571 21.9725L26.3303 22.0726C26.2543 22.1026 26.0594 22.2054 25.7854 22.3604L27.1575 22.6165C31.1225 20.8825 39.8461 20.2304 49.0261 23.9454C49.0371 23.9454 49.0454 23.9604 49.0564 23.9654C49.0805 23.9768 49.1029 23.9912 49.1233 24.0084C49.1456 24.0244 49.1658 24.0434 49.1833 24.0645C49.1903 24.0735 49.2003 24.0785 49.2083 24.0865C49.2163 24.0945 49.2194 24.1116 49.2234 24.1246C49.2371 24.1483 49.2478 24.1734 49.2561 24.1995C49.263 24.2231 49.2682 24.2472 49.2712 24.2715C49.2742 24.2968 49.2742 24.3222 49.2712 24.3475C49.2695 24.3739 49.2646 24.4002 49.2571 24.4256C49.2559 24.4398 49.2534 24.4539 49.2493 24.4676C49.2493 24.4776 49.2362 24.4844 49.2312 24.4954C49.2189 24.5195 49.2039 24.5421 49.1863 24.5626C49.1702 24.5824 49.1523 24.6007 49.1331 24.6175C49.1256 24.6266 49.1176 24.6352 49.1091 24.6434L46.925 26.1775C46.8889 26.1961 46.8508 26.2102 46.8113 26.2195L46.488 33.3255C46.6372 33.3095 46.7873 33.3019 46.9373 33.3025C47.8035 33.305 48.6496 33.5638 49.3689 34.0464C50.0882 34.5291 50.6485 35.2139 50.9792 36.0145L50.9822 36.0096ZM19.3152 28.4305V35.9065L33.5344 35.6275L33.6013 32.9534H34.4011L34.3342 35.6124L43.1682 35.4405C43.7272 34.498 44.6193 33.7994 45.6682 33.4825L45.8743 28.9825L47.1013 25.0594L48.0173 24.4175C47.5503 24.2395 47.0834 24.0675 46.6174 23.9175V23.9595L46.5833 23.9124L45.8074 23.8965L45.7825 23.6546C42.1871 22.5379 38.4364 22.001 34.6721 22.0645L34.6262 23.8426H33.8264L33.8713 22.0884C33.6883 22.0964 33.5171 22.1135 33.3381 22.1265L33.2854 23.8436H32.4851L32.5364 22.1854C30.5214 22.3026 28.5496 22.8193 26.7361 23.7054L23.9915 25.2774C24.1529 25.3385 24.2943 25.4433 24.4001 25.5796C24.506 25.716 24.5719 25.879 24.5911 26.0506V27.2095L24.8582 27.1876V27.9874L24.4114 28.0225C24.2435 28.1804 24.0314 28.2829 23.8035 28.3165C23.391 28.3793 22.9746 28.4128 22.5574 28.4166C22.21 28.4322 21.8632 28.3751 21.5393 28.2486L19.3152 28.4305ZM5.79126 31.0865C5.48699 31.5221 5.25075 32.0015 5.09107 32.5084C5.79907 32.2454 6.83341 31.8546 6.97241 31.7806C7.11141 31.7066 8.18313 31.1675 9.23413 30.6395L5.79126 31.0865ZM51.7532 27.1866C52.4612 27.6496 53.7201 28.3865 54.9431 29.0665C54.9431 28.7475 54.9514 28.4295 54.9514 28.1155C54.9016 27.6755 54.7511 27.2528 54.5115 26.8804C53.5015 26.9804 52.4392 27.0935 51.7522 27.1805L51.7532 27.1866ZM22.4631 26.2335L22.4421 26.2435C22.3015 26.3038 22.1738 26.3908 22.0662 26.4996C21.989 26.8513 21.9626 27.2124 21.988 27.5716C22.5427 27.6407 23.1045 27.6269 23.655 27.5306C23.7051 27.5208 23.7548 27.5068 23.8025 27.4886V26.0574C23.8025 26.0854 23.7225 25.9664 23.4695 25.9664C23.1199 25.9869 22.7775 26.0771 22.4631 26.2315V26.2335ZM19.9871 27.5726L21.1873 27.4725C21.1873 27.3045 21.1874 27.0924 21.2024 26.8724L19.9871 27.5726ZM20.3201 25.5484C19.0787 26.2817 18.2061 26.7966 17.7014 27.0926L18.6111 27.4395L26.0022 23.2086L24.7581 22.9754C24.7451 22.9712 24.7328 22.9663 24.7205 22.9605C23.4435 23.6975 21.6731 24.7464 20.3201 25.5484ZM44.7581 18.3604H46.6145V18.1346H44.7581V18.3604ZM44.7581 16.1356H46.6145V15.9085H44.7581V16.1356ZM42.5872 31.6194L40.5623 25.1724H41.8474L43.1145 29.5074L44.3811 25.1724H45.6663L43.6482 31.6194H42.5872ZM36.6804 31.6194V25.1724H40.2952V26.2845H37.8582V27.7325H40.0432V28.8326H37.8582V30.5135H40.2961V31.6136L36.6804 31.6194ZM26.2092 31.6194V25.1724H28.2844C28.5696 25.1337 28.8597 25.1597 29.1335 25.2483C29.4074 25.337 29.6576 25.4862 29.866 25.6849C30.0743 25.8835 30.2355 26.1265 30.3372 26.3958C30.4388 26.6651 30.4785 26.9538 30.4534 27.2405C30.4787 27.5291 30.4395 27.8198 30.3386 28.0914C30.2377 28.3629 30.0775 28.6086 29.8699 28.8106C29.6622 29.0126 29.4122 29.166 29.1379 29.2593C28.8637 29.3527 28.5722 29.3837 28.2844 29.3504H27.384V31.6214L26.2092 31.6194ZM27.3865 28.2454H28.1204C28.9354 28.2454 29.28 27.9274 29.28 27.2374C29.28 26.6204 28.9364 26.2845 28.1204 26.2845H27.3865V28.2454ZM34.3523 31.6175V28.8336H32.3455V31.6175H31.1672V25.1714H32.3455V27.7315H34.3542V25.1714H35.5315V31.6175H34.3523Z" fill="black"/>
</g>
</svg>
