<svg width="60" height="60" viewBox="0 0 60 60" fill="none" xmlns="http://www.w3.org/2000/svg">
<mask id="mask0_37_14104" style="mask-type:alpha" maskUnits="userSpaceOnUse" x="6" y="19" width="49" height="22">
<rect x="6" y="19.9727" width="48.333" height="20.0678" fill="#D9D9D9"/>
</mask>
<g mask="url(#mask0_37_14104)">
<path d="M11.024 37.3722C10.0452 37.3722 6.82374 37.2887 6.23182 36.2144C6.13696 36.0427 6.02004 35.6886 6.29997 35.2443C6.37012 35.1341 6.45095 35.0553 6.51576 34.9918C6.63869 34.8722 6.68478 34.8268 6.57455 34.4593L6.50975 34.2429C6.27057 33.4552 6 32.5633 6 31.9954C6 31.2372 7.16513 29.3766 8.40576 28.7339C8.53136 28.6604 11.9179 26.7336 17.5819 26.1471C17.8945 26.0415 18.3762 25.7703 18.9808 25.4315C19.5206 25.1282 20.1927 24.7508 20.9897 24.3519C23.3902 23.1541 27.8523 21.0656 30.7704 20.5358C33.871 19.9727 36.9335 19.9727 38.7634 19.9727C40.6915 19.9727 44.5029 20.3889 46.4523 20.6508C49.0719 21.0055 49.6731 21.2053 49.9043 21.3396C50.0646 21.4311 50.1749 21.5827 50.2143 21.7638C50.2624 21.9896 50.1922 22.2301 50.1047 22.4212C51.022 23.1541 53.2981 25.0855 53.2981 26.2232V29.2971C53.3255 29.3665 53.5807 29.7226 53.7331 29.9344C54.1159 30.4669 54.333 30.7822 54.333 31.0675C54.333 31.5051 54.1573 33.967 53.687 34.8174C53.2187 35.6572 51.9119 36.0373 51.7642 36.0774L46.7356 36.8871C46.7162 36.8898 46.6968 36.8918 46.6775 36.8918L11.024 37.3722ZM38.7634 20.7737C36.9609 20.7737 33.9425 20.7737 30.9141 21.3242C28.0934 21.8373 23.7102 23.891 21.3478 25.0694C20.5688 25.4596 19.9054 25.8311 19.3737 26.1304C18.6782 26.5212 18.1758 26.8025 17.785 26.9247C17.7589 26.9327 17.7328 26.9381 17.7055 26.9401C12.1998 27.5026 8.82398 29.4173 8.79058 29.4367C7.71162 29.9965 6.80103 31.632 6.80103 31.9954C6.80103 32.4444 7.06492 33.3129 7.2767 34.0097L7.34284 34.2295C7.572 34.9978 7.33683 35.3111 7.07561 35.5657C7.03419 35.6064 6.99745 35.6425 6.97807 35.6726C6.90859 35.7828 6.92796 35.8169 6.93331 35.8276C7.1785 36.2712 9.24287 36.5705 11.0186 36.5711L46.6374 36.0908L51.5945 35.2951C51.8618 35.2183 52.7269 34.8929 52.9855 34.4279C53.3108 33.8407 53.5313 31.6594 53.5313 31.0675C53.5033 30.988 53.24 30.6212 53.083 30.4021C52.7082 29.8823 52.4971 29.5743 52.4971 29.2971V26.2232C52.4971 25.6353 50.8583 24.0099 49.3391 22.8401C49.1681 22.7084 49.1327 22.4639 49.2576 22.2889C49.3217 22.1994 49.3839 22.0778 49.4119 21.9936C49.1848 21.9128 48.4853 21.7344 46.3454 21.4458C44.416 21.1859 40.652 20.7737 38.7634 20.7737Z" fill="black"/>
<path d="M6.86486 31.7542C6.6778 31.7542 6.51078 31.6219 6.4727 31.4315C6.42928 31.2144 6.57024 31.0032 6.78737 30.9598C9.92534 30.3332 12.7613 29.3504 13.0172 28.8146C12.5603 28.6903 10.9442 28.8113 9.59665 29.019C9.37485 29.0538 9.17309 28.9028 9.13901 28.6843C9.10561 28.4659 9.25526 28.2608 9.47372 28.2274C13.3499 27.6274 13.6372 28.1906 13.7461 28.4024C13.8637 28.6322 13.865 28.8908 13.7488 29.1293C13.1081 30.4554 7.96787 31.5417 6.9437 31.7461C6.91764 31.7515 6.89092 31.7542 6.86486 31.7542Z" fill="black"/>
<path d="M20.1616 27.461C20.016 27.461 19.8763 27.3815 19.8049 27.2438C19.7026 27.0474 19.7801 26.8056 19.9772 26.7034L23.5087 24.8768C23.7045 24.7753 23.9463 24.8521 24.0485 25.0492C24.1507 25.2456 24.0732 25.4875 23.8768 25.589L20.3447 27.4162C20.2866 27.4463 20.2237 27.461 20.1616 27.461Z" fill="black"/>
<path d="M21.7666 28.2107C21.6951 28.2107 21.6223 28.192 21.5568 28.1512C21.5387 28.1406 19.7723 27.0716 17.098 27.0042C16.8762 26.9995 16.7012 26.8151 16.7072 26.594C16.7125 26.3722 16.9023 26.2205 17.1174 26.2031C20.0215 26.2759 21.8995 27.4204 21.9783 27.4698C22.1667 27.5854 22.2242 27.8326 22.108 28.021C22.0318 28.1432 21.9008 28.2107 21.7666 28.2107Z" fill="black"/>
<path d="M8.31119 35.3021C7.60703 35.3021 7.03516 34.7924 7.03516 34.1657C7.03516 33.5384 7.60703 33.0293 8.31119 33.0293C9.01535 33.0293 9.58723 33.5384 9.58723 34.1657C9.58723 34.7924 9.01535 35.3021 8.31119 35.3021ZM8.31119 33.8303C8.05398 33.8303 7.83619 33.984 7.83619 34.1657C7.83619 34.3468 8.05398 34.5011 8.31119 34.5011C8.5684 34.5011 8.7862 34.3468 8.7862 34.1657C8.7862 33.984 8.5684 33.8303 8.31119 33.8303Z" fill="black"/>
<path d="M52.8972 26.6251C52.8398 26.6251 52.7817 26.6124 52.7269 26.5863L50.1548 25.3771C49.9537 25.2829 49.8682 25.0444 49.9617 24.844C50.0566 24.6429 50.2971 24.5574 50.4948 24.6516L53.0676 25.8608C53.2687 25.955 53.3542 26.1935 53.26 26.3939C53.1912 26.5396 53.0476 26.6251 52.8972 26.6251Z" fill="black"/>
<path d="M52.8853 29.7245C52.8432 29.7245 52.7991 29.7171 52.7571 29.7031L52.0642 29.4686C51.4837 29.2722 51.0341 28.8052 50.8604 28.218L49.2002 22.6361C49.1374 22.4237 49.2583 22.2005 49.4708 22.1377C49.6819 22.0749 49.9063 22.1952 49.9691 22.4076L51.6287 27.9901C51.7289 28.3275 51.9874 28.5968 52.3215 28.709L53.0136 28.9435C53.2234 29.015 53.3363 29.2421 53.2648 29.4519C53.208 29.6189 53.0523 29.7245 52.8853 29.7245Z" fill="black"/>
<path d="M21.4737 35.2338C21.278 35.2338 21.1063 35.0902 21.0775 34.8898C21.0167 34.4702 20.4883 30.7717 20.4883 30.1644C20.4883 29.5358 20.8931 27.9023 20.9392 27.7186C20.9934 27.5048 21.2091 27.3712 21.4256 27.4266C21.6407 27.4814 21.7703 27.6985 21.7169 27.913C21.5986 28.3873 21.29 29.7148 21.29 30.1644C21.29 30.5806 21.6374 33.1507 21.8712 34.7762C21.9026 34.9953 21.7503 35.1984 21.5312 35.2298C21.5124 35.2325 21.4924 35.2338 21.4737 35.2338Z" fill="black"/>
<path d="M34.4446 35.2348C34.4306 35.2348 34.4172 35.2341 34.4032 35.2328C34.1827 35.2107 34.0224 35.0136 34.0451 34.7932L35.3365 22.2179C35.3586 21.9974 35.5476 21.8357 35.7761 21.8598C35.9959 21.8825 36.1569 22.0796 36.1335 22.3001L34.8428 34.8754C34.8214 35.0818 34.6477 35.2348 34.4446 35.2348Z" fill="black"/>
<path d="M19.729 35.4898C19.5099 35.4898 19.3308 35.3135 19.3282 35.0937C19.3255 34.8725 19.5032 34.6915 19.7243 34.6888L41.6033 34.4336H41.608C41.8271 34.4336 42.0062 34.61 42.0088 34.8298C42.0115 35.0509 41.8338 35.232 41.6127 35.2346L19.7337 35.4898H19.729Z" fill="black"/>
<path d="M44.5988 26.8867C44.5728 26.8867 44.5474 26.884 44.5213 26.8787C44.3042 26.8359 44.1626 26.6255 44.2047 26.4083L44.9402 22.6657C44.983 22.4473 45.1974 22.3076 45.4106 22.3491C45.6277 22.3918 45.7693 22.6023 45.7266 22.8194L44.9917 26.5627C44.9536 26.7537 44.7859 26.8867 44.5988 26.8867Z" fill="black"/>
<path d="M33.6888 27.7181C33.6748 27.7181 33.6607 27.7174 33.6467 27.7161C33.4256 27.6934 33.2666 27.4956 33.2893 27.2758L33.8204 22.2165C33.8431 21.996 34.0429 21.8397 34.2607 21.859C34.4818 21.8824 34.6408 22.0802 34.6181 22.3L34.087 27.3594C34.0649 27.5651 33.8912 27.7181 33.6888 27.7181Z" fill="black"/>
<path d="M32.3111 30.336C31.4299 30.336 30.8086 30.0033 30.7605 29.4769C30.709 28.8836 31.4105 28.4059 32.4667 28.3117C32.8943 28.2723 33.3072 28.3124 33.6312 28.42C34.2178 28.6144 34.3347 28.9644 34.3521 29.1562C34.3688 29.3472 34.3167 29.7127 33.7728 30.008C33.4722 30.1717 33.0727 30.2826 32.6465 30.3213C32.5309 30.3313 32.4193 30.336 32.3111 30.336ZM31.6096 29.4007C31.7465 29.4728 32.0706 29.567 32.575 29.5223C33.0774 29.4775 33.3807 29.3265 33.5029 29.2317C33.366 29.1595 33.0426 29.0667 32.5376 29.1101C32.0352 29.1548 31.7319 29.3052 31.6096 29.4007Z" fill="black"/>
<path d="M43.8149 29.474C43.2698 29.474 42.8034 29.347 42.5289 29.1159C42.3211 28.9415 42.2643 28.7458 42.2529 28.6128C42.2402 28.4832 42.263 28.2808 42.4367 28.0717C42.7112 27.743 43.2798 27.5105 43.9585 27.4503C45.0061 27.3582 45.7891 27.7036 45.8425 28.2935C45.8953 28.8854 45.1945 29.3651 44.1376 29.4599C44.0274 29.4693 43.9198 29.474 43.8149 29.474ZM43.1007 28.5393C43.237 28.6108 43.5597 28.7063 44.0668 28.6609C44.5698 28.6162 44.8725 28.4652 44.9934 28.371C44.8571 28.2995 44.5291 28.2046 44.0287 28.2487C43.525 28.2935 43.2217 28.4445 43.1007 28.5393Z" fill="black"/>
<path d="M24.9085 23.3609C24.7341 23.3609 24.5745 23.2467 24.5237 23.071C24.4622 22.8585 24.5845 22.6361 24.7969 22.5746C28.273 21.5691 34.7447 21.6947 35.0199 21.7021C35.2411 21.7061 35.4168 21.8898 35.4121 22.1109C35.4074 22.3294 35.2284 22.5031 35.0112 22.5031H35.0026C34.9344 22.5018 28.3765 22.3735 25.0201 23.3449C24.9827 23.3556 24.9453 23.3609 24.9085 23.3609Z" fill="black"/>
<path d="M53.1882 34.0551C52.7085 34.0551 52.2976 33.7838 52.0858 33.3275C52.0751 33.3062 52.0671 33.2834 52.0611 33.2607L51.8921 32.6134C51.8607 32.4931 51.8861 32.3662 51.9609 32.268C52.0357 32.1698 52.1526 32.1116 52.2762 32.111L53.7206 32.0996H53.724C53.9438 32.0996 54.1228 32.2773 54.1241 32.4971C54.1262 32.7189 53.9484 32.9 53.7273 32.9006L52.798 32.908L52.8267 33.0176C52.8788 33.1171 52.9877 33.2541 53.1868 33.2541H53.1902L53.6371 33.2487C53.8703 33.2561 54.0386 33.4231 54.042 33.6449C54.0446 33.866 53.8676 34.0471 53.6465 34.0497L53.1982 34.0551H53.1882Z" fill="black"/>
<path d="M21.7677 28.6122C21.5592 28.6122 21.3835 28.4512 21.3682 28.24C21.3528 28.0189 21.5192 27.8272 21.7396 27.8118L45.9295 26.0848C46.8688 25.9285 48.0259 24.2883 48.2591 23.7211C47.9064 23.4913 46.7265 23.1586 45.54 22.9669C43.8284 22.725 40.6169 22.4484 35.0144 22.5039L34.9102 22.5046C31.7628 22.5193 27.9548 23.6042 23.5909 25.7287C23.3938 25.8269 23.1519 25.7428 23.0557 25.5437C22.9582 25.3446 23.041 25.1047 23.2401 25.0079C27.7129 22.8299 31.6379 21.7182 34.9062 21.7035L35.0064 21.7029C40.651 21.6454 43.9132 21.9267 45.6523 22.1719C46.5441 22.3168 48.6252 22.717 49.0301 23.3757C49.163 23.5929 49.0782 23.8494 48.9659 24.0933C48.662 24.758 47.3986 26.654 46.0237 26.8798L21.7971 28.6115C21.7871 28.6122 21.7777 28.6122 21.7677 28.6122Z" fill="black"/>
<path d="M23.1096 28.748C23.3414 28.1701 23.2579 27.5929 22.9239 27.4559C22.5892 27.3216 22.1309 27.6804 21.899 28.2576C21.6672 28.8362 21.7501 29.4147 22.0841 29.5497C22.4188 29.6853 22.8778 29.3259 23.1096 28.748Z" fill="white"/>
<path d="M22.2335 29.9778C22.1306 29.9778 22.0304 29.9584 21.9342 29.9204C21.3783 29.6952 21.2033 28.9156 21.5273 28.1072C21.8513 27.2995 22.5167 26.8626 23.0726 27.0817C23.6304 27.3108 23.8048 28.0898 23.4821 28.8962C23.2917 29.3705 22.9624 29.7447 22.6016 29.899C22.4787 29.9518 22.3544 29.9778 22.2335 29.9778ZM22.7666 27.8239C22.7058 27.8239 22.4406 27.9823 22.2709 28.4052C22.0979 28.8367 22.186 29.1407 22.2368 29.1781C22.2989 29.1935 22.5655 29.0278 22.7379 28.5969C22.9122 28.162 22.8221 27.8607 22.7699 27.8239H22.7666Z" fill="black"/>
<path d="M24.3839 27.4372C24.3839 27.979 23.832 28.4186 23.1506 28.4186C22.4705 28.4186 21.918 27.979 21.918 27.4372C21.918 26.8947 22.4705 26.4551 23.1506 26.4551C23.832 26.4551 24.3839 26.8947 24.3839 27.4372Z" fill="white"/>
<path d="M23.1523 28.8185C22.2517 28.8185 21.5195 28.1992 21.5195 27.4369C21.5195 26.6747 22.2517 26.0547 23.1523 26.0547C24.0536 26.0547 24.7858 26.6747 24.7858 27.4369C24.7858 28.1992 24.0536 28.8185 23.1523 28.8185ZM23.1523 26.8557C22.7014 26.8557 22.3206 27.1216 22.3206 27.4369C22.3206 27.7516 22.7014 28.0175 23.1523 28.0175C23.6033 28.0175 23.9848 27.7516 23.9848 27.4369C23.9848 27.1216 23.6033 26.8557 23.1523 26.8557Z" fill="black"/>
<path d="M19.9082 35.6504C19.9082 37.9619 18.0335 39.8359 15.7226 39.8359C13.4104 39.8359 11.5371 37.9619 11.5371 35.6504C11.5371 33.3388 13.4104 31.4648 15.7226 31.4648C18.0335 31.4648 19.9082 33.3388 19.9082 35.6504Z" fill="black"/>
<path d="M15.7226 40.0396C13.3028 40.0396 11.334 38.0708 11.334 35.6503C11.334 33.2306 13.3028 31.2617 15.7226 31.2617C18.1431 31.2617 20.1119 33.2306 20.1119 35.6503C20.1119 38.0708 18.1431 40.0396 15.7226 40.0396ZM15.7226 31.6686C13.5273 31.6686 11.7408 33.455 11.7408 35.6503C11.7408 37.8463 13.5273 39.6328 15.7226 39.6328C17.9186 39.6328 19.705 37.8463 19.705 35.6503C19.705 33.455 17.9186 31.6686 15.7226 31.6686Z" fill="black"/>
<path d="M18.2026 35.6511C18.2026 37.02 17.0922 38.129 15.7247 38.129C14.3558 38.129 13.2461 37.02 13.2461 35.6511C13.2461 34.2822 14.3558 33.1738 15.7247 33.1738C17.0922 33.1738 18.2026 34.2822 18.2026 35.6511Z" fill="white"/>
<path d="M50.2057 35.6504C50.2057 37.9619 48.3317 39.8359 46.0208 39.8359C43.7092 39.8359 41.8359 37.9619 41.8359 35.6504C41.8359 33.3388 43.7092 31.4648 46.0208 31.4648C48.3317 31.4648 50.2057 33.3388 50.2057 35.6504Z" fill="black"/>
<path d="M46.0208 40.0396C43.601 40.0396 41.6328 38.0708 41.6328 35.6503C41.6328 33.2306 43.601 31.2617 46.0208 31.2617C48.4406 31.2617 50.4087 33.2306 50.4087 35.6503C50.4087 38.0708 48.4406 40.0396 46.0208 40.0396ZM46.0208 31.6686C43.8255 31.6686 42.0397 33.455 42.0397 35.6503C42.0397 37.8463 43.8255 39.6328 46.0208 39.6328C48.2161 39.6328 50.0019 37.8463 50.0019 35.6503C50.0019 33.455 48.2161 31.6686 46.0208 31.6686Z" fill="black"/>
<path d="M48.4975 35.6511C48.4975 37.02 47.3885 38.129 46.0196 38.129C44.652 38.129 43.541 37.02 43.541 35.6511C43.541 34.2822 44.652 33.1738 46.0196 33.1738C47.3885 33.1738 48.4975 34.2822 48.4975 35.6511Z" fill="white"/>
</g>
</svg>
