<svg width="60" height="60" viewBox="0 0 60 60" fill="none" xmlns="http://www.w3.org/2000/svg">
<mask id="mask0_37_14465" style="mask-type:alpha" maskUnits="userSpaceOnUse" x="7" y="17" width="45" height="27">
<rect x="7" y="17.8711" width="44.7066" height="25.9998" fill="#D9D9D9"/>
</mask>
<g mask="url(#mask0_37_14465)">
<path d="M17.5787 38.4458C17.3147 38.4458 17.0982 38.2333 17.0957 37.9685C17.0925 37.7021 17.3066 37.4832 17.573 37.4808L40.0885 37.2305H40.0941C40.3581 37.2305 40.5738 37.443 40.5763 37.7078C40.5795 37.9742 40.3662 38.1939 40.099 38.1955L17.5843 38.4458H17.5787Z" fill="black"/>
<path d="M51.009 38.0147H51.0017C50.8214 38.0123 49.8926 37.9874 49.4113 37.7467C48.8342 37.4577 48.6105 36.4669 48.5549 36.1708C48.5493 36.1418 48.5469 36.112 48.5469 36.083C48.5469 35.2773 49.2045 34.9844 49.6463 34.9844H51.009C51.2754 34.9844 51.4919 35.2009 51.4919 35.4673C51.4919 35.7337 51.2754 35.9502 51.009 35.9502H49.6463C49.5409 35.955 49.5184 35.9929 49.5143 36.042C49.5892 36.409 49.7493 36.8114 49.8524 36.8879C50.0528 36.9877 50.6669 37.044 51.0162 37.0497C51.2826 37.0537 51.4951 37.2726 51.4919 37.539C51.4879 37.803 51.2722 38.0147 51.009 38.0147Z" fill="black"/>
<path d="M49.2324 40.6498H13.2498H13.2281L8.75542 40.4421C7.77107 40.3978 7 39.5897 7 38.603V34.5472L7.22536 29.2399C7.40887 27.9626 9.875 26.9766 10.8272 26.6418L16.3599 19.802C17.0915 18.5343 19.7202 17.8711 20.946 17.8711H48.6368C49.9536 17.8711 51.0337 18.9013 51.0965 20.2173L51.7066 33.1862V38.1764C51.7066 39.5398 50.5967 40.6498 49.2324 40.6498ZM13.2611 39.6847H49.2324C50.0647 39.6847 50.7407 39.0078 50.7407 38.1764V33.2087L50.1315 20.2624C50.0936 19.4631 49.4369 18.8369 48.6368 18.8369H20.946C19.7725 18.8369 17.6211 19.4937 17.1865 20.3026C17.172 20.3292 17.1559 20.3541 17.1366 20.3775L11.4912 27.3565C11.4332 27.4273 11.3576 27.4805 11.2706 27.5102C9.86695 27.9891 8.25479 28.8544 8.18558 29.3301L7.96504 34.5682V38.603C7.96504 39.0722 8.33206 39.4561 8.79969 39.4771L13.2611 39.6847Z" fill="black"/>
<path d="M17.5809 39.298C17.5809 41.6885 15.6436 43.625 13.2531 43.625C10.8651 43.625 8.92773 41.6877 8.92773 39.298C8.92773 36.9092 10.8651 34.9719 13.2531 34.9727C15.6436 34.9727 17.5809 36.9092 17.5809 39.298Z" fill="black"/>
<path d="M13.251 43.8723C10.7294 43.8723 8.67773 41.8207 8.67773 39.2982C8.67773 36.7774 10.7294 34.7266 13.251 34.7266C15.7735 34.7266 17.8251 36.7774 17.8251 39.2982C17.8251 41.8207 15.7735 43.8723 13.251 43.8723ZM13.251 35.2199C11.0014 35.2199 9.17193 37.0494 9.17193 39.2982C9.17193 41.5479 11.0014 43.3789 13.251 43.3789C15.5006 43.3789 17.3309 41.5479 17.3309 39.2982C17.3309 37.0494 15.5006 35.2199 13.251 35.2199Z" fill="black"/>
<path d="M15.8144 39.2935C15.8144 40.7085 14.6675 41.8554 13.2533 41.8554C11.8383 41.8554 10.6914 40.7085 10.6914 39.2935C10.6914 37.8778 11.8383 36.7324 13.2533 36.7324C14.6675 36.7324 15.8144 37.8778 15.8144 39.2935Z" fill="white"/>
<path d="M48.4481 39.298C48.4481 41.6885 46.5108 43.625 44.1203 43.625C41.7322 43.625 39.7949 41.6877 39.7949 39.298C39.7949 36.9092 41.7322 34.9719 44.1203 34.9727C46.5108 34.9727 48.4481 36.9092 48.4481 39.298Z" fill="black"/>
<path d="M44.1174 43.8723C41.5957 43.8723 39.5449 41.8207 39.5449 39.2982C39.5449 36.7774 41.5957 34.7266 44.1174 34.7266C46.6399 34.7266 48.6923 36.7774 48.6923 39.2982C48.6923 41.8207 46.6399 43.8723 44.1174 43.8723ZM44.1174 35.2199C41.8686 35.2199 40.0391 37.0494 40.0391 39.2982C40.0391 41.5479 41.8686 43.3789 44.1174 43.3789C46.3678 43.3789 48.1981 41.5479 48.1981 39.2982C48.1981 37.0494 46.3678 35.2199 44.1174 35.2199Z" fill="black"/>
<path d="M46.6738 39.2935C46.6738 40.7085 45.5269 41.8554 44.1127 41.8554C42.6977 41.8554 41.5508 40.7085 41.5508 39.2935C41.5508 37.8778 42.6977 36.7324 44.1127 36.7324C45.5269 36.7324 46.6738 37.8778 46.6738 39.2935Z" fill="white"/>
<path d="M26.8261 40.6483H26.8003C26.5347 40.6338 26.3295 40.4069 26.3424 40.1405L27.3557 20.4123C27.3702 20.1458 27.6108 19.9535 27.8636 19.9551C28.1292 19.9696 28.3344 20.1965 28.3207 20.463L27.3082 40.1912C27.2945 40.4487 27.0804 40.6483 26.8261 40.6483Z" fill="black"/>
<path d="M11.1197 27.5704C10.8549 27.5704 10.6392 27.3571 10.6367 27.0915C10.6343 26.8251 10.8484 26.6078 11.1156 26.6054L44.5862 26.3188C45.6607 25.3884 46.835 24.1883 47.0097 23.7223L47.1715 20.3209C47.1844 20.0545 47.4137 19.8605 47.6769 19.8613C47.9433 19.8734 48.1494 20.1004 48.1365 20.3668L47.9715 23.831C47.9699 23.8648 47.9643 23.8994 47.9554 23.9332C47.693 24.9039 45.5142 26.7977 45.0796 27.168C44.9943 27.2412 44.884 27.2822 44.7713 27.2831L11.1237 27.5704H11.1197Z" fill="black"/>
<path d="M16.7642 20.9757C16.4986 20.9757 16.2821 20.7608 16.2813 20.4952C16.2796 20.2288 16.4954 20.0115 16.7618 20.0107L47.6503 19.8594H47.6527C47.9183 19.8594 48.1349 20.0743 48.1357 20.3399C48.1373 20.6063 47.9216 20.8244 47.6552 20.8252L16.7666 20.9757H16.7642Z" fill="black"/>
<path d="M25.8236 27.2929C25.8139 27.2929 25.8051 27.2929 25.7954 27.2921C25.529 27.2768 25.3254 27.049 25.3407 26.7826L25.6996 20.4684C25.7141 20.2011 25.9387 19.9895 26.2091 20.0136C26.4755 20.0289 26.6783 20.2567 26.6631 20.5231L26.3049 26.8381C26.2904 27.0949 26.0771 27.2929 25.8236 27.2929Z" fill="black"/>
<path d="M40.436 27.163C40.1696 27.163 39.9531 26.9465 39.9531 26.6801V20.4946C39.9531 20.2282 40.1696 20.0117 40.436 20.0117C40.7025 20.0117 40.919 20.2282 40.919 20.4946V26.6801C40.919 26.9465 40.7025 27.163 40.436 27.163Z" fill="black"/>
<path d="M15.8102 27.6034C15.7177 27.6034 15.6243 27.5776 15.5414 27.5213C15.3209 27.3724 15.2613 27.073 15.4102 26.8508L19.8668 20.2251C20.0165 20.0054 20.3175 19.9442 20.5372 20.0939C20.7578 20.2428 20.8173 20.5431 20.6684 20.7644L16.2119 27.3901C16.1185 27.5285 15.9656 27.6034 15.8102 27.6034Z" fill="black"/>
<path d="M14.0718 28.3273L15.8779 28.5937C16.3343 28.6114 16.7182 28.2564 16.7359 27.8009L16.8003 26.365C16.818 25.9094 16.4639 25.5255 16.0075 25.5078L14.1072 25.7131C13.6299 25.7815 13.2677 26.0495 13.25 26.5059L13.279 27.4693C13.2613 27.9248 13.6154 28.2283 14.0718 28.3273Z" fill="white"/>
<path d="M15.9161 29.0794C15.8984 29.0794 15.8807 29.0794 15.863 29.0786L14.0054 28.8082C13.9949 28.8066 13.9828 28.8041 13.9732 28.8017C13.2343 28.6416 12.7739 28.1112 12.8005 27.4528L12.7715 26.5231C12.798 25.8261 13.285 25.3464 14.0432 25.2378L15.9588 25.0293C16.7516 25.0551 17.315 25.6659 17.2868 26.3871L17.2224 27.8254C17.2087 28.1723 17.0606 28.4951 16.8023 28.7325C16.5592 28.9571 16.2461 29.0794 15.9161 29.0794ZM14.1639 27.8552L15.9523 28.1176C15.9926 28.1168 16.0811 28.0846 16.1471 28.0226C16.2147 27.9606 16.2534 27.8753 16.2574 27.7844L16.3218 26.3461C16.3258 26.2575 16.2928 26.1698 16.23 26.1022C16.168 26.0346 16.0835 25.9959 15.9918 25.9927L14.1639 26.1956C13.982 26.2221 13.7446 26.3026 13.7365 26.5272L13.7655 27.4568C13.7558 27.7337 14.0504 27.8286 14.1639 27.8552Z" fill="black"/>
<path d="M24.0844 30.6003C23.0115 30.6003 22.2324 30.1142 22.2324 29.4437C22.2324 28.7733 23.0115 28.2871 24.0844 28.2871C25.1565 28.2871 25.9348 28.7733 25.9348 29.4437C25.9348 30.1142 25.1565 30.6003 24.0844 30.6003ZM23.2514 29.4437C23.3737 29.5226 23.6522 29.6353 24.0844 29.6353C24.5158 29.6353 24.7943 29.5226 24.9159 29.4437C24.7943 29.364 24.5158 29.2522 24.0844 29.2522C23.6522 29.2522 23.3737 29.364 23.2514 29.4437Z" fill="black"/>
<path d="M30.1887 31.6184C29.5174 31.6184 29.0312 30.8401 29.0312 29.768C29.0312 28.6951 29.5174 27.916 30.1887 27.916C30.8591 27.916 31.3453 28.6951 31.3453 29.768C31.3453 30.8401 30.8591 31.6184 30.1887 31.6184ZM30.1887 28.935C30.1082 29.0573 29.9963 29.3358 29.9963 29.768C29.9963 30.1994 30.1082 30.4779 30.1887 30.5995C30.2683 30.4779 30.3794 30.1994 30.3794 29.768C30.3794 29.3358 30.2683 29.0573 30.1887 28.935Z" fill="black"/>
<path d="M50.5769 32.1096H40.3727C40.1063 32.1096 39.8906 31.8931 39.8906 31.6266C39.8906 31.3602 40.1063 31.1445 40.3727 31.1445H50.5769C50.8433 31.1445 51.0598 31.3602 51.0598 31.6266C51.0598 31.8931 50.8433 32.1096 50.5769 32.1096Z" fill="black"/>
<path d="M7.51367 34.3265C7.28428 34.3265 7.08065 34.1623 7.0388 33.9281C6.99212 33.6657 7.16677 33.4146 7.42997 33.3679L8.52862 33.1707C8.96647 33.0846 9.37373 32.7369 9.42685 32.398L9.66268 30.3311C9.68119 30.2072 9.6337 30.1347 9.60312 30.1017C9.57334 30.0679 9.5009 29.9995 9.4019 30.018L7.90967 30.1395C7.65292 30.179 7.41145 29.9633 7.38972 29.6977C7.36719 29.4321 7.56518 29.1986 7.8316 29.1777L9.33751 29.0546C9.71339 29.024 10.0732 29.1801 10.3203 29.4546C10.5682 29.7299 10.6768 30.0961 10.6189 30.4615L10.383 32.5292C10.247 33.3904 9.43812 33.9756 8.70649 34.1204L7.59899 34.3184C7.57082 34.3233 7.54184 34.3265 7.51367 34.3265Z" fill="black"/>
</g>
</svg>
