<svg width="24" height="24" viewBox="0 0 24 24" fill="none" xmlns="http://www.w3.org/2000/svg">
<path d="M20.41 7.9965H15.75C15.9219 7.00622 16.0089 6.00307 16.01 4.998C16.01 2.52924 14.86 1 13.01 1H11.01L10.87 1.8096C10.3128 4.64598 9.38831 7.39775 8.12 9.9955H4C2.89 9.9955 2 12.4943 2 15.5027C2 18.5112 2.89 21 4 21H9C9.23 21 9.46 20.7401 9.67 20.3503C10.7288 20.7759 11.8588 20.9964 13 21H15C17.68 21 19.71 19.5907 20.29 17.3718C20.8853 16.8695 21.3235 16.2067 21.5522 15.4623C21.781 14.718 21.7906 13.9236 21.58 13.1739C22.1662 12.4181 22.4892 11.4915 22.5 10.5352C22.5 8.85607 21.56 7.9965 20.41 7.9965ZM4.59 18.991C4.16033 17.8763 3.95967 16.6866 4 15.4928C3.96077 14.299 4.16139 13.1095 4.59 11.9945H7.59C7.16295 13.1099 6.96238 14.2991 7 15.4928C6.96286 16.6873 7.16692 17.877 7.6 18.991H4.59ZM19.75 12.3143L19.33 12.8241L19.6 13.4438C19.7768 13.9011 19.7887 14.4058 19.6336 14.8709C19.4785 15.3361 19.166 15.7327 18.75 15.9925L18.43 16.2324L18.36 16.6222C18.05 18.3613 16.36 18.981 14.96 18.981H12.96C11.6309 19.0129 10.3268 18.617 9.24 17.8516C9.04699 17.0769 8.95291 16.281 8.96 15.4828C8.91292 13.9087 9.2205 12.3442 9.86 10.905C11.0985 8.3878 12.0382 5.73443 12.66 2.999H13C13.82 2.999 14 4.08846 14 4.998C14.0029 6.26431 13.8518 7.52627 13.55 8.75612C13.37 9.44578 13.46 9.9955 14.55 9.9955H20.46C20.5543 10.4103 20.5383 10.8426 20.4138 11.2494C20.2892 11.6562 20.0604 12.0233 19.75 12.3143Z" fill="#21201F"/>
</svg>
