<svg width="60" height="60" viewBox="0 0 60 60" fill="none" xmlns="http://www.w3.org/2000/svg">
<mask id="mask0_37_14517" style="mask-type:alpha" maskUnits="userSpaceOnUse" x="7" y="19" width="46" height="28">
<rect x="7" y="19.3789" width="45.2221" height="27" fill="#D9D9D9"/>
</mask>
<g mask="url(#mask0_37_14517)">
<path d="M16.1541 41.6362C16.1541 43.1056 14.963 44.2967 13.4944 44.2967C12.025 44.2967 10.834 43.1056 10.834 41.6362C10.834 40.166 12.025 38.9766 13.4944 38.9766C14.963 38.9766 16.1541 40.166 16.1541 41.6362Z" fill="white"/>
<path d="M48.2107 41.6362C48.2107 43.1056 47.0197 44.2967 45.5511 44.2967C44.0817 44.2967 42.8906 43.1056 42.8906 41.6362C42.8906 40.166 44.0817 38.9766 45.5511 38.9766C47.0197 38.9766 48.2107 40.166 48.2107 41.6362Z" fill="white"/>
<path d="M52.2195 35.2631L51.219 23.621L52.1224 20.3811C52.1224 19.363 50.654 19.3789 47.7411 19.3789H21.4834C20.0482 19.3789 18.7343 20.1638 18.0531 21.4284L18.0456 21.4426C18.0414 21.4518 18.0347 21.4601 18.0314 21.4693L14.1882 28.6149L10.1661 29.5285C8.84552 29.8285 7.82664 30.9302 7.63356 32.2708L7 36.6966V40.9084C7 41.9314 7.80073 42.7706 8.82379 42.8191L8.89985 42.8224C9.43228 44.8644 11.2853 46.3789 13.4911 46.3789C15.6216 46.3789 17.4287 44.9697 18.0297 43.0347H30.7043H30.731H41.0093C41.6094 44.9697 43.4165 46.3789 45.5462 46.3789C47.6927 46.3789 49.5081 44.9471 50.0948 42.9896C51.3001 42.7781 52.2212 41.73 52.2212 40.4654L52.2195 35.2631ZM51.1346 34.3303C50.7811 34.2125 50.3657 34.067 50.1199 33.9609C49.9344 33.4335 49.7421 31.2578 49.6652 29.4399C49.6652 29.3697 49.6652 29.3095 49.804 29.3019H50.7025L51.1346 34.3303ZM18.7928 22.1698L20.9819 22.1915L18.5546 27.1204C17.9611 27.311 17.5783 27.7473 17.5541 28.3633L17.5616 28.5998L15.3232 28.6232L18.7928 22.1698ZM21.8837 27.245C21.6372 26.9792 21.302 26.8245 20.8648 26.8128L19.7649 26.9315L22.0944 22.2024L29.5542 22.2751L29.2023 28.4795L22.2289 28.5514L22.244 28.2212C22.2582 27.8593 22.1303 27.5116 21.8837 27.245ZM21.2418 28.1786L21.1749 29.6731C21.1708 29.7683 21.1306 29.8561 21.0604 29.9205C20.9902 29.9848 20.8991 30.0191 20.8582 30.0191L19.0001 29.7458C18.8613 29.7132 18.5772 29.6154 18.5872 29.3329L18.5571 28.3675C18.5655 28.1343 18.812 28.0499 19.0001 28.0231L20.8991 27.8125C20.9944 27.8167 21.0822 27.8568 21.1474 27.927C21.2117 27.9964 21.2451 28.0866 21.2418 28.1786ZM8.59059 32.6654C8.62152 32.6704 8.64827 32.6812 8.68254 32.6812L10.4955 32.5993C10.605 32.5859 10.6743 32.6511 10.7044 32.6862C10.737 32.7205 10.7863 32.7957 10.7688 32.9027L10.5222 34.4674C10.4654 34.8235 9.93378 35.1854 9.4958 35.2715L8.17602 35.5314L8.59059 32.6654ZM13.4911 44.2902C12.0225 44.2902 10.8306 43.0991 10.8306 41.6297C10.8306 40.1595 12.0225 38.9692 13.4911 38.9692C14.9597 38.9692 16.1507 40.1595 16.1507 41.6297C16.1507 43.0991 14.9597 44.2902 13.4911 44.2902ZM30.2538 42.0326H18.2211C18.2328 41.8988 18.242 41.7659 18.242 41.6297C18.242 41.3271 18.2102 41.0329 18.1559 40.7454L30.3265 40.6108L30.2538 42.0326ZM30.3783 39.6078L17.9795 39.7449C17.9377 39.7457 17.9001 39.7599 17.8617 39.77C17.1362 38.0732 15.4511 36.8805 13.4911 36.8805C10.8724 36.8805 8.74188 39.011 8.74188 41.6297C8.74188 41.6832 8.74857 41.735 8.75024 41.7877C8.3248 41.7083 8.00217 41.3522 8.00217 40.9084L7.99799 36.7685L8.0239 36.5846L9.68888 36.2553C10.4721 36.1023 11.3773 35.4788 11.5127 34.6237L11.7601 33.059C11.8194 32.6804 11.7074 32.3001 11.4517 32.0151C11.1934 31.7292 10.8265 31.5854 10.4478 31.5972L8.87812 31.6682C9.18738 31.0923 9.73067 30.6552 10.3876 30.5064L14.2158 29.6363L17.6243 29.6012C17.7196 30.1528 18.1434 30.5858 18.8037 30.7287C18.8129 30.7312 18.8246 30.7337 18.8354 30.7354L20.7645 31.0171C20.7829 31.0179 20.8013 31.0179 20.8197 31.0179C21.1624 31.0179 21.4875 30.8909 21.7408 30.6577C22.0083 30.4111 22.1621 30.0759 22.1771 29.7157L22.1838 29.5544L29.621 29.4783C29.6302 29.4791 29.6378 29.4842 29.647 29.485C29.657 29.4858 29.667 29.4858 29.6762 29.4858C29.6921 29.4858 29.7063 29.4783 29.7214 29.4766L30.8999 29.4649L30.3783 39.6078ZM30.207 28.4695L30.5572 22.2851L31.2685 22.2918L30.9509 28.4619L30.207 28.4695ZM40.8171 42.0326H31.2585L31.332 40.5991L40.9408 40.493C40.8505 40.8574 40.797 41.2368 40.797 41.6297C40.797 41.7659 40.8062 41.8988 40.8171 42.0326ZM41.3144 39.4858L31.3838 39.5961L31.9054 29.4541L43.1064 29.3387V37.5633C42.3433 38.0231 41.7198 38.6892 41.3144 39.4858ZM31.9564 28.4511L32.2723 22.3018L43.1064 22.4071V28.3366L31.9564 28.4511ZM45.5454 44.2902C44.0768 44.2902 42.8858 43.0991 42.8858 41.6297C42.8858 40.1595 44.0768 38.9692 45.5454 38.9692C47.014 38.9692 48.2058 40.1595 48.2058 41.6297C48.2058 43.0991 47.014 44.2902 45.5454 44.2902ZM51.219 40.4654C51.219 41.1039 50.832 41.6539 50.2821 41.8972C50.2871 41.8077 50.2954 41.72 50.2954 41.6297C50.2954 39.011 48.1657 36.8805 45.5462 36.8805C45.0447 36.8805 44.5624 36.9599 44.1086 37.1045V29.1699L46.9019 28.0273C46.9379 28.0114 46.9722 27.993 47.0039 27.9696C47.8841 27.3386 48.3505 26.2804 48.2226 25.2147L47.8874 21.8973C47.8849 21.8739 47.8724 21.8547 47.8665 21.8329C47.8581 21.797 47.8498 21.7619 47.8339 21.7293C47.8222 21.705 47.8063 21.6858 47.7913 21.6641C47.7679 21.6323 47.7453 21.6014 47.7161 21.5755C47.6968 21.5588 47.6751 21.5471 47.6534 21.5329C47.6224 21.5128 47.5924 21.4936 47.5564 21.481C47.5255 21.4693 47.4929 21.466 47.4603 21.4601C47.4369 21.4568 47.4168 21.4468 47.3934 21.4468L19.5016 21.1743C20.0307 20.6753 20.7336 20.3811 21.4834 20.3811H47.7411C49.819 20.3811 50.9983 20.155 51 21L50.2141 23.621L50.6164 28.2998H49.804C49.3459 28.2998 48.6631 28.6032 48.6631 29.4616C48.8728 34.4641 49.3033 34.6789 49.5599 34.8076C49.9394 34.9973 50.8663 35.3007 51.219 35.4136V40.4654ZM44.1086 28.0858V22.4172L46.9345 22.4448L47.2254 25.325C47.309 26.0171 47.0173 26.7008 46.464 27.1221L44.1086 28.0858Z" fill="black"/>
<path d="M27.8881 30.1953C26.7739 30.1953 25.9648 30.7002 25.9648 31.3964C25.9648 32.0935 26.7739 32.5983 27.8881 32.5983C29.0014 32.5983 29.8097 32.0935 29.8097 31.3964C29.8097 30.7002 29.0014 30.1953 27.8881 30.1953ZM27.8881 31.5962C27.4393 31.5962 27.1501 31.4792 27.023 31.3964C27.1501 31.3137 27.4393 31.1975 27.8881 31.1975C28.3361 31.1975 28.6253 31.3137 28.7515 31.3964C28.6253 31.4792 28.3361 31.5962 27.8881 31.5962Z" fill="black"/>
<path d="M34.3588 30.1953C33.2446 30.1953 32.4355 30.7002 32.4355 31.3964C32.4355 32.0935 33.2446 32.5983 34.3588 32.5983C35.4721 32.5983 36.2804 32.0935 36.2804 31.3964C36.2804 30.7002 35.4721 30.1953 34.3588 30.1953ZM34.3588 31.5962C33.91 31.5962 33.6208 31.4792 33.4937 31.3964C33.6208 31.3137 33.91 31.1975 34.3588 31.1975C34.8068 31.1975 35.096 31.3137 35.2222 31.3964C35.096 31.4792 34.8068 31.5962 34.3588 31.5962Z" fill="black"/>
</g>
</svg>
