<svg width="60" height="60" viewBox="0 0 60 60" fill="none" xmlns="http://www.w3.org/2000/svg">
<mask id="mask0_37_13701" style="mask-type:alpha" maskUnits="userSpaceOnUse" x="0" y="12" width="58" height="34">
<rect y="12" width="58" height="33.2407" fill="#D9D9D9"/>
</mask>
<g mask="url(#mask0_37_13701)">
<path d="M56.6804 34.3448H56.3521V13.2087C56.3521 12.541 55.8104 12 55.1434 12H15.6214C15.0442 12 14.4738 12.0905 13.9275 12.2694L13.2198 12.5025C10.2976 13.4592 7.66055 15.1697 5.59394 17.4468L5.31628 17.7531C4.95789 18.1478 4.86961 18.6963 5.08465 19.1837C5.30119 19.6711 5.76673 19.9744 6.29941 19.9744H10.4243C9.73017 20.2091 9.11374 20.5011 8.64141 20.8685C8.33961 21.1303 8.05742 21.3982 7.78504 21.6691C7.77976 21.6743 7.77448 21.6781 7.7692 21.6841C4.89451 24.5437 3.63599 27.7821 3.30853 28.7509C2.33597 29.0399 1.21703 30.5866 0.955211 31.1857C0.639071 31.904 0.64058 34.0808 0.650388 34.8157L0.0935593 35.5377C0.0331985 35.6162 0 35.7135 0 35.8139V38.4765C0 40.2738 1.43432 40.7755 1.49619 40.7967C1.52487 40.8057 1.55429 40.8125 1.58372 40.8163L7.35195 41.53C7.90652 43.6608 9.84184 45.2407 12.1431 45.2407C14.4142 45.2407 16.3291 43.703 16.9131 41.6145H24.5367C24.7827 41.6145 24.9834 41.4184 24.9886 41.1716L25.0083 40.2353H26.0201V41.1626C26.0201 41.4123 26.223 41.6145 26.4728 41.6145H40.0902C40.6742 43.703 42.5891 45.2407 44.8602 45.2407C47.1569 45.2407 49.0885 43.6668 49.6483 41.5429H52.3532C52.4385 41.5429 52.5215 41.5195 52.5939 41.4735L57.7887 38.2079C57.9208 38.1249 58 37.9801 58 37.8246V35.6645C58 34.9364 57.4085 34.3448 56.6804 34.3448ZM18.5338 19.9812V20.9334C16.8339 20.9455 14.4368 20.9991 11.7696 21.1681L11.7568 21.1666L11.6889 21.1726C11.6074 21.1779 11.5274 21.1824 11.4452 21.1877C11.4157 21.1915 11.3863 21.1997 11.3569 21.2043L9.49778 21.3816C11.6376 20.025 16.4083 19.9435 18.5338 19.9812ZM8.59765 27.8244C8.3547 27.3362 7.86728 27.0887 7.14823 27.0887C7.06222 27.0887 6.98903 27.0985 6.90905 27.1023C7.48927 26.1539 8.13212 25.1888 8.78326 24.3566L15.8327 24.3551C15.8372 24.3951 15.8364 24.4743 15.804 24.6139L15.1875 28.3072C12.9285 28.6898 10.5443 29.0685 8.79156 29.3153C8.79156 29.2783 8.79231 29.2413 8.79231 29.2036C8.79307 28.6973 8.79382 28.2205 8.59765 27.8244ZM7.88766 29.276C7.88766 30.4651 7.8024 30.5376 7.1339 30.5579C6.70458 30.567 6.41032 30.4976 6.24433 30.3369C6.06325 30.1618 5.98629 29.8442 5.98629 29.276C5.98629 28.1533 6.23377 27.9934 7.14823 27.9934C7.67036 27.9934 7.7526 28.1571 7.78655 28.2265C7.88841 28.4317 7.88766 28.8067 7.88766 29.276ZM1.78366 31.5501C1.88477 31.3208 2.06736 31.0461 2.27636 30.776C2.44914 30.8137 2.61815 30.8454 2.79094 30.8613C2.66795 31.2891 2.55326 31.7486 2.48687 32.0262H1.95267C1.85232 32.0262 1.75876 32.0481 1.66822 32.0798C1.69916 31.8436 1.73764 31.6558 1.78366 31.5501ZM0.904658 36.7638H1.90589V37.1878H0.904658V36.7638ZM0.904658 38.4765V38.0925H1.90589V38.5143H0.907676C0.907676 38.5007 0.904658 38.4901 0.904658 38.4765ZM4.10152 40.2164L1.75046 39.9244C1.64408 39.8792 1.37246 39.7343 1.16496 39.4189H2.3586C2.60834 39.4189 2.81131 39.2167 2.81131 38.967V36.3111C2.81131 36.0613 2.60834 35.8591 2.3586 35.8591H0.989164L1.37925 35.3536H4.13774L4.10152 40.2164ZM4.14528 34.4482H1.55429C1.55354 34.0989 1.56033 33.7239 1.57466 33.3587C1.69916 33.152 1.87647 32.9505 1.95267 32.9309H4.1566L4.14528 34.4482ZM4.16339 32.0262H3.41944C3.50168 31.6942 3.61863 31.2415 3.73181 30.8718C3.89328 30.8598 4.04116 30.8432 4.17244 30.825L4.16339 32.0262ZM4.32108 29.8834C4.11887 29.9211 3.78161 29.9732 3.39379 29.983C3.38247 29.9838 3.37191 29.9823 3.36059 29.983C3.24591 29.9853 3.12745 29.9845 3.00748 29.9777C3.20516 29.7997 3.38021 29.6782 3.50772 29.6359L4.4403 29.6473C4.39427 29.7378 4.35504 29.8155 4.32108 29.8834ZM4.27657 28.7403C4.70287 27.5995 5.91084 24.844 8.33206 22.4024L9.45176 22.2961C7.98197 23.6346 6.51822 25.9154 5.50793 27.678C5.40984 27.7979 5.33137 27.9398 5.26875 28.1005C5.25592 28.1224 5.2446 28.1435 5.23253 28.1654L5.22725 28.1744C5.11483 28.3767 5.0092 28.5691 4.91262 28.7486L4.27657 28.7403ZM12.1439 43.0813C10.5986 43.0813 9.34462 41.8296 9.34462 40.2836C9.34462 38.7376 10.5986 37.4851 12.1439 37.4851C13.6898 37.4851 14.9423 38.7376 14.9423 40.2836C14.9423 41.8296 13.6898 43.0813 12.1439 43.0813ZM39.9031 40.2828C39.9031 40.4269 39.9129 40.5688 39.9249 40.7099H26.9255V39.7834C26.9255 39.5336 26.7225 39.3306 26.4728 39.3306H24.5646C24.3186 39.3306 24.1172 39.5276 24.1119 39.7743L24.093 40.7099L17.0784 40.7114C17.0904 40.5696 17.1002 40.4277 17.1002 40.2828C17.1002 37.55 14.8759 35.3265 12.1431 35.3265C9.41026 35.3265 7.18671 37.55 7.18671 40.2828C7.18671 40.3907 7.19577 40.4964 7.20331 40.602L5.00542 40.3289L5.08088 30.3897C5.10955 30.3308 5.14576 30.2607 5.17745 30.198C5.2529 30.4885 5.38419 30.7632 5.61507 30.9873C5.94554 31.3079 6.41259 31.4649 7.03883 31.4649C7.07957 31.4649 7.12107 31.4641 7.16182 31.4626C8.25359 31.4302 8.60897 30.9065 8.72818 30.2441C10.1731 30.0487 12.3468 29.7099 15.6569 29.1463C15.847 29.1138 15.9956 28.9644 16.0273 28.7743L16.6913 24.7927C16.7879 24.3838 16.7449 24.048 16.563 23.7968C16.3495 23.5003 16.0379 23.4588 15.9383 23.452H9.54984C10.2364 22.7095 10.9012 22.1942 11.4731 22.1037L11.8036 22.072C14.4542 21.903 16.8422 21.8494 18.5338 21.8373V37.1071C18.5338 37.7741 19.0755 38.3151 19.7425 38.3151H29.5776C29.8635 39.1835 30.6731 39.8158 31.6366 39.8158H36.8654C37.8289 39.8158 38.6385 39.1835 38.9245 38.3151H40.3128C40.0502 38.9194 39.9031 39.5842 39.9031 40.2828ZM19.4385 37.1071V31.8587H29.4591V37.4104H19.7425C19.5773 37.4104 19.4385 37.2716 19.4385 37.1071ZM30.3638 37.639V19.6817C30.3638 18.9792 30.9349 18.4096 31.6366 18.4096H36.8654C37.5671 18.4096 38.1383 18.9792 38.1383 19.6817V37.639C38.1383 38.3407 37.5671 38.9111 36.8654 38.9111H31.6366C30.9349 38.9111 30.3638 38.3407 30.3638 37.639ZM44.8602 43.0813C43.3157 43.0813 42.061 41.8296 42.061 40.2836C42.061 38.7376 43.3157 37.4851 44.8602 37.4851C46.4062 37.4851 47.6587 38.7376 47.6587 40.2836C47.6587 41.8296 46.4062 43.0813 44.8602 43.0813ZM44.8602 35.3265C43.198 35.3265 41.7282 36.1519 40.8281 37.4104H39.0429V31.8587H53.8027C54.0524 31.8587 54.2546 31.6558 54.2546 31.406C54.2546 31.1563 54.0524 30.9541 53.8027 30.9541H39.0429V19.6817C39.0429 18.4812 38.0666 17.5042 36.8654 17.5042H31.6366C30.4355 17.5042 29.4591 18.4812 29.4591 19.6817V30.9541H19.4385V19.521C19.4385 19.2712 19.2355 19.069 18.9858 19.069H18.2848C17.9694 19.0645 17.6133 19.0637 17.2217 19.069H6.29941C6.04439 19.069 5.93951 18.8759 5.9131 18.817C5.88745 18.7589 5.81501 18.5507 5.98704 18.362L6.2647 18.0557C8.22568 15.894 10.7284 14.2703 13.5012 13.3626L14.2089 13.131C14.6647 12.9801 15.14 12.9054 15.6214 12.9054H55.1434C55.3109 12.9054 55.4467 13.0412 55.4467 13.2087V37.1071C55.4467 37.2716 55.3079 37.4104 55.1434 37.4104H48.8915C47.9922 36.1519 46.5216 35.3265 44.8602 35.3265ZM57.0953 37.5749L52.2227 40.6382H49.7985C49.8068 40.5205 49.8166 40.4028 49.8166 40.2828C49.8166 39.5842 49.6694 38.9194 49.4069 38.3151H55.1434C55.8104 38.3151 56.3521 37.7741 56.3521 37.1071V35.2495H56.6804C56.909 35.2495 57.0953 35.4359 57.0953 35.6645V37.5749Z" fill="black"/>
<path d="M13.4341 32.1799C13.7367 32.3059 14.1215 32.3738 14.5251 32.3738C14.5508 32.3738 14.5779 32.3738 14.6043 32.373C15.6886 32.3496 16.4363 31.8932 16.422 31.2647C16.4174 31.0594 16.3224 30.6792 15.7271 30.4309C15.4049 30.2951 14.9839 30.2189 14.5568 30.237C13.8725 30.2513 13.2817 30.452 12.9761 30.7727C12.7732 30.9847 12.7354 31.202 12.7384 31.3461C12.743 31.5514 12.8388 31.9324 13.4341 32.1799ZM14.5772 31.1417C14.9703 31.1462 15.2706 31.2126 15.4268 31.2858C15.2744 31.3673 14.9801 31.4593 14.584 31.4684C14.1984 31.4744 13.8898 31.399 13.7344 31.3235C13.8868 31.2428 14.1811 31.1507 14.5772 31.1417Z" fill="black"/>
<path d="M52.4772 17.5039H45.4143C44.4809 17.5039 43.7227 18.2614 43.7227 19.1948V22.6376C43.7227 23.5709 44.4809 24.3292 45.4143 24.3292H52.4772C53.4098 24.3292 54.1681 23.5709 54.1681 22.6376V19.1948C54.1681 18.2614 53.4098 17.5039 52.4772 17.5039ZM53.2635 22.6376C53.2635 23.0714 52.9103 23.4238 52.4772 23.4238H45.4143C44.9804 23.4238 44.6281 23.0714 44.6281 22.6376V20.5023H53.2635V22.6376ZM53.2635 19.5977H44.6281V19.1948C44.6281 18.7617 44.9804 18.4086 45.4143 18.4086H52.4772C52.9103 18.4086 53.2635 18.7617 53.2635 19.1948V19.5977Z" fill="black"/>
<path d="M32.8194 26.5407H35.6821C36.4788 26.5407 37.1277 25.8918 37.1277 25.0951V20.9339C37.1277 20.1364 36.4788 19.4883 35.6821 19.4883H32.8194C32.0212 19.4883 31.373 20.1364 31.373 20.9339V25.0951C31.373 25.8918 32.0212 26.5407 32.8194 26.5407ZM32.2777 20.9339C32.2777 20.6351 32.5207 20.3929 32.8194 20.3929H35.6821C35.9801 20.3929 36.223 20.6351 36.223 20.9339V25.0951C36.223 25.3931 35.9801 25.6353 35.6821 25.6353H32.8194C32.5207 25.6353 32.2777 25.3931 32.2777 25.0951V20.9339Z" fill="black"/>
<path d="M54.1603 15.7073C54.1603 15.4576 53.9581 15.2554 53.7083 15.2554H22.6323V14.9868C22.6323 14.4956 22.2331 14.0957 21.7427 14.0957H20.0458C19.5554 14.0957 19.1562 14.4956 19.1562 14.9868V17.1107C19.1562 17.6012 19.5554 18.0003 20.0458 18.0003H21.7427C22.2331 18.0003 22.6323 17.6012 22.6323 17.1107V16.16H53.7083C53.9581 16.16 54.1603 15.9571 54.1603 15.7073ZM21.7276 17.0956L20.0609 17.1107L20.0458 15.0011L21.7276 14.9868V17.0956Z" fill="black"/>
<path d="M27.0083 17.9883H25.0141C24.5229 17.9883 24.123 18.3882 24.123 18.8786V22.5765C24.123 23.0676 24.5229 23.4668 25.0141 23.4668H27.0083C27.4995 23.4668 27.8986 23.0676 27.8986 22.5765V18.8786C27.8986 18.3882 27.4995 17.9883 27.0083 17.9883ZM26.994 22.5621L25.0285 22.5765L25.0141 18.8937L26.994 18.8786V22.5621Z" fill="black"/>
<path d="M36.424 29.1738H35.6446C35.2568 29.1738 34.9414 29.4892 34.9414 29.877V30.867C34.9414 31.2548 35.2568 31.5709 35.6446 31.5709H36.424C36.8126 31.5709 37.128 31.2548 37.128 30.867V29.877C37.128 29.4892 36.8126 29.1738 36.424 29.1738ZM36.2233 30.6663H35.8461V30.0785H36.2233V30.6663Z" fill="black"/>
<path d="M18.0452 14.0957H16.8705C14.7707 14.0957 12.1057 15.309 11.0298 16.397L10.8864 16.5411C10.6405 16.7893 10.5703 17.1402 10.7023 17.4563C10.8404 17.7875 11.1686 18.0003 11.5398 18.0003H18.0543C18.1743 18.0003 18.2904 17.9528 18.375 17.8675C18.4595 17.7822 18.5077 17.6668 18.507 17.5468L18.4979 14.5469C18.4972 14.2979 18.295 14.0957 18.0452 14.0957ZM11.6138 17.0934L11.6726 17.0345C12.6029 16.0944 15.0762 15.0011 16.8705 15.0011H17.594L17.6008 17.0949L11.6138 17.0934Z" fill="black"/>
<path d="M12.1935 33.5703C9.79412 33.5703 7.57057 34.8734 6.38976 36.9694C6.21246 37.2833 6.05929 37.6152 5.93555 37.9563C5.85029 38.1917 5.97101 38.4512 6.20566 38.5365C6.43881 38.624 6.70138 38.5018 6.78588 38.2664C6.89378 37.9714 7.02506 37.6847 7.17823 37.4145C8.19908 35.6015 10.1208 34.475 12.1935 34.475C14.6026 34.475 16.7764 35.9991 17.6018 38.2664C17.6682 38.4505 17.8417 38.5644 18.0266 38.5644C18.0786 38.5644 18.1307 38.5554 18.182 38.5365C18.4167 38.4512 18.5374 38.1917 18.4521 37.9563C17.4969 35.3328 14.9821 33.5703 12.1935 33.5703Z" fill="black"/>
</g>
</svg>
