<svg width="60" height="60" viewBox="0 0 60 60" fill="none" xmlns="http://www.w3.org/2000/svg">
<mask id="mask0_37_14014" style="mask-type:alpha" maskUnits="userSpaceOnUse" x="4" y="19" width="52" height="24">
<rect x="4" y="19.0488" width="51.0977" height="23.1466" fill="#D9D9D9"/>
</mask>
<g mask="url(#mask0_37_14014)">
<path d="M5.59951 38.8936C5.2018 38.8936 4.7427 38.8509 4.48246 38.2997C4.43308 38.1949 4.43174 38.0748 4.47779 37.9694L4.65195 37.569C4.47578 36.9971 4 35.4096 4 34.9599C4 34.2832 5.32926 30.3669 8.88262 28.7453C9.31302 28.5485 9.93027 28.2722 10.5629 27.9886C11.6252 27.5135 12.7236 27.0204 13.0499 26.8575C13.569 26.5993 19.1764 23.5578 21.5359 22.2285C23.6479 21.038 25.8633 20.0658 26.6074 19.9043C28.7868 19.4312 34.9019 19.0488 40.2643 19.0488H40.331C43.2478 19.0502 51.6951 19.1769 52.2376 19.7208C52.66 20.1385 53.5622 23.6332 53.6002 23.782C53.9813 25.2594 54.4544 28.1661 54.5398 28.698C54.6859 28.9395 55.0883 29.6675 55.0883 30.3395C55.1917 37.6204 54.4037 37.8152 54.1074 37.888C53.1972 38.1142 50.3899 38.2617 50.2711 38.2683H50.2571L20.7859 38.7915C20.1906 38.7962 6.29283 38.8916 5.83774 38.8916L5.71095 38.8929C5.67425 38.8929 5.63688 38.8936 5.59951 38.8936ZM5.3079 38.0668C5.3713 38.0882 5.4774 38.0922 5.70228 38.0922L5.83774 38.0915C6.29017 38.0915 20.6317 37.9921 20.7765 37.9914L50.2357 37.4682C50.3859 37.4602 52.9416 37.3221 53.8391 37.1293C54.1681 36.5661 54.3283 33.2189 54.2876 30.3455C54.2876 29.8837 53.9512 29.2598 53.8211 29.0576C53.7911 29.0109 53.7704 28.9582 53.7617 28.9035C53.7564 28.8701 53.2272 25.5403 52.8248 23.9822C52.3871 22.2792 51.8819 20.7077 51.6898 20.328C50.9698 20.1519 46.7311 19.8529 40.331 19.8489C34.98 19.8716 28.9196 20.2219 26.7769 20.6864C26.1042 20.8332 23.9482 21.7881 21.9296 22.9258C19.5627 24.2598 13.9294 27.3153 13.4069 27.5736C13.0672 27.7444 11.9609 28.2402 10.8905 28.7193C10.2599 29.0022 9.64467 29.2778 9.21493 29.474C5.87978 30.9955 4.81611 34.6015 4.80009 34.9625C4.80009 35.2094 5.13574 36.4339 5.46071 37.4729C5.48874 37.565 5.4834 37.6638 5.4447 37.7519L5.3079 38.0668Z" fill="black"/>
<path d="M17.4087 37.8115C17.4087 40.1203 15.537 41.9921 13.2288 41.9921C10.9199 41.9921 9.04883 40.1203 9.04883 37.8115C9.04883 35.5026 10.9199 33.6309 13.2288 33.6309C15.537 33.6309 17.4087 35.5026 17.4087 37.8115Z" fill="black"/>
<path d="M13.2292 42.1947C10.8122 42.1947 8.8457 40.2282 8.8457 37.8112C8.8457 35.3943 10.8122 33.4277 13.2292 33.4277C15.6461 33.4277 17.612 35.3943 17.612 37.8112C17.612 40.2282 15.6461 42.1947 13.2292 42.1947ZM13.2292 33.8341C11.0364 33.8341 9.25209 35.6185 9.25209 37.8112C9.25209 40.004 11.0364 41.7883 13.2292 41.7883C15.4219 41.7883 17.2056 40.004 17.2056 37.8112C17.2056 35.6185 15.4219 33.8341 13.2292 33.8341Z" fill="black"/>
<path d="M15.7046 37.8122C15.7046 39.1795 14.5969 40.2872 13.2296 40.2872C11.8636 40.2872 10.7539 39.1795 10.7539 37.8122C10.7539 36.4449 11.8636 35.3379 13.2296 35.3379C14.5969 35.3379 15.7046 36.4449 15.7046 37.8122Z" fill="white"/>
<path d="M51.9556 37.8115C51.9556 40.1203 50.0838 41.9921 47.7757 41.9921C45.4668 41.9921 43.5957 40.1203 43.5957 37.8115C43.5957 35.5026 45.4668 33.6309 47.7757 33.6309C50.0838 33.6309 51.9556 35.5026 51.9556 37.8115Z" fill="black"/>
<path d="M47.7754 42.1947C45.3584 42.1947 43.3926 40.2282 43.3926 37.8112C43.3926 35.3943 45.3584 33.4277 47.7754 33.4277C50.1923 33.4277 52.1582 35.3943 52.1582 37.8112C52.1582 40.2282 50.1923 42.1947 47.7754 42.1947ZM47.7754 33.8341C45.5826 33.8341 43.799 35.6185 43.799 37.8112C43.799 40.004 45.5826 41.7883 47.7754 41.7883C49.9681 41.7883 51.7518 40.004 51.7518 37.8112C51.7518 35.6185 49.9681 33.8341 47.7754 33.8341Z" fill="black"/>
<path d="M50.2495 37.8122C50.2495 39.1795 49.1418 40.2872 47.7745 40.2872C46.4085 40.2872 45.2988 39.1795 45.2988 37.8122C45.2988 36.4449 46.4085 35.3379 47.7745 35.3379C49.1418 35.3379 50.2495 36.4449 50.2495 37.8122Z" fill="white"/>
<path d="M5.77453 32.8825C5.42954 32.8825 5.27739 32.709 5.21667 32.6036C5.09656 32.3934 5.15328 32.1552 5.2467 32.003C5.26939 31.9657 5.81056 31.0895 6.24097 30.6691C7.92723 29.0195 12.1379 29.4179 12.316 29.4353C12.4782 29.4506 12.6143 29.564 12.6604 29.7209C12.7064 29.877 12.653 30.0458 12.5249 30.1466C12.0718 30.5063 9.791 32.3113 9.4033 32.5182C8.95087 32.7591 5.83258 32.8812 5.80189 32.8819C5.79255 32.8799 5.78387 32.8825 5.77453 32.8825ZM5.75585 32.0811L5.78988 32.4815L5.77453 32.0858C5.76786 32.0831 5.76118 32.0818 5.75585 32.0811ZM11.0095 30.1826C9.70892 30.1826 7.71904 30.3428 6.80083 31.2416C6.60532 31.4325 6.35241 31.7815 6.16156 32.0637C7.19587 32.011 8.79405 31.8963 9.04429 31.8035C9.20577 31.7168 10.1593 30.9881 11.1856 30.184C11.1283 30.1833 11.0695 30.1826 11.0095 30.1826Z" fill="black"/>
<path d="M45.172 25.9116C44.9545 25.9116 44.7763 25.7381 44.7716 25.5199L44.6876 21.3986C44.6836 21.1771 44.8584 20.9949 45.0793 20.9902H45.0879C45.3055 20.9902 45.4837 21.1637 45.4883 21.3819L45.5724 25.5032C45.5764 25.7247 45.4016 25.9069 45.1807 25.9116H45.172Z" fill="black"/>
<path d="M43.8949 26.1184C43.6774 26.1184 43.4992 25.9449 43.4945 25.7267L43.4024 21.2051C43.3978 20.9835 43.5733 20.8007 43.7941 20.796C44.0444 20.7787 44.1978 20.9669 44.2025 21.1877L44.2953 25.71C44.2993 25.9316 44.1244 26.1137 43.9036 26.1184H43.8949Z" fill="black"/>
<path d="M29.9553 27.0502H29.9413C29.7204 27.0422 29.5476 26.8574 29.5549 26.6365L29.7171 21.9294C29.7237 21.7085 29.9146 21.5403 30.1308 21.543C30.3517 21.551 30.5252 21.7358 30.5172 21.9567L30.3557 26.6638C30.3483 26.88 30.1702 27.0502 29.9553 27.0502Z" fill="black"/>
<path d="M16.4223 27.9623C16.401 27.9623 16.3803 27.9609 16.3589 27.9576L13.3688 27.5085C13.1499 27.4751 12.9991 27.2709 13.0318 27.0527C13.0652 26.8339 13.2734 26.6904 13.4876 26.7157L16.3456 27.1455L26.2303 21.5936L26.2363 21.6036C26.6166 21.4327 28.1554 21.1992 35.6625 20.8128C42.5163 20.4592 48.4526 20.5286 49.1847 20.8255C49.882 21.1104 51.1886 22.4577 51.3354 22.6105C51.4475 22.728 51.4782 22.9015 51.4128 23.0503C51.1418 23.6609 50.4805 25.1142 50.1763 25.4178C50.0388 25.5553 49.7832 25.8096 34.0243 26.7825L16.4577 27.9609C16.4457 27.9616 16.4344 27.9623 16.4223 27.9623ZM26.6033 22.3029L18.162 27.0434L33.9729 25.9837C39.7858 25.6247 48.5827 25.0215 49.6564 24.7926C49.8293 24.541 50.2263 23.7323 50.5693 22.9735C50.0388 22.4417 49.2434 21.7143 48.8824 21.5669C48.3505 21.3714 42.9408 21.2392 35.7046 21.6129C27.9973 22.0093 26.7715 22.2569 26.6033 22.3029Z" fill="black"/>
<path d="M18.6348 36.8873C18.4159 36.8873 18.2371 36.7118 18.2344 36.4922C18.2317 36.2713 18.4086 36.0898 18.6294 36.0872L44.5146 35.7522C44.7441 35.7268 44.9176 35.9257 44.9203 36.1472C44.9236 36.3681 44.7461 36.5496 44.5253 36.5523L18.6401 36.8873H18.6348Z" fill="black"/>
<path d="M26.6121 22.2928H26.5974L23.2369 22.166C23.016 22.1573 22.8438 21.9718 22.8518 21.7509C22.8605 21.5301 23.018 21.3686 23.2669 21.3652L26.6267 21.4927C26.8483 21.5007 27.0204 21.6869 27.0124 21.9077C27.0038 22.1233 26.8263 22.2928 26.6121 22.2928Z" fill="black"/>
<path d="M54.3755 30.7628C54.3047 30.7628 54.2327 30.7448 54.1673 30.7047C54.1306 30.682 50.4157 28.3832 50.7254 27.2795C50.7521 27.1841 50.8768 26.8711 51.3446 26.8711C52.2428 26.8711 53.7289 26.9291 53.7916 26.9318C54.0125 26.9405 54.1846 27.1267 54.176 27.3475C54.1673 27.5684 53.9844 27.7379 53.7602 27.7319C53.7469 27.7312 52.5491 27.6845 51.6636 27.6739C52.0466 28.1603 53.0856 29.1085 54.5843 30.0207C54.7732 30.1362 54.8332 30.3824 54.7185 30.5713C54.6424 30.6947 54.5109 30.7628 54.3755 30.7628Z" fill="black"/>
<path d="M31.086 36.6431H31.0754C30.8545 36.6377 30.6803 36.4536 30.6857 36.2327L31.0513 21.9659C31.0567 21.7483 31.2355 21.5762 31.4517 21.5762H31.4617C31.6833 21.5815 31.8574 21.7657 31.8514 21.9866L31.4864 36.2534C31.4811 36.4709 31.3022 36.6431 31.086 36.6431Z" fill="black"/>
<path d="M27.8326 29.7565C27.2881 29.7565 26.8223 29.6298 26.5481 29.3989C26.3405 29.2247 26.2838 29.0292 26.2725 28.8964C26.2598 28.7669 26.2825 28.5647 26.456 28.3559C26.7302 28.0276 27.2981 27.7954 27.9761 27.7353C29.0237 27.6439 29.8045 27.9889 29.8579 28.5774C29.9106 29.1687 29.2106 29.6478 28.1549 29.7425C28.0448 29.7519 27.9374 29.7565 27.8326 29.7565ZM27.1193 28.823C27.2554 28.8937 27.5777 28.9885 28.0842 28.9444C28.5867 28.8997 28.8889 28.7489 29.0097 28.6548C28.8729 28.5834 28.5466 28.4893 28.0461 28.5327C27.543 28.5774 27.24 28.7282 27.1193 28.823Z" fill="black"/>
<path d="M34.2232 29.3306C33.6787 29.3306 33.2129 29.2038 32.9387 28.9729C32.7312 28.7988 32.6744 28.6032 32.6631 28.4704C32.6504 28.341 32.6731 28.1388 32.8466 27.9299C33.1209 27.6016 33.6887 27.3694 34.3667 27.3093C35.415 27.2186 36.1951 27.5629 36.2485 28.1515C36.3012 28.7427 35.6012 29.2218 34.5455 29.3166C34.4354 29.3259 34.328 29.3306 34.2232 29.3306ZM33.5099 28.397C33.646 28.4684 33.9697 28.5632 34.4748 28.5185C34.9773 28.4738 35.2796 28.323 35.4003 28.2289C35.2642 28.1568 34.9379 28.0641 34.4368 28.1068C33.9336 28.1515 33.6307 28.3023 33.5099 28.397Z" fill="black"/>
<path d="M19.0948 38.805C18.914 38.805 18.7498 38.6816 18.7058 38.4981L16.078 27.6311C16.0252 27.4169 16.158 27.2001 16.3729 27.148C16.5898 27.096 16.804 27.2288 16.856 27.4436L19.4838 38.3106C19.5359 38.5248 19.4038 38.741 19.1889 38.793C19.1575 38.801 19.1255 38.805 19.0948 38.805Z" fill="black"/>
<path d="M19.7933 26.2374C19.7933 26.2374 20.3979 25.9277 20.9785 25.9277C21.5603 25.9277 21.7158 26.3148 21.7158 26.4082V27.6807C21.7158 27.6807 21.6978 27.8669 21.2507 27.9583C20.8003 28.0517 19.1514 28.1759 19.1127 27.7882C19.074 27.4011 19.0933 26.8486 19.2555 26.6237C19.4197 26.4008 19.7933 26.2374 19.7933 26.2374Z" fill="white"/>
<path d="M20.0853 28.4547C19.6409 28.4547 19.1911 28.4033 18.9509 28.2278C18.8148 28.1278 18.7307 27.9863 18.7153 27.8301C18.6913 27.5953 18.6373 26.7978 18.9322 26.3901C19.1417 26.1052 19.5248 25.9203 19.6235 25.8763C19.7196 25.8289 20.3495 25.5293 20.9788 25.5293C21.7829 25.5293 22.1166 26.1025 22.1166 26.4095V27.682C22.1045 27.8328 22.0165 28.2112 21.3325 28.352C21.3225 28.354 20.7086 28.4547 20.0853 28.4547ZM19.5014 27.6086C19.8297 27.6907 20.7619 27.6526 21.1703 27.5672C21.2384 27.5539 21.2858 27.5385 21.3178 27.5259L21.3165 26.4195C21.3098 26.4622 21.2371 26.3301 20.9788 26.3294C20.505 26.3294 19.9812 26.5923 19.9759 26.595C19.9705 26.5983 19.9618 26.6023 19.9558 26.605C19.8431 26.655 19.6462 26.7711 19.5795 26.8626C19.5301 26.9353 19.4807 27.2429 19.5014 27.6086Z" fill="black"/>
<path d="M7.49341 36.1381C7.50476 36.6619 7.23984 37.0917 6.90352 37.1003C6.56187 37.1083 6.27426 36.6906 6.26225 36.1675C6.24824 35.6436 6.51382 35.2132 6.85281 35.2052C7.19713 35.1965 7.48207 35.6149 7.49341 36.1381Z" fill="white"/>
<path d="M6.89242 37.5006C6.67155 37.5006 6.45601 37.4092 6.28118 37.2423C6.02227 36.9948 5.86946 36.6057 5.86011 36.176C5.8481 35.7462 5.9829 35.3492 6.22913 35.0903C6.39862 34.9115 6.6155 34.81 6.84037 34.8047C7.06459 34.8134 7.2908 34.8894 7.46897 35.0609C7.72788 35.3072 7.88136 35.6969 7.89137 36.1286C7.90738 36.8833 7.47698 37.4859 6.91044 37.4999L6.89242 37.5006ZM6.91645 35.6401L6.80968 35.6415C6.73628 35.7182 6.65286 35.8997 6.6602 36.156C6.66621 36.4135 6.7583 36.5904 6.83504 36.6638C6.8624 36.6898 6.88375 36.6998 6.89176 36.6998C6.9338 36.6945 7.09862 36.5123 7.09128 36.1466C7.08527 35.8897 6.99319 35.7129 6.91645 35.6401Z" fill="black"/>
</g>
</svg>
