<svg fill="none" height="19" viewBox="0 0 18 19" width="18" xmlns="http://www.w3.org/2000/svg"><path clip-rule="evenodd" d="m5.82843.507324h6.34317c.5304 0 1.0391.210714 1.4142.585786l3.8284 3.82843c.3751.37507.5858.88378.5858 1.41421v6.34315c0 .5304-.2107 1.0391-.5858 1.4142l-3.8284 3.8284c-.3751.3751-.8838.5858-1.4142.5858h-6.34317c-.53044 0-1.03914-.2107-1.41422-.5858l-3.828424-3.8284c-.375073-.3751-.585786-.8838-.585786-1.4142v-6.34315c0-.53043.210714-1.03914.585786-1.41421l3.828424-3.82843c.37508-.375073.88378-.585786 1.41422-.585786zm2.17157 4.999996c0-.55228.44772-1 1-1s1 .44772 1 1v4c0 .55228-.44772.99998-1 .99998s-1-.4477-1-.99998zm1.00501 9.29998c-.7204 0-1.30073-.58-1.30073-1.3s.58033-1.3 1.30073-1.3 1.30069.58 1.30069 1.3-.58029 1.3-1.30069 1.3z" fill="#fa3e2c" fill-rule="evenodd"/></svg>