<svg fill="none" height="40" viewBox="0 0 40 40" width="40" xmlns="http://www.w3.org/2000/svg" xmlns:xlink="http://www.w3.org/1999/xlink"><linearGradient id="a" gradientUnits="userSpaceOnUse" x1="20" x2="20" y1="0" y2="40"><stop offset="0" stop-color="#faf055"/><stop offset="1" stop-color="#fce000"/></linearGradient><rect fill="url(#a)" height="40" rx="12" width="40"/><path d="m13.0556 6.11121c-.3684 0-.7217.14632-.9821.40679-.2605.26047-.4068.61374-.4068.9821v1.39027c-1.3348.01945-1.86114.17917-2.39031.4625-.55919.29603-1.01648.75333-1.3125 1.31253-.30278.5653-.46389 1.1264-.46389 2.675v14.7083c0 1.5472.16111 2.1097.46389 2.675s.74722 1.0097 1.3125 1.3125 1.12641.4639 2.67501.4639h16.0972c1.5472 0 2.1097-.1611 2.675-.4639s1.0097-.7472 1.3125-1.3125.4639-1.1264.4639-2.675v-14.7083c0-1.5486-.1611-2.1097-.4639-2.675-.296-.5592-.7533-1.0165-1.3125-1.31253-.5292-.28333-1.0555-.44305-2.3903-.46389v-1.38888c0-.36836-.1463-.72163-.4068-.9821-.2604-.26047-.6137-.40679-.9821-.40679-.3683 0-.7216.14632-.982.40679-.2605.26047-.4068.61374-.4068.9821v1.38888h-11.1112v-1.38888c0-.36836-.1463-.72163-.4068-.9821-.2604-.26047-.6137-.40679-.982-.40679zm-2.7778 9.72219h19.45l-.0056 12.2153c0 .5931-.0264.9639-.068 1.1792-.0094.0659-.0321.1292-.0667.1861-.0374.0749-.0984.1354-.1736.1722-.0568.0351-.1201.0583-.1861.0681-.2153.0416-.5861.068-1.1792.068h-16.0972c-.5931 0-.9639-.0264-1.1792-.068-.0847-.0167-.1028-.0236-.1861-.0667-.0749-.0374-.1354-.0984-.1722-.1736-.0445-.0833-.0514-.1028-.0681-.1861-.0416-.2153-.068-.5861-.068-1.1792zm12.1528 5.5556c-.2763 0-.5413.1097-.7366.3051-.1954.1953-.3051.4603-.3051.7366v3.4722c0 .575.4667 1.0416 1.0417 1.0416h3.4722c.2762 0 .5412-.1097.7365-.3051.1954-.1953.3051-.4603.3051-.7365v-3.4722c0-.2763-.1097-.5413-.3051-.7366-.1953-.1954-.4603-.3051-.7365-.3051z" fill="#21201f"/></svg>