<svg fill="none" height="24" viewBox="0 0 24 24" width="24" xmlns="http://www.w3.org/2000/svg"><path clip-rule="evenodd" d="m20.4852 12-2.1213-.7071-1.8738 2.7341c.1448.5621.2362 1.1405.2707 1.7276.1303 2.2159-.5573 4.4025-1.9324 6.1449-.6994.6994-3.5712-1.0023-6.71347-3.9228l-3.15473 2.5398-1.41422-1.4142 2.48811-3.2056c-2.92713-3.1468-4.63391-6.02487-3.93366-6.72512 1.74328-1.37305 3.92943-2.05938 6.14468-1.92907.58605.03447 1.16339.12547 1.72467.2697l2.73722-1.87616-.7071-2.12132 1.4142-1.41422c.7071-.7071 3.182.35356 5.6569 2.82843s3.5355 4.94975 2.8284 5.65686zm-7.4394 7.3539c.3084.196.5716.3453.7888.4558.6837-1.1873 1.011-2.5552.9296-3.9376-.0269-.4576-.098-.9083-.2109-1.3463l-.2396-.9303 3.3151-4.65581 2.3162.77207.0786-.0786c-.0354-.09614-.0838-.2127-.1494-.34997-.3661-.76546-1.0993-1.82194-2.2174-2.94004-1.1181-1.11809-2.1746-1.85131-2.9401-2.2174-.1372-.06565-.2538-.11402-.3499-.14945l-.0786.07861.772 2.31623-4.6584 3.31706-.92979-.23892c-.43745-.11241-.88744-.18335-1.34434-.21022-1.38192-.08129-2.74932.24512-3.93687.92734.11046.217.25958.4798.45519.7877.79307 1.2485 2.12205 2.8851 3.8184 4.5814 1.69631 1.6964 3.33291 3.0254 4.58141 3.8184z" fill="#000" fill-rule="evenodd"/></svg>