<svg width="24" height="24" viewBox="0 0 24 24" fill="none" xmlns="http://www.w3.org/2000/svg">
<path d="M10.048 4.00594C10.343 5.02734 11.5489 6.09657 12.5703 5.80156C13.5917 5.50656 14.0418 3.95903 13.7468 2.93763C13.4518 1.91624 12.3846 1.32738 11.3632 1.62238C10.3418 1.91739 9.75298 2.98454 10.048 4.00594Z" fill="white"/>
<path d="M19 1C18.3 1 17.7 1.31429 17.4 1.94286L15.7 4.56191C15.2 5.29524 14.5 5.81905 13.7 6.13333L10.7 7.28571C10.3 7.28571 9.8 7.49524 9.5 7.91429L6.4 12.9429C6.1 13.3619 6.2 13.8857 6.5 14.3048L7 14.619L10 10.4286L9 15.6667L5 23H7L12 14.619L11 23H13L14 15.6667L14.8 11.6857C15.1 9.90476 15.8 8.22857 16.7 6.76191L20 1H19Z" fill="white"/>
</svg>
