<svg fill="none" height="24" viewBox="0 0 24 24" width="24" xmlns="http://www.w3.org/2000/svg"><g fill="#000"><path d="m19.7461 4.24913c-2.4749-2.47487-4.9639-3.549718-5.671-2.84261l-1.0607 1.06066 1.0748 2.48906-2.7992 2.05279c-.6166-.21569-1.2577-.36695-1.91362-.44899-2.04917-.25621-4.12526.17849-5.89964 1.2353-.77789.77789 1.41421 4.24266 4.94975 7.77816 3.53551 3.5355 7.00031 5.7276 7.77821 4.9498 1.0568-1.7744 1.4915-3.8505 1.2353-5.8997-.0824-.6586-.2345-1.3024-.4516-1.9213l2.0506-2.79631 2.4749 1.06061 1.0606-1.06061c.7071-.70711-.3535-3.18199-2.8284-5.65686z"/><path d="m3.55318 19.1095 3.19289-3.8554c.31441.3372.64238.6773.98263 1.0175.35045.3505.70067.6879 1.04781 1.0109l-3.80911 3.2412z"/></g></svg>