<svg xmlns="http://www.w3.org/2000/svg" width="30" height="29.999" viewBox="0 0 30 29.999">
  <path id="qricon" d="M7770-2691a4,4,0,0,1-4-4v-22a4,4,0,0,1,4-4h22a4,4,0,0,1,4,4v22a4,4,0,0,1-4,4Zm-2-26v22a2,2,0,0,0,2,2h22a2,2,0,0,0,2-2v-22a2,2,0,0,0-2-2h-22A2,2,0,0,0,7768-2717Zm18.775,21.624v-2.283h2.281v-2.283h2.283v4.566Zm-4.564,0v-3.424h2.281v-1.143h1.141v-1.143h-3.422v-3.424h3.422v2.283h2.283v2.283h-1.141v2.283h-2.283v2.283Zm-9.71-.135a1.907,1.907,0,0,1-1.8-2v-5a1.907,1.907,0,0,1,1.8-2h5.4a1.907,1.907,0,0,1,1.8,2v5a1.907,1.907,0,0,1-1.8,2Zm0-2h5.4v-5h-5.4Zm15.416-4.715v-2.283h3.424v2.283Zm-3.907-5.285a1.907,1.907,0,0,1-1.8-2v-5a1.907,1.907,0,0,1,1.8-2h5.4a1.909,1.909,0,0,1,1.8,2v5a1.908,1.908,0,0,1-1.8,2Zm0-2h5.4v-5h-5.4Zm-11.508,2a1.908,1.908,0,0,1-1.8-2v-5a1.908,1.908,0,0,1,1.8-2h5.4a1.909,1.909,0,0,1,1.8,2v5a1.908,1.908,0,0,1-1.8,2Zm0-2h5.4v-5h-5.4Z" transform="translate(-7766 2720.999)" fill="#fff"/>
</svg>
