<svg fill="none" height="32" viewBox="0 0 32 32" width="32" xmlns="http://www.w3.org/2000/svg"><path clip-rule="evenodd" d="m16 29.3333c7.364 0 13.3334-5.9693 13.3334-13.3333 0-7.36401-5.9694-13.33334-13.3334-13.33334-7.36398 0-13.33331 5.96933-13.33331 13.33334 0 7.364 5.96933 13.3333 13.33331 13.3333zm-6.12931-19.46264c.25001-.24997.58911-.39039.94271-.39039.3535 0 .6926.14042.9426.39039l4.244 4.24404 4.244-4.24404c.123-.12735.2701-.22893.4328-.29881.1627-.06987.3376-.10666.5147-.10819.177-.00154.3526.03219.5165.09923.1638.06704.3127.16605.4379.29124s.2242.27407.2912.43797c.0671.1638.1008.3394.0993.5164-.0016.1771-.0384.352-.1082.5147-.0699.1627-.1715.3098-.2988.4328l-4.244 4.244 4.244 4.244c.2428.2515.3772.5883.3742.9379-.0031.3496-.1433.684-.3905.9312s-.5816.3874-.9312.3905c-.3496.003-.6864-.1314-.9379-.3743l-4.244-4.244-4.244 4.244c-.2514.2429-.5883.3773-.9378.3743-.3496-.0031-.6841-.1433-.93127-.3905-.24721-.2472-.38744-.5816-.39048-.9312-.00303-.3496.13136-.6864.37424-.9379l4.24401-4.244-4.24401-4.244c-.24996-.25-.39039-.5891-.39039-.9427 0-.3535.14043-.6926.39039-.94264z" fill="#21201f" fill-rule="evenodd"/></svg>