<svg fill="none" height="24" viewBox="0 0 24 24" width="24" xmlns="http://www.w3.org/2000/svg"><path clip-rule="evenodd" d="m19.3536 6.0464c.1952-.19526.1952-.51184 0-.70711l-.6929-.69289c-.1953-.19526-.5119-.19526-.7071 0l-5.9536 5.9536-5.95354-5.9536c-.19526-.19526-.51184-.19526-.70711 0l-.69289.69289c-.19526.19527-.19526.51185 0 .70711l5.95354 5.9536-5.95354 5.9535c-.19526.1953-.19526.5119 0 .7071l.69289.6929c.19527.1953.51185.1953.70711 0l5.95354-5.9535 5.9536 5.9535c.1952.1953.5118.1953.7071 0l.6929-.6929c.1952-.1952.1952-.5118 0-.7071l-5.9536-5.9535z" fill="#21201f" fill-rule="evenodd"/></svg>