<svg fill="none" height="24" viewBox="0 0 24 24" width="24" xmlns="http://www.w3.org/2000/svg"><path d="m12.3073 2.1311c-.148.09024-.2602.229-.3175.39265l-.24.685c-.0724.2066-.1891.39485-.342.55154s-.3382.27801-.543.35546l-.32.12099c-.928.2741-1.76889.78456-2.44028 1.48137-.6714.69682-1.15027 1.55609-1.38971 2.49364l-1.212 4.74195c-.11181.4369-.31002.8469-.58294 1.2059s-.61501.6596-1.00606.8841l-.388.223c-.25226.1448-.45699.3598-.58926.6189-.13228.259-.18638.5509-.15574.8401l.005.053c.03108.2929.15918.5669.36394.7786.20476.2116.47441.3487.76606.3894l5.10498.7175c-.01249.111-.01884.2231-.01884.3358 0 .7957.31607 1.5587.87868 2.1213.56257.5626 1.32567.8787 2.12137.8787.7956 0 1.5587-.3161 2.1213-.8787.4436-.4436.7339-1.0118.8369-1.6223l2.7586.3877c.2914.041.5881-.0165.843-.1635.2549-.1469.4534-.3748.564-.6475l.02-.05c.1093-.2695.138-.565.0824-.8505s-.1929-.5486-.3954-.7575l-.312-.321c-.635-.654-.978-1.538-.952-2.448l.07-2.4c-.9845-.0221-1.9406-.3344-2.7483-.8978s-1.431-1.35273-1.7918-2.26903c-.3608-.91629-.443-1.91873-.2362-2.88155.2067-.96282.6932-1.84316 1.3983-2.53057-.004-.036-.008-.073-.01-.11l-.042-.724c-.0099-.17315-.0794-.33752-.1968-.46515s-.2755-.21062-.4472-.23485l-.763-.107c-.1717-.02407-.3464.0121-.4945.10235z" fill="#21201f"/></svg>