<svg fill="none" height="25" viewBox="0 0 24 25" width="24" xmlns="http://www.w3.org/2000/svg"><g fill="#21201f"><path d="m15.3231 8.56505c.35-.29169.8703-.2444 1.1619.10563l3.1902 3.82812-3.1902 3.8282c-.2916.35-.8119.3973-1.1619.1056s-.3973-.8119-.1056-1.1619l1.6223-1.9469h-7.03855c-.45563 0-.825-.3693-.825-.825 0-.4556.36937-.825.825-.825h7.03855l-1.6223-1.94682c-.2917-.35003-.2444-.87024.1056-1.16193z"/><path clip-rule="evenodd" d="m1.35968 6.60066c-.35968.70591-.35968 1.62999-.35968 3.47814v4.84c0 1.8482 0 2.7723.35968 3.4782.31638.6209.82122 1.1258 1.44215 1.4421.70591.3597 1.63.3597 3.47817.3597h11.44c1.8482 0 2.7723 0 3.4782-.3597.6209-.3163 1.1257-.8212 1.4421-1.4421.3597-.7059.3597-1.63.3597-3.4782v-4.84c0-1.84815 0-2.77223-.3597-3.47814-.3164-.62094-.8212-1.12577-1.4421-1.44215-.7059-.35968-1.63-.35968-3.4782-.35968h-11.44c-1.84817 0-2.77226 0-3.47817.35968-.62093.31638-1.12577.82121-1.44215 1.44215zm7.24799.12317h-2.32767c-.95585 0-1.55697.0015-2.01068.03856-.43124.03524-.5572.09278-.59356.1113-.25872.13183-.46907.34218-.60089.6009-.01853.03635-.07607.16232-.1113.59356-.03606.44134-.03846 1.02215-.03857 1.93325l.02565.009c.66249.2275 1.37607.2275 2.03855 0 .75305-.25856 1.40606-.94862 2.71203-2.32868zm2.52563 0-2.16866 2.29178c-1.30623 1.38039-1.9594 2.07059-2.20406 2.86649-.21531.7-.21531 1.4541 0 2.1542.24466.7959.89779 1.4861 2.20406 2.8664l1.29746 1.3711h7.4579c.9558 0 1.557-.0015 2.0107-.0385.4312-.0353.5572-.0928.5935-.1113.2588-.1319.4691-.3422.6009-.6009.0186-.0364.0761-.1624.1113-.5936.0371-.4537.0386-1.0548.0386-2.0107v-4.84c0-.95582-.0015-1.55694-.0386-2.01065-.0352-.43124-.0927-.55721-.1113-.59356-.1318-.25872-.3421-.46907-.6009-.6009-.0363-.01852-.1623-.07606-.5935-.1113-.4537-.03706-1.0549-.03856-2.0107-.03856zm-3.39856 11.54997-.03323-.0351c-1.30618-1.3803-1.9594-2.0706-2.71251-2.3292-.66245-.2274-1.37607-.2274-2.03852 0l-.0225.0079c.00404.419.01349.7417.03559 1.0121.03523.4312.09277.5572.1113.5936.13182.2587.34217.469.60089.6009.03636.0185.16232.076.59356.1113.45371.037 1.05483.0385 2.01068.0385z" fill-rule="evenodd"/></g></svg>