<svg fill="none" height="24" viewBox="0 0 24 24" width="24" xmlns="http://www.w3.org/2000/svg"><g fill="#21201f"><path d="m17.752 14.265 1.4204 1.1596-2.289 2.7739c-1.6349 1.9813-4.3733 2.3915-6.1039.9149-1.73053-1.4766-1.80875-4.2901-.1739-6.2713l2.372-2.8745c.9808-1.1886.9971-2.82304.0352-3.64377s-2.542-.52065-3.52281.66795l-.04032.04887-1.40668-1.17989.05195-.0593c1.63489-1.98124 4.37326-2.39147 6.10386-.91487s1.8088 4.2901.1739 6.27131l-2.372 2.8745c-.9808 1.1886-.9971 2.823-.0352 3.6438.9619.8207 2.542.5206 3.5228-.668z"/><path d="m3.91599 12.2873 1.49159 3.0606.39671-.0377 2.35859-7.82946-.32567-.26785-7.245657 3.78901.037681.3967z"/><path d="m23.1905 12c0 1.3807-1.1193 2.5-2.5 2.5-1.3808 0-2.5-1.1193-2.5-2.5s1.1192-2.5 2.5-2.5c1.3807 0 2.5 1.1193 2.5 2.5z"/></g></svg>