<svg fill="none" height="24" viewBox="0 0 24 24" width="24" xmlns="http://www.w3.org/2000/svg"><path clip-rule="evenodd" d="m12 2c5.5228 0 10 4.47715 10 10 0 5.5228-4.4772 10-10 10-5.52285 0-10-4.4772-10-10 0-5.52285 4.47715-10 10-10zm.0018 18c.0064-.0001.0294-.002.0772-.0238.0603-.0274.1641-.0889.3028-.2194.2883-.2709.6386-.7559.9763-1.5065.5837-1.297 1.0133-3.1282 1.1175-5.2503h-4.95121c.10424 2.1221.53381 3.9533 1.11751 5.2503.3377.7506.688 1.2356.9763 1.5065.1387.1305.2425.192.3028.2194.0496.0226.0725.0238.0779.0238zm-3.02386-.5905c-.80352-1.6194-1.3425-3.8753-1.45572-6.4095h-3.46033c.36312 2.9119 2.29121 5.3378 4.91605 6.4095zm-4.91605-8.4095h3.46033c.11322-2.53423.65219-4.79013 1.45572-6.40951-2.62484 1.07167-4.55293 3.49759-4.91605 6.40951zm10.96021 8.4095c2.6248-1.0717 4.5529-3.4976 4.916-6.4095h-3.4603c-.1132 2.5342-.6522 4.7901-1.4557 6.4095zm4.916-8.4095c-.3631-2.91192-2.2912-5.33784-4.916-6.40951.8035 1.61938 1.3425 3.87529 1.4557 6.40951zm-7.9398-7c-.0063.00012-.0293.00192-.0773.02377-.0603.02741-.1641.08896-.3028.21939-.2883.27097-.6386.75597-.9763 1.5065-.5837 1.29702-1.01327 3.12821-1.11751 5.25034h4.95121c-.1042-2.12213-.5338-3.95332-1.1175-5.25034-.3377-.75053-.688-1.23553-.9763-1.5065-.1387-.13043-.2425-.19198-.3028-.21939-.0496-.02258-.0725-.02374-.0779-.02377z" fill="#21201f" fill-rule="evenodd"/></svg>