<svg fill="none" height="24" viewBox="0 0 24 24" width="24" xmlns="http://www.w3.org/2000/svg"><path clip-rule="evenodd" d="m21.68 6.50011h-3.9292c-.2938 0-.5688-.14716-.7321-.3916l-1.2374-1.85631c-.1633-.24543-.4383-.39209-.7323-.39209h-6.0982c-.29382 0-.56882.14691-.73211.39209l-1.23738 1.85631c-.16329.24444-.43829.3916-.73235.3916h-3.92896c-.72918 0-1.32.59131-1.32 1.32v10.99999c0 .7289.59082 1.3198 1.32 1.3198h19.36c.7292 0 1.32-.5909 1.32-1.3198v-10.99999c0-.72869-.5908-1.32-1.32-1.32zm-9.68 11.66339c-2.91158 0-5.28-2.3681-5.28-5.28 0-2.91057 2.36842-5.28022 5.28-5.28022 2.9116 0 5.28 2.3694 5.28 5.28022 0 2.9116-2.3684 5.28-5.28 5.28zm6.6-9.67484c0 .24054-.1948.43487-.4356.43487h-.0088c-.2405 0-.4358-.19433-.4358-.43487v-.00929c0-.24053.195-.4356.4358-.4356h.0088c.2405 0 .4356.19507.4356.4356zm-6.6 8.35484c2.1871 0 3.96-1.7729 3.96-3.96 0-2.187-1.7729-3.95995-3.96-3.95995-2.18704 0-3.95999 1.77295-3.95999 3.95995 0 2.1871 1.77295 3.96 3.95999 3.96zm-8.36-12.10337h1.76v.88025h-1.76z" fill="#21201f" fill-rule="evenodd"/></svg>