<svg fill="none" height="16" viewBox="0 0 16 16" width="16" xmlns="http://www.w3.org/2000/svg"><rect fill="#169cdc" height="16" rx="5.33333" width="16"/><g fill="#fff"><path d="m3.33341 8.58332.00002.54009-.00002.00958v3.53351l2.33334.0002.58333-1.1667h3.5l.58332 1.1665h2.3333v-4.08318c-.0008.64359-.5222 1.16667-1.166 1.16667h-7.00126c-.64431 0-1.16598-.52237-1.16603-1.16667z"/><path clip-rule="evenodd" d="m8.0001 3.91666c-.91007 0-1.79115.08652-2.64327.25957-.74841.15198-1.3381.72605-1.50738 1.46743l-.26855 1.17614-.00231.01352h-1.12018c-.16108 0-.29166.13059-.29166.29167v.875l1.16666.58333s0 .58334 4.66667.58334c4.63772 0 4.66652-.57619 4.66662-.58334l1.1667-.58333v-.875c0-.16108-.1306-.29167-.2917-.29167h-1.1201l-.0023-.01352-.2686-1.17614c-.1692-.74138-.7589-1.31544-1.5073-1.46743-.85215-.17305-1.73324-.25957-2.6433-.25957zm3.4463 3.09653.135.79239c-.7921-.16967-2.10191-.38892-3.58132-.38892-1.47939 0-2.78921.21925-3.58134.38891l.13509-.79238.2624-1.14924c.0821-.35955.36917-.64146.73796-.71635.78421-.15926 1.59905-.23973 2.4459-.23973.84687 0 1.6617.08047 2.44591.23973.3688.0749.6559.35681.738.71635z" fill-rule="evenodd"/></g></svg>