<svg width="60" height="60" viewBox="0 0 60 60" fill="none" xmlns="http://www.w3.org/2000/svg">
<mask id="mask0_37_13755" style="mask-type:alpha" maskUnits="userSpaceOnUse" x="2" y="19" width="56" height="23">
<rect x="2" y="19" width="55.124" height="22.9358" fill="#D9D9D9"/>
</mask>
<g mask="url(#mask0_37_13755)">
<path d="M12.0546 38.588C8.64972 38.3341 3.51978 37.9583 3.19462 37.9583C3.0427 37.9583 2.90011 37.8883 2.80349 37.7664C2.70488 37.6425 2.41037 37.272 3.00739 34.6147C2.68023 34.2343 1.95794 33.2595 2.00192 32.1094C2.03124 31.3252 2.40437 30.6235 3.11133 30.0219C4.21674 29.0824 9.22608 28.0462 14.2621 27.0654C15.4861 26.8276 16.6428 26.601 16.8174 26.533C17.0039 26.4391 18.6058 25.3903 20.1549 24.3769C23.2973 22.3206 25.5521 20.8514 25.9572 20.6895L26.1971 20.5922C29.2794 19.3489 33.5005 17.6451 50.8453 20.7901C51.1678 20.8487 51.9634 21.3118 52.04 21.9462C52.0693 22.1854 52.0113 22.4985 51.6528 22.7864C52.3258 23.3647 54.0682 24.5568 54.9831 25.1831C56.0365 25.9027 56.3204 26.1033 56.435 26.2172C56.5889 26.3471 57.0913 26.8595 57.0913 28.0076C57.1499 30.2231 57.2099 35.4763 56.4989 36.1852C56.4416 36.2419 56.3683 36.2805 56.2897 36.2952L48.1987 37.8097L48.182 37.8124L46.0305 38.1242L12.0546 38.588ZM3.43716 37.1694C4.83042 37.2467 11.2877 37.7304 12.0792 37.7897L45.9679 37.3286L48.0594 37.0221L55.9766 35.5409C56.2737 34.8293 56.3757 31.1726 56.2924 28.0189C56.2924 27.1427 55.9339 26.8409 55.9192 26.8276C55.8959 26.8096 55.8666 26.7809 55.848 26.7583C55.7713 26.6903 55.1417 26.2592 54.5327 25.8427C52.0167 24.123 50.8619 23.2834 50.6687 22.8577C50.6241 22.7604 50.6207 22.6498 50.658 22.5505C50.696 22.4505 50.772 22.3713 50.8693 22.3273C51.1904 22.184 51.2491 22.0681 51.2471 22.0448C51.2337 21.8902 50.8479 21.6157 50.6967 21.5763C33.5851 18.4727 29.488 20.1278 26.4962 21.3338L26.2544 21.4311C25.8926 21.5763 22.7029 23.6646 20.5927 25.0458C18.5545 26.3798 17.3911 27.1394 17.1619 27.2533C16.9826 27.3433 16.4469 27.4546 14.4147 27.8497C11.251 28.4654 4.66784 29.7473 3.62906 30.6309C3.1 31.0813 2.82149 31.5884 2.80083 32.1401C2.75819 33.2441 3.71634 34.2063 3.72567 34.2156C3.82429 34.3129 3.8656 34.4548 3.83428 34.5901C3.6104 35.5542 3.41983 36.7163 3.43716 37.1694Z" fill="#040000"/>
<path d="M2.57395 33.5295C2.36073 33.5295 2.18349 33.3616 2.17416 33.147C2.1655 32.9325 2.32741 32.7499 2.53863 32.7319C2.94109 32.6919 5.32382 32.4154 5.60967 32.3168C5.71294 32.2608 6.64645 31.7018 7.66524 31.0908L2.6559 31.6758C2.43802 31.7024 2.23813 31.5445 2.21281 31.3246C2.18682 31.1054 2.34407 30.9069 2.56329 30.8815L9.41298 30.0813C9.60221 30.0573 9.77745 30.1713 9.83675 30.3492C9.89805 30.5271 9.82676 30.7236 9.66551 30.8209C9.3137 31.0328 6.22334 32.8938 5.95748 33.0357C5.61899 33.215 2.61659 33.5281 2.59061 33.5295H2.57395Z" fill="black"/>
<path d="M5.21301 36.2339H5.20235C4.9818 36.2279 4.8079 36.0447 4.81323 35.8242L4.83388 35.0352H3.50526C3.28404 35.0352 3.10547 34.8567 3.10547 34.6361C3.10547 34.4156 3.28404 34.2363 3.50526 34.2363H5.24433C5.35227 34.2363 5.45489 34.2796 5.53085 34.3569C5.60614 34.4342 5.64678 34.5382 5.64345 34.6461L5.6128 35.8448C5.60681 36.062 5.4289 36.2339 5.21301 36.2339Z" fill="black"/>
<path d="M44.4758 26.5441C44.3265 26.5441 44.1833 26.4595 44.1147 26.3155L42.0464 21.9659C41.9518 21.766 42.0371 21.5281 42.2363 21.4328C42.4342 21.3395 42.6741 21.4221 42.7687 21.622L44.8369 25.9724C44.9322 26.1716 44.8469 26.4102 44.6477 26.5048C44.5924 26.5308 44.5338 26.5441 44.4758 26.5441Z" fill="black"/>
<path d="M44.476 35.837C44.2554 35.837 44.0762 35.6578 44.0762 35.4372V26.1042C44.0762 25.8836 44.2554 25.7051 44.476 25.7051C44.6965 25.7051 44.8757 25.8836 44.8757 26.1042V35.4372C44.8757 35.6578 44.6965 35.837 44.476 35.837Z" fill="black"/>
<path d="M30.9884 27.2947C30.977 27.2947 30.967 27.2947 30.9557 27.2934C30.7358 27.276 30.5712 27.0835 30.5892 26.8636L30.999 21.7603C31.0157 21.5398 31.2156 21.3619 31.4288 21.3945C31.6487 21.4118 31.8133 21.6044 31.7953 21.8243L31.3861 26.9269C31.3695 27.1368 31.1949 27.2947 30.9884 27.2947Z" fill="black"/>
<path d="M18.6681 28.1232C18.5362 28.1232 18.4069 28.0586 18.3309 27.9393C18.2117 27.7534 18.2656 27.5062 18.4522 27.3876L26.264 22.3816C29.6469 20.4206 41.8244 19.6484 49.6316 23.7169C49.8275 23.8188 49.9035 24.06 49.8015 24.2559C49.6982 24.4511 49.4584 24.5271 49.2618 24.4258C41.8104 20.5432 29.8335 21.2369 26.6798 23.0639L18.8826 28.0599C18.8167 28.1032 18.7414 28.1232 18.6681 28.1232Z" fill="black"/>
<path d="M19.0158 28.3391C18.9625 28.3391 18.9098 28.3285 18.8605 28.3078L16.5724 27.341C16.3685 27.255 16.2739 27.0205 16.3598 26.8173C16.4458 26.6127 16.681 26.5194 16.8836 26.6041L19.0817 27.5336L46.4752 25.3467L49.2457 23.7276C49.4389 23.6176 49.6808 23.6816 49.7927 23.8715C49.904 24.0621 49.84 24.3066 49.6495 24.4185L46.7997 26.083C46.7477 26.113 46.6897 26.1316 46.6298 26.1356L19.0478 28.3378C19.0371 28.3391 19.0264 28.3391 19.0158 28.3391Z" fill="black"/>
<path d="M16.8256 36.6359C16.6084 36.6359 16.4298 36.462 16.4258 36.2441C16.4219 36.0236 16.5971 35.841 16.8176 35.837L43.1856 35.3213C43.4055 35.3053 43.5887 35.4925 43.5927 35.7131C43.5974 35.9336 43.4215 36.1168 43.2009 36.1208L16.8336 36.6359H16.8256Z" fill="black"/>
<path d="M27.3479 22.7202C27.3286 22.7202 27.3092 22.7189 27.2899 22.7162L24.702 22.3424C24.4834 22.3111 24.3322 22.1079 24.3635 21.8893C24.3955 21.6701 24.598 21.5202 24.8166 21.5508L27.4045 21.9253C27.6231 21.9566 27.775 22.1592 27.743 22.3777C27.7144 22.577 27.5431 22.7202 27.3479 22.7202Z" fill="black"/>
<path d="M56.6975 28.6949C56.6469 28.6949 51.1078 27.4869 50.8553 26.8586C50.7953 26.708 50.8373 26.5107 50.9552 26.3981C51.357 26.0123 53.7011 25.8084 55.5974 25.7058C55.79 25.6785 56.0059 25.8617 56.0172 26.083C56.0299 26.3028 55.8606 26.4914 55.6401 26.5034C54.5493 26.5634 53.332 26.6687 52.4904 26.7833C53.9143 27.2244 56.3577 27.8594 56.7182 27.8967C56.9387 27.8967 57.1073 28.0746 57.1073 28.2958C57.1073 28.5163 56.9181 28.6949 56.6975 28.6949Z" fill="black"/>
<path d="M31.8637 36.3015C31.8537 36.3015 31.8443 36.3015 31.835 36.3008C31.6145 36.2855 31.4485 36.0936 31.4639 35.8737L32.4913 21.3421C32.508 21.1215 32.7185 20.9636 32.9184 20.9709C33.139 20.9869 33.3049 21.1782 33.2896 21.3981L32.2621 35.9297C32.2468 36.1409 32.0716 36.3015 31.8637 36.3015Z" fill="black"/>
<path d="M28.8804 30.2955C28.2001 30.2955 27.6138 30.1156 27.3126 29.8131C27.1214 29.6212 27.0814 29.4233 27.0821 29.2893C27.0807 29.1601 27.1207 28.9608 27.3113 28.7689C27.6124 28.4644 28.1981 28.2832 28.8764 28.2832C29.9339 28.2832 30.6741 28.695 30.6761 29.2847C30.6768 29.4766 30.5929 29.8357 30.0278 30.0829C29.7147 30.2182 29.3075 30.2941 28.8804 30.2955ZM27.9309 29.2893C28.0589 29.3726 28.3747 29.4952 28.8798 29.4952C29.3828 29.4939 29.6973 29.3713 29.8259 29.288C29.6967 29.2047 29.3808 29.0814 28.8771 29.0814C28.374 29.0821 28.0589 29.206 27.9309 29.2893Z" fill="black"/>
<path d="M41.2717 29.817C40.5908 29.817 40.0044 29.637 39.7032 29.3352C39.512 29.1433 39.472 28.9441 39.4727 28.8115C39.4714 28.6816 39.5113 28.4823 39.7019 28.2904C40.0031 27.9866 40.5888 27.8047 41.2671 27.8047H41.2711C42.3258 27.8047 43.0648 28.2158 43.0668 28.8062C43.0681 29.3985 42.3298 29.8143 41.2717 29.817ZM40.3216 28.8115C40.4502 28.8948 40.7653 29.0174 41.2704 29.0174C41.7741 29.016 42.0886 28.8928 42.2172 28.8095C42.088 28.7262 41.7735 28.6036 41.2711 28.6036H41.2684C40.7647 28.6043 40.4502 28.7282 40.3216 28.8115Z" fill="black"/>
<path d="M18.8529 36.6106C18.6324 36.6106 18.4531 36.4314 18.4531 36.2108V27.724C18.4531 27.5035 18.6324 27.3242 18.8529 27.3242C19.0735 27.3242 19.2527 27.5035 19.2527 27.724V36.2108C19.2527 36.4314 19.0735 36.6106 18.8529 36.6106Z" fill="black"/>
<path d="M17.3632 37.5573C17.3632 39.8627 15.4942 41.7317 13.1894 41.7317C10.884 41.7317 9.01562 39.8627 9.01562 37.5573C9.01562 35.2518 10.884 33.3828 13.1894 33.3828C15.4942 33.3828 17.3632 35.2518 17.3632 37.5573Z" fill="black"/>
<path d="M13.1895 41.9357C10.7761 41.9357 8.8125 39.972 8.8125 37.5586C8.8125 35.1453 10.7761 33.1816 13.1895 33.1816C15.6029 33.1816 17.5658 35.1453 17.5658 37.5586C17.5658 39.972 15.6029 41.9357 13.1895 41.9357ZM13.1895 33.5874C11 33.5874 9.21828 35.3691 9.21828 37.5586C9.21828 39.7481 11 41.5299 13.1895 41.5299C15.379 41.5299 17.1601 39.7481 17.1601 37.5586C17.1601 35.3691 15.379 33.5874 13.1895 33.5874Z" fill="black"/>
<path d="M15.6602 37.5586C15.6602 38.9239 14.5541 40.0299 13.1888 40.0299C11.8249 40.0299 10.7168 38.9239 10.7168 37.5586C10.7168 36.1933 11.8249 35.0879 13.1888 35.0879C14.5541 35.0879 15.6602 36.1933 15.6602 37.5586Z" fill="white"/>
<path d="M51.0136 37.5573C51.0136 39.8627 49.1446 41.7317 46.8398 41.7317C44.5337 41.7317 42.666 39.8627 42.666 37.5573C42.666 35.2518 44.5337 33.3828 46.8398 33.3828C49.1446 33.3828 51.0136 35.2518 51.0136 37.5573Z" fill="black"/>
<path d="M46.8392 41.9357C44.4258 41.9357 42.4629 39.972 42.4629 37.5586C42.4629 35.1453 44.4258 33.1816 46.8392 33.1816C49.2526 33.1816 51.2156 35.1453 51.2156 37.5586C51.2156 39.972 49.2526 41.9357 46.8392 41.9357ZM46.8392 33.5874C44.6497 33.5874 42.8687 35.3691 42.8687 37.5586C42.8687 39.7481 44.6497 41.5299 46.8392 41.5299C49.0287 41.5299 50.8098 39.7481 50.8098 37.5586C50.8098 35.3691 49.0287 33.5874 46.8392 33.5874Z" fill="black"/>
<path d="M49.3106 37.5586C49.3106 38.9239 48.2045 40.0299 46.8392 40.0299C45.4753 40.0299 44.3672 38.9239 44.3672 37.5586C44.3672 36.1933 45.4753 35.0879 46.8392 35.0879C48.2045 35.0879 49.3106 36.1933 49.3106 37.5586Z" fill="white"/>
<path d="M22.2161 25.7701C22.2161 25.7701 22.8198 25.4609 23.3995 25.4609C23.9805 25.4609 24.1358 25.8474 24.1358 25.9407V27.5365C24.1358 27.5365 24.1178 27.7224 23.6714 27.8144C23.2216 27.907 21.5752 28.0316 21.5365 27.6444C21.4979 27.258 21.5172 26.3804 21.6791 26.1559C21.843 25.9334 22.2161 25.7701 22.2161 25.7701Z" fill="white"/>
<path d="M22.5067 28.3094C22.0622 28.3094 21.6118 28.2575 21.3726 28.0822C21.236 27.9816 21.1527 27.841 21.1374 27.6851C21.1361 27.6718 21.0348 26.3645 21.3539 25.9227C21.5638 25.6369 21.9456 25.453 22.0442 25.409C22.1402 25.3617 22.7692 25.0625 23.3982 25.0625C24.2011 25.0625 24.5342 25.6349 24.5342 25.9414V27.5372C24.5223 27.6891 24.433 28.0669 23.7507 28.2068C23.74 28.2088 23.129 28.3094 22.5067 28.3094ZM21.923 27.4639C22.2521 27.5452 23.1796 27.5065 23.5894 27.4232C23.6574 27.4099 23.7047 27.3946 23.7367 27.3819L23.7353 25.9514C23.732 25.9873 23.6567 25.8614 23.3982 25.8614C22.9244 25.8614 22.4014 26.1239 22.3961 26.1266C22.3907 26.1299 22.3827 26.1339 22.3761 26.1366C22.2641 26.1866 22.0669 26.3025 22.0003 26.3938C21.9423 26.5104 21.9017 27.0601 21.923 27.4639Z" fill="black"/>
</g>
</svg>
