<svg width="60" height="60" viewBox="0 0 60 60" fill="none" xmlns="http://www.w3.org/2000/svg">
<mask id="mask0_37_13840" style="mask-type:alpha" maskUnits="userSpaceOnUse" x="1" y="19" width="58" height="22">
<rect x="1.5" y="19.7324" width="56.6406" height="21.192" fill="#D9D9D9"/>
</mask>
<g mask="url(#mask0_37_13840)">
<path d="M13.3986 37.9357L3.4072 37.6341C2.62009 37.6114 1.98148 37.0008 1.92288 36.2137L1.86761 35.4645C1.75906 35.3959 1.64786 35.2947 1.58526 35.1455C1.5533 35.0696 1.518 34.9844 1.50069 34.1959C1.48804 33.6426 1.64985 33.1005 1.95617 32.6683C2.03342 32.5591 2.06938 32.4965 2.0847 32.4666L2.08336 32.4246C2.05806 31.7001 2.08736 30.8098 2.54551 30.353C3.01764 29.8795 5.88773 27.4729 16.0456 26.4893C17.0837 25.8054 23.2228 22.2801 25.074 21.6028C35.5755 17.7632 49.4398 20.8936 51.917 21.7041C51.967 21.7007 52.0176 21.7027 52.0668 21.7174L52.0589 21.7527C52.0928 21.764 52.1228 21.776 52.1494 21.786L52.1654 21.76C52.226 21.7973 52.7621 22.1376 52.7927 22.6883C52.8014 22.8448 52.7701 23.0532 52.6176 23.2743C52.8253 23.4301 53.1303 23.6459 53.4113 23.845C55.0468 25.0043 56.5465 26.1084 56.9187 26.8722C57.8163 28.7195 57.522 31.5802 57.3702 32.6437C57.7637 32.7416 58.1 32.9627 58.138 33.3569C58.1853 33.8503 57.6778 37.07 55.8 37.3304C54.3436 37.5328 53.0271 37.6014 52.9718 37.6041L47.6738 37.935L13.3986 37.9357ZM2.32576 34.7959C2.48225 34.8512 2.63541 35.009 2.64739 35.1688L2.71998 36.1551C2.74795 36.532 3.0536 36.825 3.43184 36.8356L13.4112 37.1373H47.6492L52.9272 36.8063C52.9445 36.805 54.269 36.7364 55.6908 36.5386C56.8734 36.3748 57.3276 33.9529 57.3429 33.4801C57.2603 33.4341 57.0585 33.3882 56.8954 33.3815C56.7802 33.3762 56.6716 33.3216 56.5991 33.231C56.5271 33.1405 56.4978 33.0233 56.5185 32.9094C56.5251 32.8728 57.1811 29.2402 56.2002 27.2225C55.8865 26.5786 53.976 25.2247 52.9492 24.4976C51.7445 23.6439 51.6187 23.5546 51.6507 23.2516C51.662 23.1411 51.7239 23.0352 51.8125 22.9666C51.9283 22.8774 51.9976 22.7875 51.9943 22.7329C51.9896 22.6503 51.8704 22.5298 51.7865 22.4679C50.6065 22.1376 36.3426 18.3332 25.3484 22.3533C23.324 23.0932 16.7987 26.9222 16.4311 27.1905C16.3659 27.2531 16.3106 27.2664 16.2207 27.2758C6.04355 28.2467 3.3799 30.6473 3.1102 30.9176C3.00898 31.0195 2.84517 31.3452 2.88179 32.3966L2.88446 32.5118C2.88446 32.677 2.80721 32.8508 2.60744 33.1318C2.40034 33.4235 2.29113 33.7957 2.29912 34.1786C2.30711 34.5262 2.31843 34.7067 2.32576 34.7959Z" fill="black"/>
<path d="M13.3978 32.1738C10.9859 32.1738 9.02344 34.1363 9.02344 36.5482C9.02344 38.9608 10.9859 40.9239 13.3978 40.9239C15.8098 40.9239 17.7722 38.9608 17.7722 36.5482C17.7722 34.1363 15.8098 32.1738 13.3978 32.1738Z" fill="black"/>
<path d="M15.8701 36.5493C15.8701 37.9137 14.7634 39.0192 13.4002 39.0192C12.0358 39.0192 10.9297 37.9137 10.9297 36.5493C10.9297 35.1848 12.0358 34.0801 13.4002 34.0801C14.7634 34.0801 15.8701 35.1848 15.8701 36.5493Z" fill="white"/>
<path d="M48.3705 32.1738C45.9585 32.1738 43.9961 34.1363 43.9961 36.5482C43.9961 38.9608 45.9585 40.9239 48.3705 40.9239C50.7824 40.9239 52.7449 38.9608 52.7449 36.5482C52.7449 34.1363 50.7824 32.1738 48.3705 32.1738Z" fill="black"/>
<path d="M50.8389 36.5493C50.8389 37.9137 49.7321 39.0192 48.369 39.0192C47.0045 39.0192 45.8984 37.9137 45.8984 36.5493C45.8984 35.1848 47.0045 34.0801 48.369 34.0801C49.7321 34.0801 50.8389 35.1848 50.8389 36.5493Z" fill="white"/>
<path d="M3.29481 32.5912C2.86663 32.5912 2.55564 32.5786 2.48572 32.5586C2.27396 32.498 2.1501 32.2769 2.2107 32.0651C2.2713 31.854 2.49105 31.7288 2.70414 31.7901C3.0957 31.8487 6.02772 31.7422 6.42261 31.5404C6.91405 31.2281 7.41282 30.6973 7.71448 30.3278C7.07986 30.2838 5.74404 30.3018 3.3947 30.6161C3.18294 30.6461 2.97584 30.4916 2.94654 30.2732C2.91724 30.0541 3.0704 29.8536 3.28948 29.8243C5.55825 29.5213 8.15265 29.3415 8.61613 29.7478C8.70269 29.8243 8.76529 29.9555 8.76529 30.0707C8.76529 30.4922 7.58596 31.7475 6.8448 32.2183C6.40063 32.5013 4.43419 32.5912 3.29481 32.5912Z" fill="black"/>
<path d="M10.7025 33.7371C10.6379 33.7371 10.5733 33.7218 10.5127 33.6885L7.31634 31.9525C7.12256 31.8473 7.05064 31.6049 7.15585 31.4111C7.26107 31.2167 7.50412 31.1434 7.69724 31.2506L10.8936 32.986C11.0874 33.0912 11.16 33.3343 11.0541 33.528C10.9822 33.6612 10.8443 33.7371 10.7025 33.7371Z" fill="black"/>
<path d="M4.54794 37.6689C4.32753 37.6689 4.1484 37.4898 4.1484 37.2694C4.1484 37.049 4.32753 36.8705 4.54794 36.8705C4.60255 36.8705 4.63451 36.8558 4.66914 36.8159C4.84294 36.6168 4.88423 36.0667 4.86226 35.6099L2.24521 35.5979C2.0248 35.5973 1.84633 35.4175 1.84766 35.1964C1.84833 34.9766 2.02746 34.7988 2.24721 34.7988H2.24921L5.22917 34.8128C5.42762 34.8135 5.59609 34.9606 5.62339 35.1578C5.65869 35.4135 5.80918 36.7233 5.27179 37.3406C5.08467 37.555 4.83429 37.6689 4.54794 37.6689Z" fill="black"/>
<path d="M32.1201 35.8092H32.0981C31.8777 35.7972 31.7086 35.6087 31.7192 35.3883L32.1501 27.2781C32.3672 25.7332 33.426 21.9668 33.4719 21.807C33.5318 21.5939 33.7496 21.47 33.9654 21.5313C34.1764 21.5906 34.2996 21.811 34.2404 22.0241C34.2304 22.062 33.1516 25.8977 32.9445 27.356L32.519 35.4316C32.5063 35.644 32.3299 35.8092 32.1201 35.8092Z" fill="black"/>
<path d="M19.1699 35.9326C18.9509 35.9326 18.7724 35.7561 18.7704 35.5363L18.7031 27.6732C18.7018 27.54 18.7671 27.4155 18.8763 27.3403L26.9811 21.7792C27.1656 21.6534 27.4126 21.702 27.5372 21.8824C27.6623 22.0649 27.6157 22.314 27.4339 22.4385L19.5036 27.879L19.5695 35.5303C19.5715 35.7508 19.3944 35.9306 19.1733 35.9326H19.1699Z" fill="black"/>
<path d="M17.1418 36.0089C16.9227 36.0089 16.7435 35.8318 16.7422 35.6127C16.7402 35.3916 16.918 35.2118 17.1384 35.2105L41.3051 35.028L45.5057 26.8073C45.6069 26.6108 45.848 26.5336 46.0431 26.6335C46.2395 26.7334 46.3174 26.9744 46.2169 27.1715L41.9058 35.608C41.8385 35.7412 41.7026 35.8251 41.5535 35.8258L17.1451 36.0089H17.1418Z" fill="black"/>
<path d="M45.8603 27.3875C45.7372 27.3875 45.616 27.3309 45.538 27.2243L41.9694 22.3452C41.8396 22.1667 41.8782 21.9163 42.056 21.7865C42.2358 21.6546 42.4855 21.6959 42.6147 21.8731L46.1826 26.7522C46.3132 26.93 46.2745 27.1804 46.0961 27.3109C46.0248 27.3629 45.9422 27.3875 45.8603 27.3875Z" fill="black"/>
<path d="M29.8208 30.5571C28.8639 30.5571 28.1953 30.1695 28.1953 29.6141C28.1953 29.0594 28.8639 28.6719 29.8208 28.6719C30.7784 28.6719 31.447 29.0594 31.447 29.6141C31.447 30.1695 30.7784 30.5571 29.8208 30.5571ZM29.0737 29.6148C29.2095 29.6834 29.4712 29.7586 29.8208 29.7586C30.1711 29.7586 30.4314 29.6834 30.5686 29.6148C30.4314 29.5462 30.1704 29.471 29.8208 29.471C29.4712 29.471 29.2102 29.5462 29.0737 29.6148Z" fill="black"/>
<path d="M41.1272 30.2539C40.7709 30.2539 40.4313 30.194 40.1642 30.0828C39.6395 29.8644 39.5549 29.5274 39.5509 29.3463C39.539 28.7916 40.1989 28.3887 41.1551 28.3681C42.1347 28.3467 42.7886 28.7197 42.8026 29.2737V29.275C42.8146 29.8297 42.1547 30.2326 41.1977 30.2533C41.1738 30.2539 41.1498 30.2539 41.1272 30.2539ZM40.4293 29.327C40.5665 29.3936 40.8362 29.4622 41.1791 29.4548C41.5294 29.4468 41.7891 29.3656 41.9243 29.2937C41.7864 29.2291 41.5234 29.1685 41.1738 29.1665C40.8235 29.1745 40.5645 29.2557 40.4293 29.327Z" fill="black"/>
<path d="M57.3205 33.6871H50.4536C50.2332 33.6871 50.0547 33.508 50.0547 33.2876C50.0547 33.0671 50.2332 32.8887 50.4536 32.8887H57.3205C57.5409 32.8887 57.72 33.0671 57.72 33.2876C57.72 33.508 57.5409 33.6871 57.3205 33.6871Z" fill="black"/>
<path d="M19.1039 28.1906C19.0346 28.1906 18.9654 28.1726 18.9048 28.138C18.8895 28.1287 17.3818 27.2883 15.9095 27.3043H15.9029C15.6851 27.3043 15.5073 27.1298 15.504 26.9114C15.5 26.6903 15.6764 26.5092 15.8969 26.5058C17.4098 26.4639 18.8089 27.1804 19.2005 27.3888L50.9832 26.4126C51.0305 26.3767 51.0951 26.3121 51.0917 26.2208C51.0851 26.0357 50.8087 25.0089 45.9535 23.0251C44.4559 22.2899 32.8544 21.7006 24.5311 22.6802C24.304 22.7101 24.1136 22.5483 24.0876 22.3299C24.0616 22.1108 24.2188 21.9124 24.4379 21.8864C32.2977 20.9608 44.3487 21.347 46.2812 22.2966C50.0309 23.8275 51.8742 25.1127 51.8908 26.2135C51.8988 26.7462 51.4973 27.0679 51.2582 27.1744C51.2116 27.1951 51.1603 27.2064 51.109 27.2077L19.1166 28.1906H19.1039Z" fill="black"/>
<path d="M56.9271 30.8442C56.9018 30.8442 56.8772 30.8415 56.8519 30.8362C56.748 30.8169 54.3267 30.354 54.0557 30.2901C53.8013 30.2295 53.5882 30.0078 53.3772 29.1228C53.3419 28.9743 53.1694 28.2198 53.246 27.8982C53.3146 27.6098 53.3858 27.3102 56.6068 27.2695H56.6115C56.8299 27.2695 57.0084 27.4453 57.011 27.6638C57.0144 27.8842 56.8372 28.0653 56.6168 28.068C55.6339 28.0813 54.4692 28.1479 54.0277 28.2418C54.0604 28.592 54.2195 29.2932 54.3441 29.535C54.7982 29.6289 56.3718 29.9312 57.0011 30.0524C57.2181 30.093 57.36 30.3028 57.3187 30.5192C57.2821 30.711 57.1149 30.8442 56.9271 30.8442Z" fill="black"/>
<path d="M56.6899 29.3175H56.6846L53.7712 29.2809C53.5508 29.2782 53.3743 29.0977 53.377 28.8766C53.3796 28.6582 53.5581 28.4824 53.7765 28.4824H53.7819L56.6952 28.519C56.9156 28.5217 57.0921 28.7022 57.0894 28.9233C57.0868 29.1417 56.9083 29.3175 56.6899 29.3175Z" fill="black"/>
<path d="M23.412 26.0736C23.0377 26.0297 21.4129 26.2381 21.4682 27.5679C21.4935 28.1726 21.8451 28.3357 21.8451 28.3357C21.8451 28.3357 23.6018 28.6281 23.7922 27.7304C23.7922 27.7304 24.012 26.1442 23.412 26.0736Z" fill="white"/>
<path d="M22.446 28.7812C22.1164 28.7812 21.8513 28.7419 21.7781 28.7292C21.7428 28.7232 21.7081 28.7132 21.6755 28.6973C21.6169 28.67 21.1015 28.4082 21.0682 27.5825C21.0462 27.0718 21.226 26.6243 21.587 26.29C22.1849 25.7353 23.1259 25.6354 23.4575 25.676C23.6553 25.6993 23.8277 25.7992 23.9549 25.965C24.3358 26.4578 24.2286 27.482 24.1867 27.7843C24.0095 28.6247 23.0999 28.7812 22.446 28.7812ZM21.9985 27.9541C22.4959 28.0167 23.3263 27.9921 23.3996 27.6464C23.4628 27.1796 23.4322 26.6143 23.3343 26.4678C23.1452 26.4531 22.5052 26.529 22.1303 26.876C21.9412 27.0518 21.8547 27.2722 21.8666 27.5499C21.876 27.7896 21.9532 27.9061 21.9985 27.9541Z" fill="black"/>
</g>
</svg>
