<svg width="60" height="60" viewBox="0 0 60 60" fill="none" xmlns="http://www.w3.org/2000/svg">
<mask id="mask0_37_13865" style="mask-type:alpha" maskUnits="userSpaceOnUse" x="1" y="21" width="58" height="20">
<rect x="1.5" y="21.9453" width="57.4971" height="18.3564" fill="#D9D9D9"/>
</mask>
<g mask="url(#mask0_37_13865)">
<path d="M4.43771 32.2698C3.38778 32.2698 2.89663 31.1263 2.87514 31.0751C2.79423 30.8823 2.88589 30.6598 3.07931 30.5789C3.27021 30.498 3.49397 30.589 3.57551 30.7824C3.57804 30.7887 3.89599 31.5624 4.51293 31.5075C6.80748 31.2736 8.255 30.4303 8.78976 29.9708C8.08939 29.8248 6.54515 29.7072 5.85236 29.7729C5.6444 29.7932 5.45856 29.6396 5.43897 29.431C5.41937 29.2224 5.57234 29.0372 5.78094 29.017C6.39155 28.9613 9.21454 29.0448 9.64058 29.5353C9.72149 29.6269 9.77079 29.809 9.74298 29.9278C9.59633 30.5568 7.64439 31.9512 4.58941 32.2616C4.53758 32.2672 4.48701 32.2698 4.43771 32.2698Z" fill="black"/>
<path d="M3.19016 36.3558C2.85135 36.3558 2.59029 36.3273 2.52329 36.3197C2.31532 36.2951 2.16741 36.1061 2.19206 35.8981C2.21671 35.6902 2.40192 35.5442 2.61368 35.5663C3.15602 35.6314 4.15096 35.6187 4.49672 35.3109C4.53907 35.273 4.56752 35.2344 4.58395 35.1889H2.33239C2.12316 35.1889 1.95312 35.0189 1.95312 34.8096C1.95312 34.6004 2.12316 34.4304 2.33239 34.4304H4.68319C4.81594 34.4139 4.99103 34.4386 5.13325 34.5524C5.23692 34.6352 5.36018 34.7932 5.36018 35.077C5.36018 35.3924 5.23566 35.6693 4.99988 35.8785C4.55298 36.2749 3.76158 36.3558 3.19016 36.3558Z" fill="black"/>
<path d="M2.03167 33.6146C1.8256 33.6146 1.6562 33.4496 1.65241 33.2423C1.64861 33.033 1.81486 32.8605 2.02472 32.8567L11.5531 32.6803C11.7788 32.6677 11.9355 32.8428 11.9393 33.0526C11.9437 33.2619 11.7769 33.4351 11.567 33.4389L2.03862 33.6146H2.03167Z" fill="black"/>
<path d="M22.8465 28.0782C22.8282 28.0782 22.8099 28.0769 22.7915 28.0744L18.8662 27.5049C18.6588 27.4745 18.5147 27.2823 18.545 27.075C18.5748 26.8671 18.7694 26.7242 18.9749 26.7539L22.9003 27.3241C23.1076 27.3538 23.2517 27.5459 23.2214 27.7533C23.1942 27.9423 23.0317 28.0782 22.8465 28.0782Z" fill="black"/>
<path d="M32.7839 24.213C32.7542 24.213 32.7238 24.2092 32.6935 24.2016L29.1233 23.3261C28.9198 23.2762 28.7946 23.0701 28.8452 22.8672C28.8951 22.6643 29.0993 22.5392 29.3035 22.5891L32.8743 23.4646C33.0778 23.5151 33.2023 23.7206 33.1524 23.9235C33.11 24.0967 32.9552 24.213 32.7839 24.213Z" fill="black"/>
<path d="M51.1495 27.6848C51.0957 27.6848 51.042 27.6728 50.9902 27.6494C47.482 26.0287 42.1622 23.5843 41.75 23.4295C41.5876 23.3859 41.4688 23.2386 41.4688 23.0629C41.4688 22.853 41.6382 22.6836 41.8474 22.6836C41.9561 22.6836 42.0497 22.6836 51.3088 26.9604C51.499 27.0489 51.5818 27.2746 51.494 27.4642C51.4295 27.6026 51.293 27.6848 51.1495 27.6848Z" fill="black"/>
<path d="M38.5295 28.8941C38.336 28.8941 38.1717 28.7474 38.1521 28.5515C38.1325 28.3429 38.2855 28.1577 38.4934 28.1375L55.5951 26.4984C55.7999 26.475 55.9895 26.6318 56.0091 26.8397C56.0293 27.0483 55.8757 27.2335 55.6678 27.2538L38.5667 28.8928C38.5541 28.8941 38.5421 28.8941 38.5295 28.8941Z" fill="black"/>
<path d="M55.6314 31.2649C55.0101 31.2649 54.3906 29.6884 54.3906 29.3565C54.3906 29.0746 54.3906 28.7832 57.3558 28.0392C57.5613 27.9868 57.7648 28.1132 57.8154 28.3155C57.8659 28.5184 57.7433 28.7238 57.5398 28.7756C56.6359 29.0019 55.5771 29.3192 55.189 29.5013C55.292 29.7933 55.567 30.33 55.7256 30.5051C56.1567 30.4924 57.6883 30.4267 58.2989 30.3995C58.5063 30.4096 58.6852 30.5525 58.6946 30.7617C58.7035 30.9709 58.5417 31.1479 58.3318 31.1574C58.2326 31.1618 55.8963 31.2649 55.6314 31.2649Z" fill="black"/>
<path d="M54.9201 32.7461C54.7197 32.7461 54.5522 32.5887 54.5415 32.3865C54.5314 32.1772 54.6925 31.9983 54.9018 31.9882L58.403 31.8125C58.6091 31.8195 58.7905 31.9636 58.8012 32.1728C58.8113 32.382 58.6502 32.5603 58.4409 32.571L54.9397 32.7461H54.9201Z" fill="black"/>
<path d="M55.0899 30.5016C54.9167 30.5016 54.7599 30.3815 54.7201 30.2045C54.6746 30.0004 54.8035 29.7981 55.0077 29.7513L57.7055 29.1476C57.9053 29.1028 58.1126 29.2305 58.1581 29.4353C58.2042 29.6401 58.0753 29.8423 57.8705 29.8885L55.1733 30.4921C55.1455 30.4985 55.1177 30.5016 55.0899 30.5016Z" fill="black"/>
<path d="M9.37089 30.2212C9.18316 30.2212 9.01944 30.0815 8.99542 29.8906C8.96824 29.6827 9.11552 29.493 9.32348 29.4665L22.3973 27.7857C22.5984 27.7528 22.7949 27.9058 22.8215 28.1138C22.8487 28.3211 22.702 28.5114 22.4941 28.5379L9.41956 30.2181C9.40376 30.2206 9.38669 30.2212 9.37089 30.2212Z" fill="black"/>
<path d="M25.03 28.2999C23.635 28.2999 23.0534 28.26 22.994 28.2556C22.793 28.2202 22.5149 28.1311 22.4447 27.8675C22.3998 27.7019 22.4567 27.5312 22.5977 27.4105C25.2753 25.0856 32.1703 23.3581 33.6716 23.3581L33.9554 23.3574C35.377 23.3593 37.5394 23.3511 40.0148 23.8441C42.6146 24.3587 44.2486 24.8884 44.3169 24.9105C44.4983 24.9699 44.6077 25.1558 44.571 25.3435C44.5558 25.4238 44.1456 27.3075 40.3283 27.5995C32.0129 28.1867 27.3739 28.2999 25.03 28.2999ZM23.6982 27.5205C25.2829 27.5635 29.9769 27.5698 40.2727 26.8429C42.5072 26.6722 43.3548 25.9339 43.6633 25.5047C43.0192 25.3157 41.669 24.9446 39.8675 24.5881C37.4648 24.1096 35.3625 24.1172 33.9567 24.116H33.6716C32.4826 24.116 26.5825 25.5363 23.6982 27.5205Z" fill="black"/>
<path d="M22.2888 35.3996C22.1851 35.3996 22.0853 35.3573 22.0138 35.2808C21.9405 35.2024 21.9026 35.0981 21.9114 34.9919L22.467 27.6689C22.4841 27.4597 22.6681 27.3124 22.8748 27.3194C23.0833 27.3352 23.2395 27.5172 23.2237 27.7265L22.6997 34.6348L35.7596 34.4268C36.3506 33.8895 38.0915 29.0956 38.1502 28.4995C38.1502 28.1968 38.0301 27.674 37.9821 27.4995C37.929 27.2979 38.0491 27.0899 38.252 27.0356C38.4562 26.9837 38.6623 27.1026 38.716 27.3036C38.7236 27.3333 38.9081 28.0324 38.9081 28.5134C38.9081 28.5773 37.0643 35.0545 35.8879 35.1815L22.2957 35.3996H22.2888Z" fill="black"/>
<path d="M38.2973 27.6251C38.2682 27.6251 38.2378 27.6213 38.2075 27.6137C38.004 27.5644 37.8794 27.3596 37.9287 27.156L38.7012 23.9702C38.7499 23.7667 38.9496 23.6403 39.1588 23.6908C39.363 23.7401 39.4875 23.9456 39.4382 24.1491L38.6658 27.3349C38.6241 27.5081 38.4686 27.6251 38.2973 27.6251Z" fill="black"/>
<path d="M36.893 33.8799C36.6869 33.8799 36.5175 33.7149 36.5137 33.5076C36.5106 33.2983 36.6768 33.1258 36.886 33.122L46.3038 32.9513C46.5187 32.9273 46.6856 33.1138 46.6894 33.3236C46.6932 33.5328 46.5263 33.706 46.3171 33.7092L36.8999 33.8799H36.893Z" fill="black"/>
<path d="M34.7595 30.4765C34.262 30.4765 33.8473 30.0839 33.8252 29.5833C33.8138 29.3336 33.9011 29.0947 34.0692 28.9107C34.2386 28.7268 34.4681 28.6193 34.7177 28.6092L35.9352 28.5555C36.1785 28.5454 36.4225 28.6313 36.6071 28.8001C36.7911 28.9689 36.8985 29.1983 36.9093 29.448C36.92 29.6971 36.8328 29.9354 36.6646 30.1193C36.4965 30.3033 36.2664 30.4107 36.0167 30.4221L34.7999 30.4758C34.786 30.4765 34.7727 30.4765 34.7595 30.4765ZM35.9763 29.3134H35.968L34.7506 29.3671C34.6868 29.3696 34.6469 29.4038 34.6286 29.4234C34.6103 29.443 34.5799 29.4859 34.5831 29.5498C34.5869 29.6446 34.6767 29.7211 34.767 29.7179L35.9839 29.6642C36.0464 29.6617 36.0875 29.6275 36.1052 29.6073C36.1235 29.5877 36.1539 29.5441 36.1507 29.4815C36.1482 29.4183 36.1147 29.3779 36.0945 29.3589C36.0749 29.3418 36.0351 29.3134 35.9763 29.3134Z" fill="black"/>
<path d="M25.2272 28.2549H25.2133C25.0034 28.2467 24.8403 28.0709 24.8479 27.8617L24.9099 26.1993C24.9174 25.99 25.071 25.8232 25.303 25.8345C25.5123 25.8428 25.676 26.0185 25.6678 26.2277L25.6064 27.8901C25.5989 28.0943 25.4301 28.2549 25.2272 28.2549Z" fill="black"/>
<path d="M25.5793 27.0451C26.372 26.5754 26.8688 26.5172 27.0654 26.6671C27.262 26.8137 27.2449 27.0438 27.262 27.6525C27.279 28.2606 27.3113 28.6885 26.9529 28.7625C26.5787 28.8402 25.0957 28.7947 25.0957 28.7947C25.0957 28.7947 24.9813 28.7233 24.9036 28.5703C24.7911 28.3485 24.7866 27.5128 25.5793 27.0451Z" fill="white"/>
<path d="M25.975 29.1884C25.5812 29.1884 25.2095 29.1776 25.085 29.1739C25.018 29.172 24.9535 29.1524 24.8966 29.117C24.8618 29.0955 24.6861 28.9785 24.566 28.7428C24.3505 28.318 24.4396 27.2782 25.3865 26.7188C26.2594 26.2023 26.9206 26.0797 27.2954 26.3654C27.6166 26.605 27.6248 26.9469 27.6374 27.464L27.6444 27.7327C27.6621 28.3262 27.6823 28.9994 27.0306 29.1347C26.8271 29.177 26.3884 29.1884 25.975 29.1884ZM25.2537 28.4198C25.8182 28.4337 26.6558 28.4375 26.877 28.3919C26.9035 28.3332 26.8934 27.9994 26.8858 27.7554L26.8789 27.4817C26.8738 27.256 26.8675 27.0228 26.8391 26.9697C26.7879 26.9577 26.4453 26.9741 25.7733 27.3724C25.1621 27.7333 25.2165 28.3281 25.2462 28.4058C25.2487 28.4109 25.2506 28.4153 25.2537 28.4198Z" fill="black"/>
<path d="M6.09787 37.7907C2.68513 37.7907 1.95504 37.3489 1.72938 36.8988C1.64974 36.7408 1.56314 36.4172 1.87856 36.0208C2.02837 35.8628 2.17059 35.7029 2.25024 35.6049C2.21358 35.5404 2.14657 35.4425 2.09284 35.3641C1.83684 34.9918 1.44873 34.4273 1.50562 33.5354C1.4797 32.8141 1.80397 29.0803 10.6339 27.7971C13.5087 27.3799 18.8886 26.7503 18.9429 26.744C18.9606 26.7421 19.9581 26.641 20.6989 26.2529C21.6622 25.7497 25.7596 23.6992 28.2083 22.8661C37.3018 19.7763 52.1254 25.433 52.7524 25.6751C53.8396 26.0228 55.7726 26.586 56.2391 26.586C56.7593 26.586 57.9869 26.6321 58.1519 27.062C58.2808 27.3957 58.0798 27.9627 57.8605 28.428L58.4667 30.0676C58.5514 30.2756 58.997 31.3995 58.997 31.952C58.997 32.4425 58.2568 35.1827 57.552 35.4987C57.0868 35.7092 50.7802 36.5019 48.8245 36.744L45.3915 37.5227C45.3637 37.5284 45.3359 37.5316 45.3075 37.5316C44.6305 37.5316 8.43667 37.7509 8.07131 37.7528C8.0239 37.7528 7.92529 37.7566 7.78497 37.7604C7.16044 37.7819 6.59976 37.7907 6.09787 37.7907ZM34.5496 22.7162C32.3758 22.7162 30.2816 22.9621 28.453 23.5848C26.0737 24.3939 21.9448 26.4577 21.0504 26.9254C20.1762 27.3831 19.07 27.4931 19.0232 27.4981C18.977 27.5032 13.6073 28.1315 10.7426 28.5474C2.55238 29.7377 2.24202 32.9026 2.26288 33.5246C2.22242 34.2136 2.48601 34.5973 2.718 34.9349C2.88424 35.177 3.04164 35.4052 3.03342 35.6833C3.03026 35.8034 3.02646 35.9165 2.44872 36.5189C2.41964 36.5594 2.41269 36.5923 2.41269 36.5923C2.46958 36.658 3.02899 37.1586 7.76031 37.0025C7.91265 36.9974 8.02011 36.9949 8.06878 36.9949C8.42719 36.9924 43.7146 36.7794 45.2645 36.7737L48.6747 36C48.6873 35.9968 48.6993 35.9955 48.7126 35.9936C51.7878 35.6131 56.8257 34.9532 57.2517 34.8028C57.5444 34.5575 58.2391 32.3951 58.2391 31.952C58.2391 31.6378 57.9445 30.7977 57.7593 30.342L57.0925 28.5386C57.0558 28.4393 57.0621 28.3306 57.1089 28.2364C57.2454 27.9646 57.3668 27.6492 57.4148 27.4551C57.1633 27.4033 56.6993 27.3439 56.2391 27.3439C55.5014 27.3439 52.8055 26.488 52.5002 26.39C52.3637 26.3382 42.8757 22.7162 34.5496 22.7162Z" fill="black"/>
<path d="M12.7597 31.9961C10.4702 31.9961 8.60742 33.8589 8.60742 36.1484C8.60742 38.4385 10.4702 40.302 12.7597 40.302C15.0492 40.302 16.912 38.4385 16.912 36.1484C16.912 33.8589 15.0492 31.9961 12.7597 31.9961Z" fill="black"/>
<path d="M15.1037 36.1485C15.1037 37.4437 14.0531 38.493 12.7592 38.493C11.464 38.493 10.4141 37.4437 10.4141 36.1485C10.4141 34.8534 11.464 33.8047 12.7592 33.8047C14.0531 33.8047 15.1037 34.8534 15.1037 36.1485Z" fill="white"/>
<path d="M47.8281 31.9961C45.5386 31.9961 43.6758 33.8589 43.6758 36.1484C43.6758 38.4385 45.5386 40.302 47.8281 40.302C50.1176 40.302 51.9804 38.4385 51.9804 36.1484C51.9804 33.8589 50.1176 31.9961 47.8281 31.9961Z" fill="black"/>
<path d="M50.172 36.1485C50.172 37.4437 49.1215 38.493 47.8275 38.493C46.5323 38.493 45.4824 37.4437 45.4824 36.1485C45.4824 34.8534 46.5323 33.8047 47.8275 33.8047C49.1215 33.8047 50.172 34.8534 50.172 36.1485Z" fill="white"/>
</g>
</svg>
