<svg fill="none" height="24" viewBox="0 0 24 24" width="24" xmlns="http://www.w3.org/2000/svg"><rect fill="#febe0c" height="18" rx="9" width="18" x="3" y="3"/><path d="m12 1c6.0751 0 11 4.92487 11 11 0 6.0751-4.9249 11-11 11-6.07513 0-11-4.9249-11-11 0-6.07513 4.92487-11 11-11zm-6.49609 15.1357c1.36722 2.1429 3.76574 3.5645 6.49609 3.5645v-3.5645zm-1.20118-3.916c.03529 1.2573.37205 2.4398.94043 3.4766h6.75684v-3.4766zm.94043-3.91599c-.57498 1.04891-.91284 2.24679-.9414 3.52049h15.39644c-.0285-1.2737-.3664-2.47158-.9414-3.52049zm6.75684-4.00391c-2.73036 0-5.12887 1.42156-6.49609 3.56446h12.99219c-1.3672-2.1429-3.7657-3.56446-6.4961-3.56446z" fill="#000"/></svg>