<svg fill="none" height="40" viewBox="0 0 40 40" width="40" xmlns="http://www.w3.org/2000/svg"><path d="m40 20c0 11.0457-8.9543 20-20 20s-20-8.9543-20-20 8.9543-20 20-20 20 8.9543 20 20z" fill="#febe0c"/><g fill="#000"><path d="m20 34v-6.48h-11.81098c2.48588 3.8962 6.84668 6.48 11.81098 6.48z"/><path d="m7.71528 26.7201h12.28472v-6.32h-13.99444c.06416 2.286.6763 4.4349 1.70972 6.32z"/><path d="m6.00354 19.6801h27.99286c-.052-2.3159-.6662-4.4929-1.7117-6.4h-24.56953c-1.04543 1.9071-1.6597 4.0841-1.71163 6.4z"/><path d="m8.189 12.48h23.6219c-2.4858-3.89618-6.8466-6.48-11.8109-6.48s-9.3251 2.58382-11.811 6.48z"/></g></svg>