<svg fill="none" height="14" viewBox="0 0 14 14" width="14" xmlns="http://www.w3.org/2000/svg"><path clip-rule="evenodd" d="m9.37994 3.53561c.25646.20983.29426.58785.08443.84431l-4.91983 6.01318-2.46881-2.46885c-.23431-.23432-.23431-.61422 0-.84853.23431-.23432.61421-.23432.84853 0l1.53119 1.53119 4.08017-4.98687c.20984-.25647.58785-.29427.84432-.08443zm2.99996 0c.2565.20983.2943.58785.0845.84431l-4.50003 5.5c-.20984.25648-.58785.29428-.84432.08444s-.29427-.58785-.08443-.84432l4.49998-5.5c.2099-.25647.5879-.29427.8443-.08443z" fill="#21201f" fill-rule="evenodd"/></svg>