<svg id="vector" xmlns="http://www.w3.org/2000/svg" width="16" height="17" viewBox="0 0 20 21">
    <path fill="#000000"
        d="M10,20.5C15.5228,20.5 20,16.0228 20,10.5C20,4.9771 15.5228,0.5 10,0.5C4.4771,0.5 0,4.9771 0,10.5C0,16.0228 4.4771,20.5 10,20.5ZM8.5,15.4913C8.5,14.6243 9.159,14 9.9913,14C10.841,14 11.5,14.6243 11.5,15.4913C11.5,16.3584 10.841,17 9.9913,17C9.159,17 8.5,16.3584 8.5,15.4913ZM9.1725,4.5H10.8277C11.1124,4.5 11.3396,4.7374 11.3272,5.0218L11.0211,12.0218C11.0094,12.2892 10.7892,12.5 10.5215,12.5H9.4788C9.2111,12.5 8.9909,12.2892 8.9792,12.0219L8.673,5.0219C8.6605,4.7374 8.8878,4.5 9.1725,4.5Z"
        id="path_0" />
</svg>
