<svg width="364" height="413" viewBox="0 0 364 413" fill="none" xmlns="http://www.w3.org/2000/svg">
<path d="M157.107 145.25L119.816 217.739C117.234 222.756 112.405 225.362 107.546 224.353L13.0482 204.817C7.1787 203.605 2.78429 197.478 2.62039 190.271L2.00464 163.304C1.87618 157.614 4.42334 152.399 8.57853 149.859C8.57853 149.859 123.551 123.387 130.399 121.799L157.107 145.25Z" fill="#00ACFF" stroke="#001D45" stroke-width="4" stroke-miterlimit="10" stroke-linecap="round" stroke-linejoin="round"/>
<path d="M96.0856 376.709L15.5466 355.028C13.243 354.409 11.3604 351.741 11.3604 349.1L11.4401 164.173C11.4401 161.532 13.3272 159.878 15.6263 160.497L96.1654 182.179C98.4689 182.798 100.352 185.465 100.352 188.107L100.272 373.033C100.272 375.678 98.3891 377.333 96.0856 376.709Z" fill="#00ACFF" stroke="#001D45" stroke-width="4" stroke-miterlimit="10" stroke-linecap="round" stroke-linejoin="round"/>
<path d="M11.5637 234.467L11.2935 348.656C10.9834 355.508 24.1046 357.335 24.1046 357.335" stroke="#001D45" stroke-width="4" stroke-miterlimit="10" stroke-linecap="round" stroke-linejoin="round"/>
<path d="M222.324 140.551C248.646 153.367 262.697 161.781 273.79 179.33C284.82 196.76 284.643 199.946 289.197 212.076C301.41 246.449 300.958 283.428 301.932 303.654C302.907 323.88 297.064 346.659 281.227 346.659C265.391 346.659 254.449 336.612 248.229 303.159C240.38 260.937 234.692 224.569 234.692 224.569" fill="#00ADFF"/>
<path d="M222.324 140.551C248.646 153.367 262.697 161.781 273.79 179.33C284.82 196.76 284.643 199.946 289.197 212.076C301.41 246.449 300.958 283.428 301.932 303.654C302.907 323.88 297.064 346.659 281.227 346.659C265.391 346.659 254.449 336.612 248.229 303.159C240.38 260.937 234.692 224.569 234.692 224.569" stroke="#001D45" stroke-width="4" stroke-linecap="round" stroke-linejoin="round"/>
<path d="M254.423 323.031C255.69 333.139 263.912 342.027 268.217 344.009C297.321 357.404 322.124 319.996 340.601 233.054L283.15 215.867C283.15 215.867 274.339 256.81 271.509 265.91" fill="#00ADFF"/>
<path d="M254.423 323.031C255.69 333.139 263.912 342.027 268.217 344.009C297.321 357.404 322.124 319.996 340.601 233.054L283.15 215.867C283.15 215.867 274.339 256.81 271.509 265.91" stroke="#001D45" stroke-width="4" stroke-linecap="round" stroke-linejoin="round"/>
<path d="M303.993 212.179C297.884 211.263 283.748 210.869 283.146 215.868C282.132 224.207 319.909 237.519 336.548 235.329C341.611 234.661 344.947 228.759 331.994 221.681C326.049 217.399 317.92 214.479 303.993 212.179Z" fill="#00ADFF" stroke="#001D45" stroke-width="4" stroke-linecap="round" stroke-linejoin="round"/>
<path d="M359.871 133.227L358.834 137.151L346.452 159.912L332.454 184.637L317.322 192.719L298.074 192.945L296.617 190.06L326.664 132.519L330.828 129.4L358.134 129.869L359.871 133.227Z" fill="#C0CDDC"/>
<path d="M304.111 227.836C304.111 227.496 307.753 221.435 307.753 221.435C306.783 219.882 306.158 218.139 305.919 216.326C305.684 214.512 305.844 212.667 306.384 210.915C308.205 204.855 309.706 203.138 309.706 203.138C309.706 203.138 296.882 199.502 294.822 196.852C292.762 194.202 292.089 190.676 292.089 190.676L295.526 189.07L298.255 192.963L310.047 193.649L324.161 197.285C324.161 197.285 318.774 189.398 313.738 187C308.696 184.598 301.374 182.195 301.493 179.103C301.613 176.011 305.719 173.848 305.719 173.848C305.719 173.848 317.401 177.847 321.197 179.908C324.994 181.965 329.215 184.943 329.215 184.943C329.215 184.943 329.672 181.505 327.151 178.997C324.635 176.489 316.391 172.366 315.129 169.844C313.866 167.327 318.446 162.642 318.446 162.642L336.423 172.702C336.423 172.702 338.7 168.013 338.483 164.929C338.27 161.846 334.017 156.922 334.708 153.723C335.399 150.525 337.442 148.003 340.197 149.605C342.957 151.206 348.326 162.642 347.985 166.986C347.644 171.326 342.257 184.483 342.257 184.483C342.257 184.483 343.165 188.597 342.022 191.003C340.879 193.41 337.924 196.038 337.924 196.038L333.796 209.07L326.814 223.364L323.244 234.207C323.244 234.207 313.162 233.203 309.387 230.69C305.626 228.168 304.111 227.836 304.111 227.836Z" fill="#FEE9DB"/>
<path d="M296.532 190.13C294.189 189.674 292.253 190.019 291.801 192.129C291.177 195.089 295.252 198.04 301.361 200.358C304.967 201.703 308.684 202.733 312.467 203.446" stroke="#001D45" stroke-width="4" stroke-linecap="round" stroke-linejoin="round"/>
<path d="M332.219 188.83C332.219 188.83 330.274 186.849 327.878 184.778C324.56 181.916 311.859 173.931 305.666 174.325C301.241 174.594 300.032 178.762 302.933 181.359C305.702 183.849 311.514 185.265 317.113 190.127C321.804 194.219 323.687 197.762 323.687 197.762C323.687 197.762 316.533 195.488 310.632 193.71" stroke="#001D45" stroke-width="4" stroke-linecap="round" stroke-linejoin="round"/>
<path d="M341.837 184.293C341.903 183.997 348.371 173.636 348.167 167.408C347.968 161.179 342.953 152.45 339.653 150.526C336.676 148.779 333.571 151.398 334.231 154.817C334.807 157.772 339.272 162.895 338.957 165.987C338.656 168.898 336.251 173.114 336.251 173.114" stroke="#001D45" stroke-width="4" stroke-linecap="round" stroke-linejoin="round"/>
<path d="M319.895 193.4H300.462C297.126 193.4 295.483 191.639 297.024 188.782L301.507 180.049" stroke="#001D45" stroke-width="4" stroke-linecap="round" stroke-linejoin="round"/>
<path d="M304.36 174.519L324.246 135.222C325.327 133.169 327.196 129.719 331.174 129.719H356.212C359.663 129.719 360.814 132.532 359.53 135.222L346.639 160.681" stroke="#001D45" stroke-width="4" stroke-linecap="round" stroke-linejoin="round"/>
<path d="M306.765 203.736C305.436 207.961 303.806 217.432 307.939 221.56L304.887 228.377C304.957 228.275 304.364 229.948 304.364 229.948C304.364 229.948 307.42 231.213 313.72 232.841C320.023 234.469 324.245 234.911 324.245 234.911L324.613 233.283C325.787 227.085 327.093 224.117 328.843 219.919C333.397 208.908 337.588 204.563 337.344 197.189C338.598 193.827 341.442 192.924 342.102 188.797C342.678 185.041 338.775 175.123 335.581 172.468C331.979 169.491 322.557 163.669 317.751 163.612C314.109 163.567 312.236 167.704 315.168 170.486C317.6 172.76 326.154 176.22 328.657 180.033C330.673 183.112 332.228 188.832 332.228 188.832" stroke="#001D45" stroke-width="4" stroke-linecap="round" stroke-linejoin="round"/>
<path d="M222.877 142.937C174.685 122.419 145.328 135.041 116.565 147.282C81.9944 161.991 87.3013 211.981 87.0488 234.467C87.0488 234.467 87.576 313.216 83.6379 344.515C79.6997 375.814 73.9409 402.897 73.9409 402.897C73.9409 402.897 101.251 407.502 163.951 411.833C228.87 416.315 251.759 406.436 251.759 406.436C251.759 406.436 255.755 330.629 254.816 270.805C252.14 214.095 247.223 186.8 247.223 186.8" fill="#00ADFF"/>
<path d="M251.764 406.437C251.764 406.437 255.759 330.63 254.82 270.806C252.145 214.096 247.228 186.801 247.228 186.801" stroke="#001D45" stroke-width="4" stroke-linecap="round" stroke-linejoin="round"/>
<path d="M222.877 142.937C174.685 122.419 145.328 135.041 116.565 147.282C81.9946 161.991 87.3015 211.981 87.049 234.467C87.049 234.467 87.7977 306.359 83.638 344.515C79.4784 382.671 74.1626 402.897 74.1626 402.897" stroke="#001D45" stroke-width="4" stroke-linecap="round" stroke-linejoin="round"/>
<path d="M208.152 324.998C207.182 382.411 204.249 404.61 204.249 404.61" stroke="#001D45" stroke-width="4" stroke-linecap="round" stroke-linejoin="round"/>
<path d="M225.553 378.461C241.748 376.47 248.083 373.037 248.083 373.037" stroke="#001D45" stroke-width="4" stroke-linecap="round" stroke-linejoin="round"/>
<path d="M115.321 374.256C128.796 376.782 151.987 379.312 173.392 379.193" stroke="#001D45" stroke-width="4" stroke-linecap="round" stroke-linejoin="round"/>
<path d="M198.03 170.631C201.065 184.531 207.142 222.647 207.142 263.89" stroke="#001D45" stroke-width="4" stroke-linecap="round"/>
<path d="M155.082 132.297C164.589 130.797 174.091 129.798 184.098 132.297C197.069 135.071 209.844 137.469 222.319 140.893L220.068 125.391L181.879 81.0201L139.932 71.0708C139.932 71.0708 129.744 70.7655 117.85 85.5545C103.679 103.131 106.948 128.696 106.948 128.696L105.597 128.979C108.729 135.252 113.101 141.22 114.43 148.055C115.13 147.856 115.843 147.604 116.569 147.281C129.571 141.786 141.075 134.292 155.082 132.297Z" fill="#00ADFF"/>
<path d="M217.791 126.906C225.131 138.531 219.869 151.423 215.009 157.488C197.192 179.731 166.502 165.406 151.233 157.488C151.233 157.488 126.82 165.017 114.673 148.335C108.334 136.943 104.644 118.58 109.535 101.636C114.403 84.7992 125.54 74.1156 138.258 70.4438C172.341 60.6051 210.207 111.776 217.791 126.906Z" fill="#00ADFF"/>
<path d="M114.169 146.335C107.829 134.944 104.636 118.58 109.531 101.636C114.399 84.7992 125.536 74.1156 138.254 70.4438C172.341 60.6051 210.208 111.776 217.787 126.906C225.127 138.531 219.865 151.423 215.005 157.488C197.188 179.731 166.498 165.406 151.229 157.488" stroke="#001D45" stroke-width="4" stroke-linecap="round" stroke-linejoin="round"/>
<path d="M155.765 97.1623V111.916L153.86 129.895C153.86 129.895 164.921 137.849 177.148 144.688C192.098 148.78 200.09 145.688 200.09 145.688C200.09 145.688 197.427 142.848 200.847 136.004C204.267 129.16 210.593 130.832 210.593 130.832C210.593 130.832 212.941 131.394 220.489 123.754C226.917 117.238 231.812 107.868 233.854 90.3452C236.384 68.7921 236.951 53.5828 236.951 53.5828C236.951 53.5828 223.462 56.3566 209.547 55.7196C195.633 55.0825 181.71 48.2344 181.71 48.2344L167.973 66.3103L163.486 75.9853C163.486 75.9853 160.088 75.1757 157.306 81.8027C154.524 88.4296 160.686 97.2729 160.686 97.2729L155.765 97.1623Z" fill="#FEE9DB"/>
<path d="M248.858 62.4465L241.478 56.2752C241.402 57.5802 241.274 58.8853 241.088 60.177C240.073 66.3926 234.656 75.7225 234.656 75.7225C234.762 71.7808 234.66 67.8392 234.345 63.9108C233.84 56.9697 232.892 56.6556 232.892 56.6556C232.892 56.6556 219.306 62.8712 207.261 64.5301C195.217 66.1891 182.561 64.6363 182.561 64.6363L192.838 54.5808H186.388L172.483 56.7618L172.186 77.3947L164.186 77.6911C164.186 77.6911 158.794 78.6997 156.3 83.6987C153.806 88.6977 157.962 95.6166 157.962 95.6166L153.806 99.0363C153.806 99.0363 148.008 97.2977 144.163 92.3253C140.322 87.3528 141.359 75.5323 141.359 75.5323C141.359 75.5323 134.594 63.1012 134.2 46.0029C133.806 28.9047 145.842 24.1358 145.842 24.1358C145.842 24.1358 148.437 14.8058 165.869 5.89175C183.3 -3.01792 209.662 7.85595 209.972 7.96655C210.283 8.07272 219.519 9.95286 226.784 12.01C234.049 14.0671 240.795 20.1764 243.077 29.1967C243.816 32.342 243.954 35.6024 243.475 38.8009C244.654 40.5837 245.655 42.4771 246.47 44.4546C248.942 50.4091 248.858 62.4465 248.858 62.4465Z" fill="#001D45"/>
<path d="M140.291 78.1602C134.293 80.8985 128.65 86.6097 131.361 99.262C134.258 112.733 142.648 122.447 156.035 132.72C168.797 142.505 185.897 149.906 200.325 145.102C200.998 141.311 201.995 134.135 206.651 130.698" stroke="#001D45" stroke-width="4" stroke-linecap="round" stroke-linejoin="round"/>
<path d="M155.322 100.293C156.478 104.575 156.988 109.004 156.842 113.436C156.368 124.111 153.001 130.247 153.001 130.247" stroke="#001D45" stroke-width="4" stroke-linecap="round" stroke-linejoin="round"/>
<path d="M170.738 96.6292C167.849 97.6644 164.678 97.5936 161.838 96.4301C153.957 93.2184 154.245 81.9597 159.893 78.456C162.37 76.9386 165.121 77.6376 167.145 78.1905C170.348 79.0665 173.015 76.8457 173.387 69.3649C173.799 61.0259 174.166 57.0754 174.166 57.0754C174.166 57.0754 178.72 53.9212 193.011 53.877C187.19 61.2073 182.636 64.4013 182.636 64.4013C182.636 64.4013 217.278 69.3782 233.708 56.6198C234.807 63.9324 235.25 74.9213 233.602 87.9584C231.75 102.619 226.815 125.464 211.563 129.821C200.874 132.856 191.505 128.808 184.913 123.15C178.747 117.833 175.535 109.37 175.535 109.37" stroke="#001D45" stroke-width="4" stroke-linecap="round" stroke-linejoin="round"/>
<path d="M154.901 98.8361C138.196 95.8589 140.85 75.1331 140.85 75.1331C140.85 75.1331 130.537 53.0182 136.553 34.0176C139.419 24.9885 145.922 23.8295 145.922 23.8295C145.922 23.8295 150.13 13.022 163.318 6.77105C188.187 -5.00971 211.089 8.73525 211.089 8.73525C211.089 8.73525 230.368 7.41251 239.33 22.3829C241.611 26.2007 243.644 31.7084 243.507 37.5877C249.85 51.6556 248.863 62.441 248.863 62.441C248.863 62.441 244.251 59.4991 242.045 56.5351C241.801 59.6893 241.292 62.8126 240.526 65.8828C238.337 74.0404 235.05 77.4423 235.05 77.4423" stroke="#001D45" stroke-width="4" stroke-linecap="round" stroke-linejoin="round"/>
<path d="M154.892 98.84L158.041 95.7168" stroke="#001D45" stroke-width="4" stroke-linecap="round" stroke-linejoin="round"/>
<path d="M185.719 77.8602C184.798 77.1612 189.338 72.0207 196.023 71.1182C199.208 70.6449 202.46 70.8262 205.556 71.6579C206.132 71.8128 206.619 72.1799 206.912 72.6798C207.204 73.1797 207.279 73.7725 207.12 74.3255C206.765 75.4492 205.773 75.9446 204.471 75.6925C201.684 75.0377 198.796 74.8652 195.943 75.1926C189.179 75.9402 186.636 78.5547 185.719 77.8602Z" fill="#001D45"/>
<path d="M223.094 74.568C221.088 74.6476 219.099 75.1121 217.242 75.9349C217.021 76.0278 216.786 76.0765 216.547 76.0765C216.308 76.0765 216.077 76.0323 215.86 75.9394C215.643 75.8465 215.453 75.7137 215.293 75.5456C215.134 75.3775 215.014 75.1785 214.939 74.9573C214.717 74.4662 214.695 73.9088 214.873 73.3868C215.054 72.8648 215.422 72.4224 215.909 72.1481C217.07 71.3518 220.078 70.1662 224.375 70.728C229.07 71.3474 230.895 74.3954 230.421 75.1298C230.009 75.7668 227.281 74.307 223.094 74.568Z" fill="#001D45"/>
<path d="M212.365 100.457C212.051 100.448 211.741 100.368 211.461 100.231C211.182 100.09 210.943 99.895 210.757 99.6472C210.057 98.7359 210.367 97.5459 211.227 96.7319C211.887 96.1037 213.043 95.1968 213.007 93.4494C212.963 91.2507 209.632 88.9238 210.039 88.3619C210.544 87.6364 217.047 90.2421 217.26 93.852C217.455 97.0504 214.708 99.3375 214.115 99.7799C213.623 100.187 213.007 100.426 212.365 100.457Z" fill="#001D45"/>
<path d="M201.184 82.9436C201.335 80.422 199.908 78.3251 197.999 78.2631C196.085 78.2012 194.415 80.1919 194.265 82.7135C194.114 85.2351 195.541 87.332 197.45 87.394C199.359 87.4603 201.034 85.4696 201.184 82.9436Z" fill="#001D45"/>
<path d="M213.145 112.228C215.661 111.688 217.291 110.184 216.786 108.866C216.281 107.547 213.832 106.915 211.315 107.45C208.799 107.99 207.165 109.494 207.67 110.812C208.179 112.135 210.629 112.768 213.145 112.228Z" fill="#001D45"/>
<path d="M224.715 82.5803C224.866 80.0587 223.44 77.9618 221.53 77.8998C219.621 77.8379 217.947 79.8286 217.796 82.3503C217.645 84.8719 219.072 86.9688 220.981 87.0307C222.89 87.0926 224.56 85.1019 224.715 82.5803Z" fill="#001D45"/>
<path d="M114.811 147.533C82.5792 166.786 69.3428 195.815 84.3512 239.78C94.1013 268.34 120.233 316.755 151.685 331.796C177.325 344.059 214.899 311.022 195.354 278.427C181.192 254.803 160.336 218.974 160.336 218.974" fill="#00ADFF"/>
<path d="M114.811 147.533C82.5792 166.786 69.3428 195.815 84.3512 239.78C94.1013 268.34 120.233 316.755 151.685 331.796C177.325 344.059 214.899 311.022 195.354 278.427C181.192 254.803 160.336 218.974 160.336 218.974" stroke="#001D45" stroke-width="4" stroke-linecap="round" stroke-linejoin="round"/>
<path d="M147.831 277.425C151.055 253.062 163.339 181.502 163.339 181.502L229.375 190.496C220.369 238.455 210.163 308.347 184.851 326.998" fill="#00ADFF"/>
<path d="M147.831 277.425C151.055 253.062 163.339 181.502 163.339 181.502L229.375 190.496C220.369 238.455 210.163 308.347 184.851 326.998" stroke="#001D45" stroke-width="4" stroke-linecap="round" stroke-linejoin="round"/>
<path d="M229.457 190.576C229.93 187.284 215.509 182.493 197.246 179.875C178.983 177.257 163.794 177.803 163.321 181.095C162.848 184.386 177.269 189.177 195.532 191.795C213.795 194.413 228.984 193.867 229.457 190.576Z" fill="#00ADFF" stroke="#001D45" stroke-width="4" stroke-linecap="round" stroke-linejoin="round"/>
<path d="M209.614 175.856C213.876 169.406 220.458 160.028 225.867 153.533C228.773 150.047 213.256 128.552 201.353 134.551C188.284 141.133 184.838 140.182 182.415 144.619C177.547 153.538 178.619 160.112 177.547 168.827C175.925 182.014 176.439 180.957 174.831 187.482C174.831 187.482 190.105 192.065 204.343 193.034C204.347 193.025 205.096 182.691 209.614 175.856Z" fill="#FEE9DB" stroke="#001D45" stroke-width="4" stroke-linecap="round" stroke-linejoin="round"/>
<path d="M219.615 147.63C224.869 142.737 229.37 134.35 229.37 134.35C229.37 134.35 231.873 144.414 228.369 150.01C224.865 155.602 215.863 166.52 215.863 166.52" fill="#FEE9DB"/>
<path d="M219.615 147.63C224.869 142.737 229.37 134.35 229.37 134.35C229.37 134.35 231.873 144.414 228.369 150.01C224.865 155.602 215.863 166.52 215.863 166.52" stroke="#001D45" stroke-width="4" stroke-linecap="round" stroke-linejoin="round"/>
<path d="M215.133 143.3C219.363 139.385 229.906 125.645 229.906 125.645C229.906 125.645 233.375 130.714 231.373 136.169C229.37 141.624 219.749 151.891 217.308 154.307" fill="#FEE9DB"/>
<path d="M215.133 143.3C219.363 139.385 229.906 125.645 229.906 125.645C229.906 125.645 233.375 130.714 231.373 136.169C229.37 141.624 219.749 151.891 217.308 154.307" stroke="#001D45" stroke-width="4" stroke-linecap="round" stroke-linejoin="round"/>
<path d="M206.211 138.228C209.405 135.53 219.359 129.876 221.835 125.386C224.312 120.896 227.785 115.609 229.791 116.826C231.798 118.042 232.321 121.395 230.354 127.562C228.626 132.986 214.978 146.107 213.219 147.802" fill="#FEE9DB"/>
<path d="M206.211 138.228C209.405 135.53 219.359 129.876 221.835 125.386C224.312 120.896 227.785 115.609 229.791 116.826C231.798 118.042 232.321 121.395 230.354 127.562C228.626 132.986 214.978 146.107 213.219 147.802" stroke="#001D45" stroke-width="4" stroke-linecap="round" stroke-linejoin="round"/>
<path d="M193.365 138.84C195.854 136.026 207.673 128.634 213.233 124.918C218.367 121.485 225.977 112.735 227.678 110.12C229.375 107.506 234.877 111.421 229.876 119.246C224.874 127.077 220.87 129.873 217.37 132.668C213.866 135.464 207.363 141.056 207.363 141.056" fill="#FEE9DB"/>
<path d="M193.365 138.84C195.854 136.026 207.673 128.634 213.233 124.918C218.367 121.485 225.977 112.735 227.678 110.12C229.375 107.506 234.877 111.421 229.876 119.246C224.874 127.077 220.87 129.873 217.37 132.668C213.866 135.464 207.363 141.056 207.363 141.056" stroke="#001D45" stroke-width="4" stroke-linecap="round" stroke-linejoin="round"/>
<path d="M175.846 181.503C179.846 161.52 174.344 150.027 180.346 135.539C183.514 127.899 182.349 123.051 181.848 119.551C181.348 116.052 189.228 113.557 190.792 123.546C192.356 133.535 192.856 136.066 192.856 139.547" fill="#FEE9DB"/>
<path d="M175.846 181.503C179.846 161.52 174.344 150.027 180.346 135.539C183.514 127.899 182.349 123.051 181.848 119.551C181.348 116.052 189.228 113.557 190.792 123.546C192.356 133.535 192.856 136.066 192.856 139.547" stroke="#001D45" stroke-width="4" stroke-linecap="round" stroke-linejoin="round"/>
<path d="M132.969 175.311C132.969 175.311 149.47 197.31 155.145 227.251" stroke="#001D45" stroke-width="4" stroke-linecap="round" stroke-linejoin="round"/>
<path d="M359.857 47.595C359.857 47.595 341.242 52.9151 336.805 49.8557C332.368 46.8038 330.708 27.543 330.708 27.543" stroke="#FF8204" stroke-width="4" stroke-linecap="round" stroke-linejoin="round"/>
<path d="M328.527 92.9972C328.527 92.9972 326.867 73.7364 322.438 70.677C318.008 67.6251 299.378 72.9452 299.378 72.9452" stroke="#FF8204" stroke-width="4" stroke-linecap="round" stroke-linejoin="round"/>
<path d="M341.921 90.194C341.921 90.194 336.593 71.6038 339.657 67.173C342.713 62.7421 362 61.0918 362 61.0918" stroke="#FF8204" stroke-width="4" stroke-linecap="round" stroke-linejoin="round"/>
<path d="M296.458 58.9203C296.458 58.9203 315.745 57.2625 318.808 52.8316C321.872 48.4007 316.537 29.8105 316.537 29.8105" stroke="#FF8204" stroke-width="4" stroke-linecap="round" stroke-linejoin="round"/>
<path d="M284.694 19.6387L269.354 87.7146" stroke="#FF8204" stroke-width="4" stroke-linecap="round" stroke-linejoin="round"/>
<path d="M265.52 107.283C266.695 107.283 267.648 106.332 267.648 105.158C267.648 103.985 266.695 103.033 265.52 103.033C264.345 103.033 263.392 103.985 263.392 105.158C263.392 106.332 264.345 107.283 265.52 107.283Z" stroke="#FF8204" stroke-width="4" stroke-linecap="round" stroke-linejoin="round"/>
</svg>
