<svg id="vector" xmlns="http://www.w3.org/2000/svg" width="60" height="60" viewBox="0 0 60 60">
    <path fill="#00000000" fill-opacity="0" d="M30,30m-29,0a29,29 0,1 1,58 0a29,29 0,1 1,-58 0" stroke-width="2"
        stroke="#00C000" id="path_0" />
    <path fill="#00C000"
        d="M37.7157,22.386C38.0571,21.9518 38.6857,21.8765 39.1199,22.2178C39.5541,22.5591 39.6294,23.1877 39.2881,23.6219L28.665,37.1363C28.6025,37.2159 28.532,37.289 28.4547,37.3544C27.8223,37.8895 26.8758,37.8106 26.3407,37.1782L21.2366,31.1462C20.8799,30.7246 20.9325,30.0936 21.3541,29.7368C21.7757,29.3801 22.4067,29.4327 22.7634,29.8543L27.4715,35.4184L37.7157,22.386Z"
        id="path_1" />
</svg>
