<svg width="24" height="24" viewBox="0 0 24 24" fill="none" xmlns="http://www.w3.org/2000/svg">
<path d="M23.7202 11.9965C23.7202 11.7578 23.6427 11.5291 23.4104 11.2904L20.2831 7.95891C20.1185 7.78985 19.9346 7.6904 19.7022 7.6904C19.2472 7.6904 18.918 8.0683 18.918 8.52576C18.918 8.75449 19.0148 8.98322 19.1891 9.14233L20.622 10.5346L21.3385 11.1711L19.9055 11.0716H10.8751C10.391 11.0716 9.98438 11.4893 9.98438 11.9965C9.98438 12.5136 10.391 12.9313 10.8751 12.9313H19.9055L21.3385 12.8318L20.622 13.4683L19.1891 14.8606C19.0148 15.0197 18.918 15.2584 18.918 15.4871C18.918 15.9445 19.2472 16.3125 19.7022 16.3125C19.9346 16.3125 20.1185 16.2131 20.2831 16.044L23.4104 12.7026C23.6427 12.4639 23.7202 12.2451 23.7202 11.9965Z" fill="white"/>
<path fill-rule="evenodd" clip-rule="evenodd" d="M7.5 5H13.5C14.3284 5 15 5.67157 15 6.5V9H17V6.5C17 4.567 15.433 3 13.5 3H7.5C5.567 3 4 4.567 4 6.5V17.5C4 19.433 5.567 21 7.5 21H13.5C15.433 21 17 19.433 17 17.5V15H15V17.5C15 18.3284 14.3284 19 13.5 19H7.5C6.67157 19 6 18.3284 6 17.5V6.5C6 5.67157 6.67157 5 7.5 5Z" fill="white"/>
</svg>
