<svg fill="none" height="24" viewBox="0 0 24 24" width="24" xmlns="http://www.w3.org/2000/svg" xmlns:xlink="http://www.w3.org/1999/xlink"><clipPath id="a"><path d="m0 0h24v24h-24z"/></clipPath><g clip-path="url(#a)" clip-rule="evenodd" fill-rule="evenodd"><path d="m7.73512 6.25575c-.7019.33563-1.32091.75821-1.85702 1.25338l-1.50794-.50263-.99288-2.31665c-.39151-.91348-1.28973-1.50576-2.28358-1.50576l1.09215 5.46058 2.01297 1.15023c-.34688.7183-.59578 1.5001-.74671 2.3272l-3.45211.3452v1.6381l3.28227.3283c.02076.749.11289 1.4739.27637 2.163l-1.37386.7851-1.09216 5.4606c.99385 0 1.89207-.5923 2.28358-1.5058l.99288-2.3166.12872-.0429c1.36326 2.3321 3.86898 3.865 7.5172 3.865 3.6478 0 6.1534-1.5326 7.5167-3.8644l.127.0424.9929 2.3166c.3915.9135 1.2897 1.5058 2.2835 1.5058l-1.0921-5.4606-1.372-.784c.1637-.6895.2559-1.4148.2767-2.1644l3.279-.3279v-1.6382l-3.4488-.3448c-.151-.8277-.4001-1.61-.7473-2.32872l2.0102-1.14867 1.0922-5.46058c-.9939 0-1.8921.59228-2.2836 1.50576l-.9929 2.31665-1.5051.5017c-.5367-.49561-1.1564-.91847-1.8592-1.25421.059-.28614.09-.5825.09-.88609 0-2.41264-1.9559-4.368471-4.3686-4.368471-2.41276 0-4.36865 1.955831-4.36865 4.368471 0 .30402.03106.60079.09017.88731z" fill="#fcda30"/><path d="m18.5677 14.1053c0 3.619-2.9338 6.5527-6.5529 6.5527-3.61905 0-6.55289-2.9337-6.55289-6.5527 0-3.6189 2.93384-6.55266 6.55289-6.55266 3.6191 0 6.5529 2.93376 6.5529 6.55266zm-2.1843-3.297s-1.4248 1.3188-1.4248 3.297c0 1.9781 1.4248 3.2969 1.4248 3.2969l-1.0715 1.0715s-1.3424-1.4247-3.2971-1.4247-3.29703 1.4247-3.29703 1.4247l-1.07155-1.0715s1.4248-1.3188 1.4248-3.2969c0-1.9782-1.4248-3.297-1.4248-3.297l1.07155-1.07151s1.35413 1.42471 3.29703 1.42471 3.2971-1.42471 3.2971-1.42471z" fill="#000"/></g></svg>