<svg fill="none" height="24" viewBox="0 0 24 24" width="24" xmlns="http://www.w3.org/2000/svg"><g fill="#21201f"><path d="m13 8v8h2v-8z"/><path d="m9 16v-5h2v5z"/><path clip-rule="evenodd" d="m10 2h4c1.8638 0 2.7957 0 3.5307.30448.9801.40598 1.7588 1.18467 2.1648 2.16479.3045.73508.3045 1.66696.3045 3.53073v8c0 1.8638 0 2.7956-.3045 3.5307-.406.9801-1.1847 1.7588-2.1648 2.1648-.735.3045-1.6669.3045-3.5307.3045h-4c-1.86377 0-2.79565 0-3.53073-.3045-.98012-.406-1.75881-1.1847-2.16479-2.1648-.30448-.7351-.30448-1.6669-.30448-3.5307v-8c0-1.86377 0-2.79565.30448-3.53073.40598-.98012 1.18467-1.75881 2.16479-2.16479.73508-.30448 1.66696-.30448 3.53073-.30448zm4 2h-4c-.95925 0-1.57852.00108-2.05248.03342-.456.03111-.62966.08435-.71289.11882-.49005.20299-.8794.59234-1.08239 1.08239-.03447.08323-.08771.25689-.11882.71289-.03234.47396-.03342 1.09323-.03342 2.05248v8c0 .9592.00108 1.5785.03342 2.0525.03111.456.08435.6296.11882.7129.20299.49.59234.8794 1.08239 1.0824.08323.0344.25689.0877.71289.1188.47396.0323 1.09323.0334 2.05248.0334h4c.9592 0 1.5785-.0011 2.0525-.0334.456-.0311.6296-.0844.7129-.1188.49-.203.8794-.5924 1.0824-1.0824.0344-.0833.0877-.2569.1188-.7129.0323-.474.0334-1.0933.0334-2.0525v-8c0-.95925-.0011-1.57852-.0334-2.05248-.0311-.456-.0844-.62966-.1188-.71289-.203-.49005-.5924-.8794-1.0824-1.08239-.0833-.03447-.2569-.08771-.7129-.11882-.474-.03234-1.0933-.03342-2.0525-.03342z" fill-rule="evenodd"/></g></svg>