<svg width="24" height="24" viewBox="0 0 24 24" fill="none" xmlns="http://www.w3.org/2000/svg">
<path d="M6.65265 16.8358C8.4501 18.6235 11.1755 21.7895 13.9124 21.7895C19.1924 21.7895 20.0177 17.1579 19.8071 13.7895C19.5703 10 21.2808 8.52635 21.0703 7.47372C19.5966 6.42108 16.9426 7.92163 17.4913 11.6842C17.4913 11.6842 15.5966 12.5263 14.544 15.0527C13.9124 12.7369 16.2282 11.2632 16.2282 11.2632C14.6181 8.7077 12.3116 4.19129 11.5966 2.6316C10.8816 1.07191 8.85976 2.00003 9.49134 3.47371C10.007 4.67693 12.8598 10.4211 12.8598 10.4211L12.2282 10.8421C12.2282 10.8421 8.01765 4.9474 7.17555 3.68424C6.33344 2.42108 4.33344 3.89476 5.28081 5.15792C6.22818 6.42108 10.3334 12.3158 10.3334 12.3158L9.91239 12.7369C9.91239 12.7369 5.91239 8.31581 4.85976 7.26318C3.80713 6.21056 2.54397 7.68424 3.38607 8.73687C4.07981 9.60403 8.43871 14.2106 8.43871 14.2106L8.01765 14.8421C8.01765 14.8421 5.07029 12.5263 3.80713 11.4737C2.54397 10.4211 1.28081 11.6842 2.54397 12.9474C3.80713 14.2105 4.85976 15.0527 6.65265 16.8358Z" fill="#1CC052"/>
</svg>
