<svg fill="none" height="24" viewBox="0 0 24 24" width="24" xmlns="http://www.w3.org/2000/svg"><path clip-rule="evenodd" d="m3.163 3.819c-.163.32-.163.74-.163 1.581v11.6c0 1.4 0 2.1.272 2.635.2399.4703.62251.8525 1.093 1.092.535.273 1.235.273 2.635.273h12c.7956 0 1.5587-.3161 2.1213-.8787s.8787-1.3257.8787-2.1213v-9.94c0-.28113-.1117-.55074-.3105-.74953s-.4684-.31047-.7495-.31047h-2.94v-1.6c0-.84 0-1.26-.163-1.581-.1439-.28249-.3735-.51215-.656-.656-.32-.163-.74-.163-1.581-.163h-10.2c-.84 0-1.26 0-1.581.163-.28249.14385-.51215.37351-.656.656zm14.837 5.181v9c0 .2652.1054.5196.2929.7071s.4419.2929.7071.2929.5196-.1054.7071-.2929.2929-.4419.2929-.7071v-9zm-12.951 9.644c-.03-.155-.049-.422-.049-.849v-12.795h11v13c0 .35.06.687.17 1h-9.964c-.427 0-.694-.019-.849-.049-.04754-.007-.09313-.0237-.134-.049-.05376-.0267-.09731-.0702-.124-.124-.02528-.0409-.04196-.0865-.049-.134zm1.951-6.894c0-.1989.07902-.3897.21967-.5303.14065-.1407.33142-.2197.53033-.2197h5.5c.1989 0 .3897.079.5303.2197.1407.1406.2197.3314.2197.5303v4.5c0 .1989-.079.3897-.2197.5303-.1406.1407-.3314.2197-.5303.2197h-5.5c-.19891 0-.38968-.079-.53033-.2197-.14065-.1406-.21967-.3314-.21967-.5303zm1-4.75c-.26522 0-.51957.10536-.70711.29289-.18753.18754-.29289.44189-.29289.70711s.10536.51957.29289.70711c.18754.18753.44189.29289.70711.29289h5c.2652 0 .5196-.10536.7071-.29289.1875-.18754.2929-.44189.2929-.70711s-.1054-.51957-.2929-.70711c-.1875-.18753-.4419-.29289-.7071-.29289z" fill="#21201f" fill-rule="evenodd"/></svg>