<svg fill="none" height="20" viewBox="0 0 20 20" width="20" xmlns="http://www.w3.org/2000/svg"><path d="m13.228 8.26596-.0696-.09654c3.5521-2.92033 3.1574-3.35476 3.1574-3.35476-.3482-.38616-.7197-.72405-1.1144-1.01367-.5572-.41029-1.1608-.74818-1.8109-.96539-2.6931-1.01367-5.89703-.21722-7.82402 1.97906-2.57706 2.87206-2.6235 7.43354-.02322 10.35394 2.73958 3.0651 7.40614 3.2582 10.35464.4344l.0465-.0483.0464-.0482.0232-.0242c.0465-.0483.0929-.0965.1161-.1448.8358-1.1102-.4179-4.1271-2.9021-7.07154zm2.2753 6.51644c-.1858.1931-.9751.2172-2.2521-.4827-1.184-.6516-2.5074-1.7618-3.76109-3.1134-.20895.1689 3.27359-2.67899 3.11109-2.53418 1.0912 1.30329 2.0198 2.72728 2.5074 3.90988.5804 1.3757.5572 2.0515.3947 2.2204z" fill="#21201f"/></svg>