<svg fill="none" height="25" viewBox="0 0 24 25" width="24" xmlns="http://www.w3.org/2000/svg"><path clip-rule="evenodd" d="m3.28252 5.51719c.56709-.31202 1.22381-.49033 1.9238-.49033h13.58738c2.144 0 3.8821 1.67289 3.8821 3.73652v7.47302c0 2.0637-1.7381 3.7365-3.8821 3.7365h-13.58738c-2.14402 0-3.8821-1.6728-3.8821-3.7365v-7.47302c0-1.38988.78843-2.60253 1.9583-3.24619zm.19339 2.76007c-.13536.29106-.21064.61366-.21064.95318v6.53896c0 .3792.0939.7372.26053 1.0538l.45158-.4619c1.29514-1.325 1.94282-1.9876 2.18546-2.7516.21343-.672.21343-1.3959 0-2.0679-.24264-.764-.89026-1.4265-2.18546-2.75152zm1.42653 9.70114c.2474.0818.51288.1263.78914.1263h7.38922l-.4506-.461c-1.2952-1.325-1.9429-1.9876-2.68967-2.2359-.65687-.2183-1.36447-.2183-2.02133 0-.74678.2483-1.39439.9108-2.68958 2.2359zm10.68436.1263h2.7216c1.34 0 2.4263-1.0456 2.4263-2.3353v-6.53896c0-1.28976-1.0863-2.33532-2.4263-2.33532h-2.5734l-1.8524 1.89508c-1.2952 1.3251-1.9428 1.9876-2.1854 2.7516-.2135.672-.2135 1.3959 0 2.0679.2426.764.8902 1.4265 2.1854 2.7515zm-2.3561-11.20958-.6008.61465c-1.295 1.32474-1.9425 1.98716-2.68917 2.23535-.6569.21836-1.36446.21836-2.02137 0-.74672-.24821-1.39443-.91084-2.68958-2.23581l-.43817-.44827c.27829-.10705.58199-.16592.89997-.16592z" fill="#e0deda" fill-rule="evenodd"/></svg>