<svg width="28" height="29" viewBox="0 0 28 29" fill="none" xmlns="http://www.w3.org/2000/svg">
<path d="M23.0653 8.935L23.077 8.92333L18.737 4.58333L17.5003 5.82L19.962 8.28167C18.8653 8.70167 18.0837 9.75167 18.0837 11C18.0837 12.61 19.3903 13.9167 21.0003 13.9167C21.4203 13.9167 21.8053 13.8233 22.167 13.6717V22.0833C22.167 22.725 21.642 23.25 21.0003 23.25C20.3587 23.25 19.8337 22.725 19.8337 22.0833V16.8333C19.8337 15.55 18.7837 14.5 17.5003 14.5H16.3337V6.33333C16.3337 5.05 15.2837 4 14.0003 4H7.00033C5.71699 4 4.66699 5.05 4.66699 6.33333V25H16.3337V16.25H18.0837V22.0833C18.0837 23.6933 19.3903 25 21.0003 25C22.6103 25 23.917 23.6933 23.917 22.0833V11C23.917 10.195 23.5903 9.46 23.0653 8.935ZM14.0003 12.1667H7.00033V6.33333H14.0003V12.1667ZM21.0003 12.1667C20.3587 12.1667 19.8337 11.6417 19.8337 11C19.8337 10.3583 20.3587 9.83333 21.0003 9.83333C21.642 9.83333 22.167 10.3583 22.167 11C22.167 11.6417 21.642 12.1667 21.0003 12.1667Z" fill="#303540"/>
</svg>
