<svg width="26" height="26" viewBox="0 0 26 26" fill="none" xmlns="http://www.w3.org/2000/svg">
<g clip-path="url(#clip0_6091_119582)">
<path fill-rule="evenodd" clip-rule="evenodd" d="M3 14.6001C3 22.5379 9.66664 25.5075 13 26.0001V0.244629C12.9356 0.244629 12.8898 0.244629 12.8465 0.254903C12.7404 0.280084 12.6489 0.366981 12.3333 0.666849C11.857 1.19469 11.3914 1.70738 10.9383 2.20627C6.31751 7.29429 3 10.9472 3 14.6001ZM23 14.6001C23 22.5379 16.3334 25.5075 13 26.0001V24.7146C14.7038 24.4714 18.1111 23.0054 18.1111 19.0868C18.1111 17.2835 16.4155 15.4802 14.0537 12.9684L14.0535 12.9682C13.822 12.722 13.5841 12.4689 13.3407 12.2084L13.3407 12.2084C13.1799 12.0608 13.1329 12.0177 13.0789 12.0052C13.0566 12 13.0332 12 13 12V0.244629C13.0644 0.244629 13.1102 0.244629 13.1535 0.254903C13.2596 0.280084 13.3511 0.366981 13.6667 0.666849C14.143 1.19469 14.6086 1.70738 15.0617 2.20627C19.6825 7.29428 23 10.9472 23 14.6001ZM7.88867 19.0868C7.88867 23.0054 11.2961 24.4714 12.9998 24.7146V12C12.9666 12 12.9431 12 12.9209 12.0052C12.8668 12.0177 12.8199 12.0608 12.659 12.2084L12.659 12.2084C12.4158 12.4688 12.1781 12.7216 11.9467 12.9677L11.946 12.9684C9.58429 15.4802 7.88867 17.2835 7.88867 19.0868Z" fill="black"/>
</g>
<defs>
<clipPath id="clip0_6091_119582">
<rect width="26" height="26" fill="white"/>
</clipPath>
</defs>
</svg>
