<svg width="46" height="46" viewBox="0 0 46 46" fill="none" xmlns="http://www.w3.org/2000/svg">
    <g clip-path="url(#clip0_3_756)">
        <path fill-rule="evenodd" clip-rule="evenodd" d="M16.4713 13.7281C16.1962 10.5842 18.5219 7.81255 21.6658 7.53749C24.8097 7.26243 27.5813 9.58809 27.8564 12.732L28.3544 18.4245L16.9693 19.4206L16.4713 13.7281ZM13.1952 19.9917L12.6763 14.0601C12.2178 8.82025 16.0939 4.20089 21.3338 3.74246C26.5736 3.28404 31.193 7.16014 31.6514 12.4L32.1704 18.3316C35.5177 18.8878 38.1966 21.6479 38.506 25.1845L39.3361 34.6721C39.7028 38.864 36.6019 42.5595 32.4101 42.9262L17.23 44.2543C13.0381 44.621 9.34261 41.5202 8.97586 37.3283L8.14581 27.8407C7.83639 24.3041 9.9953 21.1207 13.1952 19.9917Z" fill="white"/>
        <path d="M27.1684 37.6488L21.4759 38.1468L22.0315 31.9318C21.3714 31.6709 20.8331 31.2559 20.4169 30.6869C20.0006 30.1178 19.7607 29.4696 19.697 28.7422C19.6057 27.6986 19.8992 26.7727 20.5773 25.9645C21.2555 25.1562 22.1164 24.7065 23.16 24.6152C24.2037 24.5239 25.1296 24.8173 25.9378 25.4955C26.746 26.1736 27.1958 27.0345 27.2871 28.0782C27.3507 28.8056 27.227 29.4856 26.9159 30.1183C26.6048 30.751 26.1468 31.2531 25.5419 31.6247L27.1684 37.6488Z" fill="#302F2D"/>
    </g>
    <defs>
        <clipPath id="clip0_3_756">
            <rect width="41" height="41" fill="white" transform="translate(0.791313 4.36275) rotate(-5)"/>
        </clipPath>
    </defs>
</svg>
