<svg fill="none" height="40" viewBox="0 0 40 40" width="40" xmlns="http://www.w3.org/2000/svg"><rect fill="none" height="40" rx="12" width="40"/><path clip-rule="evenodd" d="m15.595 7.5h8.81c.7367 0 1.4432.29266 1.9641.81359l5.3173 5.31731c.5209.5209.8136 1.2274.8136 1.9641v8.81c0 .7367-.2927 1.4432-.8136 1.9641l-5.3173 5.3173c-.5209.5209-1.2274.8136-1.9641.8136h-8.81c-.7367 0-1.4432-.2927-1.9641-.8136l-5.31731-5.3173c-.52093-.5209-.81359-1.2274-.81359-1.9641v-8.81c0-.7367.29266-1.4432.81359-1.9641l5.31731-5.31731c.5209-.52093 1.2274-.81359 1.9641-.81359zm6.3629 12.4937 3.5851-3.5851-1.9642-1.9642-3.5851 3.5851-3.5851-3.5851-1.9641 1.9642 3.5851 3.5851-3.5852 3.5851 1.9642 1.9642 3.5851-3.5851 3.5852 3.5851 1.9641-1.9642z" fill="#fff" fill-rule="evenodd"/></svg>