<svg fill="none" height="24" viewBox="0 0 24 24" width="24" xmlns="http://www.w3.org/2000/svg"><path clip-rule="evenodd" d="m8.82843 3h6.34317c.5304 0 1.0391.21071 1.4142.58579l3.8284 3.82842c.3751.37508.5858.88378.5858 1.41422v6.34317c0 .5304-.2107 1.0391-.5858 1.4142l-3.8284 3.8284c-.3751.3751-.8838.5858-1.4142.5858h-6.34317c-.53044 0-1.03914-.2107-1.41422-.5858l-3.82842-3.8284c-.37508-.3751-.58579-.8838-.58579-1.4142v-6.34317c0-.53044.21071-1.03914.58579-1.41422l3.82842-3.82842c.37508-.37508.88378-.58579 1.41422-.58579zm2.17157 5c0-.55228.4477-1 1-1s1 .44772 1 1v4c0 .5523-.4477 1-1 1s-1-.4477-1-1zm1.005 9.3c-.7204 0-1.3007-.58-1.3007-1.3s.5803-1.3 1.3007-1.3 1.3007.58 1.3007 1.3-.5803 1.3-1.3007 1.3z" fill="#21201f" fill-rule="evenodd"/></svg>