<svg fill="none" height="24" viewBox="0 0 24 24" width="24" xmlns="http://www.w3.org/2000/svg"><g fill="#21201f"><path d="m8.50547 11.9669v-2.218l3.49443-1.95175 3.4933 1.95167v2.21808c0 2.197-1.4761 4.0301-3.5091 4.8162-2.21015-.7706-3.47863-2.5725-3.47863-4.8162z"/><path clip-rule="evenodd" d="m12 .839874 9.5 5.588236v4.75939c0 5.8161-4.0682 10.3997-9.1838 12.1049l-.3003.1002-.3032-.091c-5.72059-1.7162-9.2127-6.3446-9.2127-12.1141v-4.75939zm.0001 4.895466-5.29463 2.95718v3.27438c0 3.1574 1.92184 5.6949 5.03523 6.629l.2729.0818.2703-.0901c2.7725-.9241 5.0093-3.4213 5.0093-6.6207v-3.2743z" fill-rule="evenodd"/></g></svg>