<svg fill="none" height="24" viewBox="0 0 24 24" width="24" xmlns="http://www.w3.org/2000/svg"><g fill="#21201f"><path clip-rule="evenodd" d="m21.4 7-4.4-4.4c-.3-.4-.9-.6-1.4-.6h-7.2c-.6 0-1.1.2-1.4.6l-4.4 4.4c-.4.3-.6.8-.6 1.4v7.2c0 .5.2 1 .6 1.4l4.4 4.4c.3.4.8.6 1.4.6h7.2c.5 0 1-.2 1.4-.6l4.4-4.4c.4-.4.6-.9.6-1.4v-7.2c0-.6-.2-1.1-.6-1.4zm-1.4 8.6-4.4 4.4h-7.2l-4.4-4.4v-7.2l4.4-4.4h7.2l4.4 4.4z" fill-rule="evenodd"/><path d="m10.75 6 .25 8h2l.25-8z"/><path d="m12 18.5c.8284 0 1.5-.6716 1.5-1.5s-.6716-1.5-1.5-1.5-1.5.6716-1.5 1.5.6716 1.5 1.5 1.5z"/></g></svg>