<svg fill="none" height="24" viewBox="0 0 24 24" width="24" xmlns="http://www.w3.org/2000/svg"><path d="m7.0438 22h9.9124c1.3693 0 2.0438-.6663 2.0438-2.1403v-7.5619c0-1.3326-.5518-2.0091-1.6964-2.1201v-2.4937c0-3.83645-2.5854-5.684-5.3036-5.684-2.71825 0-5.30365 1.84755-5.30365 5.684v2.524c-1.06277.1615-1.69635.8278-1.69635 2.0898v7.5619c0 1.474.67445 2.1403 2.0438 2.1403zm1.61459-14.49773c0-2.35235 1.51241-3.64462 3.34161-3.64462 1.819 0 3.3416 1.29227 3.3416 3.64462v2.65523l-6.68321.0101z" fill="#21201f"/></svg>