<svg fill="none" height="24" viewBox="0 0 24 24" width="24" xmlns="http://www.w3.org/2000/svg"><g fill="#21201f"><path d="m17 4h-2v-2h2c2.7614 0 5 2.23858 5 5v2h-2v-2c0-1.65685-1.3431-3-3-3z"/><path d="m2 7c0-2.76142 2.23858-5 5-5h2v2h-2c-1.65685 0-3 1.34315-3 3v2h-2z"/><path d="m4 17v-2h-2v2c0 2.7614 2.23858 5 5 5h2v-2h-2c-1.65685 0-3-1.3431-3-3z"/><path d="m20 17v-2h2v2c0 2.7614-2.2386 5-5 5h-2v-2h2c1.6569 0 3-1.3431 3-3z"/><path clip-rule="evenodd" d="m11.9984 7.5c-1.4629 0-2.83035.20606-3.86754.56926-.51411.18003-1.00123.41732-1.37915.73021-.34734.28756-.7007.72679-.74668 1.31283h-.00503v3.917c0 .6868.46557 1.1403.81596 1.3855.3771.2639.85783.4612 1.36184.6104 1.02084.3022 2.3714.4748 3.8206.4748s2.7997-.1726 3.8206-.4748c.504-.1492.9847-.3465 1.3618-.6104.3504-.2452.816-.6987.816-1.3855v-3.917h-.0051c-.046-.58604-.3993-1.02527-.7466-1.31283-.378-.31289-.8651-.55018-1.3792-.73021-1.0372-.3632-2.4046-.56926-3.8675-.56926zm-3.20127 2.43823c-.2992.10477-.51292.21137-.65404.30317.14112.0918.35484.1984.65404.3032.77186.2702 1.90357.456 3.20127.456 1.2976 0 2.4294-.1858 3.2012-.456.2992-.1048.513-.2114.6541-.3032-.1411-.0918-.3549-.1984-.6541-.30317-.7718-.27029-1.9036-.45604-3.2012-.45604-1.2977 0-2.42941.18575-3.20127.45604zm7.19967 2.42797c-.0434.0162-.0871.032-.1309.0473-1.0372.3632-2.4046.5693-3.8675.5693s-2.83035-.2061-3.86754-.5693c-.04384-.0153-.08747-.0311-.13086-.0473v1.4498c.13611.0876.37908.2.75018.3099.78822.2333 1.93692.3919 3.24822.3919s2.46-.1586 3.2482-.3919c.3711-.1099.6141-.2223.7502-.3099zm.0923 1.3793s-.0023.0032-.009.0093c.0052-.0063.009-.0093.009-.0093zm-8.17239.0093c-.00288-.0026-.00495-.0047-.00637-.0062-.00194-.002-.00269-.0031-.00269-.0031s.00377.003.00906.0093z" fill-rule="evenodd"/></g></svg>