<svg width="24" height="24" viewBox="0 0 24 24" fill="none" xmlns="http://www.w3.org/2000/svg">
<path fill-rule="evenodd" clip-rule="evenodd" d="M12 2C9.34784 2 6.8043 3.05357 4.92893 4.92893C3.05357 6.8043 2 9.34784 2 12C2 14.6522 3.05357 17.1957 4.92893 19.0711C6.8043 20.9464 9.34784 22 12 22C14.6522 22 17.1957 20.9464 19.0711 19.0711C20.9464 17.1957 22 14.6522 22 12C22 9.34784 20.9464 6.8043 19.0711 4.92893C17.1957 3.05357 14.6522 2 12 2ZM6.34315 6.34315C7.84344 4.84285 9.87827 4 12 4C13.7859 4 15.5102 4.59715 16.906 5.68088L5.68088 16.906C4.59715 15.5102 4 13.7859 4 12C4 9.87827 4.84285 7.84344 6.34315 6.34315ZM7.09523 18.3201C8.49082 19.4032 10.2146 20 12 20C14.1217 20 16.1566 19.1571 17.6569 17.6569C19.1571 16.1566 20 14.1217 20 12C20 10.2146 19.4032 8.49082 18.3201 7.09523L7.09523 18.3201Z" fill="#21201F"/>
</svg>
