<svg width="46" height="45" viewBox="0 0 46 45" fill="none" xmlns="http://www.w3.org/2000/svg">
<g clip-path="url(#clip0_2790_43810)">
<path fill-rule="evenodd" clip-rule="evenodd" d="M16.4719 13.2278C16.1969 10.0839 18.5225 7.31231 21.6664 7.03725C24.8103 6.7622 27.5819 9.08786 27.857 12.2318L28.355 17.9243L16.97 18.9204L16.4719 13.2278ZM13.1958 19.4915L12.6769 13.5598C12.2185 8.32001 16.0946 3.70065 21.3344 3.24222C26.5742 2.7838 31.1936 6.6599 31.652 11.8997L32.171 17.8314C35.5183 18.3876 38.1972 21.1476 38.5066 24.6843L39.3367 34.1719C39.7034 38.3637 36.6026 42.0592 32.4107 42.426L17.2306 43.7541C13.0387 44.1208 9.34322 41.0199 8.97648 36.828L8.14643 27.3405C7.83701 23.8038 9.99592 20.6205 13.1958 19.4915Z" fill="#21201F" fill-opacity="0.5"/>
<path d="M27.1686 37.1488L21.4761 37.6469L22.0318 31.4319C21.3716 31.171 20.8334 30.756 20.4171 30.187C20.0008 29.6179 19.7609 28.9697 19.6973 28.2423C19.606 27.1987 19.8994 26.2727 20.5776 25.4645C21.2557 24.6563 22.1166 24.2065 23.1603 24.1152C24.2039 24.0239 25.1298 24.3174 25.938 24.9955C26.7462 25.6737 27.196 26.5346 27.2873 27.5782C27.3509 28.3056 27.2272 28.9857 26.9161 29.6184C26.605 30.2511 26.147 30.7532 25.5422 31.1248L27.1686 37.1488Z" fill="black" fill-opacity="0.5"/>
</g>
<defs>
<clipPath id="clip0_2790_43810">
<rect width="41" height="41" fill="white" transform="translate(0.791016 3.8623) rotate(-5)"/>
</clipPath>
</defs>
</svg>
