<svg fill="none" height="40" viewBox="0 0 40 40" width="40" xmlns="http://www.w3.org/2000/svg" xmlns:xlink="http://www.w3.org/1999/xlink"><linearGradient id="a" gradientUnits="userSpaceOnUse" x1="20" x2="20" y1="0" y2="40"><stop offset="0" stop-color="#fc8e62"/><stop offset="1" stop-color="#fa3e2c"/></linearGradient><rect fill="url(#a)" height="40" rx="12" width="40"/><path d="m24.4047 7.50037c.7367 0 1.4439.29254 1.9648.81347l5.3174 5.31736c.5207.5209.8135 1.2274.8135 1.9639v8.8096c0 .7366-.2926 1.4439-.8135 1.9648l-5.3174 5.3174c-.5209.5209-1.2282.8135-1.9648.8135h-8.8096c-.7365 0-1.443-.2928-1.9639-.8135l-5.31736-5.3174c-.52093-.5209-.81347-1.2281-.81347-1.9648v-8.8096c0-.7367.29258-1.4429.81347-1.9639l5.31736-5.31736c.521-.52089 1.2272-.81347 1.9639-.81347zm-4.4112 10.52933-3.5849-3.585-1.9639 1.9639 3.585 3.5849-3.585 3.585 1.9639 1.9648 3.5849-3.5849 3.585 3.5849 1.9648-1.9648-3.5849-3.585 3.5849-3.5849-1.9648-1.9639z" fill="#fff"/></svg>