<svg fill="none" height="25" viewBox="0 0 24 25" width="24" xmlns="http://www.w3.org/2000/svg"><g fill="#21201f"><path d="m4 5h10.1519l-1.7661 1.7362c-1.4177 1.49735-2.1266 2.24603-2.94409 2.52655-.71903.24666-1.4936.24666-2.21262 0-.81743-.28051-1.52644-1.02929-2.94417-2.52655l-1.42976-1.51002c.35278-.14576.73942-.22618 1.14484-.22618z"/><path d="m1 8c0-.52383.13426-1.01631.37024-1.44489l1.54368 1.63032c1.41783 1.49727 2.12674 2.24597 2.39229 3.10927.2337.7594.2337 1.5774 0 2.3368-.26555.8633-.97446 1.612-2.39229 3.1093l-1.54765 1.6969c-.23352-.4269-.36627-.9168-.36627-1.4377z"/><path d="m2.86038 19.776c.35137.1444.73619.224 1.13962.224h10.1328l-1.7472-1.8117c-1.4177-1.4973-2.1267-2.2461-2.94408-2.5266-.71907-.2467-1.49359-.2467-2.21265 0-.81736.2805-1.52614 1.029-2.94364 2.526z"/><path d="m20 20h-3.012l-3.2314-3.2593c-1.4178-1.4972-2.1267-2.2459-2.3923-3.1093-.2337-.7593-.2337-1.5774 0-2.3367.2656-.8633.9746-1.61209 2.3923-3.10935l3.2772-3.18535h2.9662c1.6569 0 3 1.34315 3 3v9c0 1.6569-1.3431 3-3 3z"/></g></svg>