<svg fill="none" height="20" viewBox="0 0 21 20" width="21" xmlns="http://www.w3.org/2000/svg"><path clip-rule="evenodd" d="m3 10c0-2.86908 0-4.30364.63915-5.36093.37119-.61402.8859-1.12873 1.49992-1.49992 1.05729-.63915 2.49185-.63915 5.36093-.63915 2.8691 0 4.3036 0 5.3609.63915.6141.37119 1.1288.8859 1.4999 1.49992.6392 1.05729.6392 2.49185.6392 5.36093 0 2.8691 0 4.3036-.6392 5.3609-.3711.6141-.8858 1.1288-1.4999 1.4999-1.0573.6392-2.4918.6392-5.3609.6392-2.86908 0-4.30364 0-5.36093-.6392-.61402-.3711-1.12873-.8858-1.49992-1.4999-.63915-1.0573-.63915-2.4918-.63915-5.3609zm2.8125-2.89617c0 1.14214.92589 2.06802 2.06802 2.06802 1.14214 0 2.06803-.92588 2.06803-2.06802s-.92589-2.06802-2.06803-2.06802c-1.14213 0-2.06802.92588-2.06802 2.06802zm.43726 7.14547c.21536.2154.56454.2154.7799 0l7.72064-7.7206c.2153-.21536.2153-.56453 0-.7799-.2154-.21536-.5646-.21536-.7799 0l-7.72064 7.7206c-.21536.2154-.21536.5646 0 .7799zm6.86974.713c-1.1421 0-2.068-.9259-2.068-2.068s.9259-2.068 2.068-2.068c1.1422 0 2.068.9259 2.068 2.068s-.9258 2.068-2.068 2.068z" fill="#000" fill-rule="evenodd"/></svg>