<svg fill="none" height="25" viewBox="0 0 24 25" width="24" xmlns="http://www.w3.org/2000/svg" xmlns:xlink="http://www.w3.org/1999/xlink"><clipPath id="a"><path d="m0 .5h24v24h-24z"/></clipPath><g clip-path="url(#a)" fill="#21201f"><path d="m15.3.5c-.4556 0-.825.369365-.825.825l.0005 11.4737-1.9469-1.6223c-.35-.2917-.8702-.2444-1.1619.1056s-.2444.8702.1056 1.1619l3.8282 3.1902 3.8281-3.1902c.35-.2917.3973-.8119.1056-1.1619s-.8119-.3973-1.1619-.1056l-1.9468 1.6223-.0005-11.4737c0-.455635-.3694-.825-.825-.825z"/><path clip-rule="evenodd" d="m11.5209 5.78736c-.772.00156-5.2409 0-5.2409 0-1.84817 0-2.77226 0-3.47817.35968-.62093.31638-1.12577.82122-1.44215 1.44215-.35968.70591-.35968 1.63-.35968 3.47821v4.84c0 1.8481 0 2.7722.35968 3.4781.31638.621.82122 1.1258 1.44215 1.4422.70591.3597 1.63.3597 3.47817.3597h11.44c1.8482 0 2.7723 0 3.4782-.3597.6209-.3164 1.1257-.8212 1.4421-1.4422.3597-.7059.3597-1.63.3597-3.4781v-4.84c0-1.84821 0-2.7723-.3597-3.47821-.3164-.62093-.8212-1.12577-1.4421-1.44215-.4969-.25317-1.1019-.32814-2.0611-.35034-1.4222 0-1.4222 1.92548 0 1.92548.2268.00568.4209.01464.5936.02875.4312.03523.5572.09277.5935.1113.2588.13182.4691.34217.6009.6009.0186.03635.0761.16232.1113.59355.0371.45372.0386 1.05482.0386 2.01072v4.84c0 .9558-.0015 1.5569-.0386 2.0106-.0352.4313-.0927.5572-.1113.5936-.1318.2587-.3421.4691-.6009.6009-.0363.0185-.1623.0761-.5935.1113-.4537.0371-1.0549.0386-2.0107.0386h-7.4599l-1.29546-1.3691c-1.30627-1.3803-1.9594-2.0705-2.20406-2.8664-.21531-.7-.21531-1.4541 0-2.1542.24466-.7959.8978-1.4861 2.20406-2.8665l2.17066-2.29384h.3856c1.359.00156 1.3439-1.925 0-1.925zm-2.91125 1.925h-2.32965c-.95585 0-1.55697.0015-2.01068.03857-.43124.03523-.5572.09277-.59356.1113-.25872.13182-.46907.34217-.60089.6009-.01853.03635-.07607.16232-.1113.59355-.03609.44168-.03847 1.02302-.03857 1.93532l.02565.009c.66249.2275 1.37607.2275 2.03855 0 .75305-.2585 1.40606-.9486 2.71203-2.32865zm-.87689 11.55004-.03125-.0331c-1.30619-1.3803-1.9594-2.0705-2.71251-2.3292-.66245-.2273-1.37607-.2273-2.03852 0l-.02248.0079c.00405.418.01351.7401.03557 1.01.03523.4313.09277.5572.1113.5936.13182.2587.34217.4691.60089.6009.03636.0185.16232.0761.59356.1113.45371.0371 1.05483.0386 2.01068.0386z" fill-rule="evenodd"/></g></svg>