<svg width="24" height="24" viewBox="0 0 28 30" fill="none" xmlns="http://www.w3.org/2000/svg">
    <path d="m15.714 24.775 6.072 1.735c.465.132.785.557.785 1.04 0 .482-.314.942-.784 1.109A23.208 23.208 0 0 1 14 29.999c-2.662 0-5.259-.447-7.788-1.34a1.175 1.175 0 0 1-.783-1.109c0-.499.32-.908.785-1.04l6.072-1.735v-2.508a9.35 9.35 0 0 0 1.714.16 9.35 9.35 0 0 0 1.714-.16v2.508ZM15.601 10.015a6.112 6.112 0 0 0-1.429-1.597c-.133-.107-.232-.114-.35.005-.345.346-.7.682-1.033 1.038-.159.17-.279.378-.403.55l-1.346-.546c0 .211.015.356-.004.496-.028.223.062.367.23.506.795.664 1.642 1.25 2.556 1.738.12.064.212.076.337.01a14.048 14.048 0 0 0 2.673-1.848c.053-.046.11-.118.114-.182.014-.217.005-.437.005-.719l-1.35.549Z" fill="#fff"/>
    <path d="M26.858 3.143H22.57v2.286h3.094c-.401 4.713-3.234 8.95-6.699 11.141 1.197-1.965 2.113-4.96 2.176-9.426V1.429A1.43 1.43 0 0 0 19.714 0H8.286a1.43 1.43 0 0 0-1.428 1.429v5.713c.068 4.474.995 7.474 2.2 9.442-3.477-2.186-6.32-6.431-6.723-11.156h3.094V3.143H1.142C.513 3.143 0 3.652 0 4.284c0 8.574 7.065 16.144 14 16.144s14-7.57 14-16.143c0-.631-.511-1.142-1.142-1.142v-.002Zm-8.73 1.867v1.876c-.585.117-1.168.231-1.787.354.271-.998.854-1.732 1.788-2.231v.001Zm-3.53-1.561c0-.011.017-.023.037-.051.662.37 1.24.848 1.715 1.38l-1.024 1.567c-.196-.129-.428-.275-.654-.431a.207.207 0 0 1-.076-.148c-.004-.772 0-1.545 0-2.316l.003-.001Zm-1.19-.081v.695c0 .512-.008 1.026.006 1.538.005.189-.037.309-.215.402-.195.1-.369.24-.527.345l-1.023-1.57a6.914 6.914 0 0 1 1.761-1.41h-.001ZM9.875 5.014c.931.497 1.511 1.232 1.781 2.228l-1.781-.356V5.014Zm8.26 5.56a.508.508 0 0 1-.14.331 14.837 14.837 0 0 1-3.804 2.616.395.395 0 0 1-.384 0 15.262 15.262 0 0 1-3.793-2.594.44.44 0 0 1-.154-.357c.007-.742.004-1.485.004-2.228V8.11c.69.067 1.326.225 1.932.485.156.066.235.045.34-.088A7.172 7.172 0 0 1 13.78 7.02c.168-.113.285-.101.446.007a7.088 7.088 0 0 1 1.643 1.49c.101.128.177.144.322.082a6.633 6.633 0 0 1 1.95-.492v.239c0 .742.007 1.485-.006 2.227l-.001.002Z" fill="#fff"/>
</svg>
