<svg width="24" height="24" viewBox="0 0 24 24" fill="none" xmlns="http://www.w3.org/2000/svg">
<path fill-rule="evenodd" clip-rule="evenodd" d="M4.79199 4.91976C6.26567 3.44976 7.66918 3.05976 8.66167 3.00976V2.99976H8.68172L16.3609 19.4197L14.5464 20.2697L12.01 14.8397L9.4737 20.2697L7.65916 19.4197L10.9073 12.4697L9.73435 9.95974C9.12282 10.2597 8.47119 10.6897 7.79951 11.3597C5.81454 13.3197 3.96993 13.3697 3.06767 13.2297C2.96742 13.2197 2.9173 13.2097 2.80702 13.1597C2.68672 13.1097 2.49624 12.9597 2.41604 12.8597C2.33584 12.7597 2.29574 12.6797 2.22557 12.5297L0.501253 8.83976C0.471203 8.77527 0.442476 8.71375 0.415081 8.65507C0.140872 8.06783 0 7.76613 0 7.62976C0 7.35976 0.0300752 7.28976 0.220551 7.12976C0.330827 7.03976 0.791981 6.92976 1.72431 6.71976C2.60652 6.51976 3.6792 6.02976 4.79199 4.91976ZM22.4342 6.77316C23.2674 6.96063 23.6852 7.05465 23.7895 7.13974C23.98 7.30974 24 7.37974 24 7.64974C24 7.79974 23.8296 8.16974 23.4887 8.88974L21.7243 12.6597C21.6541 12.8197 21.614 12.8997 21.5338 12.9997C21.4536 13.0997 21.2632 13.2597 21.1429 13.3097C21.0471 13.3495 21.0022 13.3576 20.9373 13.3693C20.9207 13.3724 20.9027 13.3756 20.8822 13.3797C19.9799 13.5297 18.1253 13.4997 16.1504 11.5097C15.4787 10.8297 14.817 10.3897 14.2055 10.0997L13.1228 7.79974L15.3484 3.00974C16.3408 3.05974 17.7444 3.44974 19.218 4.92974C20.3308 6.03974 21.4035 6.53974 22.2857 6.73974C22.3366 6.7512 22.3861 6.76234 22.4342 6.77316Z" fill="white"/>
</svg>
