<svg width="24" height="24" viewBox="0 0 24 24" fill="none" xmlns="http://www.w3.org/2000/svg">
<path d="M6.27046 5.18279L14.9715 10.0167C15.52 10.3214 15.6255 10.3896 15.6985 10.4608C15.8262 10.5853 15.9182 10.7417 15.9651 10.9138C15.9919 11.0121 16.0002 11.1375 16.0002 11.765V19.7774L13.4569 21.1903C12.9846 21.4527 12.7484 21.5839 12.5017 21.6478C12.1727 21.7331 11.8273 21.7331 11.4983 21.6478C11.2516 21.5839 11.0154 21.4527 10.5431 21.1903L4.54307 17.857C4.04427 17.5799 3.79487 17.4413 3.6034 17.2545C3.34809 17.0054 3.16403 16.6926 3.0703 16.3485C3 16.0904 3 15.8051 3 15.2345V8.76492C3 8.19432 3 7.90901 3.0703 7.65091C3.16403 7.30678 3.34809 6.99398 3.6034 6.74491C3.79487 6.55811 4.04427 6.41956 4.54307 6.14245L6.27046 5.18279Z" fill="white"/>
<path d="M8.32959 4.03883L10.5431 2.80912C11.0154 2.54672 11.2516 2.41552 11.4983 2.35157C11.8273 2.26631 12.1727 2.26631 12.5017 2.35157C12.7484 2.41552 12.9846 2.54672 13.4569 2.80912L19.4569 6.14245C19.9557 6.41956 20.2051 6.55811 20.3966 6.74491C20.6519 6.99397 20.836 7.30678 20.9297 7.65091C21 7.90901 21 8.19432 21 8.76492V15.2345C21 15.8051 21 16.0904 20.9297 16.3485C20.836 16.6926 20.6519 17.0054 20.3966 17.2545C20.2051 17.4413 19.9557 17.5799 19.4569 17.857L18.0002 18.6663L18.0003 11.6663C18.0008 11.1939 18.0012 10.779 17.8948 10.3882C17.7542 9.87199 17.4781 9.40277 17.0951 9.02918C16.8052 8.7463 16.4423 8.54523 16.0291 8.31623L8.32959 4.03883Z" fill="white"/>
</svg>
