<svg xmlns="http://www.w3.org/2000/svg" width="239" height="51.648" viewBox="0 0 239 51.648">
  <g id="グループ_33949" data-name="グループ 33949" transform="translate(-68 -140.352)">
    <path id="パス_42033" data-name="パス 42033" d="M12.6-2.94V-9.8H5.684v-1.344H4.424V-9.8H1.05v1.26H4.424c-.042,4-1.12,6.44-3.36,7.672V.56C4.1-.91,5.642-3.766,5.684-8.54h5.67v5.6c0,1.666-.5,2.212-2.016,2.212H7.476V.5H9.324C11.648.5,12.6-.308,12.6-2.94ZM34.846-4.522v-1.33H23.94v1.33ZM57.624-9.576v-1.246H45.92v1.246Zm0,3.892V-7.63H45.948V-6.4h10.3v.8c0,3.962-2.352,4.97-6.79,4.97H46.8V.616h2.716C54.754.616,57.624-.91,57.624-5.684ZM80.346-11.2H78.988c-.14,1.722-1.47,2.548-3.57,3.108l-7.1,1.9V-4.9l6.342-1.68V.574h1.274v-7.5C78.414-7.644,80.122-8.708,80.346-11.2Zm21.826,4.074V-10.6H91.014v1.246h9.912v2.184c0,4.718-2.142,6.51-7,6.51H91.49V.588h2.464C99.694.588,102.172-1.848,102.172-7.126ZM124.894-5.7V-6.93c-.882.14-1.708.28-2.464.434a3.313,3.313,0,0,0-3.038-1.526,6.107,6.107,0,0,0-3.276.854,12,12,0,0,0,.854-2.1h7.644V-10.43H117.25c.056-.252.1-.518.14-.826h-1.3c-.042.28-.084.56-.14.826H113.4v1.162h2.24A13.052,13.052,0,0,1,113.078-4.7V-2.94c.742-.8,1.75-2.072,2.072-2.506A4.66,4.66,0,0,1,119.084-7.1a2.46,2.46,0,0,1,2,.91c-3.976.994-5.88,2.436-5.88,4.27,0,1.54.924,2.492,3.584,2.492h5.838V-.616H118.86c-1.708,0-2.3-.42-2.3-1.358,0-1.274,1.666-2.352,4.984-3.122a3.613,3.613,0,0,1,.056.56V-2.38h1.26V-4.788a3.8,3.8,0,0,0-.056-.574C123.452-5.474,124.138-5.586,124.894-5.7ZM147.56-2.324V-3.906a22.291,22.291,0,0,0-4.732-1.75l-.322-2.772h4.76V-9.66h-4.9l-.2-1.554h-1.344l.644,5.292a14.987,14.987,0,0,0-1.946-.154c-2.73,0-4.228,1.5-4.228,3.36C135.3-.7,136.752.7,139.412.7c3.3,0,4.074-2.142,4.074-3.528a5.838,5.838,0,0,0-.182-1.414A22.13,22.13,0,0,1,147.56-2.324Zm-5.446-.588c0,.756-.294,2.3-2.716,2.3-1.806,0-2.7-.9-2.7-2.1,0-1.274,1.036-2.156,2.8-2.156a11.613,11.613,0,0,1,2.338.252A4.432,4.432,0,0,1,142.114-2.912Zm27.048-2.38c0-4.172-2.212-5.81-5-5.81a4.863,4.863,0,0,0-4.41,2.688v-2.842h-1.232v7.742h1.232V-6.286a4.538,4.538,0,0,1,4.424-3.57c2.3,0,3.668,1.47,3.668,4.564,0,3.066-1.918,4.606-5.838,4.606h-1.372V.574h1.288C166.614.574,169.162-1.442,169.162-5.292Zm23.324.868V-5.558h-.378v-4.858h-3.22v-1.232H187.7v1.232h-2.562V-9.24H187.7v3.682H184.73v1.134h2.9a5.094,5.094,0,0,1-2.954,3.99v1.4a6.334,6.334,0,0,0,3.738-3.724,6.52,6.52,0,0,0,4.032,3.71V-.434a5.281,5.281,0,0,1-3.374-3.99Zm-7.756-.644-.6-4.158H183.3l.532,4.158ZM182.84.952v-12.6h-1.12V.952ZM181.2-9.226h-.854a14.679,14.679,0,0,1-.518,4.984h.84A15.847,15.847,0,0,0,181.2-9.226ZM191-5.558h-2.114V-9.24H191Zm23.884-4.522v-.98h-3.92v-.588h-1.19v.588h-3.948v.98h1.806a8.436,8.436,0,0,1,.392,1.442H206.22v7.574h1.064V-7.63h6.16v5a.5.5,0,0,1-.518.532h-.434V-4.634h-1.638V-5.7h1.638v-.8h-1.638v-.63h-.994v.63h-1.624v.8h1.624v1.064h-1.624v2.7h3.892v.868h1.05a1.246,1.246,0,0,0,1.33-1.344v-6.23h-1.694l.406-1.442ZM204.918-9V-10.29l-2.66-1.33v1.246ZM214.886.784V-.336H207c-1.316,0-1.792-.378-2.03-1.064V-6.384h-2.7v1.19h1.554v3.808L202.272-.378V.938l1.96-1.274c.434.742,1.036,1.12,2.548,1.12Zm-2.8-10.864-.406,1.442H209.1a12.638,12.638,0,0,0-.392-1.442Zm-.49,7.406h-2.45V-3.906h2.45Zm24.962-6.86v-1.148h-7.49V-9.45h6.02l-1.456,1.54h1.456Zm.014,9.7V-1.078h-4.06c-1.9,0-2.744-.434-2.744-1.792a4.89,4.89,0,0,1,.868-2.506h-1.33a5.979,5.979,0,0,0-.812,2.744c0,1.834,1.036,2.8,3.738,2.8ZM227.038-11.2h-1.3c-.182,2.3-.378,4.256-.378,6.4a38.436,38.436,0,0,0,.35,5.362h1.316a35.988,35.988,0,0,1-.364-5.236A52.851,52.851,0,0,1,227.038-11.2Z" transform="translate(69 152)" fill="#fff"/>
    <g id="グループ_33912" data-name="グループ 33912" transform="translate(-14)">
      <g id="グループ_33911" data-name="グループ 33911">
        <rect id="長方形_13873" data-name="長方形 13873" width="37" height="35" transform="translate(82 157)" fill="#e0060b"/>
        <rect id="長方形_13876" data-name="長方形 13876" width="37" height="35" transform="translate(203 157)" fill="#e0060b"/>
        <rect id="長方形_13875" data-name="長方形 13875" width="37" height="35" transform="translate(163 157)" fill="#e0060b"/>
        <rect id="長方形_13874" data-name="長方形 13874" width="38" height="35" transform="translate(122 157)" fill="#e0060b"/>
        <rect id="長方形_13877" data-name="長方形 13877" width="38" height="35" transform="translate(243 157)" fill="#e0060b"/>
        <rect id="長方形_13878" data-name="長方形 13878" width="37" height="35" transform="translate(284 157)" fill="#e0060b"/>
        <path id="パス_42034" data-name="パス 42034" d="M26.572-.42V-2.548H15.148V-4.872H25.536V-16.856H15.148V-19.18H26.572v-2.184H15.148V-23.3H12.8v1.932H1.344v2.184H12.8v2.324H2.352V-4.872H12.8v2.324H1.344V-.42H12.8V1.9h2.352V-.42ZM23.1-11.872H15.148v-3.052H23.1Zm0,5.012H15.148v-3H23.1ZM12.8-11.872H4.816v-3.052H12.8Zm0,5.012H4.816v-3H12.8ZM66.22,1.9V-.364A6.71,6.71,0,0,1,59.7-4.816h5.768v-7.672H59.416V-14.84h5.208v-1.876a11.051,11.051,0,0,0,1.6.392V-18.7A8.75,8.75,0,0,1,59.612-23.3H56.924c-.84,2.24-3.472,4.116-6.524,4.592v2.38c3.64-.784,6.356-2.492,7.9-4.844a11.444,11.444,0,0,0,6.272,4.424H52v1.9h5.236v2.352H51.3v7.672h5.712A6.725,6.725,0,0,1,50.4-.392V1.9a9.571,9.571,0,0,0,8.064-4.48A8.922,8.922,0,0,0,66.22,1.9ZM49.784-8.4v-3.248l-3.22-3.668v-2.492H49.7v-2.3H46.564V-23.3h-2.24V-20.1H40.992v2.3h3.332v1.232a17.4,17.4,0,0,1-3.332,9.464v3.5a19.263,19.263,0,0,0,3.332-5.46V1.9h2.24v-14.2ZM63.392-6.776H59.416v-3.752h3.976Zm-6.16,0H53.4v-3.752h3.836Zm49.588-13.8v-2.212H89.432v2.212H94.22v5.124H89.4V1.568h16.66V-15.456H101.3V-20.58ZM87.668-23.3H85.26c0,5.824-1.26,10.108-3.668,11.844v3.3a10.587,10.587,0,0,0,2.716-2.38V1.9h2.38V-13.468h-.644A25.046,25.046,0,0,0,87.668-23.3Zm11.592,7.84H96.236V-20.58H99.26ZM104.02-.644h-2.968V-13.216h2.968Zm-4.816,0H96.292V-13.216H99.2Zm-4.76,0H91.5V-13.216h2.94Zm52.976-8.4v-2.408a15.85,15.85,0,0,1-5.712-1.708,14.661,14.661,0,0,0,4.368-7.476v-2.156H135.744a5.445,5.445,0,0,1-3.668,4.284v2.576a9.831,9.831,0,0,0,2.66-1.316,14.417,14.417,0,0,0,3.08,4.116,14.564,14.564,0,0,1-5.74,1.736v2.408a17.732,17.732,0,0,0,7.672-2.66A18.157,18.157,0,0,0,147.42-9.044Zm-.756,10.612v-9.66H132.832v9.66ZM131.152-17.808v-2.3H127.96V-23.3h-2.268V-20.1h-3.5v2.3h3.5v1.624c0,3.612-2.212,7.42-3.5,9.072v3.5a20.781,20.781,0,0,0,3.5-5.572V1.932h2.268V-12.236l3.164,3.864v-3.276l-3.164-3.7v-2.464Zm12.628-2.828a12.978,12.978,0,0,1-4.06,6.188,9.925,9.925,0,0,1-2.856-3.416h-1.372a8.036,8.036,0,0,0,1.988-2.772Zm.5,20.076h-9.1V-5.936h9.1ZM188.02,1.9V-.364A6.71,6.71,0,0,1,181.5-4.816h5.768v-7.672h-6.048V-14.84h5.208v-1.876a11.051,11.051,0,0,0,1.6.392V-18.7a8.75,8.75,0,0,1-6.608-4.592h-2.688c-.84,2.24-3.472,4.116-6.524,4.592v2.38c3.64-.784,6.356-2.492,7.9-4.844a11.445,11.445,0,0,0,6.272,4.424H173.8v1.9h5.236v2.352H173.1v7.672h5.712A6.725,6.725,0,0,1,172.2-.392V1.9a9.571,9.571,0,0,0,8.064-4.48A8.922,8.922,0,0,0,188.02,1.9ZM171.584-8.4v-3.248l-3.22-3.668v-2.492H171.5v-2.3h-3.136V-23.3h-2.24V-20.1h-3.332v2.3h3.332v1.232a17.4,17.4,0,0,1-3.332,9.464v3.5a19.263,19.263,0,0,0,3.332-5.46V1.9h2.24v-14.2Zm13.608,1.624h-3.976v-3.752h3.976Zm-6.16,0H175.2v-3.752h3.836ZM228.9-11.34v-5.544H217.476v-2.6h10.668v-2.044H217.476V-23.3h-2.352v1.764H204.456v2.044h10.668v2.6H203.7v5.544h2.268v-3.444h20.608v3.444ZM228.4,1.9l-3.528-4.48h-2.744L225.68,1.9Zm.476-5.208-3.92-6.8h-2.464L224.5-6.664a20.622,20.622,0,0,1-6.132.9H213.92l6.832-5.964h-3.108L215.208-9.66H208.74l4.424-3.444h-2.8l-4.48,3.472v1.764h7.2l-2.464,2.1H203.7v2.1h11.256V1.9h2.52V-3.668h.868a18.5,18.5,0,0,0,7.224-1.2l.9,1.568Zm-17.64.728h-2.66A13.381,13.381,0,0,1,204.2,1.9h3.108A12.707,12.707,0,0,0,211.232-2.576Z" transform="translate(86 185)" fill="#fff"/>
      </g>
    </g>
  </g>
</svg>
