Work.png<svg width="24" height="24" viewBox="0 0 24 24" fill="none" xmlns="http://www.w3.org/2000/svg">
<path fill-rule="evenodd" clip-rule="evenodd" d="M18.25 2.83333C18.4801 2.83333 18.6667 3.01988 18.6667 3.25V6.58333L16.1667 4.5V3.25C16.1667 3.01988 16.3532 2.83333 16.5833 2.83333H18.25ZM12.5335 2.44457L21.8801 10.2334C21.9561 10.2967 22 10.3905 22 10.4895V10.8333C22 11.0174 21.8508 11.1667 21.6667 11.1667H20.3333V18.9609C20.3333 19.7713 19.7504 20.4643 18.952 20.603C16.7892 20.9788 14.4876 21.1667 12.0474 21.1667C9.59738 21.1667 7.26564 20.9773 5.05219 20.5985C4.25183 20.4615 3.66667 19.7677 3.66667 18.9557V11.1667H2.33333C2.14924 11.1667 2 11.0174 2 10.8333V10.4895C2 10.3905 2.04394 10.2967 2.11994 10.2334L11.4665 2.44457C11.7756 2.18704 12.2244 2.18704 12.5335 2.44457ZM9.5 13.6667V19.5H14.5V13.6667C14.5 13.2064 14.1269 12.8333 13.6667 12.8333H10.3333C9.8731 12.8333 9.5 13.2064 9.5 13.6667ZM12 10.3333C12.9205 10.3333 13.6667 9.58714 13.6667 8.66666C13.6667 7.74619 12.9205 7 12 7C11.0795 7 10.3333 7.74619 10.3333 8.66666C10.3333 9.58714 11.0795 10.3333 12 10.3333Z" fill="black"/>
</svg>
