<svg width="24" height="24" viewBox="0 0 24 24" fill="none" xmlns="http://www.w3.org/2000/svg">
    <path fill-rule="evenodd" clip-rule="evenodd"
        d="M4 11C4 7.141 7.141 4 11 4C14.859 4 18 7.141 18 11C18 14.859 14.859 18 11 18C7.141 18 4 14.859 4 11ZM22 22C22.3905 21.6095 22.3905 20.9765 22 20.586L18.025 16.611C19.258 15.071 20 13.122 20 11C20 6.037 15.963 2 11 2C6.037 2 2 6.037 2 11C2 15.963 6.037 20 11 20C13.122 20 15.071 19.258 16.611 18.025L20.586 22C20.9765 22.3905 21.6095 22.3905 22 22Z"
        fill="#959595" />
</svg>
