<svg width="24" height="24" viewBox="0 0 24 24" fill="none" xmlns="http://www.w3.org/2000/svg">
<path d="M1.30448 6.46927C1 7.20435 1 8.13623 1 10V14C1 15.8638 1 16.7956 1.30448 17.5307C1.71046 18.5108 2.48915 19.2895 3.46927 19.6955C4.20435 20 5.13623 20 7 20H11C12.8638 20 13.7957 20 14.5307 19.6955C15.5108 19.2895 16.2895 18.5108 16.6955 17.5307C16.9776 16.8498 16.9984 15.9999 16.9999 14.3967C17.2581 14.5549 17.5427 14.7256 17.855 14.913C19.7074 16.0245 20.6336 16.5802 21.3915 16.4289C21.811 16.3452 22.1927 16.1291 22.4804 15.8124C23 15.2404 23 14.1602 23 12C23 9.83974 23 8.75962 22.4804 8.18762C22.1927 7.8709 21.811 7.6548 21.3915 7.57106C20.6336 7.41981 19.7074 7.97553 17.855 9.08697C17.5427 9.27436 17.2581 9.44514 16.9999 9.60329C16.9984 8.00011 16.9776 7.15024 16.6955 6.46927C16.2895 5.48915 15.5108 4.71046 14.5307 4.30448C13.7957 4 12.8638 4 11 4H7C5.13623 4 4.20435 4 3.46927 4.30448C2.48915 4.71046 1.71046 5.48915 1.30448 6.46927Z" fill="#21201F"/>
</svg>
