<svg width="348" height="348" viewBox="0 0 348 348" fill="none" xmlns="http://www.w3.org/2000/svg">
<path d="M20.3538 0H327.156C338.394 0 347.509 9.10961 347.509 20.3538V327.156C347.509 338.394 338.4 347.509 327.156 347.509H20.3538C9.11538 347.509 0 338.4 0 327.156V20.3481C0.00576923 9.10961 9.11538 0 20.3538 0Z" fill="white"/>
<path d="M271.096 151.921H264.709V181.194H271.096V151.921Z" fill="white" stroke="#C9C9C9" stroke-width="1.13948" stroke-linecap="round" stroke-linejoin="round"/>
<path d="M135.536 305.117V181.189H80.3823" stroke="#C9C9C9" stroke-width="1.15385" stroke-linecap="round" stroke-linejoin="round"/>
<path d="M107.278 46.2983L89.7515 63.831" stroke="#C9C9C9" stroke-width="1.15385" stroke-linecap="round" stroke-linejoin="round"/>
<path d="M111.686 59.6944L85.3438 85.679" stroke="#C9C9C9" stroke-width="1.15385" stroke-linecap="round" stroke-linejoin="round"/>
<path d="M127.217 30.3867V117.681C127.217 135.635 112.609 150.237 94.6612 150.237C89.8612 150.237 84.2996 148.991 80.3823 146.971" stroke="#C9C9C9" stroke-width="1.15385" stroke-linecap="round" stroke-linejoin="round"/>
<path d="M121.494 30.3867V117.681C121.494 121.206 120.802 124.696 119.452 127.95C118.102 131.204 116.129 134.164 113.63 136.656C111.138 139.148 108.179 141.127 104.925 142.471C101.665 143.821 98.1804 144.514 94.6554 144.514C89.7689 144.519 84.9747 143.187 80.792 140.66" stroke="#C9C9C9" stroke-width="1.15385" stroke-linecap="round" stroke-linejoin="round"/>
<path d="M284.331 29.7694V305.29" stroke="#C9C9C9" stroke-width="1.15385" stroke-linecap="round" stroke-linejoin="round"/>
<path d="M276.715 29.7694V305.29" stroke="#C9C9C9" stroke-width="1.15385" stroke-linecap="round" stroke-linejoin="round"/>
<path d="M183.155 29.6541V305.175" stroke="#C9C9C9" stroke-width="1.15385" stroke-linecap="round" stroke-linejoin="round"/>
<path d="M80.3823 29.6541V305.175" stroke="#C9C9C9" stroke-width="1.15385" stroke-linecap="round" stroke-linejoin="round"/>
<path d="M69.375 29.6541V305.175" stroke="#C9C9C9" stroke-width="1.15385" stroke-linecap="round" stroke-linejoin="round"/>
<path d="M31.6904 145.252H69.375" stroke="#C9C9C9" stroke-width="1.15385" stroke-linecap="round" stroke-linejoin="round"/>
<path d="M57.6919 61.5175H51.2996C49.7939 61.5175 48.5708 62.7406 48.5708 64.2463V70.6386C48.5708 72.1444 49.7939 73.3675 51.2996 73.3675H57.6919C59.1977 73.3675 60.4208 72.1444 60.4208 70.6386V64.2463C60.4208 62.7406 59.1977 61.5175 57.6919 61.5175Z" stroke="#C9C9C9" stroke-width="1.15385" stroke-linecap="round" stroke-linejoin="round"/>
<path d="M54.5014 69.7617C55.9206 69.7617 57.0687 68.6137 57.0687 67.1944C57.0687 65.7752 55.9206 64.6271 54.5014 64.6271C53.0822 64.6271 51.9341 65.7752 51.9341 67.1944C51.9341 68.6137 53.0822 69.7617 54.5014 69.7617Z" stroke="#C9C9C9" stroke-width="1.15385" stroke-linecap="round" stroke-linejoin="round"/>
<path d="M281.862 151.921H279.185V181.194H281.862V151.921Z" stroke="#C9C9C9" stroke-width="1.15385" stroke-linecap="round" stroke-linejoin="round"/>
<path d="M229.932 65.6483C231.155 65.6483 232.142 64.304 232.142 62.6425C232.142 60.981 231.15 59.6367 229.932 59.6367C228.709 59.6367 227.723 60.981 227.723 62.6425C227.723 64.2983 228.715 65.6483 229.932 65.6483Z" stroke="#C9C9C9" stroke-width="1.15385" stroke-linecap="round" stroke-linejoin="round"/>
<path d="M285.23 145.252H313.54" stroke="#C9C9C9" stroke-width="1.15385" stroke-linecap="round" stroke-linejoin="round"/>
<path d="M141.791 301.633C140.21 302.746 138.479 303.623 136.644 304.223C135.035 304.223 133.16 302.261 134.741 301.217C138 300.536 139.702 298.921 139.754 298.892C140.117 298.621 140.573 298.506 141.023 298.569C141.473 298.633 141.877 298.875 142.148 299.233C142.419 299.596 142.535 300.052 142.471 300.502C142.408 300.952 142.166 301.356 141.808 301.627L141.791 301.633Z" fill="#F8F8F6"/>
<path d="M141.34 301.61C141.087 301.8 136.621 305.071 131.083 305.071C128.775 305.083 126.508 304.483 124.506 303.329C120.456 301.015 118.402 302.123 118.385 302.135C118.05 302.371 117.64 302.475 117.231 302.429C117.537 302.804 117.704 303.277 117.71 303.761C117.71 305.065 116.481 305.065 114.975 305.065C114.744 305.065 114.519 305.065 114.294 305.065C114.179 305.123 114.064 305.169 113.937 305.198C112.396 305.579 110.7 305.406 109.69 305.233C109.281 305.163 109.01 305.215 108.779 304.904C107.81 304.915 106.442 304.673 105.11 304.736C104.544 305.094 103.598 305.094 102.525 305.094C101.856 305.123 101.187 305.083 100.529 304.967L98.527 305.083H96.8251C95.6193 305.083 94.6501 304.096 93.6867 301.483C92.504 298.292 90.5078 293.983 90.5078 285.485C90.5078 273.733 98.9078 262.875 101.787 260.608C103.84 258.986 105.173 258.098 107.429 257.21C107.764 256.275 108.225 255.392 108.796 254.585C109.062 254.204 109.373 253.858 109.725 253.558L109.812 253.488L109.95 253.385C109.979 252.017 110.198 249.473 111.744 247.5C111.79 247.436 111.854 247.39 111.929 247.356C111.998 247.321 112.079 247.31 112.16 247.315C112.24 247.321 112.315 247.344 112.379 247.385C112.448 247.425 112.506 247.483 112.546 247.546C113.371 248.879 114.052 249.946 114.629 250.961L114.664 250.91L123.358 251.677C123.358 251.677 125.556 250.765 126.819 250.356C127.944 249.986 129.012 249.692 130.01 249.444C130.2 249.398 130.31 249.583 130.264 249.767C130.114 250.385 129.519 253.01 128.014 255.369C127.102 256.783 126.231 256.702 126.046 256.886L126.652 258.611C127.073 259.811 127.2 261.092 127.021 262.35C126.842 263.608 126.369 264.808 125.637 265.846L124.223 267.848C124.269 268.235 124.206 268.627 124.039 268.979C123.877 269.331 123.617 269.631 123.294 269.844L123.196 269.908C122.521 270.352 121.765 270.646 120.975 270.779C120.906 271.171 120.773 271.54 120.577 271.886C120.404 272.215 120.144 272.492 119.827 272.688H119.914L119.821 272.786C121.431 271.563 123.739 272.29 124.252 273.219C124.846 274.304 123.64 276.785 122.798 277.373C122.354 277.673 121.858 277.898 121.339 278.036C120.606 278.244 119.856 278.394 119.1 278.492C119.1 278.492 119.048 279.173 118.887 280.35C118.829 280.794 118.754 281.308 118.656 281.885L118.679 281.896C118.679 281.896 122.077 284.198 122.25 289.454C122.342 292.338 120.733 295.858 119.262 298.448C120.906 298.315 123.237 298.65 126.208 300.346C132.433 303.9 139.235 298.904 139.304 298.858C139.667 298.586 140.123 298.471 140.573 298.535C141.023 298.598 141.427 298.84 141.698 299.198C141.969 299.561 142.085 300.017 142.021 300.467C141.958 300.917 141.715 301.321 141.352 301.592L141.34 301.61Z" fill="#E9B68E"/>
<path d="M137.013 304.027L135.761 301.061C136.713 300.681 138.882 299.694 139.979 298.783C141.346 297.64 142.598 300.375 142.373 301.402C142.188 302.227 138.727 303.496 137.013 304.027Z" fill="white"/>
<path d="M123.224 277.419C122.78 277.719 122.284 277.944 121.765 278.083C121.032 278.29 120.282 278.435 119.526 278.527C118.834 278.55 118.153 278.746 117.559 279.098C115.967 280.01 115.211 280.95 114.807 280.708C113.717 280.056 113.907 276.86 114.144 276.392C114.38 275.925 114.144 273.929 114.144 273.929L117.565 273.248C117.334 273.646 120.507 272.602 120.271 272.729H120.357L120.265 272.827C121.874 271.604 124.182 272.331 124.69 273.26C125.278 274.35 124.067 276.831 123.224 277.419Z" fill="#F8F8F6"/>
<path d="M141.79 301.633C140.209 302.746 138.479 303.623 136.644 304.223C134.994 304.783 133.269 305.077 131.532 305.094C129.225 305.106 126.957 304.5 124.955 303.352C120.905 301.038 118.857 302.146 118.834 302.158C118.65 302.285 118.442 302.377 118.223 302.423C118.004 302.469 117.779 302.475 117.554 302.435C117.334 302.394 117.121 302.313 116.93 302.192C116.74 302.071 116.579 301.915 116.452 301.731C116.417 301.679 116.382 301.627 116.354 301.569C116.723 301.685 117.063 301.875 117.357 302.123C118.2 300.952 118.984 299.735 119.694 298.477C121.338 298.35 123.669 298.679 126.64 300.375C129.167 301.817 131.786 301.852 134.019 301.379C136.067 300.917 138.011 300.069 139.736 298.875C140.1 298.604 140.555 298.488 141.005 298.552C141.455 298.615 141.859 298.858 142.13 299.221C142.402 299.585 142.517 300.04 142.454 300.49C142.39 300.94 142.148 301.344 141.79 301.615V301.633Z" stroke="black" stroke-width="1.15385" stroke-linecap="round" stroke-linejoin="round"/>
<path d="M115.107 250.95L123.796 251.723C123.796 251.723 125.994 250.812 127.263 250.396C128.382 250.027 129.455 249.733 130.454 249.485C130.644 249.438 130.754 249.623 130.707 249.813C130.557 250.431 130.09 252.669 128.584 255.029C127.673 256.442 126.675 256.742 126.484 256.933L127.09 258.658C127.511 259.858 127.638 261.138 127.459 262.396C127.28 263.654 126.807 264.854 126.075 265.892L124.661 267.894C124.707 268.281 124.644 268.673 124.477 269.025C124.309 269.377 124.055 269.677 123.732 269.89L123.634 269.954C122.694 270.577 121.592 270.906 120.467 270.906L119.63 271.794L118.869 271.673C117.732 271.494 116.7 270.923 115.944 270.052L114.542 268.436L112.759 267.525C111.427 266.85 110.336 265.783 109.632 264.467C108.929 263.152 108.64 261.652 108.813 260.169L108.859 259.777" stroke="black" stroke-width="1.15385" stroke-linecap="round"/>
<path d="M118.633 270.721C118.604 270.715 118.575 270.721 118.552 270.733C118.529 270.744 118.506 270.762 118.489 270.785C118.471 270.808 118.46 270.836 118.46 270.865C118.46 270.894 118.46 270.923 118.477 270.946C118.592 271.379 118.581 271.835 118.442 272.256C118.085 273.565 119.475 273.023 119.931 272.913C120.456 272.781 121.189 272.088 121.414 270.831C120.479 270.86 119.556 270.819 118.633 270.721Z" fill="#CC7171" stroke="black" stroke-width="1.15385" stroke-linecap="round"/>
<path d="M110.983 256.39C110.983 256.39 110.388 255.058 110.388 254.071C110.388 253.085 110.331 249.888 112.188 247.529C112.235 247.465 112.298 247.419 112.373 247.385C112.442 247.35 112.523 247.338 112.604 247.344C112.685 247.35 112.76 247.373 112.829 247.413C112.898 247.454 112.956 247.512 112.996 247.575C114.819 250.5 115.927 252.133 116.717 254.965" stroke="black" stroke-width="1.15385" stroke-linecap="round"/>
<path d="M110.255 253.517C110.255 253.517 108.934 254.394 107.861 257.244C105.605 258.133 104.267 259.021 102.219 260.642C99.3399 262.921 90.9399 273.773 90.9399 285.519C90.9399 294.017 92.9361 298.315 94.1188 301.517C95.088 304.136 96.0515 305.123 97.2572 305.123H98.9592" stroke="black" stroke-width="1.15385" stroke-linecap="round"/>
<path d="M120.277 269.423C120.392 269.521 120.507 269.625 120.623 269.735C120.807 269.913 120.981 270.092 121.131 270.265C121.182 270.323 121.252 270.363 121.327 270.381C121.402 270.398 121.482 270.386 121.552 270.352C121.857 270.213 122.14 270.023 122.388 269.792C122.469 269.717 122.538 269.642 122.607 269.561C122.648 269.515 122.671 269.463 122.688 269.406C122.7 269.348 122.7 269.29 122.683 269.233C122.665 269.175 122.636 269.123 122.596 269.077C122.556 269.031 122.504 269.002 122.446 268.979C121.811 268.76 121.142 268.69 120.473 268.771C120.404 268.783 120.334 268.811 120.277 268.852C120.225 268.898 120.184 268.961 120.161 269.025C120.138 269.094 120.138 269.163 120.161 269.233C120.179 269.313 120.219 269.377 120.277 269.423Z" fill="black"/>
<path d="M119.06 265.304C118.725 264.738 117.877 264.519 117.225 264.415C117.156 264.41 117.087 264.369 117.04 264.311C116.994 264.254 116.971 264.185 116.977 264.11C116.983 264.035 117.017 263.971 117.069 263.919C117.121 263.873 117.196 263.844 117.265 263.85C117.715 263.856 118.16 263.925 118.587 264.058C119.094 264.19 119.533 264.502 119.827 264.935C119.873 265.038 119.873 265.154 119.833 265.258C119.792 265.361 119.717 265.448 119.613 265.494C119.515 265.54 119.4 265.546 119.296 265.511C119.198 265.477 119.112 265.402 119.06 265.304Z" fill="black"/>
<path d="M123.092 265.263C123.282 264.583 123.951 264.202 124.58 264.035L124.828 263.977C124.915 263.96 125.001 263.977 125.076 264.023C125.151 264.069 125.203 264.138 125.226 264.225C125.249 264.306 125.238 264.398 125.198 264.473C125.157 264.548 125.094 264.612 125.013 264.64L124.782 264.71C124.436 264.831 124.003 265.108 123.923 265.425C123.894 265.529 123.83 265.621 123.738 265.679C123.646 265.736 123.536 265.754 123.426 265.736C123.323 265.713 123.224 265.656 123.161 265.563C123.098 265.477 123.069 265.367 123.086 265.258H123.092V265.263Z" fill="black"/>
<path d="M102.294 263.896C102.294 263.896 95.994 281.048 105.998 283.148C111.323 284.267 116.711 278.856 118.881 278.608C121.056 278.36 122.388 278.013 123.225 277.425C124.067 276.831 125.279 274.356 124.679 273.271C124.079 272.186 122.204 272.238 119.694 273.035C118.327 273.375 115.113 274.108 113.198 274.286C110.804 274.511 107.273 275.083 105.225 278.96" stroke="black" stroke-width="1.15385" stroke-linecap="round"/>
<path d="M118.16 303.79C118.16 305.094 116.931 305.094 115.425 305.094C113.919 305.094 112.69 305.094 112.69 303.79C112.69 302.486 113.914 301.425 115.425 301.425C115.742 301.425 116.06 301.471 116.365 301.569C116.735 301.685 117.075 301.875 117.369 302.123C117.485 302.221 117.594 302.336 117.687 302.452C117.992 302.833 118.16 303.306 118.16 303.79Z" fill="#E9B68E" stroke="black" stroke-width="1.15385" stroke-linecap="round" stroke-linejoin="round"/>
<path d="M119.526 278.527C119.526 278.527 118.984 285.894 115.771 294.64C114.957 296.861 114.38 299.163 114.051 301.506C114.051 301.506 115.251 301.136 115.846 302.763C116.4 304.286 115.367 304.979 114.38 305.227C112.84 305.602 111.15 305.435 110.134 305.261C109.517 305.158 108.767 304.5 108.646 303.917C108.45 303.006 108.623 301.65 109.453 299.74C110.832 296.55 110.446 291.952 110.469 291.046C110.509 289.131 110.44 285.156 112.367 283.379" fill="#E9B68E"/>
<path d="M119.526 278.527C119.526 278.527 118.984 285.894 115.771 294.64C114.957 296.861 114.38 299.163 114.051 301.506C114.051 301.506 115.251 301.136 115.846 302.763C116.4 304.286 115.367 304.979 114.38 305.227C112.84 305.602 111.15 305.435 110.134 305.261C109.517 305.158 108.767 304.5 108.646 303.917C108.45 303.006 108.623 301.65 109.453 299.74C110.832 296.55 110.446 291.952 110.469 291.046C110.509 289.131 110.44 285.156 112.367 283.379" stroke="black" stroke-width="1.15385" stroke-linecap="round" stroke-linejoin="round"/>
<path d="M101.509 301.604C101.982 301.2 102.588 300.986 103.211 300.992C103.748 301.004 104.267 301.188 104.694 301.517C104.89 301.442 105.104 301.425 105.311 301.465C105.519 301.506 105.709 301.604 105.865 301.742C106.234 302.048 106.465 302.602 106.465 303.565C106.465 305.054 104.694 305.117 102.963 305.117C101.544 305.117 100.05 305.013 99.5594 304.154C99.4498 303.946 99.3921 303.71 99.3979 303.473" stroke="black" stroke-width="1.15385" stroke-linecap="round"/>
<path d="M93.9517 284.538C93.9517 284.538 98.3478 282.029 103.482 288.288C108.617 294.548 104.769 301.436 104.769 301.436" stroke="black" stroke-width="1.15385" stroke-linecap="round"/>
<path d="M119.123 281.931C119.123 281.931 122.521 284.233 122.694 289.488C122.786 292.373 121.176 295.892 119.705 298.483" stroke="black" stroke-width="1.15385" stroke-linecap="round"/>
<path d="M98.9595 305.117H109.696" stroke="black" stroke-width="1.15385" stroke-linecap="round" stroke-linejoin="round"/>
<path d="M124.529 268.892C124.529 268.892 128.85 268.31 131.7 270.865" stroke="black" stroke-width="0.576923" stroke-linecap="round"/>
<path d="M124.303 269.752C124.303 269.752 127.909 269.936 129.842 273.254" stroke="black" stroke-width="0.576923" stroke-linecap="round"/>
<path d="M114.006 301.465C113.515 301.235 112.967 301.148 112.431 301.211C111.894 301.281 111.381 301.5 110.965 301.846" stroke="black" stroke-width="1.15385" stroke-linecap="round"/>
<path d="M184.28 89.6886L171.796 113.198C170.93 114.825 169.315 115.592 167.688 115.154L136.049 106.587C134.082 106.056 132.611 103.904 132.559 101.487L132.351 92.4348C132.305 90.5252 133.159 88.829 134.549 88.0675C134.549 88.0675 173.048 81.6463 175.338 81.2598L184.28 89.6886Z" fill="#00ACFF" stroke="black" stroke-width="1.15385" stroke-miterlimit="10" stroke-linecap="round" stroke-linejoin="round"/>
<path d="M163.009 163.962L136.044 156.692C135.27 156.485 134.642 155.59 134.642 154.702L134.67 92.7001C134.67 91.8174 135.299 91.2578 136.072 91.4655L163.038 98.7348C163.811 98.9424 164.44 99.8367 164.44 100.725L164.411 162.727C164.411 163.615 163.776 164.169 163.009 163.962Z" fill="#00ACFF" stroke="black" stroke-width="1.15385" stroke-miterlimit="10" stroke-linecap="round" stroke-linejoin="round"/>
<path d="M242.844 168.127C240.997 167.071 228.703 159.635 224.544 156.617C219.628 153.052 214.811 149.539 211.049 146.089C208.77 144 208.044 141.531 207.674 140.25C204.242 134.296 182.838 84.4732 193.522 87.8944C196.119 88.7482 197.267 89.5213 200.088 91.0848C202.355 92.3886 204.357 94.1078 205.984 96.1617C209.861 100.991 217.476 116.273 223.24 130.264C223.811 131.648 224.757 132.837 225.974 133.708C231.536 137.665 249.305 151.16 252.069 153.71L242.844 168.127Z" fill="#00ACFF" stroke="black" stroke-width="1.15385" stroke-miterlimit="10" stroke-linecap="round" stroke-linejoin="round"/>
<path d="M249.761 162.401C252.331 158.363 253.442 154.471 252.243 153.708C251.044 152.945 247.989 155.6 245.42 159.638C242.85 163.675 241.739 167.567 242.938 168.33C244.137 169.093 247.192 166.438 249.761 162.401Z" fill="#00ACFF" stroke="black" stroke-width="1.15385" stroke-miterlimit="10" stroke-linecap="round" stroke-linejoin="round"/>
<path d="M263.336 170.706C263.336 170.706 262.586 172.812 263.613 173.44C264.894 174.225 266.226 173.279 266.688 169.91" fill="#FEE9DB"/>
<path d="M265.47 167.919L266.653 165.525L264.27 162.398C263.936 161.96 263.63 161.504 263.359 161.031L263.238 160.806C262.944 160.298 262.545 159.854 262.072 159.514C261.594 159.167 261.051 158.931 260.48 158.81L249.87 156.64C249.484 156.733 249.109 156.277 248.751 156.421C247.511 156.929 246.426 158.342 245.613 159.427C243.559 162.219 243.42 162.935 243.997 164.089L246.542 167.008L250.147 167.567L251.33 169.633C251.301 170.221 251.382 170.856 251.642 171.387L251.913 171.796C252.074 172.125 252.34 172.396 252.674 172.558C253.009 172.719 253.378 172.765 253.742 172.696C253.92 172.662 254.082 172.575 254.22 172.46C254.359 172.339 254.457 172.189 254.515 172.015C254.89 172.235 255.305 172.373 255.738 172.414L256.742 172.523C256.92 172.54 257.099 172.523 257.272 172.465C257.44 172.408 257.601 172.321 257.734 172.2H258.27C258.882 172.817 260.388 172.702 261.057 172.333L262.817 170.319C263.313 170.769 265.592 168.277 265.47 167.919Z" fill="#FEE9DB"/>
<path d="M253.684 169.483C253.684 169.483 252.201 167.85 251.33 169.644" stroke="black" stroke-width="1.15385" stroke-miterlimit="10" stroke-linecap="round" stroke-linejoin="round"/>
<path d="M267.893 165.635L264.403 162.271C264.068 161.833 263.492 161.244 263.232 160.806C262.938 160.298 262.54 159.854 262.067 159.514C261.588 159.167 261.045 158.931 260.474 158.81L248.613 156.012C246.305 157.742 244.574 160.05 243.42 163.512C243.42 163.512 245.151 166.604 246.749 167.175C248.342 167.746 249.484 167.746 249.484 167.746L251.417 169.483C251.036 170.065 251.417 170.821 251.682 171.346L251.913 171.802C252.074 172.131 252.34 172.402 252.674 172.564C253.003 172.725 253.378 172.771 253.742 172.702C253.92 172.667 254.082 172.581 254.22 172.465C254.353 172.344 254.457 172.194 254.515 172.021C254.89 172.246 254.515 172.044 254.942 172.085C254.942 172.085 257.013 173.562 258.149 172.194C260.543 173.902 262.355 172.021 262.811 170.331C264.559 168.537 267.893 165.635 267.893 165.635Z" stroke="black" stroke-width="1.15385" stroke-miterlimit="10" stroke-linecap="round" stroke-linejoin="round"/>
<path d="M270.271 167.06V166.264C270.271 165.617 270.017 165 269.555 164.544C269.1 164.089 268.482 163.829 267.836 163.829H254.094V168.242C254.336 167.971 254.734 167.827 255.276 167.862C255.969 167.896 256.776 166.719 257.342 167.862H259.736L261.79 169.489H267.836C268.482 169.489 269.1 169.235 269.555 168.773C270.011 168.323 270.271 167.706 270.271 167.06Z" fill="#F8F8F6" stroke="#C9C9C9" stroke-width="1.15385" stroke-miterlimit="10"/>
<path d="M254.924 172.073C254.924 172.073 253.955 170.481 253.811 169.454C253.742 168.935 254.036 168.271 254.492 168.087C255.27 167.769 256.77 167.746 257.682 170.25" stroke="black" stroke-width="1.15385" stroke-miterlimit="10" stroke-linecap="round" stroke-linejoin="round"/>
<path d="M263.013 171.485C263.013 171.485 262.592 173.244 263.619 173.867C264.899 174.652 265.88 173.619 266.347 170.25" stroke="black" stroke-width="1.15385" stroke-miterlimit="10" stroke-linecap="round" stroke-linejoin="round"/>
<path d="M262.13 171.617C262.13 171.617 260.763 168.502 259.511 168.087C258.715 167.821 257.209 167.746 257.573 169.569C257.936 171.392 258.836 172.408 259.102 172.673" stroke="black" stroke-width="1.15385" stroke-miterlimit="10" stroke-linecap="round" stroke-linejoin="round"/>
<path d="M247.69 164.204C247.69 164.204 250.015 168.092 258 167.827C259.003 167.839 259.99 168.017 260.93 168.369L262.251 169.8C262.251 169.8 263.74 171.381 264.853 171.537C267.132 171.865 266.296 169.812 265.846 168.946C265.396 168.075 265.28 166.667 264.703 166.287C264.132 165.906 260.567 162.987 258.865 160.339" fill="#FEE9DB"/>
<path d="M247.69 164.204C247.69 164.204 250.015 168.092 258 167.827C259.003 167.839 259.99 168.017 260.93 168.369L262.251 169.8C262.251 169.8 263.521 171.167 264.634 171.317C266.913 171.646 266.348 169.587 265.898 168.71C265.448 167.833 265.28 166.662 264.709 166.287C264.144 165.917 262.298 165.104 260.596 162.456" stroke="black" stroke-width="1.15385" stroke-miterlimit="10" stroke-linecap="round" stroke-linejoin="round"/>
<path d="M154.678 275.475C154.949 276.04 155.099 276.658 155.122 277.287C155.146 277.915 155.036 278.539 154.805 279.121C154.511 279.837 163.442 288.196 163.58 289.269C163.58 289.269 163.99 291.438 164.261 293.037C164.515 294.542 164.809 296.988 165.819 298.119C168.23 299.094 171.686 299.608 172.69 302.094C173.186 303.323 173.515 305.106 169.782 305.008C167.036 304.933 163.171 305.169 160.038 305.187C158.521 305.192 157.038 304.725 155.797 303.854C154.557 302.983 153.611 301.748 153.097 300.323C152.186 297.831 151.061 295.079 150.172 293.856C148.476 291.525 143.688 286.275 143.561 284.008C143.486 282.698 146.486 278.031 149.434 276.462C150.524 275.781 153.847 275.983 154.672 275.487" fill="#BECBDA"/>
<path d="M154.563 275.475C154.834 276.04 154.984 276.658 155.007 277.287C155.03 277.915 154.92 278.539 154.69 279.121C154.39 279.837 163.326 288.196 163.459 289.269C163.459 289.269 163.707 290.59 163.943 291.923C164.278 293.815 164.238 296.302 165.853 298.015C166.263 298.367 166.753 298.61 167.278 298.731C168.772 298.933 172.54 299.937 172.99 303.49C173.157 304.806 170.97 304.956 169.666 305.008C166.92 305.117 163.055 305.169 159.922 305.187C158.405 305.192 156.922 304.725 155.682 303.854C154.441 302.983 153.495 301.748 152.982 300.323C152.07 297.831 150.945 295.085 150.057 293.856C148.361 291.525 143.572 286.275 143.445 284.008C143.37 282.698 146.18 277.892 149.901 276.202C150.991 275.521 153.732 275.971 154.563 275.487" stroke="black" stroke-width="1.15385" stroke-linecap="round"/>
<path d="M211.09 287.625C211.09 287.625 203.959 294.785 190.955 295.246C188.619 280.54 186.167 266.775 184.753 258.012C181.551 262.396 177.282 268.615 174.109 273.358C170.844 278.233 167.175 284.527 164.284 289.258C162.398 289.125 158.815 287.919 156.288 285.692C151.546 281.51 149.232 276.387 148.378 274.575C152.544 266.533 157.084 259.165 163.269 250.021C167.815 243.3 172.967 236.769 177.438 231.271C171.375 220.852 157.869 198.375 157.575 181.269C160.165 181.477 163.632 181.771 165.796 181.887C169.592 182.083 179.405 181.887 179.405 181.887V181.864H179.434L179.48 178.01H179.809V178.062H180.328C181.58 178.073 184.459 178.102 186.859 178.062H187.223C188.763 178.033 191.348 177.981 193.638 177.929H193.736H194.284C194.475 177.929 196.528 177.929 196.713 177.917C196.678 179.671 196.765 181.673 196.765 181.673C196.765 181.673 200.128 181.408 203.261 181.119L204.248 220.546C204.219 225.3 203.29 230.002 201.513 234.41C202.153 237.704 202.696 241.021 202.771 241.564L211.09 287.625Z" fill="#9A9A9A"/>
<path d="M192.939 295.281C196.164 294.744 198.622 294.49 201.628 293.198C204.414 291.762 207.553 290.637 210.039 288.721C212.711 289.621 215.439 290.337 218.209 290.862C221.041 291.242 226.591 289.552 227.838 290.406C229.089 291.26 229.43 294.987 228.293 295.892C223.943 299.365 218.722 300.225 216.166 300.819C213.611 301.414 209.122 301.529 207.409 302.071C205.695 302.613 196.759 305.596 195.316 304.956C193.868 304.315 193.141 301.656 193.049 300.565C192.951 299.475 192.939 295.281 192.939 295.281Z" fill="#BECBDA"/>
<path d="M192.963 295.598C193.049 296.556 193.009 298.362 193.073 299.475C193.217 302.083 193.447 304.321 195.063 304.662C197.832 305.267 204.594 302.839 208.396 302.019C212.446 301.09 216.207 300.744 219.79 299.971C224.186 299.014 227.388 296.665 228.224 295.869C229.863 294.681 229.407 290.994 227.405 290.204C225.79 289.581 220.321 291.19 214.621 290.089L209.642 289.038" stroke="black" stroke-width="1.15385" stroke-linecap="round" stroke-linejoin="round"/>
<path d="M195.761 301.292C199.003 301.131 204.391 299.273 207.634 298.558C211.684 297.623 215.445 297.277 219.028 296.492C221.676 295.956 223.395 295.39 225.224 293.781" stroke="black" stroke-width="1.15385" stroke-linecap="round"/>
<path d="M186.738 184.95C186.738 184.95 195.524 211.996 198.167 220.258C200.676 228.069 202.032 236.198 203.128 244.321L210.83 288.19C210.83 288.19 202.713 295.027 190.961 295.252C184.349 253.714 182.572 248.267 179.994 236.169C167.913 212.85 157.58 195.796 157.58 181.246" stroke="black" stroke-width="1.15385" stroke-linecap="round"/>
<path d="M184.759 258.012C181.551 262.396 177.288 268.615 174.115 273.358C171.045 277.938 167.624 283.765 164.826 288.381C164.659 288.658 164.405 288.877 164.111 289.004C163.816 289.131 163.482 289.165 163.165 289.102C160.632 288.542 158.272 287.365 156.293 285.681C151.459 281.602 149.238 276.375 148.384 274.563C152.549 266.521 157.09 259.154 163.274 250.01C170.036 240.012 171.022 238.569 177.443 231.26" stroke="black" stroke-width="1.15385" stroke-linecap="round"/>
<path d="M203.198 181.189L204.236 220.523C204.248 225.156 203.359 229.748 201.623 234.046" stroke="black" stroke-width="1.15385" stroke-linecap="round" stroke-linejoin="round"/>
<path d="M145.839 283.385C146.728 285.594 150.622 289.99 152.047 291.935C153.818 294.352 153.807 297.439 155.336 299.602C156.743 301.592 158.191 302.544 164.18 302.631" stroke="black" stroke-width="1.15385" stroke-linecap="round"/>
<path d="M183.686 236.187C183.686 236.187 189.766 244.292 195.778 249.006" stroke="black" stroke-width="1.15385" stroke-linecap="round"/>
<path d="M206.232 114.358C209.203 146.573 210.64 188.51 210.824 190.252C211.009 191.994 199.395 193.477 198.34 192.877C197.29 192.277 193.649 177.162 193.649 177.162L190.92 194.458C190.92 194.458 178.493 195.415 169.39 194.885C160.205 194.348 151.24 192.877 151.378 190.339C151.661 185.279 155.942 130.967 159.501 105.231C160.061 100.194 158.192 91.6155 164.538 88.6732C174.576 84.0175 184.349 85.1886 193.24 87.554" fill="#00ADFF"/>
<path d="M206.232 114.358C209.203 146.573 210.64 188.51 210.824 190.252C211.009 191.994 199.395 193.477 198.34 192.877C197.29 192.277 193.649 177.162 193.649 177.162L190.92 194.458C190.92 194.458 178.493 195.415 169.39 194.885C160.205 194.348 151.24 192.877 151.378 190.339C151.661 185.279 155.942 130.967 159.501 105.231C160.061 100.194 158.192 91.6155 164.538 88.6732C174.576 84.0175 184.349 85.1886 193.24 87.554" stroke="black" stroke-width="1.15385" stroke-linecap="round" stroke-linejoin="round"/>
<path d="M188.371 117.842C188.601 117.842 188.826 117.773 189.017 117.646C189.207 117.519 189.357 117.335 189.444 117.127C189.53 116.914 189.553 116.683 189.507 116.458C189.461 116.233 189.351 116.025 189.19 115.864C189.028 115.702 188.821 115.592 188.596 115.546C188.371 115.5 188.14 115.523 187.926 115.616C187.713 115.702 187.534 115.852 187.407 116.042C187.28 116.233 187.211 116.458 187.211 116.689C187.211 116.839 187.24 116.994 187.297 117.133C187.355 117.271 187.442 117.404 187.551 117.508C187.661 117.617 187.788 117.698 187.926 117.762C188.065 117.814 188.221 117.842 188.371 117.842Z" fill="black"/>
<path d="M185.89 99.8424C186.121 99.8424 186.346 99.7732 186.536 99.6463C186.727 99.5194 186.877 99.3347 186.963 99.1271C187.05 98.9194 187.073 98.6828 187.027 98.4578C186.98 98.2328 186.871 98.0251 186.709 97.8636C186.548 97.7021 186.34 97.5924 186.115 97.5463C185.89 97.5001 185.659 97.5232 185.446 97.6155C185.232 97.7021 185.054 97.8521 184.927 98.0424C184.8 98.2328 184.73 98.4578 184.73 98.6886C184.73 98.8386 184.759 98.9944 184.817 99.1328C184.875 99.2713 184.961 99.404 185.071 99.5078C185.18 99.6174 185.307 99.704 185.446 99.7617C185.584 99.8136 185.734 99.8424 185.89 99.8424Z" fill="black"/>
<path d="M189.103 136.085C189.334 136.085 189.559 136.015 189.75 135.889C189.94 135.762 190.09 135.577 190.177 135.369C190.263 135.156 190.286 134.925 190.24 134.7C190.194 134.475 190.084 134.267 189.923 134.106C189.761 133.944 189.553 133.835 189.328 133.789C189.103 133.742 188.873 133.766 188.659 133.858C188.446 133.944 188.267 134.094 188.14 134.285C188.013 134.475 187.944 134.7 187.944 134.931C187.944 135.081 187.973 135.237 188.03 135.375C188.088 135.514 188.175 135.646 188.284 135.75C188.394 135.854 188.521 135.941 188.659 136.004C188.798 136.056 188.948 136.085 189.103 136.085Z" fill="black"/>
<path d="M189.727 154.581C189.952 154.615 190.188 154.575 190.39 154.477C190.598 154.379 190.771 154.217 190.886 154.021C191.002 153.825 191.059 153.594 191.048 153.369C191.036 153.139 190.955 152.919 190.817 152.735C190.678 152.55 190.488 152.412 190.275 152.337C190.055 152.262 189.825 152.25 189.6 152.308C189.375 152.365 189.178 152.487 189.023 152.66C188.867 152.833 188.769 153.04 188.74 153.271C188.717 153.421 188.728 153.577 188.763 153.721C188.803 153.871 188.867 154.01 188.959 154.131C189.052 154.252 189.167 154.356 189.3 154.431C189.427 154.512 189.577 154.558 189.727 154.581Z" fill="black"/>
<path d="M189.444 173.054C189.669 173.089 189.905 173.048 190.107 172.95C190.315 172.852 190.488 172.691 190.603 172.494C190.719 172.298 190.777 172.067 190.765 171.842C190.753 171.612 190.673 171.392 190.534 171.208C190.396 171.023 190.205 170.885 189.992 170.81C189.773 170.735 189.542 170.723 189.317 170.781C189.092 170.839 188.896 170.96 188.74 171.133C188.584 171.306 188.486 171.514 188.457 171.744C188.434 171.894 188.446 172.05 188.48 172.194C188.521 172.344 188.584 172.483 188.677 172.604C188.769 172.725 188.884 172.829 189.017 172.904C189.15 172.979 189.294 173.031 189.444 173.054Z" fill="black"/>
<path d="M188.878 94.1944C189.807 98.4636 193.096 107.469 193.655 177.439" stroke="black" stroke-width="1.15385" stroke-linecap="round"/>
<path d="M180.501 162.323L163.99 161.764" stroke="black" stroke-width="1.15385" stroke-linecap="round"/>
<path d="M188.647 94.4828C192.807 93.8367 193.494 91.0674 194.809 87.704L194.976 86.4059L194.232 82.1886L183.565 68.5675L169.719 65.5155C169.719 65.5155 166.355 65.4232 162.426 69.9636C159.974 72.7905 159.103 76.2925 158.832 78.9809C159.64 81.8771 158.757 84.9636 161.169 88.3271C168.992 94.4424 178.551 96.0059 188.647 94.4828Z" fill="#00ADFF"/>
<path d="M173.382 91.3155C178.061 93.7444 187.471 98.1405 192.934 91.3155C194.423 89.4521 196.038 85.4944 193.788 81.929C191.4 77.204 186.427 75.7328 186.427 75.7328" stroke="black" stroke-width="1.15385" stroke-linecap="round"/>
<path d="M169.164 65.3251C165.039 66.6636 161.289 69.7328 159.68 74.9021C158.064 80.1059 159.305 85.4944 161.595 89.2155" stroke="black" stroke-width="1.15385" stroke-linecap="round" stroke-linejoin="round"/>
<path d="M175.188 75.5598C174.923 75.5598 173.659 77.2675 173.659 77.1867C173.659 77.1059 170.751 75.7213 170.198 74.1348C169.886 72.8944 169.851 71.6021 170.094 70.3444C170.094 70.3444 167.232 64.9156 167.146 62.2559C167.065 59.5963 167.676 57.0694 169.228 55.604C170.123 54.7386 171.201 54.0925 172.384 53.7117C172.384 53.7117 174.3 49.8752 177.398 48.9233C180.651 47.954 184.101 47.8156 187.425 48.5194C188.965 49.0906 190.425 49.8694 191.757 50.8329C193.511 50.6598 195.276 51.0348 196.805 51.9059C197.734 52.4771 198.496 53.2906 199.003 54.2598C199.511 55.229 199.748 56.3136 199.696 57.404C199.655 58.5579 199.361 59.6886 198.83 60.7213C198.83 60.7213 199.2 64.0156 198.334 65.6079C197.469 67.2002 197.123 67.3617 197.123 67.3617L175.188 75.5598Z" fill="black"/>
<path d="M173.878 76.9502C174.052 78.479 173.913 80.0309 173.475 81.5079C173.198 82.6906 173.602 82.2463 173.036 83.3194L175.344 85.6271C175.344 85.6271 177.946 88.0098 181.69 88.5117C184.107 88.754 186.461 88.4886 188.613 87.3579C188.717 87.1848 189.057 85.5579 189.057 85.5579C190.673 85.2809 192.155 84.5021 193.298 83.3252C194.838 81.4905 195.923 77.7463 196.488 74.279C196.805 71.7867 196.95 69.2713 196.927 66.7559C196.898 65.429 196.753 64.1079 196.488 62.804C194.33 63.704 192.109 64.4367 189.842 64.9963C187.852 65.0194 185.855 64.8983 183.882 64.6386L185.105 61.506C184.05 62.2213 182.919 62.8098 181.73 63.2713C180.727 63.479 179.18 63.7271 179.18 63.7271C179.18 63.7271 180.219 66.7329 179.538 68.3483C178.857 69.9636 178.246 70.4656 177.49 70.4656C176.734 70.4656 176.059 69.6809 174.755 70.4656C174.461 70.5983 174.202 70.7886 173.982 71.0194C173.763 71.2559 173.596 71.5329 173.486 71.8329C173.382 72.1329 173.33 72.4559 173.353 72.779C173.377 73.0963 173.457 73.4079 173.602 73.6906C173.902 74.4867 174.473 75.1502 175.217 75.5598L173.878 76.9502Z" fill="#FCE7D9"/>
<path d="M189.045 85.6963C188.872 86.2271 188.711 86.7578 188.578 87.3002" stroke="black" stroke-width="1.15385" stroke-linecap="round" stroke-linejoin="round"/>
<path d="M177.727 75.7848C176.907 76.0617 176.019 76.0271 175.217 75.6925C174.755 75.4675 174.352 75.1271 174.057 74.7059C173.763 74.2848 173.584 73.7886 173.532 73.2752C173.48 72.7617 173.567 72.2425 173.775 71.7694C173.982 71.2963 174.311 70.8867 174.727 70.5809C175.038 70.3963 175.39 70.2925 175.753 70.2752C176.117 70.2636 176.48 70.3386 176.803 70.5059C177.034 70.5982 177.282 70.6502 177.53 70.6559C177.784 70.6559 178.032 70.604 178.269 70.5059C178.5 70.4079 178.713 70.2636 178.886 70.079C179.065 69.9002 179.203 69.6867 179.29 69.4559C179.463 69.029 179.584 68.5848 179.659 68.129C179.994 66.5829 179.85 64.9732 179.244 63.5079C179.244 63.5079 182.077 63.7848 185.746 61.1425L183.628 64.9213C183.628 64.9213 191.377 66.0752 196.338 62.9021C197.169 66.4386 197.307 70.1021 196.742 73.6905C196.142 77.8386 194.636 84.3059 190.292 85.4598C188.919 85.7482 187.494 85.7021 186.144 85.3271C184.788 84.9521 183.548 84.2655 182.509 83.3136C181.482 82.4771 180.594 81.4848 179.873 80.3771" stroke="black" stroke-width="1.15385" stroke-linecap="round" stroke-linejoin="round"/>
<path d="M182.578 68.8098C182.301 68.579 183.663 67.0098 185.653 66.7559C186.605 66.6175 187.574 66.6925 188.497 66.9636C188.647 66.9925 188.78 67.0732 188.878 67.1886C188.976 67.304 189.034 67.4482 189.04 67.5982C189.04 67.6963 189.022 67.8002 188.982 67.8867C188.959 67.9675 188.919 68.0482 188.867 68.1117C188.815 68.1752 188.746 68.2271 188.671 68.2675C188.596 68.3079 188.515 68.3309 188.428 68.3367C188.347 68.3425 188.261 68.3309 188.18 68.3079C187.355 68.0886 186.496 68.0252 185.653 68.1232C183.617 68.2675 182.855 69.0232 182.578 68.8098Z" fill="black"/>
<path d="M194.105 68.1809C193.551 68.1002 192.986 68.1463 192.455 68.3079C192.386 68.3252 192.317 68.3252 192.248 68.3079C192.184 68.2963 192.121 68.2675 192.063 68.2271C192.005 68.1925 191.959 68.1463 191.925 68.0886C191.89 68.0252 191.867 67.9617 191.855 67.8925C191.798 67.7425 191.798 67.5694 191.855 67.4194C191.925 67.2752 192.04 67.1598 192.178 67.0848C192.94 66.779 193.794 66.779 194.561 67.0848C195.83 67.5579 196.223 68.5155 196.073 68.7117C195.917 68.9079 195.219 68.3079 194.105 68.1809Z" fill="black"/>
<path d="M190.419 76.3386C190.326 76.3271 190.234 76.2925 190.153 76.2463C190.078 76.1944 190.015 76.1194 189.969 76.0386C189.888 75.8886 189.871 75.7155 189.911 75.554C189.951 75.3925 190.055 75.254 190.194 75.1617C190.367 75.0636 190.511 74.9252 190.621 74.7636C190.73 74.5963 190.8 74.4117 190.823 74.2155C190.88 73.529 189.911 72.7502 190.084 72.5425C190.257 72.3348 192.069 73.3386 192.069 74.4982C192.023 74.8559 191.896 75.1905 191.694 75.4905C191.492 75.7848 191.226 76.0329 190.915 76.2059C190.765 76.2982 190.598 76.3444 190.419 76.3386Z" fill="black"/>
<path d="M189.686 79.8925C187.892 79.7886 186.299 78.3002 186.472 78.0232C186.645 77.7463 188.099 78.7271 189.709 78.7271C190.424 78.7444 191.134 78.6059 191.786 78.3232C191.919 78.2598 192.074 78.2482 192.213 78.2886C192.357 78.329 192.478 78.4213 192.559 78.5425C192.594 78.6117 192.617 78.6925 192.628 78.7675C192.645 78.8425 192.645 78.9175 192.628 78.9982C192.611 79.0732 192.582 79.1425 192.536 79.2059C192.49 79.2694 192.432 79.3155 192.363 79.3559C191.549 79.8175 190.609 80.0078 189.686 79.8925Z" fill="black"/>
<path d="M194.561 70.7598C194.607 69.9867 194.215 69.329 193.615 69.2944C193.015 69.2598 192.507 69.8482 192.461 70.6329C192.415 71.4175 192.842 72.1098 193.419 72.1098C193.99 72.1098 194.515 71.5329 194.561 70.7598Z" fill="black"/>
<path d="M187.741 70.7367C187.787 69.9636 187.384 69.2713 186.784 69.2713C186.184 69.2713 185.722 69.8482 185.676 70.6386C185.63 71.429 186.045 72.1155 186.622 72.1155C187.199 72.1155 187.695 71.5098 187.741 70.7367Z" fill="black"/>
<path d="M175.263 75.7848L173.97 77.1867" stroke="black" stroke-width="1.15385" stroke-linecap="round" stroke-linejoin="round"/>
<path d="M188.561 87.2944C184.77 89.2502 178.303 88.4829 174.051 84.629L173.042 83.4579C173.29 82.6444 173.492 81.8194 173.647 80.9771C173.867 79.7252 173.982 78.4617 173.982 77.1867C173.209 77.0886 172.47 76.7886 171.847 76.3213C171.224 75.8482 170.734 75.2252 170.422 74.5098C169.805 73.1655 169.742 71.6367 170.238 70.2463C170.238 70.2463 165.178 63.3175 168.403 56.729C168.795 55.9733 169.349 55.3156 170.03 54.8079C170.705 54.2944 171.49 53.9425 172.326 53.7694C172.326 53.7694 173.48 49.4194 180.495 48.3002C182.428 47.9194 184.418 47.9309 186.345 48.3463C188.272 48.7617 190.095 49.5636 191.699 50.7002C191.699 50.7002 196.759 50.6309 198.83 53.7983C199.453 54.8136 199.776 55.979 199.765 57.1733C199.753 58.3617 199.395 59.5271 198.749 60.5252C198.997 62.0713 198.899 63.6463 198.472 65.1521C198.23 66.1098 197.734 66.9809 197.041 67.679" stroke="black" stroke-width="1.15385" stroke-linecap="round" stroke-linejoin="round"/>
<path d="M164.25 125.083C164.584 124.454 164.936 123.3 168.103 122.262C171.277 121.223 174.363 122.175 175.24 123.041C176.117 123.906 175.546 125.7 175.546 125.7C175.765 125.856 175.955 126.052 176.088 126.283C176.227 126.514 176.307 126.767 176.336 127.033C176.434 127.956 175.598 128.591 175.598 128.591C175.886 128.798 176.111 129.081 176.232 129.416C176.359 129.744 176.382 130.102 176.302 130.448C176.03 131.666 174.767 131.81 174.767 131.81C174.911 131.821 175.055 131.862 175.188 131.925C175.321 131.994 175.43 132.087 175.523 132.196C175.765 132.56 175.736 132.946 174.975 133.546C174.213 134.152 171.161 134.198 170.215 134.55C169.269 134.902 168.946 136.546 166.684 138.017C164.423 139.483 161.602 139.189 161.602 139.189C162.184 135.635 162.502 132.046 162.565 128.446C162.571 128.435 163.915 125.706 164.25 125.083Z" fill="#FEE9DB"/>
<path d="M168.622 87.3117C166.718 87.8713 164.059 88.7136 162.651 89.4001C159.501 90.9405 155.676 92.2444 148.759 98.3944C144.98 101.752 131.405 115.05 125.613 122.602C119.59 130.616 122.399 139.252 132.634 137.239C142.868 135.225 154.251 125.083 154.251 125.083C154.251 125.083 159.565 120.312 162.443 113.637" fill="#00ACFF"/>
<path d="M168.622 87.3117C166.718 87.8713 164.059 88.7136 162.651 89.4001C159.501 90.9405 155.676 92.2444 148.759 98.3944C144.98 101.752 131.405 115.05 125.613 122.602C119.59 130.616 122.399 139.252 132.634 137.239C142.868 135.225 154.251 125.083 154.251 125.083C154.251 125.083 159.565 120.312 162.443 113.637" stroke="black" stroke-width="1.15385" stroke-miterlimit="10" stroke-linecap="round" stroke-linejoin="round"/>
<path d="M125.613 122.602C124.453 124.114 123.605 125.394 123.213 126.323C120.847 131.879 121.586 140.839 129.196 143.244C131.982 144.133 160.597 142.898 160.597 142.898C161.428 139.771 162.005 136.575 162.317 133.35C162.634 130.091 162.715 125.66 162.103 125.625L144.017 124.679" fill="#00ACFF"/>
<path d="M125.613 122.602C124.453 124.114 123.605 125.394 123.213 126.323C120.847 131.879 121.586 140.839 129.196 143.244C131.982 144.133 160.597 142.898 160.597 142.898C161.428 139.771 162.005 136.575 162.317 133.35C162.634 130.091 162.715 125.66 162.103 125.625L144.017 124.679" stroke="black" stroke-width="1.15385" stroke-miterlimit="10" stroke-linecap="round" stroke-linejoin="round"/>
<path d="M167.457 122.008C167.457 122.008 168.409 115.673 166.678 105.185C165.12 95.7405 160.644 90.3636 160.644 90.3636" stroke="black" stroke-width="1.15385" stroke-linecap="round" stroke-linejoin="round"/>
<path d="M175.522 123.796C175.522 123.796 176.728 102.779 169.107 89.9021" stroke="black" stroke-width="1.15385" stroke-linecap="round" stroke-linejoin="round"/>
<path d="M175.574 125.216C175.696 124.725 175.661 124.206 175.476 123.733C175.292 123.26 174.963 122.85 174.536 122.567C173.024 121.512 168.276 121.835 166.782 122.7C165.288 123.566 163.644 125.654 162.553 129.202" stroke="black" stroke-width="1.15385" stroke-linecap="round" stroke-linejoin="round"/>
<path d="M175.661 128.371C175.661 128.371 176.838 127.598 176.007 126.214C175.182 124.829 172.02 124.598 169.136 124.598" stroke="black" stroke-width="1.15385" stroke-linecap="round" stroke-linejoin="round"/>
<path d="M174.859 131.596C174.859 131.596 176.572 130.846 176.445 129.906C176.319 128.96 175.736 128.319 173.907 128.123C172.078 127.927 168.646 127.887 168.646 127.887" stroke="black" stroke-width="1.15385" stroke-linecap="round" stroke-linejoin="round"/>
<path d="M161.376 138.992C161.376 138.992 162.461 139.431 165.375 138.525C168.288 137.619 169.621 134.81 170.221 134.544C170.613 134.366 172.211 133.708 173.757 133.61C175.344 133.512 175.292 131.931 174.963 131.758C173.428 130.95 169.511 131.031 169.511 131.031" stroke="black" stroke-width="1.15385" stroke-linecap="round" stroke-linejoin="round"/>
<path d="M159.103 150.185C164.618 147.104 170.232 141.387 173.774 133.806" stroke="black" stroke-width="1.15385" stroke-linecap="round" stroke-linejoin="round"/>
<path d="M31.8169 305.29H317.705" stroke="black" stroke-width="1.15385" stroke-linecap="round"/>
</svg>
