<svg fill="none" height="24" viewBox="0 0 24 24" width="24" xmlns="http://www.w3.org/2000/svg"><path clip-rule="evenodd" d="m6 4h12v16h-12zm-2 0c0-1.10457.89543-2 2-2h12c1.1046 0 2 .89543 2 2v16c0 1.1046-.8954 2-2 2h-12c-1.10457 0-2-.8954-2-2zm8 7c1.1046 0 2-.8954 2-2 0-1.10457-.8954-2-2-2s-2 .89543-2 2c0 1.1046.8954 2 2 2zm-4 3c0-.5523.44772-1 1-1h6c.5523 0 1 .4477 1 1s-.4477 1-1 1h-6c-.55228 0-1-.4477-1-1zm2 2c-.55228 0-1 .4477-1 1s.44772 1 1 1h4c.5523 0 1-.4477 1-1s-.4477-1-1-1z" fill="#000" fill-rule="evenodd"/></svg>