<svg width="360" height="360" viewBox="0 0 360 360" fill="none" xmlns="http://www.w3.org/2000/svg">
<path d="M129.078 124V124.5C129.078 127.629 130.243 130.542 131.578 132.944C132.244 134.143 132.946 135.206 133.56 136.1C134.163 136.977 134.705 137.727 135.009 138.248L135.095 138.395L135.074 138.562C134.806 140.702 133.733 142.312 132.462 143.383C131.205 144.442 129.719 145 128.578 145H116.078C114.436 145 113.419 145.465 112.695 146.021C112.326 146.306 112.022 146.622 111.742 146.939C111.476 147.241 111.195 147.589 110.931 147.854L110.078 148.707V132.5C110.078 128.926 110.971 126.754 112.44 125.495C113.894 124.249 115.8 124 117.578 124H129.078ZM111.078 146.184C111.357 145.872 111.684 145.537 112.085 145.229C112.987 144.535 114.219 144 116.078 144H128.578C129.436 144 130.701 143.558 131.818 142.617C132.888 141.716 133.789 140.382 134.055 138.607C133.765 138.138 133.306 137.496 132.736 136.666C132.115 135.762 131.391 134.67 130.703 133.431C129.397 131.081 128.205 128.176 128.089 125H117.578C115.856 125 114.261 125.251 113.09 126.255C111.934 127.246 111.078 129.074 111.078 132.5V146.184Z" fill="#222222"/>
<path d="M135.48 112.01C136.677 111.771 137.603 111.883 138.45 112.184C139.222 112.459 139.475 113.282 139.367 113.924C139.19 114.978 139.227 116.303 139.406 117.577C139.586 118.852 139.902 120.028 140.253 120.782C140.443 121.191 140.542 121.789 140.188 122.288C139.269 123.58 137.817 124.078 136.725 124.312C136.566 124.346 136.447 124.436 136.384 124.533C136.325 124.623 136.31 124.724 136.351 124.834C137.334 127.461 140.267 132.21 142.782 135.357C142.943 135.558 143.292 135.612 143.578 135.389C144.573 134.614 145.549 134.21 146.377 134.064C147.016 133.952 147.528 134.346 147.807 134.732C148.344 135.479 149.298 136.35 150.357 137.162C151.41 137.968 152.529 138.686 153.369 139.131C154.039 139.486 154.528 140.369 154.094 141.182C153.157 142.939 151.668 144.124 149.789 144.548C147.92 144.971 145.719 144.63 143.354 143.448C142.266 142.903 140.901 141.686 139.487 140.107C138.061 138.514 136.544 136.508 135.156 134.332C133.769 132.156 132.503 129.799 131.583 127.506C130.665 125.22 130.078 122.965 130.078 121.001C130.078 118.129 130.719 116.021 131.729 114.554C132.741 113.082 134.106 112.285 135.48 112.01ZM131.078 121.001C131.078 122.786 131.616 124.905 132.511 127.134C133.403 129.357 134.638 131.657 136 133.794C137.362 135.93 138.845 137.892 140.231 139.44C141.63 141.002 142.891 142.098 143.802 142.553C146.02 143.663 147.983 143.932 149.568 143.574C151.144 143.218 152.401 142.231 153.211 140.712C153.311 140.525 153.233 140.19 152.901 140.014C152.006 139.54 150.839 138.79 149.749 137.956C148.666 137.127 147.62 136.184 146.995 135.317L146.55 135.049C146.55 135.049 145.072 135.494 144.193 136.178C143.561 136.671 142.567 136.69 142.001 135.981C139.452 132.791 136.448 127.949 135.414 125.184C135.08 124.29 135.734 123.502 136.516 123.335C137.534 123.116 138.675 122.689 139.372 121.708C139.434 121.621 139.458 121.444 139.346 121.203C138.939 120.328 138.416 117.716 138.416 117.716C138.416 117.716 138.181 114.947 138.381 113.758C138.438 113.42 138.281 113.186 138.115 113.127C137.436 112.885 136.693 112.787 135.676 112.991C134.551 113.216 133.415 113.868 132.553 115.121C131.687 116.379 131.078 118.273 131.078 121.001Z" fill="#222222"/>
<path d="M303.91 261.126C304.117 261.309 304.135 261.626 303.952 261.832C303.769 262.039 303.453 262.057 303.246 261.874L268.009 230.607L267.746 230.374L267.796 230.318L268.41 229.626L303.91 261.126Z" fill="black"/>
<path d="M220.908 334.125C221.115 334.307 221.136 334.623 220.953 334.83C220.771 335.037 220.455 335.057 220.248 334.875L186.748 305.375L187.408 304.625L220.908 334.125Z" fill="black"/>
<path d="M194.078 280L194.471 280.309C194.379 280.426 194.288 280.542 194.198 280.658C188.614 287.85 186.102 293.214 185.214 296.978C184.305 300.828 185.113 302.897 185.915 303.632C187.005 304.631 188.822 304.967 191.156 304.748C193.469 304.531 196.172 303.78 198.901 302.751C204.143 300.775 209.374 297.821 211.953 295.853C212.062 295.77 212.166 295.689 212.266 295.609L212.578 296L212.89 296.391C210.34 298.431 204.791 301.6 199.254 303.687C196.483 304.731 193.686 305.516 191.249 305.744C188.833 305.971 186.651 305.661 185.24 304.368C184.042 303.27 183.3 300.738 184.241 296.748C185.189 292.731 187.86 287.123 193.685 279.691L194.078 280Z" fill="black"/>
<path d="M175.57 234.082C175.566 234.106 175.562 234.13 175.558 234.154C175.315 235.633 175.08 237.685 175.14 239.546C175.171 240.492 175.277 241.368 175.487 242.086C175.699 242.81 176.001 243.317 176.378 243.6C176.599 243.765 176.643 244.079 176.477 244.3C176.312 244.52 175.999 244.566 175.778 244.4C175.155 243.933 174.769 243.189 174.528 242.367C174.285 241.538 174.172 240.57 174.14 239.579C174.082 237.77 174.289 235.812 174.517 234.332C174.539 234.189 174.562 234.051 174.584 233.918L175.57 234.082Z" fill="black"/>
<path d="M197.128 144.497C197.011 144.509 196.895 144.522 196.778 144.536C192.184 145.108 188.027 147.812 185.578 149.742C185.514 149.792 185.452 149.842 185.391 149.891L184.766 149.109C185.016 148.909 185.288 148.698 185.578 148.48C188.159 146.541 192.246 144.056 196.784 143.529C196.865 143.52 196.947 143.511 197.028 143.503L197.128 144.497ZM185.432 132.646C186.397 133.612 188.113 134.963 190.149 136.197C192.187 137.432 194.51 138.528 196.687 139.012L196.777 139.032L196.855 139.084C196.948 139.145 197.068 139.209 197.214 139.273C197.437 139.37 197.721 139.47 198.06 139.568C198.607 139.727 199.255 139.871 199.932 139.996C201.284 140.247 202.718 140.42 203.623 140.502C203.898 140.527 204.101 140.77 204.076 141.045C204.051 141.32 203.808 141.523 203.533 141.498C202.605 141.414 201.138 141.237 199.749 140.979C199.055 140.851 198.372 140.7 197.781 140.528C197.67 140.496 197.561 140.463 197.454 140.428C197.044 140.295 196.672 140.143 196.385 139.968C196.37 139.964 196.356 139.961 196.341 139.958C194.057 139.428 191.681 138.294 189.632 137.053C188.037 136.086 186.62 135.042 185.578 134.142C185.256 133.863 184.969 133.598 184.725 133.354L185.432 132.646Z" fill="black"/>
<path d="M191.136 114.004C191.139 114.004 191.142 114.005 191.145 114.005C191.299 114.026 191.428 114.116 191.504 114.24C191.561 114.332 191.588 114.443 191.574 114.559C191.541 114.838 191.514 115.116 191.491 115.394C190.841 123.41 194.411 130.583 196.051 135.337C196.498 136.635 196.906 137.944 197.214 139.273C197.302 139.656 197.383 140.041 197.454 140.428C197.66 141.558 197.784 142.704 197.789 143.873C197.802 146.843 197.051 149.934 195.003 153.262C192.788 156.861 190.179 163.928 187.931 171.821C187.078 174.814 186.281 177.917 185.578 180.982C185.577 180.988 185.575 180.994 185.574 181C184.429 185.999 183.537 190.897 183.075 195.056C181.918 205.468 183.654 215.381 187.1 223.428C190.549 231.484 195.692 237.626 201.309 240.557C201.553 240.684 201.648 240.987 201.52 241.231C201.393 241.476 201.091 241.571 200.847 241.443C194.964 238.374 189.689 232.016 186.181 223.822C185.932 223.241 185.692 222.651 185.461 222.051C185.15 221.243 184.856 220.419 184.579 219.58C182.163 212.251 181.1 203.771 182.081 194.944C182.545 190.767 183.436 185.865 184.578 180.868C184.894 179.488 185.228 178.101 185.578 176.719C186.02 174.977 186.486 173.245 186.969 171.548C189.218 163.649 191.858 156.465 194.151 152.738C195.95 149.816 196.684 147.117 196.778 144.536C196.787 144.316 196.79 144.096 196.789 143.877C196.788 143.761 196.787 143.645 196.784 143.529C196.753 142.325 196.592 141.138 196.341 139.958C196.037 138.524 195.6 137.1 195.104 135.663C193.467 130.915 189.564 123.089 190.581 114.441C190.613 114.167 190.862 113.972 191.136 114.004Z" fill="black"/>
<path d="M80.6011 109.499C80.5935 109.499 80.5858 109.5 80.5781 109.5C69.7659 109.999 64.3892 115.236 62.9498 116.835C60.3624 119.71 59.764 122.893 60.1128 125.88C60.4639 128.885 61.7756 131.69 63.0074 133.743C64.5079 136.244 66.0274 138.724 67.6275 140.865C69.2301 143.01 70.8897 144.78 72.6568 145.889C74.4093 146.988 76.2568 147.43 78.2818 146.943C80.3269 146.452 82.6202 144.999 85.2095 142.163C86.3331 140.933 87.0731 138.578 87.1363 135.593C87.1989 132.631 86.591 129.133 85.1187 125.697L85.1109 125.678L85.1041 125.658C84.3807 123.488 82.9225 121.17 81.2027 119.204C79.479 117.234 77.5365 115.669 75.8814 114.96C75.6276 114.851 75.5099 114.557 75.6187 114.303C75.7275 114.049 76.0222 113.931 76.2759 114.04C77.6598 114.633 79.1634 115.73 80.5781 117.097C80.9132 117.421 81.2433 117.76 81.5656 118.112C81.6966 118.254 81.8264 118.399 81.9546 118.546C83.4235 120.225 84.7296 122.174 85.5778 124.113C85.754 124.516 85.9105 124.918 86.0445 125.317C87.5677 128.877 88.2019 132.512 88.1363 135.614C88.0711 138.698 87.3108 141.344 85.9478 142.837C85.824 142.972 85.7007 143.105 85.5778 143.235C84.5586 144.313 83.5692 145.198 82.6062 145.905C82.329 146.108 82.0541 146.297 81.7812 146.472C80.6588 147.189 79.5721 147.662 78.5152 147.916C76.1811 148.476 74.0603 147.95 72.1255 146.736C70.2052 145.532 68.4585 143.646 66.8267 141.463C66.7629 141.377 66.6992 141.291 66.6356 141.205C65.072 139.079 63.5907 136.658 62.15 134.257C60.8819 132.143 59.4938 129.198 59.1197 125.995C58.7436 122.774 59.3943 119.29 62.2066 116.165C63.7663 114.432 69.3833 109.009 80.5562 108.501L80.6011 109.499Z" fill="black"/>
<path d="M185.578 107.5V134.142V148.48V149.742V176.719V180.982V181H185.574H184.578V180.868V107.517V107.5H185.578Z" fill="black"/>
<path d="M185.579 219.5C185.579 220.337 185.544 221.193 185.461 222.051C185.193 224.824 184.424 227.619 182.728 229.864C181.17 231.925 178.866 233.479 175.558 234.154C175.222 234.222 174.875 234.282 174.517 234.332C173.479 234.477 172.351 234.542 171.126 234.518L170.559 234.5H128.269H91.5771C86.862 234.5 80.7733 230.393 80.584 221.431L80.5791 221V202.5H81.5791V202.985V221L81.583 221.406C81.7595 229.855 87.4333 233.5 91.5771 233.5H170.59L170.6 233.501C176.476 233.746 179.926 231.913 181.93 229.261C183.942 226.597 184.569 223.013 184.579 219.58C184.579 219.554 184.579 219.527 184.579 219.5H185.579Z" fill="black"/>
<path d="M184.578 41C184.578 35.2959 183.458 31.5913 181.104 29.2959C178.747 26.9978 175.039 26 169.578 26H93.5781C88.4792 26 85.5267 27.9284 83.8164 30.7002C82.0786 33.5166 81.5781 37.276 81.5781 41V118C81.5781 118.038 81.5738 118.076 81.5656 118.112C81.5149 118.334 81.3159 118.5 81.0781 118.5C80.802 118.5 80.5781 118.276 80.5781 118V117.097V109.5V97.9022V70.3007V41C80.5781 37.2241 81.0776 33.2334 82.9648 30.1748C84.8796 27.0716 88.1771 25 93.5781 25H169.578C175.117 25 179.159 26.0025 181.802 28.5791C184.447 31.1587 185.578 35.2044 185.578 41V70.9824C187.442 69.6374 189.151 69.0632 190.706 69.0781C192.489 69.0954 193.987 69.8863 195.203 71.0078C197.606 73.2251 199.012 76.8266 199.559 78.8604L199.724 79.4092C201.474 85.0445 204.453 89.322 207.341 92.8721C208.087 93.7887 208.825 94.6554 209.536 95.4863C210.246 96.3156 210.93 97.1113 211.559 97.8779C212.813 99.4063 213.88 100.855 214.533 102.293C218.966 112.045 222.554 120.333 223.568 125.402C224.536 130.239 226.796 134.671 228.957 139.083C231.104 143.467 233.157 147.841 233.576 152.455C234.046 157.624 233.858 162.938 233.844 168.479C233.83 174.035 233.99 179.852 235.144 186.103C237.434 198.514 243.654 212.698 260.35 229.861C261.615 229.081 262.919 228.564 264.143 228.366C265.476 228.15 266.752 228.305 267.751 228.956C268.763 229.616 269.412 230.735 269.578 232.274C269.742 233.796 269.438 235.744 268.555 238.148C267.276 242.863 264.171 248.096 260.013 253.463C255.844 258.844 250.589 264.394 244.985 269.737C233.777 280.424 221.134 290.313 212.875 296.402L212.386 296.764L212.126 296.214C212.069 296.093 212.011 295.972 211.953 295.853C208.627 289.011 204.168 285.537 199.67 283.167C197.83 282.197 195.988 281.415 194.198 280.658C193.749 280.468 193.304 280.28 192.862 280.091C190.673 279.153 188.585 278.191 186.787 276.907C175.729 269.008 167.815 263.928 163.854 261.947C158.651 259.346 151.289 254.45 144.281 249.215C137.272 243.979 130.578 238.375 126.717 234.346C126.526 234.146 126.533 233.83 126.732 233.639C126.932 233.448 127.248 233.455 127.439 233.654C127.703 233.929 127.979 234.211 128.269 234.5C132.165 238.393 138.371 243.551 144.88 248.413C151.874 253.637 159.179 258.491 164.302 261.053C168.341 263.072 176.313 268.196 187.369 276.093C189.071 277.308 191.07 278.235 193.256 279.172C195.429 280.103 197.788 281.045 200.136 282.282C204.74 284.708 209.334 288.283 212.764 295.239C221.009 289.138 233.346 279.453 244.296 269.013C249.879 263.689 255.094 258.177 259.222 252.85C263.267 247.629 266.24 242.619 267.513 238.161C264.771 235.666 262.244 233.23 259.916 230.85C242.89 213.435 236.504 198.987 234.16 186.283C232.99 179.941 232.83 174.051 232.844 168.478C232.858 162.89 233.044 157.653 232.58 152.545C232.18 148.141 230.216 143.927 228.059 139.522C225.916 135.146 223.586 130.587 222.588 125.598C221.602 120.667 218.075 112.501 213.623 102.707C213.027 101.395 212.031 100.031 210.785 98.5127C210.217 97.8197 209.602 97.1019 208.956 96.3464C208.896 96.2768 208.836 96.2069 208.776 96.1367C208.065 95.3055 207.32 94.43 206.565 93.5029C203.547 89.7924 200.374 85.2317 198.598 79.1396L198.595 79.1299C198.067 77.1619 196.724 73.7713 194.524 71.7422C193.437 70.739 192.167 70.0923 190.696 70.0781C189.24 70.0641 187.504 70.6701 185.471 72.3252C180.598 81.4193 180.597 93.9675 183.862 103.271C185.5 107.936 187.936 111.722 190.923 113.851C190.997 113.903 191.071 113.955 191.145 114.005C191.264 114.086 191.383 114.164 191.504 114.24C194.336 116.013 197.658 116.345 201.36 114.55C201.609 114.43 201.908 114.534 202.028 114.782C202.148 115.031 202.044 115.33 201.796 115.45C197.999 117.291 194.498 117.072 191.491 115.394C191.1 115.175 190.717 114.932 190.343 114.665C188.054 113.033 186.112 110.539 184.578 107.517C183.957 106.292 183.402 104.98 182.919 103.604C182.094 101.253 181.471 98.6986 181.078 96.0429C180.44 91.7401 180.403 87.1713 181.078 82.7729C181.67 78.9111 182.812 75.1807 184.578 71.877V41ZM267.204 229.794C266.477 229.32 265.477 229.162 264.303 229.353C263.29 229.517 262.178 229.936 261.067 230.593C263.165 232.722 265.423 234.897 267.855 237.119C268.517 235.126 268.711 233.563 268.584 232.382C268.504 231.642 268.3 231.059 268.009 230.607C267.942 230.504 267.871 230.408 267.796 230.318C267.619 230.108 267.42 229.935 267.204 229.794Z" fill="black"/>
<path d="M85.5778 219.5V200.383C84.3205 201.74 82.9737 202.577 81.5791 202.985C80.6184 203.266 79.6349 203.344 78.6423 203.248C75.9073 202.984 73.1875 201.409 70.7575 199.384C67.7899 196.911 63.6238 193.799 62.5857 188.09C62.0077 184.911 62.7939 181.732 64.1569 179.12C65.4063 176.726 67.1684 174.76 68.8894 173.681C68.8059 173.538 68.7237 173.391 68.6413 173.243L68.6374 173.237L61.6374 160.237L61.6325 160.227L61.6276 160.217C58.5746 153.856 59.0461 149.601 60.6999 146.514C61.5157 144.991 62.6037 143.784 63.6247 142.771C64.673 141.73 65.5848 140.951 66.1853 140.19L66.9704 140.81C66.8676 140.94 66.7554 141.072 66.6356 141.205C65.998 141.915 65.1429 142.672 64.3288 143.479C63.3343 144.466 62.3274 145.593 61.5808 146.986C60.1101 149.732 59.582 153.642 62.5261 159.778L69.5153 172.757L69.7585 173.184C69.84 173.323 69.9212 173.46 70.0036 173.595C71.7348 176.415 73.6625 178.066 75.612 178.957C77.5629 179.849 79.5772 179.997 81.5124 179.741C83.0451 179.538 84.522 179.081 85.8669 178.545C88.2595 177.345 90.7434 175.089 91.3972 171.106C92.0566 167.09 90.8742 161.216 85.653 152.763L85.6521 152.762L81.7812 146.472L81.6521 146.262L82.5036 145.738L82.6062 145.905L85.5778 150.733V143.235V142.232L85.8005 142.084C86.414 141.675 86.9613 140.832 87.361 139.61C87.7561 138.403 87.9847 136.892 88.0153 135.241C88.0766 131.934 87.3391 128.154 85.6462 125.252L85.5778 125.135V124.113V39.8301C85.5777 36.4129 85.9453 33.8029 87.239 32.0557C88.5656 30.2643 90.7644 29.5 94.0778 29.5H104.578C105.888 29.4999 107.453 29.7607 108.892 30.3496C110.33 30.9377 111.683 31.8705 112.507 33.2422C113.263 34.5025 114.196 35.4292 115.459 36.0479C116.731 36.6708 118.374 37 120.578 37H145.078C147.767 37 149.555 36.5109 150.839 35.8105C152.122 35.1107 152.946 34.1771 153.678 33.2002C154.179 32.5326 154.855 31.581 156.136 30.8174C157.419 30.0531 159.262 29.5 162.078 29.5H172.078C173.65 29.5 175.912 29.8919 177.786 31.5645C179.671 33.2478 181.078 36.1518 181.078 41V82.7729V96.0429V219.5C181.078 222.776 180.58 225.438 178.952 227.27C177.312 229.115 174.634 230 170.578 230H92.0778C90.5004 230 89.2693 229.638 88.3239 228.981C87.3789 228.325 86.7635 227.405 86.362 226.368C85.5777 224.342 85.5778 221.764 85.5778 219.553C85.5778 219.535 85.5778 219.518 85.5778 219.5ZM69.4138 174.531C67.8813 175.494 66.2316 177.307 65.0437 179.583C63.7552 182.052 63.0417 185.004 63.57 187.91C64.532 193.201 68.3659 196.089 71.3982 198.616C73.768 200.591 76.2982 202.016 78.738 202.252C81.116 202.482 83.4911 201.589 85.6413 198.748C86.1643 197.458 86.9738 195.94 87.2702 193.807C87.5681 191.662 87.338 188.883 85.6247 185.212C84.5586 182.927 82.9523 182.009 81.4265 180.757C79.4136 180.993 77.2804 180.82 75.196 179.867C73.1379 178.927 71.1658 177.245 69.4138 174.531ZM85.5778 179.726C84.6909 180.051 83.7463 180.336 82.7644 180.539C82.7728 180.546 82.7813 180.552 82.7898 180.559C83.7037 181.262 84.714 182.039 85.5778 183.195C85.5778 181.84 85.5778 181.081 85.5778 179.726ZM86.5778 124.866C88.3357 127.946 89.0782 131.86 89.0153 135.259C88.9834 136.983 88.7443 138.597 88.3112 139.921C87.9198 141.117 87.3495 142.134 86.5778 142.751V152.358C91.7944 160.842 93.0957 166.931 92.3835 171.269C91.6891 175.498 89.0967 177.963 86.5778 179.301V184.893C88.3211 188.671 88.5845 191.61 88.2605 193.943C87.9444 196.219 87.0643 197.911 86.5778 199.103V219.5C86.5778 221.777 86.5852 224.174 87.2946 226.007C87.6432 226.907 88.1521 227.644 88.8942 228.159C89.6363 228.674 90.6556 229 92.0778 229H170.578C174.521 229 176.845 228.135 178.205 226.605C179.577 225.062 180.078 222.723 180.078 219.5V41C180.078 36.3482 178.735 33.7522 177.12 32.3105C175.493 30.8583 173.506 30.5 172.078 30.5H162.078C159.394 30.5 157.74 31.0266 156.649 31.6768C155.557 32.3276 154.984 33.1258 154.478 33.7998C153.711 34.8228 152.784 35.8883 151.317 36.6885C149.851 37.4881 147.889 38 145.078 38H120.578C118.282 38 116.473 37.6577 115.018 36.9453C113.555 36.2286 112.488 35.1547 111.649 33.7568C110.972 32.6289 109.826 31.8122 108.513 31.2754C107.203 30.7394 105.768 30.4999 104.578 30.5H94.0778C90.8916 30.5 89.0909 31.2357 88.0427 32.6514C86.9615 34.1116 86.5777 36.4169 86.5778 39.8301V124.866Z" fill="black"/>
<path d="M60.8775 67.5416C64.9646 65.7533 68.5628 65.4401 71.9097 65.9938C75.2429 66.5452 78.3015 67.953 81.313 69.5592L80.8423 70.441C80.7542 70.394 80.6662 70.3473 80.5781 70.3007C77.6805 68.7688 74.8199 67.4886 71.7466 66.9801C68.5935 66.4585 65.1908 66.7455 61.2779 68.4576C57.2324 70.2279 55.8377 73.4006 56.0142 76.5543C56.1932 79.7526 57.9925 82.9286 60.3619 84.5885L80.5781 97.9022L80.8521 98.0826L80.3023 98.9176L59.8023 85.4176L59.7906 85.4098C57.1611 83.5692 55.2118 80.106 55.0162 76.61C54.818 73.0683 56.4234 69.4906 60.8775 67.5416Z" fill="black"/>
<path d="M162.078 130.5C162.078 113.931 148.647 100.5 132.078 100.5C115.51 100.5 102.078 113.931 102.078 130.5C102.078 147.069 115.51 160.5 132.078 160.5V161.5C114.957 161.5 101.078 147.621 101.078 130.5C101.078 113.379 114.957 99.5 132.078 99.5C149.199 99.5 163.078 113.379 163.078 130.5C163.078 147.621 149.199 161.5 132.078 161.5V160.5C148.647 160.5 162.078 147.069 162.078 130.5Z" fill="black"/>
<path d="M175.558 234.154C175.315 235.633 175.08 237.685 175.14 239.546C175.171 240.492 175.277 241.368 175.487 242.086C175.699 242.81 176.001 243.317 176.378 243.6C176.599 243.765 176.643 244.079 176.477 244.3C176.312 244.52 175.999 244.566 175.778 244.4C175.155 243.933 174.769 243.189 174.528 242.367C174.285 241.538 174.172 240.57 174.14 239.579C174.082 237.77 174.289 235.812 174.517 234.332C173.479 234.477 172.351 234.542 171.126 234.518L170.559 234.5H128.269C132.165 238.393 138.371 243.551 144.88 248.413C151.874 253.637 159.179 258.491 164.302 261.053C168.341 263.072 176.313 268.196 187.369 276.093C189.071 277.308 191.07 278.235 193.256 279.172C195.429 280.103 197.788 281.045 200.136 282.282C204.74 284.708 209.334 288.283 212.764 295.239C221.009 289.138 233.346 279.453 244.296 269.013C249.879 263.689 255.094 258.177 259.222 252.85C263.267 247.629 266.24 242.619 267.513 238.161C264.771 235.666 262.244 233.23 259.916 230.85C242.89 213.435 236.504 198.987 234.16 186.283C232.99 179.941 232.83 174.051 232.844 168.478C232.858 162.89 233.044 157.653 232.58 152.545C232.18 148.141 230.216 143.927 228.059 139.522C225.916 135.146 223.586 130.587 222.588 125.598C221.602 120.667 218.075 112.501 213.623 102.707C213.027 101.395 212.031 100.031 210.785 98.5127C210.217 97.8197 209.602 97.1019 208.956 96.3464L208.776 96.1367C208.065 95.3055 207.32 94.43 206.565 93.5029C203.547 89.7924 200.374 85.2317 198.598 79.1396L198.595 79.1299C198.067 77.1619 196.724 73.7713 194.524 71.7422C193.437 70.739 192.167 70.0923 190.696 70.0781C189.24 70.0641 187.504 70.6701 185.471 72.3252C180.598 81.4193 180.597 93.9675 183.862 103.271C185.5 107.936 187.936 111.722 190.923 113.851C190.997 113.903 191.071 113.955 191.145 114.005C191.299 114.026 191.428 114.116 191.504 114.24C194.336 116.013 197.658 116.345 201.36 114.55C201.609 114.43 201.908 114.534 202.028 114.782C202.148 115.031 202.044 115.33 201.796 115.45C197.999 117.291 194.498 117.072 191.491 115.394C190.841 123.41 194.411 130.583 196.051 135.337C196.498 136.635 196.906 137.944 197.214 139.273C197.437 139.37 197.721 139.47 198.06 139.568C198.607 139.727 199.255 139.871 199.932 139.996C201.284 140.247 202.718 140.42 203.623 140.502C203.898 140.527 204.101 140.77 204.076 141.045C204.051 141.32 203.808 141.523 203.533 141.498C202.605 141.414 201.138 141.237 199.749 140.979C199.055 140.851 198.372 140.7 197.781 140.528C197.67 140.496 197.561 140.463 197.454 140.428C197.66 141.558 197.784 142.704 197.789 143.873C197.802 146.843 197.051 149.934 195.003 153.262C192.788 156.861 190.179 163.928 187.931 171.821C187.078 174.814 186.281 177.917 185.578 180.982V181H185.574C184.429 185.999 183.537 190.897 183.075 195.056C181.918 205.468 183.654 215.381 187.1 223.428C190.549 231.484 195.692 237.626 201.309 240.557C201.553 240.684 201.648 240.987 201.52 241.231C201.393 241.476 201.091 241.571 200.847 241.443C194.964 238.374 189.689 232.016 186.181 223.822C185.932 223.241 185.692 222.651 185.461 222.051C185.193 224.824 184.424 227.619 182.728 229.864C181.17 231.925 178.866 233.479 175.558 234.154Z" fill="white"/>
<path d="M196.778 144.536C192.184 145.108 188.027 147.812 185.578 149.742V176.719C186.02 174.977 186.486 173.245 186.969 171.548C189.218 163.649 191.858 156.465 194.151 152.738C195.95 149.816 196.684 147.117 196.778 144.536Z" fill="white"/>
<path d="M185.578 148.48C188.159 146.541 192.246 144.056 196.784 143.529C196.753 142.325 196.592 141.138 196.341 139.958C194.057 139.428 191.681 138.294 189.632 137.053C188.037 136.086 186.62 135.042 185.578 134.142V148.48Z" fill="white"/>
<path fill-rule="evenodd" clip-rule="evenodd" d="M86.5778 124.866C88.3357 127.946 89.0782 131.86 89.0153 135.259C88.9834 136.983 88.7443 138.597 88.3112 139.921C87.9198 141.117 87.3495 142.134 86.5778 142.751V152.358C91.7944 160.842 93.0957 166.931 92.3835 171.269C91.6891 175.498 89.0967 177.963 86.5778 179.301V184.893C88.3211 188.671 88.5845 191.61 88.2605 193.943C87.9444 196.219 87.0643 197.911 86.5778 199.103V219.5C86.5778 221.777 86.5852 224.174 87.2946 226.007C87.6432 226.907 88.1521 227.644 88.8942 228.159C89.6363 228.674 90.6556 229 92.0778 229H170.578C174.521 229 176.845 228.135 178.205 226.605C179.577 225.062 180.078 222.723 180.078 219.5V41C180.078 36.3482 178.735 33.7522 177.12 32.3105C175.493 30.8583 173.506 30.5 172.078 30.5H162.078C159.394 30.5 157.74 31.0266 156.649 31.6768C155.557 32.3276 154.984 33.1258 154.478 33.7998C153.711 34.8228 152.784 35.8883 151.317 36.6885C149.851 37.4881 147.889 38 145.078 38H120.578C118.282 38 116.473 37.6577 115.018 36.9453C113.555 36.2286 112.488 35.1547 111.649 33.7568C110.972 32.6289 109.826 31.8122 108.513 31.2754C107.203 30.7394 105.768 30.4999 104.578 30.5H94.0778C90.8916 30.5 89.0909 31.2357 88.0427 32.6514C86.9615 34.1116 86.5777 36.4169 86.5778 39.8301V124.866ZM132.078 161.5C114.957 161.5 101.078 147.621 101.078 130.5C101.078 113.379 114.957 99.5 132.078 99.5C149.199 99.5 163.078 113.379 163.078 130.5C163.078 147.621 149.199 161.5 132.078 161.5Z" fill="#222222"/>
<path d="M184.578 180.868V107.517C183.957 106.292 183.402 104.98 182.919 103.604C182.094 101.253 181.471 98.6986 181.078 96.0429V219.5C181.078 222.776 180.58 225.438 178.952 227.27C177.312 229.115 174.634 230 170.578 230H92.0778C90.5004 230 89.2693 229.638 88.3239 228.981C87.3789 228.325 86.7635 227.405 86.362 226.368C85.5777 224.342 85.5778 221.764 85.5778 219.553V219.5V200.383C84.3205 201.74 82.9737 202.577 81.5791 202.985V221L81.583 221.406C81.7595 229.855 87.4333 233.5 91.5771 233.5H170.59L170.6 233.501C176.476 233.746 179.926 231.913 181.93 229.261C183.942 226.597 184.569 223.013 184.579 219.58C182.163 212.251 181.1 203.771 182.081 194.944C182.545 190.767 183.436 185.865 184.578 180.868Z" fill="#FFD942"/>
<path d="M81.5656 118.112C81.6966 118.254 81.8264 118.399 81.9546 118.546C83.4235 120.225 84.7296 122.174 85.5778 124.113V39.8301C85.5777 36.4129 85.9453 33.8029 87.239 32.0557C88.5656 30.2643 90.7644 29.5 94.0778 29.5H104.578C105.888 29.4999 107.453 29.7607 108.892 30.3496C110.33 30.9377 111.683 31.8705 112.507 33.2422C113.263 34.5025 114.196 35.4292 115.459 36.0479C116.731 36.6708 118.374 37 120.578 37H145.078C147.767 37 149.555 36.5109 150.839 35.8105C152.122 35.1107 152.946 34.1771 153.678 33.2002C154.179 32.5326 154.855 31.581 156.136 30.8174C157.419 30.0531 159.262 29.5 162.078 29.5H172.078C173.65 29.5 175.912 29.8919 177.786 31.5645C179.671 33.2478 181.078 36.1518 181.078 41V82.7729C181.67 78.9111 182.812 75.1807 184.578 71.877V41C184.578 35.2959 183.458 31.5913 181.104 29.2959C178.747 26.9978 175.039 26 169.578 26H93.5781C88.4792 26 85.5267 27.9284 83.8164 30.7002C82.0786 33.5166 81.5781 37.276 81.5781 41V118C81.5781 118.038 81.5738 118.076 81.5656 118.112Z" fill="#FFD942"/>
<path fill-rule="evenodd" clip-rule="evenodd" d="M162.078 130.5C162.078 113.931 148.647 100.5 132.078 100.5C115.51 100.5 102.078 113.931 102.078 130.5C102.078 147.069 115.51 160.5 132.078 160.5C148.647 160.5 162.078 147.069 162.078 130.5ZM129.078 124.5V124H117.578C115.8 124 113.894 124.249 112.44 125.495C110.971 126.754 110.078 128.926 110.078 132.5V148.707L110.931 147.854C111.195 147.589 111.476 147.241 111.742 146.939C112.022 146.622 112.326 146.306 112.695 146.021C113.419 145.465 114.436 145 116.078 145H128.578C129.719 145 131.205 144.442 132.462 143.383C133.733 142.312 134.806 140.702 135.074 138.562L135.095 138.395L135.009 138.248C134.705 137.727 134.163 136.977 133.56 136.1C132.946 135.206 132.244 134.143 131.578 132.944C130.243 130.542 129.078 127.629 129.078 124.5ZM138.45 112.184C137.603 111.883 136.677 111.771 135.48 112.01C134.106 112.285 132.741 113.082 131.729 114.554C130.719 116.021 130.078 118.129 130.078 121.001C130.078 122.965 130.665 125.22 131.583 127.506C132.503 129.799 133.769 132.156 135.156 134.332C136.544 136.508 138.061 138.514 139.487 140.107C140.901 141.686 142.266 142.903 143.354 143.448C145.719 144.63 147.92 144.971 149.789 144.548C151.668 144.124 153.157 142.939 154.094 141.182C154.528 140.369 154.039 139.486 153.369 139.131C152.529 138.686 151.41 137.968 150.357 137.162C149.298 136.35 148.344 135.479 147.807 134.732C147.528 134.346 147.016 133.952 146.377 134.064C145.549 134.21 144.573 134.614 143.578 135.389C143.292 135.612 142.943 135.558 142.782 135.357C140.267 132.21 137.334 127.461 136.351 124.834C136.31 124.724 136.325 124.623 136.384 124.533C136.447 124.436 136.566 124.346 136.725 124.312C137.817 124.078 139.269 123.58 140.188 122.288C140.542 121.789 140.443 121.191 140.253 120.782C139.902 120.028 139.586 118.852 139.406 117.577C139.227 116.303 139.19 114.978 139.367 113.924C139.475 113.282 139.222 112.459 138.45 112.184Z" fill="#FFD942"/>
<path d="M111.078 146.184C111.357 145.872 111.684 145.537 112.085 145.229C112.987 144.535 114.219 144 116.078 144H128.578C129.436 144 130.701 143.558 131.818 142.617C132.888 141.716 133.789 140.382 134.055 138.607C133.765 138.138 133.306 137.496 132.736 136.666C132.115 135.762 131.391 134.67 130.703 133.431C129.397 131.081 128.205 128.176 128.089 125H117.578C115.856 125 114.261 125.251 113.09 126.255C111.934 127.246 111.078 129.074 111.078 132.5V146.184Z" fill="#222222"/>
<path d="M131.078 121.001C131.078 122.786 131.616 124.905 132.511 127.134C133.403 129.357 134.638 131.657 136 133.794C137.362 135.93 138.845 137.892 140.231 139.44C141.63 141.002 142.891 142.098 143.802 142.553C146.02 143.663 147.983 143.932 149.568 143.574C151.144 143.218 152.401 142.231 153.211 140.712C153.311 140.525 153.233 140.19 152.901 140.014C152.006 139.54 150.839 138.79 149.749 137.956C148.666 137.127 147.62 136.184 146.995 135.317L146.55 135.049C146.55 135.049 145.072 135.494 144.193 136.178C143.561 136.671 142.567 136.69 142.001 135.981C139.452 132.791 136.448 127.949 135.414 125.184C135.08 124.29 135.734 123.502 136.516 123.335C137.534 123.116 138.675 122.689 139.372 121.708C139.434 121.621 139.458 121.444 139.346 121.203C138.939 120.328 138.416 117.716 138.416 117.716C138.416 117.716 138.181 114.947 138.381 113.758C138.438 113.42 138.281 113.186 138.115 113.127C137.436 112.885 136.693 112.787 135.676 112.991C134.551 113.216 133.415 113.868 132.553 115.121C131.687 116.379 131.078 118.273 131.078 121.001Z" fill="#222222"/>
<path d="M194.198 280.658C188.614 287.85 186.102 293.214 185.214 296.978C184.305 300.828 185.113 302.897 185.915 303.632C187.005 304.631 188.822 304.967 191.156 304.748C193.469 304.531 196.172 303.78 198.901 302.751C204.143 300.775 209.374 297.821 211.953 295.853C208.627 289.011 204.168 285.537 199.67 283.167C197.83 282.197 195.988 281.415 194.198 280.658Z" fill="#222222"/>
<path d="M268.009 230.607L267.746 230.374L267.796 230.318C267.619 230.108 267.42 229.935 267.204 229.794C266.477 229.32 265.477 229.162 264.303 229.353C263.29 229.517 262.178 229.936 261.067 230.593C263.165 232.722 265.423 234.897 267.855 237.119C268.517 235.126 268.711 233.563 268.584 232.382C268.504 231.642 268.3 231.059 268.009 230.607Z" fill="#222222"/>
<path d="M81.7812 146.472C80.6588 147.189 79.5721 147.662 78.5152 147.916C76.1811 148.476 74.0603 147.95 72.1255 146.736C70.2052 145.532 68.4585 143.646 66.8267 141.463C66.7629 141.377 66.6992 141.291 66.6356 141.205C65.998 141.915 65.1429 142.672 64.3288 143.479C63.3343 144.466 62.3274 145.593 61.5808 146.986C60.1101 149.732 59.582 153.642 62.5261 159.778L69.5153 172.757L69.7585 173.184C69.84 173.323 69.9212 173.46 70.0036 173.595C71.7348 176.415 73.6625 178.066 75.612 178.957C77.5629 179.849 79.5772 179.997 81.5124 179.741C83.0451 179.538 84.522 179.081 85.8669 178.545C88.2595 177.345 90.7434 175.089 91.3972 171.106C92.0566 167.09 90.8742 161.216 85.653 152.763L85.6521 152.762L81.7812 146.472Z" fill="white"/>
<path d="M80.5781 109.5C69.7659 109.999 64.3892 115.236 62.9498 116.835C60.3624 119.71 59.764 122.893 60.1128 125.88C60.4639 128.885 61.7756 131.69 63.0074 133.743C64.5079 136.244 66.0274 138.724 67.6275 140.865C69.2301 143.01 70.8897 144.78 72.6568 145.889C74.4093 146.988 76.2568 147.43 78.2818 146.943C80.3269 146.452 82.6202 144.999 85.2095 142.163C86.3331 140.933 87.0731 138.578 87.1363 135.593C87.1989 132.631 86.591 129.133 85.1187 125.697L85.1109 125.678L85.1041 125.658C84.3807 123.488 82.9225 121.17 81.2027 119.204C79.479 117.234 77.5365 115.669 75.8814 114.96C75.6276 114.851 75.5099 114.557 75.6187 114.303C75.7275 114.049 76.0222 113.931 76.2759 114.04C77.6598 114.633 79.1634 115.73 80.5781 117.097V109.5Z" fill="white"/>
<path d="M80.5781 70.3007C77.6805 68.7688 74.8199 67.4886 71.7466 66.9801C68.5935 66.4585 65.1908 66.7455 61.2779 68.4576C57.2324 70.2279 55.8377 73.4006 56.0142 76.5543C56.1932 79.7526 57.9925 82.9286 60.3619 84.5885L80.5781 97.9022V70.3007Z" fill="white"/>
<path d="M69.4138 174.531C67.8813 175.494 66.2316 177.307 65.0437 179.583C63.7552 182.052 63.0417 185.004 63.57 187.91C64.532 193.201 68.3659 196.089 71.3982 198.616C73.768 200.591 76.2982 202.016 78.738 202.252C81.116 202.482 83.4911 201.589 85.6413 198.748C86.1643 197.458 86.9738 195.94 87.2702 193.807C87.5681 191.662 87.338 188.883 85.6247 185.212C84.5586 182.927 82.9523 182.009 81.4265 180.757C79.4136 180.993 77.2804 180.82 75.196 179.867C73.1379 178.927 71.1658 177.245 69.4138 174.531Z" fill="white"/>
<path d="M82.6062 145.905L85.5778 150.733V143.235C84.5586 144.313 83.5692 145.198 82.6062 145.905Z" fill="#FFD942"/>
<path d="M85.5778 179.726C84.6909 180.051 83.7463 180.336 82.7644 180.539L82.7898 180.559C83.7037 181.262 84.714 182.039 85.5778 183.195V179.726Z" fill="#FFD942"/>
</svg>
