<svg viewBox="0 0 640 360" xmlns="http://www.w3.org/2000/svg"><g stroke-opacity=".64"><path d="m640 0h-640v360h640zm-190.5 180.522c0 74.281-38.898 134.315-86.5 134.315s-86.5-60.034-86.5-134.315c0-68.099 32.89-102.359 86.5-102.359s86.5 34.26 86.5 102.359zm-363 117.055v-203.077h144v203.077z" fill="#21201f" fill-opacity=".64" fill-rule="evenodd"/><g stroke-width="3"><path d="m83.5 300.577v-209.077h150v209.077zm343.121-23.415c-16.009 24.812-38.456 40.675-63.621 40.675s-47.612-15.863-63.622-40.675c-16.03-24.846-25.878-59.008-25.878-96.64 0-34.491 8.327-60.885 23.887-78.691 15.614-17.866 38.143-26.668 65.613-26.668s49.999 8.802 65.613 26.668c15.56 17.806 23.887 44.2 23.887 78.691 0 37.632-9.848 71.794-25.879 96.64zm22.879-96.64c0 74.281-38.898 134.315-86.5 134.315s-86.5-60.034-86.5-134.315c0-68.099 32.89-102.359 86.5-102.359s86.5 34.26 86.5 102.359zm-363-86.022h144v203.077h-144z" fill="#fff" fill-opacity=".64" fill-rule="evenodd"/><path d="m86 196.5h145" fill="none" stroke="#fff"/></g></g></svg>