<svg width="25" height="24" viewBox="0 0 25 24" fill="none" xmlns="http://www.w3.org/2000/svg">
    <path fill-rule="evenodd" clip-rule="evenodd" d="M19.1464 6.75355C19.3417 6.55829 19.3417 6.24171 19.1464 6.04645L18.4536 5.35355C18.2583 5.15829 17.9417 5.15829 17.7464 5.35355L12.5 10.6L7.25355 5.35355C7.05829 5.15829 6.74171 5.15829 6.54645 5.35355L5.85355 6.04645C5.65829 6.24171 5.65829 6.55829 5.85355 6.75355L11.1 12L5.85355 17.2464C5.65829 17.4417 5.65829 17.7583 5.85355 17.9536L6.54645 18.6464C6.74171 18.8417 7.05829 18.8417 7.25355 18.6464L12.5 13.4L17.7464 18.6464C17.9417 18.8417 18.2583 18.8417 18.4536 18.6464L19.1464 17.9536C19.3417 17.7583 19.3417 17.4417 19.1464 17.2464L13.9 12L19.1464 6.75355Z" fill="#CC2D32"/>
</svg>