<svg width="14" height="14" viewBox="0 0 14 14" fill="none" xmlns="http://www.w3.org/2000/svg">
<path fill-rule="evenodd" clip-rule="evenodd" d="M4.14363 6.0021C2.95974 6.0021 2 5.04237 2 3.85847C2 2.67458 2.95974 1.71484 4.14363 1.71484C5.32752 1.71484 6.28726 2.67458 6.28726 3.85847C6.28726 5.04237 5.32752 6.0021 4.14363 6.0021ZM3.26166 11.2652C3.03842 11.4884 2.67648 11.4884 2.45325 11.2652C2.23001 11.042 2.23001 10.68 2.45325 10.4568L10.4561 2.45391C10.6794 2.23067 11.0413 2.23067 11.2645 2.45391C11.4878 2.67714 11.4878 3.03908 11.2645 3.26232L3.26166 11.2652ZM7.43053 9.86064C7.43053 11.0445 8.39027 12.0043 9.57416 12.0043C10.7581 12.0043 11.7178 11.0445 11.7178 9.86064C11.7178 8.67674 10.7581 7.71701 9.57416 7.71701C8.39027 7.71701 7.43053 8.67674 7.43053 9.86064ZM4.14389 4.85877C4.69637 4.85877 5.14425 4.4109 5.14425 3.85841C5.14425 3.30593 4.69637 2.85805 4.14389 2.85805C3.5914 2.85805 3.14352 3.30593 3.14352 3.85841C3.14352 4.4109 3.5914 4.85877 4.14389 4.85877ZM10.5748 9.86058C10.5748 10.4131 10.1269 10.8609 9.57441 10.8609C9.02193 10.8609 8.57405 10.4131 8.57405 9.86058C8.57405 9.30809 9.02193 8.86022 9.57441 8.86022C10.1269 8.86022 10.5748 9.30809 10.5748 9.86058Z" fill="white"/>
</svg>
