<svg width="299" height="288" viewBox="0 0 299 288" fill="none" xmlns="http://www.w3.org/2000/svg">
<g clip-path="url(#clip0_5937_35424)">
<path d="M273.008 -1.52588e-05H25.2838C11.3199 -1.52588e-05 0 11.3199 0 25.2837V262.53C0 276.494 11.3199 287.813 25.2838 287.813H273.008C286.972 287.813 298.291 276.494 298.291 262.53V25.2837C298.291 11.3199 286.972 -1.52588e-05 273.008 -1.52588e-05Z" fill="white"/>
<path d="M71.2844 39.3247L51.917 58.6899" stroke="#C9C9C9" stroke-width="1.47489" stroke-linecap="round" stroke-linejoin="round"/>
<path d="M84.7471 44.7206L46.6592 83.4533" stroke="#C9C9C9" stroke-width="1.47489" stroke-linecap="round" stroke-linejoin="round"/>
<path d="M99.326 13.9061V89.3359C99.326 109.169 83.1908 125.304 63.3578 125.304C43.5248 125.304 27.3916 109.177 27.3916 89.3359V13.9061" stroke="#C9C9C9" stroke-width="1.47489" stroke-linecap="round" stroke-linejoin="round"/>
<path d="M93.0054 13.9061V89.3359C93.0065 93.23 92.2405 97.0861 90.7511 100.684C89.2616 104.282 87.078 107.551 84.3249 110.305C81.5718 113.059 78.3031 115.244 74.7056 116.734C71.1081 118.225 67.2522 118.992 63.3581 118.992C59.4642 118.991 55.6085 118.224 52.0113 116.734C48.414 115.243 45.1456 113.058 42.3927 110.304C39.6398 107.551 37.4563 104.281 35.967 100.684C34.4777 97.0858 33.7118 93.2298 33.7129 89.3359V13.9061" stroke="#C9C9C9" stroke-width="1.47489" stroke-linecap="round" stroke-linejoin="round"/>
<path d="M202.408 37.0323L198.133 35.3277C192.889 33.2376 187.9 28.4821 184.322 24.1102C183.646 23.2863 182.885 22.7027 182.078 22.7027H177.053C176.244 22.7027 175.477 23.2884 174.803 24.1186C171.236 28.4821 166.526 33.2207 161.293 35.3088L156.969 37.0323C153.213 38.5277 150.021 41.1637 147.842 44.5689L179.529 32.2136H179.569L201.658 40.7511C202.958 39.9949 204.299 39.3133 205.676 38.7094C204.642 38.0483 203.548 37.4868 202.408 37.0323Z" stroke="#C9C9C9" stroke-width="1.47489" stroke-linecap="round" stroke-linejoin="round"/>
<path d="M247.57 34.0488C247.57 34.0488 249.803 38.6041 250.705 42.6158C248.176 43.5429 243.906 44.9145 243.906 44.9145L247.909 49.297C247.909 49.297 238.528 65.1858 235.798 79.0918" stroke="#C9C9C9" stroke-width="1.47489" stroke-linecap="round" stroke-linejoin="round"/>
<path d="M258.84 130.093C258.84 130.093 248.75 130.926 244.991 130.926" stroke="#C9C9C9" stroke-width="1.47489" stroke-linecap="round" stroke-linejoin="round"/>
<path d="M237.953 25.545C238.682 25.6356 242.462 26.6912 243.884 28.3262C245.307 29.9613 246.918 33.1428 247.559 34.0446H247.572C248.006 34.211 260.829 39.1013 263.517 41.1725C265.597 42.7759 266.863 44.4151 268.349 47.3101L268.361 47.3375C269.39 49.3526 270.168 51.486 270.679 53.6901C271.421 56.8632 272.398 61.6081 273.315 66.8713C277.305 84.2687 281.97 109.466 280.198 126.151C279.96 128.472 279.028 130.667 277.522 132.449L277.425 140.485H266.619L266.172 133.372L264.617 131.53C264.406 131.271 264.196 131.006 263.998 130.73C264.044 132.822 264.044 134.324 264.092 136.22C261.937 137.16 252.251 138.976 235.804 138.858C235.298 120.467 235.549 101.453 235.794 79.6143C235.84 63.4201 237.941 44.5289 239.85 35.3046C239.866 35.214 239.887 35.1234 239.904 35.0349" stroke="#C9C9C9" stroke-width="1.47489" stroke-linecap="round" stroke-linejoin="round"/>
<path d="M263.322 45.435C263.322 45.435 259.193 47.1374 256.515 52.9484C253.837 58.7595 256.955 85.318 256.955 85.318L261.776 124.917C262.027 127.005 262.793 128.998 264.005 130.717" stroke="#C9C9C9" stroke-width="1.47489" stroke-linecap="round" stroke-linejoin="round"/>
<path d="M216.974 34.0509C216.906 34.1921 214.73 38.6673 213.843 42.6179C216.371 43.5408 220.642 44.9145 220.642 44.9145L216.639 49.297C216.639 49.297 226.019 65.1858 228.748 79.0918" stroke="#C9C9C9" stroke-width="1.47489" stroke-linecap="round" stroke-linejoin="round"/>
<path d="M206.989 130.093C214.267 130.921 221.597 131.2 228.917 130.926" stroke="#C9C9C9" stroke-width="1.47489" stroke-linecap="round" stroke-linejoin="round"/>
<path d="M228.744 138.85C212.297 138.968 202.618 137.152 200.456 136.214C200.502 134.318 200.502 132.813 200.551 130.721C200.354 131.002 200.143 131.27 199.919 131.524L198.376 133.372L197.925 140.5H187.119L187.022 132.468C185.516 130.685 184.583 128.49 184.346 126.168C182.574 109.481 187.239 84.2855 191.229 66.8882C192.146 61.6207 193.126 56.88 193.865 53.7069C194.376 51.5028 195.154 49.3695 196.183 47.3544C196.183 47.3544 196.183 47.3333 196.196 47.327C197.67 44.432 198.947 42.7928 201.027 41.1872C201.198 41.0566 201.408 40.9154 201.659 40.7658C202.959 40.0097 204.3 39.328 205.677 38.7242C210.376 36.5835 216.648 34.19 216.977 34.0656H216.989C217.621 33.1639 219.267 29.9591 220.664 28.3473C221.964 26.8513 225.35 25.8379 226.475 25.6082C224.863 28.3473 223.947 31.6953 224.644 35.0454C224.659 35.1086 224.671 35.1718 224.682 35.2371C225.291 38.1637 225.921 42.0785 226.498 46.579C227.731 56.2205 228.723 68.5506 228.755 79.6228C228.999 101.443 229.239 120.456 228.744 138.85Z" stroke="#C9C9C9" stroke-width="1.47489" stroke-linecap="round" stroke-linejoin="round"/>
<path d="M200.551 130.717C201.761 128.998 202.525 127.004 202.774 124.917L207.592 85.318C207.592 85.318 210.711 58.7574 208.035 52.9484C205.359 47.1395 201.227 45.435 201.227 45.435" stroke="#C9C9C9" stroke-width="1.47489" stroke-linecap="round" stroke-linejoin="round"/>
<path d="M224.644 35.0243C224.656 35.0897 232.123 32.1504 232.123 32.1504H232.159C232.159 32.1504 239.888 35.1128 239.904 35.0243C240.61 31.6742 239.631 29.1627 237.823 25.5429C237.413 25.0527 237.019 24.5611 236.643 24.068C236.011 23.2463 235.288 22.6648 234.536 22.6648H229.801C229.039 22.6648 228.316 23.2484 227.68 24.0744C227.295 24.5744 226.896 25.0766 226.483 25.5809" stroke="#C9C9C9" stroke-width="1.47489" stroke-linecap="round" stroke-linejoin="round"/>
<path d="M232.038 12.231V22.6732" stroke="#C9C9C9" stroke-width="1.47489" stroke-linecap="round" stroke-linejoin="round"/>
<path d="M179.687 12.231V22.6732" stroke="#C9C9C9" stroke-width="1.47489" stroke-linecap="round" stroke-linejoin="round"/>
<path d="M226.496 46.5579H238.053" stroke="#C9C9C9" stroke-width="1.47489" stroke-linecap="round" stroke-linejoin="round"/>
<path d="M226.496 43.1615H238.053" stroke="#C9C9C9" stroke-width="1.47489" stroke-linecap="round" stroke-linejoin="round"/>
<path d="M282.377 18.2528H130.81V14.2664H282.377" stroke="#C9C9C9" stroke-width="1.47489" stroke-linecap="round" stroke-linejoin="round"/>
<path d="M130.81 12.231V127.133" stroke="#C9C9C9" stroke-width="1.47489" stroke-linecap="round" stroke-linejoin="round"/>
<path d="M104.608 143.367H21.0684V258.389H104.608V143.367Z" stroke="#C9C9C9" stroke-width="1.47489" stroke-linecap="round" stroke-linejoin="round"/>
<path d="M16.7373 258.623H288.215" stroke="black" stroke-width="1.47489" stroke-linecap="round" stroke-linejoin="round"/>
<path d="M154.784 230.552C154.784 230.552 158.855 236.475 164.763 237.318C170.671 238.16 163.067 223.024 163.067 223.024L157.677 223.831L154.784 230.552Z" fill="#FCE7D9" stroke="black" stroke-width="1.47489" stroke-linejoin="round"/>
<path d="M134.533 243.839C134.386 245.082 134.238 248.811 134.009 250.254C133.463 253.626 133.147 256.558 134.972 257.471C138.132 259.036 146.84 257.972 151.617 257.958C156.703 257.939 161.288 258.59 165.786 258.619C171.298 258.668 175.956 258.408 177.259 257.806C179.538 256.752 179.998 251.885 177.811 250.318C176.058 249.053 168.805 247.562 162.284 244.5C160.936 243.868 152.478 238.717 152.478 238.717" fill="#BECBDA"/>
<path d="M169.402 229.225C169.402 229.225 172.598 235.834 172.109 237.459C171.871 238.251 170.913 239.292 169.992 240.151C169.471 240.64 168.813 240.956 168.107 241.06C167.401 241.163 166.68 241.047 166.041 240.729L164.632 240.025C164.096 239.564 163.689 239.188 163.359 238.616C163.028 238.043 162.731 237.466 162.771 236.806L162.982 233.253L169.402 229.225Z" fill="#FCE7D9" stroke="black" stroke-width="1.47489" stroke-linejoin="round"/>
<path d="M165.633 222.771C165.633 222.771 171.806 231.184 171.861 232.885C171.889 233.71 171.311 235.004 170.713 236.112C170.375 236.741 169.853 237.252 169.216 237.575C168.579 237.898 167.859 238.019 167.152 237.92L164.925 237.61C164.469 237.546 164.041 237.35 163.695 237.046C163.349 236.741 163.1 236.342 162.978 235.897L162.782 231.894L165.633 222.771Z" fill="#FCE7D9" stroke="black" stroke-width="1.47489" stroke-linejoin="round"/>
<path d="M160.568 216.482C160.568 216.482 166.297 218.985 166.208 222.171C166.2 223.999 166.323 225.825 166.577 227.636C166.729 228.721 167.232 229.743 167.46 230.643C167.687 231.542 168.414 234.043 166.617 235.105C165.692 235.655 162.73 234.739 162.125 230.392C161.52 226.045 156.883 223.264 156.883 223.264L160.568 216.482Z" fill="#FCE7D9" stroke="black" stroke-width="1.47489" stroke-linejoin="round"/>
<path d="M134.533 243.839C134.386 245.082 134.238 248.811 134.009 250.254C133.463 253.626 133.147 256.558 134.972 257.471C138.132 259.036 146.84 257.972 151.617 257.958C156.703 257.939 161.288 258.59 165.786 258.619C171.298 258.668 175.956 258.408 177.259 257.806C179.538 256.752 179.998 251.885 177.811 250.318C176.058 249.053 168.805 247.562 162.284 244.5C160.936 243.868 156.614 241.709 156.614 241.709" stroke="black" stroke-width="1.47489" stroke-linecap="round" stroke-linejoin="round"/>
<path d="M160.283 184.317L159.429 240.406L132.774 244.587C132.774 244.587 132.574 238.561 132.515 231.203C132.873 229.071 132.85 227.071 132.5 225.603C132.532 217.904 132.382 209.05 133.2 205.656C129.7 211.471 121.175 209.636 119.188 208.92L118.851 208.629C112.741 203.42 105.278 198.638 97.6338 195.776C100.133 194.559 102.288 190.989 102.594 190.252C107.374 185.326 112.595 180.457 120.082 175.657C121.634 174.662 133.238 168.316 136.588 166.871L136.609 166.86L136.961 166.711L137.02 166.687C138.756 166.003 145.473 163.795 152.401 167.381C161.987 172.351 160.283 184.317 160.283 184.317Z" fill="#9A9A9A" stroke="black" stroke-width="1.47489" stroke-linejoin="round"/>
<path d="M118.852 208.637L119.189 208.928C118.934 208.835 118.793 208.779 118.793 208.779L118.852 208.637Z" fill="#9A9A9A" stroke="black" stroke-width="1.47489" stroke-linecap="round" stroke-linejoin="round"/>
<path d="M132.501 225.611C132.851 227.086 132.874 229.079 132.516 231.212C132.501 229.404 132.495 227.514 132.501 225.611Z" fill="#9A9A9A" stroke="black" stroke-width="1.47489" stroke-linecap="round" stroke-linejoin="round"/>
<path d="M136.598 166.885H136.619L136.598 166.896V166.885Z" fill="#9A9A9A" stroke="black" stroke-width="1.47489" stroke-linecap="round" stroke-linejoin="round"/>
<path d="M136.97 166.727L136.618 166.877C136.662 166.856 136.783 166.801 136.97 166.727Z" fill="#9A9A9A" stroke="black" stroke-width="1.47489" stroke-linecap="round" stroke-linejoin="round"/>
<path d="M120.455 122.205C123.428 120.241 128.011 119.921 128.04 121.651C137.056 125.443 141.411 126.887 143.343 137.31C147.233 136.603 153.231 145.175 152.008 153.137C150.785 161.098 147.578 165.581 147.578 165.581C145.851 165.252 144.127 165.21 141.81 165.44C139.739 165.663 138.392 166.14 136.97 166.723C136.82 166.784 136.698 166.837 136.618 166.873L136.597 166.883C133.247 168.329 121.201 174.943 119.648 175.943C112.154 180.743 109.933 186.478 105.152 191.4C104.847 192.138 102.691 195.707 100.192 196.925C99.7837 197.123 96.8213 196.13 96.3999 196.181C62.9473 200.096 46.751 202.127 46.6562 202.228C46.5614 202.329 45.5669 202.805 45.4742 202.904C45.2951 203.096 44.5176 196.421 46.0704 192.064C49.7176 181.839 56.0259 173.118 62.9263 164.747C77.0915 147.577 85.4415 124.808 119.648 122.721" fill="white"/>
<path d="M120.455 122.205C123.428 120.241 128.011 119.921 128.04 121.651C137.056 125.443 141.411 126.887 143.343 137.31C147.233 136.603 153.231 145.175 152.008 153.137C150.785 161.098 147.578 165.581 147.578 165.581C145.851 165.252 144.127 165.21 141.81 165.44C139.739 165.663 138.392 166.14 136.97 166.723C136.82 166.784 136.698 166.837 136.618 166.873L136.597 166.883C133.247 168.329 121.201 174.943 119.648 175.943C112.154 180.743 109.933 186.478 105.152 191.4C104.847 192.138 102.691 195.707 100.192 196.925C99.7837 197.123 96.8213 196.13 96.3999 196.181C62.9473 200.096 46.751 202.127 46.6562 202.228C46.5614 202.329 45.5669 202.805 45.4742 202.904C45.2951 203.096 44.5176 196.421 46.0704 192.064C49.7176 181.839 56.0259 173.118 62.9263 164.747C77.0915 147.577 85.4415 124.808 119.648 122.721" stroke="black" stroke-width="1.47489" stroke-linecap="round" stroke-linejoin="round"/>
<path d="M129.4 119.609L124.607 123.414C123.543 124.255 122.703 125.344 122.16 126.587C121.617 127.829 121.389 129.186 121.495 130.538L121.508 130.702C121.704 133.197 122.623 135.58 124.152 137.56C124.968 138.627 125.995 139.514 127.167 140.169C129.55 141.479 133.863 140.148 134.935 140.026L136.164 139.366L136.278 139.174C136.499 139.248 136.725 139.308 136.954 139.356L137.536 139.472L139.316 139.644C147.285 139.644 160.658 127.892 163.39 125.171C161.338 120.549 152.354 111.352 152.354 111.352C152.354 111.352 148.995 116.697 145.384 107.245C145.384 107.245 142.816 114.409 138.267 112.759C138.267 112.759 137.616 112.022 137.595 111.963C137.618 111.541 136.349 111.984 136.248 111.571C136.23 111.5 136.208 111.429 136.183 111.36C136.162 111.288 136.136 111.218 136.105 111.149L136.04 111.008C136.012 110.939 135.978 110.872 135.938 110.808L135.801 110.597C135.768 110.54 135.729 110.486 135.686 110.435L135.547 110.275C135.468 110.199 135.385 110.129 135.298 110.064C135.199 109.993 135.094 109.931 134.984 109.879C134.821 109.785 134.651 109.705 134.474 109.641C134.315 109.584 134.15 109.542 133.983 109.514L133.743 109.498C133.688 109.498 133.631 109.498 133.577 109.498C133.398 109.507 133.221 109.533 133.048 109.576C131.175 110.094 129.982 112.978 130.778 115.292C129.466 117.068 129.4 119.609 129.4 119.609Z" fill="#FCE7D9"/>
<path d="M159.331 128.039C159.331 128.039 142.054 146.709 132.766 137.731C129.102 134.126 130.124 128.671 130.124 128.671" stroke="black" stroke-width="1.47489" stroke-linecap="round" stroke-linejoin="round"/>
<path d="M147.798 120.037C148.57 120.876 149.187 121.846 149.621 122.9C149.652 123 149.705 123.092 149.775 123.17C149.844 123.248 149.93 123.31 150.025 123.353C150.121 123.397 150.225 123.42 150.331 123.421C150.435 123.421 150.539 123.399 150.634 123.357C150.732 123.318 150.821 123.258 150.895 123.182C150.97 123.107 151.028 123.018 151.066 122.919C151.105 122.82 151.122 122.715 151.119 122.609C151.115 122.504 151.089 122.401 151.045 122.306C150.599 121.131 149.914 120.062 149.033 119.167C147.191 117.296 144.475 117.089 144.465 117.544C144.454 117.999 145.995 118.088 147.798 120.037Z" fill="black"/>
<path d="M155.606 131.385C155.941 131.385 156.689 130.176 156.106 128.547C155.816 127.51 155.137 126.625 154.209 126.077C153.811 125.89 153.459 125.867 153.156 126.195C153.095 126.263 153.048 126.34 153.017 126.425C152.987 126.51 152.975 126.601 152.981 126.691C152.985 126.781 153.008 126.869 153.048 126.95C153.089 127.03 153.144 127.102 153.213 127.16C153.782 127.655 154.273 128.232 154.669 128.873C155.543 130.298 155.326 131.368 155.606 131.385Z" fill="black"/>
<path d="M144.104 132.529C144.533 132.694 144.994 132.756 145.452 132.712C145.91 132.668 146.352 132.52 146.744 132.278C147.923 131.408 147.468 128.663 147.117 128.659C146.765 128.654 146.918 130.508 146.063 131.096C145.467 131.482 144.799 131.132 144.447 131.046C144.269 130.97 144.069 130.964 143.887 131.029C143.706 131.095 143.556 131.224 143.465 131.393C143.415 131.507 143.393 131.632 143.404 131.756C143.415 131.88 143.456 131.999 143.524 132.103C143.664 132.307 143.868 132.457 144.104 132.529Z" fill="black"/>
<path d="M142.321 136.303C142.408 136.335 142.502 136.346 142.595 136.335C142.689 136.326 142.78 136.296 142.86 136.247C142.939 136.197 143.007 136.131 143.059 136.053C143.116 135.974 143.155 135.884 143.176 135.789C143.218 135.61 143.194 135.423 143.108 135.261C143.023 135.104 142.881 134.985 142.711 134.93C141.868 134.604 141.111 134.089 140.498 133.424C138.544 131.503 138.513 128.9 138.118 128.977C137.724 129.054 138.013 132.709 139.473 134.411C140.18 135.346 141.184 136.013 142.321 136.303Z" fill="black"/>
<path d="M144.862 124.902C144.47 124.238 144.902 123.309 145.785 122.795C146.668 122.281 147.696 122.394 148.071 123.048C148.446 123.701 148.033 124.638 147.144 125.155C146.255 125.671 145.275 125.53 144.862 124.902Z" fill="black"/>
<path d="M150.109 131.476C149.717 130.814 150.154 129.887 151.043 129.369C151.932 128.85 152.952 128.977 153.323 129.626C153.693 130.275 153.282 131.216 152.393 131.733C151.504 132.249 150.478 132.133 150.109 131.476Z" fill="black"/>
<path d="M130.213 115.989C130.519 116.578 130.917 117.115 131.393 117.578" stroke="black" stroke-width="1.47489" stroke-linecap="round" stroke-linejoin="round"/>
<path d="M132.367 107.075L131.821 108C130.679 109.877 129.655 111.63 128.89 113.492C127.881 115.966 127.772 118.715 128.583 121.261L132.359 118.69C129 113.634 133.275 110.029 136.065 111.05C136.486 111.194 138.382 112.289 138.172 115.134C137.929 116.048 139.716 116.187 141.842 115.583C143.968 114.978 147.126 111.971 147.126 111.971C147.777 112.84 148.599 113.567 149.541 114.108C150.503 114.636 151.563 114.964 152.655 115.071L149.495 117.34C150.101 118.497 152.982 123.69 158.58 124.824C159.701 125.047 160.85 125.097 161.987 124.973L162.01 125.039C160.778 126.582 159.45 128.047 158.034 129.423C157.925 129.504 157.827 129.599 157.743 129.706C157.44 130.005 157.166 130.258 156.936 130.46L156.858 130.515C156.462 130.877 156.06 131.244 155.639 131.598C156.906 131.8 158.204 131.65 159.391 131.164C161.209 130.418 163.35 128.437 164.688 126.994C174.713 125.812 168.955 112.397 168.955 112.397C168.955 112.397 169.797 105.956 163.213 99.8456C156.629 93.7353 150.169 95.5874 150.169 95.5874C149.353 94.8695 148.385 94.3476 147.337 94.0617C146.288 93.7757 145.189 93.7333 144.122 93.9376C135.165 95.8023 132.367 107.075 132.367 107.075Z" fill="black" stroke="black" stroke-width="1.47489" stroke-linejoin="round"/>
<path d="M128.582 121.261C128.437 121.398 127.56 121.992 125.348 123.368C124.041 124.171 123.01 125.354 122.392 126.758C121.774 128.162 121.598 129.721 121.888 131.227C122.942 136.551 127.179 142.487 135.162 139.918" stroke="black" stroke-width="1.47489" stroke-linecap="round" stroke-linejoin="round"/>
<path d="M61.0088 182.024C61.0088 182.024 77.2009 179.285 94.7837 194.824" stroke="black" stroke-width="1.47489" stroke-linecap="round" stroke-linejoin="round"/>
<path d="M133.162 205.997C133.162 205.997 134.346 195.397 139.378 189.774" stroke="black" stroke-width="1.47489" stroke-linecap="round" stroke-linejoin="round"/>
<path d="M138.906 254.053C142.819 254.799 149.751 254.022 153.819 254.007C156.733 254.007 161.316 254.618 167.991 254.673C172.125 254.706 173.788 254.633 175.895 254.313" stroke="black" stroke-width="1.47489" stroke-linecap="round" stroke-linejoin="round"/>
<path d="M168.229 232.212C169.282 231.264 171.49 230.215 173.201 230.232C174.912 230.249 177.265 231.768 177.265 236.087" stroke="black" stroke-width="1.47489" stroke-linecap="round" stroke-linejoin="round"/>
<path d="M142.433 153.007C142.433 153.007 140.624 163.963 131.616 169.365" stroke="black" stroke-width="1.47489" stroke-linecap="round" stroke-linejoin="round"/>
<path d="M137.798 140.114C135.615 145.152 131.587 148.542 131.587 148.542L130.213 140.536L123.787 147.982C123.787 147.982 117.725 141.64 115.913 134.116C114.451 128.05 119.994 122.506 120.447 122.211" stroke="black" stroke-width="1.47489" stroke-linecap="round" stroke-linejoin="round"/>
<path d="M136.05 227.33L138.181 237.952L138.636 239.848C139.813 242.482 144.957 243.881 144.957 243.881C145.864 244.401 146.937 244.552 147.953 244.302L148.225 244.235L149.663 245.147C150.822 245.779 151.98 245.463 151.98 245.463L152.507 244.936C153.034 244.936 154.63 245.147 155.668 243.988C156.211 243.382 156.773 242.263 156.307 241.593L155.578 240.539L153.892 241.146L151.629 238.866L149.571 235.706C149.457 235.531 149.389 235.33 149.373 235.122C149.358 234.914 149.395 234.705 149.482 234.515L150.506 232.927C150.506 232.927 151.744 233.837 152.402 234.402C153.059 234.966 154.946 239.625 156.313 241.591C157.12 242.758 158.486 242.937 159.474 242.888C159.608 242.881 159.739 242.841 159.854 242.77C159.97 242.7 160.066 242.602 160.134 242.486C160.202 242.369 160.24 242.237 160.245 242.103C160.249 241.968 160.22 241.834 160.161 241.713C160.161 241.713 157.652 233.995 155.457 229.977C155.457 229.977 151.383 224.267 148.76 223.146L145.458 220.742C140.401 214.537 130.357 199.754 124.54 194.133C123.552 193.176 122.701 192.426 122.127 191.935C119.131 177.3 117.6 172.13 116.592 168.518C115.086 163.114 115.427 160.779 114.38 155.55L107.065 153.022C101.597 156.667 97.5243 160.487 92.0566 164.13C92.8088 168.16 94.5955 174.359 97.0649 179.907C98.9191 184.07 100.457 188.821 102.372 192.548C104.661 196.994 107.166 201.535 110.845 204.925L136.05 227.33Z" fill="#FCE7D9" stroke="black" stroke-width="1.47489" stroke-linecap="round" stroke-linejoin="round"/>
<path d="M144.044 235.573L144.427 236.85C144.609 237.446 144.963 237.975 145.445 238.371L152.613 245.042" fill="#FCE7D9"/>
<path d="M144.044 235.573L144.427 236.85C144.609 237.446 144.963 237.975 145.445 238.371L152.613 245.042" stroke="black" stroke-width="1.47489" stroke-linecap="round" stroke-linejoin="round"/>
<path d="M140.674 236.42L141.005 237.385C141.367 238.435 142.025 239.358 142.901 240.042L148.229 244.226" fill="#FCE7D9"/>
<path d="M140.674 236.42L141.005 237.385C141.367 238.435 142.025 239.358 142.901 240.042L148.229 244.226" stroke="black" stroke-width="1.47489" stroke-linecap="round" stroke-linejoin="round"/>
<path d="M85.7051 157.813C87.5108 160.211 91.2633 175.029 92.0808 178.725C97.7128 180.41 114.948 179.226 120.161 176.696C118.148 165.617 116.697 161.761 115.947 157.573C111.935 142.643 106.036 135.563 98.0225 135.563" fill="white"/>
<path d="M85.7051 157.813C87.5108 160.211 91.2633 175.029 92.0808 178.725C97.7128 180.41 114.948 179.226 120.161 176.696C118.148 165.617 116.697 161.761 115.947 157.573C111.935 142.643 106.036 135.563 98.0225 135.563" stroke="black" stroke-width="1.47489" stroke-linecap="round" stroke-linejoin="round"/>
<path d="M155.76 240.988C155.76 240.988 150.754 238.615 152.6 252.155" stroke="black" stroke-width="1.47489" stroke-linecap="round" stroke-linejoin="round"/>
<path d="M60.1364 223.521C60.1364 223.521 55.0796 223.521 53.3372 227.139C52.1657 229.56 55.9246 248.069 57.3404 255.423C57.6755 257.146 59.2873 258.4 61.1709 258.4H80.8312C81.1657 258.411 81.4921 258.296 81.7455 258.077C81.9989 257.859 82.1606 257.553 82.1986 257.22C82.3271 255.497 81.8657 252.374 77.1882 251.234C76.4622 251.053 75.8097 250.652 75.3196 250.086C74.8295 249.521 74.5255 248.818 74.4491 248.074C74.2593 246.565 73.9714 245.07 73.5874 243.598L60.1364 223.521Z" fill="#BECBDA"/>
<path d="M60.1364 223.521C60.1364 223.521 55.0796 223.521 53.3372 227.139C52.1657 229.56 55.9246 248.069 57.3404 255.423C57.6755 257.146 59.2873 258.4 61.1709 258.4H80.8312C81.1657 258.411 81.4921 258.296 81.7455 258.077C81.9989 257.859 82.1606 257.553 82.1986 257.22C82.3271 255.497 81.8657 252.374 77.1882 251.234C76.4622 251.053 75.8097 250.652 75.3196 250.086C74.8295 249.521 74.5255 248.818 74.4491 248.074C74.2593 246.565 73.9714 245.07 73.5874 243.598L60.1364 223.521Z" stroke="black" stroke-width="1.47489" stroke-linecap="round" stroke-linejoin="round"/>
<path d="M132.516 231.212C131.621 236.553 128.338 242.726 121.849 243.502C112.076 244.667 84.1462 243.32 84.1462 243.32C84.1462 243.32 78.8261 245.097 73.9421 245.097C60.3774 239.264 59.8612 223.003 61.1759 223.003C50.6789 219.604 45.9446 208.389 46.6483 202.226C63.363 185.159 81.1522 191.331 92.5805 194.207C94.2939 194.642 95.982 195.172 97.6372 195.793C105.281 198.646 112.748 203.429 118.854 208.646L119.192 208.937C125.373 214.267 130.112 220.013 132.156 224.564C132.305 224.903 132.421 225.256 132.504 225.618C132.851 227.08 132.874 229.079 132.516 231.212Z" fill="#9A9A9A" stroke="black" stroke-width="1.47489" stroke-linejoin="round"/>
<path d="M108.169 226.932L105.519 223.982C104.462 222.804 103.135 221.899 101.653 221.344C100.17 220.789 98.5754 220.602 97.0044 220.797C89.2234 221.76 74.6557 221.669 61.0088 223.089" stroke="black" stroke-width="1.47489" stroke-linecap="round" stroke-linejoin="round"/>
<path d="M56.6543 229.208C56.6543 235.815 59.1595 251.085 60.5206 252.543C61.8817 254.001 73.2826 254.148 73.2826 254.148" stroke="black" stroke-width="1.47489" stroke-linecap="round" stroke-linejoin="round"/>
<path d="M66.499 246.44C66.499 246.44 69.1327 245.077 73.9409 246.924" stroke="black" stroke-width="1.47489" stroke-linecap="round" stroke-linejoin="round"/>
<path d="M166.617 235.093L160.896 243.537" stroke="black" stroke-width="1.47489" stroke-linecap="round" stroke-linejoin="round"/>
<g clip-path="url(#clip1_5937_35424)">
<path d="M277.982 229.047C276.863 229.085 275.747 228.897 274.703 228.495C268.187 226.099 267.363 219.18 266.497 211.866C266.033 207.938 265.507 203.487 264.086 199.293C260.552 188.912 251.068 186.595 250.974 186.573C250.251 186.4 249.626 185.949 249.235 185.317C248.844 184.685 248.719 183.925 248.888 183.201C249.056 182.478 249.505 181.85 250.135 181.456C250.765 181.062 251.525 180.933 252.25 181.097C252.764 181.216 264.872 184.177 269.404 197.482C271.024 202.238 271.588 207.003 272.085 211.205C272.9 218.104 273.515 222.064 276.65 223.222C277.718 223.624 278.162 223.359 278.353 223.248C279.499 222.586 280.381 220.204 280.616 218.805C280.675 218.441 280.805 218.091 281 217.777C281.194 217.463 281.448 217.191 281.748 216.975C282.048 216.759 282.387 216.604 282.747 216.52C283.106 216.435 283.479 216.422 283.843 216.481C284.208 216.54 284.558 216.67 284.872 216.865C285.186 217.059 285.459 217.313 285.675 217.612C285.891 217.912 286.046 218.251 286.13 218.61C286.215 218.97 286.228 219.342 286.169 219.706C286.069 220.327 285.084 225.828 281.196 228.099C280.218 228.672 279.114 228.998 277.982 229.047Z" fill="#E9B68E"/>
<mask id="mask0_5937_35424" style="mask-type:luminance" maskUnits="userSpaceOnUse" x="248" y="181" width="39" height="49">
<path d="M277.98 229.047C276.861 229.085 275.746 228.897 274.701 228.495C268.185 226.099 267.361 219.18 266.495 211.866C266.031 207.938 265.505 203.487 264.084 199.293C260.55 188.912 251.067 186.595 250.972 186.573C250.249 186.4 249.624 185.949 249.233 185.317C248.842 184.685 248.717 183.925 248.886 183.201C249.054 182.478 249.503 181.85 250.133 181.456C250.763 181.062 251.523 180.933 252.248 181.097C252.762 181.216 264.87 184.178 269.402 197.482C271.022 202.238 271.586 207.003 272.083 211.205C272.898 218.104 273.513 222.064 276.648 223.222C277.716 223.624 278.161 223.359 278.351 223.248C279.497 222.586 280.379 220.204 280.614 218.805C280.673 218.441 280.803 218.091 280.998 217.777C281.192 217.463 281.446 217.191 281.746 216.975C282.046 216.759 282.385 216.604 282.745 216.52C283.104 216.435 283.477 216.422 283.841 216.481C284.206 216.54 284.556 216.67 284.87 216.865C285.184 217.059 285.457 217.313 285.673 217.612C285.889 217.912 286.044 218.251 286.128 218.61C286.213 218.97 286.226 219.342 286.167 219.706C286.067 220.327 285.082 225.828 281.194 228.099C280.216 228.672 279.113 228.998 277.98 229.047Z" fill="white"/>
</mask>
<g mask="url(#mask0_5937_35424)">
<path d="M283.783 229.147C283.582 228.763 275.129 226.85 277.992 218.839C280.855 210.828 285.117 209.488 285.117 209.488L291.374 217.519L287.578 228.562L283.783 229.147Z" fill="white"/>
</g>
<path d="M277.982 229.047C276.863 229.085 275.747 228.897 274.703 228.495C268.187 226.099 267.363 219.18 266.497 211.866C266.033 207.938 265.507 203.487 264.086 199.293C260.552 188.912 251.068 186.595 250.974 186.573C250.251 186.4 249.626 185.949 249.235 185.317C248.844 184.685 248.719 183.925 248.888 183.201C249.056 182.478 249.505 181.85 250.135 181.456C250.765 181.062 251.525 180.933 252.25 181.097C252.764 181.216 264.872 184.177 269.404 197.482C271.024 202.238 271.588 207.003 272.085 211.205C272.9 218.104 273.515 222.064 276.65 223.222C277.718 223.624 278.162 223.359 278.353 223.248C279.499 222.586 280.381 220.204 280.616 218.805C280.675 218.441 280.805 218.091 281 217.777C281.194 217.463 281.448 217.191 281.748 216.975C282.048 216.759 282.387 216.604 282.747 216.52C283.106 216.435 283.479 216.422 283.843 216.481C284.208 216.54 284.558 216.67 284.872 216.865C285.186 217.059 285.459 217.313 285.675 217.612C285.891 217.912 286.046 218.251 286.13 218.61C286.215 218.97 286.228 219.342 286.169 219.706C286.069 220.327 285.084 225.828 281.196 228.099C280.218 228.672 279.114 228.998 277.982 229.047Z" stroke="black" stroke-width="1.47489" stroke-linecap="round" stroke-linejoin="round"/>
</g>
<path d="M234.542 241.58C233.204 242.458 231.757 243.158 230.238 243.662H230.219C229.066 243.965 227.804 244.17 226.426 244.458C225.086 244.545 223.386 244.505 222.444 244.201C221.334 248.48 210.906 253.619 207.196 255.328C206.472 255.667 205.809 256.123 205.234 256.679C204.326 257.523 203.21 258.112 202 258.383C200.993 258.621 197.738 258.533 195.801 258.453C195.574 258.444 195.351 258.388 195.147 258.287C194.943 258.187 194.762 258.044 194.617 257.869C194.472 257.694 194.365 257.49 194.304 257.27C194.243 257.051 194.229 256.822 194.263 256.596C194.501 255.122 196.202 252.557 200.127 252.892C202.497 251.989 203.125 251.352 203.125 251.352C203.125 251.352 203.386 251.123 203.812 250.72C213.407 241.449 214.484 237.044 219.145 233.021C219.375 232.849 219.623 232.7 219.884 232.579C220.011 232.509 220.143 232.44 220.276 232.368C220.913 232.054 221.584 231.812 222.276 231.648C222.507 231.534 223.75 230.622 223.75 230.62C223.75 230.558 224.414 229.918 224.629 229.636C224.68 229.57 224.918 229.214 224.996 229.081C225.027 229.029 236.091 228.565 236.121 228.513L234.542 241.58Z" fill="#E9B68E"/>
<path d="M206.637 247.857C206.637 247.857 211.782 241.822 215.151 246.829C221.965 256.942 201.993 258.379 201.993 258.379L194.155 257.646C194.491 256.489 195.094 255.428 195.917 254.548C198.173 252.163 199.612 253.255 200.249 253.259C201.831 251.837 205.059 249.279 206.637 247.857Z" fill="white"/>
<path d="M234.542 241.58C233.204 242.458 231.757 243.158 230.238 243.662H230.219C229.066 243.965 227.804 244.17 226.426 244.458C225.086 244.545 223.386 244.505 222.444 244.201C221.334 248.48 210.906 253.619 207.196 255.328C206.472 255.667 205.809 256.123 205.234 256.679C204.326 257.523 203.21 258.112 202 258.383C200.993 258.621 197.738 258.533 195.801 258.453C195.574 258.444 195.351 258.388 195.147 258.287C194.943 258.187 194.762 258.044 194.617 257.869C194.472 257.694 194.365 257.49 194.304 257.27C194.243 257.051 194.229 256.822 194.263 256.596C194.501 255.122 196.202 252.557 200.127 252.892C202.497 251.989 203.125 251.352 203.125 251.352C203.125 251.352 203.386 251.123 203.812 250.72C213.407 241.449 214.484 237.044 219.145 233.021C219.375 232.849 219.623 232.7 219.884 232.579C220.011 232.509 220.143 232.44 220.276 232.368C220.913 232.054 221.584 231.812 222.276 231.648C222.507 231.534 223.75 230.622 223.75 230.62C223.75 230.558 224.414 229.918 224.629 229.636C224.68 229.57 224.918 229.214 224.996 229.081C225.027 229.029 236.091 228.565 236.121 228.513L234.542 241.58Z" stroke="black" stroke-width="1.47489" stroke-linecap="round" stroke-linejoin="round"/>
<path d="M248.173 230.31C248.031 231.835 247.796 233.351 247.472 234.848C247.472 238.793 247.356 243.03 247.291 245.126C247.264 246.009 247.143 246.887 246.93 247.745L246.458 249.683L246.085 255.625C246.039 256.369 245.711 257.067 245.169 257.579C244.627 258.09 243.91 258.376 243.165 258.379C241.69 258.379 239.937 258.341 238.821 258.307C238.033 258.284 237.171 257.675 237.002 256.915C236.6 255.077 238.081 253.122 239.758 252.637C241.282 249.93 241.178 237.09 241.178 237.09" fill="#E9B68E"/>
<path d="M248.173 230.31C248.031 231.835 247.796 233.351 247.472 234.848C247.472 238.793 247.356 243.03 247.291 245.126C247.264 246.009 247.143 246.887 246.93 247.745L246.458 249.683L246.085 255.625C246.039 256.369 245.711 257.067 245.169 257.579C244.627 258.09 243.91 258.376 243.165 258.379C241.69 258.379 239.937 258.341 238.821 258.307C238.033 258.284 237.171 257.675 237.002 256.915C236.6 255.077 238.081 253.122 239.758 252.637C241.282 249.93 241.178 237.09 241.178 237.09" stroke="black" stroke-width="1.47489" stroke-linecap="round" stroke-linejoin="round"/>
<path d="M235.418 216.604C234.463 213.932 232.951 211.688 231.111 210.618C230.684 210.362 230.22 210.173 229.735 210.057C228.29 209.722 226.63 209.769 224.991 210.009C224.38 209.55 223.742 209.128 223.082 208.745C222.925 208.653 222.748 208.601 222.567 208.594C222.386 208.587 222.206 208.625 222.042 208.704C221.879 208.784 221.738 208.902 221.632 209.049C221.526 209.197 221.458 209.368 221.434 209.548C221.383 209.931 221.331 210.371 221.284 210.843C219.781 211.28 218.308 211.813 216.874 212.44L206.458 211.128C206.331 211.112 206.202 211.126 206.083 211.17C205.963 211.214 205.855 211.285 205.768 211.379C205.681 211.472 205.618 211.585 205.583 211.707C205.548 211.83 205.543 211.959 205.568 212.084C205.623 212.358 205.697 212.626 205.79 212.889C205.983 213.452 206.495 214.64 209.146 216.81C210.302 217.757 211.528 218.614 212.812 219.377L211.354 223.46C211.091 224.2 210.977 224.985 211.017 225.77C211.058 226.554 211.252 227.323 211.59 228.032L212.056 229.006C212.549 230.058 213.339 230.944 214.329 231.553C214.328 232.159 214.502 232.753 214.829 233.263C215.157 233.773 215.624 234.179 216.175 234.431L216.71 234.678L218.033 235.289L218.356 235.436C219.439 235.716 220.573 235.74 221.668 235.508C222.065 235.417 222.452 235.284 222.82 235.109C223.597 234.723 224.301 234.205 224.902 233.58C225.251 233.218 225.562 232.822 225.831 232.398C226.767 232.575 227.721 232.636 228.671 232.579H228.716C228.966 232.566 229.226 232.541 229.491 232.505C229.757 232.469 230.066 232.419 230.363 232.351C231.001 232.037 231.671 231.795 232.363 231.631C232.449 231.587 232.534 231.54 232.618 231.494C232.702 231.448 232.778 231.399 232.854 231.351H232.871C232.955 231.298 233.035 231.245 233.117 231.186C233.199 231.127 233.281 231.073 233.359 231.009C233.437 230.946 233.52 230.885 233.598 230.82C233.675 230.754 233.756 230.687 233.831 230.609L233.947 230.497L234.059 230.388C234.122 230.327 234.185 230.259 234.249 230.188C234.414 230.008 234.569 229.819 234.712 229.621C234.756 229.562 234.801 229.499 234.847 229.433C234.927 229.315 235.003 229.193 235.081 229.067L235.169 228.913C235.386 228.526 235.572 228.123 235.726 227.708C236.965 224.406 236.678 220.133 235.418 216.604Z" fill="#E9B68E"/>
<path d="M235.418 216.604C234.463 213.932 232.951 211.688 231.111 210.618C230.684 210.362 230.22 210.173 229.735 210.057C228.29 209.722 226.63 209.769 224.991 210.009C224.38 209.55 223.742 209.128 223.082 208.745C222.925 208.653 222.748 208.601 222.567 208.594C222.386 208.587 222.206 208.625 222.042 208.704C221.879 208.784 221.738 208.902 221.632 209.049C221.526 209.197 221.458 209.368 221.434 209.548C221.383 209.931 221.331 210.371 221.284 210.843C219.781 211.28 218.308 211.813 216.874 212.44L206.458 211.128C206.331 211.112 206.202 211.126 206.083 211.17C205.963 211.214 205.855 211.285 205.768 211.379C205.681 211.472 205.618 211.585 205.583 211.707C205.548 211.83 205.543 211.959 205.568 212.084C205.623 212.358 205.697 212.626 205.79 212.889C205.983 213.452 206.495 214.64 209.146 216.81C210.302 217.757 211.528 218.614 212.812 219.377L211.354 223.46C211.091 224.2 210.977 224.985 211.017 225.77C211.058 226.554 211.252 227.323 211.59 228.032L212.056 229.006C212.549 230.058 213.339 230.944 214.329 231.553C214.328 232.159 214.502 232.753 214.829 233.263C215.157 233.773 215.624 234.179 216.175 234.431L216.71 234.678L218.033 235.289L218.356 235.436C219.439 235.716 220.573 235.74 221.668 235.508C222.065 235.417 222.452 235.284 222.82 235.109C223.597 234.723 224.301 234.205 224.902 233.58C225.251 233.218 225.562 232.822 225.831 232.398C226.767 232.575 227.721 232.636 228.671 232.579H228.716C228.966 232.566 229.226 232.541 229.491 232.505C229.757 232.469 230.066 232.419 230.363 232.351C231.001 232.037 231.671 231.795 232.363 231.631C232.449 231.587 232.534 231.54 232.618 231.494C232.702 231.448 232.778 231.399 232.854 231.351H232.871C232.955 231.298 233.035 231.245 233.117 231.186C233.199 231.127 233.281 231.073 233.359 231.009C233.437 230.946 233.52 230.885 233.598 230.82C233.675 230.754 233.756 230.687 233.831 230.609L233.947 230.497L234.059 230.388C234.122 230.327 234.185 230.259 234.249 230.188C234.414 230.008 234.569 229.819 234.712 229.621C234.756 229.562 234.801 229.499 234.847 229.433C234.927 229.315 235.003 229.193 235.081 229.067L235.169 228.913C235.386 228.526 235.572 228.123 235.726 227.708C236.965 224.406 236.678 220.133 235.418 216.604Z" stroke="black" stroke-width="1.47489" stroke-linecap="round" stroke-linejoin="round"/>
<path d="M219.076 232.918C218.928 233.04 218.781 233.171 218.629 233.308C218.383 233.533 218.159 233.757 217.961 233.972C217.894 234.045 217.805 234.095 217.707 234.114C217.609 234.132 217.507 234.119 217.418 234.075C217.029 233.884 216.674 233.632 216.364 233.329C216.265 233.232 216.175 233.133 216.095 233.038C216.046 232.979 216.013 232.909 215.998 232.834C215.983 232.759 215.987 232.682 216.009 232.609C216.031 232.536 216.07 232.469 216.124 232.415C216.177 232.36 216.243 232.32 216.316 232.297C217.131 232.033 217.996 231.961 218.844 232.086C218.936 232.097 219.022 232.135 219.092 232.196C219.162 232.256 219.213 232.336 219.238 232.425C219.263 232.514 219.26 232.608 219.232 232.696C219.203 232.784 219.149 232.861 219.076 232.918Z" fill="black"/>
<path d="M218.287 234.591C218.292 234.591 218.298 234.593 218.302 234.596C218.307 234.599 218.31 234.603 218.312 234.608C218.434 234.63 218.558 234.635 218.681 234.623C220.234 234.412 221.842 233.394 222.339 231.842C222.358 231.775 222.401 231.717 222.461 231.681C222.52 231.645 222.591 231.633 222.659 231.647C222.727 231.66 222.788 231.699 222.828 231.756C222.869 231.812 222.887 231.882 222.878 231.951C222.552 233.997 220.653 235.579 218.685 236.007C218.07 236.14 217.114 235.973 217.274 235.141C217.309 234.989 217.393 234.854 217.514 234.755C217.634 234.657 217.784 234.601 217.939 234.597H218.287V234.591Z" fill="black"/>
<path d="M217.527 233.329C217.527 233.329 217.584 234.741 218.037 235.289L217.527 233.329Z" fill="#E9B68E"/>
<path d="M217.527 233.329C217.527 233.329 217.584 234.741 218.037 235.289" stroke="black" stroke-width="1.47489" stroke-linecap="round" stroke-linejoin="round"/>
<path d="M220.054 228.681C220.054 228.681 220.054 226.953 222.02 226.8L220.054 228.681Z" fill="#E9B68E"/>
<path d="M219.317 228.681C219.353 228.172 219.543 227.686 219.86 227.287C220.177 226.888 220.608 226.594 221.096 226.444C221.547 226.336 222.421 226.087 222.497 226.766C222.504 226.878 222.472 226.989 222.406 227.08C222.34 227.171 222.245 227.237 222.137 227.265C222.01 227.299 221.877 227.326 221.755 227.36C221.492 227.433 221.255 227.579 221.073 227.781C220.869 228.031 220.769 228.349 220.792 228.671C220.792 228.866 220.715 229.054 220.576 229.192C220.438 229.33 220.25 229.408 220.055 229.408C219.859 229.408 219.672 229.33 219.533 229.192C219.395 229.054 219.317 228.866 219.317 228.671V228.681Z" fill="black"/>
<path d="M215.666 229.244C215.565 228.869 215.362 228.531 215.079 228.265C214.797 227.999 214.446 227.817 214.066 227.739" fill="#E9B68E"/>
<path d="M214.945 229.391C214.906 229.207 214.83 229.033 214.721 228.88C214.612 228.727 214.473 228.597 214.313 228.5C214.173 228.412 214.024 228.342 213.868 228.289C213.72 228.235 213.6 228.124 213.534 227.981C213.468 227.838 213.462 227.674 213.516 227.526C213.748 226.926 214.441 227.168 214.888 227.366C215.475 227.632 215.949 228.096 216.228 228.677C216.294 228.807 216.345 228.944 216.382 229.086C216.41 229.273 216.366 229.464 216.258 229.619C216.15 229.775 215.986 229.882 215.8 229.92C215.615 229.958 215.422 229.923 215.261 229.823C215.101 229.722 214.985 229.564 214.938 229.381L214.945 229.391Z" fill="black"/>
<path d="M224.99 210.009C225.855 210.657 226.651 211.392 227.365 212.202C228.748 213.798 229.785 215.663 230.409 217.681" fill="#E9B68E"/>
<path d="M224.99 210.009C225.855 210.657 226.651 211.392 227.365 212.202C228.748 213.798 229.785 215.663 230.409 217.681" stroke="black" stroke-width="1.47489" stroke-linecap="round" stroke-linejoin="round"/>
<path d="M221.383 216.602C220.994 214.998 221.097 212.666 221.282 210.833L221.383 216.602Z" fill="#E9B68E"/>
<path d="M221.383 216.602C220.994 214.998 221.097 212.666 221.282 210.833" stroke="black" stroke-width="1.47489" stroke-linecap="round" stroke-linejoin="round"/>
<path d="M240.321 243.658C239.569 243.907 238.804 244.113 238.029 244.275C237.532 244.366 237.03 244.426 236.526 244.454C237.906 244.165 239.169 243.961 240.321 243.658Z" fill="#E9B68E" stroke="black" stroke-width="1.47489" stroke-linecap="round" stroke-linejoin="round"/>
<path d="M264.687 203.774C264.638 211.971 264.301 223.508 263.545 230.554C263.403 232.08 263.169 233.595 262.843 235.093C262.843 239.037 262.729 243.274 262.662 245.373C262.636 246.256 262.516 247.134 262.304 247.992L261.83 249.928L261.457 255.87C261.41 256.613 261.083 257.312 260.54 257.823C259.998 258.334 259.282 258.621 258.537 258.623C257.062 258.623 255.309 258.585 254.194 258.552C253.406 258.529 252.544 257.92 252.376 257.159C251.971 255.322 253.452 253.366 255.13 252.882C256.653 250.174 256.55 237.334 256.55 237.334C255.095 233.183 254.062 228.895 253.465 224.537C253.465 224.537 253.815 235.529 244.641 241.569C243.303 242.448 241.856 243.148 240.336 243.651H240.317C239.165 243.955 237.903 244.159 236.525 244.448C235.185 244.534 233.485 244.494 232.543 244.191C231.432 248.47 221.005 253.609 217.297 255.318C216.572 255.657 215.909 256.113 215.333 256.668C214.425 257.513 213.309 258.101 212.099 258.373C211.092 258.611 207.836 258.522 205.9 258.442C205.673 258.434 205.449 258.377 205.245 258.277C205.041 258.176 204.861 258.034 204.715 257.858C204.57 257.683 204.464 257.479 204.403 257.26C204.342 257.041 204.328 256.811 204.362 256.586C204.6 255.111 206.3 252.547 210.226 252.882C212.596 251.978 213.224 251.342 213.224 251.342C213.224 251.342 213.485 251.112 213.911 250.71C223.506 241.439 224.583 237.033 229.243 233.011C229.474 232.838 229.722 232.69 229.983 232.568C230.111 232.499 230.242 232.429 230.375 232.358C231.012 232.043 231.683 231.801 232.374 231.637C232.608 231.523 233.849 230.611 233.849 230.609C233.849 230.548 234.511 229.907 234.726 229.625C234.776 229.56 235.014 229.204 235.094 229.071L235.183 228.917C235.399 228.531 235.585 228.128 235.739 227.712C236.963 224.417 236.677 220.144 235.417 216.614C234.462 213.943 232.949 211.699 231.11 210.628C231.953 209.543 232.899 207.468 232.836 203.625C232.722 196.857 234.551 179.125 252.241 180.95C261.826 181.936 264.655 196.282 264.685 199.314C264.699 200.616 264.699 202.129 264.687 203.774Z" fill="#E9B68E"/>
<mask id="mask1_5937_35424" style="mask-type:luminance" maskUnits="userSpaceOnUse" x="204" y="180" width="61" height="79">
<path d="M264.687 203.775C264.638 211.971 264.301 223.509 263.545 230.554C263.403 232.08 263.169 233.595 262.843 235.093C262.843 239.037 262.729 243.274 262.662 245.373C262.636 246.256 262.516 247.134 262.304 247.992L261.83 249.928L261.457 255.87C261.41 256.613 261.083 257.312 260.54 257.823C259.998 258.335 259.282 258.621 258.537 258.623C257.062 258.623 255.309 258.586 254.194 258.552C253.406 258.529 252.544 257.92 252.376 257.159C251.971 255.322 253.452 253.367 255.13 252.882C256.653 250.174 256.55 237.335 256.55 237.335C255.095 233.183 254.062 228.895 253.465 224.537C253.465 224.537 253.815 235.529 244.641 241.57C243.303 242.448 241.856 243.148 240.336 243.651H240.317C239.165 243.955 237.903 244.159 236.525 244.448C235.185 244.534 233.485 244.494 232.543 244.191C231.432 248.47 221.005 253.609 217.297 255.318C216.572 255.657 215.909 256.113 215.333 256.668C214.425 257.513 213.309 258.101 212.099 258.373C211.092 258.611 207.836 258.522 205.9 258.442C205.673 258.434 205.449 258.377 205.245 258.277C205.041 258.176 204.861 258.034 204.715 257.858C204.57 257.683 204.464 257.479 204.403 257.26C204.342 257.041 204.328 256.811 204.362 256.586C204.6 255.111 206.3 252.547 210.226 252.882C212.596 251.978 213.224 251.342 213.224 251.342C213.224 251.342 213.485 251.112 213.911 250.71C223.506 241.439 224.583 237.033 229.243 233.011C229.474 232.838 229.722 232.69 229.983 232.569C230.111 232.499 230.242 232.429 230.375 232.358C231.012 232.043 231.683 231.801 232.374 231.637C232.608 231.523 233.849 230.611 233.849 230.609C233.849 230.548 234.511 229.907 234.726 229.625C234.776 229.56 235.014 229.204 235.094 229.071L235.183 228.917C235.399 228.531 235.585 228.128 235.739 227.712C236.963 224.417 236.677 220.144 235.417 216.614C234.462 213.943 232.949 211.699 231.11 210.629C231.953 209.543 232.899 207.468 232.836 203.625C232.722 196.857 234.551 179.125 252.241 180.95C261.826 181.936 264.655 196.282 264.685 199.314C264.699 200.616 264.699 202.129 264.687 203.775Z" fill="white"/>
</mask>
<g mask="url(#mask1_5937_35424)">
<path d="M251.089 248.36C251.949 245.28 255.177 240.019 259.374 240.605C263.571 241.19 265.398 247.326 265.398 247.326L262.924 258.493L254.441 261.409L250.55 258.733L251.089 248.36Z" fill="white"/>
</g>
<path d="M264.687 203.774C264.638 211.971 264.301 223.508 263.545 230.554C263.403 232.08 263.169 233.595 262.843 235.093C262.843 239.037 262.729 243.274 262.662 245.373C262.636 246.256 262.516 247.134 262.304 247.992L261.83 249.928L261.457 255.87C261.41 256.613 261.083 257.312 260.54 257.823C259.998 258.334 259.282 258.621 258.537 258.623C257.062 258.623 255.309 258.585 254.194 258.552C253.406 258.529 252.544 257.92 252.376 257.159C251.971 255.322 253.452 253.366 255.13 252.882C256.653 250.174 256.55 237.334 256.55 237.334C255.095 233.183 254.062 228.895 253.465 224.537C253.465 224.537 253.815 235.529 244.641 241.569C243.303 242.448 241.856 243.148 240.336 243.651H240.317C239.165 243.955 237.903 244.159 236.525 244.448C235.185 244.534 233.485 244.494 232.543 244.191C231.432 248.47 221.005 253.609 217.297 255.318C216.572 255.657 215.909 256.113 215.333 256.668C214.425 257.513 213.309 258.101 212.099 258.373C211.092 258.611 207.836 258.522 205.9 258.442C205.673 258.434 205.449 258.377 205.245 258.277C205.041 258.176 204.861 258.034 204.715 257.858C204.57 257.683 204.464 257.479 204.403 257.26C204.342 257.041 204.328 256.811 204.362 256.586C204.6 255.111 206.3 252.547 210.226 252.882C212.596 251.978 213.224 251.342 213.224 251.342C213.224 251.342 213.485 251.112 213.911 250.71C223.506 241.439 224.583 237.033 229.243 233.011C229.474 232.838 229.722 232.69 229.983 232.568C230.111 232.499 230.242 232.429 230.375 232.358C231.012 232.043 231.683 231.801 232.374 231.637C232.608 231.523 233.849 230.611 233.849 230.609C233.849 230.548 234.511 229.907 234.726 229.625C234.776 229.56 235.014 229.204 235.094 229.071L235.183 228.917C235.399 228.531 235.585 228.128 235.739 227.712C236.963 224.417 236.677 220.144 235.417 216.614C234.462 213.943 232.949 211.699 231.11 210.628C231.953 209.543 232.899 207.468 232.836 203.625C232.722 196.857 234.551 179.125 252.241 180.95C261.826 181.936 264.655 196.282 264.685 199.314C264.699 200.616 264.699 202.129 264.687 203.774Z" stroke="black" stroke-width="1.47489" stroke-linecap="round" stroke-linejoin="round"/>
<path d="M256.093 196.773L254.879 198.657C253.698 200.488 253.026 202.6 252.932 204.777C252.742 209.135 252.597 217.03 253.469 224.537" fill="#E9B68E"/>
<path d="M256.093 196.773L254.879 198.657C253.698 200.488 253.026 202.6 252.932 204.777C252.742 209.135 252.597 217.03 253.469 224.537" stroke="black" stroke-width="1.47489" stroke-linecap="round" stroke-linejoin="round"/>
<path d="M206.412 234.309C208.965 233.105 211.788 232.589 214.602 232.813" stroke="black" stroke-width="0.842792" stroke-linecap="round" stroke-linejoin="round"/>
<path d="M209.062 237.029C210.81 235.398 212.882 234.154 215.143 233.378" stroke="black" stroke-width="0.842792" stroke-linecap="round" stroke-linejoin="round"/>
<path d="M201.891 255.465C201.214 253.831 199.499 252.929 197.53 253.174" stroke="black" stroke-width="1.47489" stroke-linecap="round"/>
<path d="M213.422 255.207C212.839 253.57 211.23 253.057 209.427 252.88" stroke="black" stroke-width="1.47489" stroke-linecap="round"/>
<path d="M239.079 253.021C239.862 252.818 241.86 252.808 243.589 254.385" stroke="black" stroke-width="1.47489" stroke-linecap="round"/>
<path d="M254.929 253.021C255.712 252.818 257.71 252.808 259.438 254.385" stroke="black" stroke-width="1.47489" stroke-linecap="round"/>
</g>
<defs>
<clipPath id="clip0_5937_35424">
<rect width="298.291" height="287.813" fill="white"/>
</clipPath>
<clipPath id="clip1_5937_35424">
<rect width="42.7717" height="50.1461" fill="white" transform="translate(248.095 180.32)"/>
</clipPath>
</defs>
</svg>
