<svg fill="none" height="36" viewBox="0 0 36 36" width="36" xmlns="http://www.w3.org/2000/svg"><path clip-rule="evenodd" d="m15.4767 1.23907-1.9005 2.49991c-.1658.21935-.4638.29804-.7317.21432l-3.07427-.95442c-.94437-.29302-1.97581-.13395-2.77786.42363-.83218.57768-1.31609 1.5053-1.31609 2.48819v3.09097c0 .23945-.17916.4387-.41693.51405l-3.07423.95438c-.96447.2998-1.712934 1.0298-2.02605 1.9524-.319814.9427-.15237235 1.9758.457116 2.7779l1.898794 2.5016c.13562.1774.13562.4186 0 .596l-1.898794 2.5016c-.60948835.8021-.77693 1.8352-.457116 2.7779.313116.9226 1.06158 1.6526 2.02605 1.9524l3.07423.9544c.23777.0753.41693.2746.41693.514v3.091c0 .9829.48391 1.9105 1.31609 2.4882.80205.5576 1.83349.7166 2.77786.4236l3.07427-.9544c.2679-.0837.5659-.005.7317.2143l1.9005 2.4999c.5877.7736 1.5237 1.2391 2.5233 1.2391s1.9356-.4655 2.5233-1.2391l1.9005-2.4999c.1658-.2193.4638-.298.7317-.2143l3.0743.9544c.9443.293 1.9758.134 2.7778-.4236.8322-.5777 1.3161-1.5053 1.3161-2.4882v-3.091c0-.2394.1792-.4387.417-.514l3.0742-.9544c.9645-.2998 1.7129-1.0298 2.026-1.9524.3198-.9427.1524-1.9758-.4571-2.7779l-1.8988-2.5016c-.1356-.1774-.1356-.4186 0-.596l1.8988-2.5016c.6095-.8021.7769-1.8352.4571-2.7779-.3131-.9226-1.0615-1.6526-2.026-1.9524l-3.0742-.95438c-.2378-.07535-.417-.2746-.417-.51405v-3.09097c0-.98289-.4839-1.91051-1.3161-2.48819-.802-.55758-1.8335-.71665-2.7778-.42363l-3.0743.95442c-.2679.08372-.5659.00503-.7317-.21432l-1.9005-2.49991c-.5877-.773582-1.5237-1.23907-2.5233-1.23907s-1.9356.465488-2.5233 1.23907zm8.8325 19.92393c-.9812-.9796-2.5719-.9796-3.5531 0-.9795.9795-.9795 2.5719 0 3.5514.9812.9812 2.5719.9812 3.5531 0 .9795-.9795.9795-2.5719 0-3.5514zm-1.2776-9.9712-11.8398 11.8398c-.4906.4906-.4906 1.286 0 1.7766s1.286.4906 1.7766 0l11.8398-11.8398c.4906-.4906.4906-1.286 0-1.7766s-1.286-.4906-1.7766 0zm-7.7877.0938c-.9812-.9812-2.5719-.9812-3.5531 0-.9795.9795-.9795 2.5719 0 3.5514.9812.9796 2.5719.9796 3.5531 0 .9795-.9795.9795-2.5719 0-3.5514z" fill="#000" fill-rule="evenodd"/></svg>