<svg fill="none" height="72" viewBox="0 0 72 72" width="72" xmlns="http://www.w3.org/2000/svg"><g clip-rule="evenodd" fill-rule="evenodd"><path d="m46.3265 3.89113c-6.8187-1.18817-13.837-1.18817-20.6556 0-11.6163 2.01989-17.22785 4.97509-19.86317 7.63477-1.35144 1.371-2.24216 3.138-2.48788 5.0269-1.90431 14.258 5.3167 27.724 5.3167 27.724 1.48045 3.0618 3.15135 5.7581 4.90515 8.1679l49.7945-43.10321c-3.2588-1.99552-8.5264-3.97581-17.0097-5.45036z" fill="#e59467"/><path d="m66.1933 11.5256c-.7065-.7129-1.6586-1.4532-2.8565-2.18441l-49.7976 43.10321c6.4163 8.8047 14.0335 13.4873 18.5455 15.6626 2.4725 1.1912 5.3597 1.1912 7.8291-.0031 5.7406-2.7693 16.5091-9.5724 23.423-23.8274 0 0 7.2487-13.466 5.3443-27.724-.2457-1.8889-1.1364-3.6559-2.4878-5.0269z" fill="#c67036"/></g></svg>