<svg fill="none" height="24" viewBox="0 0 24 24" width="24" xmlns="http://www.w3.org/2000/svg"><g fill="#21201f"><path d="m6.87042 11.9452c-.30256-.7436-.35757-1.022-.44009-1.6401-.08166-.61798.17105-.92054.36359-.92054.17449 0 .47017.28709.57504.38766.10486.10142.23552-.01805.23552-.01805-.07221-.3954-.0404-1.05038-.18481-1.70621-.29311-1.33574-.57246-2.27179-.17019-3.09266.58621-1.19564 1.58587-.80712 1.58587-.80712s-.22176-.5716.77875-.88792c1.4062-.44438 3.097-.27935 4.2513.19082 1.6083.6567 1.9959.41087 1.9959.41087s.6644.84923.3602 3.48547c-.1341 1.16555-.2175 1.78099-.2175 2.19358 0 .05931.0636.05931.1272.05931.1281-.11776.2596-.21145.4478-.17707.3868.07134.4702.99796-.1057 2.36286-.3197.649-.4495 1.0848-.7641 1.047-.3138-.0387-.3567-.1969-.3567-.1384-.1247.6309-.2442.9137-.3722 1.267-.6395 1.5325-2.014 2.6336-2.6225 2.7703-.4349.0988-.6894.1332-1.1509 0-.8218-.2364-2.27528-1.6134-2.68614-2.8288-.1298-.3825-.32835-1.1587-.32835-1.1587s-.0894.1462-.31116.2158c-.22262.0688-.70827-.2716-1.01083-1.0151z"/><path d="m12 22c3.1057 0 5.8808-1.4158 7.7149-3.6372l-2.7148-1.3628s-2.0002 2-5.0001 2c-2.99991 0-4.99994-2-4.99994-2l-2.71496 1.3628c1.83416 2.2214 4.6092 3.6372 7.7149 3.6372z"/></g></svg>