<svg fill="none" height="16" viewBox="0 0 16 16" width="16" xmlns="http://www.w3.org/2000/svg"><rect fill="#21201f" height="16" rx="5.33333" width="16"/><path clip-rule="evenodd" d="m8 5.60032c0-.14728.11939-.26667.26667-.26667h.8 2.00003c.1472 0 .2666.11939.2666.26667v.8c0 .14727-.1194.26666-.2666.26666h-1.73337v.93283.00051.8c0 .0092-.00046.0183-.00137.02726-.01366.13447-.12722.2394-.26529.2394h-.8-.93334v.93334.79998c0 .0092-.00046.0183-.00137.0273-.01366.1344-.12722.2394-.26529.2394h-.8-2c-.14728 0-.26667-.1194-.26667-.2667v-.79998c0-.14728.11939-.26667.26667-.26667h1.73333v-.93333-.8c0-.00921.00047-.0183.00138-.02727.01365-.13447.12722-.2394.26529-.2394h.8.93333v-.93333z" fill="#fff" fill-rule="evenodd"/></svg>