<svg width="142" height="142" viewBox="0 0 142 142" fill="none" xmlns="http://www.w3.org/2000/svg">
    <rect width="142" height="142" fill="#029154"/>
    <path d="M51.7933 88.3712C58.2502 94.7929 68.0407 106.166 77.8722 106.166C96.8392 106.166 99.8039 89.5284 99.0476 77.4281C98.1968 63.8153 104.341 58.5215 103.585 54.7401C98.2914 50.9588 88.7575 56.3492 90.7287 69.8655C90.7287 69.8655 83.9223 72.8905 80.141 81.9657C77.8722 73.6468 86.1911 68.3529 86.1911 68.3529C80.4072 59.1729 72.1219 42.9488 69.5533 37.346C66.9847 31.7432 59.7218 35.0772 61.9906 40.3711C63.843 44.6933 74.0909 65.3279 74.0909 65.3279L71.8221 66.8404C71.8221 66.8404 56.6967 45.6649 53.6717 41.1274C50.6466 36.5898 43.4621 41.8836 46.8653 46.4212C50.2685 50.9588 65.0157 72.1342 65.0157 72.1342L63.5031 73.6468C63.5031 73.6468 49.1341 57.7652 45.3528 53.9839C41.5714 50.2026 37.0338 55.4964 40.0589 59.2777C42.551 62.3928 58.2093 78.9406 58.2093 78.9406L56.6967 81.2094C56.6967 81.2094 46.109 72.8905 41.5714 69.1092C37.0338 65.3279 32.4962 69.8655 37.0338 74.403C41.5714 78.9406 45.3528 81.9657 51.7933 88.3712Z" fill="white"/>
</svg>
