<svg fill="none" height="24" viewBox="0 0 24 24" width="24" xmlns="http://www.w3.org/2000/svg"><g fill="#21201f"><g clip-rule="evenodd" fill-rule="evenodd"><path d="m3 6c0-.93188 0-1.39782.15224-1.76537.20299-.49005.59234-.8794 1.08239-1.08239.36755-.15224.83349-.15224 1.76537-.15224s1.39782 0 1.76537.15224c.49005.20299.8794.59234 1.08239 1.08239.15224.36755.15224.83349.15224 1.76537s0 1.39782-.15224 1.76537c-.20299.49005-.59234.8794-1.08239 1.08239-.36755.15224-.83349.15224-1.76537.15224s-1.39782 0-1.76537-.15224c-.49005-.20299-.8794-.59234-1.08239-1.08239-.15224-.36755-.15224-.83349-.15224-1.76537zm3 1c-.49331 0-.76312-.00108-.95817-.01439l-.02557-.00187-.00187-.02557c-.01331-.19505-.01439-.46486-.01439-.95817s.00108-.76312.01439-.95817l.00187-.02557.02557-.00187c.19505-.01331.46486-.01439.95817-.01439s.76312.00108.95817.01439l.02557.00187.00187.02557c.01331.19505.01439.46486.01439.95817s-.00108.76312-.01439.95817l-.00187.02557-.02557.00187c-.19505.01331-.46486.01439-.95817.01439z"/><path d="m15 6c0-.93188 0-1.39782.1522-1.76537.203-.49005.5924-.8794 1.0824-1.08239.3676-.15224.8335-.15224 1.7654-.15224s1.3978 0 1.7654.15224c.49.20299.8794.59234 1.0824 1.08239.1522.36755.1522.83349.1522 1.76537s0 1.39782-.1522 1.76537c-.203.49005-.5924.8794-1.0824 1.08239-.3676.15224-.8335.15224-1.7654.15224s-1.3978 0-1.7654-.15224c-.49-.20299-.8794-.59234-1.0824-1.08239-.1522-.36755-.1522-.83349-.1522-1.76537zm3 1c-.4933 0-.7631-.00108-.9582-.01439l-.0255-.00187-.0019-.02557c-.0133-.19505-.0144-.46486-.0144-.95817s.0011-.76312.0144-.95817l.0019-.02557.0255-.00187c.1951-.01331.4649-.01439.9582-.01439s.7631.00108.9582.01439l.0255.00187.0019.02557c.0133.19505.0144.46486.0144.95817s-.0011.76312-.0144.95817l-.0019.02557-.0255.00187c-.1951.01331-.4649.01439-.9582.01439z"/><path d="m3.15224 16.2346c-.15224.3676-.15224.8335-.15224 1.7654s0 1.3978.15224 1.7654c.20299.49.59234.8794 1.08239 1.0824.36755.1522.83349.1522 1.76537.1522s1.39782 0 1.76537-.1522c.49005-.203.8794-.5924 1.08239-1.0824.15224-.3676.15224-.8335.15224-1.7654s0-1.3978-.15224-1.7654c-.20299-.49-.59234-.8794-1.08239-1.0824-.36755-.1522-.83349-.1522-1.76537-.1522s-1.39782 0-1.76537.1522c-.49005.203-.8794.5924-1.08239 1.0824zm1.88959 2.751c.19505.0133.46486.0144.95817.0144s.76312-.0011.95817-.0144l.02557-.0019.00187-.0255c.01331-.1951.01439-.4649.01439-.9582s-.00108-.7631-.01439-.9582l-.00187-.0255-.02557-.0019c-.19505-.0133-.46486-.0144-.95817-.0144s-.76312.0011-.95817.0144l-.02557.0019-.00187.0255c-.01331.1951-.01439.4649-.01439.9582s.00108.7631.01439.9582l.00187.0255z"/></g><path d="m13 3h-2v6c0 .47962-.0005.78926-.0167 1.0262-.0156.228-.0422.3149-.0594.3565-.1015.245-.2962.4397-.5412.5412-.0416.0172-.1285.0438-.3565.0594-.23694.0162-.54658.0167-1.0262.0167h-6v2h6.03199c.43863 0 .81715 0 1.13041-.0213.3298-.0226.6597-.0721.9857-.2071.735-.3044 1.3191-.8885 1.6235-1.6235.135-.326.1845-.6559.2071-.9857.0213-.31326.0213-.69174.0213-1.13037z"/><path d="m18.968 11h2.032v2h-2c-.4796 0-.7893.0005-1.0262.0167-.228.0156-.3149.0422-.3565.0594-.245.1015-.4397.2962-.5412.5412-.0172.0416-.0438.1285-.0594.3565-.0162.2369-.0167.5466-.0167 1.0262v2h-2v-2.032c0-.4386 0-.8171.0213-1.1304.0226-.3298.0721-.6597.2071-.9857.3044-.735.8885-1.3191 1.6235-1.6235.326-.135.6559-.1845.9857-.2071.3133-.0213.6918-.0213 1.1304-.0213z"/><path d="m17.032 21c.4386 0 .8171 0 1.1304-.0213.3298-.0226.6597-.0721.9857-.2071.735-.3044 1.3191-.8885 1.6235-1.6235.135-.326.1845-.6559.2071-.9857.0213-.3133.0213-.6918.0213-1.1304v-2.032h-2v2c0 .4796-.0005.7893-.0167 1.0262-.0156.228-.0422.3149-.0594.3565-.1015.245-.2962.4397-.5412.5412-.0416.0172-.1285.0438-.3565.0594-.2369.0162-.5466.0167-1.0262.0167h-2c-.4796 0-.7893-.0005-1.0262-.0167-.228-.0156-.3149-.0422-.3565-.0594-.245-.1015-.4397-.2962-.5412-.5412-.0172-.0416-.0438-.1285-.0594-.3565-.0162-.2369-.0167-.5466-.0167-1.0262v-2h-2v2.032c0 .4386 0 .8171.0213 1.1304.0226.3298.0721.6597.2071.9857.3044.735.8885 1.3191 1.6235 1.6235.326.135.6559.1845.9857.2071.3133.0213.6918.0213 1.1304.0213z"/></g></svg>