<svg fill="none" height="48" viewBox="0 0 48 48" width="48" xmlns="http://www.w3.org/2000/svg" xmlns:xlink="http://www.w3.org/1999/xlink"><mask id="a" height="34" maskUnits="userSpaceOnUse" width="30" x="9" y="7"><path d="m31.55 24.1002-1.7667-1.7667-8.1333 8.1333-3.5333-3.5333-1.7667 1.7667 5.3 5.3zm4.1167-13.4334h-1.6667v-3.3333h-3.3333v3.3333h-13.3334v-3.3333h-3.3333v3.3333h-1.6667c-1.85 0-3.31663 1.5-3.31663 3.3334l-.01667 23.3333c0 1.8333 1.4833 3.3333 3.3333 3.3333h23.3334c1.8333 0 3.3333-1.5 3.3333-3.3333v-23.3333c0-1.8334-1.5-3.3334-3.3333-3.3334zm0 26.6667h-23.3334v-18.3333h23.3334z" fill="#fff"/></mask><g mask="url(#a)"><path d="m31.55 24.1002-1.7667-1.7667-8.1333 8.1333-3.5333-3.5333-1.7667 1.7667 5.3 5.3zm4.1167-13.4334h-1.6667v-3.3333h-3.3333v3.3333h-13.3334v-3.3333h-3.3333v3.3333h-1.6667c-1.85 0-3.31663 1.5-3.31663 3.3334l-.01667 23.3333c0 1.8333 1.4833 3.3333 3.3333 3.3333h23.3334c1.8333 0 3.3333-1.5 3.3333-3.3333v-23.3333c0-1.8334-1.5-3.3334-3.3333-3.3334zm0 26.6667h-23.3334v-18.3333h23.3334z" fill="#000"/></g></svg>