<svg fill="none" height="40" viewBox="0 0 40 40" width="40" xmlns="http://www.w3.org/2000/svg" xmlns:xlink="http://www.w3.org/1999/xlink"><linearGradient id="a" gradientUnits="userSpaceOnUse" x1="20" x2="20" y1="0" y2="40"><stop offset="0" stop-color="#fcbc3a"/><stop offset="1" stop-color="#fc9000"/></linearGradient><rect fill="url(#a)" height="40" rx="12" width="40"/><path d="m24.7269 7.50037c.5304 0 1.039.21086 1.414.58593l5.7735 5.7725c.3749.375.5859.8837.5859 1.414v9.4541c0 .5303-.211 1.039-.5859 1.4141l-5.7735 5.7734c-.375.3749-.8837.586-1.414.586h-9.4541c-.5304-.0001-1.0391-.211-1.4141-.586l-5.77246-5.7734c-.37507-.3751-.58593-.8836-.58593-1.4141v-9.4541c.00002-.5304.21088-1.039.58593-1.414l5.77246-5.7725c.3751-.37505.8837-.58591 1.4141-.58593zm-4.7266 17.36033c-1.1506 0-2.084.9334-2.084 2.084.0001 1.1505.9335 2.083 2.084 2.083 1.1504-.0002 2.0829-.9326 2.083-2.083 0-1.1505-.9326-2.0838-2.083-2.084zm-1.7363-13.1943.3467 11.1113h2.7783l.3467-11.1113z" fill="#fff"/></svg>