<svg width="24" height="25" viewBox="0 0 24 25" fill="none" xmlns="http://www.w3.org/2000/svg">
<path d="M11 4.99707C11 4.72093 10.7761 4.49707 10.5 4.49707H8C5.79086 4.49707 4 6.28793 4 8.49707V16.4971C4 18.7062 5.79086 20.4971 8 20.4971H16C18.2091 20.4971 20 18.7062 20 16.4971V13.9971C20 13.7209 19.7761 13.4971 19.5 13.4971H18.5C18.2239 13.4971 18 13.7209 18 13.9971V16.4971C18 17.6016 17.1046 18.4971 16 18.4971H8C6.89543 18.4971 6 17.6016 6 16.4971V8.49707C6 7.3925 6.89543 6.49707 8 6.49707H10.5C10.7761 6.49707 11 6.27321 11 5.99707V4.99707Z" fill="white"/>
<path d="M14.5 6.49707H16.5858L11.2929 11.79C10.9024 12.1805 10.9024 12.8137 11.2929 13.2042C11.6834 13.5947 12.3166 13.5947 12.7071 13.2042L18 7.91128V9.99707C18 10.2732 18.2239 10.4971 18.5 10.4971H19.5C19.7761 10.4971 20 10.2732 20 9.99707V5.49707C20 4.94479 19.5523 4.49707 19 4.49707H14.5C14.2239 4.49707 14 4.72093 14 4.99707V5.99707C14 6.27321 14.2239 6.49707 14.5 6.49707Z" fill="white"/>
</svg>
