<svg width="24" height="25" viewBox="0 0 24 25" fill="none" xmlns="http://www.w3.org/2000/svg">
<path d="M4 11.4971C4 10.7801 4 10.3031 4.03 9.93707C4.06 9.58107 4.111 9.41907 4.163 9.31607C4.30685 9.03358 4.53651 8.80392 4.819 8.66007C4.922 8.60807 5.084 8.55707 5.439 8.52807C5.806 8.49707 6.283 8.49707 7 8.49707H13C13.717 8.49707 14.194 8.49707 14.56 8.52707C14.916 8.55707 15.078 8.60807 15.181 8.66007C15.4631 8.80409 15.6924 9.03373 15.836 9.31607C15.889 9.41907 15.94 9.58107 15.969 9.93607C15.999 10.3031 16 10.7801 16 11.4971V17.4971C16 18.2141 16 18.6911 15.97 19.0571C15.94 19.4131 15.889 19.5751 15.836 19.6781C15.6922 19.96 15.463 20.1893 15.181 20.3331C15.078 20.3861 14.916 20.4371 14.561 20.4661C14.194 20.4971 13.717 20.4971 13 20.4971H7C6.283 20.4971 5.806 20.4971 5.44 20.4671C5.084 20.4371 4.922 20.3861 4.819 20.3341C4.53651 20.1902 4.30685 19.9606 4.163 19.6781C4.111 19.5751 4.06 19.4131 4.031 19.0581C4 18.6911 4 18.2141 4 17.4971V11.4971Z" stroke="black" stroke-width="2"/>
<path fill-rule="evenodd" clip-rule="evenodd" d="M10 5.49707H8C7.73478 5.49707 7.48043 5.39171 7.29289 5.20418C7.10536 5.01664 7 4.76229 7 4.49707C7 4.23185 7.10536 3.9775 7.29289 3.78996C7.48043 3.60243 7.73478 3.49707 8 3.49707H14.6C16.84 3.49707 17.96 3.49707 18.816 3.93307C19.5686 4.31656 20.1805 4.92846 20.564 5.68107C21 6.53707 21 7.65707 21 9.89707V16.4971C21 16.7623 20.8946 17.0166 20.7071 17.2042C20.5196 17.3917 20.2652 17.4971 20 17.4971C19.7348 17.4971 19.4804 17.3917 19.2929 17.2042C19.1054 17.0166 19 16.7623 19 16.4971V9.49707C19 8.09707 19 7.39707 18.727 6.86207C18.4875 6.39158 18.1053 6.00897 17.635 5.76907C17.1 5.49707 16.4 5.49707 15 5.49707H10Z" fill="black"/>
</svg>
