<svg fill="none" height="498" viewBox="0 0 534 498" width="534" xmlns="http://www.w3.org/2000/svg"><path d="m338.478 179.09 38.793 15.044 8.976 8.953-3.14 25.121-54.903-22.822c-2.657-2.425-4.668-4.991-5.708-7.707-1.441-3.765-1.754-7.384-1.484-10.61.682-8.153 9.838-10.937 17.466-7.979z" fill="#f2d1a5" stroke="#000" stroke-linecap="round" stroke-linejoin="round" stroke-width="10.8653"/><path d="m389.61 145.408 24.26 40.107v32.579l-15.062 19.535-9.5-19.535c-1.603-6.574-3.506-12.965-5.605-17.322-6.904-14.331-21.807-37.388-18.026-50.367 1.114-3.826 3.021-6.872 5.156-9.267 5.479-6.144 14.516-2.774 18.777 4.27z" fill="#f2d1a5" stroke="#000" stroke-linecap="round" stroke-linejoin="round" stroke-width="10.8653"/><path d="m452.481 184.309-6.334 74.439-10.757 56.711-28.758-82.886s8.768-30.212 8.447-44.644c-.354-15.902-6.4-47.666 2.413-57.917 3.142-3.655 6.817-5.667 10.246-6.743 6.787-2.13 12.532 3.662 14.013 10.62z" fill="#f2d1a5" stroke="#000" stroke-linecap="round" stroke-linejoin="round" stroke-width="10.8653"/><path d="m304.069 290.491c-9.789-29.203-15.217-49.157-36.382-48.896-6.653.082-10.5 7.052-8.664 13.447 7.972 27.764 14.291 43.569 13.674 63.2.096 25.725 3.64 41.562 19.306 73.604 9.989 20.434 10.241 46.299 3.722 78.343-.782 3.844.203 7.915 3.142 10.514 22.719 20.083 61.214 22.311 86.318 4.238 2.225-1.603 3.642-4.065 4.182-6.754 7.795-38.778 14.211-70.273 47.698-141.075.602-1.272.836-2.719.646-4.113l-8.773-64.334c-1.163-8.532-5.145-16.429-11.312-22.438l-34.396-33.515c-2.032-1.979-4.695-3.179-7.523-3.39l-60.052-4.482c-8.131-.607-14.511 6.859-12.643 14.796l.734 3.12c.214.911.536 1.809.972 2.637 10.174 19.288 22.631 18.301 52.173 20.12 3.25.2 6.296 1.729 8.376 4.234 10.849 13.069 16.331 22.446 10.467 49.48-.303 1.398-.89 2.769-1.702 3.946-27.463 39.846-58.724 20.849-69.963-12.682z" fill="#f2d1a5"/><g stroke="#000" stroke-width="10.8653"><path d="m294.416 476.309c7.821-34.889 8.205-62.744-2.413-84.463-15.666-32.042-19.21-47.879-19.306-73.604.617-19.631-5.702-35.436-13.674-63.2-1.836-6.395 2.011-13.365 8.664-13.447 21.165-.261 26.593 19.693 36.382 48.896 11.239 33.531 42.5 52.528 69.963 12.682.812-1.177 1.399-2.548 1.702-3.946 5.864-27.034.382-36.411-10.467-49.48-2.08-2.505-5.126-4.034-8.376-4.234-29.542-1.819-41.999-.832-52.173-20.12-.436-.828-.758-1.726-.972-2.637l-.734-3.12c-1.868-7.937 4.512-15.403 12.643-14.796l60.052 4.482c2.828.211 5.491 1.411 7.523 3.39l34.396 33.515c6.167 6.009 10.149 13.906 11.312 22.438l8.773 64.334c.19 1.394-.044 2.841-.646 4.113-34.674 73.312-40.324 104.481-48.534 145.23" stroke-linecap="round" stroke-linejoin="round"/><path d="m115.653 44.5798c7.033-6.704 18.702-2.7688 20.239 6.8258l4.07 25.4119c.594 3.7057 2.878 6.9243 6.18 8.7079l22.644 12.2308c8.549 4.6178 8.413 16.9308-.238 21.3578l-22.91 11.724c-3.341 1.71-5.696 4.877-6.372 8.568l-4.635 25.315c-1.75 9.558-13.502 13.233-20.385 6.374l-18.2304-18.166c-2.6584-2.649-6.3982-3.91-10.118-3.412l-25.5083 3.415c-9.6309 1.289-16.7577-8.753-12.3616-17.419l11.6435-22.951c1.6979-3.347 1.7418-7.293.1188-10.677l-11.1302-23.2048c-4.2023-8.7611 3.1461-18.6423 12.746-17.1391l25.426 3.9812c3.7078.5806 7.4747-.5972 10.1914-3.1865z" fill="#ffd942"/><path d="m280.318 101.195c2.705-5.5314 10.642-5.3745 13.127.259l4.829 10.948c.433.981 1.078 1.854 1.889 2.555l11.633 10.057c3.427 2.963 3.322 8.311-.22 11.136l-12.021 9.59c-.839.669-1.518 1.515-1.989 2.478l-5.258 10.749c-2.705 5.531-10.642 5.374-13.127-.26l-4.829-10.948c-.433-.981-1.078-1.853-1.889-2.554l-11.633-10.058c-3.427-2.963-3.321-8.31.22-11.136l12.021-9.589c.839-.669 1.518-1.516 1.989-2.479z" fill="#ffd942"/><path d="m104.128 244.662c2.706-5.531 10.642-5.374 13.127.26l6.543 14.834c.433.981 1.078 1.854 1.889 2.555l14.467 12.507c3.427 2.963 3.322 8.311-.22 11.136l-14.95 11.926c-.838.669-1.517 1.515-1.988 2.478l-7.124 14.564c-2.706 5.531-10.643 5.375-13.128-.259l-6.5429-14.834c-.4327-.981-1.0779-1.854-1.889-2.555l-14.4667-12.508c-3.4273-2.963-3.3216-8.31.2202-11.136l14.9495-11.925c.8382-.669 1.5174-1.516 1.9886-2.479z" fill="#ffd942"/><path d="m323.068 288.139c8.697 6.169 20.747 4.119 26.916-4.577 6.168-8.697 4.119-20.748-4.578-26.916l-15.997-11.347-18.524 4.892-7.922-23.65-144.702-102.638-12.678 6.741c-3.314 1.762-5.619 4.966-6.237 8.667l-2.763 16.554 123.457 87.568 28.863-5.803 10.262 33.555z" fill="#f8f8f6" stroke-linecap="round" stroke-linejoin="round"/></g><path d="m186.001 143.582c-3.69 12.878-11.726 23.92-22.42 31.436l98.254 69.692c16.659-1.08 24.278 5.479 35.626 25.269l25.604 18.162c8.697 6.168 20.748 4.119 26.916-4.578 6.169-8.697 4.12-20.747-4.577-26.916l-15.999-11.348c-12.388-4.891-18.079-8.705-25.339-17.973z" fill="#000"/><path d="m167.243 57.4886c15.505-24.3662 46.517-45.4097 78.636-52.05501" stroke="#000" stroke-linecap="round" stroke-linejoin="round" stroke-width="10.8653"/><path d="m194.93 89.3272c9.477-11.948 23.158-22.5265 38.765-30.3335" stroke="#000" stroke-linecap="round" stroke-linejoin="round" stroke-width="10.8653"/></svg>