<svg version="1.1" id="レイヤー_1" xmlns="http://www.w3.org/2000/svg" x="0" y="0" viewBox="0 0 100.1 62" style="enable-background:new 0 0 100.1 62" xml:space="preserve">
    <path class="st0" d="M4 2h89v1l4-1.5L93 0v1H4V0L0 1.5 4 3zM73 60H24v-1l-4 1.5 4 1.5v-1h49v1l4-1.5-4-1.5z"/>
    <path class="st1" d="M17.5 48h1v1h-1zM17.5 52h1v1h-1zM17.5 50h1v1h-1zM17.5 54h1v1h-1zM17.5 58h1v1h-1zM17.5 56h1v1h-1zM17.5 60h1v1h-1zM78.5 60h1v1h-1zM78.5 52h1v1h-1zM78.5 48h1v1h-1zM78.5 50h1v1h-1zM78.5 58h1v1h-1zM78.5 56h1v1h-1zM78.5 54h1v1h-1z"/>
    <path class="st2" d="M99.2 31c.1-2.3-.1-6.6-1.7-8.2-.4-.4-.6-.6-6.7-1.2-.7-.2-3.8-1.5-6.3-2.6-3.7-1.6-7.6-3.2-9.4-3.8-5.4-1.7-11.1-2.5-16.8-2.5-5 0-9.9.6-14.7 1.7-5.5 1.2-15.6 8.3-17.5 9.7-3.1.4-18.3 2.4-20.6 3.2-2.7 1-3.2 2.5-3.4 3.2-.3 1-.5 1.6-.6 2-.1.1-.3.3-.7.6-.5.6-.8 1.4-.8 2.2v2.3c0 .5.3 1.1.8 1.3.1.4.2.8.3 1.4.2 1 .8 3.2 12.3 3.2h1.5c1.9 3.5 6.2 4.7 9.7 2.8 1.2-.7 2.2-1.6 2.8-2.8H71.5c1.9 3.5 6.2 4.8 9.7 2.9 1.4-.7 2.4-1.9 3.1-3.3 2.1-.1 3.7-.1 4-.1 1.3 0 7.4-1.8 9.9-2.6.6-.2 1-.6 1.1-1.2.6-3.6.8-5.7.8-6.1 0-.8-.3-1.5-.9-2.1zm-2.6-.3h-3.3c-.7-.8-1.3-1.7-1.6-2.7 1.5-.5 3.1-.8 4.7-1 .2 1.3.2 2.5.2 3.7zm-13.1-9.2c.9.4 1.6.7 2.2 1-.8.1-1.5.1-1.8.1-.5-.3-2.7-1.5-5.2-3.1 1.6.6 3.2 1.3 4.8 2zm-43.3-3 .7.4c-2.7 1.5-9.1 5.4-10.9 6.5h-1.2c3.7-2.6 7.5-4.9 11.4-6.9zm29.3-.1c1.1 1.8 2.2 3.6 3 5.1l-16.1.6 1.1-6.7c7.3 0 9.8.5 12 1zm2.1.9c2.1 1.2 4 2.6 5.9 4.2H74c-.5-1-1.3-2.4-2.4-4.2zm1.6 5.5c.2.4.4.8.6 1.3-.2.3-.5.8-.9 1.3-1.7 2.4-4.8 6.7-5.9 10.3l-12.3.2.4-12.4 18.1-.7zm-18.1-.7h-.6c-.1 0-8.8.5-15.4.9 0-.5 0-1-.1-1.4-.2-.6-.7-1.1-1.3-1.2 2.5-1.5 4.6-2.7 5-2.8 4.4-1.3 9-2 13.6-2.1l-1.2 6.6zm-21.4 1.2c-.4 0-.8 0-1.1.1.4-.2.7-.4 1.1-.7v.1c-.1.2-.1.4 0 .5zm.7 1.3.2.2c.5.2 1 .3 1.5.3.7 0 1.5-.1 2.2-.4l.3-.3c5.6-.3 12.9-.7 15.2-.9l-.4 12.4-21.7.4-.1-11.5v-.1c.3 0 1.3 0 2.8-.1zm3.2-2.7c.2.5.2 1.1 0 1.7-.8.3-1.7.3-2.5.1-.2-.2-.2-.4-.2-.7 0-.6 1.1-1.1 1.8-1.2h.3c.3-.2.5-.1.6.1zM4.7 31.2c0-.1.1 0 0-.2 0-.1.1-.2.2-.3h6.3s0 .1-.1.1c-.2.5-.5 1-.8 1.6l-6.2.3c.2-.2.4-.9.6-1.5zm-2.1 4.1c0-.1 0-.1.1-.2.4-.3.6-.6.8-.8l6.3-.3c-.2.6-.3 1.1-.3 1.7v.9l-2.8.1c-.1-.2-.2-.4-.4-.6-.3-.3-.7-.4-1.1-.5-.4 0-.8.2-1.1.5-.2.2-.3.5-.4.8l-1.1.1v-1.7zm3.1 2.5c0 .3-.1.5-.2.8 0 .1-.1.1-.2.1s-.1 0-.2-.1c-.1-.3-.2-.6-.2-.8 0-.3.1-.5.2-.7 0-.1.1-.1.2-.1s.1 0 .2.1c.2.1.3.4.2.7zm8 3.1c-4.7 0-9.4-.6-10.1-1.2l-.3-1.5h.3c.1.5.3.9.6 1.3.3.3.7.5 1.1.5.4 0 .8-.2 1.1-.5.4-.5.6-1 .6-1.5l2.6-.1c.1.6.2.9.6 1.1 1.3.3 2.5.5 3.8.6v.5c0 .3 0 .6.1.8h-.4zm7.5 3.2c-2.2 0-4-1.8-4-4s1.8-4 4-4 4 1.8 4 4-1.8 4-4 4zm-1.7-11c-2.5.6-4.5 2.6-5.2 5.2-1.4-.2-2.9-.4-3.4-.5v-2.1c.2-1.5.6-2.9 1.4-4.1.2-.3.3-.7.4-1 0-.2 0-.4-.1-.6-.2-.2-.4-.5-4.5-.5 3.8-.7 12.7-2 18.8-2.8.8 0 2.3.1 3.5.1v.1l.1 11.5h-2.3c-1-3.9-4.9-6.2-8.7-5.3zm51.2 7.8H28.2c0-.3.1-.6.1-.8v-.4l42.5-.7c-.1.5-.2 1.2-.1 1.9zm11.1-.9c0 2.2-1.8 4-4 4s-4-1.8-4-4 1.8-4 4-4 4 1.8 4 4zm11.1-5.7H97.3c-.1 1-.3 2.4-.5 3.8-2.8.9-5.6 1.7-8.5 2.3-.3 0-1.6 0-3.4.1v-.4c0-3.9-3.2-7.1-7.1-7.1-3 0-5.7 1.9-6.7 4.7h-2.7c1.1-3.3 4-7.3 5.6-9.5.5-.5.9-1.1 1.2-1.8 0-.1.1-.4-.4-1.5 4 .1 4.1-.1 4.4-.3.7-.7.1-1.2-.6-2-.7-.7-6.1-4.9-8.6-5.4-2.3-.5-4.9-1-12.6-1-5 0-10 .7-14.8 2.1l-.7-.4c.8-.3 1.6-.6 2.5-.8 12.3-2.7 22-1.5 28.4.2 10.8 6.6 11.1 6.6 11.3 6.6.2 0 2.9-.2 4.6-.3.7.3 1.3.5 2.1.7 2.1.2 4.6.5 5.4.6.2.3.3.6.3.9-5.3.6-5.6 1.4-5.7 1.7-.4 1.2 1.3 3.4 2 4.3-.2.2 0 .2.2.2h3.8s0 .1.1.1c.2.3.4.5.6.8h-4.4c-.4 0-.7.2-.7.6-.1.5.2.8.5.8z"/>
    <path class="st2" d="M68.1 28.8c.3 0 .5.1.8 0 .5 0 1.1 0 1.6-.1.7-.2 1.1-1.2 1.1-1.8.1-.4-.2-.9-.6-1-.2-.1-3.2-.2-3.7.2-.4.3-.5.9-.4 1.3.1.7.6 1.2 1.2 1.4zm2.1-1.7c0 .1-.1.2-.2.3-.4 0-1.5.1-1.7.1l-.3-.3c.6-.1 1.7-.1 2.2-.1zM49.3 29.5h.8c.5 0 1.1 0 1.6-.1.7-.2 1.1-1.2 1.1-1.8.1-.4-.2-.9-.6-1-.2-.1-3.2-.2-3.7.2-.4.3-.5.9-.4 1.3.2.7.6 1.2 1.2 1.4zm2.2-1.6c0 .1-.1.2-.2.3-.4 0-1.5.1-1.7.1l-.3-.3c.6-.1 1.6-.2 2.2-.1z"/>
</svg>
