<svg fill="none" height="24" viewBox="0 0 24 24" width="24" xmlns="http://www.w3.org/2000/svg"><g clip-rule="evenodd" fill="#21201f" fill-rule="evenodd"><path d="m12.0011 5.62081-5.39465 3.01304v3.33305c0 3.2032 1.9523 5.7785 5.10655 6.7248l.3032.0909.3003-.1001c2.8059-.9353 5.0777-3.4659 5.0777-6.7156v-3.33296zm-3.39465 6.34609v-2.15929l3.39445-1.8959 3.3933 1.89581v2.15938c0 2.1365-1.4277 3.9288-3.4109 4.7096-2.14992-.7637-3.37685-2.5217-3.37685-4.7096z"/><path d="m12 .839874-9.5 5.588236v4.75939c0 5.7695 3.49211 10.3979 9.2127 12.1141l.3032.091.3003-.1002c5.1156-1.7052 9.1838-6.2888 9.1838-12.1049v-4.75939zm-7.5 10.347626v-3.6155l7.5-4.41176 7.5 4.41176v3.6155c0 4.7003-3.2188 8.5478-7.5165 10.1034-4.71945-1.538-7.4835-5.349-7.4835-10.1034z"/></g></svg>