<svg width="16" height="21" viewBox="0 0 16 21" fill="none" xmlns="http://www.w3.org/2000/svg">
<path fill-rule="evenodd" clip-rule="evenodd" d="M5 4.99976C5 3.3429 6.34315 1.99976 8 1.99976C9.65685 1.99976 11 3.3429 11 4.99976V7.99976H5V4.99976ZM3 8.12577V4.99976C3 2.23833 5.23858 -0.000244141 8 -0.000244141C10.7614 -0.000244141 13 2.23833 13 4.99976V8.12577C14.7252 8.56982 16 10.1359 16 11.9998V16.9998C16 19.2089 14.2091 20.9998 12 20.9998H4C1.79086 20.9998 0 19.2089 0 16.9998V11.9998C0 10.1359 1.27477 8.56982 3 8.12577Z" fill="#21201F"/>
</svg>
