<svg fill="none" height="33" viewBox="0 0 32 33" width="32" xmlns="http://www.w3.org/2000/svg" xmlns:xlink="http://www.w3.org/1999/xlink"><clipPath id="a"><path d="m6.66602 7.16699h18.6667v18.6667h-18.6667z"/></clipPath><rect fill="#0064ff" height="26.6667" rx="4" width="26.6667" x="2.66602" y="3.16699"/><g clip-path="url(#a)" fill="#fff"><path clip-rule="evenodd" d="m11.6177 21.834h-2.28567v-12.00002h4.57147c1.8935 0 3.4285 1.61182 3.4285 3.60002v1.2c0 .2311-.0207.4571-.0603.676-1.08.3608-1.8706 1.3669-1.8881 2.5722-.4481.2255-.9501.3518-1.4801.3518h-2.2858zm2.2858-6c.6311 0 1.1428-.5373 1.1428-1.2v-1.2c0-.6628-.5117-1.2-1.1428-1.2h-2.2858v3.6z" fill-rule="evenodd"/><path d="m20.0192 23.1673h-.4649v-5.2444c0-.7855-.6087-1.4222-1.4018-1.4222-.793 0-1.4359.6367-1.4359 1.4222v5.2444h-.4307c-.1586 0-.2872.1274-.2872.2845v.7644c0 .1571.1286.2845.2872.2845h3.7333c.1586 0 .2872-.1274.2872-.2845v-.7644c0-.1571-.1286-.2845-.2872-.2845z"/><path d="m20.4431 17.2118h1.0779l.829 1.5111h-1.9069z"/><path d="m25.332 17.4962c0-.1571-.1285-.2844-.2871-.2844h-2.1975l.829 1.5111h1.3685c.1586 0 .2871-.1096.2871-.2667z"/></g></svg>