<svg fill="none" height="24" viewBox="0 0 24 24" width="24" xmlns="http://www.w3.org/2000/svg"><path d="m12 16c1.7-1.5333 2.7917-2.6125 3.275-3.2375s.725-1.2458.725-1.8625c0-.6-.2167-1.11667-.65-1.55s-.95-.65-1.55-.65c-.35 0-.6875.07083-1.0125.2125s-.5875.3375-.7875.5875c-.2-.25-.4583-.44583-.775-.5875s-.6583-.2125-1.025-.2125c-.6 0-1.11667.21667-1.55.65s-.65.95-.65 1.55c0 .3167.04167.6083.125.875s.26667.5792.55.9375.6875.7958 1.2125 1.3125 1.2292 1.175 2.1125 1.975zm0 6c-2.31667-.5833-4.22917-1.9125-5.7375-3.9875s-2.2625-4.3792-2.2625-6.9125v-6.1l8-3 8 3v6.1c0 2.5333-.7542 4.8375-2.2625 6.9125s-3.4208 3.4042-5.7375 3.9875zm0-2.1c1.7333-.55 3.1667-1.65 4.3-3.3s1.7-3.4833 1.7-5.5v-4.725l-6-2.25-6 2.25v4.725c0 2.0167.56667 3.85 1.7 5.5s2.5667 2.75 4.3 3.3z" fill="#000"/></svg>