<svg width="200" height="200" viewBox="0 0 200 200" fill="none" xmlns="http://www.w3.org/2000/svg">
<rect width="200" height="200" fill="black"/>
<path fill-rule="evenodd" clip-rule="evenodd" d="M106.033 38.5218C105.429 37.4959 104.574 36.6409 103.548 36.0374C100.216 34.0773 95.9258 35.1896 93.9657 38.5218L32.0198 143.83C31.387 144.906 31.0533 146.131 31.0533 147.379C31.0533 151.245 34.1874 154.379 38.0533 154.379H161.945C163.193 154.379 164.419 154.045 165.494 153.412C168.826 151.452 169.939 147.162 167.979 143.83L106.033 38.5218Z" stroke="#F5523A" stroke-width="6"/>
<path fill-rule="evenodd" clip-rule="evenodd" d="M106 68L104.56 116.288H95.344L94 68H106Z" fill="#F5F4F2"/>
<path fill-rule="evenodd" clip-rule="evenodd" d="M100.049 137.969C98.9366 137.969 97.8896 137.757 96.908 137.331C95.9264 136.906 95.0757 136.333 94.3558 135.614C93.636 134.894 93.0634 134.059 92.638 133.111C92.2127 132.162 92 131.164 92 130.117C92 127.957 92.7689 126.125 94.3067 124.62C95.8446 123.115 97.7587 122.362 100.049 122.362C102.339 122.362 104.237 123.115 105.742 124.62C107.247 126.125 108 127.957 108 130.117C108 131.164 107.804 132.162 107.411 133.111C107.018 134.059 106.462 134.894 105.742 135.614C105.022 136.333 104.172 136.906 103.19 137.331C102.209 137.757 101.162 137.969 100.049 137.969Z" fill="#F5F4F2"/>
</svg>
