<svg fill="none" height="24" viewBox="0 0 24 24" width="24" xmlns="http://www.w3.org/2000/svg"><path clip-rule="evenodd" d="m12 1c-2.76142 0-5 2.23858-5 5v3.90973c-1.53437 1.37327-2.5 3.36907-2.5 5.59027 0 4.1421 3.35786 7.5 7.5 7.5 4.1421 0 7.5-3.3579 7.5-7.5 0-2.2212-.9656-4.217-2.5-5.59027v-3.90973c0-2.76142-2.2386-5-5-5zm3 7.62407c-.9187-.4014-1.9333-.62407-3-.62407s-2.08131.22267-3 .62407v-2.62407c0-1.65685 1.3431-3 3-3s3 1.34315 3 3zm-2.1764 2.54423-1.7373-.006-.2172 5.1747h.0051l4.4059 1.8514.6793-1.4623-2.955-1.7437z" fill="#21201f" fill-rule="evenodd"/></svg>