<svg fill="none" height="24" viewBox="0 0 24 24" width="24" xmlns="http://www.w3.org/2000/svg"><g fill="#21201f"><path d="m17 4h-2v-2h2c2.7614 0 5 2.23858 5 5v2h-2v-2c0-1.65685-1.3431-3-3-3z"/><path d="m2 7c0-2.76142 2.23858-5 5-5h2v2h-2c-1.65685 0-3 1.34315-3 3v2h-2z"/><path d="m4 17v-2h-2v2c0 2.7614 2.23858 5 5 5h2v-2h-2c-1.65685 0-3-1.3431-3-3z"/><path d="m20 17v-2h2v2c0 2.7614-2.2386 5-5 5h-2v-2h2c1.6569 0 3-1.3431 3-3z"/><path d="m8.60519 8.59836c.90828-.2219 2.10851-.34836 3.39481-.34836s2.4865.12646 3.3948.34836c.4502.11.8745.25443 1.2026.444.3224.18623.6526.47853.6526.87431 0 .39573-.3302.68803-.6526.87433-.3281.1895-.7524.334-1.2026.444-.9083.2219-2.1085.3483-3.3948.3483s-2.48653-.1264-3.39481-.3483c-.45021-.11-.87444-.2545-1.20263-.444-.3224-.1863-.65256-.4786-.65256-.87433 0-.39578.33016-.68808.65256-.87431.32819-.18957.75242-.334 1.20263-.444z"/><path d="m17.2494 14.1618v-2.5784c-.0152.3788-.3373.6596-.652.8401-.3281.1882-.7524.3316-1.2026.4408-.9083.2203-2.1085.3459-3.3948.3459s-2.48653-.1256-3.39481-.3459c-.45021-.1092-.87444-.2526-1.20263-.4408-.29941-.1718-.6055-.4343-.64764-.7856v2.4725c-.00324.0255-.00492.0514-.00492.0779 0 .3708.33016.6447.65256.8193.32819.1776.75242.3129 1.20263.416.90828.208 2.10851.3265 3.39481.3265s2.4865-.1185 3.3948-.3265c.4502-.1031.8745-.2384 1.2026-.416.3093-.1675.6258-.4264.651-.7746h.001v-.0183c.0004-.0088.0006-.0176.0006-.0264 0-.0089-.0002-.0177-.0006-.0265z"/></g></svg>