<svg fill="none" height="64" viewBox="0 0 64 64" width="64" xmlns="http://www.w3.org/2000/svg"><path d="m28.8487 11.8823c1.9857-.6382 4.1256-.6382 6.1113 0 2.3466.7543 3.9032 2.4703 5.0567 4.0439 1.1479 1.5662 2.372 3.6816 3.7763 6.1016l6.0528 10.4297c1.3847 2.386 2.6002 4.4733 3.3798 6.2246.7832 1.7591 1.4948 3.9463.9727 6.331-.4422 2.0197-1.5198 3.8435-3.0713 5.2149-1.8249 1.6129-4.0816 2.0856-6.0137 2.2881-1.9249.2016-4.3624.1982-7.1552.1982h-12.1075c-2.7928 0-5.2303.0034-7.1552-.1982-1.932-.2025-4.1888-.6752-6.0137-2.2881-1.5516-1.3714-2.63-3.1952-3.07226-5.2149-.52212-2.3847.19052-4.5719.97366-6.331.7796-1.7513 1.9952-3.8387 3.3799-6.2246l6.0527-10.4297c1.4043-2.4201 2.6284-4.5354 3.7764-6.1016 1.1534-1.5737 2.7099-3.2896 5.0566-4.0439z" fill="#fff" stroke="#fff" stroke-width="4.96197"/><path clip-rule="evenodd" d="m29.6081 14.2438c1.492-.4795 3.1003-.4795 4.5924 0 1.5878.5103 2.7554 1.7025 3.8153 3.1486 1.0513 1.4343 2.2001 3.414 3.6314 5.8804l6.0528 10.4302c1.4118 2.4326 2.5459 4.3868 3.2589 5.9884.7197 1.6167 1.1653 3.1961.8162 4.7907-.3287 1.5011-1.1304 2.8615-2.2909 3.8872-1.2329 1.0896-2.8466 1.4923-4.6292 1.6791-1.7659.185-4.0517.185-6.8971.1849h-12.1072c-2.8455.0001-5.1313.0001-6.8972-.1849-1.7825-.1868-3.3963-.5895-4.6292-1.6791-1.1604-1.0257-1.9622-2.3861-2.2908-3.8872-.3492-1.5946.0964-3.174.8161-4.7907.713-1.6016 1.8471-3.5557 3.2588-5.9884l6.0529-10.4302c1.4313-2.4664 2.5801-4.4461 3.6314-5.8804 1.06-1.4461 2.2275-2.6383 3.8154-3.1486zm.4787 21.4499-.4544-12.7223h4.5437l-.4544 12.7223zm4.998 7.2609c0 1.7566-1.424 3.1806-3.1805 3.1806-1.7566 0-3.1806-1.424-3.1806-3.1806 0-1.7565 1.424-3.1805 3.1806-3.1805 1.7565 0 3.1805 1.424 3.1805 3.1805z" fill="#e6bc26" fill-rule="evenodd"/></svg>