<svg xmlns="http://www.w3.org/2000/svg" xmlns:xlink="http://www.w3.org/1999/xlink" width="24.779" height="18.535" viewBox="0 0 24.779 18.535">
  <defs>
    <clipPath id="clip-path">
      <rect id="長方形_9239" data-name="長方形 9239" width="24.779" height="18.535" fill="none"/>
    </clipPath>
  </defs>
  <g id="グループ_33804" data-name="グループ 33804" transform="translate(0 0)">
    <g id="グループ_20663" data-name="グループ 20663" transform="translate(0 0)">
      <g id="グループ_20662" data-name="グループ 20662" clip-path="url(#clip-path)">
        <path id="パス_7668" data-name="パス 7668" d="M9.961,57.985a1.733,1.733,0,0,1-1.729-1.737c0-.012,0-.024,0-.037V53.659H9.357v2.469c0,.479.21.742.6.742s.629-.281.629-.742V53.659h1.1v2.552A1.731,1.731,0,0,1,10,57.984H9.961" transform="translate(-5.235 -34.123)"/>
        <path id="パス_7669" data-name="パス 7669" d="M27.686,57.978a1.888,1.888,0,0,1-1.43-.589,2.53,2.53,0,0,1,0-3.148,1.889,1.889,0,0,1,1.43-.589,1.678,1.678,0,0,1,1.546.836l.039.074-.828.416-.042-.046a.907.907,0,0,0-.632-.29c-.562,0-.928.46-.931,1.173s.368,1.173.931,1.173a.907.907,0,0,0,.632-.29l.042-.046.828.416-.039.075a1.679,1.679,0,0,1-1.546.835" transform="translate(-16.347 -34.117)"/>
        <path id="パス_7686" data-name="パス 7686" d="M38.645,54.846l.4,1.251h-.8Zm-.618-1.189-1.385,4.326h1l.337-1.046h1.335l.335,1.046h1L39.26,53.657Z" transform="translate(-23.301 -34.121)"/>
        <path id="パス_7687" data-name="パス 7687" d="M51.564,57.971l-.75-1.588h-.433v1.588H49.327V53.646h1.835a1.288,1.288,0,0,1,1.41,1.154,1.258,1.258,0,0,1,.006.143c0,.749-.225,1.189-.7,1.379l.9,1.648Zm-.582-2.492a.457.457,0,0,0,.506-.4.433.433,0,0,0,0-.084c0-.27-.2-.438-.513-.438h-.589v.924Z" transform="translate(-31.368 -34.11)"/>
        <rect id="長方形_9240" data-name="長方形 9240" width="1.323" height="0.967" transform="translate(7.164 21.215)"/>
        <path id="パス_7688" data-name="パス 7688" d="M8.06,43.225H6.873a.958.958,0,0,1-.959-.958V40.243h3.1v2.024a.958.958,0,0,1-.958.958" transform="translate(-3.761 -25.591)"/>
        <path id="パス_7689" data-name="パス 7689" d="M7.552,43.008H6.364a1.251,1.251,0,0,1-1.25-1.25V39.734a.291.291,0,0,1,.291-.291h3.1a.291.291,0,0,1,.291.291v2.024a1.251,1.251,0,0,1-1.25,1.25M5.7,40.026v1.733a.668.668,0,0,0,.667.667H7.552a.668.668,0,0,0,.667-.667V40.026Z" transform="translate(-3.252 -25.082)"/>
        <path id="パス_7690" data-name="パス 7690" d="M55.837,43.225H54.65a.958.958,0,0,1-.959-.958V40.243h3.1v2.024a.958.958,0,0,1-.958.958" transform="translate(-34.143 -25.591)"/>
        <path id="パス_7691" data-name="パス 7691" d="M55.329,43.008H54.141a1.251,1.251,0,0,1-1.25-1.25V39.734a.291.291,0,0,1,.291-.291h3.1a.291.291,0,0,1,.291.291v2.024a1.251,1.251,0,0,1-1.249,1.25m-1.855-2.982v1.733a.668.668,0,0,0,.667.667h1.188A.668.668,0,0,0,56,41.758V40.026Z" transform="translate(-33.634 -25.082)"/>
        <path id="パス_7692" data-name="パス 7692" d="M26.413,15.1V10.258a1.783,1.783,0,0,0-.286-.969l-.893-1.707L23.051,2.8a1.631,1.631,0,0,0-1.094-.907A29.011,29.011,0,0,0,16.164,1.5a29.011,29.011,0,0,0-5.793.394A1.631,1.631,0,0,0,9.277,2.8L7.093,7.582,6.2,9.29a1.786,1.786,0,0,0-.285.969V15.1a.846.846,0,0,0,.846.846H25.567a.846.846,0,0,0,.846-.846" transform="translate(-3.761 -0.954)" fill="#f7f7f7"/>
        <path id="パス_7693" data-name="パス 7693" d="M2.056,12.935a.568.568,0,0,1-.113-.012l-.724-.151a.529.529,0,0,1-.091-.028C1.012,12.7,0,12.266,0,11.342A1.36,1.36,0,0,1,1.214,9.925h.942a1.6,1.6,0,0,1,1.117.452l.67.648a.546.546,0,0,1-.759.785l-.67-.648a.511.511,0,0,0-.357-.145H1.251a.343.343,0,0,0-.158.325c0,.106.213.282.405.372l.669.139a.546.546,0,0,1-.111,1.081" transform="translate(0 -6.311)"/>
        <path id="パス_7694" data-name="パス 7694" d="M58.825,12.935a.546.546,0,0,1-.111-1.081l.67-.139c.19-.089.4-.265.4-.372a.343.343,0,0,0-.158-.325h-.905a.512.512,0,0,0-.358.145l-.67.648a.546.546,0,1,1-.759-.785l.67-.649a1.6,1.6,0,0,1,1.117-.452h.942a1.36,1.36,0,0,1,1.214,1.417c0,.924-1.012,1.356-1.128,1.4a.53.53,0,0,1-.091.028l-.724.151a.568.568,0,0,1-.113.012" transform="translate(-36.102 -6.311)"/>
        <path id="パス_7695" data-name="パス 7695" d="M10.931,22.105l-.054,0L7.4,21.755A1.638,1.638,0,0,1,5.991,20.4l-.151-1,1.08-.163.15.994a.541.541,0,0,0,.463.442l2.723.272-.177-.918a.428.428,0,0,0-.225-.221L6.705,18.56l.4-1.016,3.161,1.249a1.53,1.53,0,0,1,.853.9.518.518,0,0,1,.022.08l.325,1.687a.546.546,0,0,1-.536.65" transform="translate(-3.714 -11.156)" fill="#e60012"/>
        <path id="パス_7696" data-name="パス 7696" d="M47.32,22.105a.546.546,0,0,1-.536-.649l.324-1.687a.479.479,0,0,1,.022-.08,1.524,1.524,0,0,1,.842-.891l3.172-1.254.4,1.016-3.16,1.249a.422.422,0,0,0-.214.216L48,20.939l2.558-.27a.8.8,0,0,0,.629-.449l.148-.984,1.08.162-.149.994a1.839,1.839,0,0,1-1.576,1.361l-3.308.35-.057,0" transform="translate(-29.744 -11.156)" fill="#e60012"/>
        <path id="パス_7697" data-name="パス 7697" d="M27.84,28.186H20.426a1.515,1.515,0,0,1-1.183-.565l-.787-.974.85-.686.786.974a.427.427,0,0,0,.334.159H27.84a.428.428,0,0,0,.334-.159l.787-.974.85.686-.787.974a1.515,1.515,0,0,1-1.184.565" transform="translate(-11.736 -16.508)" fill="#e60012"/>
        <path id="パス_7698" data-name="パス 7698" d="M30.39,24.7H23.849a.546.546,0,0,1,0-1.092H30.39a.546.546,0,0,1,0,1.092" transform="translate(-14.819 -15.012)"/>
        <path id="パス_7699" data-name="パス 7699" d="M27.924,10.021h-.688a.546.546,0,1,1,0-1.092h.356l-1.067-1.79a.964.964,0,0,0-.842-.5H17.837a.954.954,0,0,0-.849.516L16.02,8.928h9.314a.546.546,0,0,1,0,1.092H15.7A.9.9,0,0,1,14.9,8.7l1.123-2.061a2.038,2.038,0,0,1,1.814-1.094h7.846A2.051,2.051,0,0,1,27.47,6.592L28.7,8.663a.9.9,0,0,1-.781,1.358" transform="translate(-9.41 -3.526)"/>
        <path id="パス_7700" data-name="パス 7700" d="M24.613,15.541H5.806a1.394,1.394,0,0,1-1.392-1.392V9.3a2.328,2.328,0,0,1,.358-1.242l.883-1.687L7.826,1.62A2.165,2.165,0,0,1,9.286.41,30.146,30.146,0,0,1,15.21,0a30.151,30.151,0,0,1,5.924.41,2.165,2.165,0,0,1,1.459,1.21L24.778,6.4l.869,1.661A2.325,2.325,0,0,1,26.005,9.3v4.844a1.394,1.394,0,0,1-1.392,1.392M15.21,1.092a29.827,29.827,0,0,0-5.662.378,1.081,1.081,0,0,0-.728.6L6.635,6.855,5.729,8.589,5.7,8.632a1.236,1.236,0,0,0-.2.672v4.844a.3.3,0,0,0,.3.3H24.613a.3.3,0,0,0,.3-.3V9.3a1.236,1.236,0,0,0-.2-.672c-.009-.014-.017-.028-.025-.043L23.8,6.882,21.6,2.073a1.082,1.082,0,0,0-.728-.6,26.54,26.54,0,0,0-5.662-.378" transform="translate(-2.807 0)"/>
        <path id="パス_7701" data-name="パス 7701" d="M31.578,38.559H26.641a.224.224,0,0,1-.224-.224V35.848a.224.224,0,0,1,.224-.224h4.937a.224.224,0,0,1,.224.224v2.487a.224.224,0,0,1-.224.224" transform="translate(-16.799 -22.654)" fill="#f7f7f7"/>
        <path id="パス_7702" data-name="パス 7702" d="M30.624,38.152H25.687a.771.771,0,0,1-.77-.77V34.894a.771.771,0,0,1,.77-.77h4.937a.771.771,0,0,1,.77.77v2.487a.771.771,0,0,1-.77.77m-4.615-1.092H30.3V35.216H26.009Z" transform="translate(-15.845 -21.7)"/>
      </g>
    </g>
  </g>
</svg>
