<svg width="60" height="60" viewBox="0 0 60 60" fill="none" xmlns="http://www.w3.org/2000/svg">
<mask id="mask0_37_13569" style="mask-type:alpha" maskUnits="userSpaceOnUse" x="0" y="16" width="58" height="28">
<rect y="16.5566" width="57.7988" height="27.1941" fill="#D9D9D9"/>
</mask>
<g mask="url(#mask0_37_13569)">
<path d="M57.7746 30.0093C57.7693 29.5297 57.7647 29.1693 57.7647 28.9825C57.7647 27.9105 56.7681 18.4725 56.1763 17.4142C55.9889 17.0774 55.755 16.6587 33.6702 16.5709C22.5763 16.5263 11.3966 16.5991 10.7118 16.6141C8.60905 16.6626 7.20806 17.257 6.10523 18.4627C6.07181 18.4882 6.04494 18.5184 6.02201 18.5531C4.82875 19.9102 3.98409 22.0097 2.97431 24.9729C2.72596 25.7022 2.50447 26.6235 2.30527 27.6477H1.49141V27.5376C2.0543 27.4059 2.03923 26.8457 2.03923 25.617C2.03923 24.5371 2.06413 23.6623 1.17491 23.6623C0.279804 23.6623 0 24.1525 0 25.617C0 26.501 0.102223 27.2401 0.705079 27.4813V28.0409C0.705079 28.2578 0.881349 28.4334 1.09825 28.4334H2.16045C1.56808 31.8218 1.20702 36.093 1.02092 38.8058C0.96457 39.6387 1.57201 40.3621 2.40356 40.4512C2.4147 40.4525 2.42453 40.4532 2.43567 40.4532L4.33336 40.503C4.80647 42.3659 6.4925 43.7505 8.50093 43.7505C10.4648 43.7505 12.122 42.4269 12.6364 40.6255H13.8853C13.9148 40.6327 13.943 40.6432 13.9745 40.6432C14.0066 40.6432 14.0341 40.6327 14.0636 40.6255H20.5404C20.5705 40.6321 20.5987 40.6432 20.6308 40.6432C20.6622 40.6432 20.6904 40.6321 20.7206 40.6249H38.7813C39.2951 42.4262 40.9529 43.7505 42.9168 43.7505C44.8748 43.7505 46.528 42.4354 47.0483 40.6432H47.1257C56.9194 40.3451 57.3126 39.8529 57.441 39.6917C57.614 39.4755 57.732 38.7632 57.7779 36.4665C57.7785 36.456 57.7838 36.4475 57.7838 36.4363C57.7838 36.4278 57.7792 36.4212 57.7785 36.4127C57.8067 34.9757 57.8067 32.9306 57.7746 30.0093ZM2.05626 35.667H2.50447C2.57524 35.667 2.63225 35.7247 2.63225 35.7955V37.0785C2.63225 37.1486 2.57524 37.2063 2.50447 37.2063H1.92717C1.96583 36.7161 2.00843 36.2004 2.05626 35.667ZM4.1964 39.446C4.1964 39.5364 4.20492 39.6249 4.21016 39.7134L2.47368 39.6682C2.07002 39.617 1.77777 39.2645 1.80529 38.8595C1.82429 38.5863 1.84526 38.294 1.86754 37.992H2.50447C3.00838 37.992 3.41793 37.5824 3.41793 37.0785V36.8295H5.09086C4.53256 37.5555 4.1964 38.4611 4.1964 39.446ZM8.50093 41.8764C7.15892 41.8764 6.06919 40.7893 6.06919 39.446C6.06919 38.104 7.15892 37.0162 8.50093 37.0162C9.84293 37.0162 10.9307 38.104 10.9307 39.446C10.9307 40.7893 9.84293 41.8764 8.50093 41.8764ZM13.582 39.8398H12.7851C12.7969 39.7094 12.8048 39.579 12.8048 39.446C12.8048 38.4611 12.4686 37.5555 11.9103 36.8295H13.582V39.8398ZM13.582 36.0438H11.1273C10.3999 35.4803 9.4904 35.1415 8.50093 35.1415C7.51146 35.1415 6.60193 35.4803 5.87391 36.0438H3.41793V35.7955C3.41793 35.2909 3.00838 34.8813 2.50447 34.8813H2.12834C2.45729 31.4051 2.97038 27.423 3.71936 25.2265C4.72325 22.2797 5.51679 20.3623 6.51674 19.1612H13.582V36.0438ZM20.2376 39.8392H14.3676V19.1612H20.2376V39.8392ZM38.6129 39.446C38.6129 39.5784 38.6208 39.7094 38.6326 39.8392H21.0233V36.8295H39.5074C38.9491 37.5555 38.6129 38.4611 38.6129 39.446ZM42.9168 41.8764C41.5748 41.8764 40.4857 40.7893 40.4857 39.446C40.4857 38.104 41.5748 37.0162 42.9168 37.0162C44.2588 37.0162 45.3466 38.104 45.3466 39.446C45.3466 40.7893 44.2588 41.8764 42.9168 41.8764ZM56.8382 39.1662C56.1174 39.4342 51.4518 39.7232 47.2004 39.8549C47.2128 39.7199 47.2213 39.5843 47.2213 39.446C47.2213 38.4611 46.8852 37.5555 46.3269 36.8295H56.9863C56.9581 38.1407 56.9083 38.9283 56.8382 39.1662ZM56.9994 36.0438H45.5438C44.8158 35.4803 43.9063 35.1415 42.9168 35.1415C41.928 35.1415 41.0178 35.4803 40.2904 36.0438H21.0233V28.6038H54.472H55.7393C55.85 28.6038 55.9555 28.5573 56.0302 28.4753C56.1043 28.3934 56.141 28.284 56.1305 28.1739L55.2328 18.7314C55.2308 18.7091 55.2196 18.6907 55.2144 18.6704C55.2079 18.6462 55.2039 18.6219 55.1928 18.6003C55.1823 18.5774 55.1666 18.559 55.1522 18.5394C55.1364 18.5177 55.122 18.4968 55.1023 18.4791C55.0873 18.466 55.0696 18.4568 55.0526 18.4457C55.0263 18.4286 55.0014 18.4122 54.972 18.4017C54.9529 18.3952 54.932 18.3932 54.9117 18.3893C54.8881 18.3854 54.8665 18.3755 54.8416 18.3755H7.33125C8.20998 17.7131 9.27677 17.4339 10.7295 17.3998C13.9188 17.3291 52.9144 17.181 55.5329 17.8946C56.0014 19.1514 56.9791 27.6988 56.9791 28.9825C56.9791 29.1706 56.983 29.5343 56.9882 30.0172C57.0158 32.54 57.0184 34.5485 56.9994 36.0438ZM21.0233 19.1612H33.2659V27.8181H21.0233V19.1612ZM34.0515 19.1612H45.6139V27.8181H34.0515V19.1612ZM54.0395 27.8181H46.3996V19.1612H53.2171L54.0395 27.8181ZM54.0074 19.1612H54.4838L55.3068 27.8181H54.8298L54.0074 19.1612Z" fill="black"/>
<path d="M16.3629 29.5234H15.973C15.5543 29.5234 15.2148 29.8635 15.2148 30.2822V31.3353C15.2148 31.754 15.5543 32.0934 15.973 32.0934H16.3629C16.781 32.0934 17.1217 31.754 17.1217 31.3353V30.2822C17.1217 29.8635 16.781 29.5234 16.3629 29.5234ZM15.9999 31.3078L15.973 30.3098L16.336 30.2822L16.3629 31.3078H15.9999Z" fill="black"/>
<path d="M15.4597 28.514H19.122C19.5716 28.514 19.9372 28.1484 19.9372 27.6982V20.3113C19.9372 19.8611 19.5716 19.4961 19.122 19.4961H15.4597C15.0095 19.4961 14.6445 19.8611 14.6445 20.3113V27.6982C14.6445 28.1484 15.0095 28.514 15.4597 28.514ZM15.4597 20.2818H19.122L19.1515 20.3113L19.122 27.7284L15.4302 27.6982L15.4597 20.2818Z" fill="black"/>
<path d="M6.34116 20.2929C6.22321 20.517 3.4527 25.8582 2.94289 31.6594C2.93306 31.7727 2.97238 31.8848 3.05101 31.9667C3.12571 32.044 3.22794 32.0873 3.33475 32.0873H3.35375L6.76513 31.9215C8.115 31.8553 9.39214 31.2275 10.2696 30.1994L11.7701 28.4387L12.8749 28.4328C12.913 28.4328 12.9477 28.4216 12.9831 28.4112C12.9968 28.4066 13.0132 28.4079 13.0263 28.402C13.0499 28.3922 13.0676 28.3738 13.0886 28.36C13.1934 28.2893 13.2661 28.1759 13.2655 28.0403V20.3113C13.2655 19.8611 12.9005 19.4961 12.4503 19.4961H7.5128C6.97482 19.4961 6.49384 19.8375 6.34116 20.2929ZM9.67063 29.6883C8.9341 30.5533 7.86075 31.0801 6.72712 31.1351L3.77051 31.2793C3.87601 30.3121 4.04769 29.358 4.25541 28.4393L10.74 28.4347L9.67063 29.6883ZM7.5128 20.2818H12.4503L12.4798 27.6478L4.44544 27.6537C5.44016 23.7449 7.022 20.6848 7.06066 20.6035C7.1275 20.4109 7.30901 20.2818 7.5128 20.2818Z" fill="black"/>
</g>
</svg>
