<svg width="60" height="60" viewBox="0 0 60 60" fill="none" xmlns="http://www.w3.org/2000/svg">
<mask id="mask0_37_13715" style="mask-type:alpha" maskUnits="userSpaceOnUse" x="2" y="18" width="58" height="26">
<rect x="2" y="18" width="58" height="25.0482" fill="#D9D9D9"/>
</mask>
<g mask="url(#mask0_37_13715)">
<path d="M59.6647 32.332L58.7067 32.0229C58.5978 31.9874 58.4815 32.0415 58.4355 32.1442L56.8896 31.6446L56.1642 32.788L55.832 32.6804L54.7826 34.281L51.9801 33.3753C51.6112 33.2558 51.205 33.3834 50.9705 33.6925L49.7711 35.272L49.5017 35.1849C49.2871 35.1159 49.0631 35.1395 48.8759 35.2353C48.6893 35.3311 48.5393 35.4978 48.4697 35.7131C48.4143 35.8848 48.5089 36.0677 48.6793 36.123L48.9512 36.2107L49.0364 36.24L48.5219 36.9174C47.9415 36.8104 47.358 37.1482 47.1726 37.7243C47.0644 38.0589 47.1154 38.4048 47.279 38.6873L45.9546 38.2568L45.9565 36.6748C45.8886 36.0534 45.465 35.9028 45.2124 35.8126C44.9704 35.7268 44.8977 35.7006 44.8977 35.3305L44.9002 34.5747C44.9182 29.5756 44.907 25.8997 44.8659 23.4257L57.2597 20.3631C57.7574 20.24 58.0622 19.7342 57.9384 19.2378L57.8072 18.7072C57.6852 18.2107 57.1857 17.9041 56.6824 18.0272L44.7988 20.9647C44.7652 20.2132 44.7235 19.7529 44.6743 19.5868C44.5568 19.1943 44.4112 18.7059 33.7593 18.6574C28.7689 18.6362 23.4625 18.7271 22.316 18.7526C20.2631 18.7999 18.4243 19.0922 16.7316 19.6422C16.7079 19.6478 16.6855 19.6558 16.6631 19.6664C15.0899 20.1852 13.6417 20.9236 12.2731 21.9121C9.67652 23.7871 6.03297 27.211 5.49051 27.723C4.42737 28.0484 3.62924 29.2925 3.31882 29.9961C3.02084 30.6761 3.02084 32.8017 3.0283 33.4823L2.43919 33.9551C2.15988 34.179 2 34.5124 2 34.8701V37.0848C2 38.467 3.20062 39.1327 3.83515 39.2913C3.85568 39.2957 3.87558 39.2994 3.89549 39.3006L9.39782 39.7516C9.76672 41.6278 11.4227 43.0481 13.4053 43.0481C15.2703 43.0481 16.8442 41.7902 17.3325 40.0795L34.8871 40.0776C35.3748 41.7896 36.9487 43.0481 38.8143 43.0481C40.693 43.0481 42.2756 41.7709 42.7509 40.0409L44.6121 39.825C44.7913 39.8151 44.9599 39.7709 45.1142 39.7013L54.5257 42.5659C54.846 42.6773 55.1826 42.7339 55.5222 42.7339H58.1686C58.4467 42.7339 58.5132 42.3464 58.2519 42.2537L54.2327 40.9473C55.1938 40.7949 56.0392 40.1317 56.3589 39.142C56.5449 38.5653 56.5225 37.9725 56.3365 37.4412C56.3303 37.4232 56.3247 37.4045 56.3185 37.3871C56.3048 37.3504 56.2886 37.3149 56.2731 37.2789C56.2594 37.2465 56.247 37.2142 56.232 37.1824C56.219 37.1557 56.2047 37.1302 56.191 37.104C56.1711 37.0649 56.1518 37.0257 56.13 36.9871C56.1151 36.9622 56.0983 36.938 56.0827 36.9124C56.0603 36.8757 56.0379 36.839 56.0131 36.803C55.9888 36.7681 55.9621 36.7345 55.9359 36.7003C55.9179 36.6767 55.9011 36.6524 55.8824 36.6294C55.8364 36.5734 55.7879 36.5187 55.7369 36.4664C55.5813 36.3053 55.404 36.1622 55.2081 36.0428L56.7459 33.7423L57.1664 33.1152L57.1652 33.1146L57.167 33.1121L56.8299 33.0027L56.7509 32.9765L57.1453 32.3538L58.2557 32.7128C58.2463 32.8142 58.3079 32.9124 58.4093 32.9454L59.3667 33.2546C59.6211 33.3367 59.8942 33.1974 59.9764 32.9423C60.0591 32.6879 59.9191 32.4148 59.6647 32.332ZM56.861 18.752C56.963 18.7333 57.0588 18.788 57.083 18.8857L57.2143 19.417C57.2299 19.481 57.2075 19.5314 57.1932 19.5551C57.1782 19.5793 57.1446 19.6222 57.0806 19.639L44.851 22.6605C44.8435 22.3196 44.8355 22.0104 44.8267 21.7261L56.861 18.752ZM44.0728 21.4288C44.0728 21.4344 44.0703 21.4394 44.0703 21.445L44.1082 23.1445C44.1082 23.1544 44.1138 23.1625 44.1145 23.1719C44.1431 24.7855 44.1617 27.142 44.1617 30.5616H32.4989V28.709H42.3403C42.5462 28.709 42.7129 28.5417 42.7129 28.3358V24.0664C42.7129 23.6558 42.5704 23.3068 42.2992 23.058C41.7723 22.5722 40.9561 22.6232 40.8946 22.6306H32.4989V21.4014H44.0715L44.0728 21.4288ZM32.4989 27.9631V23.3759H40.3154V27.9631H32.4989ZM41.0613 27.9631V23.3765C41.2703 23.3834 41.6006 23.4282 41.7953 23.6086C41.9104 23.7149 41.967 23.8655 41.967 24.0664V27.9631H41.0613ZM16.9941 20.342C18.6109 19.8213 20.3689 19.5439 22.3334 19.4985C29.2939 19.3423 42.586 19.3025 43.9782 19.8947C43.9981 20.0204 44.0199 20.2524 44.0404 20.6555H16.6439L16.9941 20.342ZM4.00249 30.2972C4.27683 29.6745 4.9381 28.7059 5.67341 28.4565L6.2507 29.1967C6.22022 29.5184 6.2028 30.1081 6.19409 30.8577H4.75956C4.50451 30.8577 4.14619 31.0219 3.84572 31.1905C3.8818 30.7893 3.93219 30.4577 4.00249 30.2972ZM3.79222 32.095C3.79782 32.0913 3.80529 32.0932 3.81089 32.0888C4.17978 31.8406 4.63266 31.6098 4.75956 31.6036H6.18974C6.18787 32.0988 6.18911 32.6356 6.19222 33.1905H3.77294C3.77232 32.8478 3.77854 32.4683 3.79222 32.095ZM2.74588 35.4076H4.31415V36.5174H2.74588V35.4076ZM3.99129 38.5597C3.81586 38.5081 2.88336 38.1821 2.76827 37.2639H4.6874C4.89393 37.2639 5.06065 37.0966 5.06065 36.8907V35.035C5.06065 34.8291 4.89393 34.6617 4.6874 34.6617H2.80684C2.83359 34.6157 2.86345 34.5715 2.90638 34.5373L3.63857 33.9501C3.64292 33.9464 3.64479 33.9401 3.64914 33.9364H6.1972C6.21213 35.7149 6.24323 37.5663 6.26563 38.7464L3.99129 38.5597ZM6.27309 28.0123C7.28336 27.0655 10.4162 24.174 12.7104 22.5174C13.4283 21.9986 14.1717 21.5544 14.9431 21.1731L6.6874 28.5436L6.27309 28.0123ZM12.0305 26.2829C11.8675 25.891 11.5496 25.6701 11.0992 25.6048L13.6218 23.3529C13.6529 23.3616 13.6834 23.3728 13.7176 23.3728L18.1362 23.3684C18.1499 23.3722 18.186 23.4605 18.1344 23.6789C18.0205 24.1554 17.6547 26.2313 17.5247 26.9759L12.1798 27.8269C12.1804 27.7709 12.181 27.7149 12.181 27.6583V27.5874C12.1816 27.1047 12.1823 26.6474 12.0305 26.2829ZM11.4351 27.5868V27.6583C11.4351 28.9243 11.3163 28.9771 10.8118 28.9958C10.5002 29.0089 10.2737 28.9485 10.1356 28.816C9.89736 28.5865 9.86687 28.0764 9.86687 27.6583C9.86687 26.4422 10.1443 26.3215 10.8255 26.3215C11.2386 26.3215 11.3026 26.477 11.3412 26.5691C11.4358 26.7967 11.4351 27.1806 11.4351 27.5868ZM9.1577 28.3078L7.83577 28.5187L9.13095 27.3622C9.12597 27.4599 9.12037 27.5551 9.12037 27.6583C9.12037 27.8711 9.12908 28.0919 9.1577 28.3078ZM9.31944 38.961C9.31944 38.9734 9.32068 38.9852 9.32131 38.9977L6.99844 38.8067C7.0028 38.7824 7.01213 38.76 7.01151 38.7345C6.96921 36.4845 6.92877 33.295 6.93437 31.2341L6.93499 31.231L6.93437 31.2272C6.93624 30.3787 6.94681 29.7317 6.96796 29.4132L9.37667 29.0294C9.44075 29.1476 9.51851 29.2577 9.61804 29.3535C9.88678 29.6123 10.2638 29.7436 10.7397 29.7436C10.7726 29.7436 10.805 29.7429 10.8386 29.7417C11.7524 29.7087 12.0392 29.2154 12.1325 28.5908L17.9061 27.6714C18.0628 27.6459 18.1872 27.524 18.2146 27.3666C18.2196 27.3367 18.7303 24.4005 18.861 23.8512C18.9505 23.4723 18.9126 23.1644 18.7477 22.9355C18.5561 22.6698 18.2793 22.6325 18.1922 22.6263H14.4355L15.8078 21.4014H19.3916V30.2493C19.3356 30.7339 17.3742 33.277 15.5086 35.463C14.8927 35.0916 14.1748 34.8739 13.4053 34.8739C11.1521 34.8739 9.31944 36.7072 9.31944 38.961ZM13.4053 41.2677C12.1319 41.2677 11.0974 40.2356 11.0974 38.961C11.0974 37.6863 12.1319 36.6537 13.4053 36.6537C14.6799 36.6537 15.7126 37.6863 15.7126 38.961C15.7126 40.2356 14.6799 41.2677 13.4053 41.2677ZM17.2087 37.4767C16.9711 36.8689 16.5922 36.3333 16.112 35.9072C17.5036 34.2773 20.1462 31.0736 20.1375 30.2549V21.4014H31.7524V22.6306H21.0476C20.9456 22.6306 20.8479 22.6729 20.7776 22.747C20.7067 22.821 20.67 22.9205 20.675 23.0232C20.902 27.4257 24.0205 28.6362 24.153 28.686C24.1947 28.7009 24.2389 28.709 24.283 28.709H31.7524V37.4767H17.2087ZM31.7524 23.3765V27.9631H28.9866V23.3765H31.7524ZM28.2407 23.3765V27.9631H24.3571C23.9602 27.7902 21.7773 26.6978 21.4501 23.3771L28.2407 23.3765ZM34.7471 39.3342L17.4731 39.3348C17.4843 39.2117 17.4918 39.0873 17.4918 38.961C17.4918 38.7084 17.4656 38.4627 17.4215 38.2226H34.7988C34.7546 38.4627 34.7278 38.7084 34.7278 38.961C34.7278 39.0873 34.7359 39.211 34.7471 39.3342ZM38.8143 41.2677C37.5403 41.2677 36.5058 40.2356 36.5058 38.961C36.5058 37.6863 37.5403 36.6537 38.8143 36.6537C40.0883 36.6537 41.121 37.6863 41.121 38.961C41.121 40.2356 40.0883 41.2677 38.8143 41.2677ZM45.2081 38.4104C45.2068 38.7663 44.9282 39.0599 44.5493 39.0817L42.8846 39.2764C42.8921 39.1719 42.9002 39.0673 42.9002 38.961C42.9002 36.7072 41.0675 34.8739 38.8143 34.8739C37.0849 34.8739 35.6068 35.9557 35.0115 37.4767H32.4989V31.3081H44.1611C44.1599 32.3096 44.158 33.3921 44.1537 34.5722L44.1518 35.3305C44.1518 36.2275 44.6582 36.4079 44.9617 36.5162C45.1745 36.5921 45.1975 36.5995 45.2124 36.7146L45.2081 38.4104ZM51.4457 34.0534C51.5272 33.9457 51.6684 33.9009 51.7966 33.9426L53.8799 34.6157L54.4429 34.7986L53.8824 35.6534C53.3275 35.6397 52.7888 35.8014 52.339 36.1019L50.8616 35.6247L50.3732 35.4655L51.4457 34.0534ZM48.1238 38.6586C47.8109 38.5572 47.6386 38.2207 47.74 37.9078C47.8407 37.5949 48.1779 37.4226 48.4908 37.5233C48.8031 37.6247 48.9754 37.9613 48.8746 38.2742C48.7739 38.5871 48.4367 38.7594 48.1238 38.6586ZM48.7882 39.1775C49.088 39.045 49.3337 38.7943 49.442 38.4577C49.5956 37.9818 49.4339 37.4798 49.0737 37.1768L49.6386 36.4328L51.1863 36.933L51.4843 37.03C51.4034 37.1775 51.3344 37.3348 51.2809 37.5009C50.9624 38.4882 51.2572 39.5171 51.9434 40.2033L48.7882 39.1775ZM55.5614 37.8344C55.582 37.9059 55.5975 37.9787 55.6087 38.0527C55.6504 38.3208 55.6305 38.602 55.5415 38.8782C55.4526 39.1538 55.3039 39.3933 55.1129 39.5868C55.0613 39.6403 55.0059 39.6907 54.9468 39.7367C54.5151 40.0789 53.9353 40.2201 53.3705 40.0751C53.3344 40.0658 53.2983 40.0558 53.2622 40.044C53.2267 40.0322 53.1919 40.0198 53.1577 40.0061C52.6152 39.7939 52.2271 39.3404 52.0784 38.8098C52.0579 38.7383 52.0423 38.6649 52.0311 38.5908C51.99 38.3227 52.0093 38.0415 52.0989 37.7653C52.1082 37.7355 52.1201 37.7056 52.1313 37.6764C52.14 37.6534 52.1487 37.631 52.1586 37.6086C52.1829 37.5513 52.2096 37.4966 52.2395 37.4437C52.2513 37.4213 52.2644 37.3995 52.2774 37.3778C52.2936 37.3516 52.3092 37.3261 52.326 37.3013C52.3857 37.2135 52.4529 37.1314 52.5263 37.0568C52.5792 37.0033 52.6345 36.9535 52.693 36.9075C52.8622 36.7719 53.0544 36.668 53.2603 36.6014C53.381 36.561 53.5073 36.5336 53.6355 36.5212C53.8426 36.4988 54.0566 36.5131 54.2681 36.5678C54.3036 36.5771 54.3397 36.5871 54.3751 36.5983C54.4112 36.6101 54.446 36.6232 54.4809 36.6369C54.568 36.6705 54.6513 36.7115 54.7297 36.7569C55.1428 36.9971 55.4364 37.389 55.5614 37.8344Z" fill="black"/>
<path d="M54.5556 37.1263C54.5338 37.1127 54.512 37.1002 54.4896 37.0884C54.4517 37.0672 54.4125 37.048 54.3714 37.0312C54.3329 37.0144 54.2924 36.9994 54.2514 36.9864C54.2097 36.9727 54.1686 36.9615 54.1276 36.9528C53.7164 36.8588 53.2983 36.9596 52.9786 37.1997C52.9568 37.2159 52.9382 37.2358 52.9176 37.2532C52.9052 37.2638 52.8934 37.2744 52.8809 37.2856C52.8598 37.3049 52.8368 37.3211 52.8162 37.3416C52.8069 37.3515 52.7976 37.3609 52.7895 37.3708L52.7876 37.3727C52.6551 37.517 52.5506 37.6918 52.4859 37.8903C52.4218 38.0899 52.4044 38.2934 52.428 38.4893C52.438 38.5745 52.4567 38.6592 52.4822 38.74C52.601 39.1214 52.8803 39.4467 53.2691 39.6116C53.3077 39.6284 53.3475 39.6433 53.3885 39.6564C53.4302 39.67 53.4713 39.6812 53.5123 39.6906C53.9248 39.7839 54.3416 39.6837 54.6613 39.4436C54.7291 39.3932 54.7932 39.336 54.8517 39.2725C54.9854 39.1276 55.0906 38.9522 55.1546 38.7531C55.2193 38.5534 55.2368 38.35 55.2131 38.154C55.2025 38.0688 55.1851 37.9854 55.159 37.9046C55.0607 37.5854 54.8486 37.3061 54.5556 37.1263ZM54.1214 37.8038L54.1773 37.6321C54.242 37.6651 54.3005 37.7074 54.3521 37.7565C54.4256 37.8249 54.4815 37.9089 54.5232 37.9997C54.5288 38.0122 54.5369 38.0228 54.5413 38.0358L54.1848 38.113L54.01 38.1484L54.1214 37.8038ZM53.5154 37.6078C53.6442 37.5531 53.7879 37.5319 53.9335 37.5531L53.8781 37.7254L53.8035 37.9562L53.7649 38.0694L53.4545 37.7248L53.4029 37.6669C53.4383 37.6445 53.4763 37.6246 53.5154 37.6078ZM53.0819 38.0831C53.1111 37.9917 53.1553 37.9095 53.2125 37.8392L53.4564 38.1086L53.5758 38.2436L53.1198 38.3413L53.0439 38.3568C53.0402 38.266 53.052 38.1745 53.0819 38.0831ZM53.4856 38.9397L53.462 39.0113C53.3083 38.9329 53.1926 38.8041 53.1217 38.6548C53.1142 38.6386 53.1049 38.6237 53.0987 38.6069L53.6299 38.4931L53.4856 38.9397ZM53.7481 39.0927C53.7344 39.0915 53.7201 39.0921 53.7064 39.0896L53.8738 38.5721L54.1885 38.9198L54.2389 38.9764C54.0958 39.0685 53.9229 39.1102 53.7481 39.0927ZM54.5593 38.5602C54.5332 38.6417 54.494 38.7133 54.4461 38.7786C54.4399 38.7873 54.4355 38.7966 54.4287 38.8047L54.1836 38.5329L54.0654 38.3997L54.596 38.2859C54.601 38.3761 54.5885 38.4694 54.5593 38.5602Z" fill="black"/>
<path d="M48.3555 37.9044C48.2504 37.8702 48.1372 37.928 48.1036 38.0331C48.0694 38.1389 48.1272 38.2515 48.2324 38.2857C48.3375 38.3199 48.4507 38.2621 48.4849 38.1569C48.5185 38.0512 48.4607 37.9386 48.3555 37.9044Z" fill="black"/>
<path d="M22.3958 28.5859H21.3968C20.9993 28.5859 20.6758 28.9088 20.6758 29.3057V29.6758C20.6758 30.0733 20.9993 30.3956 21.3968 30.3956H22.3958C22.7934 30.3956 23.1156 30.0733 23.1156 29.6758V29.3057C23.1156 28.9088 22.7934 28.5859 22.3958 28.5859ZM22.3697 29.6503L21.4223 29.6758L21.3968 29.3318L22.3697 29.3057V29.6503Z" fill="black"/>
<path d="M16.0667 30.3956H17.0658C17.4633 30.3956 17.7855 30.0727 17.7855 29.6758V29.3057C17.7855 28.9082 17.4633 28.5859 17.0658 28.5859H16.0667C15.6692 28.5859 15.3457 28.9082 15.3457 29.3057V29.6758C15.3457 30.0727 15.6692 30.3956 16.0667 30.3956ZM17.0396 29.3057V29.6503L16.0922 29.6758L16.0667 29.3318L17.0396 29.3057Z" fill="black"/>
</g>
</svg>
