<svg width="60" height="60" viewBox="0 0 60 60" fill="none" xmlns="http://www.w3.org/2000/svg">
<mask id="mask0_37_13783" style="mask-type:alpha" maskUnits="userSpaceOnUse" x="4" y="19" width="52" height="24">
<rect x="4" y="19.6191" width="51.7842" height="22.4376" fill="#D9D9D9"/>
</mask>
<g mask="url(#mask0_37_13783)">
<path d="M6.50121 38.7533C5.966 38.7533 4.96831 38.0713 4.56457 37.7776C4.4965 37.7289 4.44578 37.6602 4.41975 37.5808C4.39973 37.5194 2.45041 31.4645 7.12652 28.8405C8.58534 28.0217 12.3485 27.4104 14.8377 27.006C15.762 26.8552 16.7176 26.7003 16.8831 26.6323C17.0693 26.5395 18.4587 25.7167 19.9296 24.8458C23.1409 22.9445 25.6287 21.477 26.0412 21.3115L26.2847 21.2134C29.3726 19.9681 33.5995 18.2624 50.9699 21.4123C51.2929 21.4717 52.0897 21.9375 52.1665 22.5715C52.1958 22.8164 52.1338 23.1394 51.7534 23.4323C52.2879 23.9789 53.5632 25.0146 54.1705 25.5091C54.8959 26.0984 55.0881 26.2592 55.1682 26.3607C55.2503 26.4855 55.7842 27.3337 55.7842 28.1071C55.7862 30.1585 55.7134 35.0075 55.006 35.7149C54.9567 35.7643 54.8946 35.8003 54.8259 35.8183L47.9609 37.6455L46.2157 38.2228C46.177 38.2361 46.137 38.2428 46.0963 38.2435L20.5749 38.6532L6.50121 38.7533ZM5.14249 37.2064C5.70974 37.6061 6.32436 37.9458 6.49921 37.9532L20.5656 37.8531L46.0222 37.4433L47.7206 36.8821C47.728 36.8794 47.7353 36.8767 47.7433 36.8747L54.4802 35.0816C54.7932 34.4349 54.9854 31.0354 54.984 28.1078C54.984 27.652 54.647 27.0273 54.5169 26.8251C54.4762 26.7898 54.0451 26.4394 53.6653 26.1304C51.9082 24.7023 50.9813 23.9008 50.7917 23.4837C50.7484 23.3863 50.745 23.2755 50.7824 23.1761C50.8198 23.076 50.8965 22.9959 50.9933 22.9525C51.3149 22.809 51.373 22.6929 51.371 22.6696C51.359 22.5141 50.9719 22.2391 50.8198 22.1991C33.6856 19.0926 29.5808 20.7469 26.5837 21.9562L26.3395 22.0543C25.9517 22.2098 22.5729 24.2105 20.338 25.5352C18.4948 26.6263 17.4424 27.2482 17.2328 27.3517C17.0273 27.4558 16.5108 27.5452 14.9665 27.7961C12.6802 28.1678 8.85428 28.7898 7.51892 29.5392C3.71303 31.6741 4.89557 36.3702 5.14249 37.2064Z" fill="#040000"/>
<path d="M4.55697 33.5223C4.34409 33.5223 4.16658 33.3548 4.15657 33.1399C4.14922 32.9523 4.27068 32.7888 4.44286 32.7381C4.6771 32.658 6.77257 31.8779 6.97544 31.7731C7.10958 31.7011 8.18601 31.1592 9.23842 30.6306L5.61739 31.1005C5.39983 31.1305 5.19763 30.975 5.16893 30.7554C5.14024 30.5359 5.29439 30.335 5.51462 30.307L11.4747 29.5322C11.6756 29.5008 11.8524 29.6249 11.9091 29.8118C11.9665 29.9993 11.8804 30.1995 11.7056 30.287C10.2902 30.9977 7.55737 32.3698 7.35183 32.4799C7.33247 32.4905 4.76652 33.5136 4.57433 33.5223H4.55697Z" fill="black"/>
<path d="M7.18067 36.7505C7.03986 36.7505 6.90372 36.6764 6.83098 36.5449L5.86333 34.8145H4.55599C4.3351 34.8145 4.15625 34.635 4.15625 34.4141C4.15625 34.1932 4.3351 34.0137 4.55599 34.0137H6.09823C6.24371 34.0137 6.37718 34.0924 6.44725 34.2185L7.52903 36.1539C7.6378 36.3474 7.5684 36.5916 7.37554 36.6991C7.31347 36.7338 7.24674 36.7505 7.18067 36.7505Z" fill="black"/>
<path d="M46.4482 26.2323C46.2454 26.2323 46.0719 26.0794 46.0505 25.8732L45.8029 23.4528C45.7802 23.2325 45.9404 23.0357 46.16 23.0136C46.3815 22.9923 46.577 23.1505 46.5997 23.3707L46.8473 25.7912C46.87 26.0114 46.7099 26.2082 46.4896 26.2303C46.4756 26.2316 46.4623 26.2323 46.4482 26.2323Z" fill="black"/>
<path d="M46.0902 34.092H46.0722C45.8513 34.0813 45.6805 33.8945 45.6898 33.6736L46.0482 25.8142C46.0575 25.594 46.2237 25.4252 46.4659 25.4318C46.6875 25.4425 46.8577 25.6294 46.8483 25.8503L46.4906 33.7103C46.4806 33.9245 46.3031 34.092 46.0902 34.092Z" fill="black"/>
<path d="M32.8263 27.1842H32.8137C32.5928 27.1775 32.4199 26.9927 32.4259 26.7718L32.5761 21.8721C32.5834 21.6512 32.7429 21.4877 32.9885 21.4844C33.2094 21.491 33.3829 21.6759 33.3762 21.8968L33.2268 26.7965C33.2201 27.0134 33.0419 27.1842 32.8263 27.1842Z" fill="black"/>
<path d="M18.7411 28.2251C18.6016 28.2251 18.4668 28.1524 18.3934 28.0229C18.2826 27.8314 18.3494 27.5865 18.5415 27.477L26.3662 22.9971C29.8457 20.9817 39.1866 19.9393 49.05 23.9287C49.2556 24.0122 49.3543 24.2451 49.2716 24.4499C49.1888 24.6548 48.9532 24.7529 48.7504 24.6715C39.2427 20.8249 30.0113 21.8112 26.7653 23.6912L18.9393 28.1717C18.8766 28.2078 18.8085 28.2245 18.7411 28.2251Z" fill="black"/>
<path d="M19.089 28.4379C19.0403 28.4379 18.9915 28.4292 18.9462 28.4118L16.6525 27.5376C16.4456 27.4589 16.3422 27.228 16.4209 27.0211C16.499 26.8135 16.7319 26.7101 16.9374 26.7895L19.147 27.6317L46.5744 25.4421L48.6705 23.9713C48.8527 23.8432 49.1023 23.8892 49.2284 24.0687C49.3559 24.2503 49.3118 24.4998 49.131 24.6266L46.9447 26.1602C46.886 26.2009 46.8179 26.2263 46.7465 26.2309L19.121 28.4365C19.1103 28.4379 19.0996 28.4379 19.089 28.4379Z" fill="black"/>
<path d="M16.8966 36.7483C16.679 36.7483 16.5002 36.5741 16.4962 36.3559C16.4922 36.135 16.6677 35.9522 16.8886 35.9482L43.2975 35.4316C43.5117 35.4517 43.7006 35.6031 43.7053 35.824C43.7099 36.0449 43.5338 36.2285 43.3129 36.2325L16.9046 36.7483H16.8966Z" fill="black"/>
<path d="M27.0955 23.3931C27.0708 23.3931 27.0461 23.3904 27.0214 23.3857L24.7704 22.9633C24.5522 22.9226 24.4101 22.7131 24.4501 22.4962C24.4922 22.278 24.7017 22.1371 24.9173 22.1765L27.1682 22.5989C27.3864 22.6397 27.5286 22.8492 27.4885 23.0661C27.4518 23.259 27.2843 23.3931 27.0955 23.3931Z" fill="black"/>
<path d="M55.1132 29.9931C55.0478 29.9931 54.9824 29.9771 54.921 29.943C50.5405 27.5312 50.5124 27.2369 50.4898 27.0014C50.4778 26.8692 50.5398 26.7164 50.6419 26.6316C50.7467 26.5442 50.9055 26.4114 54.6513 26.0557C54.8742 26.0404 55.0664 26.1965 55.0878 26.4168C55.1085 26.637 54.947 26.8325 54.7268 26.8532C53.663 26.954 52.5118 27.0794 51.7844 27.1769C52.5565 27.6821 53.9847 28.5129 55.3067 29.2416C55.5009 29.3484 55.5716 29.5913 55.4642 29.7849C55.3914 29.9183 55.2546 29.9924 55.1132 29.9931Z" fill="black"/>
<path d="M33.9435 36.4142H33.9328C33.7119 36.4089 33.5377 36.2247 33.5431 36.0038L33.9075 21.796C33.9128 21.5784 34.0916 21.4062 34.3079 21.4062H34.3185C34.5394 21.4116 34.7136 21.5958 34.7083 21.8167L34.3439 36.0245C34.3386 36.2421 34.1597 36.4142 33.9435 36.4142Z" fill="black"/>
<path d="M31.4072 30.197C30.7279 30.197 30.1419 30.0168 29.841 29.7152C29.6488 29.5237 29.6087 29.3241 29.6094 29.1907C29.6081 29.0605 29.6481 28.861 29.839 28.6681C30.14 28.3652 30.7265 28.1823 31.4066 28.1816C32.4657 28.1816 33.2071 28.5941 33.2091 29.1853C33.2097 29.3775 33.1257 29.7372 32.5598 29.9841C32.2461 30.1203 31.8383 30.1964 31.4106 30.197H31.4072ZM30.4589 29.1907C30.5871 29.2734 30.9021 29.3962 31.4066 29.3962H31.4092C31.9144 29.3949 32.2287 29.2721 32.3575 29.1887C32.2281 29.1052 31.9124 28.9818 31.4072 28.9818C30.9027 28.9831 30.5871 29.1073 30.4589 29.1907Z" fill="black"/>
<path d="M18.9238 36.5965C18.703 36.5965 18.5234 36.417 18.5234 36.1961V27.8236C18.5234 27.6027 18.703 27.4238 18.9238 27.4238C19.1447 27.4238 19.3243 27.6027 19.3243 27.8236V36.1961C19.3243 36.417 19.1447 36.5965 18.9238 36.5965Z" fill="black"/>
<path d="M17.4348 37.6731C17.4348 39.9821 15.5628 41.8541 13.2545 41.8541C10.9455 41.8541 9.07422 39.9821 9.07422 37.6731C9.07422 35.3641 10.9455 33.4922 13.2545 33.4922C15.5628 33.4922 17.4348 35.3641 17.4348 37.6731Z" fill="black"/>
<path d="M13.2542 42.0567C10.8364 42.0567 8.87109 40.09 8.87109 37.6729C8.87109 35.2557 10.8364 33.2891 13.2542 33.2891C15.6714 33.2891 17.6367 35.2557 17.6367 37.6729C17.6367 40.09 15.6714 42.0567 13.2542 42.0567ZM13.2542 33.6955C11.0613 33.6955 9.27751 35.48 9.27751 37.6729C9.27751 39.8658 11.0613 41.6503 13.2542 41.6503C15.4465 41.6503 17.2303 39.8658 17.2303 37.6729C17.2303 35.48 15.4465 33.6955 13.2542 33.6955Z" fill="black"/>
<path d="M15.7284 37.6718C15.7284 39.0392 14.6206 40.147 13.2532 40.147C11.8871 40.147 10.7773 39.0392 10.7773 37.6718C10.7773 36.3044 11.8871 35.1973 13.2532 35.1973C14.6206 35.1973 15.7284 36.3044 15.7284 37.6718Z" fill="white"/>
<path d="M51.1379 37.6731C51.1379 39.9821 49.266 41.8541 46.9576 41.8541C44.6486 41.8541 42.7773 39.9821 42.7773 37.6731C42.7773 35.3641 44.6486 33.4922 46.9576 33.4922C49.266 33.4922 51.1379 35.3641 51.1379 37.6731Z" fill="black"/>
<path d="M46.9574 42.0567C44.5402 42.0567 42.5742 40.09 42.5742 37.6729C42.5742 35.2557 44.5402 33.2891 46.9574 33.2891C49.3745 33.2891 51.3405 35.2557 51.3405 37.6729C51.3405 40.09 49.3745 42.0567 46.9574 42.0567ZM46.9574 33.6955C44.7645 33.6955 42.9806 35.48 42.9806 37.6729C42.9806 39.8658 44.7645 41.6503 46.9574 41.6503C49.1503 41.6503 50.9341 39.8658 50.9341 37.6729C50.9341 35.48 49.1503 33.6955 46.9574 33.6955Z" fill="black"/>
<path d="M49.4315 37.6718C49.4315 39.0392 48.3237 40.147 46.9563 40.147C45.5903 40.147 44.4805 39.0392 44.4805 37.6718C44.4805 36.3044 45.5903 35.1973 46.9563 35.1973C48.3237 35.1973 49.4315 36.3044 49.4315 37.6718Z" fill="white"/>
<path d="M22.2954 25.8682C22.2954 25.8682 22.9 25.5586 23.4806 25.5586C24.0625 25.5586 24.218 25.9457 24.218 26.0391V27.6374C24.218 27.6374 24.2 27.8236 23.7528 27.9157C23.3024 28.0084 21.6534 28.1332 21.6147 27.7455C21.5759 27.3584 21.5953 26.4795 21.7575 26.2546C21.9216 26.0317 22.2954 25.8682 22.2954 25.8682Z" fill="white"/>
<path d="M22.5874 28.4102C22.1416 28.4102 21.6904 28.3581 21.4509 28.1826C21.3147 28.0819 21.2306 27.9404 21.216 27.7842C21.2146 27.7722 21.1118 26.4642 21.4322 26.0197C21.6424 25.7335 22.0254 25.5493 22.1235 25.5052C22.2196 25.4578 22.8496 25.1582 23.4796 25.1582C24.2838 25.1582 24.6174 25.7315 24.6174 26.0391V27.6367C24.6054 27.7889 24.516 28.1666 23.8333 28.3074C23.8226 28.3094 23.2107 28.4102 22.5874 28.4102ZM22.0021 27.5633C22.3318 27.6454 23.262 27.606 23.6711 27.5226C23.7392 27.5093 23.7866 27.4939 23.8186 27.4812L23.8173 26.0491C23.8133 26.0778 23.7392 25.959 23.4796 25.9584C23.0058 25.9584 22.4812 26.2213 22.4759 26.224C22.4706 26.2273 22.4619 26.2313 22.4559 26.234C22.3438 26.284 22.1462 26.4001 22.0795 26.4916C22.0214 26.609 21.9807 27.1596 22.0021 27.5633Z" fill="black"/>
</g>
</svg>
