<svg fill="none" height="40" viewBox="0 0 40 40" width="40" xmlns="http://www.w3.org/2000/svg" xmlns:xlink="http://www.w3.org/1999/xlink"><clipPath id="a"><rect height="40" rx="12" width="40"/></clipPath><clipPath id="b"><path d="m0 0h40v40h-40z"/></clipPath><g clip-path="url(#a)"><g clip-path="url(#b)"><path d="m0 0h40v40h-40z" fill="#eaeaea"/><g fill="#000"><path clip-rule="evenodd" d="m21.9536 20.0726c-.4095.844-1.3228 1.5161-2.5669 1.5161-1.9055 0-3.4645-1.3598-3.4645-4.1888v-.125c0-2.7821 1.5433-4.2669 3.496-4.2669 1.2913 0 2.0629.547 2.5354 1.3754v-4.75144h2.8188v11.76914h-2.8364zm-3.1653-2.7039c0 1.3754.6141 2.0787 1.5905 2.0787 1.0236 0 1.6535-.7033 1.6535-2.0944v-.125c0-1.3754-.5827-2.11-1.622-2.11-1.0551 0-1.622.7033-1.622 2.1256z" fill-rule="evenodd"/><path d="m15.2148 21.4011h-2.8188v-8.1743h2.8188z"/><path d="m5.66028 21.4011h2.81882v-5.7931h2.8143v-2.3812h-5.63312z"/><path clip-rule="evenodd" d="m31.5208 20.0726c-.4095.844-1.3228 1.5161-2.5669 1.5161-1.9055 0-3.4645-1.3598-3.4645-4.1888v-.125c0-2.7821 1.5433-4.2669 3.496-4.2669 1.2913 0 2.0629.547 2.5354 1.3754v-1.5016h2.8188l.0001 8.5144h-2.8188zm-3.1653-2.7039c0 1.3754.6142 2.0787 1.5905 2.0787 1.0236 0 1.6535-.7033 1.6535-2.0944v-.125c0-1.3754-.5827-2.11-1.622-2.11-1.0551 0-1.622.7033-1.622 2.1256z" fill-rule="evenodd"/><path d="m15.2163 9.64861h-2.8242v2.32669h2.8242z"/></g><path d="m0 40h40v-20h-40z" fill="#4060e3"/><g fill="#fff"><path d="m10.3467 28.6958c-.62582 0-1.06039-.4433-1.06039-1.3471v-.0696c0-.9039.39111-1.3819 1.09509-1.3819.6866 0 1.0864.4606 1.0864 1.3645v.0696c0 .9212-.4606 1.3645-1.1211 1.3645zm-.37377.9821c.66927 0 1.22547-.3911 1.46017-.8517v.7561h1.2515v-6.6054h-1.2515v2.7378c-.2521-.4607-.704-.7822-1.4341-.7822-1.13856 0-1.999.8778-1.999 2.3727v.0695c0 1.5123.86913 2.3032 1.97293 2.3032z"/><path d="m13.5426 29.5823h1.2602v-2.2771c0-.8691.5389-1.1733 1.4689-1.1646v-1.1734c-.7388.0087-1.182.3303-1.4689.9387v-.8691h-1.2602z"/><path d="m17.49 24.4197c.4085 0 .7214-.2955.7214-.6866s-.3129-.6866-.7214-.6866c-.3998 0-.7127.2955-.7127.6866s.3129.6866.7127.6866zm-.6171 5.1626h1.2516v-4.5455h-1.2516z"/><path d="m20.2473 29.5823h1.4167l1.6514-4.5455h-1.2168l-1.0777 3.2505-1.0865-3.2505h-1.3471z"/><path d="m25.6088 29.6779c1.2428 0 2.025-.5475 2.1728-1.5296h-1.1907c-.0782.3824-.365.6344-.9474.6344-.6866 0-1.0951-.4345-1.1298-1.1907h3.2766v-.3476c0-1.6253-1.043-2.3119-2.2163-2.3119-1.3211 0-2.3379.9299-2.3379 2.364v.0695c0 1.4515.9994 2.3119 2.3727 2.3119zm-1.0777-2.8594c.0956-.6432.478-1.0169 1.0429-1.0169.5997 0 .9474.3303.9908 1.0169z"/><path d="m28.3545 29.5823h1.2602v-2.2771c0-.8691.5389-1.1733 1.4688-1.1646v-1.1734c-.7387.0087-1.182.3303-1.4688.9387v-.8691h-1.2602z"/></g></g></g></svg>