<svg fill="none" height="24" viewBox="0 0 24 24" width="24" xmlns="http://www.w3.org/2000/svg"><path clip-rule="evenodd" d="m16.5 6.99976c0 3.30004-2.25 6.00004-4.5 6.00004-2.24998 0-4.5-2.7-4.5-6.00004 0-4 2.8125-5 4.5-5s4.5 1 4.5 5zm.5 15.38844v-2.656c-.4533-.2622-.7941-.6973-.9324-1.215l-2.5645-.6871c-.002.0563-.0031.1128-.0031.1697 0 2.1415 1.496 3.9337 3.5 4.3884zm-2.98-6.4902c.7548-1.4264 2.2539-2.3982 3.98-2.3982s3.2252.9718 3.98 2.3981l-2.5659.6876c-.3619-.3619-.8619-.5857-1.4141-.5857-.5523 0-1.0523.2238-1.4142.5857zm8.4769 1.932-2.5645.6871c-.1382.5178-.4791.9529-.9324 1.2151v2.656c2.004-.4547 3.5-2.2469 3.5-4.3884 0-.0569-.0011-.1135-.0031-.1698zm1.5031.1698c0 3.3137-2.6863 6-6 6s-6-2.6863-6-6c0-3.3138 2.6863-6 6-6s6 2.6862 6 6zm-11.7459-3.9991c-.0841-.0006-.1688-.0009-.2541-.0009-5.99625 0-9 1.5-9 5 0 1.66 4.0275 3 9 3 .0849 0 .1695-.0004.2539-.0012-.7904-1.1336-1.2539-2.5121-1.2539-3.9988 0-1.4869.4636-2.8655 1.2541-3.9991z" fill="#21201f" fill-rule="evenodd"/></svg>