<svg fill="none" height="24" viewBox="0 0 24 24" width="24" xmlns="http://www.w3.org/2000/svg"><path d="m15.2792 1.06829c-.5916-.295095-1.2138-.55966-1.7849-.783523-.9603-.3770853-2.0282-.3770853-2.9884 0-1.48094.56891-2.91638 1.249243-4.29397 2.035113-1.21799.725-2.38357 1.53424-3.48818 2.42179-.43771.34665-.79937.77933-1.06254 1.27119s-.42225 1.03242-.46736 1.58815v.58001l3.47798 3.51058z" fill="#8accfd"/><path d="m13.4637 20.4732 9.4038-12.14965c.0816 1.01756-.051-.65124-.051-.72247-.0463-.55651-.207-1.09755-.472-1.58946-.2649-.49191-.6285-.92417-1.0681-1.26987-.357-.28492-.7547-.58001-1.1525-.86493-.714-.50878-1.4891-1.01756-2.3357-1.51616-.8465-.49861-1.6829-.9158-2.509-1.2923l-10.60732 10.62334z" fill="#63b0ea"/><path d="m15.7075 22.7019-7.05799.1628c-.59156-.2951-1.81548-.9056-2.43764-1.272-.80474-.464-1.58437-.9701-2.33565-1.5161-.39778-.2849-.79555-.5698-1.15253-.8548-.44079-.3468-.80508-.7807-1.07008-1.2744-.265-.4938-.42502-1.0368-.47002-1.5951 0-.3561 0-.7428-.0714-1.1091-.06119-.9972-.11219-2.1165-.11219-3.2562 0-1.3534.0612-2.60495.15299-3.84638l3.50858 3.51058z" fill="#55a6e2"/><path d="m23.0001 11.987c0 1.5467-.0714 3.0527-.1836 4.3653-.045.5583-.205 1.1013-.47 1.5951-.265.4937-.6293.9276-1.0701 1.2744-1.1062.8701-2.2717 1.6623-3.4882 2.371-.7139.4172-1.4075.7835-2.0908 1.1091-.6834.3256-1.5095.7021-2.2031 1.0176-.9603.377-2.0281.377-2.9884 0-.83867-.3256-1.6592-.6958-2.45805-1.1092l14.77885-14.7851c.1122 1.333.1734 2.6762.1734 4.1618z" fill="#4ca0de"/></svg>