<svg fill="none" height="80" viewBox="4.5 0 80 80" width="80" xmlns="http://www.w3.org/2000/svg" xmlns:xlink="http://www.w3.org/1999/xlink"><linearGradient id="a"><stop offset=".0576923" stop-color="#76bef3"/><stop offset=".432692" stop-color="#76bef3" stop-opacity=".16"/><stop offset=".605" stop-color="#76bef3" stop-opacity="0"/></linearGradient><linearGradient id="b" gradientUnits="userSpaceOnUse" x1="44.1553" x2="-.000306" xlink:href="#a" y1="39.9051" y2="39.9051"/><linearGradient id="c" gradientUnits="userSpaceOnUse" x1="44.1553" x2="88.3109" xlink:href="#a" y1="39.9052" y2="39.9052"/><linearGradient id="d" gradientUnits="userSpaceOnUse" x1="44.638" x2="13.4153" xlink:href="#a" y1="39.5361" y2="8.31336"/><linearGradient id="e" gradientUnits="userSpaceOnUse" x1="44.7571" x2="44.7571" xlink:href="#a" y1="39.1558" y2="-4.99982"/><linearGradient id="f" gradientUnits="userSpaceOnUse" x1="44.7532" x2="44.7532" xlink:href="#a" y1="40.9995" y2="85.1551"/><linearGradient id="g" gradientUnits="userSpaceOnUse" x1="44.638" x2="75.8607" xlink:href="#a" y1="39.536" y2="8.31325"/><linearGradient id="h" gradientUnits="userSpaceOnUse" x1="44.4837" x2="13.261" xlink:href="#a" y1="40.4642" y2="71.6869"/><linearGradient id="i" gradientUnits="userSpaceOnUse" x1="44.4837" x2="75.7064" xlink:href="#a" y1="40.4643" y2="71.687"/><path d="m44.1553 39.9051-33.1167 5.0736v-10.1472z" fill="url(#b)" opacity=".4"/><path d="m44.1553 39.9052 33.1167-5.0736v10.1472z" fill="url(#c)" opacity=".4"/><path d="m44.638 39.5361-30.6164-16.2177 14.3988-14.39878z" fill="url(#d)" opacity=".4"/><path d="m44.7571 39.1558-10.1815-33.11672h20.363z" fill="url(#e)" opacity=".4"/><path d="m44.7532 40.9995-10.1815 33.1167h20.363z" fill="url(#f)" opacity=".4"/><path d="m44.638 39.536 16.2176-30.61649 14.3989 14.39879z" fill="url(#g)" opacity=".4"/><path d="m44.4837 40.4642-30.6164 16.2176 14.3988 14.3988z" fill="url(#h)" opacity=".4"/><path d="m44.4837 40.4643 16.2176 30.6164 14.3989-14.3988z" fill="url(#i)" opacity=".4"/></svg>