<svg fill="none" height="24" width="24" xmlns="http://www.w3.org/2000/svg"><g clip-rule="evenodd" fill-rule="evenodd"><path d="m15.442 1.297a20.1 20.1 0 0 0 -6.885 0c-3.872.673-5.743 1.658-6.621 2.545a2.94 2.94 0 0 0 -.83 1.676c-.634 4.752 1.773 9.24 1.773 9.24a17.6 17.6 0 0 0 1.635 2.724l16.598-14.368c-1.086-.665-2.842-1.325-5.67-1.817" fill="#e59467"/><path d="m22.064 3.842a5 5 0 0 0 -.952-.728l-16.6 14.368c2.14 2.934 4.679 4.495 6.183 5.22a3 3 0 0 0 2.61 0c1.913-.924 5.502-3.192 7.807-7.943 0 0 2.416-4.489 1.781-9.241a2.94 2.94 0 0 0 -.829-1.676" fill="#c67036"/></g></svg>