<svg xmlns="http://www.w3.org/2000/svg" width="24" height="24" fill="none"><path fill="#EFBF6A" d="M23.136 16.589a85 85 0 0 1-4.842 3.767l-1.218.837-.114.081-.67.44-.816.53c-.795.51-1.58 1.021-2.199 1.389q-.289.181-.62.275a2.48 2.48 0 0 1-1.95-.265c-.703-.429-1.415-.899-2.148-1.358l-.795-.53-.599-.399-.402-.276-1.032-.714c-.362-.255-.682-.51-1.033-.766a121 121 0 0 1-3.82-2.99 2.46 2.46 0 0 1-.75-1.109 2.43 2.43 0 0 1-.055-1.332c.382-1.552 1.033-3.736 1.6-5.564v-.163l.186-.572a71 71 0 0 1 1.93-5.104 2.47 2.47 0 0 1 .822-1.035 2.5 2.5 0 0 1 1.243-.466A67 67 0 0 1 12.07 1c2.178 0 4.13.082 6.019.225.45.038.881.198 1.246.463.364.264.647.623.819 1.037.144.358.289.745.433 1.113.516 1.286 1.032 2.613 1.487 4.083.072.184.134.368.196.562l.062.173a80 80 0 0 1 1.58 5.554c.099.429.08.876-.057 1.295a2.44 2.44 0 0 1-.718 1.084"/><path fill="#D3923C" d="M1.9 7.87C1.26 9.82.496 12.415.073 14.17a2.4 2.4 0 0 0 .795 2.429 46 46 0 0 0 3.81 2.991c.35.255.67.51 1.032.766.95.694 1.889 1.327 2.818 1.93l4.512-4.472z"/><path fill="#C67C12" d="M23.146 16.579a85 85 0 0 1-4.841 3.767c-.754.561-1.786 1.245-2.819 1.898-.795.51-1.58 1.021-2.199 1.389a2.45 2.45 0 0 1-2.57 0 83 83 0 0 1-2.168-1.378L6.722 21.06l15.392-13.2.238.746a80 80 0 0 1 1.579 5.553c.107.436.09.892-.049 1.319a2.44 2.44 0 0 1-.736 1.1"/></svg>