<svg width="24" height="24" viewBox="0 0 24 24" fill="none"
    xmlns="http://www.w3.org/2000/svg">
    <path fill-rule="evenodd" clip-rule="evenodd" d="M12 22C17.523 22 22 17.523 22 12C22 6.477 17.523 2 12 2C6.477 2 2 6.477 2 12C2 17.523 6.477 22 12 22ZM16.6595 8.25113C16.46 8.07681 16.1994 7.9888 15.935 8.00643C15.6707 8.02405 15.4241 8.14587 15.2495 8.34513L10.7325 13.8001L8.7365 11.3251C8.5549 11.1402 8.30857 11.033 8.04946 11.0261C7.79035 11.0192 7.53869 11.1132 7.34754 11.2883C7.15639 11.4634 7.04069 11.7058 7.02483 11.9645C7.00896 12.2232 7.09417 12.478 7.2625 12.6751L9.6355 15.5001C9.90405 15.7936 10.2715 16.0337 10.7325 16.0337C11.256 16.0337 11.7876 15.7494 11.9995 15.5001C12.2114 15.2508 16.7535 9.66213 16.7535 9.66213C16.9279 9.46273 17.0161 9.20225 16.9987 8.93789C16.9812 8.67353 16.8586 8.4259 16.6595 8.25113Z" fill="#FAC220"/>
</svg>
