<svg xmlns="http://www.w3.org/2000/svg" width="16.596" height="14.467" viewBox="0 0 16.596 14.467">
  <path id="合体_122" data-name="合体 122" d="M10099.075,5385.81l-11.909-3.853a.9.9,0,0,1-.131.01.854.854,0,0,1-.174-.018h-2.42a.849.849,0,0,1-.849-.849v-4.966a.849.849,0,0,1,.849-.849h2.42a.853.853,0,0,1,.174-.018.826.826,0,0,1,.131.01l1.98-.639,9.929-3.214a.851.851,0,0,1,1.113.809V5385a.848.848,0,0,1-.351.687.838.838,0,0,1-.5.163A.849.849,0,0,1,10099.075,5385.81Zm-.588-1.978V5373.4l-8.818,2.854-1.785.576v3.57l7.767,2.513v-7.607a.849.849,0,1,1,1.7,0v8.156Zm-13.2-3.582h.895v-3.265h-.895Z" transform="translate(-10083.593 -5371.384)" fill="#df2020"/>
</svg>
