<svg fill="none" height="56" viewBox="0 0 56 56" width="56" xmlns="http://www.w3.org/2000/svg" xmlns:xlink="http://www.w3.org/1999/xlink"><clipPath id="a"><path d="m0 28c0-15.464 12.536-28 28-28s28 12.536 28 28-12.536 28-28 28-28-12.536-28-28z"/></clipPath><g clip-path="url(#a)"><path clip-rule="evenodd" d="m56 28c0 15.464-12.536 28-28 28s-28-12.536-28-28 12.536-28 28-28 28 12.536 28 28zm-45.864 13.5165c2.7327-3.7346 8.6902-5.1165 17.864-5.1165s15.1313 1.3819 17.864 5.1164c-4.0901 5.3973-10.5699 8.8836-17.864 8.8836s-13.7739-3.4863-17.864-8.8835zm17.864-9.3165c5.04 0 9.8-5.6 9.8-12.6 0-8.96-6.02-11.2-9.8-11.2s-9.8 2.24-9.8 11.2c0 7.392 4.76 12.6 9.8 12.6z" fill="#000" fill-rule="evenodd"/></g></svg>